<?xml version="1.0" encoding="utf-8" standalone="no"?>
<!DOCTYPE svg PUBLIC "-//W3C//DTD SVG 1.1//EN"
  "http://www.w3.org/Graphics/SVG/1.1/DTD/svg11.dtd">
<svg xmlns:xlink="http://www.w3.org/1999/xlink" width="530.682pt" height="277.546825pt" viewBox="0 0 530.682 277.546825" xmlns="http://www.w3.org/2000/svg" version="1.1">
 <metadata>
  <rdf:RDF xmlns:dc="http://purl.org/dc/elements/1.1/" xmlns:cc="http://creativecommons.org/ns#" xmlns:rdf="http://www.w3.org/1999/02/22-rdf-syntax-ns#">
   <cc:Work>
    <dc:type rdf:resource="http://purl.org/dc/dcmitype/StillImage"/>
    <dc:date>2022-04-18T13:12:53.511490</dc:date>
    <dc:format>image/svg+xml</dc:format>
    <dc:creator>
     <cc:Agent>
      <dc:title>Matplotlib v3.5.1, https://matplotlib.org/</dc:title>
     </cc:Agent>
    </dc:creator>
   </cc:Work>
  </rdf:RDF>
 </metadata>
 <defs>
  <style type="text/css">*{stroke-linejoin: round; stroke-linecap: butt}</style>
 </defs>
 <g id="figure_1">
  <g id="patch_1">
   <path d="M 0 277.546825 
L 530.682 277.546825 
L 530.682 0 
L 0 0 
z
" style="fill: #ffffff"/>
  </g>
  <g id="axes_1">
   <g id="patch_2">
    <path d="M 39.8 238.146825 
L 520.982 238.146825 
L 520.982 22.115625 
L 39.8 22.115625 
z
" style="fill: #ffffff"/>
   </g>
   <g id="matplotlib.axis_1">
    <g id="xtick_1">
     <g id="line2d_1">
      <path d="M 39.8 238.146825 
L 39.8 22.115625 
" clip-path="url(#p8d4f3ed10d)" style="fill: none; stroke-dasharray: 0.8,1.32; stroke-dashoffset: 0; stroke: #b0b0b0; stroke-width: 0.8"/>
     </g>
     <g id="line2d_2">
      <defs>
       <path id="m62cdd60e07" d="M 0 0 
L 0 3.5 
" style="stroke: #000000; stroke-width: 0.8"/>
      </defs>
      <g>
       <use xlink:href="#m62cdd60e07" x="39.8" y="238.146825" style="stroke: #000000; stroke-width: 0.8"/>
      </g>
     </g>
     <g id="text_1">
      <!-- −4 -->
      <g transform="translate(33.875 251.976513)scale(0.1 -0.1)">
       <defs>
        <path id="STIXGeneral-Regular-2212" d="M 3974 1408 
L 410 1408 
L 410 1830 
L 3974 1830 
L 3974 1408 
z
" transform="scale(0.015625)"/>
        <path id="STIXGeneral-Regular-34" d="M 3027 1069 
L 2368 1069 
L 2368 0 
L 1869 0 
L 1869 1069 
L 77 1069 
L 77 1478 
L 2086 4326 
L 2368 4326 
L 2368 1478 
L 3027 1478 
L 3027 1069 
z
M 1869 1478 
L 1869 3674 
L 333 1478 
L 1869 1478 
z
" transform="scale(0.015625)"/>
       </defs>
       <use xlink:href="#STIXGeneral-Regular-2212"/>
       <use xlink:href="#STIXGeneral-Regular-34" x="68.499985"/>
      </g>
     </g>
    </g>
    <g id="xtick_2">
     <g id="line2d_3">
      <path d="M 99.94775 238.146825 
L 99.94775 22.115625 
" clip-path="url(#p8d4f3ed10d)" style="fill: none; stroke-dasharray: 0.8,1.32; stroke-dashoffset: 0; stroke: #b0b0b0; stroke-width: 0.8"/>
     </g>
     <g id="line2d_4">
      <g>
       <use xlink:href="#m62cdd60e07" x="99.94775" y="238.146825" style="stroke: #000000; stroke-width: 0.8"/>
      </g>
     </g>
     <g id="text_2">
      <!-- −3 -->
      <g transform="translate(94.02275 251.976513)scale(0.1 -0.1)">
       <defs>
        <path id="STIXGeneral-Regular-33" d="M 390 3264 
L 288 3290 
Q 435 3770 748 4048 
Q 1062 4326 1542 4326 
Q 1990 4326 2265 4083 
Q 2541 3840 2541 3450 
Q 2541 2925 1946 2566 
Q 2298 2413 2477 2227 
Q 2758 1914 2758 1402 
Q 2758 890 2464 506 
Q 2246 211 1840 60 
Q 1434 -90 979 -90 
Q 262 -90 262 275 
Q 262 378 339 442 
Q 416 506 525 506 
Q 685 506 915 339 
Q 1197 141 1466 141 
Q 1818 141 2058 425 
Q 2298 710 2298 1120 
Q 2298 1856 1632 2048 
Q 1434 2112 979 2112 
L 979 2202 
Q 1338 2323 1517 2432 
Q 2035 2726 2035 3290 
Q 2035 3610 1852 3776 
Q 1670 3942 1344 3942 
Q 768 3942 390 3264 
z
" transform="scale(0.015625)"/>
       </defs>
       <use xlink:href="#STIXGeneral-Regular-2212"/>
       <use xlink:href="#STIXGeneral-Regular-33" x="68.499985"/>
      </g>
     </g>
    </g>
    <g id="xtick_3">
     <g id="line2d_5">
      <path d="M 160.0955 238.146825 
L 160.0955 22.115625 
" clip-path="url(#p8d4f3ed10d)" style="fill: none; stroke-dasharray: 0.8,1.32; stroke-dashoffset: 0; stroke: #b0b0b0; stroke-width: 0.8"/>
     </g>
     <g id="line2d_6">
      <g>
       <use xlink:href="#m62cdd60e07" x="160.0955" y="238.146825" style="stroke: #000000; stroke-width: 0.8"/>
      </g>
     </g>
     <g id="text_3">
      <!-- −2 -->
      <g transform="translate(154.1705 251.976513)scale(0.1 -0.1)">
       <defs>
        <path id="STIXGeneral-Regular-32" d="M 3034 877 
L 2688 0 
L 186 0 
L 186 77 
L 1325 1286 
Q 1773 1754 1965 2144 
Q 2157 2534 2157 2950 
Q 2157 3379 1920 3616 
Q 1683 3853 1267 3853 
Q 922 3853 720 3673 
Q 518 3494 326 3021 
L 192 3053 
Q 301 3648 630 3987 
Q 960 4326 1523 4326 
Q 2054 4326 2380 4006 
Q 2707 3686 2707 3200 
Q 2707 2477 1888 1613 
L 832 486 
L 2330 486 
Q 2541 486 2665 569 
Q 2790 653 2944 915 
L 3034 877 
z
" transform="scale(0.015625)"/>
       </defs>
       <use xlink:href="#STIXGeneral-Regular-2212"/>
       <use xlink:href="#STIXGeneral-Regular-32" x="68.499985"/>
      </g>
     </g>
    </g>
    <g id="xtick_4">
     <g id="line2d_7">
      <path d="M 220.24325 238.146825 
L 220.24325 22.115625 
" clip-path="url(#p8d4f3ed10d)" style="fill: none; stroke-dasharray: 0.8,1.32; stroke-dashoffset: 0; stroke: #b0b0b0; stroke-width: 0.8"/>
     </g>
     <g id="line2d_8">
      <g>
       <use xlink:href="#m62cdd60e07" x="220.24325" y="238.146825" style="stroke: #000000; stroke-width: 0.8"/>
      </g>
     </g>
     <g id="text_4">
      <!-- −1 -->
      <g transform="translate(214.31825 251.976513)scale(0.1 -0.1)">
       <defs>
        <path id="STIXGeneral-Regular-31" d="M 2522 0 
L 755 0 
L 755 96 
Q 1107 115 1235 227 
Q 1363 339 1363 608 
L 1363 3482 
Q 1363 3795 1171 3795 
Q 1082 3795 883 3718 
L 710 3654 
L 710 3744 
L 1856 4326 
L 1914 4307 
L 1914 486 
Q 1914 275 2042 185 
Q 2170 96 2522 96 
L 2522 0 
z
" transform="scale(0.015625)"/>
       </defs>
       <use xlink:href="#STIXGeneral-Regular-2212"/>
       <use xlink:href="#STIXGeneral-Regular-31" x="68.499985"/>
      </g>
     </g>
    </g>
    <g id="xtick_5">
     <g id="line2d_9">
      <path d="M 280.391 238.146825 
L 280.391 22.115625 
" clip-path="url(#p8d4f3ed10d)" style="fill: none; stroke-dasharray: 0.8,1.32; stroke-dashoffset: 0; stroke: #b0b0b0; stroke-width: 0.8"/>
     </g>
     <g id="line2d_10">
      <g>
       <use xlink:href="#m62cdd60e07" x="280.391" y="238.146825" style="stroke: #000000; stroke-width: 0.8"/>
      </g>
     </g>
     <g id="text_5">
      <!-- 0 -->
      <g transform="translate(277.891 251.976513)scale(0.1 -0.1)">
       <defs>
        <path id="STIXGeneral-Regular-30" d="M 3046 2112 
Q 3046 1683 2963 1302 
Q 2880 922 2717 602 
Q 2554 282 2266 96 
Q 1978 -90 1600 -90 
Q 1210 -90 915 108 
Q 621 307 461 640 
Q 301 973 227 1350 
Q 154 1728 154 2150 
Q 154 2746 301 3222 
Q 448 3699 790 4012 
Q 1133 4326 1626 4326 
Q 2253 4326 2649 3712 
Q 3046 3098 3046 2112 
z
M 2432 2080 
Q 2432 3091 2217 3625 
Q 2003 4160 1587 4160 
Q 1190 4160 979 3622 
Q 768 3085 768 2106 
Q 768 1120 979 598 
Q 1190 77 1600 77 
Q 2003 77 2217 598 
Q 2432 1120 2432 2080 
z
" transform="scale(0.015625)"/>
       </defs>
       <use xlink:href="#STIXGeneral-Regular-30"/>
      </g>
     </g>
    </g>
    <g id="xtick_6">
     <g id="line2d_11">
      <path d="M 340.53875 238.146825 
L 340.53875 22.115625 
" clip-path="url(#p8d4f3ed10d)" style="fill: none; stroke-dasharray: 0.8,1.32; stroke-dashoffset: 0; stroke: #b0b0b0; stroke-width: 0.8"/>
     </g>
     <g id="line2d_12">
      <g>
       <use xlink:href="#m62cdd60e07" x="340.53875" y="238.146825" style="stroke: #000000; stroke-width: 0.8"/>
      </g>
     </g>
     <g id="text_6">
      <!-- 1 -->
      <g transform="translate(338.03875 251.976513)scale(0.1 -0.1)">
       <use xlink:href="#STIXGeneral-Regular-31"/>
      </g>
     </g>
    </g>
    <g id="xtick_7">
     <g id="line2d_13">
      <path d="M 400.6865 238.146825 
L 400.6865 22.115625 
" clip-path="url(#p8d4f3ed10d)" style="fill: none; stroke-dasharray: 0.8,1.32; stroke-dashoffset: 0; stroke: #b0b0b0; stroke-width: 0.8"/>
     </g>
     <g id="line2d_14">
      <g>
       <use xlink:href="#m62cdd60e07" x="400.6865" y="238.146825" style="stroke: #000000; stroke-width: 0.8"/>
      </g>
     </g>
     <g id="text_7">
      <!-- 2 -->
      <g transform="translate(398.1865 251.976513)scale(0.1 -0.1)">
       <use xlink:href="#STIXGeneral-Regular-32"/>
      </g>
     </g>
    </g>
    <g id="xtick_8">
     <g id="line2d_15">
      <path d="M 460.83425 238.146825 
L 460.83425 22.115625 
" clip-path="url(#p8d4f3ed10d)" style="fill: none; stroke-dasharray: 0.8,1.32; stroke-dashoffset: 0; stroke: #b0b0b0; stroke-width: 0.8"/>
     </g>
     <g id="line2d_16">
      <g>
       <use xlink:href="#m62cdd60e07" x="460.83425" y="238.146825" style="stroke: #000000; stroke-width: 0.8"/>
      </g>
     </g>
     <g id="text_8">
      <!-- 3 -->
      <g transform="translate(458.33425 251.976513)scale(0.1 -0.1)">
       <use xlink:href="#STIXGeneral-Regular-33"/>
      </g>
     </g>
    </g>
    <g id="xtick_9">
     <g id="line2d_17">
      <path d="M 520.982 238.146825 
L 520.982 22.115625 
" clip-path="url(#p8d4f3ed10d)" style="fill: none; stroke-dasharray: 0.8,1.32; stroke-dashoffset: 0; stroke: #b0b0b0; stroke-width: 0.8"/>
     </g>
     <g id="line2d_18">
      <g>
       <use xlink:href="#m62cdd60e07" x="520.982" y="238.146825" style="stroke: #000000; stroke-width: 0.8"/>
      </g>
     </g>
     <g id="text_9">
      <!-- 4 -->
      <g transform="translate(518.482 251.976513)scale(0.1 -0.1)">
       <use xlink:href="#STIXGeneral-Regular-34"/>
      </g>
     </g>
    </g>
    <g id="text_10">
     <!-- $y^*_V/\sigma_{y,V}$ [-] -->
     <g transform="translate(256.441 267.246825)scale(0.1 -0.1)">
      <defs>
       <path id="DejaVuSans-Oblique-79" d="M 1588 -325 
Q 1188 -997 936 -1164 
Q 684 -1331 294 -1331 
L -159 -1331 
L -63 -850 
L 269 -850 
Q 509 -850 678 -719 
Q 847 -588 1056 -206 
L 1234 128 
L 459 3500 
L 1069 3500 
L 1650 819 
L 3256 3500 
L 3859 3500 
L 1588 -325 
z
" transform="scale(0.015625)"/>
       <path id="DejaVuSans-2a" d="M 3009 3897 
L 1888 3291 
L 3009 2681 
L 2828 2375 
L 1778 3009 
L 1778 1831 
L 1422 1831 
L 1422 3009 
L 372 2375 
L 191 2681 
L 1313 3291 
L 191 3897 
L 372 4206 
L 1422 3572 
L 1422 4750 
L 1778 4750 
L 1778 3572 
L 2828 4206 
L 3009 3897 
z
" transform="scale(0.015625)"/>
       <path id="DejaVuSans-Oblique-56" d="M 1319 0 
L 500 4666 
L 1119 4666 
L 1797 653 
L 4063 4666 
L 4750 4666 
L 2053 0 
L 1319 0 
z
" transform="scale(0.015625)"/>
       <path id="DejaVuSans-2f" d="M 1625 4666 
L 2156 4666 
L 531 -594 
L 0 -594 
L 1625 4666 
z
" transform="scale(0.015625)"/>
       <path id="DejaVuSans-Oblique-3c3" d="M 2219 3044 
Q 1744 3044 1422 2700 
Q 1081 2341 969 1747 
Q 844 1119 1044 756 
Q 1241 397 1706 397 
Q 2166 397 2503 759 
Q 2844 1122 2966 1747 
Q 3075 2319 2881 2700 
Q 2700 3044 2219 3044 
z
M 2309 3503 
L 4219 3500 
L 4106 2925 
L 3463 2925 
Q 3706 2438 3575 1747 
Q 3406 888 2884 400 
Q 2359 -91 1609 -91 
Q 856 -91 525 400 
Q 194 888 363 1747 
Q 528 2609 1050 3097 
Q 1484 3503 2309 3503 
z
" transform="scale(0.015625)"/>
       <path id="DejaVuSans-2c" d="M 750 794 
L 1409 794 
L 1409 256 
L 897 -744 
L 494 -744 
L 750 256 
L 750 794 
z
" transform="scale(0.015625)"/>
       <path id="STIXGeneral-Regular-20" transform="scale(0.015625)"/>
       <path id="STIXGeneral-Regular-5b" d="M 1914 -998 
L 563 -998 
L 563 4237 
L 1914 4237 
L 1914 4077 
L 1382 4077 
Q 1216 4077 1133 4006 
Q 1050 3936 1050 3770 
L 1050 -493 
Q 1050 -838 1382 -838 
L 1914 -838 
L 1914 -998 
z
" transform="scale(0.015625)"/>
       <path id="STIXGeneral-Regular-2d" d="M 1824 1242 
L 250 1242 
L 250 1645 
L 1824 1645 
L 1824 1242 
z
" transform="scale(0.015625)"/>
       <path id="STIXGeneral-Regular-5d" d="M 1568 -998 
L 218 -998 
L 218 -838 
L 781 -838 
Q 947 -838 1014 -768 
Q 1082 -698 1082 -544 
L 1082 3731 
Q 1082 4077 755 4077 
L 218 4077 
L 218 4237 
L 1568 4237 
L 1568 -998 
z
" transform="scale(0.015625)"/>
      </defs>
      <use xlink:href="#DejaVuSans-Oblique-79" transform="translate(0 0.765625)"/>
      <use xlink:href="#DejaVuSans-2a" transform="translate(77.283529 39.046875)scale(0.7)"/>
      <use xlink:href="#DejaVuSans-Oblique-56" transform="translate(59.179688 -26.578125)scale(0.7)"/>
      <use xlink:href="#DejaVuSans-2f" transform="translate(128.655599 0.765625)"/>
      <use xlink:href="#DejaVuSans-Oblique-3c3" transform="translate(162.347005 0.765625)"/>
      <use xlink:href="#DejaVuSans-Oblique-79" transform="translate(225.725911 -15.640625)scale(0.7)"/>
      <use xlink:href="#DejaVuSans-2c" transform="translate(267.151693 -15.640625)scale(0.7)"/>
      <use xlink:href="#DejaVuSans-Oblique-56" transform="translate(303.040365 -15.640625)scale(0.7)"/>
      <use xlink:href="#STIXGeneral-Regular-20" transform="translate(353.660482 0.765625)"/>
      <use xlink:href="#STIXGeneral-Regular-5b" transform="translate(378.660467 0.765625)"/>
      <use xlink:href="#STIXGeneral-Regular-2d" transform="translate(411.960454 0.765625)"/>
      <use xlink:href="#STIXGeneral-Regular-5d" transform="translate(445.260442 0.765625)"/>
     </g>
    </g>
   </g>
   <g id="matplotlib.axis_2">
    <g id="ytick_1">
     <g id="line2d_19">
      <path d="M 39.8 238.146825 
L 520.982 238.146825 
" clip-path="url(#p8d4f3ed10d)" style="fill: none; stroke-dasharray: 0.8,1.32; stroke-dashoffset: 0; stroke: #b0b0b0; stroke-width: 0.8"/>
     </g>
     <g id="line2d_20">
      <defs>
       <path id="mdaf98493da" d="M 0 0 
L -3.5 0 
" style="stroke: #000000; stroke-width: 0.8"/>
      </defs>
      <g>
       <use xlink:href="#mdaf98493da" x="39.8" y="238.146825" style="stroke: #000000; stroke-width: 0.8"/>
      </g>
     </g>
     <g id="text_11">
      <!-- 0.0 -->
      <g transform="translate(20.3 241.561669)scale(0.1 -0.1)">
       <defs>
        <path id="STIXGeneral-Regular-2e" d="M 1158 275 
Q 1158 134 1052 32 
Q 947 -70 800 -70 
Q 653 -70 550 32 
Q 448 134 448 281 
Q 448 429 553 534 
Q 659 640 806 640 
Q 947 640 1052 531 
Q 1158 422 1158 275 
z
" transform="scale(0.015625)"/>
       </defs>
       <use xlink:href="#STIXGeneral-Regular-30"/>
       <use xlink:href="#STIXGeneral-Regular-2e" x="49.999985"/>
       <use xlink:href="#STIXGeneral-Regular-30" x="74.999969"/>
      </g>
     </g>
    </g>
    <g id="ytick_2">
     <g id="line2d_21">
      <path d="M 39.8 204.586654 
L 520.982 204.586654 
" clip-path="url(#p8d4f3ed10d)" style="fill: none; stroke-dasharray: 0.8,1.32; stroke-dashoffset: 0; stroke: #b0b0b0; stroke-width: 0.8"/>
     </g>
     <g id="line2d_22">
      <g>
       <use xlink:href="#mdaf98493da" x="39.8" y="204.586654" style="stroke: #000000; stroke-width: 0.8"/>
      </g>
     </g>
     <g id="text_12">
      <!-- 0.2 -->
      <g transform="translate(20.3 208.001498)scale(0.1 -0.1)">
       <use xlink:href="#STIXGeneral-Regular-30"/>
       <use xlink:href="#STIXGeneral-Regular-2e" x="49.999985"/>
       <use xlink:href="#STIXGeneral-Regular-32" x="74.999969"/>
      </g>
     </g>
    </g>
    <g id="ytick_3">
     <g id="line2d_23">
      <path d="M 39.8 171.026483 
L 520.982 171.026483 
" clip-path="url(#p8d4f3ed10d)" style="fill: none; stroke-dasharray: 0.8,1.32; stroke-dashoffset: 0; stroke: #b0b0b0; stroke-width: 0.8"/>
     </g>
     <g id="line2d_24">
      <g>
       <use xlink:href="#mdaf98493da" x="39.8" y="171.026483" style="stroke: #000000; stroke-width: 0.8"/>
      </g>
     </g>
     <g id="text_13">
      <!-- 0.4 -->
      <g transform="translate(20.3 174.441327)scale(0.1 -0.1)">
       <use xlink:href="#STIXGeneral-Regular-30"/>
       <use xlink:href="#STIXGeneral-Regular-2e" x="49.999985"/>
       <use xlink:href="#STIXGeneral-Regular-34" x="74.999969"/>
      </g>
     </g>
    </g>
    <g id="ytick_4">
     <g id="line2d_25">
      <path d="M 39.8 137.466313 
L 520.982 137.466313 
" clip-path="url(#p8d4f3ed10d)" style="fill: none; stroke-dasharray: 0.8,1.32; stroke-dashoffset: 0; stroke: #b0b0b0; stroke-width: 0.8"/>
     </g>
     <g id="line2d_26">
      <g>
       <use xlink:href="#mdaf98493da" x="39.8" y="137.466313" style="stroke: #000000; stroke-width: 0.8"/>
      </g>
     </g>
     <g id="text_14">
      <!-- 0.6 -->
      <g transform="translate(20.3 140.881156)scale(0.1 -0.1)">
       <defs>
        <path id="STIXGeneral-Regular-36" d="M 2854 4378 
L 2867 4275 
Q 2112 4154 1606 3664 
Q 1101 3174 973 2451 
Q 1344 2739 1786 2739 
Q 2349 2739 2672 2380 
Q 2995 2022 2995 1402 
Q 2995 774 2669 378 
Q 2291 -90 1651 -90 
Q 870 -90 518 557 
Q 218 1107 218 1786 
Q 218 2835 915 3552 
Q 1312 3962 1731 4131 
Q 2150 4301 2854 4378 
z
M 2419 1203 
Q 2419 2445 1555 2445 
Q 1235 2445 1024 2275 
Q 813 2106 813 1702 
Q 813 954 1046 522 
Q 1280 90 1722 90 
Q 2061 90 2240 394 
Q 2419 698 2419 1203 
z
" transform="scale(0.015625)"/>
       </defs>
       <use xlink:href="#STIXGeneral-Regular-30"/>
       <use xlink:href="#STIXGeneral-Regular-2e" x="49.999985"/>
       <use xlink:href="#STIXGeneral-Regular-36" x="74.999969"/>
      </g>
     </g>
    </g>
    <g id="ytick_5">
     <g id="line2d_27">
      <path d="M 39.8 103.906142 
L 520.982 103.906142 
" clip-path="url(#p8d4f3ed10d)" style="fill: none; stroke-dasharray: 0.8,1.32; stroke-dashoffset: 0; stroke: #b0b0b0; stroke-width: 0.8"/>
     </g>
     <g id="line2d_28">
      <g>
       <use xlink:href="#mdaf98493da" x="39.8" y="103.906142" style="stroke: #000000; stroke-width: 0.8"/>
      </g>
     </g>
     <g id="text_15">
      <!-- 0.8 -->
      <g transform="translate(20.3 107.320986)scale(0.1 -0.1)">
       <defs>
        <path id="STIXGeneral-Regular-38" d="M 2848 992 
Q 2848 499 2505 204 
Q 2163 -90 1587 -90 
Q 1050 -90 704 204 
Q 358 499 358 954 
Q 358 1293 524 1533 
Q 691 1773 1190 2125 
Q 710 2522 553 2765 
Q 397 3008 397 3328 
Q 397 3782 745 4054 
Q 1094 4326 1638 4326 
Q 2106 4326 2410 4060 
Q 2714 3795 2714 3411 
Q 2714 3059 2531 2848 
Q 2349 2637 1856 2374 
Q 2432 1990 2640 1689 
Q 2848 1389 2848 992 
z
M 2272 3411 
Q 2272 3744 2086 3945 
Q 1901 4147 1574 4147 
Q 1248 4147 1059 3977 
Q 870 3808 870 3513 
Q 870 3219 1059 2979 
Q 1248 2739 1670 2490 
Q 1997 2682 2134 2896 
Q 2272 3110 2272 3411 
z
M 1734 1741 
L 1357 1997 
Q 1075 1766 960 1545 
Q 845 1325 845 1011 
Q 845 576 1065 333 
Q 1286 90 1658 90 
Q 1971 90 2166 285 
Q 2362 480 2362 794 
Q 2362 1082 2214 1299 
Q 2067 1517 1734 1741 
z
" transform="scale(0.015625)"/>
       </defs>
       <use xlink:href="#STIXGeneral-Regular-30"/>
       <use xlink:href="#STIXGeneral-Regular-2e" x="49.999985"/>
       <use xlink:href="#STIXGeneral-Regular-38" x="74.999969"/>
      </g>
     </g>
    </g>
    <g id="ytick_6">
     <g id="line2d_29">
      <path d="M 39.8 70.345971 
L 520.982 70.345971 
" clip-path="url(#p8d4f3ed10d)" style="fill: none; stroke-dasharray: 0.8,1.32; stroke-dashoffset: 0; stroke: #b0b0b0; stroke-width: 0.8"/>
     </g>
     <g id="line2d_30">
      <g>
       <use xlink:href="#mdaf98493da" x="39.8" y="70.345971" style="stroke: #000000; stroke-width: 0.8"/>
      </g>
     </g>
     <g id="text_16">
      <!-- 1.0 -->
      <g transform="translate(20.3 73.760815)scale(0.1 -0.1)">
       <use xlink:href="#STIXGeneral-Regular-31"/>
       <use xlink:href="#STIXGeneral-Regular-2e" x="49.999985"/>
       <use xlink:href="#STIXGeneral-Regular-30" x="74.999969"/>
      </g>
     </g>
    </g>
    <g id="ytick_7">
     <g id="line2d_31">
      <path d="M 39.8 36.7858 
L 520.982 36.7858 
" clip-path="url(#p8d4f3ed10d)" style="fill: none; stroke-dasharray: 0.8,1.32; stroke-dashoffset: 0; stroke: #b0b0b0; stroke-width: 0.8"/>
     </g>
     <g id="line2d_32">
      <g>
       <use xlink:href="#mdaf98493da" x="39.8" y="36.7858" style="stroke: #000000; stroke-width: 0.8"/>
      </g>
     </g>
     <g id="text_17">
      <!-- 1.2 -->
      <g transform="translate(20.3 40.200644)scale(0.1 -0.1)">
       <use xlink:href="#STIXGeneral-Regular-31"/>
       <use xlink:href="#STIXGeneral-Regular-2e" x="49.999985"/>
       <use xlink:href="#STIXGeneral-Regular-32" x="74.999969"/>
      </g>
     </g>
    </g>
    <g id="text_18">
     <!-- $V/V_c$ [-] -->
     <g transform="translate(14.129688 146.981225)rotate(-90)scale(0.1 -0.1)">
      <defs>
       <path id="DejaVuSans-Oblique-63" d="M 3431 3366 
L 3316 2797 
Q 3109 2947 2876 3022 
Q 2644 3097 2394 3097 
Q 2119 3097 1870 3000 
Q 1622 2903 1453 2725 
Q 1184 2453 1037 2087 
Q 891 1722 891 1331 
Q 891 859 1127 628 
Q 1363 397 1844 397 
Q 2081 397 2348 469 
Q 2616 541 2906 684 
L 2797 116 
Q 2547 13 2283 -39 
Q 2019 -91 1741 -91 
Q 1044 -91 669 257 
Q 294 606 294 1253 
Q 294 1797 489 2255 
Q 684 2713 1069 3078 
Q 1331 3328 1684 3456 
Q 2038 3584 2456 3584 
Q 2700 3584 2940 3529 
Q 3181 3475 3431 3366 
z
" transform="scale(0.015625)"/>
      </defs>
      <use xlink:href="#DejaVuSans-Oblique-56" transform="translate(0 0.09375)"/>
      <use xlink:href="#DejaVuSans-2f" transform="translate(68.408203 0.09375)"/>
      <use xlink:href="#DejaVuSans-Oblique-56" transform="translate(102.099609 0.09375)"/>
      <use xlink:href="#DejaVuSans-Oblique-63" transform="translate(170.507812 -16.3125)scale(0.7)"/>
      <use xlink:href="#STIXGeneral-Regular-20" transform="translate(211.728516 0.09375)"/>
      <use xlink:href="#STIXGeneral-Regular-5b" transform="translate(236.7285 0.09375)"/>
      <use xlink:href="#STIXGeneral-Regular-2d" transform="translate(270.028488 0.09375)"/>
      <use xlink:href="#STIXGeneral-Regular-5d" transform="translate(303.328476 0.09375)"/>
     </g>
    </g>
   </g>
   <g id="line2d_33">
    <defs>
     <path id="m16b2f78373" d="M 0 3 
C 0.795609 3 1.55874 2.683901 2.12132 2.12132 
C 2.683901 1.55874 3 0.795609 3 0 
C 3 -0.795609 2.683901 -1.55874 2.12132 -2.12132 
C 1.55874 -2.683901 0.795609 -3 0 -3 
C -0.795609 -3 -1.55874 -2.683901 -2.12132 -2.12132 
C -2.683901 -1.55874 -3 -0.795609 -3 0 
C -3 0.795609 -2.683901 1.55874 -2.12132 2.12132 
C -1.55874 2.683901 -0.795609 3 0 3 
z
" style="stroke: #1f77b4"/>
    </defs>
    <g clip-path="url(#p8d4f3ed10d)">
     <use xlink:href="#m16b2f78373" x="-1" y="224.159292" style="fill: #1f77b4; stroke: #1f77b4"/>
     <use xlink:href="#m16b2f78373" x="5.799368" y="223.6197" style="fill: #1f77b4; stroke: #1f77b4"/>
     <use xlink:href="#m16b2f78373" x="21.951817" y="222.210805" style="fill: #1f77b4; stroke: #1f77b4"/>
     <use xlink:href="#m16b2f78373" x="38.104266" y="220.65193" style="fill: #1f77b4; stroke: #1f77b4"/>
     <use xlink:href="#m16b2f78373" x="54.256715" y="218.915968" style="fill: #1f77b4; stroke: #1f77b4"/>
     <use xlink:href="#m16b2f78373" x="70.409164" y="216.963406" style="fill: #1f77b4; stroke: #1f77b4"/>
     <use xlink:href="#m16b2f78373" x="86.561613" y="214.738565" style="fill: #1f77b4; stroke: #1f77b4"/>
     <use xlink:href="#m16b2f78373" x="102.714062" y="212.161577" style="fill: #1f77b4; stroke: #1f77b4"/>
     <use xlink:href="#m16b2f78373" x="118.866511" y="209.109695" style="fill: #1f77b4; stroke: #1f77b4"/>
     <use xlink:href="#m16b2f78373" x="135.01896" y="205.406663" style="fill: #1f77b4; stroke: #1f77b4"/>
     <use xlink:href="#m16b2f78373" x="151.171409" y="200.771305" style="fill: #1f77b4; stroke: #1f77b4"/>
     <use xlink:href="#m16b2f78373" x="167.323858" y="194.803784" style="fill: #1f77b4; stroke: #1f77b4"/>
     <use xlink:href="#m16b2f78373" x="183.476306" y="186.836368" style="fill: #1f77b4; stroke: #1f77b4"/>
     <use xlink:href="#m16b2f78373" x="199.628755" y="175.922643" style="fill: #1f77b4; stroke: #1f77b4"/>
     <use xlink:href="#m16b2f78373" x="215.781204" y="160.168896" style="fill: #1f77b4; stroke: #1f77b4"/>
     <use xlink:href="#m16b2f78373" x="231.933653" y="134.346753" style="fill: #1f77b4; stroke: #1f77b4"/>
     <use xlink:href="#m16b2f78373" x="248.086102" y="99.173272" style="fill: #1f77b4; stroke: #1f77b4"/>
     <use xlink:href="#m16b2f78373" x="264.238551" y="70.868974" style="fill: #1f77b4; stroke: #1f77b4"/>
     <use xlink:href="#m16b2f78373" x="280.391" y="60.700941" style="fill: #1f77b4; stroke: #1f77b4"/>
     <use xlink:href="#m16b2f78373" x="296.543449" y="68.611239" style="fill: #1f77b4; stroke: #1f77b4"/>
     <use xlink:href="#m16b2f78373" x="312.695898" y="88.440486" style="fill: #1f77b4; stroke: #1f77b4"/>
     <use xlink:href="#m16b2f78373" x="328.848347" y="114.200608" style="fill: #1f77b4; stroke: #1f77b4"/>
     <use xlink:href="#m16b2f78373" x="345.000796" y="142.947695" style="fill: #1f77b4; stroke: #1f77b4"/>
     <use xlink:href="#m16b2f78373" x="361.153245" y="173.11997" style="fill: #1f77b4; stroke: #1f77b4"/>
     <use xlink:href="#m16b2f78373" x="377.305694" y="202.619597" style="fill: #1f77b4; stroke: #1f77b4"/>
     <use xlink:href="#m16b2f78373" x="393.458142" y="226.966297" style="fill: #1f77b4; stroke: #1f77b4"/>
     <use xlink:href="#m16b2f78373" x="409.610591" y="236.396589" style="fill: #1f77b4; stroke: #1f77b4"/>
     <use xlink:href="#m16b2f78373" x="425.76304" y="225.37568" style="fill: #1f77b4; stroke: #1f77b4"/>
     <use xlink:href="#m16b2f78373" x="441.915489" y="215.926787" style="fill: #1f77b4; stroke: #1f77b4"/>
     <use xlink:href="#m16b2f78373" x="458.067938" y="216.747093" style="fill: #1f77b4; stroke: #1f77b4"/>
     <use xlink:href="#m16b2f78373" x="474.220387" y="219.364671" style="fill: #1f77b4; stroke: #1f77b4"/>
     <use xlink:href="#m16b2f78373" x="490.372836" y="221.986828" style="fill: #1f77b4; stroke: #1f77b4"/>
     <use xlink:href="#m16b2f78373" x="506.525285" y="224.044278" style="fill: #1f77b4; stroke: #1f77b4"/>
     <use xlink:href="#m16b2f78373" x="522.677734" y="225.527959" style="fill: #1f77b4; stroke: #1f77b4"/>
     <use xlink:href="#m16b2f78373" x="538.830183" y="226.589502" style="fill: #1f77b4; stroke: #1f77b4"/>
     <use xlink:href="#m16b2f78373" x="554.982632" y="227.363804" style="fill: #1f77b4; stroke: #1f77b4"/>
     <use xlink:href="#m16b2f78373" x="571.135081" y="227.942876" style="fill: #1f77b4; stroke: #1f77b4"/>
     <use xlink:href="#m16b2f78373" x="587.28753" y="228.388127" style="fill: #1f77b4; stroke: #1f77b4"/>
     <use xlink:href="#m16b2f78373" x="603.439978" y="228.739434" style="fill: #1f77b4; stroke: #1f77b4"/>
     <use xlink:href="#m16b2f78373" x="619.592427" y="229.023423" style="fill: #1f77b4; stroke: #1f77b4"/>
     <use xlink:href="#m16b2f78373" x="635.744876" y="229.259706" style="fill: #1f77b4; stroke: #1f77b4"/>
     <use xlink:href="#m16b2f78373" x="651.897325" y="229.460049" style="fill: #1f77b4; stroke: #1f77b4"/>
     <use xlink:href="#m16b2f78373" x="668.049774" y="229.636698" style="fill: #1f77b4; stroke: #1f77b4"/>
     <use xlink:href="#m16b2f78373" x="684.202223" y="229.791344" style="fill: #1f77b4; stroke: #1f77b4"/>
     <use xlink:href="#m16b2f78373" x="700.354672" y="229.940094" style="fill: #1f77b4; stroke: #1f77b4"/>
     <use xlink:href="#m16b2f78373" x="717.366631" y="230.080039" style="fill: #1f77b4; stroke: #1f77b4"/>
     <use xlink:href="#m16b2f78373" x="737.199849" y="230.219909" style="fill: #1f77b4; stroke: #1f77b4"/>
     <use xlink:href="#m16b2f78373" x="761.375929" y="230.396186" style="fill: #1f77b4; stroke: #1f77b4"/>
     <use xlink:href="#m16b2f78373" x="790.817726" y="230.593342" style="fill: #1f77b4; stroke: #1f77b4"/>
     <use xlink:href="#m16b2f78373" x="826.630517" y="230.836891" style="fill: #1f77b4; stroke: #1f77b4"/>
     <use xlink:href="#m16b2f78373" x="870.131461" y="231.125405" style="fill: #1f77b4; stroke: #1f77b4"/>
     <use xlink:href="#m16b2f78373" x="922.880472" y="231.482192" style="fill: #1f77b4; stroke: #1f77b4"/>
     <use xlink:href="#m16b2f78373" x="986.710832" y="231.910454" style="fill: #1f77b4; stroke: #1f77b4"/>
     <use xlink:href="#m16b2f78373" x="1063.756513" y="232.420856" style="fill: #1f77b4; stroke: #1f77b4"/>
     <use xlink:href="#m16b2f78373" x="1156.471965" y="233.002767" style="fill: #1f77b4; stroke: #1f77b4"/>
     <use xlink:href="#m16b2f78373" x="1267.638105" y="233.637672" style="fill: #1f77b4; stroke: #1f77b4"/>
     <use xlink:href="#m16b2f78373" x="1400.345634" y="234.29253" style="fill: #1f77b4; stroke: #1f77b4"/>
     <use xlink:href="#m16b2f78373" x="1557.945628" y="234.931685" style="fill: #1f77b4; stroke: #1f77b4"/>
     <use xlink:href="#m16b2f78373" x="1743.954218" y="235.522666" style="fill: #1f77b4; stroke: #1f77b4"/>
     <use xlink:href="#m16b2f78373" x="1961.899293" y="236.043236" style="fill: #1f77b4; stroke: #1f77b4"/>
     <use xlink:href="#m16b2f78373" x="2215.097755" y="236.483082" style="fill: #1f77b4; stroke: #1f77b4"/>
     <use xlink:href="#m16b2f78373" x="2506.359145" y="236.842577" style="fill: #1f77b4; stroke: #1f77b4"/>
     <use xlink:href="#m16b2f78373" x="2837.625653" y="237.129518" style="fill: #1f77b4; stroke: #1f77b4"/>
    </g>
   </g>
   <g id="line2d_34">
    <defs>
     <path id="mad86e87dee" d="M 0 3 
C 0.795609 3 1.55874 2.683901 2.12132 2.12132 
C 2.683901 1.55874 3 0.795609 3 0 
C 3 -0.795609 2.683901 -1.55874 2.12132 -2.12132 
C 1.55874 -2.683901 0.795609 -3 0 -3 
C -0.795609 -3 -1.55874 -2.683901 -2.12132 -2.12132 
C -2.683901 -1.55874 -3 -0.795609 -3 0 
C -3 0.795609 -2.683901 1.55874 -2.12132 2.12132 
C -1.55874 2.683901 -0.795609 3 0 3 
z
" style="stroke: #ff7f0e"/>
    </defs>
    <g clip-path="url(#p8d4f3ed10d)">
     <use xlink:href="#mad86e87dee" x="-1" y="222.98465" style="fill: #ff7f0e; stroke: #ff7f0e"/>
     <use xlink:href="#mad86e87dee" x="6.341538" y="222.395529" style="fill: #ff7f0e; stroke: #ff7f0e"/>
     <use xlink:href="#mad86e87dee" x="19.42953" y="221.28306" style="fill: #ff7f0e; stroke: #ff7f0e"/>
     <use xlink:href="#mad86e87dee" x="31.856266" y="220.110779" style="fill: #ff7f0e; stroke: #ff7f0e"/>
     <use xlink:href="#mad86e87dee" x="44.283003" y="218.83275" style="fill: #ff7f0e; stroke: #ff7f0e"/>
     <use xlink:href="#mad86e87dee" x="56.70974" y="217.455155" style="fill: #ff7f0e; stroke: #ff7f0e"/>
     <use xlink:href="#mad86e87dee" x="69.136477" y="215.955461" style="fill: #ff7f0e; stroke: #ff7f0e"/>
     <use xlink:href="#mad86e87dee" x="81.563213" y="214.316161" style="fill: #ff7f0e; stroke: #ff7f0e"/>
     <use xlink:href="#mad86e87dee" x="93.98995" y="212.511191" style="fill: #ff7f0e; stroke: #ff7f0e"/>
     <use xlink:href="#mad86e87dee" x="106.416687" y="210.506027" style="fill: #ff7f0e; stroke: #ff7f0e"/>
     <use xlink:href="#mad86e87dee" x="118.843423" y="208.253213" style="fill: #ff7f0e; stroke: #ff7f0e"/>
     <use xlink:href="#mad86e87dee" x="131.27016" y="205.684037" style="fill: #ff7f0e; stroke: #ff7f0e"/>
     <use xlink:href="#mad86e87dee" x="143.696897" y="202.702004" style="fill: #ff7f0e; stroke: #ff7f0e"/>
     <use xlink:href="#mad86e87dee" x="156.123633" y="199.161651" style="fill: #ff7f0e; stroke: #ff7f0e"/>
     <use xlink:href="#mad86e87dee" x="168.55037" y="194.855294" style="fill: #ff7f0e; stroke: #ff7f0e"/>
     <use xlink:href="#mad86e87dee" x="180.977107" y="189.466546" style="fill: #ff7f0e; stroke: #ff7f0e"/>
     <use xlink:href="#mad86e87dee" x="193.403843" y="182.506896" style="fill: #ff7f0e; stroke: #ff7f0e"/>
     <use xlink:href="#mad86e87dee" x="205.83058" y="173.174876" style="fill: #ff7f0e; stroke: #ff7f0e"/>
     <use xlink:href="#mad86e87dee" x="218.257317" y="159.995904" style="fill: #ff7f0e; stroke: #ff7f0e"/>
     <use xlink:href="#mad86e87dee" x="230.684053" y="140.167288" style="fill: #ff7f0e; stroke: #ff7f0e"/>
     <use xlink:href="#mad86e87dee" x="243.11079" y="112.44368" style="fill: #ff7f0e; stroke: #ff7f0e"/>
     <use xlink:href="#mad86e87dee" x="255.537527" y="83.216763" style="fill: #ff7f0e; stroke: #ff7f0e"/>
     <use xlink:href="#mad86e87dee" x="267.964263" y="62.221609" style="fill: #ff7f0e; stroke: #ff7f0e"/>
     <use xlink:href="#mad86e87dee" x="280.391" y="54.821738" style="fill: #ff7f0e; stroke: #ff7f0e"/>
     <use xlink:href="#mad86e87dee" x="292.817737" y="60.469566" style="fill: #ff7f0e; stroke: #ff7f0e"/>
     <use xlink:href="#mad86e87dee" x="305.244473" y="75.355318" style="fill: #ff7f0e; stroke: #ff7f0e"/>
     <use xlink:href="#mad86e87dee" x="317.67121" y="95.94328" style="fill: #ff7f0e; stroke: #ff7f0e"/>
     <use xlink:href="#mad86e87dee" x="330.097947" y="119.995607" style="fill: #ff7f0e; stroke: #ff7f0e"/>
     <use xlink:href="#mad86e87dee" x="342.524683" y="145.937882" style="fill: #ff7f0e; stroke: #ff7f0e"/>
     <use xlink:href="#mad86e87dee" x="354.95142" y="172.104467" style="fill: #ff7f0e; stroke: #ff7f0e"/>
     <use xlink:href="#mad86e87dee" x="367.378157" y="196.01288" style="fill: #ff7f0e; stroke: #ff7f0e"/>
     <use xlink:href="#mad86e87dee" x="379.804893" y="213.705257" style="fill: #ff7f0e; stroke: #ff7f0e"/>
     <use xlink:href="#mad86e87dee" x="392.23163" y="220.020221" style="fill: #ff7f0e; stroke: #ff7f0e"/>
     <use xlink:href="#mad86e87dee" x="404.658367" y="213.5499" style="fill: #ff7f0e; stroke: #ff7f0e"/>
     <use xlink:href="#mad86e87dee" x="417.085103" y="205.1116" style="fill: #ff7f0e; stroke: #ff7f0e"/>
     <use xlink:href="#mad86e87dee" x="429.51184" y="203.714864" style="fill: #ff7f0e; stroke: #ff7f0e"/>
     <use xlink:href="#mad86e87dee" x="441.938577" y="206.378353" style="fill: #ff7f0e; stroke: #ff7f0e"/>
     <use xlink:href="#mad86e87dee" x="454.365313" y="210.062477" style="fill: #ff7f0e; stroke: #ff7f0e"/>
     <use xlink:href="#mad86e87dee" x="466.79205" y="213.470261" style="fill: #ff7f0e; stroke: #ff7f0e"/>
     <use xlink:href="#mad86e87dee" x="479.218787" y="216.251424" style="fill: #ff7f0e; stroke: #ff7f0e"/>
     <use xlink:href="#mad86e87dee" x="491.645523" y="218.476114" style="fill: #ff7f0e; stroke: #ff7f0e"/>
     <use xlink:href="#mad86e87dee" x="504.07226" y="220.275849" style="fill: #ff7f0e; stroke: #ff7f0e"/>
     <use xlink:href="#mad86e87dee" x="516.498997" y="221.75821" style="fill: #ff7f0e; stroke: #ff7f0e"/>
     <use xlink:href="#mad86e87dee" x="528.925734" y="223.000129" style="fill: #ff7f0e; stroke: #ff7f0e"/>
     <use xlink:href="#mad86e87dee" x="541.35247" y="224.054438" style="fill: #ff7f0e; stroke: #ff7f0e"/>
     <use xlink:href="#mad86e87dee" x="553.779207" y="224.95964" style="fill: #ff7f0e; stroke: #ff7f0e"/>
     <use xlink:href="#mad86e87dee" x="566.205944" y="225.743637" style="fill: #ff7f0e; stroke: #ff7f0e"/>
     <use xlink:href="#mad86e87dee" x="578.63268" y="226.426823" style="fill: #ff7f0e; stroke: #ff7f0e"/>
     <use xlink:href="#mad86e87dee" x="591.059417" y="227.029217" style="fill: #ff7f0e; stroke: #ff7f0e"/>
     <use xlink:href="#mad86e87dee" x="603.486154" y="227.552674" style="fill: #ff7f0e; stroke: #ff7f0e"/>
     <use xlink:href="#mad86e87dee" x="616.574146" y="228.034779" style="fill: #ff7f0e; stroke: #ff7f0e"/>
     <use xlink:href="#mad86e87dee" x="631.832648" y="228.534783" style="fill: #ff7f0e; stroke: #ff7f0e"/>
     <use xlink:href="#mad86e87dee" x="650.432292" y="229.059888" style="fill: #ff7f0e; stroke: #ff7f0e"/>
     <use xlink:href="#mad86e87dee" x="673.083064" y="229.590216" style="fill: #ff7f0e; stroke: #ff7f0e"/>
     <use xlink:href="#mad86e87dee" x="700.635303" y="230.120704" style="fill: #ff7f0e; stroke: #ff7f0e"/>
     <use xlink:href="#mad86e87dee" x="734.102351" y="230.631788" style="fill: #ff7f0e; stroke: #ff7f0e"/>
     <use xlink:href="#mad86e87dee" x="774.684312" y="231.12421" style="fill: #ff7f0e; stroke: #ff7f0e"/>
     <use xlink:href="#mad86e87dee" x="823.791608" y="231.593024" style="fill: #ff7f0e; stroke: #ff7f0e"/>
     <use xlink:href="#mad86e87dee" x="883.065987" y="232.05861" style="fill: #ff7f0e; stroke: #ff7f0e"/>
     <use xlink:href="#mad86e87dee" x="954.39576" y="232.535525" style="fill: #ff7f0e; stroke: #ff7f0e"/>
     <use xlink:href="#mad86e87dee" x="1039.920398" y="233.04553" style="fill: #ff7f0e; stroke: #ff7f0e"/>
     <use xlink:href="#mad86e87dee" x="1142.017704" y="233.593241" style="fill: #ff7f0e; stroke: #ff7f0e"/>
     <use xlink:href="#mad86e87dee" x="1263.265796" y="234.17071" style="fill: #ff7f0e; stroke: #ff7f0e"/>
     <use xlink:href="#mad86e87dee" x="1406.369779" y="234.754044" style="fill: #ff7f0e; stroke: #ff7f0e"/>
     <use xlink:href="#mad86e87dee" x="1574.0438" y="235.314586" style="fill: #ff7f0e; stroke: #ff7f0e"/>
     <use xlink:href="#mad86e87dee" x="1768.839687" y="235.826454" style="fill: #ff7f0e; stroke: #ff7f0e"/>
     <use xlink:href="#mad86e87dee" x="1992.918934" y="236.273423" style="fill: #ff7f0e; stroke: #ff7f0e"/>
     <use xlink:href="#mad86e87dee" x="2247.775748" y="236.650066" style="fill: #ff7f0e; stroke: #ff7f0e"/>
    </g>
   </g>
   <g id="line2d_35">
    <defs>
     <path id="mbc352a077a" d="M 0 3 
C 0.795609 3 1.55874 2.683901 2.12132 2.12132 
C 2.683901 1.55874 3 0.795609 3 0 
C 3 -0.795609 2.683901 -1.55874 2.12132 -2.12132 
C 1.55874 -2.683901 0.795609 -3 0 -3 
C -0.795609 -3 -1.55874 -2.683901 -2.12132 -2.12132 
C -2.683901 -1.55874 -3 -0.795609 -3 0 
C -3 0.795609 -2.683901 1.55874 -2.12132 2.12132 
C -1.55874 2.683901 -0.795609 3 0 3 
z
" style="stroke: #2ca02c"/>
    </defs>
    <g clip-path="url(#p8d4f3ed10d)">
     <use xlink:href="#mbc352a077a" x="-1" y="224.405631" style="fill: #2ca02c; stroke: #2ca02c"/>
     <use xlink:href="#mbc352a077a" x="17.610059" y="222.817697" style="fill: #2ca02c; stroke: #2ca02c"/>
     <use xlink:href="#mbc352a077a" x="37.827845" y="220.812864" style="fill: #2ca02c; stroke: #2ca02c"/>
     <use xlink:href="#mbc352a077a" x="54.448941" y="218.945893" style="fill: #2ca02c; stroke: #2ca02c"/>
     <use xlink:href="#mbc352a077a" x="68.097327" y="217.223595" style="fill: #2ca02c; stroke: #2ca02c"/>
     <use xlink:href="#mbc352a077a" x="79.293988" y="215.698276" style="fill: #2ca02c; stroke: #2ca02c"/>
     <use xlink:href="#mbc352a077a" x="88.897934" y="214.304375" style="fill: #2ca02c; stroke: #2ca02c"/>
     <use xlink:href="#mbc352a077a" x="98.016651" y="212.833758" style="fill: #2ca02c; stroke: #2ca02c"/>
     <use xlink:href="#mbc352a077a" x="107.135369" y="211.225992" style="fill: #2ca02c; stroke: #2ca02c"/>
     <use xlink:href="#mbc352a077a" x="116.254086" y="209.485148" style="fill: #2ca02c; stroke: #2ca02c"/>
     <use xlink:href="#mbc352a077a" x="125.372804" y="207.581816" style="fill: #2ca02c; stroke: #2ca02c"/>
     <use xlink:href="#mbc352a077a" x="134.491521" y="205.490617" style="fill: #2ca02c; stroke: #2ca02c"/>
     <use xlink:href="#mbc352a077a" x="143.610239" y="203.175696" style="fill: #2ca02c; stroke: #2ca02c"/>
     <use xlink:href="#mbc352a077a" x="152.728956" y="200.590065" style="fill: #2ca02c; stroke: #2ca02c"/>
     <use xlink:href="#mbc352a077a" x="161.847673" y="197.669669" style="fill: #2ca02c; stroke: #2ca02c"/>
     <use xlink:href="#mbc352a077a" x="170.966391" y="194.326113" style="fill: #2ca02c; stroke: #2ca02c"/>
     <use xlink:href="#mbc352a077a" x="180.085108" y="190.434956" style="fill: #2ca02c; stroke: #2ca02c"/>
     <use xlink:href="#mbc352a077a" x="189.203826" y="185.819592" style="fill: #2ca02c; stroke: #2ca02c"/>
     <use xlink:href="#mbc352a077a" x="198.322543" y="180.224304" style="fill: #2ca02c; stroke: #2ca02c"/>
     <use xlink:href="#mbc352a077a" x="207.441261" y="173.256225" style="fill: #2ca02c; stroke: #2ca02c"/>
     <use xlink:href="#mbc352a077a" x="216.559978" y="164.255383" style="fill: #2ca02c; stroke: #2ca02c"/>
     <use xlink:href="#mbc352a077a" x="225.678695" y="152.058974" style="fill: #2ca02c; stroke: #2ca02c"/>
     <use xlink:href="#mbc352a077a" x="234.797413" y="134.808728" style="fill: #2ca02c; stroke: #2ca02c"/>
     <use xlink:href="#mbc352a077a" x="243.91613" y="111.436561" style="fill: #2ca02c; stroke: #2ca02c"/>
     <use xlink:href="#mbc352a077a" x="253.034848" y="85.034069" style="fill: #2ca02c; stroke: #2ca02c"/>
     <use xlink:href="#mbc352a077a" x="262.153565" y="62.143451" style="fill: #2ca02c; stroke: #2ca02c"/>
     <use xlink:href="#mbc352a077a" x="271.272283" y="48.029634" style="fill: #2ca02c; stroke: #2ca02c"/>
     <use xlink:href="#mbc352a077a" x="280.391" y="44.426388" style="fill: #2ca02c; stroke: #2ca02c"/>
     <use xlink:href="#mbc352a077a" x="289.509717" y="50.184459" style="fill: #2ca02c; stroke: #2ca02c"/>
     <use xlink:href="#mbc352a077a" x="298.628435" y="63.002294" style="fill: #2ca02c; stroke: #2ca02c"/>
     <use xlink:href="#mbc352a077a" x="307.747152" y="80.688348" style="fill: #2ca02c; stroke: #2ca02c"/>
     <use xlink:href="#mbc352a077a" x="316.86587" y="101.481132" style="fill: #2ca02c; stroke: #2ca02c"/>
     <use xlink:href="#mbc352a077a" x="325.984587" y="123.932693" style="fill: #2ca02c; stroke: #2ca02c"/>
     <use xlink:href="#mbc352a077a" x="335.103305" y="146.68028" style="fill: #2ca02c; stroke: #2ca02c"/>
     <use xlink:href="#mbc352a077a" x="344.222022" y="168.19223" style="fill: #2ca02c; stroke: #2ca02c"/>
     <use xlink:href="#mbc352a077a" x="353.340739" y="186.487976" style="fill: #2ca02c; stroke: #2ca02c"/>
     <use xlink:href="#mbc352a077a" x="362.459457" y="199.040433" style="fill: #2ca02c; stroke: #2ca02c"/>
     <use xlink:href="#mbc352a077a" x="371.578174" y="203.362352" style="fill: #2ca02c; stroke: #2ca02c"/>
     <use xlink:href="#mbc352a077a" x="380.696892" y="199.427724" style="fill: #2ca02c; stroke: #2ca02c"/>
     <use xlink:href="#mbc352a077a" x="389.815609" y="192.829681" style="fill: #2ca02c; stroke: #2ca02c"/>
     <use xlink:href="#mbc352a077a" x="398.934327" y="190.026572" style="fill: #2ca02c; stroke: #2ca02c"/>
     <use xlink:href="#mbc352a077a" x="408.053044" y="191.70446" style="fill: #2ca02c; stroke: #2ca02c"/>
     <use xlink:href="#mbc352a077a" x="417.171761" y="195.676643" style="fill: #2ca02c; stroke: #2ca02c"/>
     <use xlink:href="#mbc352a077a" x="426.290479" y="200.028857" style="fill: #2ca02c; stroke: #2ca02c"/>
     <use xlink:href="#mbc352a077a" x="435.409196" y="203.883027" style="fill: #2ca02c; stroke: #2ca02c"/>
     <use xlink:href="#mbc352a077a" x="444.527914" y="207.125063" style="fill: #2ca02c; stroke: #2ca02c"/>
     <use xlink:href="#mbc352a077a" x="453.646631" y="209.854315" style="fill: #2ca02c; stroke: #2ca02c"/>
     <use xlink:href="#mbc352a077a" x="462.765349" y="212.183308" style="fill: #2ca02c; stroke: #2ca02c"/>
     <use xlink:href="#mbc352a077a" x="471.884066" y="214.196864" style="fill: #2ca02c; stroke: #2ca02c"/>
     <use xlink:href="#mbc352a077a" x="481.002783" y="215.956612" style="fill: #2ca02c; stroke: #2ca02c"/>
     <use xlink:href="#mbc352a077a" x="490.121501" y="217.508313" style="fill: #2ca02c; stroke: #2ca02c"/>
     <use xlink:href="#mbc352a077a" x="499.240218" y="218.882773" style="fill: #2ca02c; stroke: #2ca02c"/>
     <use xlink:href="#mbc352a077a" x="508.358936" y="220.115555" style="fill: #2ca02c; stroke: #2ca02c"/>
     <use xlink:href="#mbc352a077a" x="517.477653" y="221.202476" style="fill: #2ca02c; stroke: #2ca02c"/>
     <use xlink:href="#mbc352a077a" x="527.081599" y="222.211732" style="fill: #2ca02c; stroke: #2ca02c"/>
     <use xlink:href="#mbc352a077a" x="538.278261" y="223.28241" style="fill: #2ca02c; stroke: #2ca02c"/>
     <use xlink:href="#mbc352a077a" x="551.926646" y="224.425289" style="fill: #2ca02c; stroke: #2ca02c"/>
     <use xlink:href="#mbc352a077a" x="568.547743" y="225.599495" style="fill: #2ca02c; stroke: #2ca02c"/>
     <use xlink:href="#mbc352a077a" x="588.765527" y="226.779917" style="fill: #2ca02c; stroke: #2ca02c"/>
     <use xlink:href="#mbc352a077a" x="613.323588" y="227.921064" style="fill: #2ca02c; stroke: #2ca02c"/>
     <use xlink:href="#mbc352a077a" x="643.10256" y="228.988459" style="fill: #2ca02c; stroke: #2ca02c"/>
     <use xlink:href="#mbc352a077a" x="679.137406" y="229.944504" style="fill: #2ca02c; stroke: #2ca02c"/>
     <use xlink:href="#mbc352a077a" x="722.632841" y="230.784042" style="fill: #2ca02c; stroke: #2ca02c"/>
     <use xlink:href="#mbc352a077a" x="774.974502" y="231.510279" style="fill: #2ca02c; stroke: #2ca02c"/>
     <use xlink:href="#mbc352a077a" x="837.732331" y="232.156674" style="fill: #2ca02c; stroke: #2ca02c"/>
     <use xlink:href="#mbc352a077a" x="912.651154" y="232.757092" style="fill: #2ca02c; stroke: #2ca02c"/>
     <use xlink:href="#mbc352a077a" x="1001.62279" y="233.345127" style="fill: #2ca02c; stroke: #2ca02c"/>
     <use xlink:href="#mbc352a077a" x="1106.632239" y="233.933757" style="fill: #2ca02c; stroke: #2ca02c"/>
     <use xlink:href="#mbc352a077a" x="1229.67114" y="234.518547" style="fill: #2ca02c; stroke: #2ca02c"/>
     <use xlink:href="#mbc352a077a" x="1372.612018" y="235.080879" style="fill: #2ca02c; stroke: #2ca02c"/>
     <use xlink:href="#mbc352a077a" x="1537.040974" y="235.600164" style="fill: #2ca02c; stroke: #2ca02c"/>
     <use xlink:href="#mbc352a077a" x="1724.054453" y="236.061175" style="fill: #2ca02c; stroke: #2ca02c"/>
    </g>
   </g>
   <g id="line2d_36">
    <defs>
     <path id="mc848ef18df" d="M 0 3 
C 0.795609 3 1.55874 2.683901 2.12132 2.12132 
C 2.683901 1.55874 3 0.795609 3 0 
C 3 -0.795609 2.683901 -1.55874 2.12132 -2.12132 
C 1.55874 -2.683901 0.795609 -3 0 -3 
C -0.795609 -3 -1.55874 -2.683901 -2.12132 -2.12132 
C -2.683901 -1.55874 -3 -0.795609 -3 0 
C -3 0.795609 -2.683901 1.55874 -2.12132 2.12132 
C -1.55874 2.683901 -0.795609 3 0 3 
z
" style="stroke: #d62728"/>
    </defs>
    <g clip-path="url(#p8d4f3ed10d)">
     <use xlink:href="#mc848ef18df" x="-1" y="226.613193" style="fill: #d62728; stroke: #d62728"/>
     <use xlink:href="#mc848ef18df" x="12.901178" y="225.572609" style="fill: #d62728; stroke: #d62728"/>
     <use xlink:href="#mc848ef18df" x="40.195179" y="223.021343" style="fill: #d62728; stroke: #d62728"/>
     <use xlink:href="#mc848ef18df" x="62.750776" y="220.451756" style="fill: #d62728; stroke: #d62728"/>
     <use xlink:href="#mc848ef18df" x="81.351878" y="217.929423" style="fill: #d62728; stroke: #d62728"/>
     <use xlink:href="#mc848ef18df" x="96.665508" y="215.502534" style="fill: #d62728; stroke: #d62728"/>
     <use xlink:href="#mc848ef18df" x="109.254886" y="213.230749" style="fill: #d62728; stroke: #d62728"/>
     <use xlink:href="#mc848ef18df" x="119.592632" y="211.123807" style="fill: #d62728; stroke: #d62728"/>
     <use xlink:href="#mc848ef18df" x="128.07336" y="209.245431" style="fill: #d62728; stroke: #d62728"/>
     <use xlink:href="#mc848ef18df" x="135.347711" y="207.5208" style="fill: #d62728; stroke: #d62728"/>
     <use xlink:href="#mc848ef18df" x="142.254535" y="205.696868" style="fill: #d62728; stroke: #d62728"/>
     <use xlink:href="#mc848ef18df" x="149.161358" y="203.693287" style="fill: #d62728; stroke: #d62728"/>
     <use xlink:href="#mc848ef18df" x="156.068181" y="201.514943" style="fill: #d62728; stroke: #d62728"/>
     <use xlink:href="#mc848ef18df" x="162.975004" y="199.123039" style="fill: #d62728; stroke: #d62728"/>
     <use xlink:href="#mc848ef18df" x="169.881828" y="196.484333" style="fill: #d62728; stroke: #d62728"/>
     <use xlink:href="#mc848ef18df" x="176.788651" y="193.551964" style="fill: #d62728; stroke: #d62728"/>
     <use xlink:href="#mc848ef18df" x="183.695474" y="190.265655" style="fill: #d62728; stroke: #d62728"/>
     <use xlink:href="#mc848ef18df" x="190.602298" y="186.544705" style="fill: #d62728; stroke: #d62728"/>
     <use xlink:href="#mc848ef18df" x="197.509121" y="182.280343" style="fill: #d62728; stroke: #d62728"/>
     <use xlink:href="#mc848ef18df" x="204.415944" y="177.323229" style="fill: #d62728; stroke: #d62728"/>
     <use xlink:href="#mc848ef18df" x="211.322767" y="171.463876" style="fill: #d62728; stroke: #d62728"/>
     <use xlink:href="#mc848ef18df" x="218.229591" y="164.389101" style="fill: #d62728; stroke: #d62728"/>
     <use xlink:href="#mc848ef18df" x="225.136414" y="155.583915" style="fill: #d62728; stroke: #d62728"/>
     <use xlink:href="#mc848ef18df" x="232.043237" y="144.176022" style="fill: #d62728; stroke: #d62728"/>
     <use xlink:href="#mc848ef18df" x="238.95006" y="128.898909" style="fill: #d62728; stroke: #d62728"/>
     <use xlink:href="#mc848ef18df" x="245.856884" y="108.90121" style="fill: #d62728; stroke: #d62728"/>
     <use xlink:href="#mc848ef18df" x="252.763707" y="85.664891" style="fill: #d62728; stroke: #d62728"/>
     <use xlink:href="#mc848ef18df" x="259.67053" y="63.315047" style="fill: #d62728; stroke: #d62728"/>
     <use xlink:href="#mc848ef18df" x="266.577353" y="46.113236" style="fill: #d62728; stroke: #d62728"/>
     <use xlink:href="#mc848ef18df" x="273.484177" y="36.527046" style="fill: #d62728; stroke: #d62728"/>
     <use xlink:href="#mc848ef18df" x="280.391" y="35.04108" style="fill: #d62728; stroke: #d62728"/>
     <use xlink:href="#mc848ef18df" x="287.297823" y="40.773825" style="fill: #d62728; stroke: #d62728"/>
     <use xlink:href="#mc848ef18df" x="294.204647" y="52.24629" style="fill: #d62728; stroke: #d62728"/>
     <use xlink:href="#mc848ef18df" x="301.11147" y="67.888812" style="fill: #d62728; stroke: #d62728"/>
     <use xlink:href="#mc848ef18df" x="308.018293" y="86.255074" style="fill: #d62728; stroke: #d62728"/>
     <use xlink:href="#mc848ef18df" x="314.925116" y="106.059861" style="fill: #d62728; stroke: #d62728"/>
     <use xlink:href="#mc848ef18df" x="321.83194" y="126.133197" style="fill: #d62728; stroke: #d62728"/>
     <use xlink:href="#mc848ef18df" x="328.738763" y="145.331839" style="fill: #d62728; stroke: #d62728"/>
     <use xlink:href="#mc848ef18df" x="335.645586" y="162.429602" style="fill: #d62728; stroke: #d62728"/>
     <use xlink:href="#mc848ef18df" x="342.552409" y="176.034459" style="fill: #d62728; stroke: #d62728"/>
     <use xlink:href="#mc848ef18df" x="349.459233" y="184.668868" style="fill: #d62728; stroke: #d62728"/>
     <use xlink:href="#mc848ef18df" x="356.366056" y="187.273812" style="fill: #d62728; stroke: #d62728"/>
     <use xlink:href="#mc848ef18df" x="363.272879" y="184.459015" style="fill: #d62728; stroke: #d62728"/>
     <use xlink:href="#mc848ef18df" x="370.179702" y="179.638999" style="fill: #d62728; stroke: #d62728"/>
     <use xlink:href="#mc848ef18df" x="377.086526" y="177.007773" style="fill: #d62728; stroke: #d62728"/>
     <use xlink:href="#mc848ef18df" x="383.993349" y="178.200703" style="fill: #d62728; stroke: #d62728"/>
     <use xlink:href="#mc848ef18df" x="390.900172" y="182.217203" style="fill: #d62728; stroke: #d62728"/>
     <use xlink:href="#mc848ef18df" x="397.806996" y="187.171514" style="fill: #d62728; stroke: #d62728"/>
     <use xlink:href="#mc848ef18df" x="404.713819" y="191.839408" style="fill: #d62728; stroke: #d62728"/>
     <use xlink:href="#mc848ef18df" x="411.620642" y="195.899909" style="fill: #d62728; stroke: #d62728"/>
     <use xlink:href="#mc848ef18df" x="418.527465" y="199.396768" style="fill: #d62728; stroke: #d62728"/>
     <use xlink:href="#mc848ef18df" x="425.434289" y="202.434702" style="fill: #d62728; stroke: #d62728"/>
     <use xlink:href="#mc848ef18df" x="432.341112" y="205.102408" style="fill: #d62728; stroke: #d62728"/>
     <use xlink:href="#mc848ef18df" x="439.247935" y="207.46811" style="fill: #d62728; stroke: #d62728"/>
     <use xlink:href="#mc848ef18df" x="446.154758" y="209.57698" style="fill: #d62728; stroke: #d62728"/>
     <use xlink:href="#mc848ef18df" x="453.061582" y="211.480883" style="fill: #d62728; stroke: #d62728"/>
     <use xlink:href="#mc848ef18df" x="459.968405" y="213.173262" style="fill: #d62728; stroke: #d62728"/>
     <use xlink:href="#mc848ef18df" x="467.242756" y="214.751923" style="fill: #d62728; stroke: #d62728"/>
     <use xlink:href="#mc848ef18df" x="475.723485" y="216.440192" style="fill: #d62728; stroke: #d62728"/>
     <use xlink:href="#mc848ef18df" x="486.061231" y="218.2654" style="fill: #d62728; stroke: #d62728"/>
     <use xlink:href="#mc848ef18df" x="498.650609" y="220.163166" style="fill: #d62728; stroke: #d62728"/>
     <use xlink:href="#mc848ef18df" x="513.964239" y="222.097009" style="fill: #d62728; stroke: #d62728"/>
     <use xlink:href="#mc848ef18df" x="532.565339" y="223.998575" style="fill: #d62728; stroke: #d62728"/>
     <use xlink:href="#mc848ef18df" x="555.120934" y="225.804415" style="fill: #d62728; stroke: #d62728"/>
     <use xlink:href="#mc848ef18df" x="582.414939" y="227.444136" style="fill: #d62728; stroke: #d62728"/>
     <use xlink:href="#mc848ef18df" x="615.359844" y="228.879986" style="fill: #d62728; stroke: #d62728"/>
     <use xlink:href="#mc848ef18df" x="655.005179" y="230.087304" style="fill: #d62728; stroke: #d62728"/>
     <use xlink:href="#mc848ef18df" x="702.540069" y="231.085417" style="fill: #d62728; stroke: #d62728"/>
     <use xlink:href="#mc848ef18df" x="759.286105" y="231.910633" style="fill: #d62728; stroke: #d62728"/>
     <use xlink:href="#mc848ef18df" x="826.676214" y="232.620131" style="fill: #d62728; stroke: #d62728"/>
     <use xlink:href="#mc848ef18df" x="906.213903" y="233.262313" style="fill: #d62728; stroke: #d62728"/>
     <use xlink:href="#mc848ef18df" x="999.407705" y="233.870697" style="fill: #d62728; stroke: #d62728"/>
     <use xlink:href="#mc848ef18df" x="1107.675933" y="234.454591" style="fill: #d62728; stroke: #d62728"/>
     <use xlink:href="#mc848ef18df" x="1232.219954" y="235.007948" style="fill: #d62728; stroke: #d62728"/>
     <use xlink:href="#mc848ef18df" x="1373.870254" y="235.5179" style="fill: #d62728; stroke: #d62728"/>
    </g>
   </g>
   <g id="line2d_37">
    <defs>
     <path id="m0a29fbb6bd" d="M 0 3 
C 0.795609 3 1.55874 2.683901 2.12132 2.12132 
C 2.683901 1.55874 3 0.795609 3 0 
C 3 -0.795609 2.683901 -1.55874 2.12132 -2.12132 
C 1.55874 -2.683901 0.795609 -3 0 -3 
C -0.795609 -3 -1.55874 -2.683901 -2.12132 -2.12132 
C -2.683901 -1.55874 -3 -0.795609 -3 0 
C -3 0.795609 -2.683901 1.55874 -2.12132 2.12132 
C -1.55874 2.683901 -0.795609 3 0 3 
z
" style="stroke: #9467bd"/>
    </defs>
    <g clip-path="url(#p8d4f3ed10d)">
     <use xlink:href="#m0a29fbb6bd" x="-1" y="228.133575" style="fill: #9467bd; stroke: #9467bd"/>
     <use xlink:href="#m0a29fbb6bd" x="31.503335" y="225.566414" style="fill: #9467bd; stroke: #9467bd"/>
     <use xlink:href="#m0a29fbb6bd" x="58.795719" y="222.801526" style="fill: #9467bd; stroke: #9467bd"/>
     <use xlink:href="#m0a29fbb6bd" x="81.406754" y="219.929995" style="fill: #9467bd; stroke: #9467bd"/>
     <use xlink:href="#m0a29fbb6bd" x="100.092377" y="217.019056" style="fill: #9467bd; stroke: #9467bd"/>
     <use xlink:href="#m0a29fbb6bd" x="115.501996" y="214.144187" style="fill: #9467bd; stroke: #9467bd"/>
     <use xlink:href="#m0a29fbb6bd" x="128.188192" y="211.361985" style="fill: #9467bd; stroke: #9467bd"/>
     <use xlink:href="#m0a29fbb6bd" x="138.617548" y="208.744133" style="fill: #9467bd; stroke: #9467bd"/>
     <use xlink:href="#m0a29fbb6bd" x="147.181597" y="206.305541" style="fill: #9467bd; stroke: #9467bd"/>
     <use xlink:href="#m0a29fbb6bd" x="154.207245" y="204.120299" style="fill: #9467bd; stroke: #9467bd"/>
     <use xlink:href="#m0a29fbb6bd" x="160.2335" y="202.108242" style="fill: #9467bd; stroke: #9467bd"/>
     <use xlink:href="#m0a29fbb6bd" x="165.955286" y="199.976645" style="fill: #9467bd; stroke: #9467bd"/>
     <use xlink:href="#m0a29fbb6bd" x="171.677071" y="197.627308" style="fill: #9467bd; stroke: #9467bd"/>
     <use xlink:href="#m0a29fbb6bd" x="177.398857" y="195.066388" style="fill: #9467bd; stroke: #9467bd"/>
     <use xlink:href="#m0a29fbb6bd" x="183.120643" y="192.246495" style="fill: #9467bd; stroke: #9467bd"/>
     <use xlink:href="#m0a29fbb6bd" x="188.842429" y="189.127561" style="fill: #9467bd; stroke: #9467bd"/>
     <use xlink:href="#m0a29fbb6bd" x="194.564214" y="185.653475" style="fill: #9467bd; stroke: #9467bd"/>
     <use xlink:href="#m0a29fbb6bd" x="200.286" y="181.75289" style="fill: #9467bd; stroke: #9467bd"/>
     <use xlink:href="#m0a29fbb6bd" x="206.007786" y="177.332734" style="fill: #9467bd; stroke: #9467bd"/>
     <use xlink:href="#m0a29fbb6bd" x="211.729571" y="172.268159" style="fill: #9467bd; stroke: #9467bd"/>
     <use xlink:href="#m0a29fbb6bd" x="217.451357" y="166.390719" style="fill: #9467bd; stroke: #9467bd"/>
     <use xlink:href="#m0a29fbb6bd" x="223.173143" y="159.456939" style="fill: #9467bd; stroke: #9467bd"/>
     <use xlink:href="#m0a29fbb6bd" x="228.894929" y="151.087003" style="fill: #9467bd; stroke: #9467bd"/>
     <use xlink:href="#m0a29fbb6bd" x="234.616714" y="140.675075" style="fill: #9467bd; stroke: #9467bd"/>
     <use xlink:href="#m0a29fbb6bd" x="240.3385" y="127.384202" style="fill: #9467bd; stroke: #9467bd"/>
     <use xlink:href="#m0a29fbb6bd" x="246.060286" y="110.560397" style="fill: #9467bd; stroke: #9467bd"/>
     <use xlink:href="#m0a29fbb6bd" x="251.782071" y="90.777187" style="fill: #9467bd; stroke: #9467bd"/>
     <use xlink:href="#m0a29fbb6bd" x="257.503857" y="70.413533" style="fill: #9467bd; stroke: #9467bd"/>
     <use xlink:href="#m0a29fbb6bd" x="263.225643" y="52.562633" style="fill: #9467bd; stroke: #9467bd"/>
     <use xlink:href="#m0a29fbb6bd" x="268.947429" y="39.629949" style="fill: #9467bd; stroke: #9467bd"/>
     <use xlink:href="#m0a29fbb6bd" x="274.669214" y="32.854111" style="fill: #9467bd; stroke: #9467bd"/>
     <use xlink:href="#m0a29fbb6bd" x="280.391" y="32.402825" style="fill: #9467bd; stroke: #9467bd"/>
     <use xlink:href="#m0a29fbb6bd" x="286.112786" y="37.670889" style="fill: #9467bd; stroke: #9467bd"/>
     <use xlink:href="#m0a29fbb6bd" x="291.834571" y="47.629083" style="fill: #9467bd; stroke: #9467bd"/>
     <use xlink:href="#m0a29fbb6bd" x="297.556357" y="61.099053" style="fill: #9467bd; stroke: #9467bd"/>
     <use xlink:href="#m0a29fbb6bd" x="303.278143" y="76.917809" style="fill: #9467bd; stroke: #9467bd"/>
     <use xlink:href="#m0a29fbb6bd" x="308.999929" y="94.013373" style="fill: #9467bd; stroke: #9467bd"/>
     <use xlink:href="#m0a29fbb6bd" x="314.721714" y="111.414264" style="fill: #9467bd; stroke: #9467bd"/>
     <use xlink:href="#m0a29fbb6bd" x="320.4435" y="128.222704" style="fill: #9467bd; stroke: #9467bd"/>
     <use xlink:href="#m0a29fbb6bd" x="326.165286" y="143.56847" style="fill: #9467bd; stroke: #9467bd"/>
     <use xlink:href="#m0a29fbb6bd" x="331.887071" y="156.564571" style="fill: #9467bd; stroke: #9467bd"/>
     <use xlink:href="#m0a29fbb6bd" x="337.608857" y="166.310342" style="fill: #9467bd; stroke: #9467bd"/>
     <use xlink:href="#m0a29fbb6bd" x="343.330643" y="172.017027" style="fill: #9467bd; stroke: #9467bd"/>
     <use xlink:href="#m0a29fbb6bd" x="349.052429" y="173.385357" style="fill: #9467bd; stroke: #9467bd"/>
     <use xlink:href="#m0a29fbb6bd" x="354.774214" y="171.270728" style="fill: #9467bd; stroke: #9467bd"/>
     <use xlink:href="#m0a29fbb6bd" x="360.496" y="168.032045" style="fill: #9467bd; stroke: #9467bd"/>
     <use xlink:href="#m0a29fbb6bd" x="366.217786" y="166.445455" style="fill: #9467bd; stroke: #9467bd"/>
     <use xlink:href="#m0a29fbb6bd" x="371.939571" y="167.984599" style="fill: #9467bd; stroke: #9467bd"/>
     <use xlink:href="#m0a29fbb6bd" x="377.661357" y="172.192256" style="fill: #9467bd; stroke: #9467bd"/>
     <use xlink:href="#m0a29fbb6bd" x="383.383143" y="177.488454" style="fill: #9467bd; stroke: #9467bd"/>
     <use xlink:href="#m0a29fbb6bd" x="389.104929" y="182.635214" style="fill: #9467bd; stroke: #9467bd"/>
     <use xlink:href="#m0a29fbb6bd" x="394.826714" y="187.212363" style="fill: #9467bd; stroke: #9467bd"/>
     <use xlink:href="#m0a29fbb6bd" x="400.5485" y="191.214237" style="fill: #9467bd; stroke: #9467bd"/>
     <use xlink:href="#m0a29fbb6bd" x="406.270286" y="194.730046" style="fill: #9467bd; stroke: #9467bd"/>
     <use xlink:href="#m0a29fbb6bd" x="411.992071" y="197.849059" style="fill: #9467bd; stroke: #9467bd"/>
     <use xlink:href="#m0a29fbb6bd" x="417.713857" y="200.633449" style="fill: #9467bd; stroke: #9467bd"/>
     <use xlink:href="#m0a29fbb6bd" x="423.435643" y="203.152189" style="fill: #9467bd; stroke: #9467bd"/>
     <use xlink:href="#m0a29fbb6bd" x="429.157429" y="205.398492" style="fill: #9467bd; stroke: #9467bd"/>
     <use xlink:href="#m0a29fbb6bd" x="435.183684" y="207.497889" style="fill: #9467bd; stroke: #9467bd"/>
     <use xlink:href="#m0a29fbb6bd" x="442.209332" y="209.749936" style="fill: #9467bd; stroke: #9467bd"/>
     <use xlink:href="#m0a29fbb6bd" x="450.77338" y="212.199711" style="fill: #9467bd; stroke: #9467bd"/>
     <use xlink:href="#m0a29fbb6bd" x="461.202737" y="214.762014" style="fill: #9467bd; stroke: #9467bd"/>
     <use xlink:href="#m0a29fbb6bd" x="473.888932" y="217.39306" style="fill: #9467bd; stroke: #9467bd"/>
     <use xlink:href="#m0a29fbb6bd" x="489.298551" y="220.005707" style="fill: #9467bd; stroke: #9467bd"/>
     <use xlink:href="#m0a29fbb6bd" x="507.984172" y="222.515912" style="fill: #9467bd; stroke: #9467bd"/>
     <use xlink:href="#m0a29fbb6bd" x="530.59521" y="224.828029" style="fill: #9467bd; stroke: #9467bd"/>
     <use xlink:href="#m0a29fbb6bd" x="557.887597" y="226.878372" style="fill: #9467bd; stroke: #9467bd"/>
     <use xlink:href="#m0a29fbb6bd" x="590.730786" y="228.617157" style="fill: #9467bd; stroke: #9467bd"/>
     <use xlink:href="#m0a29fbb6bd" x="630.109882" y="230.043954" style="fill: #9467bd; stroke: #9467bd"/>
     <use xlink:href="#m0a29fbb6bd" x="677.119722" y="231.183045" style="fill: #9467bd; stroke: #9467bd"/>
     <use xlink:href="#m0a29fbb6bd" x="732.94738" y="232.094386" style="fill: #9467bd; stroke: #9467bd"/>
     <use xlink:href="#m0a29fbb6bd" x="798.838398" y="232.843574" style="fill: #9467bd; stroke: #9467bd"/>
     <use xlink:href="#m0a29fbb6bd" x="876.042481" y="233.493698" style="fill: #9467bd; stroke: #9467bd"/>
     <use xlink:href="#m0a29fbb6bd" x="965.734599" y="234.08554" style="fill: #9467bd; stroke: #9467bd"/>
     <use xlink:href="#m0a29fbb6bd" x="1068.909992" y="234.638695" style="fill: #9467bd; stroke: #9467bd"/>
     <use xlink:href="#m0a29fbb6bd" x="1186.256654" y="235.154939" style="fill: #9467bd; stroke: #9467bd"/>
    </g>
   </g>
   <g id="line2d_38">
    <path d="M -1 238.143215 
L 4.753928 238.142416 
L 28.311859 238.122152 
L 47.706272 238.05605 
L 63.650471 237.901783 
L 76.743023 237.621338 
L 87.483699 237.198403 
L 96.696522 236.612458 
L 105.443878 235.776154 
L 114.191234 234.56068 
L 122.938591 232.835548 
L 131.685947 230.445159 
L 140.433303 227.212677 
L 149.180659 222.948357 
L 157.928015 217.463077 
L 166.675371 210.587204 
L 175.422727 202.194099 
L 184.170083 192.226497 
L 192.917439 180.722921 
L 201.664795 167.840398 
L 210.412151 153.869272 
L 219.159507 139.236101 
L 227.906864 124.491595 
L 236.65422 110.282306 
L 245.401576 97.307074 
L 254.148932 86.261777 
L 262.896288 77.778211 
L 271.643644 72.364469 
L 280.391 70.354607 
L 289.138356 71.874527 
L 297.885712 76.828924 
L 306.633068 84.91118 
L 315.380424 95.634765 
L 324.12778 108.381694 
L 332.875136 122.461311 
L 341.622493 137.17167 
L 350.369849 151.855993 
L 359.117205 165.948128 
L 367.864561 179.003105 
L 376.611917 190.711433 
L 385.359273 200.898142 
L 394.106629 209.509402 
L 402.853985 216.590659 
L 411.601341 222.260491 
L 420.348697 226.684032 
L 429.096053 230.048937 
L 437.843409 232.545798 
L 446.590766 234.353866 
L 455.338122 235.632027 
L 464.085478 236.514364 
L 472.832834 237.109304 
L 481.58019 237.501222 
L 490.327546 237.753502 
L 499.074902 237.912215 
L 507.822258 238.009813 
L 517.035081 238.070825 
L 527.775758 238.10971 
L 531.682 238.116356 
" clip-path="url(#p8d4f3ed10d)" style="fill: none; stroke-dasharray: 7.4,3.2; stroke-dashoffset: 0; stroke: #000000; stroke-width: 2"/>
   </g>
   <g id="patch_3">
    <path d="M 39.8 238.146825 
L 39.8 22.115625 
" style="fill: none; stroke: #000000; stroke-width: 0.8; stroke-linejoin: miter; stroke-linecap: square"/>
   </g>
   <g id="patch_4">
    <path d="M 520.982 238.146825 
L 520.982 22.115625 
" style="fill: none; stroke: #000000; stroke-width: 0.8; stroke-linejoin: miter; stroke-linecap: square"/>
   </g>
   <g id="patch_5">
    <path d="M 39.8 238.146825 
L 520.982 238.146825 
" style="fill: none; stroke: #000000; stroke-width: 0.8; stroke-linejoin: miter; stroke-linecap: square"/>
   </g>
   <g id="patch_6">
    <path d="M 39.8 22.115625 
L 520.982 22.115625 
" style="fill: none; stroke: #000000; stroke-width: 0.8; stroke-linejoin: miter; stroke-linecap: square"/>
   </g>
   <g id="text_19">
    <!-- $\gamma = 10^\circ$, $C_T = 0.8$, T.I.$=4\%$, W.R.$=$True -->
    <g transform="translate(167.771 16.115625)scale(0.12 -0.12)">
     <defs>
      <path id="DejaVuSans-Oblique-3b3" d="M 1491 2950 
L 1838 788 
L 3456 3500 
L 4066 3500 
L 1972 0 
L 1713 -1331 
L 1138 -1331 
L 1397 0 
L 988 2613 
Q 925 3006 628 3006 
L 475 3006 
L 569 3500 
L 788 3500 
Q 1403 3500 1491 2950 
z
" transform="scale(0.015625)"/>
      <path id="DejaVuSans-3d" d="M 678 2906 
L 4684 2906 
L 4684 2381 
L 678 2381 
L 678 2906 
z
M 678 1631 
L 4684 1631 
L 4684 1100 
L 678 1100 
L 678 1631 
z
" transform="scale(0.015625)"/>
      <path id="DejaVuSans-31" d="M 794 531 
L 1825 531 
L 1825 4091 
L 703 3866 
L 703 4441 
L 1819 4666 
L 2450 4666 
L 2450 531 
L 3481 531 
L 3481 0 
L 794 0 
L 794 531 
z
" transform="scale(0.015625)"/>
      <path id="DejaVuSans-30" d="M 2034 4250 
Q 1547 4250 1301 3770 
Q 1056 3291 1056 2328 
Q 1056 1369 1301 889 
Q 1547 409 2034 409 
Q 2525 409 2770 889 
Q 3016 1369 3016 2328 
Q 3016 3291 2770 3770 
Q 2525 4250 2034 4250 
z
M 2034 4750 
Q 2819 4750 3233 4129 
Q 3647 3509 3647 2328 
Q 3647 1150 3233 529 
Q 2819 -91 2034 -91 
Q 1250 -91 836 529 
Q 422 1150 422 2328 
Q 422 3509 836 4129 
Q 1250 4750 2034 4750 
z
" transform="scale(0.015625)"/>
      <path id="DejaVuSans-2218" d="M 2003 2603 
Q 1753 2603 1581 2429 
Q 1409 2256 1409 2006 
Q 1409 1759 1581 1589 
Q 1753 1419 2003 1419 
Q 2253 1419 2425 1589 
Q 2597 1759 2597 2006 
Q 2597 2253 2423 2428 
Q 2250 2603 2003 2603 
z
M 2003 3006 
Q 2203 3006 2387 2929 
Q 2572 2853 2706 2709 
Q 2850 2569 2922 2390 
Q 2994 2212 2994 2006 
Q 2994 1594 2705 1308 
Q 2416 1022 1997 1022 
Q 1575 1022 1294 1303 
Q 1013 1584 1013 2006 
Q 1013 2425 1300 2715 
Q 1588 3006 2003 3006 
z
" transform="scale(0.015625)"/>
      <path id="STIXGeneral-Regular-2c" d="M 531 -902 
L 467 -781 
Q 998 -422 998 -96 
Q 998 -13 909 -13 
Q 883 -13 822 -25 
Q 762 -38 723 -38 
Q 352 -38 352 288 
Q 352 454 457 553 
Q 563 653 736 653 
Q 954 653 1101 496 
Q 1248 339 1248 96 
Q 1248 -198 1053 -473 
Q 858 -749 531 -902 
z
" transform="scale(0.015625)"/>
      <path id="DejaVuSans-Oblique-43" d="M 4447 4306 
L 4319 3641 
Q 4019 3944 3683 4091 
Q 3347 4238 2956 4238 
Q 2422 4238 2017 3981 
Q 1613 3725 1319 3200 
Q 1131 2863 1032 2486 
Q 934 2109 934 1728 
Q 934 1091 1264 756 
Q 1594 422 2222 422 
Q 2656 422 3056 561 
Q 3456 700 3834 978 
L 3688 231 
Q 3316 72 2936 -9 
Q 2556 -91 2175 -91 
Q 1278 -91 773 396 
Q 269 884 269 1753 
Q 269 2309 461 2846 
Q 653 3384 1013 3828 
Q 1394 4300 1883 4525 
Q 2372 4750 3022 4750 
Q 3422 4750 3780 4639 
Q 4138 4528 4447 4306 
z
" transform="scale(0.015625)"/>
      <path id="DejaVuSans-Oblique-54" d="M 378 4666 
L 4325 4666 
L 4225 4134 
L 2559 4134 
L 1759 0 
L 1125 0 
L 1925 4134 
L 275 4134 
L 378 4666 
z
" transform="scale(0.015625)"/>
      <path id="DejaVuSans-2e" d="M 684 794 
L 1344 794 
L 1344 0 
L 684 0 
L 684 794 
z
" transform="scale(0.015625)"/>
      <path id="DejaVuSans-38" d="M 2034 2216 
Q 1584 2216 1326 1975 
Q 1069 1734 1069 1313 
Q 1069 891 1326 650 
Q 1584 409 2034 409 
Q 2484 409 2743 651 
Q 3003 894 3003 1313 
Q 3003 1734 2745 1975 
Q 2488 2216 2034 2216 
z
M 1403 2484 
Q 997 2584 770 2862 
Q 544 3141 544 3541 
Q 544 4100 942 4425 
Q 1341 4750 2034 4750 
Q 2731 4750 3128 4425 
Q 3525 4100 3525 3541 
Q 3525 3141 3298 2862 
Q 3072 2584 2669 2484 
Q 3125 2378 3379 2068 
Q 3634 1759 3634 1313 
Q 3634 634 3220 271 
Q 2806 -91 2034 -91 
Q 1263 -91 848 271 
Q 434 634 434 1313 
Q 434 1759 690 2068 
Q 947 2378 1403 2484 
z
M 1172 3481 
Q 1172 3119 1398 2916 
Q 1625 2713 2034 2713 
Q 2441 2713 2670 2916 
Q 2900 3119 2900 3481 
Q 2900 3844 2670 4047 
Q 2441 4250 2034 4250 
Q 1625 4250 1398 4047 
Q 1172 3844 1172 3481 
z
" transform="scale(0.015625)"/>
      <path id="STIXGeneral-Regular-54" d="M 3795 3149 
L 3642 3149 
Q 3539 3674 3353 3821 
Q 3168 3968 2656 3968 
L 2278 3968 
L 2278 710 
Q 2278 346 2387 243 
Q 2496 141 2893 122 
L 2893 0 
L 1024 0 
L 1024 122 
Q 1427 147 1526 256 
Q 1626 365 1626 787 
L 1626 3968 
L 1242 3968 
Q 723 3968 540 3817 
Q 358 3667 262 3149 
L 109 3149 
L 154 4237 
L 3750 4237 
L 3795 3149 
z
" transform="scale(0.015625)"/>
      <path id="STIXGeneral-Regular-49" d="M 2016 0 
L 115 0 
L 115 122 
Q 518 134 627 240 
Q 736 346 736 717 
L 736 3526 
Q 736 3898 633 3994 
Q 531 4090 115 4115 
L 115 4237 
L 2016 4237 
L 2016 4115 
Q 1613 4096 1501 3993 
Q 1389 3891 1389 3526 
L 1389 717 
Q 1389 358 1504 246 
Q 1619 134 2016 122 
L 2016 0 
z
" transform="scale(0.015625)"/>
      <path id="DejaVuSans-34" d="M 2419 4116 
L 825 1625 
L 2419 1625 
L 2419 4116 
z
M 2253 4666 
L 3047 4666 
L 3047 1625 
L 3713 1625 
L 3713 1100 
L 3047 1100 
L 3047 0 
L 2419 0 
L 2419 1100 
L 313 1100 
L 313 1709 
L 2253 4666 
z
" transform="scale(0.015625)"/>
      <path id="DejaVuSans-25" d="M 4653 2053 
Q 4381 2053 4226 1822 
Q 4072 1591 4072 1178 
Q 4072 772 4226 539 
Q 4381 306 4653 306 
Q 4919 306 5073 539 
Q 5228 772 5228 1178 
Q 5228 1588 5073 1820 
Q 4919 2053 4653 2053 
z
M 4653 2450 
Q 5147 2450 5437 2106 
Q 5728 1763 5728 1178 
Q 5728 594 5436 251 
Q 5144 -91 4653 -91 
Q 4153 -91 3862 251 
Q 3572 594 3572 1178 
Q 3572 1766 3864 2108 
Q 4156 2450 4653 2450 
z
M 1428 4353 
Q 1159 4353 1004 4120 
Q 850 3888 850 3481 
Q 850 3069 1003 2837 
Q 1156 2606 1428 2606 
Q 1700 2606 1854 2837 
Q 2009 3069 2009 3481 
Q 2009 3884 1853 4118 
Q 1697 4353 1428 4353 
z
M 4250 4750 
L 4750 4750 
L 1831 -91 
L 1331 -91 
L 4250 4750 
z
M 1428 4750 
Q 1922 4750 2215 4408 
Q 2509 4066 2509 3481 
Q 2509 2891 2217 2550 
Q 1925 2209 1428 2209 
Q 931 2209 642 2551 
Q 353 2894 353 3481 
Q 353 4063 643 4406 
Q 934 4750 1428 4750 
z
" transform="scale(0.015625)"/>
      <path id="STIXGeneral-Regular-57" d="M 5965 4237 
L 5965 4115 
Q 5709 4064 5616 3990 
Q 5523 3917 5434 3667 
Q 4704 1709 4128 -70 
L 4032 -70 
Q 3642 1011 3008 2637 
L 2022 -70 
L 1926 -70 
Q 1709 576 1277 1753 
Q 845 2931 698 3347 
Q 538 3808 406 3958 
Q 275 4109 32 4115 
L 32 4237 
L 1594 4237 
L 1594 4115 
Q 1357 4109 1270 4064 
Q 1184 4019 1184 3917 
Q 1184 3808 1254 3616 
L 2176 1210 
L 2842 3021 
L 2662 3501 
Q 2509 3917 2400 4013 
Q 2291 4109 2010 4115 
L 2010 4237 
L 3706 4237 
L 3706 4115 
Q 3213 4102 3213 3891 
Q 3213 3808 3322 3520 
L 4237 1190 
L 5043 3360 
Q 5152 3667 5152 3853 
Q 5152 4109 4704 4115 
L 4704 4237 
L 5965 4237 
z
" transform="scale(0.015625)"/>
      <path id="STIXGeneral-Regular-52" d="M 4224 0 
L 3187 0 
L 1664 1971 
L 1306 1958 
L 1306 717 
Q 1306 352 1405 249 
Q 1504 147 1875 122 
L 1875 0 
L 109 0 
L 109 122 
Q 474 154 563 262 
Q 653 371 653 794 
L 653 3526 
Q 653 3885 563 3987 
Q 474 4090 109 4115 
L 109 4237 
L 1850 4237 
Q 2726 4237 3187 3859 
Q 3501 3603 3501 3091 
Q 3501 2221 2342 2042 
L 3622 422 
Q 3757 256 3878 198 
Q 4000 141 4224 122 
L 4224 0 
z
M 1306 3731 
L 1306 2195 
Q 1766 2202 1990 2246 
Q 2214 2291 2438 2413 
Q 2803 2618 2803 3142 
Q 2803 4000 1632 4000 
Q 1459 4000 1382 3945 
Q 1306 3891 1306 3731 
z
" transform="scale(0.015625)"/>
      <path id="STIXGeneral-Regular-72" d="M 1024 2931 
L 1024 2342 
Q 1267 2688 1430 2816 
Q 1594 2944 1792 2944 
Q 1958 2944 2051 2854 
Q 2144 2765 2144 2605 
Q 2144 2470 2077 2393 
Q 2010 2317 1894 2317 
Q 1773 2317 1638 2445 
Q 1536 2541 1472 2541 
Q 1338 2541 1181 2355 
Q 1024 2170 1024 2016 
L 1024 576 
Q 1024 301 1133 205 
Q 1242 109 1568 96 
L 1568 0 
L 32 0 
L 32 96 
Q 339 154 412 224 
Q 486 294 486 538 
L 486 2138 
Q 486 2349 438 2435 
Q 390 2522 269 2522 
Q 166 2522 45 2496 
L 45 2598 
Q 448 2726 992 2944 
L 1024 2931 
z
" transform="scale(0.015625)"/>
      <path id="STIXGeneral-Regular-75" d="M 3072 320 
L 3072 230 
Q 2573 96 2195 -58 
L 2163 -38 
L 2163 486 
L 2150 486 
Q 1747 -64 1235 -64 
Q 870 -64 662 160 
Q 454 384 454 755 
L 454 2362 
Q 454 2598 371 2688 
Q 288 2778 58 2790 
L 58 2880 
L 992 2880 
L 992 813 
Q 992 595 1123 451 
Q 1254 307 1446 307 
Q 1760 307 1984 506 
Q 2067 582 2099 649 
Q 2131 717 2131 877 
L 2131 2355 
Q 2131 2605 2041 2678 
Q 1952 2752 1658 2771 
L 1658 2880 
L 2669 2880 
L 2669 685 
Q 2669 461 2742 390 
Q 2816 320 3034 320 
L 3072 320 
z
" transform="scale(0.015625)"/>
      <path id="STIXGeneral-Regular-65" d="M 2611 1050 
L 2714 1005 
Q 2330 -64 1376 -64 
Q 813 -64 486 329 
Q 160 723 160 1389 
Q 160 2074 525 2509 
Q 890 2944 1485 2944 
Q 2061 2944 2374 2502 
Q 2560 2246 2592 1773 
L 621 1773 
Q 646 1370 700 1158 
Q 755 947 915 730 
Q 1184 378 1626 378 
Q 1939 378 2153 531 
Q 2368 685 2611 1050 
z
M 634 1978 
L 1939 1978 
Q 1882 2381 1750 2547 
Q 1619 2714 1312 2714 
Q 1043 2714 864 2525 
Q 685 2336 634 1978 
z
" transform="scale(0.015625)"/>
     </defs>
     <use xlink:href="#DejaVuSans-Oblique-3b3" transform="translate(0 0.78125)"/>
     <use xlink:href="#DejaVuSans-3d" transform="translate(78.662109 0.78125)"/>
     <use xlink:href="#DejaVuSans-31" transform="translate(181.933594 0.78125)"/>
     <use xlink:href="#DejaVuSans-30" transform="translate(245.556641 0.78125)"/>
     <use xlink:href="#DejaVuSans-2218" transform="translate(323.774414 39.0625)scale(0.7)"/>
     <use xlink:href="#STIXGeneral-Regular-2c" transform="translate(383.964844 0.78125)"/>
     <use xlink:href="#STIXGeneral-Regular-20" transform="translate(408.964828 0.78125)"/>
     <use xlink:href="#DejaVuSans-Oblique-43" transform="translate(433.964813 0.78125)"/>
     <use xlink:href="#DejaVuSans-Oblique-54" transform="translate(503.789032 -15.625)scale(0.7)"/>
     <use xlink:href="#DejaVuSans-3d" transform="translate(568.764618 0.78125)"/>
     <use xlink:href="#DejaVuSans-30" transform="translate(672.036102 0.78125)"/>
     <use xlink:href="#DejaVuSans-2e" transform="translate(735.659149 0.78125)"/>
     <use xlink:href="#DejaVuSans-38" transform="translate(764.821259 0.78125)"/>
     <use xlink:href="#STIXGeneral-Regular-2c" transform="translate(828.444305 0.78125)"/>
     <use xlink:href="#STIXGeneral-Regular-20" transform="translate(853.44429 0.78125)"/>
     <use xlink:href="#STIXGeneral-Regular-54" transform="translate(878.444275 0.78125)"/>
     <use xlink:href="#STIXGeneral-Regular-2e" transform="translate(939.544266 0.78125)"/>
     <use xlink:href="#STIXGeneral-Regular-49" transform="translate(964.54425 0.78125)"/>
     <use xlink:href="#STIXGeneral-Regular-2e" transform="translate(997.844238 0.78125)"/>
     <use xlink:href="#DejaVuSans-3d" transform="translate(1042.326645 0.78125)"/>
     <use xlink:href="#DejaVuSans-34" transform="translate(1145.598129 0.78125)"/>
     <use xlink:href="#DejaVuSans-25" transform="translate(1209.221176 0.78125)"/>
     <use xlink:href="#STIXGeneral-Regular-2c" transform="translate(1304.240707 0.78125)"/>
     <use xlink:href="#STIXGeneral-Regular-20" transform="translate(1329.240692 0.78125)"/>
     <use xlink:href="#STIXGeneral-Regular-57" transform="translate(1354.240677 0.78125)"/>
     <use xlink:href="#STIXGeneral-Regular-2e" transform="translate(1448.640671 0.78125)"/>
     <use xlink:href="#STIXGeneral-Regular-52" transform="translate(1473.640656 0.78125)"/>
     <use xlink:href="#STIXGeneral-Regular-2e" transform="translate(1540.340652 0.78125)"/>
     <use xlink:href="#DejaVuSans-3d" transform="translate(1584.823059 0.78125)"/>
     <use xlink:href="#STIXGeneral-Regular-54" transform="translate(1688.094543 0.78125)"/>
     <use xlink:href="#STIXGeneral-Regular-72" transform="translate(1749.194534 0.78125)"/>
     <use xlink:href="#STIXGeneral-Regular-75" transform="translate(1782.494522 0.78125)"/>
     <use xlink:href="#STIXGeneral-Regular-65" transform="translate(1832.494507 0.78125)"/>
    </g>
   </g>
   <g id="legend_1">
    <g id="patch_7">
     <path d="M 439.982 115.1375 
L 513.982 115.1375 
Q 515.982 115.1375 515.982 113.1375 
L 515.982 29.115625 
Q 515.982 27.115625 513.982 27.115625 
L 439.982 27.115625 
Q 437.982 27.115625 437.982 29.115625 
L 437.982 113.1375 
Q 437.982 115.1375 439.982 115.1375 
z
" style="fill: #ffffff; opacity: 0.8; stroke: #cccccc; stroke-linejoin: miter"/>
    </g>
    <g id="line2d_39">
     <g>
      <use xlink:href="#m16b2f78373" x="451.982" y="34.615625" style="fill: #1f77b4; stroke: #1f77b4"/>
     </g>
    </g>
    <g id="text_20">
     <!-- $x/D = 5$ -->
     <g transform="translate(469.982 38.115625)scale(0.1 -0.1)">
      <defs>
       <path id="DejaVuSans-Oblique-78" d="M 3841 3500 
L 2234 1784 
L 3219 0 
L 2559 0 
L 1819 1388 
L 531 0 
L -166 0 
L 1556 1844 
L 641 3500 
L 1300 3500 
L 1972 2234 
L 3144 3500 
L 3841 3500 
z
" transform="scale(0.015625)"/>
       <path id="DejaVuSans-Oblique-44" d="M 1081 4666 
L 2438 4666 
Q 3519 4666 4070 4208 
Q 4622 3750 4622 2847 
Q 4622 2250 4412 1698 
Q 4203 1147 3834 769 
Q 3463 381 2891 190 
Q 2319 0 1538 0 
L 172 0 
L 1081 4666 
z
M 1613 4147 
L 909 519 
L 1734 519 
Q 2794 519 3375 1128 
Q 3956 1738 3956 2847 
Q 3956 3519 3581 3833 
Q 3206 4147 2406 4147 
L 1613 4147 
z
" transform="scale(0.015625)"/>
       <path id="DejaVuSans-35" d="M 691 4666 
L 3169 4666 
L 3169 4134 
L 1269 4134 
L 1269 2991 
Q 1406 3038 1543 3061 
Q 1681 3084 1819 3084 
Q 2600 3084 3056 2656 
Q 3513 2228 3513 1497 
Q 3513 744 3044 326 
Q 2575 -91 1722 -91 
Q 1428 -91 1123 -41 
Q 819 9 494 109 
L 494 744 
Q 775 591 1075 516 
Q 1375 441 1709 441 
Q 2250 441 2565 725 
Q 2881 1009 2881 1497 
Q 2881 1984 2565 2268 
Q 2250 2553 1709 2553 
Q 1456 2553 1204 2497 
Q 953 2441 691 2322 
L 691 4666 
z
" transform="scale(0.015625)"/>
      </defs>
      <use xlink:href="#DejaVuSans-Oblique-78" transform="translate(0 0.09375)"/>
      <use xlink:href="#DejaVuSans-2f" transform="translate(59.179688 0.09375)"/>
      <use xlink:href="#DejaVuSans-Oblique-44" transform="translate(92.871094 0.09375)"/>
      <use xlink:href="#DejaVuSans-3d" transform="translate(189.355469 0.09375)"/>
      <use xlink:href="#DejaVuSans-35" transform="translate(292.626953 0.09375)"/>
     </g>
    </g>
    <g id="line2d_40">
     <g>
      <use xlink:href="#mad86e87dee" x="451.982" y="48.785938" style="fill: #ff7f0e; stroke: #ff7f0e"/>
     </g>
    </g>
    <g id="text_21">
     <!-- $x/D = 7$ -->
     <g transform="translate(469.982 52.285938)scale(0.1 -0.1)">
      <defs>
       <path id="DejaVuSans-37" d="M 525 4666 
L 3525 4666 
L 3525 4397 
L 1831 0 
L 1172 0 
L 2766 4134 
L 525 4134 
L 525 4666 
z
" transform="scale(0.015625)"/>
      </defs>
      <use xlink:href="#DejaVuSans-Oblique-78" transform="translate(0 0.09375)"/>
      <use xlink:href="#DejaVuSans-2f" transform="translate(59.179688 0.09375)"/>
      <use xlink:href="#DejaVuSans-Oblique-44" transform="translate(92.871094 0.09375)"/>
      <use xlink:href="#DejaVuSans-3d" transform="translate(189.355469 0.09375)"/>
      <use xlink:href="#DejaVuSans-37" transform="translate(292.626953 0.09375)"/>
     </g>
    </g>
    <g id="line2d_41">
     <g>
      <use xlink:href="#mbc352a077a" x="451.982" y="62.95625" style="fill: #2ca02c; stroke: #2ca02c"/>
     </g>
    </g>
    <g id="text_22">
     <!-- $x/D = 9$ -->
     <g transform="translate(469.982 66.45625)scale(0.1 -0.1)">
      <defs>
       <path id="DejaVuSans-39" d="M 703 97 
L 703 672 
Q 941 559 1184 500 
Q 1428 441 1663 441 
Q 2288 441 2617 861 
Q 2947 1281 2994 2138 
Q 2813 1869 2534 1725 
Q 2256 1581 1919 1581 
Q 1219 1581 811 2004 
Q 403 2428 403 3163 
Q 403 3881 828 4315 
Q 1253 4750 1959 4750 
Q 2769 4750 3195 4129 
Q 3622 3509 3622 2328 
Q 3622 1225 3098 567 
Q 2575 -91 1691 -91 
Q 1453 -91 1209 -44 
Q 966 3 703 97 
z
M 1959 2075 
Q 2384 2075 2632 2365 
Q 2881 2656 2881 3163 
Q 2881 3666 2632 3958 
Q 2384 4250 1959 4250 
Q 1534 4250 1286 3958 
Q 1038 3666 1038 3163 
Q 1038 2656 1286 2365 
Q 1534 2075 1959 2075 
z
" transform="scale(0.015625)"/>
      </defs>
      <use xlink:href="#DejaVuSans-Oblique-78" transform="translate(0 0.78125)"/>
      <use xlink:href="#DejaVuSans-2f" transform="translate(59.179688 0.78125)"/>
      <use xlink:href="#DejaVuSans-Oblique-44" transform="translate(92.871094 0.78125)"/>
      <use xlink:href="#DejaVuSans-3d" transform="translate(189.355469 0.78125)"/>
      <use xlink:href="#DejaVuSans-39" transform="translate(292.626953 0.78125)"/>
     </g>
    </g>
    <g id="line2d_42">
     <g>
      <use xlink:href="#mc848ef18df" x="451.982" y="77.126563" style="fill: #d62728; stroke: #d62728"/>
     </g>
    </g>
    <g id="text_23">
     <!-- $x/D = 11$ -->
     <g transform="translate(469.982 80.626563)scale(0.1 -0.1)">
      <use xlink:href="#DejaVuSans-Oblique-78" transform="translate(0 0.09375)"/>
      <use xlink:href="#DejaVuSans-2f" transform="translate(59.179688 0.09375)"/>
      <use xlink:href="#DejaVuSans-Oblique-44" transform="translate(92.871094 0.09375)"/>
      <use xlink:href="#DejaVuSans-3d" transform="translate(189.355469 0.09375)"/>
      <use xlink:href="#DejaVuSans-31" transform="translate(292.626953 0.09375)"/>
      <use xlink:href="#DejaVuSans-31" transform="translate(356.25 0.09375)"/>
     </g>
    </g>
    <g id="line2d_43">
     <g>
      <use xlink:href="#m0a29fbb6bd" x="451.982" y="91.296875" style="fill: #9467bd; stroke: #9467bd"/>
     </g>
    </g>
    <g id="text_24">
     <!-- $x/D = 13$ -->
     <g transform="translate(469.982 94.796875)scale(0.1 -0.1)">
      <defs>
       <path id="DejaVuSans-33" d="M 2597 2516 
Q 3050 2419 3304 2112 
Q 3559 1806 3559 1356 
Q 3559 666 3084 287 
Q 2609 -91 1734 -91 
Q 1441 -91 1130 -33 
Q 819 25 488 141 
L 488 750 
Q 750 597 1062 519 
Q 1375 441 1716 441 
Q 2309 441 2620 675 
Q 2931 909 2931 1356 
Q 2931 1769 2642 2001 
Q 2353 2234 1838 2234 
L 1294 2234 
L 1294 2753 
L 1863 2753 
Q 2328 2753 2575 2939 
Q 2822 3125 2822 3475 
Q 2822 3834 2567 4026 
Q 2313 4219 1838 4219 
Q 1578 4219 1281 4162 
Q 984 4106 628 3988 
L 628 4550 
Q 988 4650 1302 4700 
Q 1616 4750 1894 4750 
Q 2613 4750 3031 4423 
Q 3450 4097 3450 3541 
Q 3450 3153 3228 2886 
Q 3006 2619 2597 2516 
z
" transform="scale(0.015625)"/>
      </defs>
      <use xlink:href="#DejaVuSans-Oblique-78" transform="translate(0 0.78125)"/>
      <use xlink:href="#DejaVuSans-2f" transform="translate(59.179688 0.78125)"/>
      <use xlink:href="#DejaVuSans-Oblique-44" transform="translate(92.871094 0.78125)"/>
      <use xlink:href="#DejaVuSans-3d" transform="translate(189.355469 0.78125)"/>
      <use xlink:href="#DejaVuSans-31" transform="translate(292.626953 0.78125)"/>
      <use xlink:href="#DejaVuSans-33" transform="translate(356.25 0.78125)"/>
     </g>
    </g>
    <g id="line2d_44">
     <path d="M 441.982 105.467188 
L 451.982 105.467188 
L 461.982 105.467188 
" style="fill: none; stroke-dasharray: 7.4,3.2; stroke-dashoffset: 0; stroke: #000000; stroke-width: 2"/>
    </g>
    <g id="text_25">
     <!-- Gaussian -->
     <g transform="translate(469.982 108.967188)scale(0.1 -0.1)">
      <defs>
       <path id="STIXGeneral-Regular-47" d="M 4538 2266 
L 4538 2150 
Q 4256 2125 4173 2035 
Q 4090 1946 4090 1638 
L 4090 358 
Q 3539 -90 2464 -90 
Q 1965 -90 1507 89 
Q 1050 269 736 595 
Q 205 1152 205 2093 
Q 205 3155 890 3776 
Q 1491 4326 2419 4326 
Q 2829 4326 3270 4179 
Q 3443 4115 3552 4115 
Q 3654 4115 3731 4176 
Q 3808 4237 3840 4326 
L 3981 4326 
L 4032 2976 
L 3885 2976 
Q 3680 3475 3430 3718 
Q 3059 4070 2496 4070 
Q 1856 4070 1427 3629 
Q 934 3136 934 2074 
Q 934 1190 1395 678 
Q 1856 166 2618 166 
Q 2982 166 3225 281 
Q 3469 397 3469 557 
L 3469 1562 
Q 3469 1933 3376 2025 
Q 3283 2118 2899 2150 
L 2899 2266 
L 4538 2266 
z
" transform="scale(0.015625)"/>
       <path id="STIXGeneral-Regular-61" d="M 2829 422 
L 2829 243 
Q 2586 -64 2253 -64 
Q 1888 -64 1843 403 
L 1837 403 
Q 1427 -64 909 -64 
Q 608 -64 422 112 
Q 237 288 237 602 
Q 237 1050 685 1350 
Q 992 1555 1837 1869 
L 1837 2214 
Q 1837 2502 1699 2646 
Q 1562 2790 1338 2790 
Q 1146 2790 1018 2697 
Q 890 2605 890 2477 
Q 890 2419 909 2348 
Q 928 2278 928 2208 
Q 928 2112 841 2029 
Q 755 1946 634 1946 
Q 525 1946 441 2029 
Q 358 2112 358 2240 
Q 358 2547 685 2752 
Q 986 2944 1421 2944 
Q 1939 2944 2176 2656 
Q 2291 2522 2323 2384 
Q 2355 2246 2355 1946 
L 2355 723 
Q 2355 301 2554 301 
Q 2682 301 2829 422 
z
M 1837 813 
L 1837 1715 
Q 1248 1510 1018 1293 
Q 800 1094 800 800 
Q 800 557 921 432 
Q 1043 307 1242 307 
Q 1453 307 1613 410 
Q 1747 506 1792 589 
Q 1837 672 1837 813 
z
" transform="scale(0.015625)"/>
       <path id="STIXGeneral-Regular-73" d="M 998 1926 
L 1664 1523 
Q 1984 1331 2105 1164 
Q 2227 998 2227 736 
Q 2227 416 1961 176 
Q 1696 -64 1331 -64 
Q 1030 -64 864 -6 
Q 691 51 570 51 
Q 461 51 416 -26 
L 333 -26 
L 333 979 
L 435 979 
Q 538 512 730 294 
Q 922 77 1248 77 
Q 1485 77 1632 211 
Q 1779 346 1779 550 
Q 1779 845 1440 1030 
L 1094 1222 
Q 326 1651 326 2150 
Q 326 2522 566 2730 
Q 806 2938 1210 2938 
Q 1491 2938 1638 2867 
Q 1754 2816 1818 2816 
Q 1862 2816 1920 2880 
L 1990 2880 
L 2022 2010 
L 1926 2010 
Q 1818 2445 1654 2621 
Q 1491 2797 1203 2797 
Q 986 2797 854 2688 
Q 723 2579 723 2362 
Q 723 2253 796 2128 
Q 870 2003 998 1926 
z
" transform="scale(0.015625)"/>
       <path id="STIXGeneral-Regular-69" d="M 1152 4045 
Q 1152 3904 1056 3811 
Q 960 3718 819 3718 
Q 685 3718 592 3811 
Q 499 3904 499 4045 
Q 499 4179 595 4275 
Q 691 4371 826 4371 
Q 966 4371 1059 4275 
Q 1152 4179 1152 4045 
z
M 1619 0 
L 102 0 
L 102 96 
Q 435 115 521 211 
Q 608 307 608 666 
L 608 2118 
Q 608 2342 563 2432 
Q 518 2522 397 2522 
Q 243 2522 128 2490 
L 128 2592 
L 1120 2944 
L 1146 2918 
L 1146 672 
Q 1146 314 1226 218 
Q 1306 122 1619 96 
L 1619 0 
z
" transform="scale(0.015625)"/>
       <path id="STIXGeneral-Regular-6e" d="M 3104 0 
L 1773 0 
L 1779 96 
Q 2016 115 2096 233 
Q 2176 352 2176 672 
L 2176 1946 
Q 2176 2592 1709 2592 
Q 1549 2592 1408 2515 
Q 1267 2438 1050 2227 
L 1050 461 
Q 1050 269 1136 192 
Q 1222 115 1466 96 
L 1466 0 
L 115 0 
L 115 96 
Q 358 115 435 214 
Q 512 314 512 602 
L 512 2157 
Q 512 2394 467 2483 
Q 422 2573 288 2573 
Q 160 2573 102 2547 
L 102 2656 
Q 550 2784 979 2944 
L 1030 2925 
L 1030 2426 
L 1037 2426 
Q 1491 2944 1958 2944 
Q 2323 2944 2518 2688 
Q 2714 2432 2714 1958 
L 2714 544 
Q 2714 288 2790 205 
Q 2867 122 3104 96 
L 3104 0 
z
" transform="scale(0.015625)"/>
      </defs>
      <use xlink:href="#STIXGeneral-Regular-47"/>
      <use xlink:href="#STIXGeneral-Regular-61" x="72.199982"/>
      <use xlink:href="#STIXGeneral-Regular-75" x="116.599976"/>
      <use xlink:href="#STIXGeneral-Regular-73" x="166.59996"/>
      <use xlink:href="#STIXGeneral-Regular-73" x="205.499954"/>
      <use xlink:href="#STIXGeneral-Regular-69" x="244.399948"/>
      <use xlink:href="#STIXGeneral-Regular-61" x="272.199936"/>
      <use xlink:href="#STIXGeneral-Regular-6e" x="316.59993"/>
     </g>
    </g>
   </g>
  </g>
 </g>
 <defs>
  <clipPath id="p8d4f3ed10d">
   <rect x="39.8" y="22.115625" width="481.182" height="216.0312"/>
  </clipPath>
 </defs>
</svg>
