<?xml version="1.0" encoding="utf-8" standalone="no"?>
<!DOCTYPE svg PUBLIC "-//W3C//DTD SVG 1.1//EN"
  "http://www.w3.org/Graphics/SVG/1.1/DTD/svg11.dtd">
<svg xmlns:xlink="http://www.w3.org/1999/xlink" width="530.682pt" height="277.546825pt" viewBox="0 0 530.682 277.546825" xmlns="http://www.w3.org/2000/svg" version="1.1">
 <metadata>
  <rdf:RDF xmlns:dc="http://purl.org/dc/elements/1.1/" xmlns:cc="http://creativecommons.org/ns#" xmlns:rdf="http://www.w3.org/1999/02/22-rdf-syntax-ns#">
   <cc:Work>
    <dc:type rdf:resource="http://purl.org/dc/dcmitype/StillImage"/>
    <dc:date>2022-04-18T13:12:58.219468</dc:date>
    <dc:format>image/svg+xml</dc:format>
    <dc:creator>
     <cc:Agent>
      <dc:title>Matplotlib v3.5.1, https://matplotlib.org/</dc:title>
     </cc:Agent>
    </dc:creator>
   </cc:Work>
  </rdf:RDF>
 </metadata>
 <defs>
  <style type="text/css">*{stroke-linejoin: round; stroke-linecap: butt}</style>
 </defs>
 <g id="figure_1">
  <g id="patch_1">
   <path d="M 0 277.546825 
L 530.682 277.546825 
L 530.682 0 
L 0 0 
z
" style="fill: #ffffff"/>
  </g>
  <g id="axes_1">
   <g id="patch_2">
    <path d="M 39.8 238.146825 
L 520.982 238.146825 
L 520.982 22.115625 
L 39.8 22.115625 
z
" style="fill: #ffffff"/>
   </g>
   <g id="matplotlib.axis_1">
    <g id="xtick_1">
     <g id="line2d_1">
      <path d="M 39.8 238.146825 
L 39.8 22.115625 
" clip-path="url(#pa9408c3346)" style="fill: none; stroke-dasharray: 0.8,1.32; stroke-dashoffset: 0; stroke: #b0b0b0; stroke-width: 0.8"/>
     </g>
     <g id="line2d_2">
      <defs>
       <path id="m9e6115d90b" d="M 0 0 
L 0 3.5 
" style="stroke: #000000; stroke-width: 0.8"/>
      </defs>
      <g>
       <use xlink:href="#m9e6115d90b" x="39.8" y="238.146825" style="stroke: #000000; stroke-width: 0.8"/>
      </g>
     </g>
     <g id="text_1">
      <!-- −4 -->
      <g transform="translate(33.875 251.976513)scale(0.1 -0.1)">
       <defs>
        <path id="STIXGeneral-Regular-2212" d="M 3974 1408 
L 410 1408 
L 410 1830 
L 3974 1830 
L 3974 1408 
z
" transform="scale(0.015625)"/>
        <path id="STIXGeneral-Regular-34" d="M 3027 1069 
L 2368 1069 
L 2368 0 
L 1869 0 
L 1869 1069 
L 77 1069 
L 77 1478 
L 2086 4326 
L 2368 4326 
L 2368 1478 
L 3027 1478 
L 3027 1069 
z
M 1869 1478 
L 1869 3674 
L 333 1478 
L 1869 1478 
z
" transform="scale(0.015625)"/>
       </defs>
       <use xlink:href="#STIXGeneral-Regular-2212"/>
       <use xlink:href="#STIXGeneral-Regular-34" x="68.499985"/>
      </g>
     </g>
    </g>
    <g id="xtick_2">
     <g id="line2d_3">
      <path d="M 99.94775 238.146825 
L 99.94775 22.115625 
" clip-path="url(#pa9408c3346)" style="fill: none; stroke-dasharray: 0.8,1.32; stroke-dashoffset: 0; stroke: #b0b0b0; stroke-width: 0.8"/>
     </g>
     <g id="line2d_4">
      <g>
       <use xlink:href="#m9e6115d90b" x="99.94775" y="238.146825" style="stroke: #000000; stroke-width: 0.8"/>
      </g>
     </g>
     <g id="text_2">
      <!-- −3 -->
      <g transform="translate(94.02275 251.976513)scale(0.1 -0.1)">
       <defs>
        <path id="STIXGeneral-Regular-33" d="M 390 3264 
L 288 3290 
Q 435 3770 748 4048 
Q 1062 4326 1542 4326 
Q 1990 4326 2265 4083 
Q 2541 3840 2541 3450 
Q 2541 2925 1946 2566 
Q 2298 2413 2477 2227 
Q 2758 1914 2758 1402 
Q 2758 890 2464 506 
Q 2246 211 1840 60 
Q 1434 -90 979 -90 
Q 262 -90 262 275 
Q 262 378 339 442 
Q 416 506 525 506 
Q 685 506 915 339 
Q 1197 141 1466 141 
Q 1818 141 2058 425 
Q 2298 710 2298 1120 
Q 2298 1856 1632 2048 
Q 1434 2112 979 2112 
L 979 2202 
Q 1338 2323 1517 2432 
Q 2035 2726 2035 3290 
Q 2035 3610 1852 3776 
Q 1670 3942 1344 3942 
Q 768 3942 390 3264 
z
" transform="scale(0.015625)"/>
       </defs>
       <use xlink:href="#STIXGeneral-Regular-2212"/>
       <use xlink:href="#STIXGeneral-Regular-33" x="68.499985"/>
      </g>
     </g>
    </g>
    <g id="xtick_3">
     <g id="line2d_5">
      <path d="M 160.0955 238.146825 
L 160.0955 22.115625 
" clip-path="url(#pa9408c3346)" style="fill: none; stroke-dasharray: 0.8,1.32; stroke-dashoffset: 0; stroke: #b0b0b0; stroke-width: 0.8"/>
     </g>
     <g id="line2d_6">
      <g>
       <use xlink:href="#m9e6115d90b" x="160.0955" y="238.146825" style="stroke: #000000; stroke-width: 0.8"/>
      </g>
     </g>
     <g id="text_3">
      <!-- −2 -->
      <g transform="translate(154.1705 251.976513)scale(0.1 -0.1)">
       <defs>
        <path id="STIXGeneral-Regular-32" d="M 3034 877 
L 2688 0 
L 186 0 
L 186 77 
L 1325 1286 
Q 1773 1754 1965 2144 
Q 2157 2534 2157 2950 
Q 2157 3379 1920 3616 
Q 1683 3853 1267 3853 
Q 922 3853 720 3673 
Q 518 3494 326 3021 
L 192 3053 
Q 301 3648 630 3987 
Q 960 4326 1523 4326 
Q 2054 4326 2380 4006 
Q 2707 3686 2707 3200 
Q 2707 2477 1888 1613 
L 832 486 
L 2330 486 
Q 2541 486 2665 569 
Q 2790 653 2944 915 
L 3034 877 
z
" transform="scale(0.015625)"/>
       </defs>
       <use xlink:href="#STIXGeneral-Regular-2212"/>
       <use xlink:href="#STIXGeneral-Regular-32" x="68.499985"/>
      </g>
     </g>
    </g>
    <g id="xtick_4">
     <g id="line2d_7">
      <path d="M 220.24325 238.146825 
L 220.24325 22.115625 
" clip-path="url(#pa9408c3346)" style="fill: none; stroke-dasharray: 0.8,1.32; stroke-dashoffset: 0; stroke: #b0b0b0; stroke-width: 0.8"/>
     </g>
     <g id="line2d_8">
      <g>
       <use xlink:href="#m9e6115d90b" x="220.24325" y="238.146825" style="stroke: #000000; stroke-width: 0.8"/>
      </g>
     </g>
     <g id="text_4">
      <!-- −1 -->
      <g transform="translate(214.31825 251.976513)scale(0.1 -0.1)">
       <defs>
        <path id="STIXGeneral-Regular-31" d="M 2522 0 
L 755 0 
L 755 96 
Q 1107 115 1235 227 
Q 1363 339 1363 608 
L 1363 3482 
Q 1363 3795 1171 3795 
Q 1082 3795 883 3718 
L 710 3654 
L 710 3744 
L 1856 4326 
L 1914 4307 
L 1914 486 
Q 1914 275 2042 185 
Q 2170 96 2522 96 
L 2522 0 
z
" transform="scale(0.015625)"/>
       </defs>
       <use xlink:href="#STIXGeneral-Regular-2212"/>
       <use xlink:href="#STIXGeneral-Regular-31" x="68.499985"/>
      </g>
     </g>
    </g>
    <g id="xtick_5">
     <g id="line2d_9">
      <path d="M 280.391 238.146825 
L 280.391 22.115625 
" clip-path="url(#pa9408c3346)" style="fill: none; stroke-dasharray: 0.8,1.32; stroke-dashoffset: 0; stroke: #b0b0b0; stroke-width: 0.8"/>
     </g>
     <g id="line2d_10">
      <g>
       <use xlink:href="#m9e6115d90b" x="280.391" y="238.146825" style="stroke: #000000; stroke-width: 0.8"/>
      </g>
     </g>
     <g id="text_5">
      <!-- 0 -->
      <g transform="translate(277.891 251.976513)scale(0.1 -0.1)">
       <defs>
        <path id="STIXGeneral-Regular-30" d="M 3046 2112 
Q 3046 1683 2963 1302 
Q 2880 922 2717 602 
Q 2554 282 2266 96 
Q 1978 -90 1600 -90 
Q 1210 -90 915 108 
Q 621 307 461 640 
Q 301 973 227 1350 
Q 154 1728 154 2150 
Q 154 2746 301 3222 
Q 448 3699 790 4012 
Q 1133 4326 1626 4326 
Q 2253 4326 2649 3712 
Q 3046 3098 3046 2112 
z
M 2432 2080 
Q 2432 3091 2217 3625 
Q 2003 4160 1587 4160 
Q 1190 4160 979 3622 
Q 768 3085 768 2106 
Q 768 1120 979 598 
Q 1190 77 1600 77 
Q 2003 77 2217 598 
Q 2432 1120 2432 2080 
z
" transform="scale(0.015625)"/>
       </defs>
       <use xlink:href="#STIXGeneral-Regular-30"/>
      </g>
     </g>
    </g>
    <g id="xtick_6">
     <g id="line2d_11">
      <path d="M 340.53875 238.146825 
L 340.53875 22.115625 
" clip-path="url(#pa9408c3346)" style="fill: none; stroke-dasharray: 0.8,1.32; stroke-dashoffset: 0; stroke: #b0b0b0; stroke-width: 0.8"/>
     </g>
     <g id="line2d_12">
      <g>
       <use xlink:href="#m9e6115d90b" x="340.53875" y="238.146825" style="stroke: #000000; stroke-width: 0.8"/>
      </g>
     </g>
     <g id="text_6">
      <!-- 1 -->
      <g transform="translate(338.03875 251.976513)scale(0.1 -0.1)">
       <use xlink:href="#STIXGeneral-Regular-31"/>
      </g>
     </g>
    </g>
    <g id="xtick_7">
     <g id="line2d_13">
      <path d="M 400.6865 238.146825 
L 400.6865 22.115625 
" clip-path="url(#pa9408c3346)" style="fill: none; stroke-dasharray: 0.8,1.32; stroke-dashoffset: 0; stroke: #b0b0b0; stroke-width: 0.8"/>
     </g>
     <g id="line2d_14">
      <g>
       <use xlink:href="#m9e6115d90b" x="400.6865" y="238.146825" style="stroke: #000000; stroke-width: 0.8"/>
      </g>
     </g>
     <g id="text_7">
      <!-- 2 -->
      <g transform="translate(398.1865 251.976513)scale(0.1 -0.1)">
       <use xlink:href="#STIXGeneral-Regular-32"/>
      </g>
     </g>
    </g>
    <g id="xtick_8">
     <g id="line2d_15">
      <path d="M 460.83425 238.146825 
L 460.83425 22.115625 
" clip-path="url(#pa9408c3346)" style="fill: none; stroke-dasharray: 0.8,1.32; stroke-dashoffset: 0; stroke: #b0b0b0; stroke-width: 0.8"/>
     </g>
     <g id="line2d_16">
      <g>
       <use xlink:href="#m9e6115d90b" x="460.83425" y="238.146825" style="stroke: #000000; stroke-width: 0.8"/>
      </g>
     </g>
     <g id="text_8">
      <!-- 3 -->
      <g transform="translate(458.33425 251.976513)scale(0.1 -0.1)">
       <use xlink:href="#STIXGeneral-Regular-33"/>
      </g>
     </g>
    </g>
    <g id="xtick_9">
     <g id="line2d_17">
      <path d="M 520.982 238.146825 
L 520.982 22.115625 
" clip-path="url(#pa9408c3346)" style="fill: none; stroke-dasharray: 0.8,1.32; stroke-dashoffset: 0; stroke: #b0b0b0; stroke-width: 0.8"/>
     </g>
     <g id="line2d_18">
      <g>
       <use xlink:href="#m9e6115d90b" x="520.982" y="238.146825" style="stroke: #000000; stroke-width: 0.8"/>
      </g>
     </g>
     <g id="text_9">
      <!-- 4 -->
      <g transform="translate(518.482 251.976513)scale(0.1 -0.1)">
       <use xlink:href="#STIXGeneral-Regular-34"/>
      </g>
     </g>
    </g>
    <g id="text_10">
     <!-- $y^*_V/\sigma_{y,V}$ [-] -->
     <g transform="translate(256.441 267.246825)scale(0.1 -0.1)">
      <defs>
       <path id="DejaVuSans-Oblique-79" d="M 1588 -325 
Q 1188 -997 936 -1164 
Q 684 -1331 294 -1331 
L -159 -1331 
L -63 -850 
L 269 -850 
Q 509 -850 678 -719 
Q 847 -588 1056 -206 
L 1234 128 
L 459 3500 
L 1069 3500 
L 1650 819 
L 3256 3500 
L 3859 3500 
L 1588 -325 
z
" transform="scale(0.015625)"/>
       <path id="DejaVuSans-2a" d="M 3009 3897 
L 1888 3291 
L 3009 2681 
L 2828 2375 
L 1778 3009 
L 1778 1831 
L 1422 1831 
L 1422 3009 
L 372 2375 
L 191 2681 
L 1313 3291 
L 191 3897 
L 372 4206 
L 1422 3572 
L 1422 4750 
L 1778 4750 
L 1778 3572 
L 2828 4206 
L 3009 3897 
z
" transform="scale(0.015625)"/>
       <path id="DejaVuSans-Oblique-56" d="M 1319 0 
L 500 4666 
L 1119 4666 
L 1797 653 
L 4063 4666 
L 4750 4666 
L 2053 0 
L 1319 0 
z
" transform="scale(0.015625)"/>
       <path id="DejaVuSans-2f" d="M 1625 4666 
L 2156 4666 
L 531 -594 
L 0 -594 
L 1625 4666 
z
" transform="scale(0.015625)"/>
       <path id="DejaVuSans-Oblique-3c3" d="M 2219 3044 
Q 1744 3044 1422 2700 
Q 1081 2341 969 1747 
Q 844 1119 1044 756 
Q 1241 397 1706 397 
Q 2166 397 2503 759 
Q 2844 1122 2966 1747 
Q 3075 2319 2881 2700 
Q 2700 3044 2219 3044 
z
M 2309 3503 
L 4219 3500 
L 4106 2925 
L 3463 2925 
Q 3706 2438 3575 1747 
Q 3406 888 2884 400 
Q 2359 -91 1609 -91 
Q 856 -91 525 400 
Q 194 888 363 1747 
Q 528 2609 1050 3097 
Q 1484 3503 2309 3503 
z
" transform="scale(0.015625)"/>
       <path id="DejaVuSans-2c" d="M 750 794 
L 1409 794 
L 1409 256 
L 897 -744 
L 494 -744 
L 750 256 
L 750 794 
z
" transform="scale(0.015625)"/>
       <path id="STIXGeneral-Regular-20" transform="scale(0.015625)"/>
       <path id="STIXGeneral-Regular-5b" d="M 1914 -998 
L 563 -998 
L 563 4237 
L 1914 4237 
L 1914 4077 
L 1382 4077 
Q 1216 4077 1133 4006 
Q 1050 3936 1050 3770 
L 1050 -493 
Q 1050 -838 1382 -838 
L 1914 -838 
L 1914 -998 
z
" transform="scale(0.015625)"/>
       <path id="STIXGeneral-Regular-2d" d="M 1824 1242 
L 250 1242 
L 250 1645 
L 1824 1645 
L 1824 1242 
z
" transform="scale(0.015625)"/>
       <path id="STIXGeneral-Regular-5d" d="M 1568 -998 
L 218 -998 
L 218 -838 
L 781 -838 
Q 947 -838 1014 -768 
Q 1082 -698 1082 -544 
L 1082 3731 
Q 1082 4077 755 4077 
L 218 4077 
L 218 4237 
L 1568 4237 
L 1568 -998 
z
" transform="scale(0.015625)"/>
      </defs>
      <use xlink:href="#DejaVuSans-Oblique-79" transform="translate(0 0.765625)"/>
      <use xlink:href="#DejaVuSans-2a" transform="translate(77.283529 39.046875)scale(0.7)"/>
      <use xlink:href="#DejaVuSans-Oblique-56" transform="translate(59.179688 -26.578125)scale(0.7)"/>
      <use xlink:href="#DejaVuSans-2f" transform="translate(128.655599 0.765625)"/>
      <use xlink:href="#DejaVuSans-Oblique-3c3" transform="translate(162.347005 0.765625)"/>
      <use xlink:href="#DejaVuSans-Oblique-79" transform="translate(225.725911 -15.640625)scale(0.7)"/>
      <use xlink:href="#DejaVuSans-2c" transform="translate(267.151693 -15.640625)scale(0.7)"/>
      <use xlink:href="#DejaVuSans-Oblique-56" transform="translate(303.040365 -15.640625)scale(0.7)"/>
      <use xlink:href="#STIXGeneral-Regular-20" transform="translate(353.660482 0.765625)"/>
      <use xlink:href="#STIXGeneral-Regular-5b" transform="translate(378.660467 0.765625)"/>
      <use xlink:href="#STIXGeneral-Regular-2d" transform="translate(411.960454 0.765625)"/>
      <use xlink:href="#STIXGeneral-Regular-5d" transform="translate(445.260442 0.765625)"/>
     </g>
    </g>
   </g>
   <g id="matplotlib.axis_2">
    <g id="ytick_1">
     <g id="line2d_19">
      <path d="M 39.8 238.146825 
L 520.982 238.146825 
" clip-path="url(#pa9408c3346)" style="fill: none; stroke-dasharray: 0.8,1.32; stroke-dashoffset: 0; stroke: #b0b0b0; stroke-width: 0.8"/>
     </g>
     <g id="line2d_20">
      <defs>
       <path id="m8046e00bc6" d="M 0 0 
L -3.5 0 
" style="stroke: #000000; stroke-width: 0.8"/>
      </defs>
      <g>
       <use xlink:href="#m8046e00bc6" x="39.8" y="238.146825" style="stroke: #000000; stroke-width: 0.8"/>
      </g>
     </g>
     <g id="text_11">
      <!-- 0.0 -->
      <g transform="translate(20.3 241.561669)scale(0.1 -0.1)">
       <defs>
        <path id="STIXGeneral-Regular-2e" d="M 1158 275 
Q 1158 134 1052 32 
Q 947 -70 800 -70 
Q 653 -70 550 32 
Q 448 134 448 281 
Q 448 429 553 534 
Q 659 640 806 640 
Q 947 640 1052 531 
Q 1158 422 1158 275 
z
" transform="scale(0.015625)"/>
       </defs>
       <use xlink:href="#STIXGeneral-Regular-30"/>
       <use xlink:href="#STIXGeneral-Regular-2e" x="49.999985"/>
       <use xlink:href="#STIXGeneral-Regular-30" x="74.999969"/>
      </g>
     </g>
    </g>
    <g id="ytick_2">
     <g id="line2d_21">
      <path d="M 39.8 202.17692 
L 520.982 202.17692 
" clip-path="url(#pa9408c3346)" style="fill: none; stroke-dasharray: 0.8,1.32; stroke-dashoffset: 0; stroke: #b0b0b0; stroke-width: 0.8"/>
     </g>
     <g id="line2d_22">
      <g>
       <use xlink:href="#m8046e00bc6" x="39.8" y="202.17692" style="stroke: #000000; stroke-width: 0.8"/>
      </g>
     </g>
     <g id="text_12">
      <!-- 0.2 -->
      <g transform="translate(20.3 205.591764)scale(0.1 -0.1)">
       <use xlink:href="#STIXGeneral-Regular-30"/>
       <use xlink:href="#STIXGeneral-Regular-2e" x="49.999985"/>
       <use xlink:href="#STIXGeneral-Regular-32" x="74.999969"/>
      </g>
     </g>
    </g>
    <g id="ytick_3">
     <g id="line2d_23">
      <path d="M 39.8 166.207015 
L 520.982 166.207015 
" clip-path="url(#pa9408c3346)" style="fill: none; stroke-dasharray: 0.8,1.32; stroke-dashoffset: 0; stroke: #b0b0b0; stroke-width: 0.8"/>
     </g>
     <g id="line2d_24">
      <g>
       <use xlink:href="#m8046e00bc6" x="39.8" y="166.207015" style="stroke: #000000; stroke-width: 0.8"/>
      </g>
     </g>
     <g id="text_13">
      <!-- 0.4 -->
      <g transform="translate(20.3 169.621858)scale(0.1 -0.1)">
       <use xlink:href="#STIXGeneral-Regular-30"/>
       <use xlink:href="#STIXGeneral-Regular-2e" x="49.999985"/>
       <use xlink:href="#STIXGeneral-Regular-34" x="74.999969"/>
      </g>
     </g>
    </g>
    <g id="ytick_4">
     <g id="line2d_25">
      <path d="M 39.8 130.23711 
L 520.982 130.23711 
" clip-path="url(#pa9408c3346)" style="fill: none; stroke-dasharray: 0.8,1.32; stroke-dashoffset: 0; stroke: #b0b0b0; stroke-width: 0.8"/>
     </g>
     <g id="line2d_26">
      <g>
       <use xlink:href="#m8046e00bc6" x="39.8" y="130.23711" style="stroke: #000000; stroke-width: 0.8"/>
      </g>
     </g>
     <g id="text_14">
      <!-- 0.6 -->
      <g transform="translate(20.3 133.651953)scale(0.1 -0.1)">
       <defs>
        <path id="STIXGeneral-Regular-36" d="M 2854 4378 
L 2867 4275 
Q 2112 4154 1606 3664 
Q 1101 3174 973 2451 
Q 1344 2739 1786 2739 
Q 2349 2739 2672 2380 
Q 2995 2022 2995 1402 
Q 2995 774 2669 378 
Q 2291 -90 1651 -90 
Q 870 -90 518 557 
Q 218 1107 218 1786 
Q 218 2835 915 3552 
Q 1312 3962 1731 4131 
Q 2150 4301 2854 4378 
z
M 2419 1203 
Q 2419 2445 1555 2445 
Q 1235 2445 1024 2275 
Q 813 2106 813 1702 
Q 813 954 1046 522 
Q 1280 90 1722 90 
Q 2061 90 2240 394 
Q 2419 698 2419 1203 
z
" transform="scale(0.015625)"/>
       </defs>
       <use xlink:href="#STIXGeneral-Regular-30"/>
       <use xlink:href="#STIXGeneral-Regular-2e" x="49.999985"/>
       <use xlink:href="#STIXGeneral-Regular-36" x="74.999969"/>
      </g>
     </g>
    </g>
    <g id="ytick_5">
     <g id="line2d_27">
      <path d="M 39.8 94.267204 
L 520.982 94.267204 
" clip-path="url(#pa9408c3346)" style="fill: none; stroke-dasharray: 0.8,1.32; stroke-dashoffset: 0; stroke: #b0b0b0; stroke-width: 0.8"/>
     </g>
     <g id="line2d_28">
      <g>
       <use xlink:href="#m8046e00bc6" x="39.8" y="94.267204" style="stroke: #000000; stroke-width: 0.8"/>
      </g>
     </g>
     <g id="text_15">
      <!-- 0.8 -->
      <g transform="translate(20.3 97.682048)scale(0.1 -0.1)">
       <defs>
        <path id="STIXGeneral-Regular-38" d="M 2848 992 
Q 2848 499 2505 204 
Q 2163 -90 1587 -90 
Q 1050 -90 704 204 
Q 358 499 358 954 
Q 358 1293 524 1533 
Q 691 1773 1190 2125 
Q 710 2522 553 2765 
Q 397 3008 397 3328 
Q 397 3782 745 4054 
Q 1094 4326 1638 4326 
Q 2106 4326 2410 4060 
Q 2714 3795 2714 3411 
Q 2714 3059 2531 2848 
Q 2349 2637 1856 2374 
Q 2432 1990 2640 1689 
Q 2848 1389 2848 992 
z
M 2272 3411 
Q 2272 3744 2086 3945 
Q 1901 4147 1574 4147 
Q 1248 4147 1059 3977 
Q 870 3808 870 3513 
Q 870 3219 1059 2979 
Q 1248 2739 1670 2490 
Q 1997 2682 2134 2896 
Q 2272 3110 2272 3411 
z
M 1734 1741 
L 1357 1997 
Q 1075 1766 960 1545 
Q 845 1325 845 1011 
Q 845 576 1065 333 
Q 1286 90 1658 90 
Q 1971 90 2166 285 
Q 2362 480 2362 794 
Q 2362 1082 2214 1299 
Q 2067 1517 1734 1741 
z
" transform="scale(0.015625)"/>
       </defs>
       <use xlink:href="#STIXGeneral-Regular-30"/>
       <use xlink:href="#STIXGeneral-Regular-2e" x="49.999985"/>
       <use xlink:href="#STIXGeneral-Regular-38" x="74.999969"/>
      </g>
     </g>
    </g>
    <g id="ytick_6">
     <g id="line2d_29">
      <path d="M 39.8 58.297299 
L 520.982 58.297299 
" clip-path="url(#pa9408c3346)" style="fill: none; stroke-dasharray: 0.8,1.32; stroke-dashoffset: 0; stroke: #b0b0b0; stroke-width: 0.8"/>
     </g>
     <g id="line2d_30">
      <g>
       <use xlink:href="#m8046e00bc6" x="39.8" y="58.297299" style="stroke: #000000; stroke-width: 0.8"/>
      </g>
     </g>
     <g id="text_16">
      <!-- 1.0 -->
      <g transform="translate(20.3 61.712143)scale(0.1 -0.1)">
       <use xlink:href="#STIXGeneral-Regular-31"/>
       <use xlink:href="#STIXGeneral-Regular-2e" x="49.999985"/>
       <use xlink:href="#STIXGeneral-Regular-30" x="74.999969"/>
      </g>
     </g>
    </g>
    <g id="ytick_7">
     <g id="line2d_31">
      <path d="M 39.8 22.327394 
L 520.982 22.327394 
" clip-path="url(#pa9408c3346)" style="fill: none; stroke-dasharray: 0.8,1.32; stroke-dashoffset: 0; stroke: #b0b0b0; stroke-width: 0.8"/>
     </g>
     <g id="line2d_32">
      <g>
       <use xlink:href="#m8046e00bc6" x="39.8" y="22.327394" style="stroke: #000000; stroke-width: 0.8"/>
      </g>
     </g>
     <g id="text_17">
      <!-- 1.2 -->
      <g transform="translate(20.3 25.742238)scale(0.1 -0.1)">
       <use xlink:href="#STIXGeneral-Regular-31"/>
       <use xlink:href="#STIXGeneral-Regular-2e" x="49.999985"/>
       <use xlink:href="#STIXGeneral-Regular-32" x="74.999969"/>
      </g>
     </g>
    </g>
    <g id="text_18">
     <!-- $V/V_c$ [-] -->
     <g transform="translate(14.129688 146.981225)rotate(-90)scale(0.1 -0.1)">
      <defs>
       <path id="DejaVuSans-Oblique-63" d="M 3431 3366 
L 3316 2797 
Q 3109 2947 2876 3022 
Q 2644 3097 2394 3097 
Q 2119 3097 1870 3000 
Q 1622 2903 1453 2725 
Q 1184 2453 1037 2087 
Q 891 1722 891 1331 
Q 891 859 1127 628 
Q 1363 397 1844 397 
Q 2081 397 2348 469 
Q 2616 541 2906 684 
L 2797 116 
Q 2547 13 2283 -39 
Q 2019 -91 1741 -91 
Q 1044 -91 669 257 
Q 294 606 294 1253 
Q 294 1797 489 2255 
Q 684 2713 1069 3078 
Q 1331 3328 1684 3456 
Q 2038 3584 2456 3584 
Q 2700 3584 2940 3529 
Q 3181 3475 3431 3366 
z
" transform="scale(0.015625)"/>
      </defs>
      <use xlink:href="#DejaVuSans-Oblique-56" transform="translate(0 0.09375)"/>
      <use xlink:href="#DejaVuSans-2f" transform="translate(68.408203 0.09375)"/>
      <use xlink:href="#DejaVuSans-Oblique-56" transform="translate(102.099609 0.09375)"/>
      <use xlink:href="#DejaVuSans-Oblique-63" transform="translate(170.507812 -16.3125)scale(0.7)"/>
      <use xlink:href="#STIXGeneral-Regular-20" transform="translate(211.728516 0.09375)"/>
      <use xlink:href="#STIXGeneral-Regular-5b" transform="translate(236.7285 0.09375)"/>
      <use xlink:href="#STIXGeneral-Regular-2d" transform="translate(270.028488 0.09375)"/>
      <use xlink:href="#STIXGeneral-Regular-5d" transform="translate(303.328476 0.09375)"/>
     </g>
    </g>
   </g>
   <g id="line2d_33">
    <defs>
     <path id="m846da35795" d="M 0 3 
C 0.795609 3 1.55874 2.683901 2.12132 2.12132 
C 2.683901 1.55874 3 0.795609 3 0 
C 3 -0.795609 2.683901 -1.55874 2.12132 -2.12132 
C 1.55874 -2.683901 0.795609 -3 0 -3 
C -0.795609 -3 -1.55874 -2.683901 -2.12132 -2.12132 
C -2.683901 -1.55874 -3 -0.795609 -3 0 
C -3 0.795609 -2.683901 1.55874 -2.12132 2.12132 
C -1.55874 2.683901 -0.795609 3 0 3 
z
" style="stroke: #1f77b4"/>
    </defs>
    <g clip-path="url(#pa9408c3346)">
     <use xlink:href="#m846da35795" x="-1" y="226.819583" style="fill: #1f77b4; stroke: #1f77b4"/>
     <use xlink:href="#m846da35795" x="7.973374" y="226.307342" style="fill: #1f77b4; stroke: #1f77b4"/>
     <use xlink:href="#m846da35795" x="23.107686" y="225.339731" style="fill: #1f77b4; stroke: #1f77b4"/>
     <use xlink:href="#m846da35795" x="38.241999" y="224.242714" style="fill: #1f77b4; stroke: #1f77b4"/>
     <use xlink:href="#m846da35795" x="53.376312" y="222.984362" style="fill: #1f77b4; stroke: #1f77b4"/>
     <use xlink:href="#m846da35795" x="68.510624" y="221.513035" style="fill: #1f77b4; stroke: #1f77b4"/>
     <use xlink:href="#m846da35795" x="83.644937" y="219.762504" style="fill: #1f77b4; stroke: #1f77b4"/>
     <use xlink:href="#m846da35795" x="98.779249" y="217.622595" style="fill: #1f77b4; stroke: #1f77b4"/>
     <use xlink:href="#m846da35795" x="113.913562" y="214.947838" style="fill: #1f77b4; stroke: #1f77b4"/>
     <use xlink:href="#m846da35795" x="129.047874" y="211.495402" style="fill: #1f77b4; stroke: #1f77b4"/>
     <use xlink:href="#m846da35795" x="144.182187" y="206.934029" style="fill: #1f77b4; stroke: #1f77b4"/>
     <use xlink:href="#m846da35795" x="159.316499" y="200.717054" style="fill: #1f77b4; stroke: #1f77b4"/>
     <use xlink:href="#m846da35795" x="174.450812" y="192.076943" style="fill: #1f77b4; stroke: #1f77b4"/>
     <use xlink:href="#m846da35795" x="189.585125" y="179.758769" style="fill: #1f77b4; stroke: #1f77b4"/>
     <use xlink:href="#m846da35795" x="204.719437" y="161.989437" style="fill: #1f77b4; stroke: #1f77b4"/>
     <use xlink:href="#m846da35795" x="219.85375" y="136.033572" style="fill: #1f77b4; stroke: #1f77b4"/>
     <use xlink:href="#m846da35795" x="234.988062" y="100.694109" style="fill: #1f77b4; stroke: #1f77b4"/>
     <use xlink:href="#m846da35795" x="250.122375" y="62.993511" style="fill: #1f77b4; stroke: #1f77b4"/>
     <use xlink:href="#m846da35795" x="265.256687" y="36.447409" style="fill: #1f77b4; stroke: #1f77b4"/>
     <use xlink:href="#m846da35795" x="280.391" y="36.222302" style="fill: #1f77b4; stroke: #1f77b4"/>
     <use xlink:href="#m846da35795" x="295.525313" y="64.911281" style="fill: #1f77b4; stroke: #1f77b4"/>
     <use xlink:href="#m846da35795" x="310.659625" y="102.168699" style="fill: #1f77b4; stroke: #1f77b4"/>
     <use xlink:href="#m846da35795" x="325.793938" y="135.709357" style="fill: #1f77b4; stroke: #1f77b4"/>
     <use xlink:href="#m846da35795" x="340.92825" y="164.208174" style="fill: #1f77b4; stroke: #1f77b4"/>
     <use xlink:href="#m846da35795" x="356.062563" y="176.867867" style="fill: #1f77b4; stroke: #1f77b4"/>
     <use xlink:href="#m846da35795" x="371.196875" y="183.35093" style="fill: #1f77b4; stroke: #1f77b4"/>
     <use xlink:href="#m846da35795" x="386.331188" y="191.891967" style="fill: #1f77b4; stroke: #1f77b4"/>
     <use xlink:href="#m846da35795" x="401.465501" y="199.339158" style="fill: #1f77b4; stroke: #1f77b4"/>
     <use xlink:href="#m846da35795" x="416.599813" y="205.406942" style="fill: #1f77b4; stroke: #1f77b4"/>
     <use xlink:href="#m846da35795" x="431.734126" y="210.082999" style="fill: #1f77b4; stroke: #1f77b4"/>
     <use xlink:href="#m846da35795" x="446.868438" y="213.627438" style="fill: #1f77b4; stroke: #1f77b4"/>
     <use xlink:href="#m846da35795" x="462.002751" y="216.359399" style="fill: #1f77b4; stroke: #1f77b4"/>
     <use xlink:href="#m846da35795" x="477.137063" y="218.517877" style="fill: #1f77b4; stroke: #1f77b4"/>
     <use xlink:href="#m846da35795" x="492.271376" y="220.267614" style="fill: #1f77b4; stroke: #1f77b4"/>
     <use xlink:href="#m846da35795" x="507.405688" y="221.720535" style="fill: #1f77b4; stroke: #1f77b4"/>
     <use xlink:href="#m846da35795" x="522.540001" y="222.952283" style="fill: #1f77b4; stroke: #1f77b4"/>
     <use xlink:href="#m846da35795" x="537.674314" y="224.015388" style="fill: #1f77b4; stroke: #1f77b4"/>
     <use xlink:href="#m846da35795" x="552.808626" y="224.946656" style="fill: #1f77b4; stroke: #1f77b4"/>
     <use xlink:href="#m846da35795" x="567.942939" y="225.772449" style="fill: #1f77b4; stroke: #1f77b4"/>
     <use xlink:href="#m846da35795" x="583.077251" y="226.51218" style="fill: #1f77b4; stroke: #1f77b4"/>
     <use xlink:href="#m846da35795" x="598.211564" y="227.179746" style="fill: #1f77b4; stroke: #1f77b4"/>
     <use xlink:href="#m846da35795" x="613.345876" y="227.788641" style="fill: #1f77b4; stroke: #1f77b4"/>
     <use xlink:href="#m846da35795" x="628.480189" y="228.340959" style="fill: #1f77b4; stroke: #1f77b4"/>
     <use xlink:href="#m846da35795" x="644.419834" y="228.860441" style="fill: #1f77b4; stroke: #1f77b4"/>
     <use xlink:href="#m846da35795" x="663.002906" y="229.421852" style="fill: #1f77b4; stroke: #1f77b4"/>
     <use xlink:href="#m846da35795" x="685.655097" y="230.049902" style="fill: #1f77b4; stroke: #1f77b4"/>
     <use xlink:href="#m846da35795" x="713.24109" y="230.722026" style="fill: #1f77b4; stroke: #1f77b4"/>
     <use xlink:href="#m846da35795" x="746.796496" y="231.436635" style="fill: #1f77b4; stroke: #1f77b4"/>
     <use xlink:href="#m846da35795" x="787.555448" y="232.174757" style="fill: #1f77b4; stroke: #1f77b4"/>
     <use xlink:href="#m846da35795" x="836.979533" y="232.922281" style="fill: #1f77b4; stroke: #1f77b4"/>
     <use xlink:href="#m846da35795" x="896.786478" y="233.658221" style="fill: #1f77b4; stroke: #1f77b4"/>
     <use xlink:href="#m846da35795" x="968.975743" y="234.364022" style="fill: #1f77b4; stroke: #1f77b4"/>
     <use xlink:href="#m846da35795" x="1055.847067" y="235.020702" style="fill: #1f77b4; stroke: #1f77b4"/>
     <use xlink:href="#m846da35795" x="1160.006079" y="235.613059" style="fill: #1f77b4; stroke: #1f77b4"/>
     <use xlink:href="#m846da35795" x="1284.348662" y="236.130295" style="fill: #1f77b4; stroke: #1f77b4"/>
     <use xlink:href="#m846da35795" x="1432.014665" y="236.567411" style="fill: #1f77b4; stroke: #1f77b4"/>
     <use xlink:href="#m846da35795" x="1606.298586" y="236.92534" style="fill: #1f77b4; stroke: #1f77b4"/>
     <use xlink:href="#m846da35795" x="1810.505942" y="237.209912" style="fill: #1f77b4; stroke: #1f77b4"/>
     <use xlink:href="#m846da35795" x="2047.744561" y="237.430327" style="fill: #1f77b4; stroke: #1f77b4"/>
     <use xlink:href="#m846da35795" x="2320.646889" y="237.597269" style="fill: #1f77b4; stroke: #1f77b4"/>
     <use xlink:href="#m846da35795" x="2631.032694" y="237.721497" style="fill: #1f77b4; stroke: #1f77b4"/>
    </g>
   </g>
   <g id="line2d_34">
    <defs>
     <path id="m3fb2b0f660" d="M 0 3 
C 0.795609 3 1.55874 2.683901 2.12132 2.12132 
C 2.683901 1.55874 3 0.795609 3 0 
C 3 -0.795609 2.683901 -1.55874 2.12132 -2.12132 
C 1.55874 -2.683901 0.795609 -3 0 -3 
C -0.795609 -3 -1.55874 -2.683901 -2.12132 -2.12132 
C -2.683901 -1.55874 -3 -0.795609 -3 0 
C -3 0.795609 -2.683901 1.55874 -2.12132 2.12132 
C -1.55874 2.683901 -0.795609 3 0 3 
z
" style="stroke: #ff7f0e"/>
    </defs>
    <g clip-path="url(#pa9408c3346)">
     <use xlink:href="#m3fb2b0f660" x="-1" y="226.885006" style="fill: #ff7f0e; stroke: #ff7f0e"/>
     <use xlink:href="#m3fb2b0f660" x="5.082365" y="226.541724" style="fill: #ff7f0e; stroke: #ff7f0e"/>
     <use xlink:href="#m3fb2b0f660" x="17.596394" y="225.774136" style="fill: #ff7f0e; stroke: #ff7f0e"/>
     <use xlink:href="#m3fb2b0f660" x="30.110423" y="224.930836" style="fill: #ff7f0e; stroke: #ff7f0e"/>
     <use xlink:href="#m3fb2b0f660" x="42.624452" y="224.001068" style="fill: #ff7f0e; stroke: #ff7f0e"/>
     <use xlink:href="#m3fb2b0f660" x="55.138481" y="222.968009" style="fill: #ff7f0e; stroke: #ff7f0e"/>
     <use xlink:href="#m3fb2b0f660" x="67.652509" y="221.811551" style="fill: #ff7f0e; stroke: #ff7f0e"/>
     <use xlink:href="#m3fb2b0f660" x="80.166538" y="220.502262" style="fill: #ff7f0e; stroke: #ff7f0e"/>
     <use xlink:href="#m3fb2b0f660" x="92.680567" y="219.00204" style="fill: #ff7f0e; stroke: #ff7f0e"/>
     <use xlink:href="#m3fb2b0f660" x="105.194596" y="217.253916" style="fill: #ff7f0e; stroke: #ff7f0e"/>
     <use xlink:href="#m3fb2b0f660" x="117.708625" y="215.17981" style="fill: #ff7f0e; stroke: #ff7f0e"/>
     <use xlink:href="#m3fb2b0f660" x="130.222654" y="212.66217" style="fill: #ff7f0e; stroke: #ff7f0e"/>
     <use xlink:href="#m3fb2b0f660" x="142.736683" y="209.531066" style="fill: #ff7f0e; stroke: #ff7f0e"/>
     <use xlink:href="#m3fb2b0f660" x="155.250711" y="205.532016" style="fill: #ff7f0e; stroke: #ff7f0e"/>
     <use xlink:href="#m3fb2b0f660" x="167.76474" y="200.280017" style="fill: #ff7f0e; stroke: #ff7f0e"/>
     <use xlink:href="#m3fb2b0f660" x="180.278769" y="193.209925" style="fill: #ff7f0e; stroke: #ff7f0e"/>
     <use xlink:href="#m3fb2b0f660" x="192.792798" y="183.457357" style="fill: #ff7f0e; stroke: #ff7f0e"/>
     <use xlink:href="#m3fb2b0f660" x="205.306827" y="169.853394" style="fill: #ff7f0e; stroke: #ff7f0e"/>
     <use xlink:href="#m3fb2b0f660" x="217.820856" y="150.938286" style="fill: #ff7f0e; stroke: #ff7f0e"/>
     <use xlink:href="#m3fb2b0f660" x="230.334885" y="125.212148" style="fill: #ff7f0e; stroke: #ff7f0e"/>
     <use xlink:href="#m3fb2b0f660" x="242.848913" y="94.39243" style="fill: #ff7f0e; stroke: #ff7f0e"/>
     <use xlink:href="#m3fb2b0f660" x="255.362942" y="65.087368" style="fill: #ff7f0e; stroke: #ff7f0e"/>
     <use xlink:href="#m3fb2b0f660" x="267.876971" y="43.854646" style="fill: #ff7f0e; stroke: #ff7f0e"/>
     <use xlink:href="#m3fb2b0f660" x="280.391" y="36.248369" style="fill: #ff7f0e; stroke: #ff7f0e"/>
     <use xlink:href="#m3fb2b0f660" x="292.905029" y="47.548959" style="fill: #ff7f0e; stroke: #ff7f0e"/>
     <use xlink:href="#m3fb2b0f660" x="305.419058" y="73.530832" style="fill: #ff7f0e; stroke: #ff7f0e"/>
     <use xlink:href="#m3fb2b0f660" x="317.933087" y="101.752662" style="fill: #ff7f0e; stroke: #ff7f0e"/>
     <use xlink:href="#m3fb2b0f660" x="330.447115" y="128.810733" style="fill: #ff7f0e; stroke: #ff7f0e"/>
     <use xlink:href="#m3fb2b0f660" x="342.961144" y="154.702488" style="fill: #ff7f0e; stroke: #ff7f0e"/>
     <use xlink:href="#m3fb2b0f660" x="355.475173" y="171.085411" style="fill: #ff7f0e; stroke: #ff7f0e"/>
     <use xlink:href="#m3fb2b0f660" x="367.989202" y="179.540051" style="fill: #ff7f0e; stroke: #ff7f0e"/>
     <use xlink:href="#m3fb2b0f660" x="380.503231" y="187.486891" style="fill: #ff7f0e; stroke: #ff7f0e"/>
     <use xlink:href="#m3fb2b0f660" x="393.01726" y="194.476083" style="fill: #ff7f0e; stroke: #ff7f0e"/>
     <use xlink:href="#m3fb2b0f660" x="405.531289" y="200.423489" style="fill: #ff7f0e; stroke: #ff7f0e"/>
     <use xlink:href="#m3fb2b0f660" x="418.045317" y="205.287252" style="fill: #ff7f0e; stroke: #ff7f0e"/>
     <use xlink:href="#m3fb2b0f660" x="430.559346" y="209.156475" style="fill: #ff7f0e; stroke: #ff7f0e"/>
     <use xlink:href="#m3fb2b0f660" x="443.073375" y="212.237849" style="fill: #ff7f0e; stroke: #ff7f0e"/>
     <use xlink:href="#m3fb2b0f660" x="455.587404" y="214.730845" style="fill: #ff7f0e; stroke: #ff7f0e"/>
     <use xlink:href="#m3fb2b0f660" x="468.101433" y="216.79012" style="fill: #ff7f0e; stroke: #ff7f0e"/>
     <use xlink:href="#m3fb2b0f660" x="480.615462" y="218.525783" style="fill: #ff7f0e; stroke: #ff7f0e"/>
     <use xlink:href="#m3fb2b0f660" x="493.129491" y="220.014324" style="fill: #ff7f0e; stroke: #ff7f0e"/>
     <use xlink:href="#m3fb2b0f660" x="505.643519" y="221.309842" style="fill: #ff7f0e; stroke: #ff7f0e"/>
     <use xlink:href="#m3fb2b0f660" x="518.157548" y="222.450815" style="fill: #ff7f0e; stroke: #ff7f0e"/>
     <use xlink:href="#m3fb2b0f660" x="530.671577" y="223.465999" style="fill: #ff7f0e; stroke: #ff7f0e"/>
     <use xlink:href="#m3fb2b0f660" x="543.185606" y="224.375272" style="fill: #ff7f0e; stroke: #ff7f0e"/>
     <use xlink:href="#m3fb2b0f660" x="555.699635" y="225.199718" style="fill: #ff7f0e; stroke: #ff7f0e"/>
     <use xlink:href="#m3fb2b0f660" x="568.213664" y="225.939183" style="fill: #ff7f0e; stroke: #ff7f0e"/>
     <use xlink:href="#m3fb2b0f660" x="581.393593" y="226.632006" style="fill: #ff7f0e; stroke: #ff7f0e"/>
     <use xlink:href="#m3fb2b0f660" x="596.75928" y="227.377558" style="fill: #ff7f0e; stroke: #ff7f0e"/>
     <use xlink:href="#m3fb2b0f660" x="615.489577" y="228.198774" style="fill: #ff7f0e; stroke: #ff7f0e"/>
     <use xlink:href="#m3fb2b0f660" x="638.299461" y="229.068359" style="fill: #ff7f0e; stroke: #ff7f0e"/>
     <use xlink:href="#m3fb2b0f660" x="666.045242" y="229.978706" style="fill: #ff7f0e; stroke: #ff7f0e"/>
     <use xlink:href="#m3fb2b0f660" x="699.74738" y="230.903666" style="fill: #ff7f0e; stroke: #ff7f0e"/>
     <use xlink:href="#m3fb2b0f660" x="740.614412" y="231.823105" style="fill: #ff7f0e; stroke: #ff7f0e"/>
     <use xlink:href="#m3fb2b0f660" x="790.066664" y="232.711044" style="fill: #ff7f0e; stroke: #ff7f0e"/>
     <use xlink:href="#m3fb2b0f660" x="849.757419" y="233.548538" style="fill: #ff7f0e; stroke: #ff7f0e"/>
     <use xlink:href="#m3fb2b0f660" x="921.58825" y="234.318177" style="fill: #ff7f0e; stroke: #ff7f0e"/>
     <use xlink:href="#m3fb2b0f660" x="1007.71366" y="235.009463" style="fill: #ff7f0e; stroke: #ff7f0e"/>
     <use xlink:href="#m3fb2b0f660" x="1110.528153" y="235.615545" style="fill: #ff7f0e; stroke: #ff7f0e"/>
     <use xlink:href="#m3fb2b0f660" x="1232.627959" y="236.134195" style="fill: #ff7f0e; stroke: #ff7f0e"/>
     <use xlink:href="#m3fb2b0f660" x="1376.737182" y="236.56669" style="fill: #ff7f0e; stroke: #ff7f0e"/>
     <use xlink:href="#m3fb2b0f660" x="1545.589037" y="236.917924" style="fill: #ff7f0e; stroke: #ff7f0e"/>
     <use xlink:href="#m3fb2b0f660" x="1741.753276" y="237.19581" style="fill: #ff7f0e; stroke: #ff7f0e"/>
     <use xlink:href="#m3fb2b0f660" x="1967.406579" y="237.410364" style="fill: #ff7f0e; stroke: #ff7f0e"/>
     <use xlink:href="#m3fb2b0f660" x="2224.053645" y="237.572578" style="fill: #ff7f0e; stroke: #ff7f0e"/>
    </g>
   </g>
   <g id="line2d_35">
    <defs>
     <path id="m16e012ff60" d="M 0 3 
C 0.795609 3 1.55874 2.683901 2.12132 2.12132 
C 2.683901 1.55874 3 0.795609 3 0 
C 3 -0.795609 2.683901 -1.55874 2.12132 -2.12132 
C 1.55874 -2.683901 0.795609 -3 0 -3 
C -0.795609 -3 -1.55874 -2.683901 -2.12132 -2.12132 
C -2.683901 -1.55874 -3 -0.795609 -3 0 
C -3 0.795609 -2.683901 1.55874 -2.12132 2.12132 
C -1.55874 2.683901 -0.795609 3 0 3 
z
" style="stroke: #2ca02c"/>
    </defs>
    <g clip-path="url(#pa9408c3346)">
     <use xlink:href="#m16e012ff60" x="-1" y="227.009759" style="fill: #2ca02c; stroke: #2ca02c"/>
     <use xlink:href="#m16e012ff60" x="13.309171" y="226.122364" style="fill: #2ca02c; stroke: #2ca02c"/>
     <use xlink:href="#m16e012ff60" x="25.787482" y="225.275941" style="fill: #2ca02c; stroke: #2ca02c"/>
     <use xlink:href="#m16e012ff60" x="36.490762" y="224.497994" style="fill: #2ca02c; stroke: #2ca02c"/>
     <use xlink:href="#m16e012ff60" x="46.653272" y="223.675047" style="fill: #2ca02c; stroke: #2ca02c"/>
     <use xlink:href="#m16e012ff60" x="56.815782" y="222.768045" style="fill: #2ca02c; stroke: #2ca02c"/>
     <use xlink:href="#m16e012ff60" x="66.978292" y="221.781549" style="fill: #2ca02c; stroke: #2ca02c"/>
     <use xlink:href="#m16e012ff60" x="77.140802" y="220.697383" style="fill: #2ca02c; stroke: #2ca02c"/>
     <use xlink:href="#m16e012ff60" x="87.303312" y="219.501587" style="fill: #2ca02c; stroke: #2ca02c"/>
     <use xlink:href="#m16e012ff60" x="97.465822" y="218.173594" style="fill: #2ca02c; stroke: #2ca02c"/>
     <use xlink:href="#m16e012ff60" x="107.628332" y="216.687796" style="fill: #2ca02c; stroke: #2ca02c"/>
     <use xlink:href="#m16e012ff60" x="117.790842" y="215.009377" style="fill: #2ca02c; stroke: #2ca02c"/>
     <use xlink:href="#m16e012ff60" x="127.953351" y="213.091133" style="fill: #2ca02c; stroke: #2ca02c"/>
     <use xlink:href="#m16e012ff60" x="138.115861" y="210.867734" style="fill: #2ca02c; stroke: #2ca02c"/>
     <use xlink:href="#m16e012ff60" x="148.278371" y="208.244883" style="fill: #2ca02c; stroke: #2ca02c"/>
     <use xlink:href="#m16e012ff60" x="158.440881" y="205.090067" style="fill: #2ca02c; stroke: #2ca02c"/>
     <use xlink:href="#m16e012ff60" x="168.603391" y="201.202119" style="fill: #2ca02c; stroke: #2ca02c"/>
     <use xlink:href="#m16e012ff60" x="178.765901" y="196.295598" style="fill: #2ca02c; stroke: #2ca02c"/>
     <use xlink:href="#m16e012ff60" x="188.928411" y="189.928635" style="fill: #2ca02c; stroke: #2ca02c"/>
     <use xlink:href="#m16e012ff60" x="199.090921" y="181.497238" style="fill: #2ca02c; stroke: #2ca02c"/>
     <use xlink:href="#m16e012ff60" x="209.253431" y="170.128557" style="fill: #2ca02c; stroke: #2ca02c"/>
     <use xlink:href="#m16e012ff60" x="219.415941" y="154.877058" style="fill: #2ca02c; stroke: #2ca02c"/>
     <use xlink:href="#m16e012ff60" x="229.57845" y="134.778018" style="fill: #2ca02c; stroke: #2ca02c"/>
     <use xlink:href="#m16e012ff60" x="239.74096" y="109.475255" style="fill: #2ca02c; stroke: #2ca02c"/>
     <use xlink:href="#m16e012ff60" x="249.90347" y="81.894137" style="fill: #2ca02c; stroke: #2ca02c"/>
     <use xlink:href="#m16e012ff60" x="260.06598" y="57.658206" style="fill: #2ca02c; stroke: #2ca02c"/>
     <use xlink:href="#m16e012ff60" x="270.22849" y="41.299852" style="fill: #2ca02c; stroke: #2ca02c"/>
     <use xlink:href="#m16e012ff60" x="280.391" y="35.851349" style="fill: #2ca02c; stroke: #2ca02c"/>
     <use xlink:href="#m16e012ff60" x="290.55351" y="42.969029" style="fill: #2ca02c; stroke: #2ca02c"/>
     <use xlink:href="#m16e012ff60" x="300.71602" y="59.844166" style="fill: #2ca02c; stroke: #2ca02c"/>
     <use xlink:href="#m16e012ff60" x="310.87853" y="80.738165" style="fill: #2ca02c; stroke: #2ca02c"/>
     <use xlink:href="#m16e012ff60" x="321.04104" y="102.65805" style="fill: #2ca02c; stroke: #2ca02c"/>
     <use xlink:href="#m16e012ff60" x="331.20355" y="125.112628" style="fill: #2ca02c; stroke: #2ca02c"/>
     <use xlink:href="#m16e012ff60" x="341.366059" y="146.400681" style="fill: #2ca02c; stroke: #2ca02c"/>
     <use xlink:href="#m16e012ff60" x="351.528569" y="161.986978" style="fill: #2ca02c; stroke: #2ca02c"/>
     <use xlink:href="#m16e012ff60" x="361.691079" y="171.707472" style="fill: #2ca02c; stroke: #2ca02c"/>
     <use xlink:href="#m16e012ff60" x="371.853589" y="179.508497" style="fill: #2ca02c; stroke: #2ca02c"/>
     <use xlink:href="#m16e012ff60" x="382.016099" y="186.362511" style="fill: #2ca02c; stroke: #2ca02c"/>
     <use xlink:href="#m16e012ff60" x="392.178609" y="192.423192" style="fill: #2ca02c; stroke: #2ca02c"/>
     <use xlink:href="#m16e012ff60" x="402.341119" y="197.65869" style="fill: #2ca02c; stroke: #2ca02c"/>
     <use xlink:href="#m16e012ff60" x="412.503629" y="202.023364" style="fill: #2ca02c; stroke: #2ca02c"/>
     <use xlink:href="#m16e012ff60" x="422.666139" y="205.613186" style="fill: #2ca02c; stroke: #2ca02c"/>
     <use xlink:href="#m16e012ff60" x="432.828649" y="208.586246" style="fill: #2ca02c; stroke: #2ca02c"/>
     <use xlink:href="#m16e012ff60" x="442.991158" y="211.087639" style="fill: #2ca02c; stroke: #2ca02c"/>
     <use xlink:href="#m16e012ff60" x="453.153668" y="213.227552" style="fill: #2ca02c; stroke: #2ca02c"/>
     <use xlink:href="#m16e012ff60" x="463.316178" y="215.085552" style="fill: #2ca02c; stroke: #2ca02c"/>
     <use xlink:href="#m16e012ff60" x="473.478688" y="216.718385" style="fill: #2ca02c; stroke: #2ca02c"/>
     <use xlink:href="#m16e012ff60" x="483.641198" y="218.168399" style="fill: #2ca02c; stroke: #2ca02c"/>
     <use xlink:href="#m16e012ff60" x="493.803708" y="219.464447" style="fill: #2ca02c; stroke: #2ca02c"/>
     <use xlink:href="#m16e012ff60" x="503.966218" y="220.63776" style="fill: #2ca02c; stroke: #2ca02c"/>
     <use xlink:href="#m16e012ff60" x="514.128728" y="221.68708" style="fill: #2ca02c; stroke: #2ca02c"/>
     <use xlink:href="#m16e012ff60" x="524.832009" y="222.668792" style="fill: #2ca02c; stroke: #2ca02c"/>
     <use xlink:href="#m16e012ff60" x="537.310319" y="223.724372" style="fill: #2ca02c; stroke: #2ca02c"/>
     <use xlink:href="#m16e012ff60" x="552.520995" y="224.881708" style="fill: #2ca02c; stroke: #2ca02c"/>
     <use xlink:href="#m16e012ff60" x="571.044659" y="226.10262" style="fill: #2ca02c; stroke: #2ca02c"/>
     <use xlink:href="#m16e012ff60" x="593.576713" y="227.372923" style="fill: #2ca02c; stroke: #2ca02c"/>
     <use xlink:href="#m16e012ff60" x="620.945862" y="228.654431" style="fill: #2ca02c; stroke: #2ca02c"/>
     <use xlink:href="#m16e012ff60" x="654.133544" y="229.915133" style="fill: #2ca02c; stroke: #2ca02c"/>
     <use xlink:href="#m16e012ff60" x="694.293192" y="231.116488" style="fill: #2ca02c; stroke: #2ca02c"/>
     <use xlink:href="#m16e012ff60" x="742.767421" y="232.231135" style="fill: #2ca02c; stroke: #2ca02c"/>
     <use xlink:href="#m16e012ff60" x="801.100476" y="233.236409" style="fill: #2ca02c; stroke: #2ca02c"/>
     <use xlink:href="#m16e012ff60" x="871.042007" y="234.122887" style="fill: #2ca02c; stroke: #2ca02c"/>
     <use xlink:href="#m16e012ff60" x="954.536564" y="234.888233" style="fill: #2ca02c; stroke: #2ca02c"/>
     <use xlink:href="#m16e012ff60" x="1053.692519" y="235.537397" style="fill: #2ca02c; stroke: #2ca02c"/>
     <use xlink:href="#m16e012ff60" x="1170.722088" y="236.078061" style="fill: #2ca02c; stroke: #2ca02c"/>
     <use xlink:href="#m16e012ff60" x="1307.844886" y="236.519888" style="fill: #2ca02c; stroke: #2ca02c"/>
     <use xlink:href="#m16e012ff60" x="1467.147781" y="236.873453" style="fill: #2ca02c; stroke: #2ca02c"/>
     <use xlink:href="#m16e012ff60" x="1650.398431" y="237.150296" style="fill: #2ca02c; stroke: #2ca02c"/>
     <use xlink:href="#m16e012ff60" x="1858.818788" y="237.362581" style="fill: #2ca02c; stroke: #2ca02c"/>
    </g>
   </g>
   <g id="line2d_36">
    <defs>
     <path id="m63a5a5be1e" d="M 0 3 
C 0.795609 3 1.55874 2.683901 2.12132 2.12132 
C 2.683901 1.55874 3 0.795609 3 0 
C 3 -0.795609 2.683901 -1.55874 2.12132 -2.12132 
C 1.55874 -2.683901 0.795609 -3 0 -3 
C -0.795609 -3 -1.55874 -2.683901 -2.12132 -2.12132 
C -2.683901 -1.55874 -3 -0.795609 -3 0 
C -3 0.795609 -2.683901 1.55874 -2.12132 2.12132 
C -1.55874 2.683901 -0.795609 3 0 3 
z
" style="stroke: #d62728"/>
    </defs>
    <g clip-path="url(#pa9408c3346)">
     <use xlink:href="#m63a5a5be1e" x="-1" y="227.316936" style="fill: #d62728; stroke: #d62728"/>
     <use xlink:href="#m63a5a5be1e" x="12.443047" y="226.492697" style="fill: #d62728; stroke: #d62728"/>
     <use xlink:href="#m63a5a5be1e" x="31.114615" y="225.139553" style="fill: #d62728; stroke: #d62728"/>
     <use xlink:href="#m63a5a5be1e" x="46.464561" y="223.860339" style="fill: #d62728; stroke: #d62728"/>
     <use xlink:href="#m63a5a5be1e" x="59.069143" y="222.665933" style="fill: #d62728; stroke: #d62728"/>
     <use xlink:href="#m63a5a5be1e" x="69.409505" y="221.592264" style="fill: #d62728; stroke: #d62728"/>
     <use xlink:href="#m63a5a5be1e" x="78.278959" y="220.604515" style="fill: #d62728; stroke: #d62728"/>
     <use xlink:href="#m63a5a5be1e" x="86.700294" y="219.559395" style="fill: #d62728; stroke: #d62728"/>
     <use xlink:href="#m63a5a5be1e" x="95.121629" y="218.406696" style="fill: #d62728; stroke: #d62728"/>
     <use xlink:href="#m63a5a5be1e" x="103.542964" y="217.152462" style="fill: #d62728; stroke: #d62728"/>
     <use xlink:href="#m63a5a5be1e" x="111.964299" y="215.773946" style="fill: #d62728; stroke: #d62728"/>
     <use xlink:href="#m63a5a5be1e" x="120.385634" y="214.25371" style="fill: #d62728; stroke: #d62728"/>
     <use xlink:href="#m63a5a5be1e" x="128.806969" y="212.566967" style="fill: #d62728; stroke: #d62728"/>
     <use xlink:href="#m63a5a5be1e" x="137.228304" y="210.682401" style="fill: #d62728; stroke: #d62728"/>
     <use xlink:href="#m63a5a5be1e" x="145.649639" y="208.559257" style="fill: #d62728; stroke: #d62728"/>
     <use xlink:href="#m63a5a5be1e" x="154.070975" y="206.141475" style="fill: #d62728; stroke: #d62728"/>
     <use xlink:href="#m63a5a5be1e" x="162.49231" y="203.354114" style="fill: #d62728; stroke: #d62728"/>
     <use xlink:href="#m63a5a5be1e" x="170.913645" y="200.087976" style="fill: #d62728; stroke: #d62728"/>
     <use xlink:href="#m63a5a5be1e" x="179.33498" y="196.192651" style="fill: #d62728; stroke: #d62728"/>
     <use xlink:href="#m63a5a5be1e" x="187.756315" y="191.440951" style="fill: #d62728; stroke: #d62728"/>
     <use xlink:href="#m63a5a5be1e" x="196.17765" y="185.517868" style="fill: #d62728; stroke: #d62728"/>
     <use xlink:href="#m63a5a5be1e" x="204.598985" y="177.960163" style="fill: #d62728; stroke: #d62728"/>
     <use xlink:href="#m63a5a5be1e" x="213.02032" y="168.183311" style="fill: #d62728; stroke: #d62728"/>
     <use xlink:href="#m63a5a5be1e" x="221.441655" y="155.466739" style="fill: #d62728; stroke: #d62728"/>
     <use xlink:href="#m63a5a5be1e" x="229.86299" y="139.199973" style="fill: #d62728; stroke: #d62728"/>
     <use xlink:href="#m63a5a5be1e" x="238.284325" y="118.946375" style="fill: #d62728; stroke: #d62728"/>
     <use xlink:href="#m63a5a5be1e" x="246.70566" y="95.055303" style="fill: #d62728; stroke: #d62728"/>
     <use xlink:href="#m63a5a5be1e" x="255.126995" y="70.600052" style="fill: #d62728; stroke: #d62728"/>
     <use xlink:href="#m63a5a5be1e" x="263.54833" y="50.254513" style="fill: #d62728; stroke: #d62728"/>
     <use xlink:href="#m63a5a5be1e" x="271.969665" y="37.469826" style="fill: #d62728; stroke: #d62728"/>
     <use xlink:href="#m63a5a5be1e" x="280.391" y="33.990279" style="fill: #d62728; stroke: #d62728"/>
     <use xlink:href="#m63a5a5be1e" x="288.812335" y="39.629118" style="fill: #d62728; stroke: #d62728"/>
     <use xlink:href="#m63a5a5be1e" x="297.23367" y="51.980839" style="fill: #d62728; stroke: #d62728"/>
     <use xlink:href="#m63a5a5be1e" x="305.655005" y="67.994793" style="fill: #d62728; stroke: #d62728"/>
     <use xlink:href="#m63a5a5be1e" x="314.07634" y="85.800686" style="fill: #d62728; stroke: #d62728"/>
     <use xlink:href="#m63a5a5be1e" x="322.497675" y="104.583712" style="fill: #d62728; stroke: #d62728"/>
     <use xlink:href="#m63a5a5be1e" x="330.91901" y="123.551715" style="fill: #d62728; stroke: #d62728"/>
     <use xlink:href="#m63a5a5be1e" x="339.340345" y="140.986577" style="fill: #d62728; stroke: #d62728"/>
     <use xlink:href="#m63a5a5be1e" x="347.76168" y="154.551499" style="fill: #d62728; stroke: #d62728"/>
     <use xlink:href="#m63a5a5be1e" x="356.183015" y="164.142767" style="fill: #d62728; stroke: #d62728"/>
     <use xlink:href="#m63a5a5be1e" x="364.60435" y="171.692879" style="fill: #d62728; stroke: #d62728"/>
     <use xlink:href="#m63a5a5be1e" x="373.025685" y="178.319735" style="fill: #d62728; stroke: #d62728"/>
     <use xlink:href="#m63a5a5be1e" x="381.44702" y="184.388887" style="fill: #d62728; stroke: #d62728"/>
     <use xlink:href="#m63a5a5be1e" x="389.868355" y="189.881469" style="fill: #d62728; stroke: #d62728"/>
     <use xlink:href="#m63a5a5be1e" x="398.28969" y="194.650156" style="fill: #d62728; stroke: #d62728"/>
     <use xlink:href="#m63a5a5be1e" x="406.711025" y="198.6861" style="fill: #d62728; stroke: #d62728"/>
     <use xlink:href="#m63a5a5be1e" x="415.132361" y="202.097589" style="fill: #d62728; stroke: #d62728"/>
     <use xlink:href="#m63a5a5be1e" x="423.553696" y="205.012905" style="fill: #d62728; stroke: #d62728"/>
     <use xlink:href="#m63a5a5be1e" x="431.975031" y="207.538573" style="fill: #d62728; stroke: #d62728"/>
     <use xlink:href="#m63a5a5be1e" x="440.396366" y="209.753868" style="fill: #d62728; stroke: #d62728"/>
     <use xlink:href="#m63a5a5be1e" x="448.817701" y="211.718247" style="fill: #d62728; stroke: #d62728"/>
     <use xlink:href="#m63a5a5be1e" x="457.239036" y="213.472071" style="fill: #d62728; stroke: #d62728"/>
     <use xlink:href="#m63a5a5be1e" x="465.660371" y="215.058558" style="fill: #d62728; stroke: #d62728"/>
     <use xlink:href="#m63a5a5be1e" x="474.081706" y="216.47638" style="fill: #d62728; stroke: #d62728"/>
     <use xlink:href="#m63a5a5be1e" x="482.95116" y="217.802046" style="fill: #d62728; stroke: #d62728"/>
     <use xlink:href="#m63a5a5be1e" x="493.291522" y="219.227123" style="fill: #d62728; stroke: #d62728"/>
     <use xlink:href="#m63a5a5be1e" x="505.896105" y="220.78818" style="fill: #d62728; stroke: #d62728"/>
     <use xlink:href="#m63a5a5be1e" x="521.246051" y="222.433395" style="fill: #d62728; stroke: #d62728"/>
     <use xlink:href="#m63a5a5be1e" x="539.917617" y="224.142533" style="fill: #d62728; stroke: #d62728"/>
     <use xlink:href="#m63a5a5be1e" x="562.597523" y="225.86373" style="fill: #d62728; stroke: #d62728"/>
     <use xlink:href="#m63a5a5be1e" x="590.099055" y="227.551587" style="fill: #d62728; stroke: #d62728"/>
     <use xlink:href="#m63a5a5be1e" x="623.378024" y="229.152121" style="fill: #d62728; stroke: #d62728"/>
     <use xlink:href="#m63a5a5be1e" x="663.54701" y="230.626115" style="fill: #d62728; stroke: #d62728"/>
     <use xlink:href="#m63a5a5be1e" x="711.885679" y="231.941404" style="fill: #d62728; stroke: #d62728"/>
     <use xlink:href="#m63a5a5be1e" x="769.843907" y="233.085609" style="fill: #d62728; stroke: #d62728"/>
     <use xlink:href="#m63a5a5be1e" x="839.033079" y="234.058016" style="fill: #d62728; stroke: #d62728"/>
     <use xlink:href="#m63a5a5be1e" x="921.200331" y="234.870421" style="fill: #d62728; stroke: #d62728"/>
     <use xlink:href="#m63a5a5be1e" x="1018.178855" y="235.539078" style="fill: #d62728; stroke: #d62728"/>
     <use xlink:href="#m63a5a5be1e" x="1131.807971" y="236.08227" style="fill: #d62728; stroke: #d62728"/>
     <use xlink:href="#m63a5a5be1e" x="1263.816999" y="236.517097" style="fill: #d62728; stroke: #d62728"/>
     <use xlink:href="#m63a5a5be1e" x="1415.670737" y="236.859497" style="fill: #d62728; stroke: #d62728"/>
     <use xlink:href="#m63a5a5be1e" x="1588.381777" y="237.124359" style="fill: #d62728; stroke: #d62728"/>
    </g>
   </g>
   <g id="line2d_37">
    <defs>
     <path id="m6a7358e0f6" d="M 0 3 
C 0.795609 3 1.55874 2.683901 2.12132 2.12132 
C 2.683901 1.55874 3 0.795609 3 0 
C 3 -0.795609 2.683901 -1.55874 2.12132 -2.12132 
C 1.55874 -2.683901 0.795609 -3 0 -3 
C -0.795609 -3 -1.55874 -2.683901 -2.12132 -2.12132 
C -2.683901 -1.55874 -3 -0.795609 -3 0 
C -3 0.795609 -2.683901 1.55874 -2.12132 2.12132 
C -1.55874 2.683901 -0.795609 3 0 3 
z
" style="stroke: #9467bd"/>
    </defs>
    <g clip-path="url(#pa9408c3346)">
     <use xlink:href="#m6a7358e0f6" x="-1" y="227.721615" style="fill: #9467bd; stroke: #9467bd"/>
     <use xlink:href="#m6a7358e0f6" x="8.314268" y="227.182456" style="fill: #9467bd; stroke: #9467bd"/>
     <use xlink:href="#m6a7358e0f6" x="31.834658" y="225.487789" style="fill: #9467bd; stroke: #9467bd"/>
     <use xlink:href="#m6a7358e0f6" x="51.231404" y="223.796652" style="fill: #9467bd; stroke: #9467bd"/>
     <use xlink:href="#m6a7358e0f6" x="67.200061" y="222.148847" style="fill: #9467bd; stroke: #9467bd"/>
     <use xlink:href="#m6a7358e0f6" x="80.327937" y="220.589081" style="fill: #9467bd; stroke: #9467bd"/>
     <use xlink:href="#m6a7358e0f6" x="91.10787" y="219.131231" style="fill: #9467bd; stroke: #9467bd"/>
     <use xlink:href="#m6a7358e0f6" x="99.951353" y="217.819289" style="fill: #9467bd; stroke: #9467bd"/>
     <use xlink:href="#m6a7358e0f6" x="107.536858" y="216.611761" style="fill: #9467bd; stroke: #9467bd"/>
     <use xlink:href="#m6a7358e0f6" x="114.739114" y="215.33399" style="fill: #9467bd; stroke: #9467bd"/>
     <use xlink:href="#m6a7358e0f6" x="121.941369" y="213.924292" style="fill: #9467bd; stroke: #9467bd"/>
     <use xlink:href="#m6a7358e0f6" x="129.143625" y="212.390419" style="fill: #9467bd; stroke: #9467bd"/>
     <use xlink:href="#m6a7358e0f6" x="136.345881" y="210.704955" style="fill: #9467bd; stroke: #9467bd"/>
     <use xlink:href="#m6a7358e0f6" x="143.548137" y="208.847208" style="fill: #9467bd; stroke: #9467bd"/>
     <use xlink:href="#m6a7358e0f6" x="150.750393" y="206.788233" style="fill: #9467bd; stroke: #9467bd"/>
     <use xlink:href="#m6a7358e0f6" x="157.952649" y="204.491634" style="fill: #9467bd; stroke: #9467bd"/>
     <use xlink:href="#m6a7358e0f6" x="165.154905" y="201.910892" style="fill: #9467bd; stroke: #9467bd"/>
     <use xlink:href="#m6a7358e0f6" x="172.357161" y="198.982328" style="fill: #9467bd; stroke: #9467bd"/>
     <use xlink:href="#m6a7358e0f6" x="179.559417" y="195.621804" style="fill: #9467bd; stroke: #9467bd"/>
     <use xlink:href="#m6a7358e0f6" x="186.761673" y="191.708117" style="fill: #9467bd; stroke: #9467bd"/>
     <use xlink:href="#m6a7358e0f6" x="193.963929" y="187.075911" style="fill: #9467bd; stroke: #9467bd"/>
     <use xlink:href="#m6a7358e0f6" x="201.166185" y="181.484472" style="fill: #9467bd; stroke: #9467bd"/>
     <use xlink:href="#m6a7358e0f6" x="208.368441" y="174.613318" style="fill: #9467bd; stroke: #9467bd"/>
     <use xlink:href="#m6a7358e0f6" x="215.570697" y="166.033622" style="fill: #9467bd; stroke: #9467bd"/>
     <use xlink:href="#m6a7358e0f6" x="222.772953" y="155.26427" style="fill: #9467bd; stroke: #9467bd"/>
     <use xlink:href="#m6a7358e0f6" x="229.975208" y="141.817959" style="fill: #9467bd; stroke: #9467bd"/>
     <use xlink:href="#m6a7358e0f6" x="237.177464" y="125.382236" style="fill: #9467bd; stroke: #9467bd"/>
     <use xlink:href="#m6a7358e0f6" x="244.37972" y="105.869743" style="fill: #9467bd; stroke: #9467bd"/>
     <use xlink:href="#m6a7358e0f6" x="251.581976" y="83.928259" style="fill: #9467bd; stroke: #9467bd"/>
     <use xlink:href="#m6a7358e0f6" x="258.784232" y="62.38536" style="fill: #9467bd; stroke: #9467bd"/>
     <use xlink:href="#m6a7358e0f6" x="265.986488" y="45.135269" style="fill: #9467bd; stroke: #9467bd"/>
     <use xlink:href="#m6a7358e0f6" x="273.188744" y="34.840507" style="fill: #9467bd; stroke: #9467bd"/>
     <use xlink:href="#m6a7358e0f6" x="280.391" y="32.402825" style="fill: #9467bd; stroke: #9467bd"/>
     <use xlink:href="#m6a7358e0f6" x="287.593256" y="37.027307" style="fill: #9467bd; stroke: #9467bd"/>
     <use xlink:href="#m6a7358e0f6" x="294.795512" y="46.817431" style="fill: #9467bd; stroke: #9467bd"/>
     <use xlink:href="#m6a7358e0f6" x="301.997768" y="59.810229" style="fill: #9467bd; stroke: #9467bd"/>
     <use xlink:href="#m6a7358e0f6" x="309.200024" y="74.662486" style="fill: #9467bd; stroke: #9467bd"/>
     <use xlink:href="#m6a7358e0f6" x="316.40228" y="90.601836" style="fill: #9467bd; stroke: #9467bd"/>
     <use xlink:href="#m6a7358e0f6" x="323.604536" y="107.022095" style="fill: #9467bd; stroke: #9467bd"/>
     <use xlink:href="#m6a7358e0f6" x="330.806792" y="123.083582" style="fill: #9467bd; stroke: #9467bd"/>
     <use xlink:href="#m6a7358e0f6" x="338.009047" y="137.504516" style="fill: #9467bd; stroke: #9467bd"/>
     <use xlink:href="#m6a7358e0f6" x="345.211303" y="149.110262" style="fill: #9467bd; stroke: #9467bd"/>
     <use xlink:href="#m6a7358e0f6" x="352.413559" y="157.970447" style="fill: #9467bd; stroke: #9467bd"/>
     <use xlink:href="#m6a7358e0f6" x="359.615815" y="165.150154" style="fill: #9467bd; stroke: #9467bd"/>
     <use xlink:href="#m6a7358e0f6" x="366.818071" y="171.545838" style="fill: #9467bd; stroke: #9467bd"/>
     <use xlink:href="#m6a7358e0f6" x="374.020327" y="177.573223" style="fill: #9467bd; stroke: #9467bd"/>
     <use xlink:href="#m6a7358e0f6" x="381.222583" y="183.204966" style="fill: #9467bd; stroke: #9467bd"/>
     <use xlink:href="#m6a7358e0f6" x="388.424839" y="188.236292" style="fill: #9467bd; stroke: #9467bd"/>
     <use xlink:href="#m6a7358e0f6" x="395.627095" y="192.589899" style="fill: #9467bd; stroke: #9467bd"/>
     <use xlink:href="#m6a7358e0f6" x="402.829351" y="196.331277" style="fill: #9467bd; stroke: #9467bd"/>
     <use xlink:href="#m6a7358e0f6" x="410.031607" y="199.569468" style="fill: #9467bd; stroke: #9467bd"/>
     <use xlink:href="#m6a7358e0f6" x="417.233863" y="202.403025" style="fill: #9467bd; stroke: #9467bd"/>
     <use xlink:href="#m6a7358e0f6" x="424.436119" y="204.910361" style="fill: #9467bd; stroke: #9467bd"/>
     <use xlink:href="#m6a7358e0f6" x="431.638375" y="207.14551" style="fill: #9467bd; stroke: #9467bd"/>
     <use xlink:href="#m6a7358e0f6" x="438.840631" y="209.165224" style="fill: #9467bd; stroke: #9467bd"/>
     <use xlink:href="#m6a7358e0f6" x="446.042886" y="210.969024" style="fill: #9467bd; stroke: #9467bd"/>
     <use xlink:href="#m6a7358e0f6" x="453.628391" y="212.654653" style="fill: #9467bd; stroke: #9467bd"/>
     <use xlink:href="#m6a7358e0f6" x="462.471875" y="214.46604" style="fill: #9467bd; stroke: #9467bd"/>
     <use xlink:href="#m6a7358e0f6" x="473.251808" y="216.449605" style="fill: #9467bd; stroke: #9467bd"/>
     <use xlink:href="#m6a7358e0f6" x="486.379684" y="218.539258" style="fill: #9467bd; stroke: #9467bd"/>
     <use xlink:href="#m6a7358e0f6" x="502.34834" y="220.709198" style="fill: #9467bd; stroke: #9467bd"/>
     <use xlink:href="#m6a7358e0f6" x="521.745084" y="222.893775" style="fill: #9467bd; stroke: #9467bd"/>
     <use xlink:href="#m6a7358e0f6" x="545.265473" y="225.034439" style="fill: #9467bd; stroke: #9467bd"/>
     <use xlink:href="#m6a7358e0f6" x="573.726952" y="227.061437" style="fill: #9467bd; stroke: #9467bd"/>
     <use xlink:href="#m6a7358e0f6" x="608.081044" y="228.923208" style="fill: #9467bd; stroke: #9467bd"/>
     <use xlink:href="#m6a7358e0f6" x="649.422169" y="230.576929" style="fill: #9467bd; stroke: #9467bd"/>
     <use xlink:href="#m6a7358e0f6" x="698.990318" y="232.005505" style="fill: #9467bd; stroke: #9467bd"/>
     <use xlink:href="#m6a7358e0f6" x="758.163611" y="233.207471" style="fill: #9467bd; stroke: #9467bd"/>
     <use xlink:href="#m6a7358e0f6" x="828.436267" y="234.199436" style="fill: #9467bd; stroke: #9467bd"/>
     <use xlink:href="#m6a7358e0f6" x="911.376103" y="235.005315" style="fill: #9467bd; stroke: #9467bd"/>
     <use xlink:href="#m6a7358e0f6" x="1008.556179" y="235.652831" style="fill: #9467bd; stroke: #9467bd"/>
     <use xlink:href="#m6a7358e0f6" x="1121.455476" y="236.16759" style="fill: #9467bd; stroke: #9467bd"/>
     <use xlink:href="#m6a7358e0f6" x="1251.326747" y="236.572203" style="fill: #9467bd; stroke: #9467bd"/>
     <use xlink:href="#m6a7358e0f6" x="1399.036001" y="236.885982" style="fill: #9467bd; stroke: #9467bd"/>
    </g>
   </g>
   <g id="line2d_38">
    <path d="M -1 238.143645 
L 3.707024 238.14286 
L 18.615497 238.134709 
L 30.845891 238.117889 
L 41.336521 238.087746 
L 51.297124 238.033705 
L 61.257728 237.936093 
L 71.218331 237.764869 
L 81.178934 237.47325 
L 91.139538 236.991117 
L 101.100141 236.217523 
L 111.060744 235.013236 
L 121.021347 233.194903 
L 130.981951 230.53313 
L 140.942554 226.757264 
L 150.903157 221.569733 
L 160.863761 214.672151 
L 170.824364 205.803799 
L 180.784967 194.790586 
L 190.74557 181.599456 
L 200.706174 166.390023 
L 210.666777 149.552969 
L 220.62738 131.724193 
L 230.587984 113.765767 
L 240.548587 96.709394 
L 250.50919 81.664844 
L 260.469793 69.703359 
L 270.430397 61.732492 
L 280.391 58.382535 
L 290.351603 59.924197 
L 300.312207 66.232478 
L 310.27281 76.803403 
L 320.233413 90.820531 
L 330.194016 107.259037 
L 340.15462 125.008993 
L 350.115223 142.997341 
L 360.075826 160.290323 
L 370.03643 176.163739 
L 379.997033 190.135758 
L 389.957636 201.964257 
L 399.918239 211.616212 
L 409.878843 219.219683 
L 419.839446 225.009327 
L 429.800049 229.27465 
L 439.760653 232.317242 
L 449.721256 234.420037 
L 459.681859 235.828781 
L 469.642462 236.744016 
L 479.603066 237.320853 
L 489.563669 237.67365 
L 499.524272 237.88309 
L 509.484876 238.003802 
L 519.975506 238.073943 
L 531.682 238.113112 
" clip-path="url(#pa9408c3346)" style="fill: none; stroke-dasharray: 7.4,3.2; stroke-dashoffset: 0; stroke: #000000; stroke-width: 2"/>
   </g>
   <g id="patch_3">
    <path d="M 39.8 238.146825 
L 39.8 22.115625 
" style="fill: none; stroke: #000000; stroke-width: 0.8; stroke-linejoin: miter; stroke-linecap: square"/>
   </g>
   <g id="patch_4">
    <path d="M 520.982 238.146825 
L 520.982 22.115625 
" style="fill: none; stroke: #000000; stroke-width: 0.8; stroke-linejoin: miter; stroke-linecap: square"/>
   </g>
   <g id="patch_5">
    <path d="M 39.8 238.146825 
L 520.982 238.146825 
" style="fill: none; stroke: #000000; stroke-width: 0.8; stroke-linejoin: miter; stroke-linecap: square"/>
   </g>
   <g id="patch_6">
    <path d="M 39.8 22.115625 
L 520.982 22.115625 
" style="fill: none; stroke: #000000; stroke-width: 0.8; stroke-linejoin: miter; stroke-linecap: square"/>
   </g>
   <g id="text_19">
    <!-- $\gamma = 40^\circ$, $C_T = 0.8$, T.I.$=4\%$, W.R.$=$True -->
    <g transform="translate(167.771 16.115625)scale(0.12 -0.12)">
     <defs>
      <path id="DejaVuSans-Oblique-3b3" d="M 1491 2950 
L 1838 788 
L 3456 3500 
L 4066 3500 
L 1972 0 
L 1713 -1331 
L 1138 -1331 
L 1397 0 
L 988 2613 
Q 925 3006 628 3006 
L 475 3006 
L 569 3500 
L 788 3500 
Q 1403 3500 1491 2950 
z
" transform="scale(0.015625)"/>
      <path id="DejaVuSans-3d" d="M 678 2906 
L 4684 2906 
L 4684 2381 
L 678 2381 
L 678 2906 
z
M 678 1631 
L 4684 1631 
L 4684 1100 
L 678 1100 
L 678 1631 
z
" transform="scale(0.015625)"/>
      <path id="DejaVuSans-34" d="M 2419 4116 
L 825 1625 
L 2419 1625 
L 2419 4116 
z
M 2253 4666 
L 3047 4666 
L 3047 1625 
L 3713 1625 
L 3713 1100 
L 3047 1100 
L 3047 0 
L 2419 0 
L 2419 1100 
L 313 1100 
L 313 1709 
L 2253 4666 
z
" transform="scale(0.015625)"/>
      <path id="DejaVuSans-30" d="M 2034 4250 
Q 1547 4250 1301 3770 
Q 1056 3291 1056 2328 
Q 1056 1369 1301 889 
Q 1547 409 2034 409 
Q 2525 409 2770 889 
Q 3016 1369 3016 2328 
Q 3016 3291 2770 3770 
Q 2525 4250 2034 4250 
z
M 2034 4750 
Q 2819 4750 3233 4129 
Q 3647 3509 3647 2328 
Q 3647 1150 3233 529 
Q 2819 -91 2034 -91 
Q 1250 -91 836 529 
Q 422 1150 422 2328 
Q 422 3509 836 4129 
Q 1250 4750 2034 4750 
z
" transform="scale(0.015625)"/>
      <path id="DejaVuSans-2218" d="M 2003 2603 
Q 1753 2603 1581 2429 
Q 1409 2256 1409 2006 
Q 1409 1759 1581 1589 
Q 1753 1419 2003 1419 
Q 2253 1419 2425 1589 
Q 2597 1759 2597 2006 
Q 2597 2253 2423 2428 
Q 2250 2603 2003 2603 
z
M 2003 3006 
Q 2203 3006 2387 2929 
Q 2572 2853 2706 2709 
Q 2850 2569 2922 2390 
Q 2994 2212 2994 2006 
Q 2994 1594 2705 1308 
Q 2416 1022 1997 1022 
Q 1575 1022 1294 1303 
Q 1013 1584 1013 2006 
Q 1013 2425 1300 2715 
Q 1588 3006 2003 3006 
z
" transform="scale(0.015625)"/>
      <path id="STIXGeneral-Regular-2c" d="M 531 -902 
L 467 -781 
Q 998 -422 998 -96 
Q 998 -13 909 -13 
Q 883 -13 822 -25 
Q 762 -38 723 -38 
Q 352 -38 352 288 
Q 352 454 457 553 
Q 563 653 736 653 
Q 954 653 1101 496 
Q 1248 339 1248 96 
Q 1248 -198 1053 -473 
Q 858 -749 531 -902 
z
" transform="scale(0.015625)"/>
      <path id="DejaVuSans-Oblique-43" d="M 4447 4306 
L 4319 3641 
Q 4019 3944 3683 4091 
Q 3347 4238 2956 4238 
Q 2422 4238 2017 3981 
Q 1613 3725 1319 3200 
Q 1131 2863 1032 2486 
Q 934 2109 934 1728 
Q 934 1091 1264 756 
Q 1594 422 2222 422 
Q 2656 422 3056 561 
Q 3456 700 3834 978 
L 3688 231 
Q 3316 72 2936 -9 
Q 2556 -91 2175 -91 
Q 1278 -91 773 396 
Q 269 884 269 1753 
Q 269 2309 461 2846 
Q 653 3384 1013 3828 
Q 1394 4300 1883 4525 
Q 2372 4750 3022 4750 
Q 3422 4750 3780 4639 
Q 4138 4528 4447 4306 
z
" transform="scale(0.015625)"/>
      <path id="DejaVuSans-Oblique-54" d="M 378 4666 
L 4325 4666 
L 4225 4134 
L 2559 4134 
L 1759 0 
L 1125 0 
L 1925 4134 
L 275 4134 
L 378 4666 
z
" transform="scale(0.015625)"/>
      <path id="DejaVuSans-2e" d="M 684 794 
L 1344 794 
L 1344 0 
L 684 0 
L 684 794 
z
" transform="scale(0.015625)"/>
      <path id="DejaVuSans-38" d="M 2034 2216 
Q 1584 2216 1326 1975 
Q 1069 1734 1069 1313 
Q 1069 891 1326 650 
Q 1584 409 2034 409 
Q 2484 409 2743 651 
Q 3003 894 3003 1313 
Q 3003 1734 2745 1975 
Q 2488 2216 2034 2216 
z
M 1403 2484 
Q 997 2584 770 2862 
Q 544 3141 544 3541 
Q 544 4100 942 4425 
Q 1341 4750 2034 4750 
Q 2731 4750 3128 4425 
Q 3525 4100 3525 3541 
Q 3525 3141 3298 2862 
Q 3072 2584 2669 2484 
Q 3125 2378 3379 2068 
Q 3634 1759 3634 1313 
Q 3634 634 3220 271 
Q 2806 -91 2034 -91 
Q 1263 -91 848 271 
Q 434 634 434 1313 
Q 434 1759 690 2068 
Q 947 2378 1403 2484 
z
M 1172 3481 
Q 1172 3119 1398 2916 
Q 1625 2713 2034 2713 
Q 2441 2713 2670 2916 
Q 2900 3119 2900 3481 
Q 2900 3844 2670 4047 
Q 2441 4250 2034 4250 
Q 1625 4250 1398 4047 
Q 1172 3844 1172 3481 
z
" transform="scale(0.015625)"/>
      <path id="STIXGeneral-Regular-54" d="M 3795 3149 
L 3642 3149 
Q 3539 3674 3353 3821 
Q 3168 3968 2656 3968 
L 2278 3968 
L 2278 710 
Q 2278 346 2387 243 
Q 2496 141 2893 122 
L 2893 0 
L 1024 0 
L 1024 122 
Q 1427 147 1526 256 
Q 1626 365 1626 787 
L 1626 3968 
L 1242 3968 
Q 723 3968 540 3817 
Q 358 3667 262 3149 
L 109 3149 
L 154 4237 
L 3750 4237 
L 3795 3149 
z
" transform="scale(0.015625)"/>
      <path id="STIXGeneral-Regular-49" d="M 2016 0 
L 115 0 
L 115 122 
Q 518 134 627 240 
Q 736 346 736 717 
L 736 3526 
Q 736 3898 633 3994 
Q 531 4090 115 4115 
L 115 4237 
L 2016 4237 
L 2016 4115 
Q 1613 4096 1501 3993 
Q 1389 3891 1389 3526 
L 1389 717 
Q 1389 358 1504 246 
Q 1619 134 2016 122 
L 2016 0 
z
" transform="scale(0.015625)"/>
      <path id="DejaVuSans-25" d="M 4653 2053 
Q 4381 2053 4226 1822 
Q 4072 1591 4072 1178 
Q 4072 772 4226 539 
Q 4381 306 4653 306 
Q 4919 306 5073 539 
Q 5228 772 5228 1178 
Q 5228 1588 5073 1820 
Q 4919 2053 4653 2053 
z
M 4653 2450 
Q 5147 2450 5437 2106 
Q 5728 1763 5728 1178 
Q 5728 594 5436 251 
Q 5144 -91 4653 -91 
Q 4153 -91 3862 251 
Q 3572 594 3572 1178 
Q 3572 1766 3864 2108 
Q 4156 2450 4653 2450 
z
M 1428 4353 
Q 1159 4353 1004 4120 
Q 850 3888 850 3481 
Q 850 3069 1003 2837 
Q 1156 2606 1428 2606 
Q 1700 2606 1854 2837 
Q 2009 3069 2009 3481 
Q 2009 3884 1853 4118 
Q 1697 4353 1428 4353 
z
M 4250 4750 
L 4750 4750 
L 1831 -91 
L 1331 -91 
L 4250 4750 
z
M 1428 4750 
Q 1922 4750 2215 4408 
Q 2509 4066 2509 3481 
Q 2509 2891 2217 2550 
Q 1925 2209 1428 2209 
Q 931 2209 642 2551 
Q 353 2894 353 3481 
Q 353 4063 643 4406 
Q 934 4750 1428 4750 
z
" transform="scale(0.015625)"/>
      <path id="STIXGeneral-Regular-57" d="M 5965 4237 
L 5965 4115 
Q 5709 4064 5616 3990 
Q 5523 3917 5434 3667 
Q 4704 1709 4128 -70 
L 4032 -70 
Q 3642 1011 3008 2637 
L 2022 -70 
L 1926 -70 
Q 1709 576 1277 1753 
Q 845 2931 698 3347 
Q 538 3808 406 3958 
Q 275 4109 32 4115 
L 32 4237 
L 1594 4237 
L 1594 4115 
Q 1357 4109 1270 4064 
Q 1184 4019 1184 3917 
Q 1184 3808 1254 3616 
L 2176 1210 
L 2842 3021 
L 2662 3501 
Q 2509 3917 2400 4013 
Q 2291 4109 2010 4115 
L 2010 4237 
L 3706 4237 
L 3706 4115 
Q 3213 4102 3213 3891 
Q 3213 3808 3322 3520 
L 4237 1190 
L 5043 3360 
Q 5152 3667 5152 3853 
Q 5152 4109 4704 4115 
L 4704 4237 
L 5965 4237 
z
" transform="scale(0.015625)"/>
      <path id="STIXGeneral-Regular-52" d="M 4224 0 
L 3187 0 
L 1664 1971 
L 1306 1958 
L 1306 717 
Q 1306 352 1405 249 
Q 1504 147 1875 122 
L 1875 0 
L 109 0 
L 109 122 
Q 474 154 563 262 
Q 653 371 653 794 
L 653 3526 
Q 653 3885 563 3987 
Q 474 4090 109 4115 
L 109 4237 
L 1850 4237 
Q 2726 4237 3187 3859 
Q 3501 3603 3501 3091 
Q 3501 2221 2342 2042 
L 3622 422 
Q 3757 256 3878 198 
Q 4000 141 4224 122 
L 4224 0 
z
M 1306 3731 
L 1306 2195 
Q 1766 2202 1990 2246 
Q 2214 2291 2438 2413 
Q 2803 2618 2803 3142 
Q 2803 4000 1632 4000 
Q 1459 4000 1382 3945 
Q 1306 3891 1306 3731 
z
" transform="scale(0.015625)"/>
      <path id="STIXGeneral-Regular-72" d="M 1024 2931 
L 1024 2342 
Q 1267 2688 1430 2816 
Q 1594 2944 1792 2944 
Q 1958 2944 2051 2854 
Q 2144 2765 2144 2605 
Q 2144 2470 2077 2393 
Q 2010 2317 1894 2317 
Q 1773 2317 1638 2445 
Q 1536 2541 1472 2541 
Q 1338 2541 1181 2355 
Q 1024 2170 1024 2016 
L 1024 576 
Q 1024 301 1133 205 
Q 1242 109 1568 96 
L 1568 0 
L 32 0 
L 32 96 
Q 339 154 412 224 
Q 486 294 486 538 
L 486 2138 
Q 486 2349 438 2435 
Q 390 2522 269 2522 
Q 166 2522 45 2496 
L 45 2598 
Q 448 2726 992 2944 
L 1024 2931 
z
" transform="scale(0.015625)"/>
      <path id="STIXGeneral-Regular-75" d="M 3072 320 
L 3072 230 
Q 2573 96 2195 -58 
L 2163 -38 
L 2163 486 
L 2150 486 
Q 1747 -64 1235 -64 
Q 870 -64 662 160 
Q 454 384 454 755 
L 454 2362 
Q 454 2598 371 2688 
Q 288 2778 58 2790 
L 58 2880 
L 992 2880 
L 992 813 
Q 992 595 1123 451 
Q 1254 307 1446 307 
Q 1760 307 1984 506 
Q 2067 582 2099 649 
Q 2131 717 2131 877 
L 2131 2355 
Q 2131 2605 2041 2678 
Q 1952 2752 1658 2771 
L 1658 2880 
L 2669 2880 
L 2669 685 
Q 2669 461 2742 390 
Q 2816 320 3034 320 
L 3072 320 
z
" transform="scale(0.015625)"/>
      <path id="STIXGeneral-Regular-65" d="M 2611 1050 
L 2714 1005 
Q 2330 -64 1376 -64 
Q 813 -64 486 329 
Q 160 723 160 1389 
Q 160 2074 525 2509 
Q 890 2944 1485 2944 
Q 2061 2944 2374 2502 
Q 2560 2246 2592 1773 
L 621 1773 
Q 646 1370 700 1158 
Q 755 947 915 730 
Q 1184 378 1626 378 
Q 1939 378 2153 531 
Q 2368 685 2611 1050 
z
M 634 1978 
L 1939 1978 
Q 1882 2381 1750 2547 
Q 1619 2714 1312 2714 
Q 1043 2714 864 2525 
Q 685 2336 634 1978 
z
" transform="scale(0.015625)"/>
     </defs>
     <use xlink:href="#DejaVuSans-Oblique-3b3" transform="translate(0 0.78125)"/>
     <use xlink:href="#DejaVuSans-3d" transform="translate(78.662109 0.78125)"/>
     <use xlink:href="#DejaVuSans-34" transform="translate(181.933594 0.78125)"/>
     <use xlink:href="#DejaVuSans-30" transform="translate(245.556641 0.78125)"/>
     <use xlink:href="#DejaVuSans-2218" transform="translate(323.774414 39.0625)scale(0.7)"/>
     <use xlink:href="#STIXGeneral-Regular-2c" transform="translate(383.964844 0.78125)"/>
     <use xlink:href="#STIXGeneral-Regular-20" transform="translate(408.964828 0.78125)"/>
     <use xlink:href="#DejaVuSans-Oblique-43" transform="translate(433.964813 0.78125)"/>
     <use xlink:href="#DejaVuSans-Oblique-54" transform="translate(503.789032 -15.625)scale(0.7)"/>
     <use xlink:href="#DejaVuSans-3d" transform="translate(568.764618 0.78125)"/>
     <use xlink:href="#DejaVuSans-30" transform="translate(672.036102 0.78125)"/>
     <use xlink:href="#DejaVuSans-2e" transform="translate(735.659149 0.78125)"/>
     <use xlink:href="#DejaVuSans-38" transform="translate(764.821259 0.78125)"/>
     <use xlink:href="#STIXGeneral-Regular-2c" transform="translate(828.444305 0.78125)"/>
     <use xlink:href="#STIXGeneral-Regular-20" transform="translate(853.44429 0.78125)"/>
     <use xlink:href="#STIXGeneral-Regular-54" transform="translate(878.444275 0.78125)"/>
     <use xlink:href="#STIXGeneral-Regular-2e" transform="translate(939.544266 0.78125)"/>
     <use xlink:href="#STIXGeneral-Regular-49" transform="translate(964.54425 0.78125)"/>
     <use xlink:href="#STIXGeneral-Regular-2e" transform="translate(997.844238 0.78125)"/>
     <use xlink:href="#DejaVuSans-3d" transform="translate(1042.326645 0.78125)"/>
     <use xlink:href="#DejaVuSans-34" transform="translate(1145.598129 0.78125)"/>
     <use xlink:href="#DejaVuSans-25" transform="translate(1209.221176 0.78125)"/>
     <use xlink:href="#STIXGeneral-Regular-2c" transform="translate(1304.240707 0.78125)"/>
     <use xlink:href="#STIXGeneral-Regular-20" transform="translate(1329.240692 0.78125)"/>
     <use xlink:href="#STIXGeneral-Regular-57" transform="translate(1354.240677 0.78125)"/>
     <use xlink:href="#STIXGeneral-Regular-2e" transform="translate(1448.640671 0.78125)"/>
     <use xlink:href="#STIXGeneral-Regular-52" transform="translate(1473.640656 0.78125)"/>
     <use xlink:href="#STIXGeneral-Regular-2e" transform="translate(1540.340652 0.78125)"/>
     <use xlink:href="#DejaVuSans-3d" transform="translate(1584.823059 0.78125)"/>
     <use xlink:href="#STIXGeneral-Regular-54" transform="translate(1688.094543 0.78125)"/>
     <use xlink:href="#STIXGeneral-Regular-72" transform="translate(1749.194534 0.78125)"/>
     <use xlink:href="#STIXGeneral-Regular-75" transform="translate(1782.494522 0.78125)"/>
     <use xlink:href="#STIXGeneral-Regular-65" transform="translate(1832.494507 0.78125)"/>
    </g>
   </g>
   <g id="legend_1">
    <g id="patch_7">
     <path d="M 439.982 115.1375 
L 513.982 115.1375 
Q 515.982 115.1375 515.982 113.1375 
L 515.982 29.115625 
Q 515.982 27.115625 513.982 27.115625 
L 439.982 27.115625 
Q 437.982 27.115625 437.982 29.115625 
L 437.982 113.1375 
Q 437.982 115.1375 439.982 115.1375 
z
" style="fill: #ffffff; opacity: 0.8; stroke: #cccccc; stroke-linejoin: miter"/>
    </g>
    <g id="line2d_39">
     <g>
      <use xlink:href="#m846da35795" x="451.982" y="34.615625" style="fill: #1f77b4; stroke: #1f77b4"/>
     </g>
    </g>
    <g id="text_20">
     <!-- $x/D = 5$ -->
     <g transform="translate(469.982 38.115625)scale(0.1 -0.1)">
      <defs>
       <path id="DejaVuSans-Oblique-78" d="M 3841 3500 
L 2234 1784 
L 3219 0 
L 2559 0 
L 1819 1388 
L 531 0 
L -166 0 
L 1556 1844 
L 641 3500 
L 1300 3500 
L 1972 2234 
L 3144 3500 
L 3841 3500 
z
" transform="scale(0.015625)"/>
       <path id="DejaVuSans-Oblique-44" d="M 1081 4666 
L 2438 4666 
Q 3519 4666 4070 4208 
Q 4622 3750 4622 2847 
Q 4622 2250 4412 1698 
Q 4203 1147 3834 769 
Q 3463 381 2891 190 
Q 2319 0 1538 0 
L 172 0 
L 1081 4666 
z
M 1613 4147 
L 909 519 
L 1734 519 
Q 2794 519 3375 1128 
Q 3956 1738 3956 2847 
Q 3956 3519 3581 3833 
Q 3206 4147 2406 4147 
L 1613 4147 
z
" transform="scale(0.015625)"/>
       <path id="DejaVuSans-35" d="M 691 4666 
L 3169 4666 
L 3169 4134 
L 1269 4134 
L 1269 2991 
Q 1406 3038 1543 3061 
Q 1681 3084 1819 3084 
Q 2600 3084 3056 2656 
Q 3513 2228 3513 1497 
Q 3513 744 3044 326 
Q 2575 -91 1722 -91 
Q 1428 -91 1123 -41 
Q 819 9 494 109 
L 494 744 
Q 775 591 1075 516 
Q 1375 441 1709 441 
Q 2250 441 2565 725 
Q 2881 1009 2881 1497 
Q 2881 1984 2565 2268 
Q 2250 2553 1709 2553 
Q 1456 2553 1204 2497 
Q 953 2441 691 2322 
L 691 4666 
z
" transform="scale(0.015625)"/>
      </defs>
      <use xlink:href="#DejaVuSans-Oblique-78" transform="translate(0 0.09375)"/>
      <use xlink:href="#DejaVuSans-2f" transform="translate(59.179688 0.09375)"/>
      <use xlink:href="#DejaVuSans-Oblique-44" transform="translate(92.871094 0.09375)"/>
      <use xlink:href="#DejaVuSans-3d" transform="translate(189.355469 0.09375)"/>
      <use xlink:href="#DejaVuSans-35" transform="translate(292.626953 0.09375)"/>
     </g>
    </g>
    <g id="line2d_40">
     <g>
      <use xlink:href="#m3fb2b0f660" x="451.982" y="48.785938" style="fill: #ff7f0e; stroke: #ff7f0e"/>
     </g>
    </g>
    <g id="text_21">
     <!-- $x/D = 7$ -->
     <g transform="translate(469.982 52.285938)scale(0.1 -0.1)">
      <defs>
       <path id="DejaVuSans-37" d="M 525 4666 
L 3525 4666 
L 3525 4397 
L 1831 0 
L 1172 0 
L 2766 4134 
L 525 4134 
L 525 4666 
z
" transform="scale(0.015625)"/>
      </defs>
      <use xlink:href="#DejaVuSans-Oblique-78" transform="translate(0 0.09375)"/>
      <use xlink:href="#DejaVuSans-2f" transform="translate(59.179688 0.09375)"/>
      <use xlink:href="#DejaVuSans-Oblique-44" transform="translate(92.871094 0.09375)"/>
      <use xlink:href="#DejaVuSans-3d" transform="translate(189.355469 0.09375)"/>
      <use xlink:href="#DejaVuSans-37" transform="translate(292.626953 0.09375)"/>
     </g>
    </g>
    <g id="line2d_41">
     <g>
      <use xlink:href="#m16e012ff60" x="451.982" y="62.95625" style="fill: #2ca02c; stroke: #2ca02c"/>
     </g>
    </g>
    <g id="text_22">
     <!-- $x/D = 9$ -->
     <g transform="translate(469.982 66.45625)scale(0.1 -0.1)">
      <defs>
       <path id="DejaVuSans-39" d="M 703 97 
L 703 672 
Q 941 559 1184 500 
Q 1428 441 1663 441 
Q 2288 441 2617 861 
Q 2947 1281 2994 2138 
Q 2813 1869 2534 1725 
Q 2256 1581 1919 1581 
Q 1219 1581 811 2004 
Q 403 2428 403 3163 
Q 403 3881 828 4315 
Q 1253 4750 1959 4750 
Q 2769 4750 3195 4129 
Q 3622 3509 3622 2328 
Q 3622 1225 3098 567 
Q 2575 -91 1691 -91 
Q 1453 -91 1209 -44 
Q 966 3 703 97 
z
M 1959 2075 
Q 2384 2075 2632 2365 
Q 2881 2656 2881 3163 
Q 2881 3666 2632 3958 
Q 2384 4250 1959 4250 
Q 1534 4250 1286 3958 
Q 1038 3666 1038 3163 
Q 1038 2656 1286 2365 
Q 1534 2075 1959 2075 
z
" transform="scale(0.015625)"/>
      </defs>
      <use xlink:href="#DejaVuSans-Oblique-78" transform="translate(0 0.78125)"/>
      <use xlink:href="#DejaVuSans-2f" transform="translate(59.179688 0.78125)"/>
      <use xlink:href="#DejaVuSans-Oblique-44" transform="translate(92.871094 0.78125)"/>
      <use xlink:href="#DejaVuSans-3d" transform="translate(189.355469 0.78125)"/>
      <use xlink:href="#DejaVuSans-39" transform="translate(292.626953 0.78125)"/>
     </g>
    </g>
    <g id="line2d_42">
     <g>
      <use xlink:href="#m63a5a5be1e" x="451.982" y="77.126563" style="fill: #d62728; stroke: #d62728"/>
     </g>
    </g>
    <g id="text_23">
     <!-- $x/D = 11$ -->
     <g transform="translate(469.982 80.626563)scale(0.1 -0.1)">
      <defs>
       <path id="DejaVuSans-31" d="M 794 531 
L 1825 531 
L 1825 4091 
L 703 3866 
L 703 4441 
L 1819 4666 
L 2450 4666 
L 2450 531 
L 3481 531 
L 3481 0 
L 794 0 
L 794 531 
z
" transform="scale(0.015625)"/>
      </defs>
      <use xlink:href="#DejaVuSans-Oblique-78" transform="translate(0 0.09375)"/>
      <use xlink:href="#DejaVuSans-2f" transform="translate(59.179688 0.09375)"/>
      <use xlink:href="#DejaVuSans-Oblique-44" transform="translate(92.871094 0.09375)"/>
      <use xlink:href="#DejaVuSans-3d" transform="translate(189.355469 0.09375)"/>
      <use xlink:href="#DejaVuSans-31" transform="translate(292.626953 0.09375)"/>
      <use xlink:href="#DejaVuSans-31" transform="translate(356.25 0.09375)"/>
     </g>
    </g>
    <g id="line2d_43">
     <g>
      <use xlink:href="#m6a7358e0f6" x="451.982" y="91.296875" style="fill: #9467bd; stroke: #9467bd"/>
     </g>
    </g>
    <g id="text_24">
     <!-- $x/D = 13$ -->
     <g transform="translate(469.982 94.796875)scale(0.1 -0.1)">
      <defs>
       <path id="DejaVuSans-33" d="M 2597 2516 
Q 3050 2419 3304 2112 
Q 3559 1806 3559 1356 
Q 3559 666 3084 287 
Q 2609 -91 1734 -91 
Q 1441 -91 1130 -33 
Q 819 25 488 141 
L 488 750 
Q 750 597 1062 519 
Q 1375 441 1716 441 
Q 2309 441 2620 675 
Q 2931 909 2931 1356 
Q 2931 1769 2642 2001 
Q 2353 2234 1838 2234 
L 1294 2234 
L 1294 2753 
L 1863 2753 
Q 2328 2753 2575 2939 
Q 2822 3125 2822 3475 
Q 2822 3834 2567 4026 
Q 2313 4219 1838 4219 
Q 1578 4219 1281 4162 
Q 984 4106 628 3988 
L 628 4550 
Q 988 4650 1302 4700 
Q 1616 4750 1894 4750 
Q 2613 4750 3031 4423 
Q 3450 4097 3450 3541 
Q 3450 3153 3228 2886 
Q 3006 2619 2597 2516 
z
" transform="scale(0.015625)"/>
      </defs>
      <use xlink:href="#DejaVuSans-Oblique-78" transform="translate(0 0.78125)"/>
      <use xlink:href="#DejaVuSans-2f" transform="translate(59.179688 0.78125)"/>
      <use xlink:href="#DejaVuSans-Oblique-44" transform="translate(92.871094 0.78125)"/>
      <use xlink:href="#DejaVuSans-3d" transform="translate(189.355469 0.78125)"/>
      <use xlink:href="#DejaVuSans-31" transform="translate(292.626953 0.78125)"/>
      <use xlink:href="#DejaVuSans-33" transform="translate(356.25 0.78125)"/>
     </g>
    </g>
    <g id="line2d_44">
     <path d="M 441.982 105.467188 
L 451.982 105.467188 
L 461.982 105.467188 
" style="fill: none; stroke-dasharray: 7.4,3.2; stroke-dashoffset: 0; stroke: #000000; stroke-width: 2"/>
    </g>
    <g id="text_25">
     <!-- Gaussian -->
     <g transform="translate(469.982 108.967188)scale(0.1 -0.1)">
      <defs>
       <path id="STIXGeneral-Regular-47" d="M 4538 2266 
L 4538 2150 
Q 4256 2125 4173 2035 
Q 4090 1946 4090 1638 
L 4090 358 
Q 3539 -90 2464 -90 
Q 1965 -90 1507 89 
Q 1050 269 736 595 
Q 205 1152 205 2093 
Q 205 3155 890 3776 
Q 1491 4326 2419 4326 
Q 2829 4326 3270 4179 
Q 3443 4115 3552 4115 
Q 3654 4115 3731 4176 
Q 3808 4237 3840 4326 
L 3981 4326 
L 4032 2976 
L 3885 2976 
Q 3680 3475 3430 3718 
Q 3059 4070 2496 4070 
Q 1856 4070 1427 3629 
Q 934 3136 934 2074 
Q 934 1190 1395 678 
Q 1856 166 2618 166 
Q 2982 166 3225 281 
Q 3469 397 3469 557 
L 3469 1562 
Q 3469 1933 3376 2025 
Q 3283 2118 2899 2150 
L 2899 2266 
L 4538 2266 
z
" transform="scale(0.015625)"/>
       <path id="STIXGeneral-Regular-61" d="M 2829 422 
L 2829 243 
Q 2586 -64 2253 -64 
Q 1888 -64 1843 403 
L 1837 403 
Q 1427 -64 909 -64 
Q 608 -64 422 112 
Q 237 288 237 602 
Q 237 1050 685 1350 
Q 992 1555 1837 1869 
L 1837 2214 
Q 1837 2502 1699 2646 
Q 1562 2790 1338 2790 
Q 1146 2790 1018 2697 
Q 890 2605 890 2477 
Q 890 2419 909 2348 
Q 928 2278 928 2208 
Q 928 2112 841 2029 
Q 755 1946 634 1946 
Q 525 1946 441 2029 
Q 358 2112 358 2240 
Q 358 2547 685 2752 
Q 986 2944 1421 2944 
Q 1939 2944 2176 2656 
Q 2291 2522 2323 2384 
Q 2355 2246 2355 1946 
L 2355 723 
Q 2355 301 2554 301 
Q 2682 301 2829 422 
z
M 1837 813 
L 1837 1715 
Q 1248 1510 1018 1293 
Q 800 1094 800 800 
Q 800 557 921 432 
Q 1043 307 1242 307 
Q 1453 307 1613 410 
Q 1747 506 1792 589 
Q 1837 672 1837 813 
z
" transform="scale(0.015625)"/>
       <path id="STIXGeneral-Regular-73" d="M 998 1926 
L 1664 1523 
Q 1984 1331 2105 1164 
Q 2227 998 2227 736 
Q 2227 416 1961 176 
Q 1696 -64 1331 -64 
Q 1030 -64 864 -6 
Q 691 51 570 51 
Q 461 51 416 -26 
L 333 -26 
L 333 979 
L 435 979 
Q 538 512 730 294 
Q 922 77 1248 77 
Q 1485 77 1632 211 
Q 1779 346 1779 550 
Q 1779 845 1440 1030 
L 1094 1222 
Q 326 1651 326 2150 
Q 326 2522 566 2730 
Q 806 2938 1210 2938 
Q 1491 2938 1638 2867 
Q 1754 2816 1818 2816 
Q 1862 2816 1920 2880 
L 1990 2880 
L 2022 2010 
L 1926 2010 
Q 1818 2445 1654 2621 
Q 1491 2797 1203 2797 
Q 986 2797 854 2688 
Q 723 2579 723 2362 
Q 723 2253 796 2128 
Q 870 2003 998 1926 
z
" transform="scale(0.015625)"/>
       <path id="STIXGeneral-Regular-69" d="M 1152 4045 
Q 1152 3904 1056 3811 
Q 960 3718 819 3718 
Q 685 3718 592 3811 
Q 499 3904 499 4045 
Q 499 4179 595 4275 
Q 691 4371 826 4371 
Q 966 4371 1059 4275 
Q 1152 4179 1152 4045 
z
M 1619 0 
L 102 0 
L 102 96 
Q 435 115 521 211 
Q 608 307 608 666 
L 608 2118 
Q 608 2342 563 2432 
Q 518 2522 397 2522 
Q 243 2522 128 2490 
L 128 2592 
L 1120 2944 
L 1146 2918 
L 1146 672 
Q 1146 314 1226 218 
Q 1306 122 1619 96 
L 1619 0 
z
" transform="scale(0.015625)"/>
       <path id="STIXGeneral-Regular-6e" d="M 3104 0 
L 1773 0 
L 1779 96 
Q 2016 115 2096 233 
Q 2176 352 2176 672 
L 2176 1946 
Q 2176 2592 1709 2592 
Q 1549 2592 1408 2515 
Q 1267 2438 1050 2227 
L 1050 461 
Q 1050 269 1136 192 
Q 1222 115 1466 96 
L 1466 0 
L 115 0 
L 115 96 
Q 358 115 435 214 
Q 512 314 512 602 
L 512 2157 
Q 512 2394 467 2483 
Q 422 2573 288 2573 
Q 160 2573 102 2547 
L 102 2656 
Q 550 2784 979 2944 
L 1030 2925 
L 1030 2426 
L 1037 2426 
Q 1491 2944 1958 2944 
Q 2323 2944 2518 2688 
Q 2714 2432 2714 1958 
L 2714 544 
Q 2714 288 2790 205 
Q 2867 122 3104 96 
L 3104 0 
z
" transform="scale(0.015625)"/>
      </defs>
      <use xlink:href="#STIXGeneral-Regular-47"/>
      <use xlink:href="#STIXGeneral-Regular-61" x="72.199982"/>
      <use xlink:href="#STIXGeneral-Regular-75" x="116.599976"/>
      <use xlink:href="#STIXGeneral-Regular-73" x="166.59996"/>
      <use xlink:href="#STIXGeneral-Regular-73" x="205.499954"/>
      <use xlink:href="#STIXGeneral-Regular-69" x="244.399948"/>
      <use xlink:href="#STIXGeneral-Regular-61" x="272.199936"/>
      <use xlink:href="#STIXGeneral-Regular-6e" x="316.59993"/>
     </g>
    </g>
   </g>
  </g>
 </g>
 <defs>
  <clipPath id="pa9408c3346">
   <rect x="39.8" y="22.115625" width="481.182" height="216.0312"/>
  </clipPath>
 </defs>
</svg>
