<?xml version="1.0" encoding="utf-8" standalone="no"?>
<!DOCTYPE svg PUBLIC "-//W3C//DTD SVG 1.1//EN"
  "http://www.w3.org/Graphics/SVG/1.1/DTD/svg11.dtd">
<svg xmlns:xlink="http://www.w3.org/1999/xlink" width="527.832pt" height="274.346825pt" viewBox="0 0 527.832 274.346825" xmlns="http://www.w3.org/2000/svg" version="1.1">
 <metadata>
  <rdf:RDF xmlns:dc="http://purl.org/dc/elements/1.1/" xmlns:cc="http://creativecommons.org/ns#" xmlns:rdf="http://www.w3.org/1999/02/22-rdf-syntax-ns#">
   <cc:Work>
    <dc:type rdf:resource="http://purl.org/dc/dcmitype/StillImage"/>
    <dc:date>2022-04-18T13:12:52.177398</dc:date>
    <dc:format>image/svg+xml</dc:format>
    <dc:creator>
     <cc:Agent>
      <dc:title>Matplotlib v3.5.1, https://matplotlib.org/</dc:title>
     </cc:Agent>
    </dc:creator>
   </cc:Work>
  </rdf:RDF>
 </metadata>
 <defs>
  <style type="text/css">*{stroke-linejoin: round; stroke-linecap: butt}</style>
 </defs>
 <g id="figure_1">
  <g id="patch_1">
   <path d="M 0 274.346825 
L 527.832 274.346825 
L 527.832 0 
L 0 0 
z
" style="fill: #ffffff"/>
  </g>
  <g id="axes_1">
   <g id="patch_2">
    <path d="M 39.45 238.146825 
L 520.632 238.146825 
L 520.632 22.115625 
L 39.45 22.115625 
z
" style="fill: #ffffff"/>
   </g>
   <g id="matplotlib.axis_1">
    <g id="xtick_1">
     <g id="line2d_1">
      <path d="M 55.4894 238.146825 
L 55.4894 22.115625 
" clip-path="url(#p86af42df95)" style="fill: none; stroke-dasharray: 0.8,1.32; stroke-dashoffset: 0; stroke: #b0b0b0; stroke-width: 0.8"/>
     </g>
     <g id="line2d_2">
      <defs>
       <path id="mbacaea5a9c" d="M 0 0 
L 0 3.5 
" style="stroke: #000000; stroke-width: 0.8"/>
      </defs>
      <g>
       <use xlink:href="#mbacaea5a9c" x="55.4894" y="238.146825" style="stroke: #000000; stroke-width: 0.8"/>
      </g>
     </g>
     <g id="text_1">
      <!-- 0 -->
      <g transform="translate(52.9894 251.976512)scale(0.1 -0.1)">
       <defs>
        <path id="STIXGeneral-Regular-30" d="M 3046 2112 
Q 3046 1683 2963 1302 
Q 2880 922 2717 602 
Q 2554 282 2266 96 
Q 1978 -90 1600 -90 
Q 1210 -90 915 108 
Q 621 307 461 640 
Q 301 973 227 1350 
Q 154 1728 154 2150 
Q 154 2746 301 3222 
Q 448 3699 790 4012 
Q 1133 4326 1626 4326 
Q 2253 4326 2649 3712 
Q 3046 3098 3046 2112 
z
M 2432 2080 
Q 2432 3091 2217 3625 
Q 2003 4160 1587 4160 
Q 1190 4160 979 3622 
Q 768 3085 768 2106 
Q 768 1120 979 598 
Q 1190 77 1600 77 
Q 2003 77 2217 598 
Q 2432 1120 2432 2080 
z
" transform="scale(0.015625)"/>
       </defs>
       <use xlink:href="#STIXGeneral-Regular-30"/>
      </g>
     </g>
    </g>
    <g id="xtick_2">
     <g id="line2d_3">
      <path d="M 135.6864 238.146825 
L 135.6864 22.115625 
" clip-path="url(#p86af42df95)" style="fill: none; stroke-dasharray: 0.8,1.32; stroke-dashoffset: 0; stroke: #b0b0b0; stroke-width: 0.8"/>
     </g>
     <g id="line2d_4">
      <g>
       <use xlink:href="#mbacaea5a9c" x="135.6864" y="238.146825" style="stroke: #000000; stroke-width: 0.8"/>
      </g>
     </g>
     <g id="text_2">
      <!-- 5 -->
      <g transform="translate(133.1864 251.976512)scale(0.1 -0.1)">
       <defs>
        <path id="STIXGeneral-Regular-35" d="M 2803 4358 
L 2573 3814 
Q 2534 3731 2400 3731 
L 1158 3731 
L 902 3187 
Q 1606 3053 1920 2896 
Q 2234 2739 2502 2368 
Q 2726 2061 2726 1555 
Q 2726 1094 2576 780 
Q 2426 467 2099 224 
Q 1664 -90 1011 -90 
Q 646 -90 422 19 
Q 198 128 198 307 
Q 198 550 486 550 
Q 717 550 960 352 
Q 1210 147 1414 147 
Q 1747 147 2012 480 
Q 2278 813 2278 1229 
Q 2278 1843 1850 2189 
Q 1293 2637 486 2637 
Q 410 2637 410 2688 
L 416 2720 
L 1114 4237 
L 2438 4237 
Q 2547 4237 2608 4269 
Q 2669 4301 2746 4403 
L 2803 4358 
z
" transform="scale(0.015625)"/>
       </defs>
       <use xlink:href="#STIXGeneral-Regular-35"/>
      </g>
     </g>
    </g>
    <g id="xtick_3">
     <g id="line2d_5">
      <path d="M 215.8834 238.146825 
L 215.8834 22.115625 
" clip-path="url(#p86af42df95)" style="fill: none; stroke-dasharray: 0.8,1.32; stroke-dashoffset: 0; stroke: #b0b0b0; stroke-width: 0.8"/>
     </g>
     <g id="line2d_6">
      <g>
       <use xlink:href="#mbacaea5a9c" x="215.8834" y="238.146825" style="stroke: #000000; stroke-width: 0.8"/>
      </g>
     </g>
     <g id="text_3">
      <!-- 10 -->
      <g transform="translate(210.8834 251.976512)scale(0.1 -0.1)">
       <defs>
        <path id="STIXGeneral-Regular-31" d="M 2522 0 
L 755 0 
L 755 96 
Q 1107 115 1235 227 
Q 1363 339 1363 608 
L 1363 3482 
Q 1363 3795 1171 3795 
Q 1082 3795 883 3718 
L 710 3654 
L 710 3744 
L 1856 4326 
L 1914 4307 
L 1914 486 
Q 1914 275 2042 185 
Q 2170 96 2522 96 
L 2522 0 
z
" transform="scale(0.015625)"/>
       </defs>
       <use xlink:href="#STIXGeneral-Regular-31"/>
       <use xlink:href="#STIXGeneral-Regular-30" x="49.999985"/>
      </g>
     </g>
    </g>
    <g id="xtick_4">
     <g id="line2d_7">
      <path d="M 296.0804 238.146825 
L 296.0804 22.115625 
" clip-path="url(#p86af42df95)" style="fill: none; stroke-dasharray: 0.8,1.32; stroke-dashoffset: 0; stroke: #b0b0b0; stroke-width: 0.8"/>
     </g>
     <g id="line2d_8">
      <g>
       <use xlink:href="#mbacaea5a9c" x="296.0804" y="238.146825" style="stroke: #000000; stroke-width: 0.8"/>
      </g>
     </g>
     <g id="text_4">
      <!-- 15 -->
      <g transform="translate(291.0804 251.976512)scale(0.1 -0.1)">
       <use xlink:href="#STIXGeneral-Regular-31"/>
       <use xlink:href="#STIXGeneral-Regular-35" x="49.999985"/>
      </g>
     </g>
    </g>
    <g id="xtick_5">
     <g id="line2d_9">
      <path d="M 376.2774 238.146825 
L 376.2774 22.115625 
" clip-path="url(#p86af42df95)" style="fill: none; stroke-dasharray: 0.8,1.32; stroke-dashoffset: 0; stroke: #b0b0b0; stroke-width: 0.8"/>
     </g>
     <g id="line2d_10">
      <g>
       <use xlink:href="#mbacaea5a9c" x="376.2774" y="238.146825" style="stroke: #000000; stroke-width: 0.8"/>
      </g>
     </g>
     <g id="text_5">
      <!-- 20 -->
      <g transform="translate(371.2774 251.976512)scale(0.1 -0.1)">
       <defs>
        <path id="STIXGeneral-Regular-32" d="M 3034 877 
L 2688 0 
L 186 0 
L 186 77 
L 1325 1286 
Q 1773 1754 1965 2144 
Q 2157 2534 2157 2950 
Q 2157 3379 1920 3616 
Q 1683 3853 1267 3853 
Q 922 3853 720 3673 
Q 518 3494 326 3021 
L 192 3053 
Q 301 3648 630 3987 
Q 960 4326 1523 4326 
Q 2054 4326 2380 4006 
Q 2707 3686 2707 3200 
Q 2707 2477 1888 1613 
L 832 486 
L 2330 486 
Q 2541 486 2665 569 
Q 2790 653 2944 915 
L 3034 877 
z
" transform="scale(0.015625)"/>
       </defs>
       <use xlink:href="#STIXGeneral-Regular-32"/>
       <use xlink:href="#STIXGeneral-Regular-30" x="49.999985"/>
      </g>
     </g>
    </g>
    <g id="xtick_6">
     <g id="line2d_11">
      <path d="M 456.4744 238.146825 
L 456.4744 22.115625 
" clip-path="url(#p86af42df95)" style="fill: none; stroke-dasharray: 0.8,1.32; stroke-dashoffset: 0; stroke: #b0b0b0; stroke-width: 0.8"/>
     </g>
     <g id="line2d_12">
      <g>
       <use xlink:href="#mbacaea5a9c" x="456.4744" y="238.146825" style="stroke: #000000; stroke-width: 0.8"/>
      </g>
     </g>
     <g id="text_6">
      <!-- 25 -->
      <g transform="translate(451.4744 251.976512)scale(0.1 -0.1)">
       <use xlink:href="#STIXGeneral-Regular-32"/>
       <use xlink:href="#STIXGeneral-Regular-35" x="49.999985"/>
      </g>
     </g>
    </g>
    <g id="text_7">
     <!-- $x/D$ [-] -->
     <g transform="translate(265.291 264.976512)scale(0.1 -0.1)">
      <defs>
       <path id="DejaVuSans-Oblique-78" d="M 3841 3500 
L 2234 1784 
L 3219 0 
L 2559 0 
L 1819 1388 
L 531 0 
L -166 0 
L 1556 1844 
L 641 3500 
L 1300 3500 
L 1972 2234 
L 3144 3500 
L 3841 3500 
z
" transform="scale(0.015625)"/>
       <path id="DejaVuSans-2f" d="M 1625 4666 
L 2156 4666 
L 531 -594 
L 0 -594 
L 1625 4666 
z
" transform="scale(0.015625)"/>
       <path id="DejaVuSans-Oblique-44" d="M 1081 4666 
L 2438 4666 
Q 3519 4666 4070 4208 
Q 4622 3750 4622 2847 
Q 4622 2250 4412 1698 
Q 4203 1147 3834 769 
Q 3463 381 2891 190 
Q 2319 0 1538 0 
L 172 0 
L 1081 4666 
z
M 1613 4147 
L 909 519 
L 1734 519 
Q 2794 519 3375 1128 
Q 3956 1738 3956 2847 
Q 3956 3519 3581 3833 
Q 3206 4147 2406 4147 
L 1613 4147 
z
" transform="scale(0.015625)"/>
       <path id="STIXGeneral-Regular-20" transform="scale(0.015625)"/>
       <path id="STIXGeneral-Regular-5b" d="M 1914 -998 
L 563 -998 
L 563 4237 
L 1914 4237 
L 1914 4077 
L 1382 4077 
Q 1216 4077 1133 4006 
Q 1050 3936 1050 3770 
L 1050 -493 
Q 1050 -838 1382 -838 
L 1914 -838 
L 1914 -998 
z
" transform="scale(0.015625)"/>
       <path id="STIXGeneral-Regular-2d" d="M 1824 1242 
L 250 1242 
L 250 1645 
L 1824 1645 
L 1824 1242 
z
" transform="scale(0.015625)"/>
       <path id="STIXGeneral-Regular-5d" d="M 1568 -998 
L 218 -998 
L 218 -838 
L 781 -838 
Q 947 -838 1014 -768 
Q 1082 -698 1082 -544 
L 1082 3731 
Q 1082 4077 755 4077 
L 218 4077 
L 218 4237 
L 1568 4237 
L 1568 -998 
z
" transform="scale(0.015625)"/>
      </defs>
      <use xlink:href="#DejaVuSans-Oblique-78" transform="translate(0 0.09375)"/>
      <use xlink:href="#DejaVuSans-2f" transform="translate(59.179688 0.09375)"/>
      <use xlink:href="#DejaVuSans-Oblique-44" transform="translate(92.871094 0.09375)"/>
      <use xlink:href="#STIXGeneral-Regular-20" transform="translate(169.873047 0.09375)"/>
      <use xlink:href="#STIXGeneral-Regular-5b" transform="translate(194.873032 0.09375)"/>
      <use xlink:href="#STIXGeneral-Regular-2d" transform="translate(228.173019 0.09375)"/>
      <use xlink:href="#STIXGeneral-Regular-5d" transform="translate(261.473007 0.09375)"/>
     </g>
    </g>
   </g>
   <g id="matplotlib.axis_2">
    <g id="ytick_1">
     <g id="line2d_13">
      <path d="M 39.45 238.146825 
L 520.632 238.146825 
" clip-path="url(#p86af42df95)" style="fill: none; stroke-dasharray: 0.8,1.32; stroke-dashoffset: 0; stroke: #b0b0b0; stroke-width: 0.8"/>
     </g>
     <g id="line2d_14">
      <defs>
       <path id="m4a54f707bb" d="M 0 0 
L -3.5 0 
" style="stroke: #000000; stroke-width: 0.8"/>
      </defs>
      <g>
       <use xlink:href="#m4a54f707bb" x="39.45" y="238.146825" style="stroke: #000000; stroke-width: 0.8"/>
      </g>
     </g>
     <g id="text_8">
      <!-- −3 -->
      <g transform="translate(20.6 241.561669)scale(0.1 -0.1)">
       <defs>
        <path id="STIXGeneral-Regular-2212" d="M 3974 1408 
L 410 1408 
L 410 1830 
L 3974 1830 
L 3974 1408 
z
" transform="scale(0.015625)"/>
        <path id="STIXGeneral-Regular-33" d="M 390 3264 
L 288 3290 
Q 435 3770 748 4048 
Q 1062 4326 1542 4326 
Q 1990 4326 2265 4083 
Q 2541 3840 2541 3450 
Q 2541 2925 1946 2566 
Q 2298 2413 2477 2227 
Q 2758 1914 2758 1402 
Q 2758 890 2464 506 
Q 2246 211 1840 60 
Q 1434 -90 979 -90 
Q 262 -90 262 275 
Q 262 378 339 442 
Q 416 506 525 506 
Q 685 506 915 339 
Q 1197 141 1466 141 
Q 1818 141 2058 425 
Q 2298 710 2298 1120 
Q 2298 1856 1632 2048 
Q 1434 2112 979 2112 
L 979 2202 
Q 1338 2323 1517 2432 
Q 2035 2726 2035 3290 
Q 2035 3610 1852 3776 
Q 1670 3942 1344 3942 
Q 768 3942 390 3264 
z
" transform="scale(0.015625)"/>
       </defs>
       <use xlink:href="#STIXGeneral-Regular-2212"/>
       <use xlink:href="#STIXGeneral-Regular-33" x="68.499985"/>
      </g>
     </g>
    </g>
    <g id="ytick_2">
     <g id="line2d_15">
      <path d="M 39.45 202.141625 
L 520.632 202.141625 
" clip-path="url(#p86af42df95)" style="fill: none; stroke-dasharray: 0.8,1.32; stroke-dashoffset: 0; stroke: #b0b0b0; stroke-width: 0.8"/>
     </g>
     <g id="line2d_16">
      <g>
       <use xlink:href="#m4a54f707bb" x="39.45" y="202.141625" style="stroke: #000000; stroke-width: 0.8"/>
      </g>
     </g>
     <g id="text_9">
      <!-- −2 -->
      <g transform="translate(20.6 205.556469)scale(0.1 -0.1)">
       <use xlink:href="#STIXGeneral-Regular-2212"/>
       <use xlink:href="#STIXGeneral-Regular-32" x="68.499985"/>
      </g>
     </g>
    </g>
    <g id="ytick_3">
     <g id="line2d_17">
      <path d="M 39.45 166.136425 
L 520.632 166.136425 
" clip-path="url(#p86af42df95)" style="fill: none; stroke-dasharray: 0.8,1.32; stroke-dashoffset: 0; stroke: #b0b0b0; stroke-width: 0.8"/>
     </g>
     <g id="line2d_18">
      <g>
       <use xlink:href="#m4a54f707bb" x="39.45" y="166.136425" style="stroke: #000000; stroke-width: 0.8"/>
      </g>
     </g>
     <g id="text_10">
      <!-- −1 -->
      <g transform="translate(20.6 169.551269)scale(0.1 -0.1)">
       <use xlink:href="#STIXGeneral-Regular-2212"/>
       <use xlink:href="#STIXGeneral-Regular-31" x="68.499985"/>
      </g>
     </g>
    </g>
    <g id="ytick_4">
     <g id="line2d_19">
      <path d="M 39.45 130.131225 
L 520.632 130.131225 
" clip-path="url(#p86af42df95)" style="fill: none; stroke-dasharray: 0.8,1.32; stroke-dashoffset: 0; stroke: #b0b0b0; stroke-width: 0.8"/>
     </g>
     <g id="line2d_20">
      <g>
       <use xlink:href="#m4a54f707bb" x="39.45" y="130.131225" style="stroke: #000000; stroke-width: 0.8"/>
      </g>
     </g>
     <g id="text_11">
      <!-- 0 -->
      <g transform="translate(27.45 133.546069)scale(0.1 -0.1)">
       <use xlink:href="#STIXGeneral-Regular-30"/>
      </g>
     </g>
    </g>
    <g id="ytick_5">
     <g id="line2d_21">
      <path d="M 39.45 94.126025 
L 520.632 94.126025 
" clip-path="url(#p86af42df95)" style="fill: none; stroke-dasharray: 0.8,1.32; stroke-dashoffset: 0; stroke: #b0b0b0; stroke-width: 0.8"/>
     </g>
     <g id="line2d_22">
      <g>
       <use xlink:href="#m4a54f707bb" x="39.45" y="94.126025" style="stroke: #000000; stroke-width: 0.8"/>
      </g>
     </g>
     <g id="text_12">
      <!-- 1 -->
      <g transform="translate(27.45 97.540869)scale(0.1 -0.1)">
       <use xlink:href="#STIXGeneral-Regular-31"/>
      </g>
     </g>
    </g>
    <g id="ytick_6">
     <g id="line2d_23">
      <path d="M 39.45 58.120825 
L 520.632 58.120825 
" clip-path="url(#p86af42df95)" style="fill: none; stroke-dasharray: 0.8,1.32; stroke-dashoffset: 0; stroke: #b0b0b0; stroke-width: 0.8"/>
     </g>
     <g id="line2d_24">
      <g>
       <use xlink:href="#m4a54f707bb" x="39.45" y="58.120825" style="stroke: #000000; stroke-width: 0.8"/>
      </g>
     </g>
     <g id="text_13">
      <!-- 2 -->
      <g transform="translate(27.45 61.535669)scale(0.1 -0.1)">
       <use xlink:href="#STIXGeneral-Regular-32"/>
      </g>
     </g>
    </g>
    <g id="ytick_7">
     <g id="line2d_25">
      <path d="M 39.45 22.115625 
L 520.632 22.115625 
" clip-path="url(#p86af42df95)" style="fill: none; stroke-dasharray: 0.8,1.32; stroke-dashoffset: 0; stroke: #b0b0b0; stroke-width: 0.8"/>
     </g>
     <g id="line2d_26">
      <g>
       <use xlink:href="#m4a54f707bb" x="39.45" y="22.115625" style="stroke: #000000; stroke-width: 0.8"/>
      </g>
     </g>
     <g id="text_14">
      <!-- 3 -->
      <g transform="translate(27.45 25.530469)scale(0.1 -0.1)">
       <use xlink:href="#STIXGeneral-Regular-33"/>
      </g>
     </g>
    </g>
    <g id="text_15">
     <!-- $y/D$ [-] -->
     <g transform="translate(14.429687 144.881225)rotate(-90)scale(0.1 -0.1)">
      <defs>
       <path id="DejaVuSans-Oblique-79" d="M 1588 -325 
Q 1188 -997 936 -1164 
Q 684 -1331 294 -1331 
L -159 -1331 
L -63 -850 
L 269 -850 
Q 509 -850 678 -719 
Q 847 -588 1056 -206 
L 1234 128 
L 459 3500 
L 1069 3500 
L 1650 819 
L 3256 3500 
L 3859 3500 
L 1588 -325 
z
" transform="scale(0.015625)"/>
      </defs>
      <use xlink:href="#DejaVuSans-Oblique-79" transform="translate(0 0.09375)"/>
      <use xlink:href="#DejaVuSans-2f" transform="translate(59.179688 0.09375)"/>
      <use xlink:href="#DejaVuSans-Oblique-44" transform="translate(92.871094 0.09375)"/>
      <use xlink:href="#STIXGeneral-Regular-20" transform="translate(169.873047 0.09375)"/>
      <use xlink:href="#STIXGeneral-Regular-5b" transform="translate(194.873032 0.09375)"/>
      <use xlink:href="#STIXGeneral-Regular-2d" transform="translate(228.173019 0.09375)"/>
      <use xlink:href="#STIXGeneral-Regular-5d" transform="translate(261.473007 0.09375)"/>
     </g>
    </g>
   </g>
   <g id="line2d_27">
    <path d="M 39.45 130.131225 
L 520.632 130.131225 
" clip-path="url(#p86af42df95)" style="fill: none; stroke-dasharray: 2,3.3; stroke-dashoffset: 0; stroke: #000000; stroke-width: 2"/>
   </g>
   <g id="line2d_28">
    <path d="M 103.6076 122.353708 
L 107.819968 121.538136 
L 112.032335 120.769093 
L 116.244703 120.045413 
L 120.457071 119.366005 
L 124.669438 118.730381 
L 128.881806 118.140123 
L 133.094174 117.591312 
L 137.306541 117.082438 
L 141.518909 116.612362 
L 145.731277 116.179945 
L 149.943644 115.783686 
L 154.156012 115.421576 
L 158.36838 115.091176 
L 162.580747 114.789821 
L 166.793115 114.514939 
L 171.005483 114.2645 
L 175.217851 114.034651 
L 179.430218 113.822788 
L 183.642586 113.626454 
L 187.854954 113.443375 
L 192.067321 113.271497 
L 196.279689 113.108985 
L 200.492057 112.954235 
L 204.704424 112.805847 
L 208.916792 112.662726 
L 213.12916 112.524003 
L 217.341527 112.388487 
L 221.553895 112.255454 
L 225.766263 112.1243 
L 229.97863 111.994521 
L 234.190998 111.865702 
L 238.403366 111.737491 
L 242.615733 111.609615 
L 246.828101 111.481841 
L 251.040469 111.354058 
L 255.252836 111.226164 
L 259.465204 111.097909 
L 263.677572 110.969211 
L 267.889939 110.839998 
L 272.102307 110.710225 
L 276.314675 110.579861 
L 280.527042 110.448879 
L 284.73941 110.317268 
L 288.951778 110.185025 
L 293.164145 110.052209 
L 297.376513 109.918846 
L 301.588881 109.784868 
L 305.801248 109.650291 
L 310.013616 109.515144 
L 314.225984 109.379449 
L 318.438352 109.243226 
L 322.650719 109.1065 
L 326.863087 108.969294 
L 331.075455 108.831634 
L 335.287822 108.693604 
L 339.50019 108.555208 
L 343.712558 108.416414 
L 347.924925 108.277249 
L 352.137293 108.137723 
L 356.349661 107.997847 
L 360.562028 107.857626 
L 364.774396 107.717074 
L 368.986764 107.576933 
L 373.199131 107.437222 
L 377.411499 107.300212 
L 381.623867 107.162068 
L 385.836234 107.022861 
L 390.048602 106.884081 
L 394.26097 106.745022 
L 398.473337 106.606392 
L 402.685705 106.467853 
L 406.898073 106.328561 
L 411.11044 106.189667 
L 415.322808 106.050925 
L 419.535176 105.911523 
L 423.747543 105.772774 
L 427.959911 105.633823 
L 432.172279 105.493608 
L 436.384646 105.356078 
L 440.597014 105.215649 
L 444.809382 105.076694 
L 449.021749 104.938794 
L 453.234117 104.798139 
L 457.446485 104.658322 
L 461.658853 104.521257 
L 465.87122 104.381601 
L 470.083588 104.23933 
L 474.295956 104.10218 
L 478.508323 103.964671 
L 482.720691 103.82473 
L 486.933059 103.682337 
L 491.145426 103.544231 
L 495.357794 103.407639 
L 499.570162 103.268788 
L 503.782529 103.12766 
L 507.994897 102.984241 
L 512.207265 102.848548 
L 516.419632 102.712005 
L 520.632 102.573368 
" clip-path="url(#p86af42df95)" style="fill: none; stroke: #1f77b4; stroke-width: 2; stroke-linecap: square"/>
   </g>
   <g id="line2d_29">
    <path d="M 103.6076 132.449031 
L 107.819968 132.171107 
L 112.032335 131.840775 
L 116.244703 131.485033 
L 120.457071 131.121378 
L 124.669438 130.761275 
L 128.881806 130.412769 
L 133.094174 130.080158 
L 137.306541 129.765762 
L 141.518909 129.470101 
L 145.731277 129.192608 
L 149.943644 128.932153 
L 154.156012 128.687519 
L 158.36838 128.457407 
L 162.580747 128.240515 
L 166.793115 128.035619 
L 171.005483 127.841842 
L 175.217851 127.657416 
L 179.430218 127.481287 
L 183.642586 127.312648 
L 187.854954 127.150739 
L 192.067321 126.994913 
L 196.279689 126.844609 
L 200.492057 126.699294 
L 204.704424 126.55858 
L 208.916792 126.422066 
L 213.12916 126.289658 
L 217.341527 126.160517 
L 221.553895 126.034424 
L 225.766263 125.911103 
L 229.97863 125.790352 
L 234.190998 125.67193 
L 238.403366 125.555656 
L 242.615733 125.441368 
L 246.828101 125.328885 
L 251.040469 125.218255 
L 255.252836 125.109379 
L 259.465204 125.002043 
L 263.677572 124.896169 
L 267.889939 124.791686 
L 272.102307 124.688526 
L 276.314675 124.586624 
L 280.527042 124.485917 
L 284.73941 124.386389 
L 288.951778 124.28789 
L 293.164145 124.19046 
L 297.376513 124.09405 
L 301.588881 123.998557 
L 305.801248 123.903924 
L 310.013616 123.810093 
L 314.225984 123.717043 
L 318.438352 123.624742 
L 322.650719 123.533162 
L 326.863087 123.442271 
L 331.075455 123.352049 
L 335.287822 123.262519 
L 339.50019 123.173659 
L 343.712558 123.085461 
L 347.924925 122.99786 
L 352.137293 122.910906 
L 356.349661 122.824621 
L 360.562028 122.73904 
L 364.774396 122.654202 
L 368.986764 122.570068 
L 373.199131 122.485861 
L 377.411499 122.404638 
L 381.623867 122.320398 
L 385.836234 122.236649 
L 390.048602 122.153775 
L 394.26097 122.071181 
L 398.473337 121.989443 
L 402.685705 121.908279 
L 406.898073 121.827078 
L 411.11044 121.746638 
L 415.322808 121.666792 
L 419.535176 121.586912 
L 423.747543 121.507945 
L 427.959911 121.429284 
L 432.172279 121.350167 
L 436.384646 121.273422 
L 440.597014 121.195034 
L 444.809382 121.118171 
L 449.021749 121.042534 
L 453.234117 120.965329 
L 457.446485 120.889207 
L 461.658853 120.8156 
L 465.87122 120.740526 
L 470.083588 120.663946 
L 474.295956 120.591719 
L 478.508323 120.519703 
L 482.720691 120.446307 
L 486.933059 120.371496 
L 491.145426 120.300441 
L 495.357794 120.231066 
L 499.570162 120.160422 
L 503.782529 120.088478 
L 507.994897 120.015201 
L 512.207265 119.948429 
L 516.419632 119.881477 
L 520.632 119.813357 
" clip-path="url(#p86af42df95)" style="fill: none; stroke: #ff7f0e; stroke-width: 2; stroke-linecap: square"/>
   </g>
   <g id="line2d_30">
    <path d="M 103.6076 114.679752 
L 107.819968 113.874822 
L 112.032335 113.091375 
L 116.244703 112.326859 
L 120.457071 111.579623 
L 124.669438 110.848768 
L 128.881806 110.133832 
L 133.094174 109.432885 
L 137.306541 108.745621 
L 141.518909 108.072695 
L 145.731277 107.415149 
L 149.943644 106.773661 
L 154.156012 106.148575 
L 158.36838 105.53992 
L 162.580747 104.947759 
L 166.793115 104.37217 
L 171.005483 103.813915 
L 175.217851 103.271414 
L 179.430218 102.744131 
L 183.642586 102.231353 
L 187.854954 101.732267 
L 192.067321 101.246077 
L 196.279689 100.771906 
L 200.492057 100.308986 
L 204.704424 99.85648 
L 208.916792 99.413864 
L 213.12916 98.980744 
L 217.341527 98.555872 
L 221.553895 98.138682 
L 225.766263 97.728663 
L 229.97863 97.3253 
L 234.190998 96.928189 
L 238.403366 96.536901 
L 242.615733 96.15108 
L 246.828101 95.770471 
L 251.040469 95.394859 
L 255.252836 95.024145 
L 259.465204 94.657747 
L 263.677572 94.295553 
L 267.889939 93.937292 
L 272.102307 93.582784 
L 276.314675 93.231948 
L 280.527042 92.88465 
L 284.73941 92.540726 
L 288.951778 92.199988 
L 293.164145 91.862632 
L 297.376513 91.528305 
L 301.588881 91.197054 
L 305.801248 90.868645 
L 310.013616 90.543052 
L 314.225984 90.220156 
L 318.438352 89.899896 
L 322.650719 89.582265 
L 326.863087 89.267159 
L 331.075455 88.954575 
L 335.287822 88.644496 
L 339.50019 88.336898 
L 343.712558 88.031712 
L 347.924925 87.728758 
L 352.137293 87.42814 
L 356.349661 87.129693 
L 360.562028 86.833491 
L 364.774396 86.539403 
L 368.986764 86.247574 
L 373.199131 85.957617 
L 377.411499 85.675226 
L 381.623867 85.392313 
L 385.836234 85.10943 
L 390.048602 84.829269 
L 394.26097 84.550463 
L 398.473337 84.274145 
L 402.685705 83.999865 
L 406.898073 83.725941 
L 411.11044 83.454393 
L 415.322808 83.184844 
L 419.535176 82.915752 
L 423.747543 82.649445 
L 427.959911 82.384316 
L 432.172279 82.118487 
L 436.384646 81.859034 
L 440.597014 81.595876 
L 444.809382 81.336779 
L 449.021749 81.080918 
L 453.234117 80.821597 
L 457.446485 80.565142 
L 461.658853 80.314805 
L 465.87122 80.061262 
L 470.083588 79.804525 
L 474.295956 79.557829 
L 478.508323 79.311702 
L 482.720691 79.062634 
L 486.933059 78.810642 
L 491.145426 78.566968 
L 495.357794 78.326875 
L 499.570162 78.084102 
L 503.782529 77.838665 
L 507.994897 77.590582 
L 512.207265 77.355999 
L 516.419632 77.120974 
L 520.632 76.883532 
" clip-path="url(#p86af42df95)" style="fill: none; stroke-dasharray: 7.4,3.2; stroke-dashoffset: 0; stroke: #1f77b4; stroke-width: 2"/>
   </g>
   <g id="line2d_31">
    <path d="M 103.6076 130.027664 
L 107.819968 129.20145 
L 112.032335 128.446812 
L 116.244703 127.763968 
L 120.457071 127.152387 
L 124.669438 126.611993 
L 128.881806 126.146414 
L 133.094174 125.74974 
L 137.306541 125.419255 
L 141.518909 125.152029 
L 145.731277 124.944741 
L 149.943644 124.793711 
L 154.156012 124.694576 
L 158.36838 124.642432 
L 162.580747 124.631883 
L 166.793115 124.657708 
L 171.005483 124.715085 
L 175.217851 124.797887 
L 179.430218 124.901446 
L 183.642586 125.021556 
L 187.854954 125.154483 
L 192.067321 125.296917 
L 196.279689 125.446065 
L 200.492057 125.599484 
L 204.704424 125.755213 
L 208.916792 125.911587 
L 213.12916 126.067261 
L 217.341527 126.221102 
L 221.553895 126.372225 
L 225.766263 126.519938 
L 229.97863 126.663743 
L 234.190998 126.803215 
L 238.403366 126.93808 
L 242.615733 127.06815 
L 246.828101 127.193212 
L 251.040469 127.313257 
L 255.252836 127.428183 
L 259.465204 127.53807 
L 263.677572 127.64287 
L 267.889939 127.742704 
L 272.102307 127.837666 
L 276.314675 127.927774 
L 280.527042 128.013108 
L 284.73941 128.09381 
L 288.951778 128.170061 
L 293.164145 128.241786 
L 297.376513 128.309387 
L 301.588881 128.372683 
L 305.801248 128.431936 
L 310.013616 128.487237 
L 314.225984 128.538742 
L 318.438352 128.586555 
L 322.650719 128.630734 
L 326.863087 128.671429 
L 331.075455 128.708692 
L 335.287822 128.742713 
L 339.50019 128.773517 
L 343.712558 128.801116 
L 347.924925 128.825741 
L 352.137293 128.847306 
L 356.349661 128.866001 
L 360.562028 128.88176 
L 364.774396 128.894745 
L 368.986764 128.906292 
L 373.199131 128.916826 
L 377.411499 128.925199 
L 381.623867 128.931823 
L 385.836234 128.936292 
L 390.048602 128.938892 
L 394.26097 128.93958 
L 398.473337 128.938639 
L 402.685705 128.935842 
L 406.898073 128.931182 
L 411.11044 128.924941 
L 415.322808 128.917006 
L 419.535176 128.907294 
L 423.747543 128.896103 
L 427.959911 128.88333 
L 432.172279 128.868729 
L 436.384646 128.853123 
L 440.597014 128.835422 
L 444.809382 128.816608 
L 449.021749 128.796671 
L 453.234117 128.774682 
L 457.446485 128.751502 
L 461.658853 128.727709 
L 465.87122 128.70194 
L 470.083588 128.674135 
L 474.295956 128.646531 
L 478.508323 128.617641 
L 482.720691 128.586826 
L 486.933059 128.554031 
L 491.145426 128.521493 
L 495.357794 128.488404 
L 499.570162 128.453474 
L 503.782529 128.416655 
L 507.994897 128.377899 
L 512.207265 128.341097 
L 516.419632 128.303036 
L 520.632 128.263204 
" clip-path="url(#p86af42df95)" style="fill: none; stroke-dasharray: 7.4,3.2; stroke-dashoffset: 0; stroke: #1f77b4; stroke-width: 2"/>
   </g>
   <g id="line2d_32">
    <path d="M 103.6076 106.65575 
L 107.819968 106.758201 
L 112.032335 106.633454 
L 116.244703 106.32765 
L 120.457071 105.877946 
L 124.669438 105.318802 
L 128.881806 104.67517 
L 133.094174 103.96562 
L 137.306541 103.19967 
L 141.518909 102.384096 
L 145.731277 101.526034 
L 149.943644 100.632272 
L 154.156012 99.708959 
L 158.36838 98.759969 
L 162.580747 97.78824 
L 166.793115 96.796402 
L 171.005483 95.787738 
L 175.217851 94.763924 
L 179.430218 93.72711 
L 183.642586 92.680038 
L 187.854954 91.624509 
L 192.067321 90.562372 
L 196.279689 89.49537 
L 200.492057 88.424872 
L 204.704424 87.352998 
L 208.916792 86.281068 
L 213.12916 85.212274 
L 217.341527 84.145244 
L 221.553895 83.082029 
L 225.766263 82.023979 
L 229.97863 80.972705 
L 234.190998 79.929273 
L 238.403366 78.894932 
L 242.615733 77.870851 
L 246.828101 76.85776 
L 251.040469 75.857795 
L 255.252836 74.87185 
L 259.465204 73.89987 
L 263.677572 72.942495 
L 267.889939 72.000245 
L 272.102307 71.073509 
L 276.314675 70.162563 
L 280.527042 69.267568 
L 284.73941 68.388934 
L 288.951778 67.525926 
L 293.164145 66.679205 
L 297.376513 65.848653 
L 301.588881 65.033578 
L 305.801248 64.233779 
L 310.013616 63.448855 
L 314.225984 62.67857 
L 318.438352 61.922631 
L 322.650719 61.180723 
L 326.863087 60.452515 
L 331.075455 59.73768 
L 335.287822 59.036222 
L 339.50019 58.34772 
L 343.712558 57.671842 
L 347.924925 57.007668 
L 352.137293 56.355182 
L 356.349661 55.714059 
L 360.562028 55.083973 
L 364.774396 54.464601 
L 368.986764 53.855779 
L 373.199131 53.253292 
L 377.411499 52.670349 
L 381.623867 52.086484 
L 385.836234 51.510433 
L 390.048602 50.944231 
L 394.26097 50.384819 
L 398.473337 49.83553 
L 402.685705 49.294387 
L 406.898073 48.757289 
L 411.11044 48.22933 
L 415.322808 47.709294 
L 419.535176 47.192911 
L 423.747543 46.686016 
L 427.959911 46.184685 
L 432.172279 45.684069 
L 436.384646 45.201128 
L 440.597014 44.71163 
L 444.809382 44.234102 
L 449.021749 43.766606 
L 453.234117 43.292983 
L 457.446485 42.828115 
L 461.658853 42.379771 
L 465.87122 41.925784 
L 470.083588 41.466062 
L 474.295956 41.031801 
L 478.508323 40.600724 
L 482.720691 40.164445 
L 486.933059 39.722883 
L 491.145426 39.302419 
L 495.357794 38.892217 
L 499.570162 38.477295 
L 503.782529 38.057585 
L 507.994897 37.633013 
L 512.207265 37.24186 
L 516.419632 36.851203 
L 520.632 36.456271 
" clip-path="url(#p86af42df95)" style="fill: none; stroke-dasharray: 7.4,3.2; stroke-dashoffset: 0; stroke: #ff7f0e; stroke-width: 2"/>
   </g>
   <g id="line2d_33">
    <path d="M 103.6076 158.242311 
L 107.819968 157.584014 
L 112.032335 157.048095 
L 116.244703 156.642416 
L 120.457071 156.36481 
L 124.669438 156.203749 
L 128.881806 156.150367 
L 133.094174 156.194696 
L 137.306541 156.331855 
L 141.518909 156.556107 
L 145.731277 156.859183 
L 149.943644 157.232034 
L 154.156012 157.666079 
L 158.36838 158.154845 
L 162.580747 158.69279 
L 166.793115 159.274836 
L 171.005483 159.895946 
L 175.217851 160.550908 
L 179.430218 161.235465 
L 183.642586 161.945259 
L 187.854954 162.676969 
L 192.067321 163.427453 
L 196.279689 164.193848 
L 200.492057 164.973716 
L 204.704424 165.764162 
L 208.916792 166.563064 
L 213.12916 167.367042 
L 217.341527 168.175791 
L 221.553895 168.986818 
L 225.766263 169.798228 
L 229.97863 170.608 
L 234.190998 171.414587 
L 238.403366 172.216379 
L 242.615733 173.011885 
L 246.828101 173.800009 
L 251.040469 174.578715 
L 255.252836 175.346909 
L 259.465204 176.104216 
L 263.677572 176.849843 
L 267.889939 177.583127 
L 272.102307 178.303543 
L 276.314675 179.010686 
L 280.527042 179.704267 
L 284.73941 180.383845 
L 288.951778 181.049854 
L 293.164145 181.701715 
L 297.376513 182.339448 
L 301.588881 182.963536 
L 305.801248 183.574069 
L 310.013616 184.17133 
L 314.225984 184.755515 
L 318.438352 185.326854 
L 322.650719 185.885601 
L 326.863087 186.432027 
L 331.075455 186.966418 
L 335.287822 187.488816 
L 339.50019 187.999598 
L 343.712558 188.49908 
L 347.924925 188.988052 
L 352.137293 189.46663 
L 356.349661 189.935183 
L 360.562028 190.394107 
L 364.774396 190.843804 
L 368.986764 191.284357 
L 373.199131 191.718431 
L 377.411499 192.138927 
L 381.623867 192.554312 
L 385.836234 192.962864 
L 390.048602 193.363318 
L 394.26097 193.757543 
L 398.473337 194.143356 
L 402.685705 194.522172 
L 406.898073 194.896867 
L 411.11044 195.263947 
L 415.322808 195.624291 
L 419.535176 195.980913 
L 423.747543 196.329875 
L 427.959911 196.673883 
L 432.172279 197.016264 
L 436.384646 197.345716 
L 440.597014 197.678437 
L 444.809382 198.00224 
L 449.021749 198.318462 
L 453.234117 198.637675 
L 457.446485 198.950299 
L 461.658853 199.251429 
L 465.87122 199.555268 
L 470.083588 199.861829 
L 474.295956 200.151637 
L 478.508323 200.438682 
L 482.720691 200.728169 
L 486.933059 201.020108 
L 491.145426 201.298464 
L 495.357794 201.569916 
L 499.570162 201.843549 
L 503.782529 202.11937 
L 507.994897 202.397389 
L 512.207265 202.654998 
L 516.419632 202.911751 
L 520.632 203.170443 
" clip-path="url(#p86af42df95)" style="fill: none; stroke-dasharray: 7.4,3.2; stroke-dashoffset: 0; stroke: #ff7f0e; stroke-width: 2"/>
   </g>
   <g id="line2d_34">
    <path d="M 60.644364 116.340433 
L 50.334436 143.922017 
" clip-path="url(#p86af42df95)" style="fill: none; stroke: #000000; stroke-width: 2; stroke-linecap: square"/>
   </g>
   <g id="patch_3">
    <path d="M 39.45 238.146825 
L 39.45 22.115625 
" style="fill: none; stroke: #000000; stroke-width: 0.8; stroke-linejoin: miter; stroke-linecap: square"/>
   </g>
   <g id="patch_4">
    <path d="M 520.632 238.146825 
L 520.632 22.115625 
" style="fill: none; stroke: #000000; stroke-width: 0.8; stroke-linejoin: miter; stroke-linecap: square"/>
   </g>
   <g id="patch_5">
    <path d="M 39.45 238.146825 
L 520.632 238.146825 
" style="fill: none; stroke: #000000; stroke-width: 0.8; stroke-linejoin: miter; stroke-linecap: square"/>
   </g>
   <g id="patch_6">
    <path d="M 39.45 22.115625 
L 520.632 22.115625 
" style="fill: none; stroke: #000000; stroke-width: 0.8; stroke-linejoin: miter; stroke-linecap: square"/>
   </g>
   <g id="text_16">
    <!-- $\gamma = 40^\circ$, $C_T = 0.8$, T.I.$= 4\%$ -->
    <g transform="translate(201.741 16.115625)scale(0.12 -0.12)">
     <defs>
      <path id="DejaVuSans-Oblique-3b3" d="M 1491 2950 
L 1838 788 
L 3456 3500 
L 4066 3500 
L 1972 0 
L 1713 -1331 
L 1138 -1331 
L 1397 0 
L 988 2613 
Q 925 3006 628 3006 
L 475 3006 
L 569 3500 
L 788 3500 
Q 1403 3500 1491 2950 
z
" transform="scale(0.015625)"/>
      <path id="DejaVuSans-3d" d="M 678 2906 
L 4684 2906 
L 4684 2381 
L 678 2381 
L 678 2906 
z
M 678 1631 
L 4684 1631 
L 4684 1100 
L 678 1100 
L 678 1631 
z
" transform="scale(0.015625)"/>
      <path id="DejaVuSans-34" d="M 2419 4116 
L 825 1625 
L 2419 1625 
L 2419 4116 
z
M 2253 4666 
L 3047 4666 
L 3047 1625 
L 3713 1625 
L 3713 1100 
L 3047 1100 
L 3047 0 
L 2419 0 
L 2419 1100 
L 313 1100 
L 313 1709 
L 2253 4666 
z
" transform="scale(0.015625)"/>
      <path id="DejaVuSans-30" d="M 2034 4250 
Q 1547 4250 1301 3770 
Q 1056 3291 1056 2328 
Q 1056 1369 1301 889 
Q 1547 409 2034 409 
Q 2525 409 2770 889 
Q 3016 1369 3016 2328 
Q 3016 3291 2770 3770 
Q 2525 4250 2034 4250 
z
M 2034 4750 
Q 2819 4750 3233 4129 
Q 3647 3509 3647 2328 
Q 3647 1150 3233 529 
Q 2819 -91 2034 -91 
Q 1250 -91 836 529 
Q 422 1150 422 2328 
Q 422 3509 836 4129 
Q 1250 4750 2034 4750 
z
" transform="scale(0.015625)"/>
      <path id="DejaVuSans-2218" d="M 2003 2603 
Q 1753 2603 1581 2429 
Q 1409 2256 1409 2006 
Q 1409 1759 1581 1589 
Q 1753 1419 2003 1419 
Q 2253 1419 2425 1589 
Q 2597 1759 2597 2006 
Q 2597 2253 2423 2428 
Q 2250 2603 2003 2603 
z
M 2003 3006 
Q 2203 3006 2387 2929 
Q 2572 2853 2706 2709 
Q 2850 2569 2922 2390 
Q 2994 2212 2994 2006 
Q 2994 1594 2705 1308 
Q 2416 1022 1997 1022 
Q 1575 1022 1294 1303 
Q 1013 1584 1013 2006 
Q 1013 2425 1300 2715 
Q 1588 3006 2003 3006 
z
" transform="scale(0.015625)"/>
      <path id="STIXGeneral-Regular-2c" d="M 531 -902 
L 467 -781 
Q 998 -422 998 -96 
Q 998 -13 909 -13 
Q 883 -13 822 -25 
Q 762 -38 723 -38 
Q 352 -38 352 288 
Q 352 454 457 553 
Q 563 653 736 653 
Q 954 653 1101 496 
Q 1248 339 1248 96 
Q 1248 -198 1053 -473 
Q 858 -749 531 -902 
z
" transform="scale(0.015625)"/>
      <path id="DejaVuSans-Oblique-43" d="M 4447 4306 
L 4319 3641 
Q 4019 3944 3683 4091 
Q 3347 4238 2956 4238 
Q 2422 4238 2017 3981 
Q 1613 3725 1319 3200 
Q 1131 2863 1032 2486 
Q 934 2109 934 1728 
Q 934 1091 1264 756 
Q 1594 422 2222 422 
Q 2656 422 3056 561 
Q 3456 700 3834 978 
L 3688 231 
Q 3316 72 2936 -9 
Q 2556 -91 2175 -91 
Q 1278 -91 773 396 
Q 269 884 269 1753 
Q 269 2309 461 2846 
Q 653 3384 1013 3828 
Q 1394 4300 1883 4525 
Q 2372 4750 3022 4750 
Q 3422 4750 3780 4639 
Q 4138 4528 4447 4306 
z
" transform="scale(0.015625)"/>
      <path id="DejaVuSans-Oblique-54" d="M 378 4666 
L 4325 4666 
L 4225 4134 
L 2559 4134 
L 1759 0 
L 1125 0 
L 1925 4134 
L 275 4134 
L 378 4666 
z
" transform="scale(0.015625)"/>
      <path id="DejaVuSans-2e" d="M 684 794 
L 1344 794 
L 1344 0 
L 684 0 
L 684 794 
z
" transform="scale(0.015625)"/>
      <path id="DejaVuSans-38" d="M 2034 2216 
Q 1584 2216 1326 1975 
Q 1069 1734 1069 1313 
Q 1069 891 1326 650 
Q 1584 409 2034 409 
Q 2484 409 2743 651 
Q 3003 894 3003 1313 
Q 3003 1734 2745 1975 
Q 2488 2216 2034 2216 
z
M 1403 2484 
Q 997 2584 770 2862 
Q 544 3141 544 3541 
Q 544 4100 942 4425 
Q 1341 4750 2034 4750 
Q 2731 4750 3128 4425 
Q 3525 4100 3525 3541 
Q 3525 3141 3298 2862 
Q 3072 2584 2669 2484 
Q 3125 2378 3379 2068 
Q 3634 1759 3634 1313 
Q 3634 634 3220 271 
Q 2806 -91 2034 -91 
Q 1263 -91 848 271 
Q 434 634 434 1313 
Q 434 1759 690 2068 
Q 947 2378 1403 2484 
z
M 1172 3481 
Q 1172 3119 1398 2916 
Q 1625 2713 2034 2713 
Q 2441 2713 2670 2916 
Q 2900 3119 2900 3481 
Q 2900 3844 2670 4047 
Q 2441 4250 2034 4250 
Q 1625 4250 1398 4047 
Q 1172 3844 1172 3481 
z
" transform="scale(0.015625)"/>
      <path id="STIXGeneral-Regular-54" d="M 3795 3149 
L 3642 3149 
Q 3539 3674 3353 3821 
Q 3168 3968 2656 3968 
L 2278 3968 
L 2278 710 
Q 2278 346 2387 243 
Q 2496 141 2893 122 
L 2893 0 
L 1024 0 
L 1024 122 
Q 1427 147 1526 256 
Q 1626 365 1626 787 
L 1626 3968 
L 1242 3968 
Q 723 3968 540 3817 
Q 358 3667 262 3149 
L 109 3149 
L 154 4237 
L 3750 4237 
L 3795 3149 
z
" transform="scale(0.015625)"/>
      <path id="STIXGeneral-Regular-2e" d="M 1158 275 
Q 1158 134 1052 32 
Q 947 -70 800 -70 
Q 653 -70 550 32 
Q 448 134 448 281 
Q 448 429 553 534 
Q 659 640 806 640 
Q 947 640 1052 531 
Q 1158 422 1158 275 
z
" transform="scale(0.015625)"/>
      <path id="STIXGeneral-Regular-49" d="M 2016 0 
L 115 0 
L 115 122 
Q 518 134 627 240 
Q 736 346 736 717 
L 736 3526 
Q 736 3898 633 3994 
Q 531 4090 115 4115 
L 115 4237 
L 2016 4237 
L 2016 4115 
Q 1613 4096 1501 3993 
Q 1389 3891 1389 3526 
L 1389 717 
Q 1389 358 1504 246 
Q 1619 134 2016 122 
L 2016 0 
z
" transform="scale(0.015625)"/>
      <path id="DejaVuSans-25" d="M 4653 2053 
Q 4381 2053 4226 1822 
Q 4072 1591 4072 1178 
Q 4072 772 4226 539 
Q 4381 306 4653 306 
Q 4919 306 5073 539 
Q 5228 772 5228 1178 
Q 5228 1588 5073 1820 
Q 4919 2053 4653 2053 
z
M 4653 2450 
Q 5147 2450 5437 2106 
Q 5728 1763 5728 1178 
Q 5728 594 5436 251 
Q 5144 -91 4653 -91 
Q 4153 -91 3862 251 
Q 3572 594 3572 1178 
Q 3572 1766 3864 2108 
Q 4156 2450 4653 2450 
z
M 1428 4353 
Q 1159 4353 1004 4120 
Q 850 3888 850 3481 
Q 850 3069 1003 2837 
Q 1156 2606 1428 2606 
Q 1700 2606 1854 2837 
Q 2009 3069 2009 3481 
Q 2009 3884 1853 4118 
Q 1697 4353 1428 4353 
z
M 4250 4750 
L 4750 4750 
L 1831 -91 
L 1331 -91 
L 4250 4750 
z
M 1428 4750 
Q 1922 4750 2215 4408 
Q 2509 4066 2509 3481 
Q 2509 2891 2217 2550 
Q 1925 2209 1428 2209 
Q 931 2209 642 2551 
Q 353 2894 353 3481 
Q 353 4063 643 4406 
Q 934 4750 1428 4750 
z
" transform="scale(0.015625)"/>
     </defs>
     <use xlink:href="#DejaVuSans-Oblique-3b3" transform="translate(0 0.78125)"/>
     <use xlink:href="#DejaVuSans-3d" transform="translate(78.662109 0.78125)"/>
     <use xlink:href="#DejaVuSans-34" transform="translate(181.933594 0.78125)"/>
     <use xlink:href="#DejaVuSans-30" transform="translate(245.556641 0.78125)"/>
     <use xlink:href="#DejaVuSans-2218" transform="translate(323.774414 39.0625)scale(0.7)"/>
     <use xlink:href="#STIXGeneral-Regular-2c" transform="translate(383.964844 0.78125)"/>
     <use xlink:href="#STIXGeneral-Regular-20" transform="translate(408.964828 0.78125)"/>
     <use xlink:href="#DejaVuSans-Oblique-43" transform="translate(433.964813 0.78125)"/>
     <use xlink:href="#DejaVuSans-Oblique-54" transform="translate(503.789032 -15.625)scale(0.7)"/>
     <use xlink:href="#DejaVuSans-3d" transform="translate(568.764618 0.78125)"/>
     <use xlink:href="#DejaVuSans-30" transform="translate(672.036102 0.78125)"/>
     <use xlink:href="#DejaVuSans-2e" transform="translate(735.659149 0.78125)"/>
     <use xlink:href="#DejaVuSans-38" transform="translate(764.821259 0.78125)"/>
     <use xlink:href="#STIXGeneral-Regular-2c" transform="translate(828.444305 0.78125)"/>
     <use xlink:href="#STIXGeneral-Regular-20" transform="translate(853.44429 0.78125)"/>
     <use xlink:href="#STIXGeneral-Regular-54" transform="translate(878.444275 0.78125)"/>
     <use xlink:href="#STIXGeneral-Regular-2e" transform="translate(939.544266 0.78125)"/>
     <use xlink:href="#STIXGeneral-Regular-49" transform="translate(964.54425 0.78125)"/>
     <use xlink:href="#STIXGeneral-Regular-2e" transform="translate(997.844238 0.78125)"/>
     <use xlink:href="#DejaVuSans-3d" transform="translate(1042.326645 0.78125)"/>
     <use xlink:href="#DejaVuSans-34" transform="translate(1145.598129 0.78125)"/>
     <use xlink:href="#DejaVuSans-25" transform="translate(1209.221176 0.78125)"/>
    </g>
   </g>
   <g id="legend_1">
    <g id="patch_7">
     <path d="M 46.45 58.45625 
L 85.85 58.45625 
Q 87.85 58.45625 87.85 56.45625 
L 87.85 29.115625 
Q 87.85 27.115625 85.85 27.115625 
L 46.45 27.115625 
Q 44.45 27.115625 44.45 29.115625 
L 44.45 56.45625 
Q 44.45 58.45625 46.45 58.45625 
z
" style="fill: #ffffff; opacity: 0.8; stroke: #cccccc; stroke-linejoin: miter"/>
    </g>
    <g id="line2d_35">
     <path d="M 48.45 34.615625 
L 58.45 34.615625 
L 68.45 34.615625 
" style="fill: none; stroke: #1f77b4; stroke-width: 2; stroke-linecap: square"/>
    </g>
    <g id="text_17">
     <!-- $U$ -->
     <g transform="translate(76.45 38.115625)scale(0.1 -0.1)">
      <defs>
       <path id="DejaVuSans-Oblique-55" d="M 991 4666 
L 1625 4666 
L 1075 1831 
Q 1041 1641 1027 1517 
Q 1013 1394 1013 1300 
Q 1013 869 1253 645 
Q 1494 422 1959 422 
Q 2563 422 2898 753 
Q 3234 1084 3378 1831 
L 3928 4666 
L 4563 4666 
L 4000 1753 
Q 3816 809 3300 359 
Q 2784 -91 1888 -91 
Q 1188 -91 780 261 
Q 372 613 372 1216 
Q 372 1325 387 1461 
Q 403 1597 434 1753 
L 991 4666 
z
" transform="scale(0.015625)"/>
      </defs>
      <use xlink:href="#DejaVuSans-Oblique-55" transform="translate(0 0.09375)"/>
     </g>
    </g>
    <g id="line2d_36">
     <path d="M 48.45 48.785937 
L 58.45 48.785937 
L 68.45 48.785937 
" style="fill: none; stroke: #ff7f0e; stroke-width: 2; stroke-linecap: square"/>
    </g>
    <g id="text_18">
     <!-- $V$ -->
     <g transform="translate(76.45 52.285937)scale(0.1 -0.1)">
      <defs>
       <path id="DejaVuSans-Oblique-56" d="M 1319 0 
L 500 4666 
L 1119 4666 
L 1797 653 
L 4063 4666 
L 4750 4666 
L 2053 0 
L 1319 0 
z
" transform="scale(0.015625)"/>
      </defs>
      <use xlink:href="#DejaVuSans-Oblique-56" transform="translate(0 0.09375)"/>
     </g>
    </g>
   </g>
   <g id="legend_2">
    <g id="patch_8">
     <path d="M 46.45 233.146825 
L 120.110938 233.146825 
Q 122.110938 233.146825 122.110938 231.146825 
L 122.110938 189.196825 
Q 122.110938 187.196825 120.110938 187.196825 
L 46.45 187.196825 
Q 44.45 187.196825 44.45 189.196825 
L 44.45 231.146825 
Q 44.45 233.146825 46.45 233.146825 
z
" style="fill: #ffffff; opacity: 0.8; stroke: #cccccc; stroke-linejoin: miter"/>
    </g>
    <g id="line2d_37">
     <path d="M 48.45 194.696825 
L 58.45 194.696825 
L 68.45 194.696825 
" style="fill: none; stroke: #000000; stroke-width: 2; stroke-linecap: square"/>
    </g>
    <g id="text_19">
     <!-- Centreline -->
     <g transform="translate(76.45 198.196825)scale(0.1 -0.1)">
      <defs>
       <path id="STIXGeneral-Regular-43" d="M 3930 838 
L 4051 723 
Q 3482 -90 2304 -90 
Q 1376 -90 794 480 
Q 179 1082 179 2080 
Q 179 3014 755 3661 
Q 1357 4326 2310 4326 
Q 2720 4326 3072 4230 
Q 3475 4115 3514 4115 
Q 3725 4115 3782 4326 
L 3910 4326 
L 3968 2874 
L 3821 2874 
Q 3718 3334 3488 3584 
Q 3034 4070 2458 4070 
Q 1747 4070 1334 3548 
Q 922 3027 922 2182 
Q 922 1152 1382 653 
Q 1811 192 2522 192 
Q 2944 192 3251 339 
Q 3558 486 3930 838 
z
" transform="scale(0.015625)"/>
       <path id="STIXGeneral-Regular-65" d="M 2611 1050 
L 2714 1005 
Q 2330 -64 1376 -64 
Q 813 -64 486 329 
Q 160 723 160 1389 
Q 160 2074 525 2509 
Q 890 2944 1485 2944 
Q 2061 2944 2374 2502 
Q 2560 2246 2592 1773 
L 621 1773 
Q 646 1370 700 1158 
Q 755 947 915 730 
Q 1184 378 1626 378 
Q 1939 378 2153 531 
Q 2368 685 2611 1050 
z
M 634 1978 
L 1939 1978 
Q 1882 2381 1750 2547 
Q 1619 2714 1312 2714 
Q 1043 2714 864 2525 
Q 685 2336 634 1978 
z
" transform="scale(0.015625)"/>
       <path id="STIXGeneral-Regular-6e" d="M 3104 0 
L 1773 0 
L 1779 96 
Q 2016 115 2096 233 
Q 2176 352 2176 672 
L 2176 1946 
Q 2176 2592 1709 2592 
Q 1549 2592 1408 2515 
Q 1267 2438 1050 2227 
L 1050 461 
Q 1050 269 1136 192 
Q 1222 115 1466 96 
L 1466 0 
L 115 0 
L 115 96 
Q 358 115 435 214 
Q 512 314 512 602 
L 512 2157 
Q 512 2394 467 2483 
Q 422 2573 288 2573 
Q 160 2573 102 2547 
L 102 2656 
Q 550 2784 979 2944 
L 1030 2925 
L 1030 2426 
L 1037 2426 
Q 1491 2944 1958 2944 
Q 2323 2944 2518 2688 
Q 2714 2432 2714 1958 
L 2714 544 
Q 2714 288 2790 205 
Q 2867 122 3104 96 
L 3104 0 
z
" transform="scale(0.015625)"/>
       <path id="STIXGeneral-Regular-74" d="M 1702 493 
L 1786 422 
Q 1478 -64 1011 -64 
Q 448 -64 448 749 
L 448 2675 
L 109 2675 
Q 83 2694 83 2720 
Q 83 2771 192 2842 
Q 435 2982 813 3526 
Q 826 3546 874 3606 
Q 922 3667 941 3706 
Q 986 3706 986 3622 
L 986 2880 
L 1632 2880 
L 1632 2675 
L 986 2675 
L 986 845 
Q 986 538 1062 403 
Q 1139 269 1318 269 
Q 1510 269 1702 493 
z
" transform="scale(0.015625)"/>
       <path id="STIXGeneral-Regular-72" d="M 1024 2931 
L 1024 2342 
Q 1267 2688 1430 2816 
Q 1594 2944 1792 2944 
Q 1958 2944 2051 2854 
Q 2144 2765 2144 2605 
Q 2144 2470 2077 2393 
Q 2010 2317 1894 2317 
Q 1773 2317 1638 2445 
Q 1536 2541 1472 2541 
Q 1338 2541 1181 2355 
Q 1024 2170 1024 2016 
L 1024 576 
Q 1024 301 1133 205 
Q 1242 109 1568 96 
L 1568 0 
L 32 0 
L 32 96 
Q 339 154 412 224 
Q 486 294 486 538 
L 486 2138 
Q 486 2349 438 2435 
Q 390 2522 269 2522 
Q 166 2522 45 2496 
L 45 2598 
Q 448 2726 992 2944 
L 1024 2931 
z
" transform="scale(0.015625)"/>
       <path id="STIXGeneral-Regular-6c" d="M 1645 0 
L 134 0 
L 134 96 
Q 435 122 531 221 
Q 627 320 627 589 
L 627 3590 
Q 627 3821 569 3910 
Q 512 4000 358 4000 
Q 224 4000 122 3987 
L 122 4090 
Q 730 4237 1133 4371 
L 1165 4346 
L 1165 557 
Q 1165 288 1254 201 
Q 1344 115 1645 96 
L 1645 0 
z
" transform="scale(0.015625)"/>
       <path id="STIXGeneral-Regular-69" d="M 1152 4045 
Q 1152 3904 1056 3811 
Q 960 3718 819 3718 
Q 685 3718 592 3811 
Q 499 3904 499 4045 
Q 499 4179 595 4275 
Q 691 4371 826 4371 
Q 966 4371 1059 4275 
Q 1152 4179 1152 4045 
z
M 1619 0 
L 102 0 
L 102 96 
Q 435 115 521 211 
Q 608 307 608 666 
L 608 2118 
Q 608 2342 563 2432 
Q 518 2522 397 2522 
Q 243 2522 128 2490 
L 128 2592 
L 1120 2944 
L 1146 2918 
L 1146 672 
Q 1146 314 1226 218 
Q 1306 122 1619 96 
L 1619 0 
z
" transform="scale(0.015625)"/>
      </defs>
      <use xlink:href="#STIXGeneral-Regular-43"/>
      <use xlink:href="#STIXGeneral-Regular-65" x="66.699997"/>
      <use xlink:href="#STIXGeneral-Regular-6e" x="111.099991"/>
      <use xlink:href="#STIXGeneral-Regular-74" x="161.099976"/>
      <use xlink:href="#STIXGeneral-Regular-72" x="188.899963"/>
      <use xlink:href="#STIXGeneral-Regular-65" x="222.199951"/>
      <use xlink:href="#STIXGeneral-Regular-6c" x="266.599945"/>
      <use xlink:href="#STIXGeneral-Regular-69" x="294.399933"/>
      <use xlink:href="#STIXGeneral-Regular-6e" x="322.199921"/>
      <use xlink:href="#STIXGeneral-Regular-65" x="372.199905"/>
     </g>
    </g>
    <g id="line2d_38">
     <path d="M 48.45 208.867137 
L 58.45 208.867137 
L 68.45 208.867137 
" style="fill: none; stroke-dasharray: 7.4,3.2; stroke-dashoffset: 0; stroke: #000000; stroke-width: 2"/>
    </g>
    <g id="text_20">
     <!-- Edges -->
     <g transform="translate(76.45 212.367137)scale(0.1 -0.1)">
      <defs>
       <path id="STIXGeneral-Regular-45" d="M 3821 1082 
L 3526 0 
L 77 0 
L 77 122 
Q 442 147 538 252 
Q 634 358 634 730 
L 634 3520 
Q 634 3878 534 3987 
Q 435 4096 77 4115 
L 77 4237 
L 3469 4237 
L 3494 3322 
L 3334 3322 
Q 3264 3750 3085 3872 
Q 2906 3994 2349 3994 
L 1510 3994 
Q 1370 3994 1328 3952 
Q 1286 3910 1286 3763 
L 1286 2355 
L 2253 2355 
Q 2656 2355 2787 2470 
Q 2918 2586 2976 2970 
L 3123 2970 
L 3123 1472 
L 2976 1472 
Q 2918 1875 2790 1984 
Q 2662 2093 2253 2093 
L 1286 2093 
L 1286 538 
Q 1286 346 1420 291 
Q 1555 237 1933 237 
L 2163 237 
Q 2848 237 3136 403 
Q 3424 570 3642 1082 
L 3821 1082 
z
" transform="scale(0.015625)"/>
       <path id="STIXGeneral-Regular-64" d="M 3142 269 
L 2202 -64 
L 2176 -45 
L 2176 365 
Q 1869 -64 1357 -64 
Q 826 -64 499 317 
Q 173 698 173 1312 
Q 173 1990 563 2467 
Q 954 2944 1504 2944 
Q 1850 2944 2176 2669 
L 2176 3667 
Q 2176 3866 2118 3930 
Q 2061 3994 1882 3994 
Q 1792 3994 1741 3987 
L 1741 4090 
Q 2323 4243 2682 4371 
L 2714 4358 
L 2714 730 
Q 2714 506 2768 435 
Q 2822 365 2995 365 
Q 3034 365 3142 371 
L 3142 269 
z
M 2176 653 
L 2176 2125 
Q 2176 2381 1981 2573 
Q 1786 2765 1523 2765 
Q 1158 2765 940 2438 
Q 723 2112 723 1568 
Q 723 979 963 624 
Q 1203 269 1606 269 
Q 1907 269 2080 474 
Q 2176 582 2176 653 
z
" transform="scale(0.015625)"/>
       <path id="STIXGeneral-Regular-67" d="M 3008 2483 
L 2477 2483 
Q 2598 2208 2598 1946 
Q 2598 1453 2265 1203 
Q 1933 954 1600 954 
Q 1530 954 1357 973 
L 1235 986 
Q 1107 947 979 812 
Q 851 678 851 582 
Q 851 435 1350 410 
L 2176 371 
Q 2528 358 2739 172 
Q 2950 -13 2950 -314 
Q 2950 -685 2566 -986 
Q 2035 -1395 1286 -1395 
Q 826 -1395 502 -1212 
Q 179 -1030 179 -774 
Q 179 -595 320 -419 
Q 461 -243 806 6 
Q 602 102 534 172 
Q 467 243 467 346 
Q 467 531 762 787 
Q 909 915 1037 1043 
Q 717 1203 579 1401 
Q 442 1600 442 1901 
Q 442 2336 752 2640 
Q 1062 2944 1510 2944 
Q 1766 2944 2022 2848 
L 2163 2797 
Q 2349 2733 2515 2733 
L 3008 2733 
L 3008 2483 
z
M 973 2163 
L 973 2144 
Q 973 1683 1155 1398 
Q 1338 1114 1632 1114 
Q 1850 1114 1978 1270 
Q 2106 1427 2106 1690 
Q 2106 2112 1914 2464 
Q 1754 2765 1446 2765 
Q 1222 2765 1097 2605 
Q 973 2445 973 2163 
z
M 2771 -410 
Q 2771 -230 2595 -163 
Q 2419 -96 1978 -96 
Q 1344 -96 941 -13 
Q 749 -243 688 -348 
Q 627 -454 627 -563 
Q 627 -774 880 -902 
Q 1133 -1030 1555 -1030 
Q 2099 -1030 2435 -860 
Q 2771 -691 2771 -410 
z
" transform="scale(0.015625)"/>
       <path id="STIXGeneral-Regular-73" d="M 998 1926 
L 1664 1523 
Q 1984 1331 2105 1164 
Q 2227 998 2227 736 
Q 2227 416 1961 176 
Q 1696 -64 1331 -64 
Q 1030 -64 864 -6 
Q 691 51 570 51 
Q 461 51 416 -26 
L 333 -26 
L 333 979 
L 435 979 
Q 538 512 730 294 
Q 922 77 1248 77 
Q 1485 77 1632 211 
Q 1779 346 1779 550 
Q 1779 845 1440 1030 
L 1094 1222 
Q 326 1651 326 2150 
Q 326 2522 566 2730 
Q 806 2938 1210 2938 
Q 1491 2938 1638 2867 
Q 1754 2816 1818 2816 
Q 1862 2816 1920 2880 
L 1990 2880 
L 2022 2010 
L 1926 2010 
Q 1818 2445 1654 2621 
Q 1491 2797 1203 2797 
Q 986 2797 854 2688 
Q 723 2579 723 2362 
Q 723 2253 796 2128 
Q 870 2003 998 1926 
z
" transform="scale(0.015625)"/>
      </defs>
      <use xlink:href="#STIXGeneral-Regular-45"/>
      <use xlink:href="#STIXGeneral-Regular-64" x="61.099991"/>
      <use xlink:href="#STIXGeneral-Regular-67" x="111.099976"/>
      <use xlink:href="#STIXGeneral-Regular-65" x="161.09996"/>
      <use xlink:href="#STIXGeneral-Regular-73" x="205.499954"/>
     </g>
    </g>
    <g id="line2d_39">
     <path d="M 48.45 223.476512 
L 58.45 223.476512 
L 68.45 223.476512 
" style="fill: none; stroke-dasharray: 2,3.3; stroke-dashoffset: 0; stroke: #000000; stroke-width: 2"/>
    </g>
    <g id="text_21">
     <!-- $y=0$ -->
     <g transform="translate(76.45 226.976512)scale(0.1 -0.1)">
      <use xlink:href="#DejaVuSans-Oblique-79" transform="translate(0 0.78125)"/>
      <use xlink:href="#DejaVuSans-3d" transform="translate(78.662109 0.78125)"/>
      <use xlink:href="#DejaVuSans-30" transform="translate(181.933594 0.78125)"/>
     </g>
    </g>
   </g>
  </g>
 </g>
 <defs>
  <clipPath id="p86af42df95">
   <rect x="39.45" y="22.115625" width="481.182" height="216.0312"/>
  </clipPath>
 </defs>
</svg>
