<?xml version="1.0" encoding="utf-8" standalone="no"?>
<!DOCTYPE svg PUBLIC "-//W3C//DTD SVG 1.1//EN"
  "http://www.w3.org/Graphics/SVG/1.1/DTD/svg11.dtd">
<svg xmlns:xlink="http://www.w3.org/1999/xlink" width="616.649977pt" height="290.6872pt" viewBox="0 0 616.649977 290.6872" xmlns="http://www.w3.org/2000/svg" version="1.1">
 <metadata>
  <rdf:RDF xmlns:dc="http://purl.org/dc/elements/1.1/" xmlns:cc="http://creativecommons.org/ns#" xmlns:rdf="http://www.w3.org/1999/02/22-rdf-syntax-ns#">
   <cc:Work>
    <dc:type rdf:resource="http://purl.org/dc/dcmitype/StillImage"/>
    <dc:date>2022-04-18T13:11:43.571680</dc:date>
    <dc:format>image/svg+xml</dc:format>
    <dc:creator>
     <cc:Agent>
      <dc:title>Matplotlib v3.5.1, https://matplotlib.org/</dc:title>
     </cc:Agent>
    </dc:creator>
   </cc:Work>
  </rdf:RDF>
 </metadata>
 <defs>
  <style type="text/css">*{stroke-linejoin: round; stroke-linecap: butt}</style>
 </defs>
 <g id="figure_1">
  <g id="patch_1">
   <path d="M 0 290.6872 
L 616.649977 290.6872 
L 616.649977 0 
L 0 0 
z
" style="fill: #ffffff"/>
  </g>
  <g id="axes_1">
   <g id="patch_2">
    <path d="M 39.8 133.452 
L 258.519091 133.452 
L 258.519091 35.256 
L 39.8 35.256 
z
" style="fill: #ffffff"/>
   </g>
   <g id="matplotlib.axis_1">
    <g id="xtick_1">
     <g id="line2d_1">
      <path d="M 39.8 133.452 
L 39.8 35.256 
" clip-path="url(#pa683f7e931)" style="fill: none; stroke-dasharray: 0.8,1.32; stroke-dashoffset: 0; stroke: #b0b0b0; stroke-width: 0.8"/>
     </g>
     <g id="line2d_2">
      <defs>
       <path id="mc57968df8a" d="M 0 0 
L 0 3.5 
" style="stroke: #000000; stroke-width: 0.8"/>
      </defs>
      <g>
       <use xlink:href="#mc57968df8a" x="39.8" y="133.452" style="stroke: #000000; stroke-width: 0.8"/>
      </g>
     </g>
    </g>
    <g id="xtick_2">
     <g id="line2d_3">
      <path d="M 94.479773 133.452 
L 94.479773 35.256 
" clip-path="url(#pa683f7e931)" style="fill: none; stroke-dasharray: 0.8,1.32; stroke-dashoffset: 0; stroke: #b0b0b0; stroke-width: 0.8"/>
     </g>
     <g id="line2d_4">
      <g>
       <use xlink:href="#mc57968df8a" x="94.479773" y="133.452" style="stroke: #000000; stroke-width: 0.8"/>
      </g>
     </g>
    </g>
    <g id="xtick_3">
     <g id="line2d_5">
      <path d="M 149.159545 133.452 
L 149.159545 35.256 
" clip-path="url(#pa683f7e931)" style="fill: none; stroke-dasharray: 0.8,1.32; stroke-dashoffset: 0; stroke: #b0b0b0; stroke-width: 0.8"/>
     </g>
     <g id="line2d_6">
      <g>
       <use xlink:href="#mc57968df8a" x="149.159545" y="133.452" style="stroke: #000000; stroke-width: 0.8"/>
      </g>
     </g>
    </g>
    <g id="xtick_4">
     <g id="line2d_7">
      <path d="M 203.839318 133.452 
L 203.839318 35.256 
" clip-path="url(#pa683f7e931)" style="fill: none; stroke-dasharray: 0.8,1.32; stroke-dashoffset: 0; stroke: #b0b0b0; stroke-width: 0.8"/>
     </g>
     <g id="line2d_8">
      <g>
       <use xlink:href="#mc57968df8a" x="203.839318" y="133.452" style="stroke: #000000; stroke-width: 0.8"/>
      </g>
     </g>
    </g>
    <g id="xtick_5">
     <g id="line2d_9">
      <path d="M 258.519091 133.452 
L 258.519091 35.256 
" clip-path="url(#pa683f7e931)" style="fill: none; stroke-dasharray: 0.8,1.32; stroke-dashoffset: 0; stroke: #b0b0b0; stroke-width: 0.8"/>
     </g>
     <g id="line2d_10">
      <g>
       <use xlink:href="#mc57968df8a" x="258.519091" y="133.452" style="stroke: #000000; stroke-width: 0.8"/>
      </g>
     </g>
    </g>
   </g>
   <g id="matplotlib.axis_2">
    <g id="ytick_1">
     <g id="line2d_11">
      <path d="M 39.8 129.027909 
L 258.519091 129.027909 
" clip-path="url(#pa683f7e931)" style="fill: none; stroke-dasharray: 0.8,1.32; stroke-dashoffset: 0; stroke: #b0b0b0; stroke-width: 0.8"/>
     </g>
     <g id="line2d_12">
      <defs>
       <path id="maa39c4135a" d="M 0 0 
L -3.5 0 
" style="stroke: #000000; stroke-width: 0.8"/>
      </defs>
      <g>
       <use xlink:href="#maa39c4135a" x="39.8" y="129.027909" style="stroke: #000000; stroke-width: 0.8"/>
      </g>
     </g>
     <g id="text_1">
      <!-- 0.0 -->
      <g transform="translate(20.3 132.442753)scale(0.1 -0.1)">
       <defs>
        <path id="STIXGeneral-Regular-30" d="M 3046 2112 
Q 3046 1683 2963 1302 
Q 2880 922 2717 602 
Q 2554 282 2266 96 
Q 1978 -90 1600 -90 
Q 1210 -90 915 108 
Q 621 307 461 640 
Q 301 973 227 1350 
Q 154 1728 154 2150 
Q 154 2746 301 3222 
Q 448 3699 790 4012 
Q 1133 4326 1626 4326 
Q 2253 4326 2649 3712 
Q 3046 3098 3046 2112 
z
M 2432 2080 
Q 2432 3091 2217 3625 
Q 2003 4160 1587 4160 
Q 1190 4160 979 3622 
Q 768 3085 768 2106 
Q 768 1120 979 598 
Q 1190 77 1600 77 
Q 2003 77 2217 598 
Q 2432 1120 2432 2080 
z
" transform="scale(0.015625)"/>
        <path id="STIXGeneral-Regular-2e" d="M 1158 275 
Q 1158 134 1052 32 
Q 947 -70 800 -70 
Q 653 -70 550 32 
Q 448 134 448 281 
Q 448 429 553 534 
Q 659 640 806 640 
Q 947 640 1052 531 
Q 1158 422 1158 275 
z
" transform="scale(0.015625)"/>
       </defs>
       <use xlink:href="#STIXGeneral-Regular-30"/>
       <use xlink:href="#STIXGeneral-Regular-2e" x="49.999985"/>
       <use xlink:href="#STIXGeneral-Regular-30" x="74.999969"/>
      </g>
     </g>
    </g>
    <g id="ytick_2">
     <g id="line2d_13">
      <path d="M 39.8 90.621098 
L 258.519091 90.621098 
" clip-path="url(#pa683f7e931)" style="fill: none; stroke-dasharray: 0.8,1.32; stroke-dashoffset: 0; stroke: #b0b0b0; stroke-width: 0.8"/>
     </g>
     <g id="line2d_14">
      <g>
       <use xlink:href="#maa39c4135a" x="39.8" y="90.621098" style="stroke: #000000; stroke-width: 0.8"/>
      </g>
     </g>
     <g id="text_2">
      <!-- 0.5 -->
      <g transform="translate(20.3 94.035942)scale(0.1 -0.1)">
       <defs>
        <path id="STIXGeneral-Regular-35" d="M 2803 4358 
L 2573 3814 
Q 2534 3731 2400 3731 
L 1158 3731 
L 902 3187 
Q 1606 3053 1920 2896 
Q 2234 2739 2502 2368 
Q 2726 2061 2726 1555 
Q 2726 1094 2576 780 
Q 2426 467 2099 224 
Q 1664 -90 1011 -90 
Q 646 -90 422 19 
Q 198 128 198 307 
Q 198 550 486 550 
Q 717 550 960 352 
Q 1210 147 1414 147 
Q 1747 147 2012 480 
Q 2278 813 2278 1229 
Q 2278 1843 1850 2189 
Q 1293 2637 486 2637 
Q 410 2637 410 2688 
L 416 2720 
L 1114 4237 
L 2438 4237 
Q 2547 4237 2608 4269 
Q 2669 4301 2746 4403 
L 2803 4358 
z
" transform="scale(0.015625)"/>
       </defs>
       <use xlink:href="#STIXGeneral-Regular-30"/>
       <use xlink:href="#STIXGeneral-Regular-2e" x="49.999985"/>
       <use xlink:href="#STIXGeneral-Regular-35" x="74.999969"/>
      </g>
     </g>
    </g>
    <g id="ytick_3">
     <g id="line2d_15">
      <path d="M 39.8 52.214287 
L 258.519091 52.214287 
" clip-path="url(#pa683f7e931)" style="fill: none; stroke-dasharray: 0.8,1.32; stroke-dashoffset: 0; stroke: #b0b0b0; stroke-width: 0.8"/>
     </g>
     <g id="line2d_16">
      <g>
       <use xlink:href="#maa39c4135a" x="39.8" y="52.214287" style="stroke: #000000; stroke-width: 0.8"/>
      </g>
     </g>
     <g id="text_3">
      <!-- 1.0 -->
      <g transform="translate(20.3 55.629131)scale(0.1 -0.1)">
       <defs>
        <path id="STIXGeneral-Regular-31" d="M 2522 0 
L 755 0 
L 755 96 
Q 1107 115 1235 227 
Q 1363 339 1363 608 
L 1363 3482 
Q 1363 3795 1171 3795 
Q 1082 3795 883 3718 
L 710 3654 
L 710 3744 
L 1856 4326 
L 1914 4307 
L 1914 486 
Q 1914 275 2042 185 
Q 2170 96 2522 96 
L 2522 0 
z
" transform="scale(0.015625)"/>
       </defs>
       <use xlink:href="#STIXGeneral-Regular-31"/>
       <use xlink:href="#STIXGeneral-Regular-2e" x="49.999985"/>
       <use xlink:href="#STIXGeneral-Regular-30" x="74.999969"/>
      </g>
     </g>
    </g>
    <g id="text_4">
     <!-- $V/V_c$ [-] -->
     <g transform="translate(14.129688 101.204)rotate(-90)scale(0.1 -0.1)">
      <defs>
       <path id="DejaVuSans-Oblique-56" d="M 1319 0 
L 500 4666 
L 1119 4666 
L 1797 653 
L 4063 4666 
L 4750 4666 
L 2053 0 
L 1319 0 
z
" transform="scale(0.015625)"/>
       <path id="DejaVuSans-2f" d="M 1625 4666 
L 2156 4666 
L 531 -594 
L 0 -594 
L 1625 4666 
z
" transform="scale(0.015625)"/>
       <path id="DejaVuSans-Oblique-63" d="M 3431 3366 
L 3316 2797 
Q 3109 2947 2876 3022 
Q 2644 3097 2394 3097 
Q 2119 3097 1870 3000 
Q 1622 2903 1453 2725 
Q 1184 2453 1037 2087 
Q 891 1722 891 1331 
Q 891 859 1127 628 
Q 1363 397 1844 397 
Q 2081 397 2348 469 
Q 2616 541 2906 684 
L 2797 116 
Q 2547 13 2283 -39 
Q 2019 -91 1741 -91 
Q 1044 -91 669 257 
Q 294 606 294 1253 
Q 294 1797 489 2255 
Q 684 2713 1069 3078 
Q 1331 3328 1684 3456 
Q 2038 3584 2456 3584 
Q 2700 3584 2940 3529 
Q 3181 3475 3431 3366 
z
" transform="scale(0.015625)"/>
       <path id="STIXGeneral-Regular-20" transform="scale(0.015625)"/>
       <path id="STIXGeneral-Regular-5b" d="M 1914 -998 
L 563 -998 
L 563 4237 
L 1914 4237 
L 1914 4077 
L 1382 4077 
Q 1216 4077 1133 4006 
Q 1050 3936 1050 3770 
L 1050 -493 
Q 1050 -838 1382 -838 
L 1914 -838 
L 1914 -998 
z
" transform="scale(0.015625)"/>
       <path id="STIXGeneral-Regular-2d" d="M 1824 1242 
L 250 1242 
L 250 1645 
L 1824 1645 
L 1824 1242 
z
" transform="scale(0.015625)"/>
       <path id="STIXGeneral-Regular-5d" d="M 1568 -998 
L 218 -998 
L 218 -838 
L 781 -838 
Q 947 -838 1014 -768 
Q 1082 -698 1082 -544 
L 1082 3731 
Q 1082 4077 755 4077 
L 218 4077 
L 218 4237 
L 1568 4237 
L 1568 -998 
z
" transform="scale(0.015625)"/>
      </defs>
      <use xlink:href="#DejaVuSans-Oblique-56" transform="translate(0 0.09375)"/>
      <use xlink:href="#DejaVuSans-2f" transform="translate(68.408203 0.09375)"/>
      <use xlink:href="#DejaVuSans-Oblique-56" transform="translate(102.099609 0.09375)"/>
      <use xlink:href="#DejaVuSans-Oblique-63" transform="translate(170.507812 -16.3125)scale(0.7)"/>
      <use xlink:href="#STIXGeneral-Regular-20" transform="translate(211.728516 0.09375)"/>
      <use xlink:href="#STIXGeneral-Regular-5b" transform="translate(236.7285 0.09375)"/>
      <use xlink:href="#STIXGeneral-Regular-2d" transform="translate(270.028488 0.09375)"/>
      <use xlink:href="#STIXGeneral-Regular-5d" transform="translate(303.328476 0.09375)"/>
     </g>
    </g>
   </g>
   <g id="line2d_17">
    <path d="M -1 125.750269 
L 3.413224 125.600749 
L 9.75002 125.360925 
L 16.086817 125.095337 
L 22.423613 124.805987 
L 28.76041 124.48698 
L 35.097207 124.134201 
L 41.434003 123.740834 
L 47.7708 123.298879 
L 54.107596 122.79602 
L 60.444393 122.21668 
L 66.78119 121.535777 
L 73.117986 120.720276 
L 79.454783 119.71558 
L 85.791579 118.447355 
L 92.128376 116.792777 
L 98.465173 114.580632 
L 104.801969 111.533453 
L 111.138766 107.260673 
L 117.475562 101.157987 
L 123.812359 92.424468 
L 130.149156 80.125186 
L 136.485952 63.417642 
L 142.822749 46.218874 
L 149.159545 39.719455 
L 155.496342 46.715883 
L 161.833139 59.016149 
L 168.169935 71.938079 
L 174.506732 84.343083 
L 180.843528 92.579075 
L 187.180325 97.665864 
L 193.517122 102.961115 
L 199.853918 107.588803 
L 206.190715 111.290855 
L 212.527512 114.125408 
L 218.864308 116.244321 
L 225.201105 117.842806 
L 231.537901 119.074902 
L 237.874698 120.05061 
L 244.211495 120.844238 
L 250.548291 121.505341 
L 256.885088 122.067823 
L 263.221884 122.554704 
L 269.558681 122.982382 
L 275.895478 123.362361 
L 282.232274 123.703307 
L 288.569071 124.011285 
L 294.905867 124.292459 
L 301.242664 124.547492 
L 307.916656 124.787406 
L 315.697462 125.046852 
L 325.182024 125.336868 
L 336.732389 125.647143 
L 350.78217 125.97656 
L 367.848105 126.316358 
L 388.542165 126.659711 
L 413.58357 126.996928 
L 443.809501 127.319341 
L 480.182868 127.618365 
L 523.794659 127.887191 
L 575.857391 128.12119 
L 617.649977 128.254479 
" clip-path="url(#pa683f7e931)" style="fill: none; stroke: #1f77b4; stroke-width: 2; stroke-linecap: square"/>
   </g>
   <g id="line2d_18">
    <path d="M -1 125.550919 
L 2.216155 125.439957 
L 9.353046 125.170171 
L 15.47472 124.922176 
L 21.287104 124.659455 
L 27.099488 124.369329 
L 32.911871 124.053297 
L 38.724255 123.705137 
L 44.536639 123.320126 
L 50.349022 122.890808 
L 56.161406 122.408245 
L 61.97379 121.859079 
L 67.786174 121.226059 
L 73.598557 120.482443 
L 79.410941 119.592125 
L 85.223325 118.49816 
L 91.035708 117.120938 
L 96.848092 115.334879 
L 102.660476 112.961573 
L 108.47286 109.726783 
L 114.285243 105.256935 
L 120.097627 99.041653 
L 125.910011 90.565159 
L 131.722394 79.335156 
L 137.534778 65.518368 
L 143.347162 51.591499 
L 149.159545 42.642217 
L 154.971929 43.208268 
L 160.784313 51.896678 
L 166.596697 63.366085 
L 172.40908 75.367164 
L 178.221464 87.034057 
L 184.033848 94.981366 
L 189.846231 100.326739 
L 195.658615 104.900362 
L 201.470999 108.668801 
L 207.283382 111.728739 
L 213.095766 114.16125 
L 218.90815 116.065894 
L 224.720534 117.558337 
L 230.532917 118.744561 
L 236.345301 119.707646 
L 242.157685 120.507001 
L 247.970068 121.183887 
L 253.782452 121.766935 
L 259.594836 122.276348 
L 265.40722 122.726522 
L 271.219603 123.128245 
L 277.031987 123.488984 
L 282.844371 123.816737 
L 288.656754 124.111448 
L 294.778429 124.387835 
L 301.91532 124.685591 
L 310.61497 125.014416 
L 321.209464 125.363237 
L 334.096531 125.72917 
L 349.750143 126.101786 
L 368.73163 126.472968 
L 391.700688 126.8322 
L 419.425219 127.17155 
L 452.788443 127.483719 
L 492.791062 127.764083 
L 540.54525 128.009658 
L 597.256876 128.219424 
L 617.649977 128.272598 
" clip-path="url(#pa683f7e931)" style="fill: none; stroke: #ff7f0e; stroke-width: 2; stroke-linecap: square"/>
   </g>
   <g id="line2d_19">
    <path d="M -1 125.320877 
L 7.634663 124.969094 
L 15.260402 124.615499 
L 21.516294 124.29741 
L 26.88229 124.004578 
L 31.977176 123.694326 
L 37.072062 123.351569 
L 42.166947 122.977923 
L 47.261833 122.566085 
L 52.356718 122.110386 
L 57.451604 121.602142 
L 62.54649 121.030741 
L 67.641375 120.38088 
L 72.736261 119.632367 
L 77.831147 118.755119 
L 82.926032 117.70762 
L 88.020918 116.427052 
L 93.115804 114.823854 
L 98.210689 112.763261 
L 103.305575 110.054041 
L 108.40046 106.425553 
L 113.495346 101.533039 
L 118.590232 94.97815 
L 123.685117 86.432006 
L 128.780003 75.657234 
L 133.874889 63.237778 
L 138.969774 51.495871 
L 144.06466 43.671561 
L 149.159545 42.594589 
L 154.254431 48.302887 
L 159.349317 57.48343 
L 164.444202 67.690914 
L 169.539088 78.398903 
L 174.633974 88.28735 
L 179.728859 95.367014 
L 184.823745 100.473333 
L 189.91863 104.564168 
L 195.013516 107.894929 
L 200.108402 110.64957 
L 205.203287 112.920177 
L 210.298173 114.769678 
L 215.393059 116.26981 
L 220.487944 117.497189 
L 225.58283 118.517578 
L 230.677716 119.381101 
L 235.772601 120.123843 
L 240.867487 120.771735 
L 245.962372 121.343297 
L 251.057258 121.852486 
L 256.152144 122.308847 
L 261.247029 122.722868 
L 266.341915 123.094031 
L 271.707911 123.441719 
L 277.963804 123.815939 
L 285.589543 124.227238 
L 294.87622 124.661977 
L 306.172469 125.115428 
L 319.893753 125.574124 
L 336.532107 126.026871 
L 356.665797 126.459977 
L 380.967928 126.86354 
L 410.212696 127.229145 
L 445.277272 127.55287 
L 487.136539 127.833299 
L 536.847512 128.071654 
L 595.519265 128.270323 
L 617.649977 128.32257 
" clip-path="url(#pa683f7e931)" style="fill: none; stroke: #2ca02c; stroke-width: 2; stroke-linecap: square"/>
   </g>
   <g id="line2d_20">
    <path d="M -1 125.35461 
L 8.224838 124.973538 
L 18.04567 124.492728 
L 26.119403 124.037088 
L 32.749135 123.610765 
L 38.187937 123.226722 
L 42.853074 122.872864 
L 47.28251 122.497884 
L 51.711947 122.083387 
L 56.141383 121.631334 
L 60.570819 121.132964 
L 65.000256 120.581427 
L 69.429692 119.966525 
L 73.859128 119.275569 
L 78.288565 118.490918 
L 82.718001 117.58882 
L 87.147437 116.535285 
L 91.576874 115.282498 
L 96.00631 113.761174 
L 100.435746 111.871702 
L 104.865182 109.47277 
L 109.294619 106.3685 
L 113.724055 102.308416 
L 118.153491 96.996129 
L 122.582928 90.142136 
L 127.012364 81.544736 
L 131.4418 71.144165 
L 135.871237 59.763505 
L 140.300673 49.60216 
L 144.730109 43.150504 
L 149.159545 42.121594 
L 153.588982 46.316734 
L 158.018418 53.641654 
L 162.447854 62.308712 
L 166.877291 71.613355 
L 171.306727 80.960947 
L 175.736163 89.101612 
L 180.1656 95.194457 
L 184.595036 99.774258 
L 189.024472 103.416176 
L 193.453908 106.427721 
L 197.883345 108.995268 
L 202.312781 111.189709 
L 206.742217 113.038295 
L 211.171654 114.582541 
L 215.60109 115.877851 
L 220.030526 116.977146 
L 224.459963 117.923058 
L 228.889399 118.747797 
L 233.318835 119.474876 
L 237.748272 120.12216 
L 242.177708 120.701863 
L 246.607144 121.227503 
L 251.03658 121.698264 
L 255.701717 122.139054 
L 261.14052 122.613364 
L 267.770252 123.133829 
L 275.843985 123.68321 
L 285.664816 124.25497 
L 297.593946 124.831915 
L 312.059145 125.399124 
L 329.563148 125.938697 
L 350.691148 126.437565 
L 376.11622 126.884804 
L 406.600968 127.275876 
L 442.992945 127.609991 
L 486.211106 127.890466 
L 537.219669 128.12218 
L 596.986075 128.310876 
L 617.649977 128.355876 
" clip-path="url(#pa683f7e931)" style="fill: none; stroke: #d62728; stroke-width: 2; stroke-linecap: square"/>
   </g>
   <g id="line2d_21">
    <path d="M -1 125.436227 
L 2.900948 125.290666 
L 15.544658 124.701547 
L 25.971647 124.112022 
L 34.555818 123.536201 
L 41.612888 122.989954 
L 47.40779 122.478393 
L 52.161726 122.017106 
L 56.239419 121.591881 
L 60.111091 121.141232 
L 63.982763 120.642947 
L 67.854435 120.099444 
L 71.726107 119.500302 
L 75.597779 118.837375 
L 79.469451 118.098818 
L 83.341122 117.269735 
L 87.212794 116.33002 
L 91.084466 115.25234 
L 94.956138 113.998868 
L 98.82781 112.51617 
L 102.699482 110.729862 
L 106.571154 108.534518 
L 110.442826 105.789296 
L 114.314498 102.307465 
L 118.18617 97.871664 
L 122.057842 92.242531 
L 125.929514 85.218436 
L 129.801186 76.688083 
L 133.672858 66.72649 
L 137.54453 56.29072 
L 141.416202 47.42647 
L 145.287874 42.125612 
L 149.159545 41.398991 
L 153.031217 44.810836 
L 156.902889 50.893738 
L 160.774561 58.366473 
L 164.646233 66.540518 
L 168.517905 74.942451 
L 172.389577 82.90024 
L 176.261249 89.599927 
L 180.132921 94.769858 
L 184.004593 98.77139 
L 187.876265 102.009696 
L 191.747937 104.772776 
L 195.619609 107.214737 
L 199.491281 109.368346 
L 203.362953 111.231417 
L 207.234625 112.824626 
L 211.106296 114.188305 
L 214.977968 115.365244 
L 218.84964 116.392089 
L 222.721312 117.297184 
L 226.592984 118.102633 
L 230.464656 118.823685 
L 234.336328 119.477281 
L 238.208 120.062412 
L 242.285693 120.610158 
L 247.039629 121.199471 
L 252.834531 121.845752 
L 259.891602 122.527546 
L 268.475772 123.236491 
L 278.90276 123.951246 
L 291.546469 124.652866 
L 306.846329 125.318738 
L 325.313845 125.932134 
L 347.537336 126.479008 
L 374.183378 126.953538 
L 405.992797 127.35483 
L 443.768832 127.687787 
L 488.354284 127.95966 
L 540.594773 128.179055 
L 601.285346 128.353998 
L 617.649977 128.386294 
" clip-path="url(#pa683f7e931)" style="fill: none; stroke: #9467bd; stroke-width: 2; stroke-linecap: square"/>
   </g>
   <g id="patch_3">
    <path d="M 39.8 133.452 
L 39.8 35.256 
" style="fill: none; stroke: #000000; stroke-width: 0.8; stroke-linejoin: miter; stroke-linecap: square"/>
   </g>
   <g id="patch_4">
    <path d="M 258.519091 133.452 
L 258.519091 35.256 
" style="fill: none; stroke: #000000; stroke-width: 0.8; stroke-linejoin: miter; stroke-linecap: square"/>
   </g>
   <g id="patch_5">
    <path d="M 39.8 133.452 
L 258.519091 133.452 
" style="fill: none; stroke: #000000; stroke-width: 0.8; stroke-linejoin: miter; stroke-linecap: square"/>
   </g>
   <g id="patch_6">
    <path d="M 39.8 35.256 
L 258.519091 35.256 
" style="fill: none; stroke: #000000; stroke-width: 0.8; stroke-linejoin: miter; stroke-linecap: square"/>
   </g>
   <g id="text_5">
    <!-- $C_T = 0.8$ -->
    <g transform="translate(125.459545 29.256)scale(0.12 -0.12)">
     <defs>
      <path id="DejaVuSans-Oblique-43" d="M 4447 4306 
L 4319 3641 
Q 4019 3944 3683 4091 
Q 3347 4238 2956 4238 
Q 2422 4238 2017 3981 
Q 1613 3725 1319 3200 
Q 1131 2863 1032 2486 
Q 934 2109 934 1728 
Q 934 1091 1264 756 
Q 1594 422 2222 422 
Q 2656 422 3056 561 
Q 3456 700 3834 978 
L 3688 231 
Q 3316 72 2936 -9 
Q 2556 -91 2175 -91 
Q 1278 -91 773 396 
Q 269 884 269 1753 
Q 269 2309 461 2846 
Q 653 3384 1013 3828 
Q 1394 4300 1883 4525 
Q 2372 4750 3022 4750 
Q 3422 4750 3780 4639 
Q 4138 4528 4447 4306 
z
" transform="scale(0.015625)"/>
      <path id="DejaVuSans-Oblique-54" d="M 378 4666 
L 4325 4666 
L 4225 4134 
L 2559 4134 
L 1759 0 
L 1125 0 
L 1925 4134 
L 275 4134 
L 378 4666 
z
" transform="scale(0.015625)"/>
      <path id="DejaVuSans-3d" d="M 678 2906 
L 4684 2906 
L 4684 2381 
L 678 2381 
L 678 2906 
z
M 678 1631 
L 4684 1631 
L 4684 1100 
L 678 1100 
L 678 1631 
z
" transform="scale(0.015625)"/>
      <path id="DejaVuSans-30" d="M 2034 4250 
Q 1547 4250 1301 3770 
Q 1056 3291 1056 2328 
Q 1056 1369 1301 889 
Q 1547 409 2034 409 
Q 2525 409 2770 889 
Q 3016 1369 3016 2328 
Q 3016 3291 2770 3770 
Q 2525 4250 2034 4250 
z
M 2034 4750 
Q 2819 4750 3233 4129 
Q 3647 3509 3647 2328 
Q 3647 1150 3233 529 
Q 2819 -91 2034 -91 
Q 1250 -91 836 529 
Q 422 1150 422 2328 
Q 422 3509 836 4129 
Q 1250 4750 2034 4750 
z
" transform="scale(0.015625)"/>
      <path id="DejaVuSans-2e" d="M 684 794 
L 1344 794 
L 1344 0 
L 684 0 
L 684 794 
z
" transform="scale(0.015625)"/>
      <path id="DejaVuSans-38" d="M 2034 2216 
Q 1584 2216 1326 1975 
Q 1069 1734 1069 1313 
Q 1069 891 1326 650 
Q 1584 409 2034 409 
Q 2484 409 2743 651 
Q 3003 894 3003 1313 
Q 3003 1734 2745 1975 
Q 2488 2216 2034 2216 
z
M 1403 2484 
Q 997 2584 770 2862 
Q 544 3141 544 3541 
Q 544 4100 942 4425 
Q 1341 4750 2034 4750 
Q 2731 4750 3128 4425 
Q 3525 4100 3525 3541 
Q 3525 3141 3298 2862 
Q 3072 2584 2669 2484 
Q 3125 2378 3379 2068 
Q 3634 1759 3634 1313 
Q 3634 634 3220 271 
Q 2806 -91 2034 -91 
Q 1263 -91 848 271 
Q 434 634 434 1313 
Q 434 1759 690 2068 
Q 947 2378 1403 2484 
z
M 1172 3481 
Q 1172 3119 1398 2916 
Q 1625 2713 2034 2713 
Q 2441 2713 2670 2916 
Q 2900 3119 2900 3481 
Q 2900 3844 2670 4047 
Q 2441 4250 2034 4250 
Q 1625 4250 1398 4047 
Q 1172 3844 1172 3481 
z
" transform="scale(0.015625)"/>
     </defs>
     <use xlink:href="#DejaVuSans-Oblique-43" transform="translate(0 0.78125)"/>
     <use xlink:href="#DejaVuSans-Oblique-54" transform="translate(69.824219 -15.625)scale(0.7)"/>
     <use xlink:href="#DejaVuSans-3d" transform="translate(134.799805 0.78125)"/>
     <use xlink:href="#DejaVuSans-30" transform="translate(238.071289 0.78125)"/>
     <use xlink:href="#DejaVuSans-2e" transform="translate(301.694336 0.78125)"/>
     <use xlink:href="#DejaVuSans-38" transform="translate(330.856445 0.78125)"/>
    </g>
   </g>
  </g>
  <g id="axes_2">
   <g id="patch_7">
    <path d="M 302.262909 133.452 
L 520.982 133.452 
L 520.982 35.256 
L 302.262909 35.256 
z
" style="fill: #ffffff"/>
   </g>
   <g id="matplotlib.axis_3">
    <g id="xtick_6">
     <g id="line2d_22">
      <path d="M 302.262909 133.452 
L 302.262909 35.256 
" clip-path="url(#p42b4046ccc)" style="fill: none; stroke-dasharray: 0.8,1.32; stroke-dashoffset: 0; stroke: #b0b0b0; stroke-width: 0.8"/>
     </g>
     <g id="line2d_23">
      <g>
       <use xlink:href="#mc57968df8a" x="302.262909" y="133.452" style="stroke: #000000; stroke-width: 0.8"/>
      </g>
     </g>
    </g>
    <g id="xtick_7">
     <g id="line2d_24">
      <path d="M 356.942682 133.452 
L 356.942682 35.256 
" clip-path="url(#p42b4046ccc)" style="fill: none; stroke-dasharray: 0.8,1.32; stroke-dashoffset: 0; stroke: #b0b0b0; stroke-width: 0.8"/>
     </g>
     <g id="line2d_25">
      <g>
       <use xlink:href="#mc57968df8a" x="356.942682" y="133.452" style="stroke: #000000; stroke-width: 0.8"/>
      </g>
     </g>
    </g>
    <g id="xtick_8">
     <g id="line2d_26">
      <path d="M 411.622455 133.452 
L 411.622455 35.256 
" clip-path="url(#p42b4046ccc)" style="fill: none; stroke-dasharray: 0.8,1.32; stroke-dashoffset: 0; stroke: #b0b0b0; stroke-width: 0.8"/>
     </g>
     <g id="line2d_27">
      <g>
       <use xlink:href="#mc57968df8a" x="411.622455" y="133.452" style="stroke: #000000; stroke-width: 0.8"/>
      </g>
     </g>
    </g>
    <g id="xtick_9">
     <g id="line2d_28">
      <path d="M 466.302227 133.452 
L 466.302227 35.256 
" clip-path="url(#p42b4046ccc)" style="fill: none; stroke-dasharray: 0.8,1.32; stroke-dashoffset: 0; stroke: #b0b0b0; stroke-width: 0.8"/>
     </g>
     <g id="line2d_29">
      <g>
       <use xlink:href="#mc57968df8a" x="466.302227" y="133.452" style="stroke: #000000; stroke-width: 0.8"/>
      </g>
     </g>
    </g>
    <g id="xtick_10">
     <g id="line2d_30">
      <path d="M 520.982 133.452 
L 520.982 35.256 
" clip-path="url(#p42b4046ccc)" style="fill: none; stroke-dasharray: 0.8,1.32; stroke-dashoffset: 0; stroke: #b0b0b0; stroke-width: 0.8"/>
     </g>
     <g id="line2d_31">
      <g>
       <use xlink:href="#mc57968df8a" x="520.982" y="133.452" style="stroke: #000000; stroke-width: 0.8"/>
      </g>
     </g>
    </g>
   </g>
   <g id="matplotlib.axis_4">
    <g id="ytick_4">
     <g id="line2d_32">
      <path d="M 302.262909 129.027909 
L 520.982 129.027909 
" clip-path="url(#p42b4046ccc)" style="fill: none; stroke-dasharray: 0.8,1.32; stroke-dashoffset: 0; stroke: #b0b0b0; stroke-width: 0.8"/>
     </g>
     <g id="line2d_33">
      <g>
       <use xlink:href="#maa39c4135a" x="302.262909" y="129.027909" style="stroke: #000000; stroke-width: 0.8"/>
      </g>
     </g>
    </g>
    <g id="ytick_5">
     <g id="line2d_34">
      <path d="M 302.262909 90.621098 
L 520.982 90.621098 
" clip-path="url(#p42b4046ccc)" style="fill: none; stroke-dasharray: 0.8,1.32; stroke-dashoffset: 0; stroke: #b0b0b0; stroke-width: 0.8"/>
     </g>
     <g id="line2d_35">
      <g>
       <use xlink:href="#maa39c4135a" x="302.262909" y="90.621098" style="stroke: #000000; stroke-width: 0.8"/>
      </g>
     </g>
    </g>
    <g id="ytick_6">
     <g id="line2d_36">
      <path d="M 302.262909 52.214287 
L 520.982 52.214287 
" clip-path="url(#p42b4046ccc)" style="fill: none; stroke-dasharray: 0.8,1.32; stroke-dashoffset: 0; stroke: #b0b0b0; stroke-width: 0.8"/>
     </g>
     <g id="line2d_37">
      <g>
       <use xlink:href="#maa39c4135a" x="302.262909" y="52.214287" style="stroke: #000000; stroke-width: 0.8"/>
      </g>
     </g>
    </g>
   </g>
   <g id="line2d_38">
    <path d="M -1 128.65013 
L 43.324139 128.523386 
L 86.935923 128.33466 
L 123.309299 128.106688 
L 153.535228 127.844424 
L 178.576629 127.555743 
L 199.270691 127.251273 
L 216.336626 126.941627 
L 230.386408 126.636882 
L 241.936773 126.345906 
L 251.421335 126.073199 
L 259.20214 125.826863 
L 265.876133 125.600749 
L 272.212929 125.360925 
L 278.549726 125.095337 
L 284.886522 124.805987 
L 291.223319 124.48698 
L 297.560116 124.134201 
L 303.896912 123.740834 
L 310.233709 123.298879 
L 316.570505 122.79602 
L 322.907302 122.21668 
L 329.244099 121.535777 
L 335.580895 120.720276 
L 341.917692 119.71558 
L 348.254488 118.447355 
L 354.591285 116.792777 
L 360.928082 114.580632 
L 367.264878 111.533453 
L 373.601675 107.260673 
L 379.938472 101.157987 
L 386.275268 92.424468 
L 392.612065 80.125186 
L 398.948861 63.417642 
L 405.285658 46.218874 
L 411.622455 39.719455 
L 417.959251 46.715883 
L 424.296048 59.016149 
L 430.632844 71.938079 
L 436.969641 84.343083 
L 443.306438 92.579075 
L 449.643234 97.665864 
L 455.980031 102.961115 
L 462.316827 107.588803 
L 468.653624 111.290855 
L 474.990421 114.125408 
L 481.327217 116.244321 
L 487.664014 117.842806 
L 494.00081 119.074902 
L 500.337607 120.05061 
L 506.674404 120.844238 
L 513.0112 121.505341 
L 519.347997 122.067823 
L 525.684793 122.554704 
L 532.02159 122.982382 
L 538.358387 123.362361 
L 544.695183 123.703307 
L 551.03198 124.011285 
L 557.368776 124.292459 
L 563.705573 124.547492 
L 570.379565 124.787406 
L 578.160371 125.046852 
L 587.644933 125.336868 
L 599.195298 125.647143 
L 613.245079 125.97656 
L 617.649977 126.064266 
" clip-path="url(#p42b4046ccc)" style="fill: none; stroke: #1f77b4; stroke-width: 2; stroke-linecap: square"/>
   </g>
   <g id="line2d_39">
    <path d="M -1 128.550256 
L 26.049139 128.474389 
L 73.803322 128.272875 
L 113.805936 128.029055 
L 147.169168 127.746559 
L 174.893696 127.432552 
L 197.862751 127.096408 
L 216.84424 126.748848 
L 232.497853 126.400825 
L 245.384921 126.061479 
L 255.979414 125.740107 
L 264.679064 125.439957 
L 271.815955 125.170171 
L 277.937629 124.922176 
L 283.750013 124.659455 
L 289.562397 124.369329 
L 295.37478 124.053297 
L 301.187164 123.705137 
L 306.999548 123.320126 
L 312.811932 122.890808 
L 318.624315 122.408245 
L 324.436699 121.859079 
L 330.249083 121.226059 
L 336.061466 120.482443 
L 341.87385 119.592125 
L 347.686234 118.49816 
L 353.498618 117.120938 
L 359.311001 115.334879 
L 365.123385 112.961573 
L 370.935769 109.726783 
L 376.748152 105.256935 
L 382.560536 99.041653 
L 388.37292 90.565159 
L 394.185303 79.335156 
L 399.997687 65.518368 
L 405.810071 51.591499 
L 411.622455 42.642217 
L 417.434838 43.208268 
L 423.247222 51.896678 
L 429.059606 63.366085 
L 434.871989 75.367164 
L 440.684373 87.034057 
L 446.496757 94.981366 
L 452.30914 100.326739 
L 458.121524 104.900362 
L 463.933908 108.668801 
L 469.746292 111.728739 
L 475.558675 114.16125 
L 481.371059 116.065894 
L 487.183443 117.558337 
L 492.995826 118.744561 
L 498.80821 119.707646 
L 504.620594 120.507001 
L 510.432978 121.183887 
L 516.245361 121.766935 
L 522.057745 122.276348 
L 527.870129 122.726522 
L 533.682512 123.128245 
L 539.494896 123.488984 
L 545.30728 123.816737 
L 551.119663 124.111448 
L 557.241338 124.387835 
L 564.378229 124.685591 
L 573.077879 125.014416 
L 583.672373 125.363237 
L 596.55944 125.72917 
L 612.213052 126.101786 
L 617.649977 126.208105 
" clip-path="url(#p42b4046ccc)" style="fill: none; stroke: #ff7f0e; stroke-width: 2; stroke-linecap: square"/>
   </g>
   <g id="line2d_40">
    <path d="M -1 128.506403 
L 18.839617 128.451239 
L 68.55058 128.242623 
L 110.409844 127.986757 
L 145.474414 127.68516 
L 174.719189 127.342576 
L 199.021318 126.966742 
L 219.155005 126.567888 
L 235.793361 126.157227 
L 249.514645 125.747117 
L 260.810895 125.347441 
L 270.097572 124.969094 
L 277.723311 124.615499 
L 283.979203 124.29741 
L 289.345199 124.004578 
L 294.440085 123.694326 
L 299.534971 123.351569 
L 304.629856 122.977923 
L 309.724742 122.566085 
L 314.819628 122.110386 
L 319.914513 121.602142 
L 325.009399 121.030741 
L 330.104284 120.38088 
L 335.19917 119.632367 
L 340.294056 118.755119 
L 345.388941 117.70762 
L 350.483827 116.427052 
L 355.578713 114.823854 
L 360.673598 112.763261 
L 365.768484 110.054041 
L 370.86337 106.425553 
L 375.958255 101.533039 
L 381.053141 94.97815 
L 386.148026 86.432006 
L 391.242912 75.657234 
L 396.337798 63.237778 
L 401.432683 51.495871 
L 406.527569 43.671561 
L 411.622455 42.594589 
L 416.71734 48.302887 
L 421.812226 57.48343 
L 426.907111 67.690914 
L 432.001997 78.398903 
L 437.096883 88.28735 
L 442.191768 95.367014 
L 447.286654 100.473333 
L 452.38154 104.564168 
L 457.476425 107.894929 
L 462.571311 110.64957 
L 467.666196 112.920177 
L 472.761082 114.769678 
L 477.855968 116.26981 
L 482.950853 117.497189 
L 488.045739 118.517578 
L 493.140625 119.381101 
L 498.23551 120.123843 
L 503.330396 120.771735 
L 508.425282 121.343297 
L 513.520167 121.852486 
L 518.615053 122.308847 
L 523.709938 122.722868 
L 528.804824 123.094031 
L 534.17082 123.441719 
L 540.426713 123.815939 
L 548.052452 124.227238 
L 557.339129 124.661977 
L 568.635378 125.115428 
L 582.356662 125.574124 
L 598.995017 126.026871 
L 617.649977 126.428167 
" clip-path="url(#p42b4046ccc)" style="fill: none; stroke: #2ca02c; stroke-width: 2; stroke-linecap: square"/>
   </g>
   <g id="line2d_41">
    <path d="M -1 128.505484 
L 19.132893 128.451388 
L 70.14147 128.24276 
L 113.359623 127.982103 
L 149.751596 127.668022 
L 180.23634 127.302112 
L 205.661419 126.889385 
L 226.789416 126.437943 
L 244.293417 125.959382 
L 258.758617 125.466323 
L 270.687747 124.973538 
L 280.508579 124.492728 
L 288.582312 124.037088 
L 295.212044 123.610765 
L 300.650846 123.226722 
L 305.315983 122.872864 
L 309.74542 122.497884 
L 314.174856 122.083387 
L 318.604292 121.631334 
L 323.033728 121.132964 
L 327.463165 120.581427 
L 331.892601 119.966525 
L 336.322037 119.275569 
L 340.751474 118.490918 
L 345.18091 117.58882 
L 349.610346 116.535285 
L 354.039783 115.282498 
L 358.469219 113.761174 
L 362.898655 111.871702 
L 367.328092 109.47277 
L 371.757528 106.3685 
L 376.186964 102.308416 
L 380.6164 96.996129 
L 385.045837 90.142136 
L 389.475273 81.544736 
L 393.904709 71.144165 
L 398.334146 59.763505 
L 402.763582 49.60216 
L 407.193018 43.150504 
L 411.622455 42.121594 
L 416.051891 46.316734 
L 420.481327 53.641654 
L 424.910763 62.308712 
L 429.3402 71.613355 
L 433.769636 80.960947 
L 438.199072 89.101612 
L 442.628509 95.194457 
L 447.057945 99.774258 
L 451.487381 103.416176 
L 455.916818 106.427721 
L 460.346254 108.995268 
L 464.77569 111.189709 
L 469.205126 113.038295 
L 473.634563 114.582541 
L 478.063999 115.877851 
L 482.493435 116.977146 
L 486.922872 117.923058 
L 491.352308 118.747797 
L 495.781744 119.474876 
L 500.211181 120.12216 
L 504.640617 120.701863 
L 509.070053 121.227503 
L 513.49949 121.698264 
L 518.164626 122.139054 
L 523.603429 122.613364 
L 530.233161 123.133829 
L 538.306894 123.68321 
L 548.127725 124.25497 
L 560.056855 124.831915 
L 574.522054 125.399124 
L 592.026057 125.938697 
L 613.154057 126.437565 
L 617.649977 126.51665 
" clip-path="url(#p42b4046ccc)" style="fill: none; stroke: #d62728; stroke-width: 2; stroke-linecap: square"/>
   </g>
   <g id="line2d_42">
    <path d="M -1 128.515616 
L 16.315543 128.472595 
L 68.556042 128.27276 
L 113.141507 128.017786 
L 150.917535 127.703288 
L 182.726951 127.327368 
L 209.372988 126.891064 
L 231.596485 126.399548 
L 250.063999 125.861569 
L 265.363857 125.290666 
L 278.007568 124.701547 
L 288.434556 124.112022 
L 297.018727 123.536201 
L 304.075798 122.989954 
L 309.870699 122.478393 
L 314.624635 122.017106 
L 318.702328 121.591881 
L 322.574 121.141232 
L 326.445672 120.642947 
L 330.317344 120.099444 
L 334.189016 119.500302 
L 338.060688 118.837375 
L 341.93236 118.098818 
L 345.804032 117.269735 
L 349.675704 116.33002 
L 353.547375 115.25234 
L 357.419047 113.998868 
L 361.290719 112.51617 
L 365.162391 110.729862 
L 369.034063 108.534518 
L 372.905735 105.789296 
L 376.777407 102.307465 
L 380.649079 97.871664 
L 384.520751 92.242531 
L 388.392423 85.218436 
L 392.264095 76.688083 
L 396.135767 66.72649 
L 400.007439 56.29072 
L 403.879111 47.42647 
L 407.750783 42.125612 
L 411.622455 41.398991 
L 415.494126 44.810836 
L 419.365798 50.893738 
L 423.23747 58.366473 
L 427.109142 66.540518 
L 430.980814 74.942451 
L 434.852486 82.90024 
L 438.724158 89.599927 
L 442.59583 94.769858 
L 446.467502 98.77139 
L 450.339174 102.009696 
L 454.210846 104.772776 
L 458.082518 107.214737 
L 461.95419 109.368346 
L 465.825862 111.231417 
L 469.697534 112.824626 
L 473.569206 114.188305 
L 477.440878 115.365244 
L 481.312549 116.392089 
L 485.184221 117.297184 
L 489.055893 118.102633 
L 492.927565 118.823685 
L 496.799237 119.477281 
L 500.670909 120.062412 
L 504.748602 120.610158 
L 509.502538 121.199471 
L 515.29744 121.845752 
L 522.354511 122.527546 
L 530.938681 123.236491 
L 541.365669 123.951246 
L 554.009378 124.652866 
L 569.309238 125.318738 
L 587.776754 125.932134 
L 610.000246 126.479008 
L 617.649977 126.61524 
" clip-path="url(#p42b4046ccc)" style="fill: none; stroke: #9467bd; stroke-width: 2; stroke-linecap: square"/>
   </g>
   <g id="patch_8">
    <path d="M 302.262909 133.452 
L 302.262909 35.256 
" style="fill: none; stroke: #000000; stroke-width: 0.8; stroke-linejoin: miter; stroke-linecap: square"/>
   </g>
   <g id="patch_9">
    <path d="M 520.982 133.452 
L 520.982 35.256 
" style="fill: none; stroke: #000000; stroke-width: 0.8; stroke-linejoin: miter; stroke-linecap: square"/>
   </g>
   <g id="patch_10">
    <path d="M 302.262909 133.452 
L 520.982 133.452 
" style="fill: none; stroke: #000000; stroke-width: 0.8; stroke-linejoin: miter; stroke-linecap: square"/>
   </g>
   <g id="patch_11">
    <path d="M 302.262909 35.256 
L 520.982 35.256 
" style="fill: none; stroke: #000000; stroke-width: 0.8; stroke-linejoin: miter; stroke-linecap: square"/>
   </g>
   <g id="text_6">
    <!-- $C_T = 0.8$ -->
    <g transform="translate(387.922455 29.256)scale(0.12 -0.12)">
     <use xlink:href="#DejaVuSans-Oblique-43" transform="translate(0 0.78125)"/>
     <use xlink:href="#DejaVuSans-Oblique-54" transform="translate(69.824219 -15.625)scale(0.7)"/>
     <use xlink:href="#DejaVuSans-3d" transform="translate(134.799805 0.78125)"/>
     <use xlink:href="#DejaVuSans-30" transform="translate(238.071289 0.78125)"/>
     <use xlink:href="#DejaVuSans-2e" transform="translate(301.694336 0.78125)"/>
     <use xlink:href="#DejaVuSans-38" transform="translate(330.856445 0.78125)"/>
    </g>
   </g>
  </g>
  <g id="axes_3">
   <g id="patch_12">
    <path d="M 39.8 251.2872 
L 258.519091 251.2872 
L 258.519091 153.0912 
L 39.8 153.0912 
z
" style="fill: #ffffff"/>
   </g>
   <g id="matplotlib.axis_5">
    <g id="xtick_11">
     <g id="line2d_43">
      <path d="M 39.8 251.2872 
L 39.8 153.0912 
" clip-path="url(#p73c7b3986c)" style="fill: none; stroke-dasharray: 0.8,1.32; stroke-dashoffset: 0; stroke: #b0b0b0; stroke-width: 0.8"/>
     </g>
     <g id="line2d_44">
      <g>
       <use xlink:href="#mc57968df8a" x="39.8" y="251.2872" style="stroke: #000000; stroke-width: 0.8"/>
      </g>
     </g>
     <g id="text_7">
      <!-- −4 -->
      <g transform="translate(33.875 265.116888)scale(0.1 -0.1)">
       <defs>
        <path id="STIXGeneral-Regular-2212" d="M 3974 1408 
L 410 1408 
L 410 1830 
L 3974 1830 
L 3974 1408 
z
" transform="scale(0.015625)"/>
        <path id="STIXGeneral-Regular-34" d="M 3027 1069 
L 2368 1069 
L 2368 0 
L 1869 0 
L 1869 1069 
L 77 1069 
L 77 1478 
L 2086 4326 
L 2368 4326 
L 2368 1478 
L 3027 1478 
L 3027 1069 
z
M 1869 1478 
L 1869 3674 
L 333 1478 
L 1869 1478 
z
" transform="scale(0.015625)"/>
       </defs>
       <use xlink:href="#STIXGeneral-Regular-2212"/>
       <use xlink:href="#STIXGeneral-Regular-34" x="68.499985"/>
      </g>
     </g>
    </g>
    <g id="xtick_12">
     <g id="line2d_45">
      <path d="M 94.479773 251.2872 
L 94.479773 153.0912 
" clip-path="url(#p73c7b3986c)" style="fill: none; stroke-dasharray: 0.8,1.32; stroke-dashoffset: 0; stroke: #b0b0b0; stroke-width: 0.8"/>
     </g>
     <g id="line2d_46">
      <g>
       <use xlink:href="#mc57968df8a" x="94.479773" y="251.2872" style="stroke: #000000; stroke-width: 0.8"/>
      </g>
     </g>
     <g id="text_8">
      <!-- −2 -->
      <g transform="translate(88.554773 265.116888)scale(0.1 -0.1)">
       <defs>
        <path id="STIXGeneral-Regular-32" d="M 3034 877 
L 2688 0 
L 186 0 
L 186 77 
L 1325 1286 
Q 1773 1754 1965 2144 
Q 2157 2534 2157 2950 
Q 2157 3379 1920 3616 
Q 1683 3853 1267 3853 
Q 922 3853 720 3673 
Q 518 3494 326 3021 
L 192 3053 
Q 301 3648 630 3987 
Q 960 4326 1523 4326 
Q 2054 4326 2380 4006 
Q 2707 3686 2707 3200 
Q 2707 2477 1888 1613 
L 832 486 
L 2330 486 
Q 2541 486 2665 569 
Q 2790 653 2944 915 
L 3034 877 
z
" transform="scale(0.015625)"/>
       </defs>
       <use xlink:href="#STIXGeneral-Regular-2212"/>
       <use xlink:href="#STIXGeneral-Regular-32" x="68.499985"/>
      </g>
     </g>
    </g>
    <g id="xtick_13">
     <g id="line2d_47">
      <path d="M 149.159545 251.2872 
L 149.159545 153.0912 
" clip-path="url(#p73c7b3986c)" style="fill: none; stroke-dasharray: 0.8,1.32; stroke-dashoffset: 0; stroke: #b0b0b0; stroke-width: 0.8"/>
     </g>
     <g id="line2d_48">
      <g>
       <use xlink:href="#mc57968df8a" x="149.159545" y="251.2872" style="stroke: #000000; stroke-width: 0.8"/>
      </g>
     </g>
     <g id="text_9">
      <!-- 0 -->
      <g transform="translate(146.659545 265.116888)scale(0.1 -0.1)">
       <use xlink:href="#STIXGeneral-Regular-30"/>
      </g>
     </g>
    </g>
    <g id="xtick_14">
     <g id="line2d_49">
      <path d="M 203.839318 251.2872 
L 203.839318 153.0912 
" clip-path="url(#p73c7b3986c)" style="fill: none; stroke-dasharray: 0.8,1.32; stroke-dashoffset: 0; stroke: #b0b0b0; stroke-width: 0.8"/>
     </g>
     <g id="line2d_50">
      <g>
       <use xlink:href="#mc57968df8a" x="203.839318" y="251.2872" style="stroke: #000000; stroke-width: 0.8"/>
      </g>
     </g>
     <g id="text_10">
      <!-- 2 -->
      <g transform="translate(201.339318 265.116888)scale(0.1 -0.1)">
       <use xlink:href="#STIXGeneral-Regular-32"/>
      </g>
     </g>
    </g>
    <g id="xtick_15">
     <g id="line2d_51">
      <path d="M 258.519091 251.2872 
L 258.519091 153.0912 
" clip-path="url(#p73c7b3986c)" style="fill: none; stroke-dasharray: 0.8,1.32; stroke-dashoffset: 0; stroke: #b0b0b0; stroke-width: 0.8"/>
     </g>
     <g id="line2d_52">
      <g>
       <use xlink:href="#mc57968df8a" x="258.519091" y="251.2872" style="stroke: #000000; stroke-width: 0.8"/>
      </g>
     </g>
     <g id="text_11">
      <!-- 4 -->
      <g transform="translate(256.019091 265.116888)scale(0.1 -0.1)">
       <use xlink:href="#STIXGeneral-Regular-34"/>
      </g>
     </g>
    </g>
    <g id="text_12">
     <!-- $y^*_V/\sigma_{y,V}$ -->
     <g transform="translate(131.459545 280.3872)scale(0.1 -0.1)">
      <defs>
       <path id="DejaVuSans-Oblique-79" d="M 1588 -325 
Q 1188 -997 936 -1164 
Q 684 -1331 294 -1331 
L -159 -1331 
L -63 -850 
L 269 -850 
Q 509 -850 678 -719 
Q 847 -588 1056 -206 
L 1234 128 
L 459 3500 
L 1069 3500 
L 1650 819 
L 3256 3500 
L 3859 3500 
L 1588 -325 
z
" transform="scale(0.015625)"/>
       <path id="DejaVuSans-2a" d="M 3009 3897 
L 1888 3291 
L 3009 2681 
L 2828 2375 
L 1778 3009 
L 1778 1831 
L 1422 1831 
L 1422 3009 
L 372 2375 
L 191 2681 
L 1313 3291 
L 191 3897 
L 372 4206 
L 1422 3572 
L 1422 4750 
L 1778 4750 
L 1778 3572 
L 2828 4206 
L 3009 3897 
z
" transform="scale(0.015625)"/>
       <path id="DejaVuSans-Oblique-3c3" d="M 2219 3044 
Q 1744 3044 1422 2700 
Q 1081 2341 969 1747 
Q 844 1119 1044 756 
Q 1241 397 1706 397 
Q 2166 397 2503 759 
Q 2844 1122 2966 1747 
Q 3075 2319 2881 2700 
Q 2700 3044 2219 3044 
z
M 2309 3503 
L 4219 3500 
L 4106 2925 
L 3463 2925 
Q 3706 2438 3575 1747 
Q 3406 888 2884 400 
Q 2359 -91 1609 -91 
Q 856 -91 525 400 
Q 194 888 363 1747 
Q 528 2609 1050 3097 
Q 1484 3503 2309 3503 
z
" transform="scale(0.015625)"/>
       <path id="DejaVuSans-2c" d="M 750 794 
L 1409 794 
L 1409 256 
L 897 -744 
L 494 -744 
L 750 256 
L 750 794 
z
" transform="scale(0.015625)"/>
      </defs>
      <use xlink:href="#DejaVuSans-Oblique-79" transform="translate(0 0.765625)"/>
      <use xlink:href="#DejaVuSans-2a" transform="translate(77.283529 39.046875)scale(0.7)"/>
      <use xlink:href="#DejaVuSans-Oblique-56" transform="translate(59.179688 -26.578125)scale(0.7)"/>
      <use xlink:href="#DejaVuSans-2f" transform="translate(128.655599 0.765625)"/>
      <use xlink:href="#DejaVuSans-Oblique-3c3" transform="translate(162.347005 0.765625)"/>
      <use xlink:href="#DejaVuSans-Oblique-79" transform="translate(225.725911 -15.640625)scale(0.7)"/>
      <use xlink:href="#DejaVuSans-2c" transform="translate(267.151693 -15.640625)scale(0.7)"/>
      <use xlink:href="#DejaVuSans-Oblique-56" transform="translate(303.040365 -15.640625)scale(0.7)"/>
     </g>
    </g>
   </g>
   <g id="matplotlib.axis_6">
    <g id="ytick_7">
     <g id="line2d_53">
      <path d="M 39.8 246.863109 
L 258.519091 246.863109 
" clip-path="url(#p73c7b3986c)" style="fill: none; stroke-dasharray: 0.8,1.32; stroke-dashoffset: 0; stroke: #b0b0b0; stroke-width: 0.8"/>
     </g>
     <g id="line2d_54">
      <g>
       <use xlink:href="#maa39c4135a" x="39.8" y="246.863109" style="stroke: #000000; stroke-width: 0.8"/>
      </g>
     </g>
     <g id="text_13">
      <!-- 0.0 -->
      <g transform="translate(20.3 250.277953)scale(0.1 -0.1)">
       <use xlink:href="#STIXGeneral-Regular-30"/>
       <use xlink:href="#STIXGeneral-Regular-2e" x="49.999985"/>
       <use xlink:href="#STIXGeneral-Regular-30" x="74.999969"/>
      </g>
     </g>
    </g>
    <g id="ytick_8">
     <g id="line2d_55">
      <path d="M 39.8 208.456298 
L 258.519091 208.456298 
" clip-path="url(#p73c7b3986c)" style="fill: none; stroke-dasharray: 0.8,1.32; stroke-dashoffset: 0; stroke: #b0b0b0; stroke-width: 0.8"/>
     </g>
     <g id="line2d_56">
      <g>
       <use xlink:href="#maa39c4135a" x="39.8" y="208.456298" style="stroke: #000000; stroke-width: 0.8"/>
      </g>
     </g>
     <g id="text_14">
      <!-- 0.5 -->
      <g transform="translate(20.3 211.871142)scale(0.1 -0.1)">
       <use xlink:href="#STIXGeneral-Regular-30"/>
       <use xlink:href="#STIXGeneral-Regular-2e" x="49.999985"/>
       <use xlink:href="#STIXGeneral-Regular-35" x="74.999969"/>
      </g>
     </g>
    </g>
    <g id="ytick_9">
     <g id="line2d_57">
      <path d="M 39.8 170.049487 
L 258.519091 170.049487 
" clip-path="url(#p73c7b3986c)" style="fill: none; stroke-dasharray: 0.8,1.32; stroke-dashoffset: 0; stroke: #b0b0b0; stroke-width: 0.8"/>
     </g>
     <g id="line2d_58">
      <g>
       <use xlink:href="#maa39c4135a" x="39.8" y="170.049487" style="stroke: #000000; stroke-width: 0.8"/>
      </g>
     </g>
     <g id="text_15">
      <!-- 1.0 -->
      <g transform="translate(20.3 173.464331)scale(0.1 -0.1)">
       <use xlink:href="#STIXGeneral-Regular-31"/>
       <use xlink:href="#STIXGeneral-Regular-2e" x="49.999985"/>
       <use xlink:href="#STIXGeneral-Regular-30" x="74.999969"/>
      </g>
     </g>
    </g>
    <g id="text_16">
     <!-- $V/V_c$ [-] -->
     <g transform="translate(14.129688 219.0392)rotate(-90)scale(0.1 -0.1)">
      <use xlink:href="#DejaVuSans-Oblique-56" transform="translate(0 0.09375)"/>
      <use xlink:href="#DejaVuSans-2f" transform="translate(68.408203 0.09375)"/>
      <use xlink:href="#DejaVuSans-Oblique-56" transform="translate(102.099609 0.09375)"/>
      <use xlink:href="#DejaVuSans-Oblique-63" transform="translate(170.507812 -16.3125)scale(0.7)"/>
      <use xlink:href="#STIXGeneral-Regular-20" transform="translate(211.728516 0.09375)"/>
      <use xlink:href="#STIXGeneral-Regular-5b" transform="translate(236.7285 0.09375)"/>
      <use xlink:href="#STIXGeneral-Regular-2d" transform="translate(270.028488 0.09375)"/>
      <use xlink:href="#STIXGeneral-Regular-5d" transform="translate(303.328476 0.09375)"/>
     </g>
    </g>
   </g>
   <g id="line2d_59">
    <path d="M -1 243.585469 
L 3.413224 243.435949 
L 9.75002 243.196125 
L 16.086817 242.930537 
L 22.423613 242.641187 
L 28.76041 242.32218 
L 35.097207 241.969401 
L 41.434003 241.576034 
L 47.7708 241.134079 
L 54.107596 240.63122 
L 60.444393 240.05188 
L 66.78119 239.370977 
L 73.117986 238.555476 
L 79.454783 237.55078 
L 85.791579 236.282555 
L 92.128376 234.627977 
L 98.465173 232.415832 
L 104.801969 229.368653 
L 111.138766 225.095873 
L 117.475562 218.993187 
L 123.812359 210.259668 
L 130.149156 197.960386 
L 136.485952 181.252842 
L 142.822749 164.054074 
L 149.159545 157.554655 
L 155.496342 164.551083 
L 161.833139 176.851349 
L 168.169935 189.773279 
L 174.506732 202.178283 
L 180.843528 210.414275 
L 187.180325 215.501064 
L 193.517122 220.796315 
L 199.853918 225.424003 
L 206.190715 229.126055 
L 212.527512 231.960608 
L 218.864308 234.079521 
L 225.201105 235.678006 
L 231.537901 236.910102 
L 237.874698 237.88581 
L 244.211495 238.679438 
L 250.548291 239.340541 
L 256.885088 239.903023 
L 263.221884 240.389904 
L 269.558681 240.817582 
L 275.895478 241.197561 
L 282.232274 241.538507 
L 288.569071 241.846485 
L 294.905867 242.127659 
L 301.242664 242.382692 
L 307.916656 242.622606 
L 315.697462 242.882052 
L 325.182024 243.172068 
L 336.732389 243.482343 
L 350.78217 243.81176 
L 367.848105 244.151558 
L 388.542165 244.494911 
L 413.58357 244.832128 
L 443.809501 245.154541 
L 480.182868 245.453565 
L 523.794659 245.722391 
L 575.857391 245.95639 
L 617.649977 246.089679 
" clip-path="url(#p73c7b3986c)" style="fill: none; stroke: #1f77b4; stroke-width: 2; stroke-linecap: square"/>
   </g>
   <g id="line2d_60">
    <path d="M -1 243.386119 
L 2.216155 243.275157 
L 9.353046 243.005371 
L 15.47472 242.757376 
L 21.287104 242.494655 
L 27.099488 242.204529 
L 32.911871 241.888497 
L 38.724255 241.540337 
L 44.536639 241.155326 
L 50.349022 240.726008 
L 56.161406 240.243445 
L 61.97379 239.694279 
L 67.786174 239.061259 
L 73.598557 238.317643 
L 79.410941 237.427325 
L 85.223325 236.33336 
L 91.035708 234.956138 
L 96.848092 233.170079 
L 102.660476 230.796773 
L 108.47286 227.561983 
L 114.285243 223.092135 
L 120.097627 216.876853 
L 125.910011 208.400359 
L 131.722394 197.170356 
L 137.534778 183.353568 
L 143.347162 169.426699 
L 149.159545 160.477417 
L 154.971929 161.043468 
L 160.784313 169.731878 
L 166.596697 181.201285 
L 172.40908 193.202364 
L 178.221464 204.869257 
L 184.033848 212.816566 
L 189.846231 218.161939 
L 195.658615 222.735562 
L 201.470999 226.504001 
L 207.283382 229.563939 
L 213.095766 231.99645 
L 218.90815 233.901094 
L 224.720534 235.393537 
L 230.532917 236.579761 
L 236.345301 237.542846 
L 242.157685 238.342201 
L 247.970068 239.019087 
L 253.782452 239.602135 
L 259.594836 240.111548 
L 265.40722 240.561722 
L 271.219603 240.963445 
L 277.031987 241.324184 
L 282.844371 241.651937 
L 288.656754 241.946648 
L 294.778429 242.223035 
L 301.91532 242.520791 
L 310.61497 242.849616 
L 321.209464 243.198437 
L 334.096531 243.56437 
L 349.750143 243.936986 
L 368.73163 244.308168 
L 391.700688 244.6674 
L 419.425219 245.00675 
L 452.788443 245.318919 
L 492.791062 245.599283 
L 540.54525 245.844858 
L 597.256876 246.054624 
L 617.649977 246.107798 
" clip-path="url(#p73c7b3986c)" style="fill: none; stroke: #ff7f0e; stroke-width: 2; stroke-linecap: square"/>
   </g>
   <g id="line2d_61">
    <path d="M -1 243.156077 
L 7.634663 242.804294 
L 15.260402 242.450699 
L 21.516294 242.13261 
L 26.88229 241.839778 
L 31.977176 241.529526 
L 37.072062 241.186769 
L 42.166947 240.813123 
L 47.261833 240.401285 
L 52.356718 239.945586 
L 57.451604 239.437342 
L 62.54649 238.865941 
L 67.641375 238.21608 
L 72.736261 237.467567 
L 77.831147 236.590319 
L 82.926032 235.54282 
L 88.020918 234.262252 
L 93.115804 232.659054 
L 98.210689 230.598461 
L 103.305575 227.889241 
L 108.40046 224.260753 
L 113.495346 219.368239 
L 118.590232 212.81335 
L 123.685117 204.267206 
L 128.780003 193.492434 
L 133.874889 181.072978 
L 138.969774 169.331071 
L 144.06466 161.506761 
L 149.159545 160.429789 
L 154.254431 166.138087 
L 159.349317 175.31863 
L 164.444202 185.526114 
L 169.539088 196.234103 
L 174.633974 206.12255 
L 179.728859 213.202214 
L 184.823745 218.308533 
L 189.91863 222.399368 
L 195.013516 225.730129 
L 200.108402 228.48477 
L 205.203287 230.755377 
L 210.298173 232.604878 
L 215.393059 234.10501 
L 220.487944 235.332389 
L 225.58283 236.352778 
L 230.677716 237.216301 
L 235.772601 237.959043 
L 240.867487 238.606935 
L 245.962372 239.178497 
L 251.057258 239.687686 
L 256.152144 240.144047 
L 261.247029 240.558068 
L 266.341915 240.929231 
L 271.707911 241.276919 
L 277.963804 241.651139 
L 285.589543 242.062438 
L 294.87622 242.497177 
L 306.172469 242.950628 
L 319.893753 243.409324 
L 336.532107 243.862071 
L 356.665797 244.295177 
L 380.967928 244.69874 
L 410.212696 245.064345 
L 445.277272 245.38807 
L 487.136539 245.668499 
L 536.847512 245.906854 
L 595.519265 246.105523 
L 617.649977 246.15777 
" clip-path="url(#p73c7b3986c)" style="fill: none; stroke: #2ca02c; stroke-width: 2; stroke-linecap: square"/>
   </g>
   <g id="line2d_62">
    <path d="M -1 243.18981 
L 8.224838 242.808738 
L 18.04567 242.327928 
L 26.119403 241.872288 
L 32.749135 241.445965 
L 38.187937 241.061922 
L 42.853074 240.708064 
L 47.28251 240.333084 
L 51.711947 239.918587 
L 56.141383 239.466534 
L 60.570819 238.968164 
L 65.000256 238.416627 
L 69.429692 237.801725 
L 73.859128 237.110769 
L 78.288565 236.326118 
L 82.718001 235.42402 
L 87.147437 234.370485 
L 91.576874 233.117698 
L 96.00631 231.596374 
L 100.435746 229.706902 
L 104.865182 227.30797 
L 109.294619 224.2037 
L 113.724055 220.143616 
L 118.153491 214.831329 
L 122.582928 207.977336 
L 127.012364 199.379936 
L 131.4418 188.979365 
L 135.871237 177.598705 
L 140.300673 167.43736 
L 144.730109 160.985704 
L 149.159545 159.956794 
L 153.588982 164.151934 
L 158.018418 171.476854 
L 162.447854 180.143912 
L 166.877291 189.448555 
L 171.306727 198.796147 
L 175.736163 206.936812 
L 180.1656 213.029657 
L 184.595036 217.609458 
L 189.024472 221.251376 
L 193.453908 224.262921 
L 197.883345 226.830468 
L 202.312781 229.024909 
L 206.742217 230.873495 
L 211.171654 232.417741 
L 215.60109 233.713051 
L 220.030526 234.812346 
L 224.459963 235.758258 
L 228.889399 236.582997 
L 233.318835 237.310076 
L 237.748272 237.95736 
L 242.177708 238.537063 
L 246.607144 239.062703 
L 251.03658 239.533464 
L 255.701717 239.974254 
L 261.14052 240.448564 
L 267.770252 240.969029 
L 275.843985 241.51841 
L 285.664816 242.09017 
L 297.593946 242.667115 
L 312.059145 243.234324 
L 329.563148 243.773897 
L 350.691148 244.272765 
L 376.11622 244.720004 
L 406.600968 245.111076 
L 442.992945 245.445191 
L 486.211106 245.725666 
L 537.219669 245.95738 
L 596.986075 246.146076 
L 617.649977 246.191076 
" clip-path="url(#p73c7b3986c)" style="fill: none; stroke: #d62728; stroke-width: 2; stroke-linecap: square"/>
   </g>
   <g id="line2d_63">
    <path d="M -1 243.271427 
L 2.900948 243.125866 
L 15.544658 242.536747 
L 25.971647 241.947222 
L 34.555818 241.371401 
L 41.612888 240.825154 
L 47.40779 240.313593 
L 52.161726 239.852306 
L 56.239419 239.427081 
L 60.111091 238.976432 
L 63.982763 238.478147 
L 67.854435 237.934644 
L 71.726107 237.335502 
L 75.597779 236.672575 
L 79.469451 235.934018 
L 83.341122 235.104935 
L 87.212794 234.16522 
L 91.084466 233.08754 
L 94.956138 231.834068 
L 98.82781 230.35137 
L 102.699482 228.565062 
L 106.571154 226.369718 
L 110.442826 223.624496 
L 114.314498 220.142665 
L 118.18617 215.706864 
L 122.057842 210.077731 
L 125.929514 203.053636 
L 129.801186 194.523283 
L 133.672858 184.56169 
L 137.54453 174.12592 
L 141.416202 165.26167 
L 145.287874 159.960812 
L 149.159545 159.234191 
L 153.031217 162.646036 
L 156.902889 168.728938 
L 160.774561 176.201673 
L 164.646233 184.375718 
L 168.517905 192.777651 
L 172.389577 200.73544 
L 176.261249 207.435127 
L 180.132921 212.605058 
L 184.004593 216.60659 
L 187.876265 219.844896 
L 191.747937 222.607976 
L 195.619609 225.049937 
L 199.491281 227.203546 
L 203.362953 229.066617 
L 207.234625 230.659826 
L 211.106296 232.023505 
L 214.977968 233.200444 
L 218.84964 234.227289 
L 222.721312 235.132384 
L 226.592984 235.937833 
L 230.464656 236.658885 
L 234.336328 237.312481 
L 238.208 237.897612 
L 242.285693 238.445358 
L 247.039629 239.034671 
L 252.834531 239.680952 
L 259.891602 240.362746 
L 268.475772 241.071691 
L 278.90276 241.786446 
L 291.546469 242.488066 
L 306.846329 243.153938 
L 325.313845 243.767334 
L 347.537336 244.314208 
L 374.183378 244.788738 
L 405.992797 245.19003 
L 443.768832 245.522987 
L 488.354284 245.79486 
L 540.594773 246.014255 
L 601.285346 246.189198 
L 617.649977 246.221494 
" clip-path="url(#p73c7b3986c)" style="fill: none; stroke: #9467bd; stroke-width: 2; stroke-linecap: square"/>
   </g>
   <g id="patch_13">
    <path d="M 39.8 251.2872 
L 39.8 153.0912 
" style="fill: none; stroke: #000000; stroke-width: 0.8; stroke-linejoin: miter; stroke-linecap: square"/>
   </g>
   <g id="patch_14">
    <path d="M 258.519091 251.2872 
L 258.519091 153.0912 
" style="fill: none; stroke: #000000; stroke-width: 0.8; stroke-linejoin: miter; stroke-linecap: square"/>
   </g>
   <g id="patch_15">
    <path d="M 39.8 251.2872 
L 258.519091 251.2872 
" style="fill: none; stroke: #000000; stroke-width: 0.8; stroke-linejoin: miter; stroke-linecap: square"/>
   </g>
   <g id="patch_16">
    <path d="M 39.8 153.0912 
L 258.519091 153.0912 
" style="fill: none; stroke: #000000; stroke-width: 0.8; stroke-linejoin: miter; stroke-linecap: square"/>
   </g>
   <g id="text_17">
    <!-- $C_T = 0.8$ -->
    <g transform="translate(125.459545 147.0912)scale(0.12 -0.12)">
     <use xlink:href="#DejaVuSans-Oblique-43" transform="translate(0 0.78125)"/>
     <use xlink:href="#DejaVuSans-Oblique-54" transform="translate(69.824219 -15.625)scale(0.7)"/>
     <use xlink:href="#DejaVuSans-3d" transform="translate(134.799805 0.78125)"/>
     <use xlink:href="#DejaVuSans-30" transform="translate(238.071289 0.78125)"/>
     <use xlink:href="#DejaVuSans-2e" transform="translate(301.694336 0.78125)"/>
     <use xlink:href="#DejaVuSans-38" transform="translate(330.856445 0.78125)"/>
    </g>
   </g>
  </g>
  <g id="axes_4">
   <g id="patch_17">
    <path d="M 302.262909 251.2872 
L 520.982 251.2872 
L 520.982 153.0912 
L 302.262909 153.0912 
z
" style="fill: #ffffff"/>
   </g>
   <g id="matplotlib.axis_7">
    <g id="xtick_16">
     <g id="line2d_64">
      <path d="M 302.262909 251.2872 
L 302.262909 153.0912 
" clip-path="url(#pb8196c5a9e)" style="fill: none; stroke-dasharray: 0.8,1.32; stroke-dashoffset: 0; stroke: #b0b0b0; stroke-width: 0.8"/>
     </g>
     <g id="line2d_65">
      <g>
       <use xlink:href="#mc57968df8a" x="302.262909" y="251.2872" style="stroke: #000000; stroke-width: 0.8"/>
      </g>
     </g>
     <g id="text_18">
      <!-- −4 -->
      <g transform="translate(296.337909 265.116888)scale(0.1 -0.1)">
       <use xlink:href="#STIXGeneral-Regular-2212"/>
       <use xlink:href="#STIXGeneral-Regular-34" x="68.499985"/>
      </g>
     </g>
    </g>
    <g id="xtick_17">
     <g id="line2d_66">
      <path d="M 356.942682 251.2872 
L 356.942682 153.0912 
" clip-path="url(#pb8196c5a9e)" style="fill: none; stroke-dasharray: 0.8,1.32; stroke-dashoffset: 0; stroke: #b0b0b0; stroke-width: 0.8"/>
     </g>
     <g id="line2d_67">
      <g>
       <use xlink:href="#mc57968df8a" x="356.942682" y="251.2872" style="stroke: #000000; stroke-width: 0.8"/>
      </g>
     </g>
     <g id="text_19">
      <!-- −2 -->
      <g transform="translate(351.017682 265.116888)scale(0.1 -0.1)">
       <use xlink:href="#STIXGeneral-Regular-2212"/>
       <use xlink:href="#STIXGeneral-Regular-32" x="68.499985"/>
      </g>
     </g>
    </g>
    <g id="xtick_18">
     <g id="line2d_68">
      <path d="M 411.622455 251.2872 
L 411.622455 153.0912 
" clip-path="url(#pb8196c5a9e)" style="fill: none; stroke-dasharray: 0.8,1.32; stroke-dashoffset: 0; stroke: #b0b0b0; stroke-width: 0.8"/>
     </g>
     <g id="line2d_69">
      <g>
       <use xlink:href="#mc57968df8a" x="411.622455" y="251.2872" style="stroke: #000000; stroke-width: 0.8"/>
      </g>
     </g>
     <g id="text_20">
      <!-- 0 -->
      <g transform="translate(409.122455 265.116888)scale(0.1 -0.1)">
       <use xlink:href="#STIXGeneral-Regular-30"/>
      </g>
     </g>
    </g>
    <g id="xtick_19">
     <g id="line2d_70">
      <path d="M 466.302227 251.2872 
L 466.302227 153.0912 
" clip-path="url(#pb8196c5a9e)" style="fill: none; stroke-dasharray: 0.8,1.32; stroke-dashoffset: 0; stroke: #b0b0b0; stroke-width: 0.8"/>
     </g>
     <g id="line2d_71">
      <g>
       <use xlink:href="#mc57968df8a" x="466.302227" y="251.2872" style="stroke: #000000; stroke-width: 0.8"/>
      </g>
     </g>
     <g id="text_21">
      <!-- 2 -->
      <g transform="translate(463.802227 265.116888)scale(0.1 -0.1)">
       <use xlink:href="#STIXGeneral-Regular-32"/>
      </g>
     </g>
    </g>
    <g id="xtick_20">
     <g id="line2d_72">
      <path d="M 520.982 251.2872 
L 520.982 153.0912 
" clip-path="url(#pb8196c5a9e)" style="fill: none; stroke-dasharray: 0.8,1.32; stroke-dashoffset: 0; stroke: #b0b0b0; stroke-width: 0.8"/>
     </g>
     <g id="line2d_73">
      <g>
       <use xlink:href="#mc57968df8a" x="520.982" y="251.2872" style="stroke: #000000; stroke-width: 0.8"/>
      </g>
     </g>
     <g id="text_22">
      <!-- 4 -->
      <g transform="translate(518.482 265.116888)scale(0.1 -0.1)">
       <use xlink:href="#STIXGeneral-Regular-34"/>
      </g>
     </g>
    </g>
    <g id="text_23">
     <!-- $y^*_V/\sigma_{y,V}$ -->
     <g transform="translate(393.922455 280.3872)scale(0.1 -0.1)">
      <use xlink:href="#DejaVuSans-Oblique-79" transform="translate(0 0.765625)"/>
      <use xlink:href="#DejaVuSans-2a" transform="translate(77.283529 39.046875)scale(0.7)"/>
      <use xlink:href="#DejaVuSans-Oblique-56" transform="translate(59.179688 -26.578125)scale(0.7)"/>
      <use xlink:href="#DejaVuSans-2f" transform="translate(128.655599 0.765625)"/>
      <use xlink:href="#DejaVuSans-Oblique-3c3" transform="translate(162.347005 0.765625)"/>
      <use xlink:href="#DejaVuSans-Oblique-79" transform="translate(225.725911 -15.640625)scale(0.7)"/>
      <use xlink:href="#DejaVuSans-2c" transform="translate(267.151693 -15.640625)scale(0.7)"/>
      <use xlink:href="#DejaVuSans-Oblique-56" transform="translate(303.040365 -15.640625)scale(0.7)"/>
     </g>
    </g>
   </g>
   <g id="matplotlib.axis_8">
    <g id="ytick_10">
     <g id="line2d_74">
      <path d="M 302.262909 246.863109 
L 520.982 246.863109 
" clip-path="url(#pb8196c5a9e)" style="fill: none; stroke-dasharray: 0.8,1.32; stroke-dashoffset: 0; stroke: #b0b0b0; stroke-width: 0.8"/>
     </g>
     <g id="line2d_75">
      <g>
       <use xlink:href="#maa39c4135a" x="302.262909" y="246.863109" style="stroke: #000000; stroke-width: 0.8"/>
      </g>
     </g>
    </g>
    <g id="ytick_11">
     <g id="line2d_76">
      <path d="M 302.262909 208.456298 
L 520.982 208.456298 
" clip-path="url(#pb8196c5a9e)" style="fill: none; stroke-dasharray: 0.8,1.32; stroke-dashoffset: 0; stroke: #b0b0b0; stroke-width: 0.8"/>
     </g>
     <g id="line2d_77">
      <g>
       <use xlink:href="#maa39c4135a" x="302.262909" y="208.456298" style="stroke: #000000; stroke-width: 0.8"/>
      </g>
     </g>
    </g>
    <g id="ytick_12">
     <g id="line2d_78">
      <path d="M 302.262909 170.049487 
L 520.982 170.049487 
" clip-path="url(#pb8196c5a9e)" style="fill: none; stroke-dasharray: 0.8,1.32; stroke-dashoffset: 0; stroke: #b0b0b0; stroke-width: 0.8"/>
     </g>
     <g id="line2d_79">
      <g>
       <use xlink:href="#maa39c4135a" x="302.262909" y="170.049487" style="stroke: #000000; stroke-width: 0.8"/>
      </g>
     </g>
    </g>
   </g>
   <g id="line2d_80">
    <path d="M -1 246.384029 
L 4.918187 246.368824 
L 52.263185 246.185109 
L 91.75016 245.96369 
L 124.56346 245.709613 
L 151.748431 245.430701 
L 174.213926 245.137362 
L 192.740723 244.83987 
L 207.993181 244.547855 
L 220.532269 244.26975 
L 230.828719 244.009629 
L 239.27557 243.775286 
L 246.520863 243.560494 
L 253.400096 243.332909 
L 260.279329 243.081472 
L 267.158562 242.808051 
L 274.037795 242.507276 
L 280.917028 242.175459 
L 287.796261 241.806474 
L 294.675494 241.393207 
L 301.554727 240.924672 
L 308.43396 240.387231 
L 315.313193 239.758828 
L 322.192426 239.011177 
L 329.071659 238.097224 
L 335.950892 236.954836 
L 342.830125 235.480303 
L 349.709358 233.532143 
L 356.588591 230.876877 
L 363.467824 227.186691 
L 370.347057 221.925607 
L 377.22629 214.336336 
L 384.105523 203.250602 
L 390.984756 188.157139 
L 397.863989 172.055237 
L 404.743222 160.717413 
L 411.622455 160.62127 
L 418.501688 172.874315 
L 425.380921 188.786935 
L 432.260153 203.11213 
L 439.139386 215.283957 
L 446.018619 220.690904 
L 452.897852 223.459816 
L 459.777085 227.107688 
L 466.656318 230.288379 
L 473.535551 232.879926 
L 480.414784 234.877066 
L 487.294017 236.390894 
L 494.17325 237.557713 
L 501.052483 238.479598 
L 507.931716 239.226909 
L 514.810949 239.847451 
L 521.690182 240.37353 
L 528.569415 240.827581 
L 535.448648 241.225325 
L 542.327881 241.578021 
L 549.207114 241.89396 
L 556.086347 242.179077 
L 562.96558 242.439135 
L 569.844813 242.67503 
L 577.090106 242.8969 
L 585.536957 243.136679 
L 595.833408 243.404919 
L 608.372496 243.691982 
L 617.649977 243.877629 
" clip-path="url(#pb8196c5a9e)" style="fill: none; stroke: #1f77b4; stroke-width: 2; stroke-linecap: square"/>
   </g>
   <g id="line2d_81">
    <path d="M -1 246.348216 
L 28.599195 246.255687 
L 75.333051 246.036671 
L 114.480959 245.772745 
L 147.131345 245.46828 
L 174.263504 245.131395 
L 196.741797 244.772394 
L 215.317722 244.402805 
L 230.636877 244.034221 
L 243.248596 243.676101 
L 253.616725 243.33808 
L 262.130496 243.023198 
L 269.114899 242.741042 
L 275.105776 242.482119 
L 280.793971 242.208229 
L 286.482166 241.906578 
L 292.170361 241.578742 
L 297.858556 241.218569 
L 303.546751 240.821465 
L 309.234946 240.380246 
L 314.923141 239.886324 
L 320.611336 239.327127 
L 326.299531 238.686383 
L 331.987725 237.939761 
L 337.67592 237.053911 
L 343.364115 235.978629 
L 349.05231 234.641336 
L 354.740505 232.933344 
L 360.4287 230.690219 
L 366.116895 227.670587 
L 371.80509 223.505271 
L 377.493285 217.695027 
L 383.18148 209.616396 
L 388.869675 198.628778 
L 394.55787 185.465696 
L 400.246065 172.949522 
L 405.93426 163.881039 
L 411.622455 160.632403 
L 417.310649 165.458878 
L 422.998844 176.55572 
L 428.687039 188.609246 
L 434.375234 200.165732 
L 440.063429 211.224084 
L 445.751624 218.221221 
L 451.439819 221.832192 
L 457.128014 225.226283 
L 462.816209 228.211362 
L 468.504404 230.751496 
L 474.192599 232.828806 
L 479.880794 234.481349 
L 485.568989 235.797402 
L 491.257184 236.862159 
L 496.945379 237.741674 
L 502.633574 238.482974 
L 508.321768 239.118729 
L 514.009963 239.672044 
L 519.698158 240.159353 
L 525.386353 240.592938 
L 531.074548 240.981287 
L 536.762743 241.333408 
L 542.450938 241.649233 
L 548.441815 241.945137 
L 555.426218 242.263562 
L 563.93999 242.614303 
L 574.308119 242.985702 
L 586.919837 243.374511 
L 602.238991 243.769561 
L 617.649977 244.095346 
" clip-path="url(#pb8196c5a9e)" style="fill: none; stroke: #ff7f0e; stroke-width: 2; stroke-linecap: square"/>
   </g>
   <g id="line2d_82">
    <path d="M -1 246.37276 
L 2.30718 246.365002 
L 55.502454 246.17039 
L 100.573334 245.922621 
L 138.525402 245.620187 
L 170.317003 245.265528 
L 196.832034 244.864759 
L 218.865772 244.427315 
L 237.120155 243.965267 
L 252.205467 243.491558 
L 264.645989 243.020279 
L 274.887833 242.562466 
L 283.30768 242.130353 
L 290.221623 241.72747 
L 295.893583 241.365963 
L 300.75871 241.033702 
L 305.378033 240.682222 
L 309.997355 240.294842 
L 314.616678 239.87351 
L 319.236001 239.410463 
L 323.855324 238.89974 
L 328.474646 238.332555 
L 333.093969 237.697971 
L 337.713292 236.98112 
L 342.332614 236.161839 
L 346.951937 235.212227 
L 351.57126 234.092008 
L 356.190582 232.744588 
L 360.809905 231.084048 
L 365.429228 228.988476 
L 370.04855 226.26915 
L 374.667873 222.668105 
L 379.287196 217.812549 
L 383.906518 211.298643 
L 388.525841 202.714355 
L 393.145164 191.907561 
L 397.764486 180.127682 
L 402.383809 169.776531 
L 407.003132 162.789888 
L 411.622455 160.462836 
L 416.241777 163.502793 
L 420.8611 170.710153 
L 425.480423 179.633967 
L 430.099745 188.995937 
L 434.719068 198.586273 
L 439.338391 207.678388 
L 443.957713 214.335285 
L 448.577036 218.486903 
L 453.196359 221.818715 
L 457.815681 224.746061 
L 462.435004 227.334574 
L 467.054327 229.570652 
L 471.673649 231.434801 
L 476.292972 232.968012 
L 480.912295 234.237804 
L 485.531617 235.306148 
L 490.15094 236.220103 
L 494.770263 237.013654 
L 499.389586 237.711036 
L 504.008908 238.330336 
L 508.628231 238.883877 
L 513.247554 239.384998 
L 517.866876 239.833163 
L 522.732004 240.252451 
L 528.403963 240.703289 
L 535.317907 241.197586 
L 543.737754 241.719037 
L 553.979597 242.261582 
L 566.420119 242.808914 
L 581.505429 243.347359 
L 599.759815 243.860457 
L 617.649977 244.246995 
" clip-path="url(#pb8196c5a9e)" style="fill: none; stroke: #2ca02c; stroke-width: 2; stroke-linecap: square"/>
   </g>
   <g id="line2d_83">
    <path d="M -1 246.390281 
L 20.786849 246.33607 
L 72.436457 246.134584 
L 116.517617 245.874001 
L 153.866361 245.550042 
L 185.315982 245.161684 
L 211.660627 244.711582 
L 233.632754 244.206399 
L 251.891382 243.656361 
L 267.018184 243.075677 
L 279.518882 242.479556 
L 289.827931 241.885638 
L 298.315007 241.307712 
L 305.292255 240.76136 
L 311.021611 240.25123 
L 315.721775 239.792667 
L 319.753345 239.3708 
L 323.581225 238.92443 
L 327.409104 238.432113 
L 331.236984 237.89643 
L 335.064863 237.307667 
L 338.892743 236.658375 
L 342.720622 235.937968 
L 346.548502 235.133071 
L 350.376382 234.226277 
L 354.204261 233.193644 
L 358.032141 232.003164 
L 361.86002 230.608198 
L 365.6879 228.944507 
L 369.515779 226.915059 
L 373.343659 224.385314 
L 377.171539 221.157423 
L 380.999418 216.981736 
L 384.827298 211.550495 
L 388.655177 204.60297 
L 392.483057 195.95267 
L 396.310936 185.748808 
L 400.138816 175.303986 
L 403.966695 166.614418 
L 407.794575 161.154086 
L 411.622455 159.667974 
L 415.450334 162.076319 
L 419.278214 167.351731 
L 423.106093 174.191281 
L 426.933973 181.796167 
L 430.761852 189.818386 
L 434.589732 197.919608 
L 438.417611 205.366027 
L 442.245491 211.159597 
L 446.073371 215.256022 
L 449.90125 218.48067 
L 453.72913 221.310996 
L 457.557009 223.903127 
L 461.384889 226.249005 
L 465.212768 228.285709 
L 469.040648 230.009458 
L 472.868528 231.466503 
L 476.696407 232.711632 
L 480.524287 233.790344 
L 484.352166 234.736495 
L 488.180046 235.57548 
L 492.007925 236.324537 
L 495.835805 237.002125 
L 499.663684 237.607676 
L 503.695254 238.173867 
L 508.395419 238.782516 
L 514.124775 239.449243 
L 521.102023 240.151913 
L 529.589099 240.881885 
L 539.898147 241.617007 
L 552.398843 242.33789 
L 567.525647 243.021477 
L 585.784277 243.651019 
L 607.7564 244.212778 
L 617.649977 244.396302 
" clip-path="url(#pb8196c5a9e)" style="fill: none; stroke: #d62728; stroke-width: 2; stroke-linecap: square"/>
   </g>
   <g id="line2d_84">
    <path d="M -1 246.405414 
L 26.046681 246.34132 
L 77.364519 246.148625 
L 121.53729 245.894418 
L 159.237226 245.571597 
L 191.179337 245.175397 
L 218.076285 244.704151 
L 240.607259 244.15983 
L 259.398684 243.549352 
L 275.014178 242.883881 
L 287.951213 242.180234 
L 298.642299 241.456443 
L 307.459002 240.734159 
L 314.717482 240.030383 
L 320.684698 239.364208 
L 325.584668 238.741561 
L 329.604433 238.181231 
L 333.05239 237.665497 
L 336.326143 237.119762 
L 339.599895 236.517681 
L 342.873648 235.862564 
L 346.147401 235.142704 
L 349.421153 234.349261 
L 352.694906 233.469874 
L 355.968659 232.488998 
L 359.242411 231.386765 
L 362.516164 230.135977 
L 365.789917 228.700699 
L 369.063669 227.029166 
L 372.337422 225.050754 
L 375.611175 222.662653 
L 378.884928 219.727988 
L 382.15868 216.063605 
L 385.432433 211.464021 
L 388.706186 205.72111 
L 391.979938 198.701423 
L 395.253691 190.367649 
L 398.527444 180.996455 
L 401.801196 171.795496 
L 405.074949 164.427993 
L 408.348702 160.031106 
L 411.622455 158.989973 
L 414.896207 160.965087 
L 418.16996 165.146443 
L 421.443713 170.695659 
L 424.717465 177.039049 
L 427.991218 183.846735 
L 431.264971 190.859818 
L 434.538723 197.719669 
L 437.812476 203.878841 
L 441.086229 208.835648 
L 444.359982 212.619828 
L 447.633734 215.686276 
L 450.907487 218.417869 
L 454.18124 220.992161 
L 457.454992 223.397475 
L 460.728745 225.546352 
L 464.002498 227.405774 
L 467.27625 229.003715 
L 470.550003 230.386744 
L 473.823756 231.596954 
L 477.097508 232.667836 
L 480.371261 233.622467 
L 483.645014 234.485086 
L 486.918767 235.255487 
L 490.366723 235.975418 
L 494.386488 236.749061 
L 499.286458 237.59624 
L 505.253675 238.48873 
L 512.512154 239.415509 
L 521.328857 240.348541 
L 532.019942 241.262818 
L 544.956978 242.128547 
L 560.572475 242.923708 
L 579.363895 243.630012 
L 601.894872 244.240156 
L 617.649977 244.54086 
" clip-path="url(#pb8196c5a9e)" style="fill: none; stroke: #9467bd; stroke-width: 2; stroke-linecap: square"/>
   </g>
   <g id="patch_18">
    <path d="M 302.262909 251.2872 
L 302.262909 153.0912 
" style="fill: none; stroke: #000000; stroke-width: 0.8; stroke-linejoin: miter; stroke-linecap: square"/>
   </g>
   <g id="patch_19">
    <path d="M 520.982 251.2872 
L 520.982 153.0912 
" style="fill: none; stroke: #000000; stroke-width: 0.8; stroke-linejoin: miter; stroke-linecap: square"/>
   </g>
   <g id="patch_20">
    <path d="M 302.262909 251.2872 
L 520.982 251.2872 
" style="fill: none; stroke: #000000; stroke-width: 0.8; stroke-linejoin: miter; stroke-linecap: square"/>
   </g>
   <g id="patch_21">
    <path d="M 302.262909 153.0912 
L 520.982 153.0912 
" style="fill: none; stroke: #000000; stroke-width: 0.8; stroke-linejoin: miter; stroke-linecap: square"/>
   </g>
   <g id="text_24">
    <!-- $C_T = 0.8$ -->
    <g transform="translate(387.922455 147.0912)scale(0.12 -0.12)">
     <use xlink:href="#DejaVuSans-Oblique-43" transform="translate(0 0.78125)"/>
     <use xlink:href="#DejaVuSans-Oblique-54" transform="translate(69.824219 -15.625)scale(0.7)"/>
     <use xlink:href="#DejaVuSans-3d" transform="translate(134.799805 0.78125)"/>
     <use xlink:href="#DejaVuSans-30" transform="translate(238.071289 0.78125)"/>
     <use xlink:href="#DejaVuSans-2e" transform="translate(301.694336 0.78125)"/>
     <use xlink:href="#DejaVuSans-38" transform="translate(330.856445 0.78125)"/>
    </g>
   </g>
   <g id="legend_1">
    <g id="patch_22">
     <path d="M 533.449977 180.197381 
L 607.449977 180.197381 
Q 609.449977 180.197381 609.449977 178.197381 
L 609.449977 108.345819 
Q 609.449977 106.345819 607.449977 106.345819 
L 533.449977 106.345819 
Q 531.449977 106.345819 531.449977 108.345819 
L 531.449977 178.197381 
Q 531.449977 180.197381 533.449977 180.197381 
z
" style="fill: #ffffff; opacity: 0.8; stroke: #cccccc; stroke-linejoin: miter"/>
    </g>
    <g id="line2d_85">
     <path d="M 535.449977 113.845819 
L 545.449977 113.845819 
L 555.449977 113.845819 
" style="fill: none; stroke: #1f77b4; stroke-width: 2; stroke-linecap: square"/>
    </g>
    <g id="text_25">
     <!-- $x/D = 5$ -->
     <g transform="translate(563.449977 117.345819)scale(0.1 -0.1)">
      <defs>
       <path id="DejaVuSans-Oblique-78" d="M 3841 3500 
L 2234 1784 
L 3219 0 
L 2559 0 
L 1819 1388 
L 531 0 
L -166 0 
L 1556 1844 
L 641 3500 
L 1300 3500 
L 1972 2234 
L 3144 3500 
L 3841 3500 
z
" transform="scale(0.015625)"/>
       <path id="DejaVuSans-Oblique-44" d="M 1081 4666 
L 2438 4666 
Q 3519 4666 4070 4208 
Q 4622 3750 4622 2847 
Q 4622 2250 4412 1698 
Q 4203 1147 3834 769 
Q 3463 381 2891 190 
Q 2319 0 1538 0 
L 172 0 
L 1081 4666 
z
M 1613 4147 
L 909 519 
L 1734 519 
Q 2794 519 3375 1128 
Q 3956 1738 3956 2847 
Q 3956 3519 3581 3833 
Q 3206 4147 2406 4147 
L 1613 4147 
z
" transform="scale(0.015625)"/>
       <path id="DejaVuSans-35" d="M 691 4666 
L 3169 4666 
L 3169 4134 
L 1269 4134 
L 1269 2991 
Q 1406 3038 1543 3061 
Q 1681 3084 1819 3084 
Q 2600 3084 3056 2656 
Q 3513 2228 3513 1497 
Q 3513 744 3044 326 
Q 2575 -91 1722 -91 
Q 1428 -91 1123 -41 
Q 819 9 494 109 
L 494 744 
Q 775 591 1075 516 
Q 1375 441 1709 441 
Q 2250 441 2565 725 
Q 2881 1009 2881 1497 
Q 2881 1984 2565 2268 
Q 2250 2553 1709 2553 
Q 1456 2553 1204 2497 
Q 953 2441 691 2322 
L 691 4666 
z
" transform="scale(0.015625)"/>
      </defs>
      <use xlink:href="#DejaVuSans-Oblique-78" transform="translate(0 0.09375)"/>
      <use xlink:href="#DejaVuSans-2f" transform="translate(59.179688 0.09375)"/>
      <use xlink:href="#DejaVuSans-Oblique-44" transform="translate(92.871094 0.09375)"/>
      <use xlink:href="#DejaVuSans-3d" transform="translate(189.355469 0.09375)"/>
      <use xlink:href="#DejaVuSans-35" transform="translate(292.626953 0.09375)"/>
     </g>
    </g>
    <g id="line2d_86">
     <path d="M 535.449977 128.016131 
L 545.449977 128.016131 
L 555.449977 128.016131 
" style="fill: none; stroke: #ff7f0e; stroke-width: 2; stroke-linecap: square"/>
    </g>
    <g id="text_26">
     <!-- $x/D = 7$ -->
     <g transform="translate(563.449977 131.516131)scale(0.1 -0.1)">
      <defs>
       <path id="DejaVuSans-37" d="M 525 4666 
L 3525 4666 
L 3525 4397 
L 1831 0 
L 1172 0 
L 2766 4134 
L 525 4134 
L 525 4666 
z
" transform="scale(0.015625)"/>
      </defs>
      <use xlink:href="#DejaVuSans-Oblique-78" transform="translate(0 0.09375)"/>
      <use xlink:href="#DejaVuSans-2f" transform="translate(59.179688 0.09375)"/>
      <use xlink:href="#DejaVuSans-Oblique-44" transform="translate(92.871094 0.09375)"/>
      <use xlink:href="#DejaVuSans-3d" transform="translate(189.355469 0.09375)"/>
      <use xlink:href="#DejaVuSans-37" transform="translate(292.626953 0.09375)"/>
     </g>
    </g>
    <g id="line2d_87">
     <path d="M 535.449977 142.186444 
L 545.449977 142.186444 
L 555.449977 142.186444 
" style="fill: none; stroke: #2ca02c; stroke-width: 2; stroke-linecap: square"/>
    </g>
    <g id="text_27">
     <!-- $x/D = 9$ -->
     <g transform="translate(563.449977 145.686444)scale(0.1 -0.1)">
      <defs>
       <path id="DejaVuSans-39" d="M 703 97 
L 703 672 
Q 941 559 1184 500 
Q 1428 441 1663 441 
Q 2288 441 2617 861 
Q 2947 1281 2994 2138 
Q 2813 1869 2534 1725 
Q 2256 1581 1919 1581 
Q 1219 1581 811 2004 
Q 403 2428 403 3163 
Q 403 3881 828 4315 
Q 1253 4750 1959 4750 
Q 2769 4750 3195 4129 
Q 3622 3509 3622 2328 
Q 3622 1225 3098 567 
Q 2575 -91 1691 -91 
Q 1453 -91 1209 -44 
Q 966 3 703 97 
z
M 1959 2075 
Q 2384 2075 2632 2365 
Q 2881 2656 2881 3163 
Q 2881 3666 2632 3958 
Q 2384 4250 1959 4250 
Q 1534 4250 1286 3958 
Q 1038 3666 1038 3163 
Q 1038 2656 1286 2365 
Q 1534 2075 1959 2075 
z
" transform="scale(0.015625)"/>
      </defs>
      <use xlink:href="#DejaVuSans-Oblique-78" transform="translate(0 0.78125)"/>
      <use xlink:href="#DejaVuSans-2f" transform="translate(59.179688 0.78125)"/>
      <use xlink:href="#DejaVuSans-Oblique-44" transform="translate(92.871094 0.78125)"/>
      <use xlink:href="#DejaVuSans-3d" transform="translate(189.355469 0.78125)"/>
      <use xlink:href="#DejaVuSans-39" transform="translate(292.626953 0.78125)"/>
     </g>
    </g>
    <g id="line2d_88">
     <path d="M 535.449977 156.356756 
L 545.449977 156.356756 
L 555.449977 156.356756 
" style="fill: none; stroke: #d62728; stroke-width: 2; stroke-linecap: square"/>
    </g>
    <g id="text_28">
     <!-- $x/D = 11$ -->
     <g transform="translate(563.449977 159.856756)scale(0.1 -0.1)">
      <defs>
       <path id="DejaVuSans-31" d="M 794 531 
L 1825 531 
L 1825 4091 
L 703 3866 
L 703 4441 
L 1819 4666 
L 2450 4666 
L 2450 531 
L 3481 531 
L 3481 0 
L 794 0 
L 794 531 
z
" transform="scale(0.015625)"/>
      </defs>
      <use xlink:href="#DejaVuSans-Oblique-78" transform="translate(0 0.09375)"/>
      <use xlink:href="#DejaVuSans-2f" transform="translate(59.179688 0.09375)"/>
      <use xlink:href="#DejaVuSans-Oblique-44" transform="translate(92.871094 0.09375)"/>
      <use xlink:href="#DejaVuSans-3d" transform="translate(189.355469 0.09375)"/>
      <use xlink:href="#DejaVuSans-31" transform="translate(292.626953 0.09375)"/>
      <use xlink:href="#DejaVuSans-31" transform="translate(356.25 0.09375)"/>
     </g>
    </g>
    <g id="line2d_89">
     <path d="M 535.449977 170.527069 
L 545.449977 170.527069 
L 555.449977 170.527069 
" style="fill: none; stroke: #9467bd; stroke-width: 2; stroke-linecap: square"/>
    </g>
    <g id="text_29">
     <!-- $x/D = 13$ -->
     <g transform="translate(563.449977 174.027069)scale(0.1 -0.1)">
      <defs>
       <path id="DejaVuSans-33" d="M 2597 2516 
Q 3050 2419 3304 2112 
Q 3559 1806 3559 1356 
Q 3559 666 3084 287 
Q 2609 -91 1734 -91 
Q 1441 -91 1130 -33 
Q 819 25 488 141 
L 488 750 
Q 750 597 1062 519 
Q 1375 441 1716 441 
Q 2309 441 2620 675 
Q 2931 909 2931 1356 
Q 2931 1769 2642 2001 
Q 2353 2234 1838 2234 
L 1294 2234 
L 1294 2753 
L 1863 2753 
Q 2328 2753 2575 2939 
Q 2822 3125 2822 3475 
Q 2822 3834 2567 4026 
Q 2313 4219 1838 4219 
Q 1578 4219 1281 4162 
Q 984 4106 628 3988 
L 628 4550 
Q 988 4650 1302 4700 
Q 1616 4750 1894 4750 
Q 2613 4750 3031 4423 
Q 3450 4097 3450 3541 
Q 3450 3153 3228 2886 
Q 3006 2619 2597 2516 
z
" transform="scale(0.015625)"/>
      </defs>
      <use xlink:href="#DejaVuSans-Oblique-78" transform="translate(0 0.78125)"/>
      <use xlink:href="#DejaVuSans-2f" transform="translate(59.179688 0.78125)"/>
      <use xlink:href="#DejaVuSans-Oblique-44" transform="translate(92.871094 0.78125)"/>
      <use xlink:href="#DejaVuSans-3d" transform="translate(189.355469 0.78125)"/>
      <use xlink:href="#DejaVuSans-31" transform="translate(292.626953 0.78125)"/>
      <use xlink:href="#DejaVuSans-33" transform="translate(356.25 0.78125)"/>
     </g>
    </g>
   </g>
  </g>
  <g id="text_30">
   <!-- $\gamma = 40^\circ$, T.I.$= 4$% -->
   <g transform="translate(222.23 16.115625)scale(0.12 -0.12)">
    <defs>
     <path id="DejaVuSans-Oblique-3b3" d="M 1491 2950 
L 1838 788 
L 3456 3500 
L 4066 3500 
L 1972 0 
L 1713 -1331 
L 1138 -1331 
L 1397 0 
L 988 2613 
Q 925 3006 628 3006 
L 475 3006 
L 569 3500 
L 788 3500 
Q 1403 3500 1491 2950 
z
" transform="scale(0.015625)"/>
     <path id="DejaVuSans-34" d="M 2419 4116 
L 825 1625 
L 2419 1625 
L 2419 4116 
z
M 2253 4666 
L 3047 4666 
L 3047 1625 
L 3713 1625 
L 3713 1100 
L 3047 1100 
L 3047 0 
L 2419 0 
L 2419 1100 
L 313 1100 
L 313 1709 
L 2253 4666 
z
" transform="scale(0.015625)"/>
     <path id="DejaVuSans-2218" d="M 2003 2603 
Q 1753 2603 1581 2429 
Q 1409 2256 1409 2006 
Q 1409 1759 1581 1589 
Q 1753 1419 2003 1419 
Q 2253 1419 2425 1589 
Q 2597 1759 2597 2006 
Q 2597 2253 2423 2428 
Q 2250 2603 2003 2603 
z
M 2003 3006 
Q 2203 3006 2387 2929 
Q 2572 2853 2706 2709 
Q 2850 2569 2922 2390 
Q 2994 2212 2994 2006 
Q 2994 1594 2705 1308 
Q 2416 1022 1997 1022 
Q 1575 1022 1294 1303 
Q 1013 1584 1013 2006 
Q 1013 2425 1300 2715 
Q 1588 3006 2003 3006 
z
" transform="scale(0.015625)"/>
     <path id="STIXGeneral-Regular-2c" d="M 531 -902 
L 467 -781 
Q 998 -422 998 -96 
Q 998 -13 909 -13 
Q 883 -13 822 -25 
Q 762 -38 723 -38 
Q 352 -38 352 288 
Q 352 454 457 553 
Q 563 653 736 653 
Q 954 653 1101 496 
Q 1248 339 1248 96 
Q 1248 -198 1053 -473 
Q 858 -749 531 -902 
z
" transform="scale(0.015625)"/>
     <path id="STIXGeneral-Regular-54" d="M 3795 3149 
L 3642 3149 
Q 3539 3674 3353 3821 
Q 3168 3968 2656 3968 
L 2278 3968 
L 2278 710 
Q 2278 346 2387 243 
Q 2496 141 2893 122 
L 2893 0 
L 1024 0 
L 1024 122 
Q 1427 147 1526 256 
Q 1626 365 1626 787 
L 1626 3968 
L 1242 3968 
Q 723 3968 540 3817 
Q 358 3667 262 3149 
L 109 3149 
L 154 4237 
L 3750 4237 
L 3795 3149 
z
" transform="scale(0.015625)"/>
     <path id="STIXGeneral-Regular-49" d="M 2016 0 
L 115 0 
L 115 122 
Q 518 134 627 240 
Q 736 346 736 717 
L 736 3526 
Q 736 3898 633 3994 
Q 531 4090 115 4115 
L 115 4237 
L 2016 4237 
L 2016 4115 
Q 1613 4096 1501 3993 
Q 1389 3891 1389 3526 
L 1389 717 
Q 1389 358 1504 246 
Q 1619 134 2016 122 
L 2016 0 
z
" transform="scale(0.015625)"/>
     <path id="STIXGeneral-Regular-25" d="M 4390 1363 
Q 4390 781 4070 329 
Q 3750 -122 3341 -122 
Q 3014 -122 2790 134 
Q 2566 390 2566 762 
Q 2566 1274 2940 1693 
Q 3315 2112 3776 2112 
Q 4070 2112 4230 1917 
Q 4390 1722 4390 1363 
z
M 4243 1376 
Q 4243 1626 4131 1779 
Q 4019 1933 3840 1933 
Q 3654 1933 3526 1786 
Q 3315 1562 3171 1187 
Q 3027 813 3027 486 
Q 3027 301 3129 176 
Q 3232 51 3386 51 
Q 3718 51 3980 457 
Q 4243 864 4243 1376 
z
M 3974 4518 
L 1222 -115 
L 922 -115 
L 3443 4096 
Q 3264 3891 3094 3811 
Q 2925 3731 2669 3731 
Q 2445 3731 2182 3821 
Q 2208 3674 2208 3539 
Q 2208 3206 2067 2873 
Q 1926 2541 1696 2323 
Q 1453 2086 1146 2086 
Q 826 2086 608 2339 
Q 390 2592 390 2963 
Q 390 3507 761 3916 
Q 1133 4326 1626 4326 
Q 1792 4326 2010 4147 
Q 2310 3898 2624 3898 
Q 2918 3898 3084 3994 
Q 3251 4090 3693 4518 
L 3974 4518 
z
M 2054 3642 
Q 2054 3782 2025 3833 
Q 1997 3885 1894 3936 
Q 1747 4006 1613 4154 
Q 1414 4058 1331 3984 
Q 1248 3910 1152 3750 
Q 845 3264 845 2707 
Q 845 2509 944 2384 
Q 1043 2259 1210 2259 
Q 1549 2259 1801 2675 
Q 2054 3091 2054 3642 
z
" transform="scale(0.015625)"/>
    </defs>
    <use xlink:href="#DejaVuSans-Oblique-3b3" transform="translate(0 0.78125)"/>
    <use xlink:href="#DejaVuSans-3d" transform="translate(78.662109 0.78125)"/>
    <use xlink:href="#DejaVuSans-34" transform="translate(181.933594 0.78125)"/>
    <use xlink:href="#DejaVuSans-30" transform="translate(245.556641 0.78125)"/>
    <use xlink:href="#DejaVuSans-2218" transform="translate(323.774414 39.0625)scale(0.7)"/>
    <use xlink:href="#STIXGeneral-Regular-2c" transform="translate(383.964844 0.78125)"/>
    <use xlink:href="#STIXGeneral-Regular-20" transform="translate(408.964828 0.78125)"/>
    <use xlink:href="#STIXGeneral-Regular-54" transform="translate(433.964813 0.78125)"/>
    <use xlink:href="#STIXGeneral-Regular-2e" transform="translate(495.064804 0.78125)"/>
    <use xlink:href="#STIXGeneral-Regular-49" transform="translate(520.064789 0.78125)"/>
    <use xlink:href="#STIXGeneral-Regular-2e" transform="translate(553.364777 0.78125)"/>
    <use xlink:href="#DejaVuSans-3d" transform="translate(597.847183 0.78125)"/>
    <use xlink:href="#DejaVuSans-34" transform="translate(701.118668 0.78125)"/>
    <use xlink:href="#STIXGeneral-Regular-25" transform="translate(764.741714 0.78125)"/>
   </g>
  </g>
 </g>
 <defs>
  <clipPath id="pa683f7e931">
   <rect x="39.8" y="35.256" width="218.719091" height="98.196"/>
  </clipPath>
  <clipPath id="p42b4046ccc">
   <rect x="302.262909" y="35.256" width="218.719091" height="98.196"/>
  </clipPath>
  <clipPath id="p73c7b3986c">
   <rect x="39.8" y="153.0912" width="218.719091" height="98.196"/>
  </clipPath>
  <clipPath id="pb8196c5a9e">
   <rect x="302.262909" y="153.0912" width="218.719091" height="98.196"/>
  </clipPath>
 </defs>
</svg>
