<?xml version="1.0" encoding="utf-8" standalone="no"?>
<!DOCTYPE svg PUBLIC "-//W3C//DTD SVG 1.1//EN"
  "http://www.w3.org/Graphics/SVG/1.1/DTD/svg11.dtd">
<svg xmlns:xlink="http://www.w3.org/1999/xlink" width="616.649977pt" height="290.6872pt" viewBox="0 0 616.649977 290.6872" xmlns="http://www.w3.org/2000/svg" version="1.1">
 <metadata>
  <rdf:RDF xmlns:dc="http://purl.org/dc/elements/1.1/" xmlns:cc="http://creativecommons.org/ns#" xmlns:rdf="http://www.w3.org/1999/02/22-rdf-syntax-ns#">
   <cc:Work>
    <dc:type rdf:resource="http://purl.org/dc/dcmitype/StillImage"/>
    <dc:date>2022-04-18T13:11:46.683861</dc:date>
    <dc:format>image/svg+xml</dc:format>
    <dc:creator>
     <cc:Agent>
      <dc:title>Matplotlib v3.5.1, https://matplotlib.org/</dc:title>
     </cc:Agent>
    </dc:creator>
   </cc:Work>
  </rdf:RDF>
 </metadata>
 <defs>
  <style type="text/css">*{stroke-linejoin: round; stroke-linecap: butt}</style>
 </defs>
 <g id="figure_1">
  <g id="patch_1">
   <path d="M 0 290.6872 
L 616.649977 290.6872 
L 616.649977 0 
L 0 0 
z
" style="fill: #ffffff"/>
  </g>
  <g id="axes_1">
   <g id="patch_2">
    <path d="M 39.8 133.452 
L 258.519091 133.452 
L 258.519091 35.256 
L 39.8 35.256 
z
" style="fill: #ffffff"/>
   </g>
   <g id="matplotlib.axis_1">
    <g id="xtick_1">
     <g id="line2d_1">
      <path d="M 39.8 133.452 
L 39.8 35.256 
" clip-path="url(#p98edfbdb98)" style="fill: none; stroke-dasharray: 0.8,1.32; stroke-dashoffset: 0; stroke: #b0b0b0; stroke-width: 0.8"/>
     </g>
     <g id="line2d_2">
      <defs>
       <path id="mf384df1a22" d="M 0 0 
L 0 3.5 
" style="stroke: #000000; stroke-width: 0.8"/>
      </defs>
      <g>
       <use xlink:href="#mf384df1a22" x="39.8" y="133.452" style="stroke: #000000; stroke-width: 0.8"/>
      </g>
     </g>
    </g>
    <g id="xtick_2">
     <g id="line2d_3">
      <path d="M 94.479773 133.452 
L 94.479773 35.256 
" clip-path="url(#p98edfbdb98)" style="fill: none; stroke-dasharray: 0.8,1.32; stroke-dashoffset: 0; stroke: #b0b0b0; stroke-width: 0.8"/>
     </g>
     <g id="line2d_4">
      <g>
       <use xlink:href="#mf384df1a22" x="94.479773" y="133.452" style="stroke: #000000; stroke-width: 0.8"/>
      </g>
     </g>
    </g>
    <g id="xtick_3">
     <g id="line2d_5">
      <path d="M 149.159545 133.452 
L 149.159545 35.256 
" clip-path="url(#p98edfbdb98)" style="fill: none; stroke-dasharray: 0.8,1.32; stroke-dashoffset: 0; stroke: #b0b0b0; stroke-width: 0.8"/>
     </g>
     <g id="line2d_6">
      <g>
       <use xlink:href="#mf384df1a22" x="149.159545" y="133.452" style="stroke: #000000; stroke-width: 0.8"/>
      </g>
     </g>
    </g>
    <g id="xtick_4">
     <g id="line2d_7">
      <path d="M 203.839318 133.452 
L 203.839318 35.256 
" clip-path="url(#p98edfbdb98)" style="fill: none; stroke-dasharray: 0.8,1.32; stroke-dashoffset: 0; stroke: #b0b0b0; stroke-width: 0.8"/>
     </g>
     <g id="line2d_8">
      <g>
       <use xlink:href="#mf384df1a22" x="203.839318" y="133.452" style="stroke: #000000; stroke-width: 0.8"/>
      </g>
     </g>
    </g>
    <g id="xtick_5">
     <g id="line2d_9">
      <path d="M 258.519091 133.452 
L 258.519091 35.256 
" clip-path="url(#p98edfbdb98)" style="fill: none; stroke-dasharray: 0.8,1.32; stroke-dashoffset: 0; stroke: #b0b0b0; stroke-width: 0.8"/>
     </g>
     <g id="line2d_10">
      <g>
       <use xlink:href="#mf384df1a22" x="258.519091" y="133.452" style="stroke: #000000; stroke-width: 0.8"/>
      </g>
     </g>
    </g>
   </g>
   <g id="matplotlib.axis_2">
    <g id="ytick_1">
     <g id="line2d_11">
      <path d="M 39.8 129.028124 
L 258.519091 129.028124 
" clip-path="url(#p98edfbdb98)" style="fill: none; stroke-dasharray: 0.8,1.32; stroke-dashoffset: 0; stroke: #b0b0b0; stroke-width: 0.8"/>
     </g>
     <g id="line2d_12">
      <defs>
       <path id="m517c2f8d4f" d="M 0 0 
L -3.5 0 
" style="stroke: #000000; stroke-width: 0.8"/>
      </defs>
      <g>
       <use xlink:href="#m517c2f8d4f" x="39.8" y="129.028124" style="stroke: #000000; stroke-width: 0.8"/>
      </g>
     </g>
     <g id="text_1">
      <!-- 0.0 -->
      <g transform="translate(20.3 132.442967)scale(0.1 -0.1)">
       <defs>
        <path id="STIXGeneral-Regular-30" d="M 3046 2112 
Q 3046 1683 2963 1302 
Q 2880 922 2717 602 
Q 2554 282 2266 96 
Q 1978 -90 1600 -90 
Q 1210 -90 915 108 
Q 621 307 461 640 
Q 301 973 227 1350 
Q 154 1728 154 2150 
Q 154 2746 301 3222 
Q 448 3699 790 4012 
Q 1133 4326 1626 4326 
Q 2253 4326 2649 3712 
Q 3046 3098 3046 2112 
z
M 2432 2080 
Q 2432 3091 2217 3625 
Q 2003 4160 1587 4160 
Q 1190 4160 979 3622 
Q 768 3085 768 2106 
Q 768 1120 979 598 
Q 1190 77 1600 77 
Q 2003 77 2217 598 
Q 2432 1120 2432 2080 
z
" transform="scale(0.015625)"/>
        <path id="STIXGeneral-Regular-2e" d="M 1158 275 
Q 1158 134 1052 32 
Q 947 -70 800 -70 
Q 653 -70 550 32 
Q 448 134 448 281 
Q 448 429 553 534 
Q 659 640 806 640 
Q 947 640 1052 531 
Q 1158 422 1158 275 
z
" transform="scale(0.015625)"/>
       </defs>
       <use xlink:href="#STIXGeneral-Regular-30"/>
       <use xlink:href="#STIXGeneral-Regular-2e" x="49.999985"/>
       <use xlink:href="#STIXGeneral-Regular-30" x="74.999969"/>
      </g>
     </g>
    </g>
    <g id="ytick_2">
     <g id="line2d_13">
      <path d="M 39.8 89.993883 
L 258.519091 89.993883 
" clip-path="url(#p98edfbdb98)" style="fill: none; stroke-dasharray: 0.8,1.32; stroke-dashoffset: 0; stroke: #b0b0b0; stroke-width: 0.8"/>
     </g>
     <g id="line2d_14">
      <g>
       <use xlink:href="#m517c2f8d4f" x="39.8" y="89.993883" style="stroke: #000000; stroke-width: 0.8"/>
      </g>
     </g>
     <g id="text_2">
      <!-- 0.5 -->
      <g transform="translate(20.3 93.408726)scale(0.1 -0.1)">
       <defs>
        <path id="STIXGeneral-Regular-35" d="M 2803 4358 
L 2573 3814 
Q 2534 3731 2400 3731 
L 1158 3731 
L 902 3187 
Q 1606 3053 1920 2896 
Q 2234 2739 2502 2368 
Q 2726 2061 2726 1555 
Q 2726 1094 2576 780 
Q 2426 467 2099 224 
Q 1664 -90 1011 -90 
Q 646 -90 422 19 
Q 198 128 198 307 
Q 198 550 486 550 
Q 717 550 960 352 
Q 1210 147 1414 147 
Q 1747 147 2012 480 
Q 2278 813 2278 1229 
Q 2278 1843 1850 2189 
Q 1293 2637 486 2637 
Q 410 2637 410 2688 
L 416 2720 
L 1114 4237 
L 2438 4237 
Q 2547 4237 2608 4269 
Q 2669 4301 2746 4403 
L 2803 4358 
z
" transform="scale(0.015625)"/>
       </defs>
       <use xlink:href="#STIXGeneral-Regular-30"/>
       <use xlink:href="#STIXGeneral-Regular-2e" x="49.999985"/>
       <use xlink:href="#STIXGeneral-Regular-35" x="74.999969"/>
      </g>
     </g>
    </g>
    <g id="ytick_3">
     <g id="line2d_15">
      <path d="M 39.8 50.959641 
L 258.519091 50.959641 
" clip-path="url(#p98edfbdb98)" style="fill: none; stroke-dasharray: 0.8,1.32; stroke-dashoffset: 0; stroke: #b0b0b0; stroke-width: 0.8"/>
     </g>
     <g id="line2d_16">
      <g>
       <use xlink:href="#m517c2f8d4f" x="39.8" y="50.959641" style="stroke: #000000; stroke-width: 0.8"/>
      </g>
     </g>
     <g id="text_3">
      <!-- 1.0 -->
      <g transform="translate(20.3 54.374485)scale(0.1 -0.1)">
       <defs>
        <path id="STIXGeneral-Regular-31" d="M 2522 0 
L 755 0 
L 755 96 
Q 1107 115 1235 227 
Q 1363 339 1363 608 
L 1363 3482 
Q 1363 3795 1171 3795 
Q 1082 3795 883 3718 
L 710 3654 
L 710 3744 
L 1856 4326 
L 1914 4307 
L 1914 486 
Q 1914 275 2042 185 
Q 2170 96 2522 96 
L 2522 0 
z
" transform="scale(0.015625)"/>
       </defs>
       <use xlink:href="#STIXGeneral-Regular-31"/>
       <use xlink:href="#STIXGeneral-Regular-2e" x="49.999985"/>
       <use xlink:href="#STIXGeneral-Regular-30" x="74.999969"/>
      </g>
     </g>
    </g>
    <g id="text_4">
     <!-- $V/V_c$ [-] -->
     <g transform="translate(14.129688 101.204)rotate(-90)scale(0.1 -0.1)">
      <defs>
       <path id="DejaVuSans-Oblique-56" d="M 1319 0 
L 500 4666 
L 1119 4666 
L 1797 653 
L 4063 4666 
L 4750 4666 
L 2053 0 
L 1319 0 
z
" transform="scale(0.015625)"/>
       <path id="DejaVuSans-2f" d="M 1625 4666 
L 2156 4666 
L 531 -594 
L 0 -594 
L 1625 4666 
z
" transform="scale(0.015625)"/>
       <path id="DejaVuSans-Oblique-63" d="M 3431 3366 
L 3316 2797 
Q 3109 2947 2876 3022 
Q 2644 3097 2394 3097 
Q 2119 3097 1870 3000 
Q 1622 2903 1453 2725 
Q 1184 2453 1037 2087 
Q 891 1722 891 1331 
Q 891 859 1127 628 
Q 1363 397 1844 397 
Q 2081 397 2348 469 
Q 2616 541 2906 684 
L 2797 116 
Q 2547 13 2283 -39 
Q 2019 -91 1741 -91 
Q 1044 -91 669 257 
Q 294 606 294 1253 
Q 294 1797 489 2255 
Q 684 2713 1069 3078 
Q 1331 3328 1684 3456 
Q 2038 3584 2456 3584 
Q 2700 3584 2940 3529 
Q 3181 3475 3431 3366 
z
" transform="scale(0.015625)"/>
       <path id="STIXGeneral-Regular-20" transform="scale(0.015625)"/>
       <path id="STIXGeneral-Regular-5b" d="M 1914 -998 
L 563 -998 
L 563 4237 
L 1914 4237 
L 1914 4077 
L 1382 4077 
Q 1216 4077 1133 4006 
Q 1050 3936 1050 3770 
L 1050 -493 
Q 1050 -838 1382 -838 
L 1914 -838 
L 1914 -998 
z
" transform="scale(0.015625)"/>
       <path id="STIXGeneral-Regular-2d" d="M 1824 1242 
L 250 1242 
L 250 1645 
L 1824 1645 
L 1824 1242 
z
" transform="scale(0.015625)"/>
       <path id="STIXGeneral-Regular-5d" d="M 1568 -998 
L 218 -998 
L 218 -838 
L 781 -838 
Q 947 -838 1014 -768 
Q 1082 -698 1082 -544 
L 1082 3731 
Q 1082 4077 755 4077 
L 218 4077 
L 218 4237 
L 1568 4237 
L 1568 -998 
z
" transform="scale(0.015625)"/>
      </defs>
      <use xlink:href="#DejaVuSans-Oblique-56" transform="translate(0 0.09375)"/>
      <use xlink:href="#DejaVuSans-2f" transform="translate(68.408203 0.09375)"/>
      <use xlink:href="#DejaVuSans-Oblique-56" transform="translate(102.099609 0.09375)"/>
      <use xlink:href="#DejaVuSans-Oblique-63" transform="translate(170.507812 -16.3125)scale(0.7)"/>
      <use xlink:href="#STIXGeneral-Regular-20" transform="translate(211.728516 0.09375)"/>
      <use xlink:href="#STIXGeneral-Regular-5b" transform="translate(236.7285 0.09375)"/>
      <use xlink:href="#STIXGeneral-Regular-2d" transform="translate(270.028488 0.09375)"/>
      <use xlink:href="#STIXGeneral-Regular-5d" transform="translate(303.328476 0.09375)"/>
     </g>
    </g>
   </g>
   <g id="line2d_17">
    <path d="M -1 125.136897 
L 4.695653 124.90682 
L 11.574886 124.601132 
L 18.454119 124.263894 
L 25.333352 123.88888 
L 32.212585 123.468863 
L 39.091818 122.992674 
L 45.971051 122.446452 
L 52.850284 121.807783 
L 59.729517 121.047919 
L 66.60875 120.119034 
L 73.487983 118.957985 
L 80.367216 117.459363 
L 87.246449 115.479377 
L 94.125682 112.780733 
L 101.004915 109.030263 
L 107.884148 103.683231 
L 114.763381 95.969978 
L 121.642614 84.703143 
L 128.521847 69.363107 
L 135.401079 52.998157 
L 142.280312 41.475114 
L 149.159545 41.3774 
L 156.038778 53.830617 
L 162.918011 70.003192 
L 169.797244 84.562409 
L 176.676477 96.933081 
L 183.55571 102.428358 
L 190.434943 105.242504 
L 197.314176 108.949969 
L 204.193409 112.182621 
L 211.072642 114.816505 
L 217.951875 116.846271 
L 224.831108 118.38483 
L 231.710341 119.570711 
L 238.589574 120.507655 
L 245.468807 121.267175 
L 252.34804 121.897854 
L 259.227273 122.432527 
L 266.106506 122.893997 
L 272.985739 123.298238 
L 279.864972 123.656696 
L 286.744205 123.977796 
L 293.623438 124.267571 
L 300.502671 124.531878 
L 307.381904 124.771626 
L 314.627197 124.997121 
L 323.074048 125.240816 
L 333.370499 125.513438 
L 345.909586 125.805192 
L 361.162044 126.115387 
L 379.68884 126.435788 
L 402.154333 126.760271 
L 429.339308 127.079725 
L 462.152611 127.386097 
L 501.639576 127.671146 
L 548.984581 127.928275 
L 605.503937 128.152795 
L 617.649977 128.18713 
" clip-path="url(#p98edfbdb98)" style="fill: none; stroke: #1f77b4; stroke-width: 2; stroke-linecap: square"/>
   </g>
   <g id="line2d_18">
    <path d="M -1 125.150576 
L -0.332413 125.125482 
L 6.65199 124.838717 
L 12.642867 124.575563 
L 18.331062 124.297199 
L 24.019257 123.99062 
L 29.707452 123.657428 
L 35.395647 123.291371 
L 41.083842 122.887781 
L 46.772037 122.439354 
L 52.460232 121.937362 
L 58.148426 121.369031 
L 63.836621 120.717819 
L 69.524816 119.958999 
L 75.213011 119.058678 
L 80.901206 117.96583 
L 86.589401 116.60669 
L 92.277596 114.870796 
L 97.965791 112.591026 
L 103.653986 109.522064 
L 109.342181 105.288702 
L 115.030376 99.383539 
L 120.718571 91.172932 
L 126.406766 80.005816 
L 132.094961 66.627695 
L 137.783156 53.907052 
L 143.471351 44.690423 
L 149.159545 41.388715 
L 154.84774 46.294038 
L 160.535935 57.572163 
L 166.22413 69.8226 
L 171.912325 81.567878 
L 177.60052 92.806884 
L 183.288715 99.918329 
L 188.97691 103.588291 
L 194.665105 107.037829 
L 200.3533 110.071674 
L 206.041495 112.653304 
L 211.72969 114.76455 
L 217.417885 116.444089 
L 223.10608 117.781642 
L 228.794275 118.863793 
L 234.482469 119.757676 
L 240.170664 120.511087 
L 245.858859 121.157228 
L 251.547054 121.719582 
L 257.235249 122.214852 
L 262.923444 122.65552 
L 268.611639 123.050214 
L 274.299834 123.408087 
L 279.988029 123.729071 
L 285.978906 124.029809 
L 292.963309 124.353436 
L 301.47708 124.709907 
L 311.84521 125.087373 
L 324.456928 125.482534 
L 339.776082 125.884037 
L 358.352005 126.283145 
L 380.830302 126.668578 
L 407.962463 127.032114 
L 440.612841 127.366197 
L 479.760755 127.666268 
L 526.494615 127.929354 
L 581.994527 128.154488 
L 617.649977 128.256677 
" clip-path="url(#p98edfbdb98)" style="fill: none; stroke: #ff7f0e; stroke-width: 2; stroke-linecap: square"/>
   </g>
   <g id="line2d_19">
    <path d="M -1 125.245068 
L 2.18308 125.122515 
L 12.424924 124.657223 
L 20.844771 124.218051 
L 27.758714 123.808586 
L 33.430673 123.441173 
L 38.295801 123.103485 
L 42.915124 122.746262 
L 47.534446 122.352554 
L 52.153769 121.924339 
L 56.773092 121.453728 
L 61.392414 120.934661 
L 66.011737 120.35821 
L 70.63106 119.71326 
L 75.250383 118.984698 
L 79.869705 118.152033 
L 84.489028 117.186907 
L 89.108351 116.048388 
L 93.727673 114.678956 
L 98.346996 112.991289 
L 102.966319 110.861482 
L 107.585641 108.097733 
L 112.204964 104.43786 
L 116.824287 99.502981 
L 121.443609 92.882661 
L 126.062932 84.158137 
L 130.682255 73.174798 
L 135.301577 61.202478 
L 139.9209 50.682226 
L 144.540223 43.581446 
L 149.159545 41.216378 
L 153.778868 44.305997 
L 158.398191 51.6311 
L 163.017514 60.700697 
L 167.636836 70.215608 
L 172.256159 79.962616 
L 176.875482 89.203263 
L 181.494804 95.968911 
L 186.114127 100.188351 
L 190.73345 103.574594 
L 195.352772 106.549761 
L 199.972095 109.180561 
L 204.591418 111.453169 
L 209.21074 113.347772 
L 213.830063 114.90603 
L 218.449386 116.196566 
L 223.068708 117.282362 
L 227.688031 118.211249 
L 232.307354 119.017763 
L 236.926676 119.726538 
L 241.545999 120.355955 
L 246.165322 120.918539 
L 250.784645 121.427847 
L 255.403967 121.883333 
L 260.269095 122.309471 
L 265.941054 122.767673 
L 272.854998 123.270046 
L 281.274845 123.800015 
L 291.516688 124.351424 
L 303.95721 124.907697 
L 319.04252 125.454938 
L 337.296906 125.976418 
L 359.330646 126.460261 
L 385.845671 126.896626 
L 417.637276 127.281426 
L 455.589347 127.613645 
L 500.660236 127.895432 
L 553.855495 128.130121 
L 616.184039 128.321908 
L 617.649977 128.325015 
" clip-path="url(#p98edfbdb98)" style="fill: none; stroke: #2ca02c; stroke-width: 2; stroke-linecap: square"/>
   </g>
   <g id="line2d_20">
    <path d="M -1 125.395557 
L 4.555275 125.178819 
L 17.055973 124.572958 
L 27.365022 123.969338 
L 35.852098 123.38197 
L 42.829346 122.826693 
L 48.558702 122.308229 
L 53.258866 121.842175 
L 57.290436 121.413416 
L 61.118316 120.959754 
L 64.946195 120.459394 
L 68.774075 119.914961 
L 72.601954 119.316579 
L 76.429834 118.65668 
L 80.257713 117.924504 
L 84.085593 117.106458 
L 87.913472 116.184851 
L 91.741352 115.135348 
L 95.569232 113.92542 
L 99.397111 112.507665 
L 103.224991 110.816796 
L 107.05287 108.754194 
L 110.88075 106.183121 
L 114.708629 102.902498 
L 118.536509 98.658595 
L 122.364389 93.138628 
L 126.192268 86.077604 
L 130.020148 77.28599 
L 133.848027 66.915433 
L 137.675907 56.299979 
L 141.503786 47.468456 
L 145.331666 41.918921 
L 149.159545 40.408531 
L 152.987425 42.85622 
L 156.815305 48.217814 
L 160.643184 55.169097 
L 164.471064 62.89822 
L 168.298943 71.051493 
L 172.126823 79.285061 
L 175.954702 86.853127 
L 179.782582 92.741343 
L 183.610461 96.904689 
L 187.438341 100.182016 
L 191.266221 103.05858 
L 195.0941 105.693057 
L 198.92198 108.077259 
L 202.749859 110.147235 
L 206.577739 111.899144 
L 210.405618 113.379991 
L 214.233498 114.645462 
L 218.061378 115.741796 
L 221.889257 116.703403 
L 225.717137 117.556095 
L 229.545016 118.317389 
L 233.372896 119.006046 
L 237.200775 119.621489 
L 241.232345 120.19693 
L 245.93251 120.815523 
L 251.661866 121.493141 
L 258.639114 122.20729 
L 267.12619 122.949187 
L 277.435238 123.696319 
L 289.935934 124.428978 
L 305.062738 125.123732 
L 323.321368 125.763559 
L 345.293491 126.334495 
L 371.638139 126.831168 
L 403.087763 127.253267 
L 440.436514 127.605913 
L 484.517661 127.896162 
L 536.16726 128.131948 
L 596.171363 128.320697 
L 617.649977 128.366946 
" clip-path="url(#p98edfbdb98)" style="fill: none; stroke: #d62728; stroke-width: 2; stroke-linecap: square"/>
   </g>
   <g id="line2d_21">
    <path d="M -1 125.570825 
L 12.551269 124.983889 
L 25.488304 124.268747 
L 36.17939 123.533131 
L 44.996093 122.799048 
L 52.254573 122.083774 
L 58.221789 121.406717 
L 63.121759 120.773898 
L 67.141524 120.204415 
L 70.589481 119.680255 
L 73.863233 119.125604 
L 77.136986 118.513687 
L 80.410739 117.847869 
L 83.684492 117.116248 
L 86.958244 116.309844 
L 90.231997 115.41609 
L 93.50575 114.419191 
L 96.779502 113.298951 
L 100.053255 112.027729 
L 103.327008 110.569004 
L 106.60076 108.870164 
L 109.874513 106.859432 
L 113.148266 104.432319 
L 116.422018 101.449711 
L 119.695771 97.725465 
L 122.969524 93.050741 
L 126.243277 87.214011 
L 129.517029 80.079647 
L 132.790782 71.609729 
L 136.064535 62.085443 
L 139.338287 52.734173 
L 142.61204 45.246312 
L 145.885793 40.777596 
L 149.159545 39.719455 
L 152.433298 41.726834 
L 155.707051 45.976498 
L 158.980804 51.616369 
L 162.254556 58.063387 
L 165.528309 64.982287 
L 168.802062 72.109939 
L 172.075814 79.081855 
L 175.349567 85.341646 
L 178.62332 90.379429 
L 181.897072 94.225429 
L 185.170825 97.341972 
L 188.444578 100.118189 
L 191.718331 102.734537 
L 194.992083 105.179145 
L 198.265836 107.363126 
L 201.539589 109.252925 
L 204.813341 110.87697 
L 208.087094 112.282593 
L 211.360847 113.512574 
L 214.634599 114.60095 
L 217.908352 115.571176 
L 221.182105 116.447887 
L 224.455857 117.230874 
L 227.903814 117.962566 
L 231.923579 118.748847 
L 236.823549 119.609867 
L 242.790765 120.516936 
L 250.049245 121.458856 
L 258.865947 122.407131 
L 269.557033 123.336343 
L 282.494069 124.216215 
L 298.109566 125.024366 
L 316.900986 125.742209 
L 339.431963 126.36232 
L 366.328914 126.884065 
L 398.27103 127.314654 
L 435.970956 127.664467 
L 480.143718 127.945539 
L 531.46158 128.168984 
L 590.493976 128.344617 
L 617.649977 128.399707 
" clip-path="url(#p98edfbdb98)" style="fill: none; stroke: #9467bd; stroke-width: 2; stroke-linecap: square"/>
   </g>
   <g id="patch_3">
    <path d="M 39.8 133.452 
L 39.8 35.256 
" style="fill: none; stroke: #000000; stroke-width: 0.8; stroke-linejoin: miter; stroke-linecap: square"/>
   </g>
   <g id="patch_4">
    <path d="M 258.519091 133.452 
L 258.519091 35.256 
" style="fill: none; stroke: #000000; stroke-width: 0.8; stroke-linejoin: miter; stroke-linecap: square"/>
   </g>
   <g id="patch_5">
    <path d="M 39.8 133.452 
L 258.519091 133.452 
" style="fill: none; stroke: #000000; stroke-width: 0.8; stroke-linejoin: miter; stroke-linecap: square"/>
   </g>
   <g id="patch_6">
    <path d="M 39.8 35.256 
L 258.519091 35.256 
" style="fill: none; stroke: #000000; stroke-width: 0.8; stroke-linejoin: miter; stroke-linecap: square"/>
   </g>
   <g id="text_5">
    <!-- T.I.$=4\%$ -->
    <g transform="translate(123.599545 29.256)scale(0.12 -0.12)">
     <defs>
      <path id="STIXGeneral-Regular-54" d="M 3795 3149 
L 3642 3149 
Q 3539 3674 3353 3821 
Q 3168 3968 2656 3968 
L 2278 3968 
L 2278 710 
Q 2278 346 2387 243 
Q 2496 141 2893 122 
L 2893 0 
L 1024 0 
L 1024 122 
Q 1427 147 1526 256 
Q 1626 365 1626 787 
L 1626 3968 
L 1242 3968 
Q 723 3968 540 3817 
Q 358 3667 262 3149 
L 109 3149 
L 154 4237 
L 3750 4237 
L 3795 3149 
z
" transform="scale(0.015625)"/>
      <path id="STIXGeneral-Regular-49" d="M 2016 0 
L 115 0 
L 115 122 
Q 518 134 627 240 
Q 736 346 736 717 
L 736 3526 
Q 736 3898 633 3994 
Q 531 4090 115 4115 
L 115 4237 
L 2016 4237 
L 2016 4115 
Q 1613 4096 1501 3993 
Q 1389 3891 1389 3526 
L 1389 717 
Q 1389 358 1504 246 
Q 1619 134 2016 122 
L 2016 0 
z
" transform="scale(0.015625)"/>
      <path id="DejaVuSans-3d" d="M 678 2906 
L 4684 2906 
L 4684 2381 
L 678 2381 
L 678 2906 
z
M 678 1631 
L 4684 1631 
L 4684 1100 
L 678 1100 
L 678 1631 
z
" transform="scale(0.015625)"/>
      <path id="DejaVuSans-34" d="M 2419 4116 
L 825 1625 
L 2419 1625 
L 2419 4116 
z
M 2253 4666 
L 3047 4666 
L 3047 1625 
L 3713 1625 
L 3713 1100 
L 3047 1100 
L 3047 0 
L 2419 0 
L 2419 1100 
L 313 1100 
L 313 1709 
L 2253 4666 
z
" transform="scale(0.015625)"/>
      <path id="DejaVuSans-25" d="M 4653 2053 
Q 4381 2053 4226 1822 
Q 4072 1591 4072 1178 
Q 4072 772 4226 539 
Q 4381 306 4653 306 
Q 4919 306 5073 539 
Q 5228 772 5228 1178 
Q 5228 1588 5073 1820 
Q 4919 2053 4653 2053 
z
M 4653 2450 
Q 5147 2450 5437 2106 
Q 5728 1763 5728 1178 
Q 5728 594 5436 251 
Q 5144 -91 4653 -91 
Q 4153 -91 3862 251 
Q 3572 594 3572 1178 
Q 3572 1766 3864 2108 
Q 4156 2450 4653 2450 
z
M 1428 4353 
Q 1159 4353 1004 4120 
Q 850 3888 850 3481 
Q 850 3069 1003 2837 
Q 1156 2606 1428 2606 
Q 1700 2606 1854 2837 
Q 2009 3069 2009 3481 
Q 2009 3884 1853 4118 
Q 1697 4353 1428 4353 
z
M 4250 4750 
L 4750 4750 
L 1831 -91 
L 1331 -91 
L 4250 4750 
z
M 1428 4750 
Q 1922 4750 2215 4408 
Q 2509 4066 2509 3481 
Q 2509 2891 2217 2550 
Q 1925 2209 1428 2209 
Q 931 2209 642 2551 
Q 353 2894 353 3481 
Q 353 4063 643 4406 
Q 934 4750 1428 4750 
z
" transform="scale(0.015625)"/>
     </defs>
     <use xlink:href="#STIXGeneral-Regular-54" transform="translate(0 0.78125)"/>
     <use xlink:href="#STIXGeneral-Regular-2e" transform="translate(61.099991 0.78125)"/>
     <use xlink:href="#STIXGeneral-Regular-49" transform="translate(86.099976 0.78125)"/>
     <use xlink:href="#STIXGeneral-Regular-2e" transform="translate(119.399963 0.78125)"/>
     <use xlink:href="#DejaVuSans-3d" transform="translate(163.88237 0.78125)"/>
     <use xlink:href="#DejaVuSans-34" transform="translate(267.153854 0.78125)"/>
     <use xlink:href="#DejaVuSans-25" transform="translate(330.776901 0.78125)"/>
    </g>
   </g>
  </g>
  <g id="axes_2">
   <g id="patch_7">
    <path d="M 302.262909 133.452 
L 520.982 133.452 
L 520.982 35.256 
L 302.262909 35.256 
z
" style="fill: #ffffff"/>
   </g>
   <g id="matplotlib.axis_3">
    <g id="xtick_6">
     <g id="line2d_22">
      <path d="M 302.262909 133.452 
L 302.262909 35.256 
" clip-path="url(#pd616928a28)" style="fill: none; stroke-dasharray: 0.8,1.32; stroke-dashoffset: 0; stroke: #b0b0b0; stroke-width: 0.8"/>
     </g>
     <g id="line2d_23">
      <g>
       <use xlink:href="#mf384df1a22" x="302.262909" y="133.452" style="stroke: #000000; stroke-width: 0.8"/>
      </g>
     </g>
    </g>
    <g id="xtick_7">
     <g id="line2d_24">
      <path d="M 356.942682 133.452 
L 356.942682 35.256 
" clip-path="url(#pd616928a28)" style="fill: none; stroke-dasharray: 0.8,1.32; stroke-dashoffset: 0; stroke: #b0b0b0; stroke-width: 0.8"/>
     </g>
     <g id="line2d_25">
      <g>
       <use xlink:href="#mf384df1a22" x="356.942682" y="133.452" style="stroke: #000000; stroke-width: 0.8"/>
      </g>
     </g>
    </g>
    <g id="xtick_8">
     <g id="line2d_26">
      <path d="M 411.622455 133.452 
L 411.622455 35.256 
" clip-path="url(#pd616928a28)" style="fill: none; stroke-dasharray: 0.8,1.32; stroke-dashoffset: 0; stroke: #b0b0b0; stroke-width: 0.8"/>
     </g>
     <g id="line2d_27">
      <g>
       <use xlink:href="#mf384df1a22" x="411.622455" y="133.452" style="stroke: #000000; stroke-width: 0.8"/>
      </g>
     </g>
    </g>
    <g id="xtick_9">
     <g id="line2d_28">
      <path d="M 466.302227 133.452 
L 466.302227 35.256 
" clip-path="url(#pd616928a28)" style="fill: none; stroke-dasharray: 0.8,1.32; stroke-dashoffset: 0; stroke: #b0b0b0; stroke-width: 0.8"/>
     </g>
     <g id="line2d_29">
      <g>
       <use xlink:href="#mf384df1a22" x="466.302227" y="133.452" style="stroke: #000000; stroke-width: 0.8"/>
      </g>
     </g>
    </g>
    <g id="xtick_10">
     <g id="line2d_30">
      <path d="M 520.982 133.452 
L 520.982 35.256 
" clip-path="url(#pd616928a28)" style="fill: none; stroke-dasharray: 0.8,1.32; stroke-dashoffset: 0; stroke: #b0b0b0; stroke-width: 0.8"/>
     </g>
     <g id="line2d_31">
      <g>
       <use xlink:href="#mf384df1a22" x="520.982" y="133.452" style="stroke: #000000; stroke-width: 0.8"/>
      </g>
     </g>
    </g>
   </g>
   <g id="matplotlib.axis_4">
    <g id="ytick_4">
     <g id="line2d_32">
      <path d="M 302.262909 129.028124 
L 520.982 129.028124 
" clip-path="url(#pd616928a28)" style="fill: none; stroke-dasharray: 0.8,1.32; stroke-dashoffset: 0; stroke: #b0b0b0; stroke-width: 0.8"/>
     </g>
     <g id="line2d_33">
      <g>
       <use xlink:href="#m517c2f8d4f" x="302.262909" y="129.028124" style="stroke: #000000; stroke-width: 0.8"/>
      </g>
     </g>
    </g>
    <g id="ytick_5">
     <g id="line2d_34">
      <path d="M 302.262909 89.993883 
L 520.982 89.993883 
" clip-path="url(#pd616928a28)" style="fill: none; stroke-dasharray: 0.8,1.32; stroke-dashoffset: 0; stroke: #b0b0b0; stroke-width: 0.8"/>
     </g>
     <g id="line2d_35">
      <g>
       <use xlink:href="#m517c2f8d4f" x="302.262909" y="89.993883" style="stroke: #000000; stroke-width: 0.8"/>
      </g>
     </g>
    </g>
    <g id="ytick_6">
     <g id="line2d_36">
      <path d="M 302.262909 50.959641 
L 520.982 50.959641 
" clip-path="url(#pd616928a28)" style="fill: none; stroke-dasharray: 0.8,1.32; stroke-dashoffset: 0; stroke: #b0b0b0; stroke-width: 0.8"/>
     </g>
     <g id="line2d_37">
      <g>
       <use xlink:href="#m517c2f8d4f" x="302.262909" y="50.959641" style="stroke: #000000; stroke-width: 0.8"/>
      </g>
     </g>
    </g>
   </g>
   <g id="line2d_38">
    <path d="M -1 128.660106 
L 41.548258 128.54331 
L 87.382838 128.345689 
L 125.777443 128.096892 
L 157.799554 127.798514 
L 184.409622 127.457587 
L 206.455377 127.085 
L 224.673855 126.694419 
L 239.698231 126.299733 
L 252.067269 125.913208 
L 262.235889 125.546 
L 270.585834 125.203221 
L 277.43584 124.894738 
L 283.311437 124.611622 
L 288.890177 124.312547 
L 294.468917 123.982149 
L 300.047657 123.622857 
L 305.626397 123.2279 
L 311.205137 122.79193 
L 316.783877 122.30693 
L 322.362617 121.762767 
L 327.941356 121.144773 
L 333.520096 120.433119 
L 339.098836 119.598126 
L 344.677576 118.597968 
L 350.256316 117.368752 
L 355.835056 115.818386 
L 361.413796 113.806431 
L 366.992536 111.130775 
L 372.571275 107.495191 
L 378.150015 102.502666 
L 383.728755 95.659402 
L 389.307495 86.499958 
L 394.886235 74.683271 
L 400.464975 60.824665 
L 406.043715 47.836218 
L 411.622455 40.446829 
L 417.201194 42.106609 
L 422.779934 51.085935 
L 428.358674 62.71006 
L 433.937414 74.985035 
L 439.516154 86.921646 
L 445.094894 94.919069 
L 450.673634 99.630602 
L 456.252374 103.784885 
L 461.831113 107.393345 
L 467.409853 110.423452 
L 472.988593 112.899191 
L 478.567333 114.869352 
L 484.146073 116.422216 
L 489.724813 117.656231 
L 495.303553 118.655969 
L 500.882293 119.484369 
L 506.461032 120.185656 
L 512.039772 120.790544 
L 517.618512 121.32049 
L 523.197252 121.79074 
L 528.775992 122.212445 
L 534.354732 122.593525 
L 539.933472 122.941767 
L 545.512212 123.257624 
L 551.387809 123.555843 
L 558.237815 123.878865 
L 566.58776 124.240002 
L 576.756381 124.627953 
L 589.125418 125.041237 
L 604.149793 125.469899 
L 617.649977 125.792721 
" clip-path="url(#pd616928a28)" style="fill: none; stroke: #1f77b4; stroke-width: 2; stroke-linecap: square"/>
   </g>
   <g id="line2d_39">
    <path d="M -1 128.607392 
L 12.998291 128.57574 
L 65.395458 128.384416 
L 109.790126 128.132763 
L 147.172786 127.816722 
L 178.487406 127.437574 
L 204.604624 127.002036 
L 226.307782 126.521683 
L 244.288289 126.011387 
L 259.14727 125.487108 
L 271.401144 124.96524 
L 281.489325 124.458954 
L 289.782847 123.981389 
L 296.593058 123.53707 
L 302.179919 123.13849 
L 306.972053 122.772408 
L 311.522071 122.386061 
L 316.072088 121.960125 
L 320.622106 121.496958 
L 325.172123 120.988052 
L 329.722141 120.426308 
L 334.272158 119.801573 
L 338.822175 119.100753 
L 343.372193 118.305729 
L 347.92221 117.39157 
L 352.472228 116.322747 
L 357.022245 115.048371 
L 361.572263 113.494738 
L 366.12228 111.554772 
L 370.672298 109.076162 
L 375.222315 105.846116 
L 379.772332 101.590817 
L 384.32235 95.985076 
L 388.872367 88.719139 
L 393.422385 79.584573 
L 397.972402 68.606602 
L 402.52242 56.791369 
L 407.072437 46.537688 
L 411.622455 40.584356 
L 416.172472 40.67929 
L 420.722489 46.201962 
L 425.272507 54.756669 
L 429.822524 64.593269 
L 434.372542 74.959805 
L 438.922559 84.794486 
L 443.472577 92.322876 
L 448.022594 97.350002 
L 452.572612 101.184053 
L 457.122629 104.412764 
L 461.672646 107.211459 
L 466.222664 109.64816 
L 470.772681 111.728311 
L 475.322699 113.464955 
L 479.872716 114.904288 
L 484.422734 116.105599 
L 488.972751 117.122504 
L 493.522769 117.996797 
L 498.072786 118.75933 
L 502.622803 119.432439 
L 507.172821 120.032714 
L 511.722838 120.571836 
L 516.272856 121.061754 
L 520.822873 121.502292 
L 525.615008 121.916402 
L 531.201869 122.362816 
L 538.01208 122.855841 
L 546.305602 123.379803 
L 556.393783 123.930111 
L 568.647656 124.492208 
L 583.506636 125.053593 
L 601.487145 125.598651 
L 617.649977 125.983577 
" clip-path="url(#pd616928a28)" style="fill: none; stroke: #ff7f0e; stroke-width: 2; stroke-linecap: square"/>
   </g>
   <g id="line2d_40">
    <path d="M -1 128.598497 
L 37.370405 128.495431 
L 87.317655 128.279452 
L 129.945911 127.993502 
L 166.06365 127.631139 
L 196.476699 127.190709 
L 221.953031 126.675964 
L 243.200963 126.096038 
L 260.857792 125.464329 
L 275.486018 124.798299 
L 287.574696 124.116206 
L 297.543961 123.438125 
L 305.751305 122.780082 
L 312.498585 122.158796 
L 318.039103 121.579825 
L 322.584351 121.05961 
L 326.483041 120.581054 
L 330.184755 120.075697 
L 333.886468 119.518137 
L 337.588182 118.911291 
L 341.289896 118.244148 
L 344.991609 117.507517 
L 348.693323 116.688613 
L 352.395037 115.77097 
L 356.09675 114.732522 
L 359.798464 113.543082 
L 363.500177 112.161077 
L 367.201891 110.527883 
L 370.903605 108.562178 
L 374.605318 106.150464 
L 378.307032 103.142397 
L 382.008746 99.345443 
L 385.710459 94.540354 
L 389.412173 88.502715 
L 393.113886 81.061795 
L 396.8156 72.164802 
L 400.517314 62.038502 
L 404.219027 51.795513 
L 407.920741 43.498638 
L 411.622455 39.038942 
L 415.324168 39.171988 
L 419.025882 43.246991 
L 422.727595 49.860996 
L 426.429309 57.84779 
L 430.131023 66.491306 
L 433.832736 75.193393 
L 437.53445 83.152331 
L 441.236164 89.539767 
L 444.937877 94.23188 
L 448.639591 97.793693 
L 452.341304 100.744549 
L 456.043018 103.369725 
L 459.744732 105.778139 
L 463.446445 107.956676 
L 467.148159 109.868773 
L 470.849872 111.515369 
L 474.551586 112.928719 
L 478.2533 114.149805 
L 481.955013 115.215776 
L 485.656727 116.156152 
L 489.358441 116.993818 
L 493.060154 117.745087 
L 496.761868 118.426937 
L 500.463581 119.038724 
L 504.362272 119.613116 
L 508.90752 120.231651 
L 514.448038 120.912375 
L 521.195318 121.633228 
L 529.402662 122.386192 
L 539.371926 123.150217 
L 551.460603 123.906201 
L 566.088831 124.631388 
L 583.745662 125.308891 
L 604.993588 125.924345 
L 617.649977 126.195989 
" clip-path="url(#pd616928a28)" style="fill: none; stroke: #2ca02c; stroke-width: 2; stroke-linecap: square"/>
   </g>
   <g id="line2d_41">
    <path d="M -1 128.603301 
L 50.508383 128.459071 
L 98.982083 128.239433 
L 140.706709 127.944453 
L 176.317239 127.564676 
L 206.489054 127.094337 
L 231.895319 126.532416 
L 253.177581 125.882829 
L 270.927547 125.15539 
L 285.677599 124.364555 
L 297.897637 123.530717 
L 307.996202 122.675456 
L 316.324265 121.823735 
L 323.180466 120.995672 
L 328.816967 120.212405 
L 333.445371 119.481197 
L 337.242352 118.823213 
L 340.499216 118.217313 
L 343.591531 117.577184 
L 346.683845 116.870572 
L 349.77616 116.101262 
L 352.868475 115.255533 
L 355.96079 114.322191 
L 359.053104 113.285877 
L 362.145419 112.127225 
L 365.237734 110.820821 
L 368.330049 109.33295 
L 371.422363 107.618517 
L 374.514678 105.616894 
L 377.606993 103.247742 
L 380.699307 100.4069 
L 383.791622 96.965482 
L 386.883937 92.774449 
L 389.976252 87.677524 
L 393.068566 81.536232 
L 396.160881 74.265614 
L 399.253196 65.908248 
L 402.34551 56.807033 
L 405.437825 48.034204 
L 408.53014 41.273296 
L 411.622455 37.824192 
L 414.714769 37.998409 
L 417.807084 41.229474 
L 420.899399 46.577633 
L 423.991713 53.208678 
L 427.084028 60.519619 
L 430.176343 68.042198 
L 433.268658 75.306007 
L 436.360972 81.799569 
L 439.453287 87.130977 
L 442.545602 91.271829 
L 445.637916 94.525271 
L 448.730231 97.267554 
L 451.822546 99.775102 
L 454.914861 102.162378 
L 458.007175 104.407174 
L 461.09949 106.448815 
L 464.191805 108.259321 
L 467.284119 109.848765 
L 470.376434 111.245385 
L 473.468749 112.479937 
L 476.561064 113.579859 
L 479.653378 114.565905 
L 482.745693 115.460406 
L 485.838008 116.262397 
L 489.094872 117.015071 
L 492.891853 117.825332 
L 497.520257 118.716154 
L 503.156758 119.658502 
L 510.012958 120.641116 
L 518.341021 121.636039 
L 528.439585 122.617188 
L 540.659625 123.553683 
L 555.409679 124.422127 
L 573.159641 125.202953 
L 594.441905 125.887775 
L 617.649977 126.423897 
" clip-path="url(#pd616928a28)" style="fill: none; stroke: #d62728; stroke-width: 2; stroke-linecap: square"/>
   </g>
   <g id="line2d_42">
    <path d="M -1 128.589964 
L 50.13224 128.458308 
L 98.484777 128.254174 
L 140.518425 127.974312 
L 176.699659 127.606654 
L 207.579094 127.141595 
L 233.742383 126.572697 
L 255.773258 125.89804 
L 274.22803 125.120527 
L 289.619796 124.250245 
L 302.410207 123.302887 
L 313.006731 122.30226 
L 321.763635 121.273857 
L 328.98526 120.247923 
L 334.930569 119.248977 
L 339.818224 118.302712 
L 343.831713 117.418246 
L 347.124241 116.621633 
L 349.948409 115.887655 
L 352.629889 115.112056 
L 355.311369 114.255796 
L 357.99285 113.323672 
L 360.67433 112.299435 
L 363.35581 111.170238 
L 366.03729 109.918702 
L 368.718771 108.523595 
L 371.400251 106.957805 
L 374.081731 105.186979 
L 376.763211 103.167103 
L 379.444692 100.842685 
L 382.126172 98.144438 
L 384.807652 94.989374 
L 387.489132 91.28109 
L 390.170613 86.916325 
L 392.852093 81.792026 
L 395.533573 75.82734 
L 398.215053 68.992667 
L 400.896534 61.39142 
L 403.578014 53.424481 
L 406.259494 46.027581 
L 408.940974 40.487186 
L 411.622455 37.697844 
L 414.303935 37.801406 
L 416.985415 40.363161 
L 419.666895 44.714747 
L 422.348376 50.233018 
L 425.029856 56.426818 
L 427.711336 62.911899 
L 430.392816 69.346537 
L 433.074297 75.392652 
L 435.755777 80.739962 
L 438.437257 85.203352 
L 441.118737 88.809354 
L 443.800218 91.770164 
L 446.481698 94.364205 
L 449.163178 96.810881 
L 451.844658 99.194656 
L 454.526139 101.482244 
L 457.207619 103.606083 
L 459.889099 105.526439 
L 462.570579 107.24049 
L 465.25206 108.766332 
L 467.93354 110.129261 
L 470.61502 111.351795 
L 473.2965 112.460707 
L 475.977981 113.454527 
L 478.802149 114.386994 
L 482.094676 115.390568 
L 486.108166 116.493381 
L 490.99582 117.659479 
L 496.941129 118.874578 
L 504.162754 120.10395 
L 512.919657 121.31482 
L 523.516183 122.46833 
L 536.306595 123.534495 
L 551.698357 124.48815 
L 570.153132 125.318271 
L 592.184009 126.022436 
L 617.649977 126.59308 
" clip-path="url(#pd616928a28)" style="fill: none; stroke: #9467bd; stroke-width: 2; stroke-linecap: square"/>
   </g>
   <g id="patch_8">
    <path d="M 302.262909 133.452 
L 302.262909 35.256 
" style="fill: none; stroke: #000000; stroke-width: 0.8; stroke-linejoin: miter; stroke-linecap: square"/>
   </g>
   <g id="patch_9">
    <path d="M 520.982 133.452 
L 520.982 35.256 
" style="fill: none; stroke: #000000; stroke-width: 0.8; stroke-linejoin: miter; stroke-linecap: square"/>
   </g>
   <g id="patch_10">
    <path d="M 302.262909 133.452 
L 520.982 133.452 
" style="fill: none; stroke: #000000; stroke-width: 0.8; stroke-linejoin: miter; stroke-linecap: square"/>
   </g>
   <g id="patch_11">
    <path d="M 302.262909 35.256 
L 520.982 35.256 
" style="fill: none; stroke: #000000; stroke-width: 0.8; stroke-linejoin: miter; stroke-linecap: square"/>
   </g>
   <g id="text_6">
    <!-- T.I.$=6\%$ -->
    <g transform="translate(386.062455 29.256)scale(0.12 -0.12)">
     <defs>
      <path id="DejaVuSans-36" d="M 2113 2584 
Q 1688 2584 1439 2293 
Q 1191 2003 1191 1497 
Q 1191 994 1439 701 
Q 1688 409 2113 409 
Q 2538 409 2786 701 
Q 3034 994 3034 1497 
Q 3034 2003 2786 2293 
Q 2538 2584 2113 2584 
z
M 3366 4563 
L 3366 3988 
Q 3128 4100 2886 4159 
Q 2644 4219 2406 4219 
Q 1781 4219 1451 3797 
Q 1122 3375 1075 2522 
Q 1259 2794 1537 2939 
Q 1816 3084 2150 3084 
Q 2853 3084 3261 2657 
Q 3669 2231 3669 1497 
Q 3669 778 3244 343 
Q 2819 -91 2113 -91 
Q 1303 -91 875 529 
Q 447 1150 447 2328 
Q 447 3434 972 4092 
Q 1497 4750 2381 4750 
Q 2619 4750 2861 4703 
Q 3103 4656 3366 4563 
z
" transform="scale(0.015625)"/>
     </defs>
     <use xlink:href="#STIXGeneral-Regular-54" transform="translate(0 0.78125)"/>
     <use xlink:href="#STIXGeneral-Regular-2e" transform="translate(61.099991 0.78125)"/>
     <use xlink:href="#STIXGeneral-Regular-49" transform="translate(86.099976 0.78125)"/>
     <use xlink:href="#STIXGeneral-Regular-2e" transform="translate(119.399963 0.78125)"/>
     <use xlink:href="#DejaVuSans-3d" transform="translate(163.88237 0.78125)"/>
     <use xlink:href="#DejaVuSans-36" transform="translate(267.153854 0.78125)"/>
     <use xlink:href="#DejaVuSans-25" transform="translate(330.776901 0.78125)"/>
    </g>
   </g>
  </g>
  <g id="axes_3">
   <g id="patch_12">
    <path d="M 39.8 251.2872 
L 258.519091 251.2872 
L 258.519091 153.0912 
L 39.8 153.0912 
z
" style="fill: #ffffff"/>
   </g>
   <g id="matplotlib.axis_5">
    <g id="xtick_11">
     <g id="line2d_43">
      <path d="M 39.8 251.2872 
L 39.8 153.0912 
" clip-path="url(#p5e9081f9e8)" style="fill: none; stroke-dasharray: 0.8,1.32; stroke-dashoffset: 0; stroke: #b0b0b0; stroke-width: 0.8"/>
     </g>
     <g id="line2d_44">
      <g>
       <use xlink:href="#mf384df1a22" x="39.8" y="251.2872" style="stroke: #000000; stroke-width: 0.8"/>
      </g>
     </g>
     <g id="text_7">
      <!-- −4 -->
      <g transform="translate(33.875 265.116888)scale(0.1 -0.1)">
       <defs>
        <path id="STIXGeneral-Regular-2212" d="M 3974 1408 
L 410 1408 
L 410 1830 
L 3974 1830 
L 3974 1408 
z
" transform="scale(0.015625)"/>
        <path id="STIXGeneral-Regular-34" d="M 3027 1069 
L 2368 1069 
L 2368 0 
L 1869 0 
L 1869 1069 
L 77 1069 
L 77 1478 
L 2086 4326 
L 2368 4326 
L 2368 1478 
L 3027 1478 
L 3027 1069 
z
M 1869 1478 
L 1869 3674 
L 333 1478 
L 1869 1478 
z
" transform="scale(0.015625)"/>
       </defs>
       <use xlink:href="#STIXGeneral-Regular-2212"/>
       <use xlink:href="#STIXGeneral-Regular-34" x="68.499985"/>
      </g>
     </g>
    </g>
    <g id="xtick_12">
     <g id="line2d_45">
      <path d="M 94.479773 251.2872 
L 94.479773 153.0912 
" clip-path="url(#p5e9081f9e8)" style="fill: none; stroke-dasharray: 0.8,1.32; stroke-dashoffset: 0; stroke: #b0b0b0; stroke-width: 0.8"/>
     </g>
     <g id="line2d_46">
      <g>
       <use xlink:href="#mf384df1a22" x="94.479773" y="251.2872" style="stroke: #000000; stroke-width: 0.8"/>
      </g>
     </g>
     <g id="text_8">
      <!-- −2 -->
      <g transform="translate(88.554773 265.116888)scale(0.1 -0.1)">
       <defs>
        <path id="STIXGeneral-Regular-32" d="M 3034 877 
L 2688 0 
L 186 0 
L 186 77 
L 1325 1286 
Q 1773 1754 1965 2144 
Q 2157 2534 2157 2950 
Q 2157 3379 1920 3616 
Q 1683 3853 1267 3853 
Q 922 3853 720 3673 
Q 518 3494 326 3021 
L 192 3053 
Q 301 3648 630 3987 
Q 960 4326 1523 4326 
Q 2054 4326 2380 4006 
Q 2707 3686 2707 3200 
Q 2707 2477 1888 1613 
L 832 486 
L 2330 486 
Q 2541 486 2665 569 
Q 2790 653 2944 915 
L 3034 877 
z
" transform="scale(0.015625)"/>
       </defs>
       <use xlink:href="#STIXGeneral-Regular-2212"/>
       <use xlink:href="#STIXGeneral-Regular-32" x="68.499985"/>
      </g>
     </g>
    </g>
    <g id="xtick_13">
     <g id="line2d_47">
      <path d="M 149.159545 251.2872 
L 149.159545 153.0912 
" clip-path="url(#p5e9081f9e8)" style="fill: none; stroke-dasharray: 0.8,1.32; stroke-dashoffset: 0; stroke: #b0b0b0; stroke-width: 0.8"/>
     </g>
     <g id="line2d_48">
      <g>
       <use xlink:href="#mf384df1a22" x="149.159545" y="251.2872" style="stroke: #000000; stroke-width: 0.8"/>
      </g>
     </g>
     <g id="text_9">
      <!-- 0 -->
      <g transform="translate(146.659545 265.116888)scale(0.1 -0.1)">
       <use xlink:href="#STIXGeneral-Regular-30"/>
      </g>
     </g>
    </g>
    <g id="xtick_14">
     <g id="line2d_49">
      <path d="M 203.839318 251.2872 
L 203.839318 153.0912 
" clip-path="url(#p5e9081f9e8)" style="fill: none; stroke-dasharray: 0.8,1.32; stroke-dashoffset: 0; stroke: #b0b0b0; stroke-width: 0.8"/>
     </g>
     <g id="line2d_50">
      <g>
       <use xlink:href="#mf384df1a22" x="203.839318" y="251.2872" style="stroke: #000000; stroke-width: 0.8"/>
      </g>
     </g>
     <g id="text_10">
      <!-- 2 -->
      <g transform="translate(201.339318 265.116888)scale(0.1 -0.1)">
       <use xlink:href="#STIXGeneral-Regular-32"/>
      </g>
     </g>
    </g>
    <g id="xtick_15">
     <g id="line2d_51">
      <path d="M 258.519091 251.2872 
L 258.519091 153.0912 
" clip-path="url(#p5e9081f9e8)" style="fill: none; stroke-dasharray: 0.8,1.32; stroke-dashoffset: 0; stroke: #b0b0b0; stroke-width: 0.8"/>
     </g>
     <g id="line2d_52">
      <g>
       <use xlink:href="#mf384df1a22" x="258.519091" y="251.2872" style="stroke: #000000; stroke-width: 0.8"/>
      </g>
     </g>
     <g id="text_11">
      <!-- 4 -->
      <g transform="translate(256.019091 265.116888)scale(0.1 -0.1)">
       <use xlink:href="#STIXGeneral-Regular-34"/>
      </g>
     </g>
    </g>
    <g id="text_12">
     <!-- $y^*_V/\sigma_{y,V}$ -->
     <g transform="translate(131.459545 280.3872)scale(0.1 -0.1)">
      <defs>
       <path id="DejaVuSans-Oblique-79" d="M 1588 -325 
Q 1188 -997 936 -1164 
Q 684 -1331 294 -1331 
L -159 -1331 
L -63 -850 
L 269 -850 
Q 509 -850 678 -719 
Q 847 -588 1056 -206 
L 1234 128 
L 459 3500 
L 1069 3500 
L 1650 819 
L 3256 3500 
L 3859 3500 
L 1588 -325 
z
" transform="scale(0.015625)"/>
       <path id="DejaVuSans-2a" d="M 3009 3897 
L 1888 3291 
L 3009 2681 
L 2828 2375 
L 1778 3009 
L 1778 1831 
L 1422 1831 
L 1422 3009 
L 372 2375 
L 191 2681 
L 1313 3291 
L 191 3897 
L 372 4206 
L 1422 3572 
L 1422 4750 
L 1778 4750 
L 1778 3572 
L 2828 4206 
L 3009 3897 
z
" transform="scale(0.015625)"/>
       <path id="DejaVuSans-Oblique-3c3" d="M 2219 3044 
Q 1744 3044 1422 2700 
Q 1081 2341 969 1747 
Q 844 1119 1044 756 
Q 1241 397 1706 397 
Q 2166 397 2503 759 
Q 2844 1122 2966 1747 
Q 3075 2319 2881 2700 
Q 2700 3044 2219 3044 
z
M 2309 3503 
L 4219 3500 
L 4106 2925 
L 3463 2925 
Q 3706 2438 3575 1747 
Q 3406 888 2884 400 
Q 2359 -91 1609 -91 
Q 856 -91 525 400 
Q 194 888 363 1747 
Q 528 2609 1050 3097 
Q 1484 3503 2309 3503 
z
" transform="scale(0.015625)"/>
       <path id="DejaVuSans-2c" d="M 750 794 
L 1409 794 
L 1409 256 
L 897 -744 
L 494 -744 
L 750 256 
L 750 794 
z
" transform="scale(0.015625)"/>
      </defs>
      <use xlink:href="#DejaVuSans-Oblique-79" transform="translate(0 0.765625)"/>
      <use xlink:href="#DejaVuSans-2a" transform="translate(77.283529 39.046875)scale(0.7)"/>
      <use xlink:href="#DejaVuSans-Oblique-56" transform="translate(59.179688 -26.578125)scale(0.7)"/>
      <use xlink:href="#DejaVuSans-2f" transform="translate(128.655599 0.765625)"/>
      <use xlink:href="#DejaVuSans-Oblique-3c3" transform="translate(162.347005 0.765625)"/>
      <use xlink:href="#DejaVuSans-Oblique-79" transform="translate(225.725911 -15.640625)scale(0.7)"/>
      <use xlink:href="#DejaVuSans-2c" transform="translate(267.151693 -15.640625)scale(0.7)"/>
      <use xlink:href="#DejaVuSans-Oblique-56" transform="translate(303.040365 -15.640625)scale(0.7)"/>
     </g>
    </g>
   </g>
   <g id="matplotlib.axis_6">
    <g id="ytick_7">
     <g id="line2d_53">
      <path d="M 39.8 246.863324 
L 258.519091 246.863324 
" clip-path="url(#p5e9081f9e8)" style="fill: none; stroke-dasharray: 0.8,1.32; stroke-dashoffset: 0; stroke: #b0b0b0; stroke-width: 0.8"/>
     </g>
     <g id="line2d_54">
      <g>
       <use xlink:href="#m517c2f8d4f" x="39.8" y="246.863324" style="stroke: #000000; stroke-width: 0.8"/>
      </g>
     </g>
     <g id="text_13">
      <!-- 0.0 -->
      <g transform="translate(20.3 250.278167)scale(0.1 -0.1)">
       <use xlink:href="#STIXGeneral-Regular-30"/>
       <use xlink:href="#STIXGeneral-Regular-2e" x="49.999985"/>
       <use xlink:href="#STIXGeneral-Regular-30" x="74.999969"/>
      </g>
     </g>
    </g>
    <g id="ytick_8">
     <g id="line2d_55">
      <path d="M 39.8 207.829083 
L 258.519091 207.829083 
" clip-path="url(#p5e9081f9e8)" style="fill: none; stroke-dasharray: 0.8,1.32; stroke-dashoffset: 0; stroke: #b0b0b0; stroke-width: 0.8"/>
     </g>
     <g id="line2d_56">
      <g>
       <use xlink:href="#m517c2f8d4f" x="39.8" y="207.829083" style="stroke: #000000; stroke-width: 0.8"/>
      </g>
     </g>
     <g id="text_14">
      <!-- 0.5 -->
      <g transform="translate(20.3 211.243926)scale(0.1 -0.1)">
       <use xlink:href="#STIXGeneral-Regular-30"/>
       <use xlink:href="#STIXGeneral-Regular-2e" x="49.999985"/>
       <use xlink:href="#STIXGeneral-Regular-35" x="74.999969"/>
      </g>
     </g>
    </g>
    <g id="ytick_9">
     <g id="line2d_57">
      <path d="M 39.8 168.794841 
L 258.519091 168.794841 
" clip-path="url(#p5e9081f9e8)" style="fill: none; stroke-dasharray: 0.8,1.32; stroke-dashoffset: 0; stroke: #b0b0b0; stroke-width: 0.8"/>
     </g>
     <g id="line2d_58">
      <g>
       <use xlink:href="#m517c2f8d4f" x="39.8" y="168.794841" style="stroke: #000000; stroke-width: 0.8"/>
      </g>
     </g>
     <g id="text_15">
      <!-- 1.0 -->
      <g transform="translate(20.3 172.209685)scale(0.1 -0.1)">
       <use xlink:href="#STIXGeneral-Regular-31"/>
       <use xlink:href="#STIXGeneral-Regular-2e" x="49.999985"/>
       <use xlink:href="#STIXGeneral-Regular-30" x="74.999969"/>
      </g>
     </g>
    </g>
    <g id="text_16">
     <!-- $V/V_c$ [-] -->
     <g transform="translate(14.129688 219.0392)rotate(-90)scale(0.1 -0.1)">
      <use xlink:href="#DejaVuSans-Oblique-56" transform="translate(0 0.09375)"/>
      <use xlink:href="#DejaVuSans-2f" transform="translate(68.408203 0.09375)"/>
      <use xlink:href="#DejaVuSans-Oblique-56" transform="translate(102.099609 0.09375)"/>
      <use xlink:href="#DejaVuSans-Oblique-63" transform="translate(170.507812 -16.3125)scale(0.7)"/>
      <use xlink:href="#STIXGeneral-Regular-20" transform="translate(211.728516 0.09375)"/>
      <use xlink:href="#STIXGeneral-Regular-5b" transform="translate(236.7285 0.09375)"/>
      <use xlink:href="#STIXGeneral-Regular-2d" transform="translate(270.028488 0.09375)"/>
      <use xlink:href="#STIXGeneral-Regular-5d" transform="translate(303.328476 0.09375)"/>
     </g>
    </g>
   </g>
   <g id="line2d_59">
    <path d="M -1 243.442359 
L 1.693768 243.337678 
L 12.303151 242.848433 
L 21.025153 242.384562 
L 28.187211 241.95237 
L 34.062714 241.563605 
L 39.102432 241.206799 
L 43.887524 240.830783 
L 48.672615 240.415539 
L 53.457707 239.964179 
L 58.242799 239.468477 
L 63.027891 238.921448 
L 67.812983 238.313138 
L 72.598075 237.630468 
L 77.383167 236.855037 
L 82.168259 235.961132 
L 86.953351 234.911315 
L 91.738443 233.651696 
L 96.523535 232.102969 
L 101.308626 230.151123 
L 106.093718 227.63281 
L 110.87881 224.325527 
L 115.663902 219.939591 
L 120.448994 214.13623 
L 125.234086 206.565578 
L 130.019178 196.9715 
L 134.80427 185.373593 
L 139.589362 172.80389 
L 144.374454 162.233182 
L 149.159545 157.380634 
L 153.944637 159.532801 
L 158.729729 166.791798 
L 163.514821 176.749918 
L 168.299913 187.95607 
L 173.085005 198.869034 
L 177.870097 207.381743 
L 182.655189 213.191512 
L 187.440281 217.578623 
L 192.225373 221.187335 
L 197.010464 224.242338 
L 201.795556 226.852941 
L 206.580648 229.057019 
L 211.36574 230.880869 
L 216.150832 232.375036 
L 220.935924 233.604602 
L 225.721016 234.630695 
L 230.506108 235.502265 
L 235.2912 236.255605 
L 240.076292 236.916889 
L 244.861384 237.504865 
L 249.646475 238.033246 
L 254.431567 238.51181 
L 259.216659 238.950118 
L 264.001751 239.348288 
L 269.041469 239.725452 
L 274.916973 240.134934 
L 282.07903 240.59344 
L 290.801033 241.08768 
L 301.410414 241.615708 
L 314.297378 242.165858 
L 329.92404 242.727352 
L 348.833503 243.284986 
L 371.657947 243.824817 
L 399.124492 244.331817 
L 432.056971 244.793872 
L 471.370993 245.201426 
L 518.059297 245.549549 
L 573.163523 245.837604 
L 617.649977 245.997086 
" clip-path="url(#p5e9081f9e8)" style="fill: none; stroke: #1f77b4; stroke-width: 2; stroke-linecap: square"/>
   </g>
   <g id="line2d_60">
    <path d="M -1 243.227992 
L 10.40217 242.697733 
L 22.723582 241.986812 
L 32.884778 241.280391 
L 41.250133 240.596191 
L 48.127313 239.951298 
L 53.774499 239.351967 
L 58.407254 238.814196 
L 62.381003 238.320355 
L 66.153983 237.800235 
L 69.926963 237.226886 
L 73.699943 236.603752 
L 77.472923 235.919754 
L 81.245903 235.165319 
L 85.018883 234.327225 
L 88.791864 233.388274 
L 92.564844 232.325091 
L 96.337824 231.1057 
L 100.110804 229.685566 
L 103.883784 228.002815 
L 107.656764 225.971636 
L 111.429744 223.475493 
L 115.202724 220.360709 
L 118.975704 216.435543 
L 122.748685 211.477584 
L 126.521665 205.258056 
L 130.294645 197.585906 
L 134.067625 188.404364 
L 137.840605 177.995886 
L 141.613585 167.503987 
L 145.386565 159.227154 
L 149.159545 155.423282 
L 152.932526 156.70646 
L 156.705506 162.043887 
L 160.478486 169.926274 
L 164.251466 179.143776 
L 168.024446 188.713514 
L 171.797426 197.592428 
L 175.570406 204.844546 
L 179.343386 210.242 
L 183.116367 214.250883 
L 186.889347 217.419155 
L 190.662327 220.118081 
L 194.435307 222.542688 
L 198.208287 224.743701 
L 201.981267 226.704125 
L 205.754247 228.413125 
L 209.527227 229.887125 
L 213.300208 231.158974 
L 217.073188 232.264274 
L 220.846168 233.234424 
L 224.619148 234.094508 
L 228.392128 234.864079 
L 232.165108 235.557458 
L 235.938088 236.189185 
L 239.711068 236.758812 
L 243.684818 237.295953 
L 248.317573 237.876102 
L 253.964758 238.518813 
L 260.841939 239.204284 
L 269.207292 239.926756 
L 279.368488 240.66848 
L 291.6899 241.413125 
L 306.599755 242.140392 
L 324.59652 242.834271 
L 346.253518 243.479418 
L 372.220332 244.065873 
L 403.218905 244.585982 
L 440.032001 245.036219 
L 483.480936 245.415757 
L 534.389776 245.727292 
L 593.533301 245.976246 
L 617.649977 246.045052 
" clip-path="url(#p5e9081f9e8)" style="fill: none; stroke: #ff7f0e; stroke-width: 2; stroke-linecap: square"/>
   </g>
   <g id="line2d_61">
    <path d="M -1 243.301546 
L 11.670592 242.710111 
L 26.084542 241.830201 
L 38.026127 240.90432 
L 47.89458 239.957535 
L 56.032875 239.017426 
L 62.732847 238.106284 
L 68.240911 237.246335 
L 72.763849 236.445593 
L 76.47431 235.72612 
L 79.656962 235.064371 
L 82.678813 234.366872 
L 85.700665 233.597692 
L 88.722516 232.76124 
L 91.744368 231.843074 
L 94.766219 230.831015 
L 97.78807 229.708744 
L 100.809922 228.455708 
L 103.831773 227.045152 
L 106.853625 225.442103 
L 109.875476 223.600507 
L 112.897328 221.459958 
L 115.919179 218.94212 
L 118.941031 215.94735 
L 121.962882 212.353351 
L 124.984734 208.017034 
L 128.006585 202.784828 
L 131.028437 196.514128 
L 134.050288 189.12146 
L 137.07214 180.677545 
L 140.093991 171.613615 
L 143.115843 163.007137 
L 146.137694 156.553043 
L 149.159545 153.660301 
L 152.181397 154.620372 
L 155.203248 158.780211 
L 158.2251 165.143415 
L 161.246951 172.788874 
L 164.268803 180.948358 
L 167.290654 188.938881 
L 170.312506 196.140606 
L 173.334357 202.117525 
L 176.356209 206.777093 
L 179.37806 210.351876 
L 182.399912 213.212877 
L 185.421763 215.697 
L 188.443615 218.010379 
L 191.465466 220.21255 
L 194.487317 222.275655 
L 197.509169 224.159403 
L 200.53102 225.847338 
L 203.552872 227.346966 
L 206.574723 228.678497 
L 209.596575 229.865185 
L 212.618426 230.928947 
L 215.640278 231.887423 
L 218.662129 232.760083 
L 221.683981 233.54544 
L 224.866632 234.285176 
L 228.577093 235.083036 
L 233.100031 235.963794 
L 238.608096 236.899565 
L 245.308067 237.880196 
L 253.446362 238.87982 
L 263.314814 239.873855 
L 275.256401 240.833026 
L 289.670352 241.734764 
L 307.015853 242.559592 
L 327.813168 243.297824 
L 352.640514 243.944671 
L 382.124822 244.501495 
L 416.9239 244.9717 
L 457.697757 245.361021 
L 505.06693 245.676274 
L 559.557036 245.925869 
L 617.649977 246.107084 
" clip-path="url(#p5e9081f9e8)" style="fill: none; stroke: #2ca02c; stroke-width: 2; stroke-linecap: square"/>
   </g>
   <g id="line2d_62">
    <path d="M -1 243.40994 
L 1.312773 243.322956 
L 18.819944 242.417165 
L 33.421386 241.405667 
L 45.555044 240.308412 
L 55.607466 239.153587 
L 63.914728 237.970856 
L 70.765542 236.794284 
L 76.405576 235.651694 
L 81.042263 234.571176 
L 84.849671 233.563164 
L 87.973136 232.656382 
L 90.652291 231.82146 
L 93.196085 230.941002 
L 95.739878 229.969995 
L 98.283672 228.914194 
L 100.827466 227.756204 
L 103.371259 226.482063 
L 105.915053 225.073729 
L 108.458847 223.509576 
L 111.00264 221.76305 
L 113.546434 219.801557 
L 116.090228 217.585172 
L 118.634021 215.064874 
L 121.177815 212.181403 
L 123.721609 208.862938 
L 126.265402 205.025495 
L 128.809196 200.573097 
L 131.35299 195.40937 
L 133.896783 189.456624 
L 136.440577 182.710235 
L 138.984371 175.323583 
L 141.528164 167.766922 
L 144.071958 160.920294 
L 146.615752 155.933115 
L 149.159545 153.691254 
L 151.703339 154.376401 
L 154.247133 157.58487 
L 156.790926 162.651308 
L 159.33472 168.899664 
L 161.878514 175.734458 
L 164.422307 182.642501 
L 166.966101 189.178123 
L 169.509895 194.984346 
L 172.053688 199.851535 
L 174.597482 203.767237 
L 177.141276 206.900007 
L 179.685069 209.517002 
L 182.228863 211.875835 
L 184.772657 214.139125 
L 187.31645 216.351728 
L 189.860244 218.482297 
L 192.404038 220.482338 
L 194.947831 222.320497 
L 197.491625 223.988744 
L 200.035419 225.494813 
L 202.579212 226.854355 
L 205.123006 228.083588 
L 207.6668 229.204549 
L 210.210593 230.213558 
L 212.889748 231.164087 
L 216.013214 232.189133 
L 219.820622 233.319371 
L 224.457309 234.518733 
L 230.097342 235.772897 
L 236.948156 237.047733 
L 245.255417 238.310245 
L 255.307841 239.521488 
L 267.4415 240.650857 
L 282.042938 241.67262 
L 299.550112 242.5749 
L 320.449764 243.353951 
L 345.269646 244.01573 
L 374.563499 244.56939 
L 408.88692 245.026384 
L 448.762276 245.397556 
L 494.632031 245.69378 
L 546.802055 245.92566 
" clip-path="url(#p5e9081f9e8)" style="fill: none; stroke: #d62728; stroke-width: 2; stroke-linecap: square"/>
   </g>
   <g id="line2d_63">
    <path d="M -1 243.478304 
L 0.695446 243.417173 
L 19.083082 242.487257 
L 34.485994 241.419264 
L 47.332428 240.227466 
L 58.007693 238.93323 
L 66.851874 237.568793 
L 74.160651 236.168665 
L 80.188038 234.773299 
L 85.150173 233.415938 
L 89.229558 232.130358 
L 92.579338 230.929471 
L 95.327381 229.848414 
L 97.684517 228.852461 
L 99.922562 227.80211 
L 102.160607 226.644211 
L 104.398651 225.38619 
L 106.636696 224.008644 
L 108.874741 222.497097 
L 111.112786 220.833627 
L 113.35083 218.99814 
L 115.588875 216.967713 
L 117.82692 214.716476 
L 120.064964 212.215368 
L 122.303009 209.431345 
L 124.541054 206.326783 
L 126.779098 202.857431 
L 129.017143 198.97206 
L 131.255188 194.613193 
L 133.493233 189.728211 
L 135.731277 184.291395 
L 137.969322 178.35314 
L 140.207367 172.109349 
L 142.445411 165.986517 
L 144.683456 160.638175 
L 146.921501 156.804645 
L 149.159545 155.038906 
L 151.39759 155.480298 
L 153.635635 157.896139 
L 155.87368 161.854219 
L 158.111724 166.874176 
L 160.349769 172.506442 
L 162.587814 178.354821 
L 164.825858 184.076768 
L 167.063903 189.38822 
L 169.301948 194.08477 
L 171.539992 198.07223 
L 173.778037 201.383764 
L 176.016082 204.163138 
L 178.254127 206.610333 
L 180.492171 208.90767 
L 182.730216 211.161986 
L 184.968261 213.393483 
L 187.206305 215.567559 
L 189.44435 217.636685 
L 191.682395 219.566708 
L 193.920439 221.342759 
L 196.158484 222.965822 
L 198.396529 224.444138 
L 200.634574 225.797938 
L 202.872618 227.019046 
L 205.229755 228.170773 
L 207.977798 229.413571 
L 211.327578 230.783793 
L 215.406963 232.237478 
L 220.369097 233.756431 
L 226.396484 235.298674 
L 233.705261 236.823347 
L 242.549443 238.282345 
L 253.224708 239.637161 
L 266.07114 240.855452 
L 281.474054 241.922056 
L 299.861692 242.832694 
L 321.69837 243.596354 
L 347.471276 244.227182 
L 377.669224 244.742815 
L 412.751798 245.159508 
L 453.10828 245.492187 
L 499.007775 245.753811 
" clip-path="url(#p5e9081f9e8)" style="fill: none; stroke: #9467bd; stroke-width: 2; stroke-linecap: square"/>
   </g>
   <g id="patch_13">
    <path d="M 39.8 251.2872 
L 39.8 153.0912 
" style="fill: none; stroke: #000000; stroke-width: 0.8; stroke-linejoin: miter; stroke-linecap: square"/>
   </g>
   <g id="patch_14">
    <path d="M 258.519091 251.2872 
L 258.519091 153.0912 
" style="fill: none; stroke: #000000; stroke-width: 0.8; stroke-linejoin: miter; stroke-linecap: square"/>
   </g>
   <g id="patch_15">
    <path d="M 39.8 251.2872 
L 258.519091 251.2872 
" style="fill: none; stroke: #000000; stroke-width: 0.8; stroke-linejoin: miter; stroke-linecap: square"/>
   </g>
   <g id="patch_16">
    <path d="M 39.8 153.0912 
L 258.519091 153.0912 
" style="fill: none; stroke: #000000; stroke-width: 0.8; stroke-linejoin: miter; stroke-linecap: square"/>
   </g>
   <g id="text_17">
    <!-- T.I.$=8\%$ -->
    <g transform="translate(123.599545 147.0912)scale(0.12 -0.12)">
     <defs>
      <path id="DejaVuSans-38" d="M 2034 2216 
Q 1584 2216 1326 1975 
Q 1069 1734 1069 1313 
Q 1069 891 1326 650 
Q 1584 409 2034 409 
Q 2484 409 2743 651 
Q 3003 894 3003 1313 
Q 3003 1734 2745 1975 
Q 2488 2216 2034 2216 
z
M 1403 2484 
Q 997 2584 770 2862 
Q 544 3141 544 3541 
Q 544 4100 942 4425 
Q 1341 4750 2034 4750 
Q 2731 4750 3128 4425 
Q 3525 4100 3525 3541 
Q 3525 3141 3298 2862 
Q 3072 2584 2669 2484 
Q 3125 2378 3379 2068 
Q 3634 1759 3634 1313 
Q 3634 634 3220 271 
Q 2806 -91 2034 -91 
Q 1263 -91 848 271 
Q 434 634 434 1313 
Q 434 1759 690 2068 
Q 947 2378 1403 2484 
z
M 1172 3481 
Q 1172 3119 1398 2916 
Q 1625 2713 2034 2713 
Q 2441 2713 2670 2916 
Q 2900 3119 2900 3481 
Q 2900 3844 2670 4047 
Q 2441 4250 2034 4250 
Q 1625 4250 1398 4047 
Q 1172 3844 1172 3481 
z
" transform="scale(0.015625)"/>
     </defs>
     <use xlink:href="#STIXGeneral-Regular-54" transform="translate(0 0.78125)"/>
     <use xlink:href="#STIXGeneral-Regular-2e" transform="translate(61.099991 0.78125)"/>
     <use xlink:href="#STIXGeneral-Regular-49" transform="translate(86.099976 0.78125)"/>
     <use xlink:href="#STIXGeneral-Regular-2e" transform="translate(119.399963 0.78125)"/>
     <use xlink:href="#DejaVuSans-3d" transform="translate(163.88237 0.78125)"/>
     <use xlink:href="#DejaVuSans-38" transform="translate(267.153854 0.78125)"/>
     <use xlink:href="#DejaVuSans-25" transform="translate(330.776901 0.78125)"/>
    </g>
   </g>
  </g>
  <g id="axes_4">
   <g id="patch_17">
    <path d="M 302.262909 251.2872 
L 520.982 251.2872 
L 520.982 153.0912 
L 302.262909 153.0912 
z
" style="fill: #ffffff"/>
   </g>
   <g id="matplotlib.axis_7">
    <g id="xtick_16">
     <g id="line2d_64">
      <path d="M 302.262909 251.2872 
L 302.262909 153.0912 
" clip-path="url(#p631821053e)" style="fill: none; stroke-dasharray: 0.8,1.32; stroke-dashoffset: 0; stroke: #b0b0b0; stroke-width: 0.8"/>
     </g>
     <g id="line2d_65">
      <g>
       <use xlink:href="#mf384df1a22" x="302.262909" y="251.2872" style="stroke: #000000; stroke-width: 0.8"/>
      </g>
     </g>
     <g id="text_18">
      <!-- −4 -->
      <g transform="translate(296.337909 265.116888)scale(0.1 -0.1)">
       <use xlink:href="#STIXGeneral-Regular-2212"/>
       <use xlink:href="#STIXGeneral-Regular-34" x="68.499985"/>
      </g>
     </g>
    </g>
    <g id="xtick_17">
     <g id="line2d_66">
      <path d="M 356.942682 251.2872 
L 356.942682 153.0912 
" clip-path="url(#p631821053e)" style="fill: none; stroke-dasharray: 0.8,1.32; stroke-dashoffset: 0; stroke: #b0b0b0; stroke-width: 0.8"/>
     </g>
     <g id="line2d_67">
      <g>
       <use xlink:href="#mf384df1a22" x="356.942682" y="251.2872" style="stroke: #000000; stroke-width: 0.8"/>
      </g>
     </g>
     <g id="text_19">
      <!-- −2 -->
      <g transform="translate(351.017682 265.116888)scale(0.1 -0.1)">
       <use xlink:href="#STIXGeneral-Regular-2212"/>
       <use xlink:href="#STIXGeneral-Regular-32" x="68.499985"/>
      </g>
     </g>
    </g>
    <g id="xtick_18">
     <g id="line2d_68">
      <path d="M 411.622455 251.2872 
L 411.622455 153.0912 
" clip-path="url(#p631821053e)" style="fill: none; stroke-dasharray: 0.8,1.32; stroke-dashoffset: 0; stroke: #b0b0b0; stroke-width: 0.8"/>
     </g>
     <g id="line2d_69">
      <g>
       <use xlink:href="#mf384df1a22" x="411.622455" y="251.2872" style="stroke: #000000; stroke-width: 0.8"/>
      </g>
     </g>
     <g id="text_20">
      <!-- 0 -->
      <g transform="translate(409.122455 265.116888)scale(0.1 -0.1)">
       <use xlink:href="#STIXGeneral-Regular-30"/>
      </g>
     </g>
    </g>
    <g id="xtick_19">
     <g id="line2d_70">
      <path d="M 466.302227 251.2872 
L 466.302227 153.0912 
" clip-path="url(#p631821053e)" style="fill: none; stroke-dasharray: 0.8,1.32; stroke-dashoffset: 0; stroke: #b0b0b0; stroke-width: 0.8"/>
     </g>
     <g id="line2d_71">
      <g>
       <use xlink:href="#mf384df1a22" x="466.302227" y="251.2872" style="stroke: #000000; stroke-width: 0.8"/>
      </g>
     </g>
     <g id="text_21">
      <!-- 2 -->
      <g transform="translate(463.802227 265.116888)scale(0.1 -0.1)">
       <use xlink:href="#STIXGeneral-Regular-32"/>
      </g>
     </g>
    </g>
    <g id="xtick_20">
     <g id="line2d_72">
      <path d="M 520.982 251.2872 
L 520.982 153.0912 
" clip-path="url(#p631821053e)" style="fill: none; stroke-dasharray: 0.8,1.32; stroke-dashoffset: 0; stroke: #b0b0b0; stroke-width: 0.8"/>
     </g>
     <g id="line2d_73">
      <g>
       <use xlink:href="#mf384df1a22" x="520.982" y="251.2872" style="stroke: #000000; stroke-width: 0.8"/>
      </g>
     </g>
     <g id="text_22">
      <!-- 4 -->
      <g transform="translate(518.482 265.116888)scale(0.1 -0.1)">
       <use xlink:href="#STIXGeneral-Regular-34"/>
      </g>
     </g>
    </g>
    <g id="text_23">
     <!-- $y^*_V/\sigma_{y,V}$ -->
     <g transform="translate(393.922455 280.3872)scale(0.1 -0.1)">
      <use xlink:href="#DejaVuSans-Oblique-79" transform="translate(0 0.765625)"/>
      <use xlink:href="#DejaVuSans-2a" transform="translate(77.283529 39.046875)scale(0.7)"/>
      <use xlink:href="#DejaVuSans-Oblique-56" transform="translate(59.179688 -26.578125)scale(0.7)"/>
      <use xlink:href="#DejaVuSans-2f" transform="translate(128.655599 0.765625)"/>
      <use xlink:href="#DejaVuSans-Oblique-3c3" transform="translate(162.347005 0.765625)"/>
      <use xlink:href="#DejaVuSans-Oblique-79" transform="translate(225.725911 -15.640625)scale(0.7)"/>
      <use xlink:href="#DejaVuSans-2c" transform="translate(267.151693 -15.640625)scale(0.7)"/>
      <use xlink:href="#DejaVuSans-Oblique-56" transform="translate(303.040365 -15.640625)scale(0.7)"/>
     </g>
    </g>
   </g>
   <g id="matplotlib.axis_8">
    <g id="ytick_10">
     <g id="line2d_74">
      <path d="M 302.262909 246.863324 
L 520.982 246.863324 
" clip-path="url(#p631821053e)" style="fill: none; stroke-dasharray: 0.8,1.32; stroke-dashoffset: 0; stroke: #b0b0b0; stroke-width: 0.8"/>
     </g>
     <g id="line2d_75">
      <g>
       <use xlink:href="#m517c2f8d4f" x="302.262909" y="246.863324" style="stroke: #000000; stroke-width: 0.8"/>
      </g>
     </g>
    </g>
    <g id="ytick_11">
     <g id="line2d_76">
      <path d="M 302.262909 207.829083 
L 520.982 207.829083 
" clip-path="url(#p631821053e)" style="fill: none; stroke-dasharray: 0.8,1.32; stroke-dashoffset: 0; stroke: #b0b0b0; stroke-width: 0.8"/>
     </g>
     <g id="line2d_77">
      <g>
       <use xlink:href="#m517c2f8d4f" x="302.262909" y="207.829083" style="stroke: #000000; stroke-width: 0.8"/>
      </g>
     </g>
    </g>
    <g id="ytick_12">
     <g id="line2d_78">
      <path d="M 302.262909 168.794841 
L 520.982 168.794841 
" clip-path="url(#p631821053e)" style="fill: none; stroke-dasharray: 0.8,1.32; stroke-dashoffset: 0; stroke: #b0b0b0; stroke-width: 0.8"/>
     </g>
     <g id="line2d_79">
      <g>
       <use xlink:href="#m517c2f8d4f" x="302.262909" y="168.794841" style="stroke: #000000; stroke-width: 0.8"/>
      </g>
     </g>
    </g>
   </g>
   <g id="line2d_80">
    <path d="M -1 246.54922 
L 48.667543 246.431871 
L 96.376164 246.243856 
L 136.798356 245.987605 
L 170.835982 245.653699 
L 199.348542 245.238555 
L 223.128767 244.746185 
L 242.889907 244.188623 
L 259.261502 243.584246 
L 272.790888 242.954555 
L 283.948274 242.321836 
L 293.133756 241.705016 
L 300.685165 241.121139 
L 306.885993 240.577998 
L 311.972936 240.089734 
L 316.336266 239.64192 
L 320.479144 239.170984 
L 324.622022 238.651368 
L 328.764899 238.087205 
L 332.907777 237.46863 
L 337.050655 236.78707 
L 341.193533 236.030611 
L 345.33641 235.183445 
L 349.479288 234.223618 
L 353.622166 233.120443 
L 357.765044 231.830118 
L 361.907921 230.290137 
L 366.050799 228.411359 
L 370.193677 226.069297 
L 374.336555 223.094688 
L 378.479433 219.26928 
L 382.62231 214.329652 
L 386.765188 207.991427 
L 390.908066 199.999911 
L 395.050944 190.252325 
L 399.193821 179.070459 
L 403.336699 167.780703 
L 407.479577 159.085114 
L 411.622455 155.640956 
L 415.765332 157.955835 
L 419.90821 164.645534 
L 424.051088 173.997575 
L 428.193966 184.52522 
L 432.336843 194.689175 
L 436.479721 203.074244 
L 440.622599 209.2683 
L 444.765477 213.825252 
L 448.908354 217.379552 
L 453.051232 220.337741 
L 457.19411 222.919237 
L 461.336988 225.200315 
L 465.479865 227.18728 
L 469.622743 228.88672 
L 473.765621 230.327781 
L 477.908499 231.552859 
L 482.051376 232.604785 
L 486.194254 233.519928 
L 490.337132 234.326693 
L 494.48001 235.046369 
L 498.622887 235.694884 
L 502.765765 236.283792 
L 506.908643 236.824418 
L 511.051521 237.316505 
L 515.414851 237.783896 
L 520.501794 238.292328 
L 526.702622 238.862762 
L 534.254032 239.479373 
L 543.439513 240.139847 
L 554.596898 240.830535 
L 568.126283 241.538051 
L 584.49788 242.243554 
L 604.259022 242.92939 
L 617.649977 243.293654 
" clip-path="url(#p631821053e)" style="fill: none; stroke: #1f77b4; stroke-width: 2; stroke-linecap: square"/>
   </g>
   <g id="line2d_81">
    <path d="M -1 246.509462 
L 46.759232 246.40013 
L 95.736194 246.208492 
L 137.894013 245.936754 
L 173.874258 245.568085 
L 204.359321 245.08951 
L 230.029359 244.495285 
L 251.532577 243.788945 
L 269.466827 242.983974 
L 284.370017 242.101489 
L 296.716925 241.168867 
L 306.920336 240.214348 
L 315.334862 239.267313 
L 322.262245 238.351439 
L 327.957265 237.488987 
L 332.633722 236.688403 
L 336.470124 235.970511 
L 339.760802 235.311801 
L 342.885221 234.619456 
L 346.009641 233.857183 
L 349.134061 233.030107 
L 352.25848 232.124422 
L 355.3829 231.128309 
L 358.50732 230.025947 
L 361.63174 228.797119 
L 364.756159 227.415144 
L 367.880579 225.844621 
L 371.004999 224.038204 
L 374.129418 221.932583 
L 377.253838 219.444107 
L 380.378258 216.464195 
L 383.502677 212.85716 
L 386.627097 208.461378 
L 389.751517 203.101354 
L 392.875936 196.613589 
L 396.000356 188.907864 
L 399.124776 180.082857 
L 402.249195 170.654305 
L 405.373615 161.80697 
L 408.498035 155.323173 
L 411.622455 152.726389 
L 414.746874 154.35253 
L 417.871294 159.471071 
L 420.995714 166.953615 
L 424.120133 175.684011 
L 427.244553 184.641 
L 430.368973 192.91709 
L 433.493392 199.864211 
L 436.617812 205.274774 
L 439.742232 209.355261 
L 442.866651 212.506349 
L 445.991071 215.119866 
L 449.115491 217.466143 
L 452.239911 219.663171 
L 455.36433 221.719798 
L 458.48875 223.60745 
L 461.61317 225.306855 
L 464.737589 226.819599 
L 467.862009 228.16181 
L 470.986429 229.355486 
L 474.110848 230.422523 
L 477.235268 231.382377 
L 480.359688 232.250598 
L 483.484107 233.043826 
L 486.608527 233.760857 
L 489.899204 234.438775 
L 493.735607 235.172081 
L 498.412063 235.986362 
L 504.107084 236.857131 
L 511.034466 237.777246 
L 519.448993 238.725268 
L 529.652402 239.680728 
L 541.999312 240.618198 
L 556.902504 241.516993 
L 574.836749 242.357107 
L 596.33997 243.125001 
L 617.649977 243.693461 
" clip-path="url(#p631821053e)" style="fill: none; stroke: #ff7f0e; stroke-width: 2; stroke-linecap: square"/>
   </g>
   <g id="line2d_82">
    <path d="M 22.514346 246.43097 
L 73.893361 246.285383 
L 119.067636 246.066034 
L 158.338369 245.75246 
L 192.141374 245.324224 
L 220.991072 244.764286 
L 245.434622 244.062059 
L 266.017385 243.2162 
L 283.259106 242.234763 
L 297.639155 241.13597 
L 309.588839 239.94485 
L 319.488844 238.694217 
L 327.670147 237.417705 
L 334.417087 236.152158 
L 339.971605 234.927464 
L 344.537989 233.772714 
L 348.287668 232.698803 
L 351.363774 231.734941 
L 354.002307 230.849204 
L 356.507531 229.917624 
L 359.012754 228.892222 
L 361.517978 227.77974 
L 364.023202 226.562765 
L 366.528426 225.227234 
L 369.03365 223.755234 
L 371.538874 222.125269 
L 374.044097 220.310898 
L 376.549321 218.279647 
L 379.054545 215.991417 
L 381.559769 213.396568 
L 384.064993 210.434072 
L 386.570216 207.029371 
L 389.07544 203.094357 
L 391.580664 198.530065 
L 394.085888 193.240165 
L 396.591112 187.159131 
L 399.096335 180.312661 
L 401.601559 172.913267 
L 404.106783 165.490921 
L 406.612007 158.93778 
L 409.117231 154.332422 
L 411.622455 152.52414 
L 414.127678 153.73761 
L 416.632902 157.593149 
L 419.138126 163.39604 
L 421.64335 170.376289 
L 424.148574 177.806663 
L 426.653797 185.048014 
L 429.159021 191.593203 
L 431.664245 197.127201 
L 434.169469 201.569873 
L 436.674693 205.056465 
L 439.179917 207.85515 
L 441.68514 210.257411 
L 444.190364 212.483948 
L 446.695588 214.641709 
L 449.200812 216.742141 
L 451.706036 218.751181 
L 454.211259 220.631794 
L 456.716483 222.362722 
L 459.221707 223.939904 
L 461.726931 225.370642 
L 464.232155 226.668114 
L 466.737378 227.846192 
L 469.242602 228.923979 
L 471.747826 229.897302 
L 474.386359 230.816893 
L 477.462465 231.810222 
L 481.212144 232.909055 
L 485.778528 234.079151 
L 491.333045 235.307701 
L 498.079985 236.563348 
L 506.261288 237.81565 
L 516.161294 239.028557 
L 528.110979 240.173537 
L 542.491025 241.22599 
L 559.732749 242.173072 
L 580.315514 243.007858 
L 604.759068 243.730948 
L 617.649977 244.005461 
" clip-path="url(#p631821053e)" style="fill: none; stroke: #2ca02c; stroke-width: 2; stroke-linecap: square"/>
   </g>
   <g id="line2d_83">
    <path d="M 77.999324 246.225561 
L 122.051935 246.012727 
L 160.784571 245.702637 
L 194.455483 245.272965 
L 223.438339 244.703169 
L 248.174207 243.977753 
L 269.132222 243.087993 
L 286.77998 242.034197 
L 301.563113 240.824932 
L 313.892636 239.479541 
L 324.138351 238.024654 
L 332.626661 236.497437 
L 339.64135 234.936838 
L 345.426208 233.387119 
L 350.188678 231.884568 
L 354.103917 230.465189 
L 357.318909 229.142859 
L 359.956377 227.955007 
L 362.218668 226.862431 
L 364.366658 225.713088 
L 366.514649 224.448759 
L 368.66264 223.078378 
L 370.810631 221.582363 
L 372.958621 219.946341 
L 375.106612 218.153019 
L 377.254603 216.183338 
L 379.402594 214.015844 
L 381.550584 211.626761 
L 383.698575 208.989462 
L 385.846566 206.073876 
L 387.994556 202.845481 
L 390.142547 199.26434 
L 392.290538 195.285453 
L 394.438529 190.863361 
L 396.586519 185.965769 
L 398.73451 180.601754 
L 400.882501 174.868748 
L 403.030492 169.012598 
L 405.178482 163.469526 
L 407.326473 158.830005 
L 409.474464 155.702584 
L 411.622455 154.535594 
L 413.770445 155.469266 
L 415.918436 158.319938 
L 418.066427 162.688643 
L 420.214417 168.083756 
L 422.362408 174.007308 
L 424.510399 180.003182 
L 426.65839 185.688692 
L 428.80638 190.783489 
L 430.954371 195.136592 
L 433.102362 198.738354 
L 435.250353 201.703783 
L 437.398343 204.224222 
L 439.546334 206.5004 
L 441.694325 208.681887 
L 443.842316 210.839217 
L 445.990306 212.974914 
L 448.138297 215.055812 
L 450.286288 217.042906 
L 452.434278 218.907912 
L 454.582269 220.636913 
L 456.73026 222.228325 
L 458.878251 223.687096 
L 461.026241 225.02947 
L 463.174232 226.245179 
L 465.436522 227.395804 
L 468.073991 228.639716 
L 471.288983 230.014818 
L 475.204222 231.477455 
L 479.966692 233.009484 
L 485.75155 234.569891 
L 492.766237 236.118449 
L 501.254549 237.608167 
L 511.500266 239.001295 
L 523.829785 240.266306 
L 538.61292 241.3881 
L 556.26068 242.361563 
L 577.218699 243.193246 
L 601.95456 243.893406 
L 617.649977 244.208396 
" clip-path="url(#p631821053e)" style="fill: none; stroke: #d62728; stroke-width: 2; stroke-linecap: square"/>
   </g>
   <g id="line2d_84">
    <path d="M 112.95409 246.014407 
L 152.391167 245.739503 
L 187.065661 245.349724 
L 217.208764 244.822857 
L 243.154992 244.139285 
L 265.299204 243.284547 
L 284.06138 242.249811 
L 299.860126 241.034487 
L 313.094383 239.645531 
L 324.132102 238.102107 
L 333.304341 236.431901 
L 340.903304 234.675955 
L 347.183041 232.878147 
L 352.361801 231.089373 
L 356.625292 229.35176 
L 360.130319 227.70768 
L 363.008466 226.174101 
L 365.369598 224.795817 
L 367.394861 223.527775 
L 369.3178 222.194419 
L 371.240739 220.729358 
L 373.163677 219.144282 
L 375.086616 217.418995 
L 377.009555 215.54049 
L 378.932494 213.49412 
L 380.855433 211.265412 
L 382.778372 208.83996 
L 384.701311 206.204105 
L 386.624249 203.344905 
L 388.547188 200.250014 
L 390.470127 196.90713 
L 392.393066 193.303816 
L 394.316005 189.428947 
L 396.238944 185.278564 
L 398.161883 180.868946 
L 400.084821 176.259025 
L 402.00776 171.579335 
L 403.930699 167.056117 
L 405.853638 163.007515 
L 407.776577 159.79513 
L 409.699516 157.745646 
L 411.622455 157.07993 
L 413.545393 157.867082 
L 415.468332 160.014926 
L 417.391271 163.30282 
L 419.31421 167.433884 
L 421.237149 172.083533 
L 423.160088 176.935664 
L 425.083027 181.708736 
L 427.005965 186.177028 
L 428.928904 190.18953 
L 430.851843 193.683191 
L 432.774782 196.68398 
L 434.697721 199.290158 
L 436.62066 201.637633 
L 438.543598 203.856546 
L 440.466537 206.036275 
L 442.389476 208.212417 
L 444.312415 210.376579 
L 446.235354 212.497123 
L 448.158293 214.538821 
L 450.081232 216.473949 
L 452.00417 218.286605 
L 453.927109 219.969916 
L 455.850048 221.533275 
L 457.772987 222.957537 
L 459.79825 224.310954 
L 462.159382 225.778118 
L 465.037529 227.402381 
L 468.542556 229.131225 
L 472.806047 230.941387 
L 477.984807 232.782899 
L 484.264543 234.606649 
L 491.863507 236.355646 
L 501.035747 237.983386 
L 512.073463 239.451061 
L 525.307722 240.739843 
L 541.106469 241.844241 
L 559.868649 242.774504 
L 582.012855 243.547036 
L 607.959078 244.182321 
L 617.649977 244.348422 
" clip-path="url(#p631821053e)" style="fill: none; stroke: #9467bd; stroke-width: 2; stroke-linecap: square"/>
   </g>
   <g id="patch_18">
    <path d="M 302.262909 251.2872 
L 302.262909 153.0912 
" style="fill: none; stroke: #000000; stroke-width: 0.8; stroke-linejoin: miter; stroke-linecap: square"/>
   </g>
   <g id="patch_19">
    <path d="M 520.982 251.2872 
L 520.982 153.0912 
" style="fill: none; stroke: #000000; stroke-width: 0.8; stroke-linejoin: miter; stroke-linecap: square"/>
   </g>
   <g id="patch_20">
    <path d="M 302.262909 251.2872 
L 520.982 251.2872 
" style="fill: none; stroke: #000000; stroke-width: 0.8; stroke-linejoin: miter; stroke-linecap: square"/>
   </g>
   <g id="patch_21">
    <path d="M 302.262909 153.0912 
L 520.982 153.0912 
" style="fill: none; stroke: #000000; stroke-width: 0.8; stroke-linejoin: miter; stroke-linecap: square"/>
   </g>
   <g id="text_24">
    <!-- T.I.$=10\%$ -->
    <g transform="translate(382.222455 147.0912)scale(0.12 -0.12)">
     <defs>
      <path id="DejaVuSans-31" d="M 794 531 
L 1825 531 
L 1825 4091 
L 703 3866 
L 703 4441 
L 1819 4666 
L 2450 4666 
L 2450 531 
L 3481 531 
L 3481 0 
L 794 0 
L 794 531 
z
" transform="scale(0.015625)"/>
      <path id="DejaVuSans-30" d="M 2034 4250 
Q 1547 4250 1301 3770 
Q 1056 3291 1056 2328 
Q 1056 1369 1301 889 
Q 1547 409 2034 409 
Q 2525 409 2770 889 
Q 3016 1369 3016 2328 
Q 3016 3291 2770 3770 
Q 2525 4250 2034 4250 
z
M 2034 4750 
Q 2819 4750 3233 4129 
Q 3647 3509 3647 2328 
Q 3647 1150 3233 529 
Q 2819 -91 2034 -91 
Q 1250 -91 836 529 
Q 422 1150 422 2328 
Q 422 3509 836 4129 
Q 1250 4750 2034 4750 
z
" transform="scale(0.015625)"/>
     </defs>
     <use xlink:href="#STIXGeneral-Regular-54" transform="translate(0 0.78125)"/>
     <use xlink:href="#STIXGeneral-Regular-2e" transform="translate(61.099991 0.78125)"/>
     <use xlink:href="#STIXGeneral-Regular-49" transform="translate(86.099976 0.78125)"/>
     <use xlink:href="#STIXGeneral-Regular-2e" transform="translate(119.399963 0.78125)"/>
     <use xlink:href="#DejaVuSans-3d" transform="translate(163.88237 0.78125)"/>
     <use xlink:href="#DejaVuSans-31" transform="translate(267.153854 0.78125)"/>
     <use xlink:href="#DejaVuSans-30" transform="translate(330.776901 0.78125)"/>
     <use xlink:href="#DejaVuSans-25" transform="translate(394.399948 0.78125)"/>
    </g>
   </g>
   <g id="legend_1">
    <g id="patch_22">
     <path d="M 533.449977 180.197381 
L 607.449977 180.197381 
Q 609.449977 180.197381 609.449977 178.197381 
L 609.449977 108.345819 
Q 609.449977 106.345819 607.449977 106.345819 
L 533.449977 106.345819 
Q 531.449977 106.345819 531.449977 108.345819 
L 531.449977 178.197381 
Q 531.449977 180.197381 533.449977 180.197381 
z
" style="fill: #ffffff; opacity: 0.8; stroke: #cccccc; stroke-linejoin: miter"/>
    </g>
    <g id="line2d_85">
     <path d="M 535.449977 113.845819 
L 545.449977 113.845819 
L 555.449977 113.845819 
" style="fill: none; stroke: #1f77b4; stroke-width: 2; stroke-linecap: square"/>
    </g>
    <g id="text_25">
     <!-- $x/D = 5$ -->
     <g transform="translate(563.449977 117.345819)scale(0.1 -0.1)">
      <defs>
       <path id="DejaVuSans-Oblique-78" d="M 3841 3500 
L 2234 1784 
L 3219 0 
L 2559 0 
L 1819 1388 
L 531 0 
L -166 0 
L 1556 1844 
L 641 3500 
L 1300 3500 
L 1972 2234 
L 3144 3500 
L 3841 3500 
z
" transform="scale(0.015625)"/>
       <path id="DejaVuSans-Oblique-44" d="M 1081 4666 
L 2438 4666 
Q 3519 4666 4070 4208 
Q 4622 3750 4622 2847 
Q 4622 2250 4412 1698 
Q 4203 1147 3834 769 
Q 3463 381 2891 190 
Q 2319 0 1538 0 
L 172 0 
L 1081 4666 
z
M 1613 4147 
L 909 519 
L 1734 519 
Q 2794 519 3375 1128 
Q 3956 1738 3956 2847 
Q 3956 3519 3581 3833 
Q 3206 4147 2406 4147 
L 1613 4147 
z
" transform="scale(0.015625)"/>
       <path id="DejaVuSans-35" d="M 691 4666 
L 3169 4666 
L 3169 4134 
L 1269 4134 
L 1269 2991 
Q 1406 3038 1543 3061 
Q 1681 3084 1819 3084 
Q 2600 3084 3056 2656 
Q 3513 2228 3513 1497 
Q 3513 744 3044 326 
Q 2575 -91 1722 -91 
Q 1428 -91 1123 -41 
Q 819 9 494 109 
L 494 744 
Q 775 591 1075 516 
Q 1375 441 1709 441 
Q 2250 441 2565 725 
Q 2881 1009 2881 1497 
Q 2881 1984 2565 2268 
Q 2250 2553 1709 2553 
Q 1456 2553 1204 2497 
Q 953 2441 691 2322 
L 691 4666 
z
" transform="scale(0.015625)"/>
      </defs>
      <use xlink:href="#DejaVuSans-Oblique-78" transform="translate(0 0.09375)"/>
      <use xlink:href="#DejaVuSans-2f" transform="translate(59.179688 0.09375)"/>
      <use xlink:href="#DejaVuSans-Oblique-44" transform="translate(92.871094 0.09375)"/>
      <use xlink:href="#DejaVuSans-3d" transform="translate(189.355469 0.09375)"/>
      <use xlink:href="#DejaVuSans-35" transform="translate(292.626953 0.09375)"/>
     </g>
    </g>
    <g id="line2d_86">
     <path d="M 535.449977 128.016131 
L 545.449977 128.016131 
L 555.449977 128.016131 
" style="fill: none; stroke: #ff7f0e; stroke-width: 2; stroke-linecap: square"/>
    </g>
    <g id="text_26">
     <!-- $x/D = 7$ -->
     <g transform="translate(563.449977 131.516131)scale(0.1 -0.1)">
      <defs>
       <path id="DejaVuSans-37" d="M 525 4666 
L 3525 4666 
L 3525 4397 
L 1831 0 
L 1172 0 
L 2766 4134 
L 525 4134 
L 525 4666 
z
" transform="scale(0.015625)"/>
      </defs>
      <use xlink:href="#DejaVuSans-Oblique-78" transform="translate(0 0.09375)"/>
      <use xlink:href="#DejaVuSans-2f" transform="translate(59.179688 0.09375)"/>
      <use xlink:href="#DejaVuSans-Oblique-44" transform="translate(92.871094 0.09375)"/>
      <use xlink:href="#DejaVuSans-3d" transform="translate(189.355469 0.09375)"/>
      <use xlink:href="#DejaVuSans-37" transform="translate(292.626953 0.09375)"/>
     </g>
    </g>
    <g id="line2d_87">
     <path d="M 535.449977 142.186444 
L 545.449977 142.186444 
L 555.449977 142.186444 
" style="fill: none; stroke: #2ca02c; stroke-width: 2; stroke-linecap: square"/>
    </g>
    <g id="text_27">
     <!-- $x/D = 9$ -->
     <g transform="translate(563.449977 145.686444)scale(0.1 -0.1)">
      <defs>
       <path id="DejaVuSans-39" d="M 703 97 
L 703 672 
Q 941 559 1184 500 
Q 1428 441 1663 441 
Q 2288 441 2617 861 
Q 2947 1281 2994 2138 
Q 2813 1869 2534 1725 
Q 2256 1581 1919 1581 
Q 1219 1581 811 2004 
Q 403 2428 403 3163 
Q 403 3881 828 4315 
Q 1253 4750 1959 4750 
Q 2769 4750 3195 4129 
Q 3622 3509 3622 2328 
Q 3622 1225 3098 567 
Q 2575 -91 1691 -91 
Q 1453 -91 1209 -44 
Q 966 3 703 97 
z
M 1959 2075 
Q 2384 2075 2632 2365 
Q 2881 2656 2881 3163 
Q 2881 3666 2632 3958 
Q 2384 4250 1959 4250 
Q 1534 4250 1286 3958 
Q 1038 3666 1038 3163 
Q 1038 2656 1286 2365 
Q 1534 2075 1959 2075 
z
" transform="scale(0.015625)"/>
      </defs>
      <use xlink:href="#DejaVuSans-Oblique-78" transform="translate(0 0.78125)"/>
      <use xlink:href="#DejaVuSans-2f" transform="translate(59.179688 0.78125)"/>
      <use xlink:href="#DejaVuSans-Oblique-44" transform="translate(92.871094 0.78125)"/>
      <use xlink:href="#DejaVuSans-3d" transform="translate(189.355469 0.78125)"/>
      <use xlink:href="#DejaVuSans-39" transform="translate(292.626953 0.78125)"/>
     </g>
    </g>
    <g id="line2d_88">
     <path d="M 535.449977 156.356756 
L 545.449977 156.356756 
L 555.449977 156.356756 
" style="fill: none; stroke: #d62728; stroke-width: 2; stroke-linecap: square"/>
    </g>
    <g id="text_28">
     <!-- $x/D = 11$ -->
     <g transform="translate(563.449977 159.856756)scale(0.1 -0.1)">
      <use xlink:href="#DejaVuSans-Oblique-78" transform="translate(0 0.09375)"/>
      <use xlink:href="#DejaVuSans-2f" transform="translate(59.179688 0.09375)"/>
      <use xlink:href="#DejaVuSans-Oblique-44" transform="translate(92.871094 0.09375)"/>
      <use xlink:href="#DejaVuSans-3d" transform="translate(189.355469 0.09375)"/>
      <use xlink:href="#DejaVuSans-31" transform="translate(292.626953 0.09375)"/>
      <use xlink:href="#DejaVuSans-31" transform="translate(356.25 0.09375)"/>
     </g>
    </g>
    <g id="line2d_89">
     <path d="M 535.449977 170.527069 
L 545.449977 170.527069 
L 555.449977 170.527069 
" style="fill: none; stroke: #9467bd; stroke-width: 2; stroke-linecap: square"/>
    </g>
    <g id="text_29">
     <!-- $x/D = 13$ -->
     <g transform="translate(563.449977 174.027069)scale(0.1 -0.1)">
      <defs>
       <path id="DejaVuSans-33" d="M 2597 2516 
Q 3050 2419 3304 2112 
Q 3559 1806 3559 1356 
Q 3559 666 3084 287 
Q 2609 -91 1734 -91 
Q 1441 -91 1130 -33 
Q 819 25 488 141 
L 488 750 
Q 750 597 1062 519 
Q 1375 441 1716 441 
Q 2309 441 2620 675 
Q 2931 909 2931 1356 
Q 2931 1769 2642 2001 
Q 2353 2234 1838 2234 
L 1294 2234 
L 1294 2753 
L 1863 2753 
Q 2328 2753 2575 2939 
Q 2822 3125 2822 3475 
Q 2822 3834 2567 4026 
Q 2313 4219 1838 4219 
Q 1578 4219 1281 4162 
Q 984 4106 628 3988 
L 628 4550 
Q 988 4650 1302 4700 
Q 1616 4750 1894 4750 
Q 2613 4750 3031 4423 
Q 3450 4097 3450 3541 
Q 3450 3153 3228 2886 
Q 3006 2619 2597 2516 
z
" transform="scale(0.015625)"/>
      </defs>
      <use xlink:href="#DejaVuSans-Oblique-78" transform="translate(0 0.78125)"/>
      <use xlink:href="#DejaVuSans-2f" transform="translate(59.179688 0.78125)"/>
      <use xlink:href="#DejaVuSans-Oblique-44" transform="translate(92.871094 0.78125)"/>
      <use xlink:href="#DejaVuSans-3d" transform="translate(189.355469 0.78125)"/>
      <use xlink:href="#DejaVuSans-31" transform="translate(292.626953 0.78125)"/>
      <use xlink:href="#DejaVuSans-33" transform="translate(356.25 0.78125)"/>
     </g>
    </g>
   </g>
  </g>
  <g id="text_30">
   <!-- $\gamma = 40^\circ$, $C_T = 0.8$ -->
   <g transform="translate(222.89 16.115625)scale(0.12 -0.12)">
    <defs>
     <path id="DejaVuSans-Oblique-3b3" d="M 1491 2950 
L 1838 788 
L 3456 3500 
L 4066 3500 
L 1972 0 
L 1713 -1331 
L 1138 -1331 
L 1397 0 
L 988 2613 
Q 925 3006 628 3006 
L 475 3006 
L 569 3500 
L 788 3500 
Q 1403 3500 1491 2950 
z
" transform="scale(0.015625)"/>
     <path id="DejaVuSans-2218" d="M 2003 2603 
Q 1753 2603 1581 2429 
Q 1409 2256 1409 2006 
Q 1409 1759 1581 1589 
Q 1753 1419 2003 1419 
Q 2253 1419 2425 1589 
Q 2597 1759 2597 2006 
Q 2597 2253 2423 2428 
Q 2250 2603 2003 2603 
z
M 2003 3006 
Q 2203 3006 2387 2929 
Q 2572 2853 2706 2709 
Q 2850 2569 2922 2390 
Q 2994 2212 2994 2006 
Q 2994 1594 2705 1308 
Q 2416 1022 1997 1022 
Q 1575 1022 1294 1303 
Q 1013 1584 1013 2006 
Q 1013 2425 1300 2715 
Q 1588 3006 2003 3006 
z
" transform="scale(0.015625)"/>
     <path id="STIXGeneral-Regular-2c" d="M 531 -902 
L 467 -781 
Q 998 -422 998 -96 
Q 998 -13 909 -13 
Q 883 -13 822 -25 
Q 762 -38 723 -38 
Q 352 -38 352 288 
Q 352 454 457 553 
Q 563 653 736 653 
Q 954 653 1101 496 
Q 1248 339 1248 96 
Q 1248 -198 1053 -473 
Q 858 -749 531 -902 
z
" transform="scale(0.015625)"/>
     <path id="DejaVuSans-Oblique-43" d="M 4447 4306 
L 4319 3641 
Q 4019 3944 3683 4091 
Q 3347 4238 2956 4238 
Q 2422 4238 2017 3981 
Q 1613 3725 1319 3200 
Q 1131 2863 1032 2486 
Q 934 2109 934 1728 
Q 934 1091 1264 756 
Q 1594 422 2222 422 
Q 2656 422 3056 561 
Q 3456 700 3834 978 
L 3688 231 
Q 3316 72 2936 -9 
Q 2556 -91 2175 -91 
Q 1278 -91 773 396 
Q 269 884 269 1753 
Q 269 2309 461 2846 
Q 653 3384 1013 3828 
Q 1394 4300 1883 4525 
Q 2372 4750 3022 4750 
Q 3422 4750 3780 4639 
Q 4138 4528 4447 4306 
z
" transform="scale(0.015625)"/>
     <path id="DejaVuSans-Oblique-54" d="M 378 4666 
L 4325 4666 
L 4225 4134 
L 2559 4134 
L 1759 0 
L 1125 0 
L 1925 4134 
L 275 4134 
L 378 4666 
z
" transform="scale(0.015625)"/>
     <path id="DejaVuSans-2e" d="M 684 794 
L 1344 794 
L 1344 0 
L 684 0 
L 684 794 
z
" transform="scale(0.015625)"/>
    </defs>
    <use xlink:href="#DejaVuSans-Oblique-3b3" transform="translate(0 0.78125)"/>
    <use xlink:href="#DejaVuSans-3d" transform="translate(78.662109 0.78125)"/>
    <use xlink:href="#DejaVuSans-34" transform="translate(181.933594 0.78125)"/>
    <use xlink:href="#DejaVuSans-30" transform="translate(245.556641 0.78125)"/>
    <use xlink:href="#DejaVuSans-2218" transform="translate(323.774414 39.0625)scale(0.7)"/>
    <use xlink:href="#STIXGeneral-Regular-2c" transform="translate(383.964844 0.78125)"/>
    <use xlink:href="#STIXGeneral-Regular-20" transform="translate(408.964828 0.78125)"/>
    <use xlink:href="#DejaVuSans-Oblique-43" transform="translate(433.964813 0.78125)"/>
    <use xlink:href="#DejaVuSans-Oblique-54" transform="translate(503.789032 -15.625)scale(0.7)"/>
    <use xlink:href="#DejaVuSans-3d" transform="translate(568.764618 0.78125)"/>
    <use xlink:href="#DejaVuSans-30" transform="translate(672.036102 0.78125)"/>
    <use xlink:href="#DejaVuSans-2e" transform="translate(735.659149 0.78125)"/>
    <use xlink:href="#DejaVuSans-38" transform="translate(764.821259 0.78125)"/>
   </g>
  </g>
 </g>
 <defs>
  <clipPath id="p98edfbdb98">
   <rect x="39.8" y="35.256" width="218.719091" height="98.196"/>
  </clipPath>
  <clipPath id="pd616928a28">
   <rect x="302.262909" y="35.256" width="218.719091" height="98.196"/>
  </clipPath>
  <clipPath id="p5e9081f9e8">
   <rect x="39.8" y="153.0912" width="218.719091" height="98.196"/>
  </clipPath>
  <clipPath id="p631821053e">
   <rect x="302.262909" y="153.0912" width="218.719091" height="98.196"/>
  </clipPath>
 </defs>
</svg>
