<?xml version="1.0" encoding="utf-8" standalone="no"?>
<!DOCTYPE svg PUBLIC "-//W3C//DTD SVG 1.1//EN"
  "http://www.w3.org/Graphics/SVG/1.1/DTD/svg11.dtd">
<svg xmlns:xlink="http://www.w3.org/1999/xlink" width="610.75pt" height="268.667125pt" viewBox="0 0 610.75 268.667125" xmlns="http://www.w3.org/2000/svg" version="1.1">
 <metadata>
  <rdf:RDF xmlns:dc="http://purl.org/dc/elements/1.1/" xmlns:cc="http://creativecommons.org/ns#" xmlns:rdf="http://www.w3.org/1999/02/22-rdf-syntax-ns#">
   <cc:Work>
    <dc:type rdf:resource="http://purl.org/dc/dcmitype/StillImage"/>
    <dc:date>2022-04-18T13:11:18.840890</dc:date>
    <dc:format>image/svg+xml</dc:format>
    <dc:creator>
     <cc:Agent>
      <dc:title>Matplotlib v3.5.1, https://matplotlib.org/</dc:title>
     </cc:Agent>
    </dc:creator>
   </cc:Work>
  </rdf:RDF>
 </metadata>
 <defs>
  <style type="text/css">*{stroke-linejoin: round; stroke-linecap: butt}</style>
 </defs>
 <g id="figure_1">
  <g id="patch_1">
   <path d="M 0 268.667125 
L 610.75 268.667125 
L 610.75 0 
L 0 0 
z
" style="fill: #ffffff"/>
  </g>
  <g id="axes_1">
   <g id="patch_2">
    <path d="M 44.7 232.067125 
L 603.55 232.067125 
L 603.55 22.115625 
L 44.7 22.115625 
z
" style="fill: #ffffff"/>
   </g>
   <g id="matplotlib.axis_1">
    <g id="xtick_1">
     <g id="line2d_1">
      <path d="M 100.585 232.067125 
L 100.585 22.115625 
" clip-path="url(#p5be9e09613)" style="fill: none; stroke-dasharray: 0.8,1.32; stroke-dashoffset: 0; stroke: #b0b0b0; stroke-width: 0.8"/>
     </g>
     <g id="line2d_2">
      <defs>
       <path id="m9acd753e1b" d="M 0 0 
L 0 3.5 
" style="stroke: #000000; stroke-width: 0.8"/>
      </defs>
      <g>
       <use xlink:href="#m9acd753e1b" x="100.585" y="232.067125" style="stroke: #000000; stroke-width: 0.8"/>
      </g>
     </g>
     <g id="text_1">
      <!-- −4 -->
      <g transform="translate(94.66 245.896812)scale(0.1 -0.1)">
       <defs>
        <path id="STIXGeneral-Regular-2212" d="M 3974 1408 
L 410 1408 
L 410 1830 
L 3974 1830 
L 3974 1408 
z
" transform="scale(0.015625)"/>
        <path id="STIXGeneral-Regular-34" d="M 3027 1069 
L 2368 1069 
L 2368 0 
L 1869 0 
L 1869 1069 
L 77 1069 
L 77 1478 
L 2086 4326 
L 2368 4326 
L 2368 1478 
L 3027 1478 
L 3027 1069 
z
M 1869 1478 
L 1869 3674 
L 333 1478 
L 1869 1478 
z
" transform="scale(0.015625)"/>
       </defs>
       <use xlink:href="#STIXGeneral-Regular-2212"/>
       <use xlink:href="#STIXGeneral-Regular-34" x="68.499985"/>
      </g>
     </g>
    </g>
    <g id="xtick_2">
     <g id="line2d_3">
      <path d="M 212.355 232.067125 
L 212.355 22.115625 
" clip-path="url(#p5be9e09613)" style="fill: none; stroke-dasharray: 0.8,1.32; stroke-dashoffset: 0; stroke: #b0b0b0; stroke-width: 0.8"/>
     </g>
     <g id="line2d_4">
      <g>
       <use xlink:href="#m9acd753e1b" x="212.355" y="232.067125" style="stroke: #000000; stroke-width: 0.8"/>
      </g>
     </g>
     <g id="text_2">
      <!-- −2 -->
      <g transform="translate(206.43 245.896812)scale(0.1 -0.1)">
       <defs>
        <path id="STIXGeneral-Regular-32" d="M 3034 877 
L 2688 0 
L 186 0 
L 186 77 
L 1325 1286 
Q 1773 1754 1965 2144 
Q 2157 2534 2157 2950 
Q 2157 3379 1920 3616 
Q 1683 3853 1267 3853 
Q 922 3853 720 3673 
Q 518 3494 326 3021 
L 192 3053 
Q 301 3648 630 3987 
Q 960 4326 1523 4326 
Q 2054 4326 2380 4006 
Q 2707 3686 2707 3200 
Q 2707 2477 1888 1613 
L 832 486 
L 2330 486 
Q 2541 486 2665 569 
Q 2790 653 2944 915 
L 3034 877 
z
" transform="scale(0.015625)"/>
       </defs>
       <use xlink:href="#STIXGeneral-Regular-2212"/>
       <use xlink:href="#STIXGeneral-Regular-32" x="68.499985"/>
      </g>
     </g>
    </g>
    <g id="xtick_3">
     <g id="line2d_5">
      <path d="M 324.125 232.067125 
L 324.125 22.115625 
" clip-path="url(#p5be9e09613)" style="fill: none; stroke-dasharray: 0.8,1.32; stroke-dashoffset: 0; stroke: #b0b0b0; stroke-width: 0.8"/>
     </g>
     <g id="line2d_6">
      <g>
       <use xlink:href="#m9acd753e1b" x="324.125" y="232.067125" style="stroke: #000000; stroke-width: 0.8"/>
      </g>
     </g>
     <g id="text_3">
      <!-- 0 -->
      <g transform="translate(321.625 245.896812)scale(0.1 -0.1)">
       <defs>
        <path id="STIXGeneral-Regular-30" d="M 3046 2112 
Q 3046 1683 2963 1302 
Q 2880 922 2717 602 
Q 2554 282 2266 96 
Q 1978 -90 1600 -90 
Q 1210 -90 915 108 
Q 621 307 461 640 
Q 301 973 227 1350 
Q 154 1728 154 2150 
Q 154 2746 301 3222 
Q 448 3699 790 4012 
Q 1133 4326 1626 4326 
Q 2253 4326 2649 3712 
Q 3046 3098 3046 2112 
z
M 2432 2080 
Q 2432 3091 2217 3625 
Q 2003 4160 1587 4160 
Q 1190 4160 979 3622 
Q 768 3085 768 2106 
Q 768 1120 979 598 
Q 1190 77 1600 77 
Q 2003 77 2217 598 
Q 2432 1120 2432 2080 
z
" transform="scale(0.015625)"/>
       </defs>
       <use xlink:href="#STIXGeneral-Regular-30"/>
      </g>
     </g>
    </g>
    <g id="xtick_4">
     <g id="line2d_7">
      <path d="M 435.895 232.067125 
L 435.895 22.115625 
" clip-path="url(#p5be9e09613)" style="fill: none; stroke-dasharray: 0.8,1.32; stroke-dashoffset: 0; stroke: #b0b0b0; stroke-width: 0.8"/>
     </g>
     <g id="line2d_8">
      <g>
       <use xlink:href="#m9acd753e1b" x="435.895" y="232.067125" style="stroke: #000000; stroke-width: 0.8"/>
      </g>
     </g>
     <g id="text_4">
      <!-- 2 -->
      <g transform="translate(433.395 245.896812)scale(0.1 -0.1)">
       <use xlink:href="#STIXGeneral-Regular-32"/>
      </g>
     </g>
    </g>
    <g id="xtick_5">
     <g id="line2d_9">
      <path d="M 547.665 232.067125 
L 547.665 22.115625 
" clip-path="url(#p5be9e09613)" style="fill: none; stroke-dasharray: 0.8,1.32; stroke-dashoffset: 0; stroke: #b0b0b0; stroke-width: 0.8"/>
     </g>
     <g id="line2d_10">
      <g>
       <use xlink:href="#m9acd753e1b" x="547.665" y="232.067125" style="stroke: #000000; stroke-width: 0.8"/>
      </g>
     </g>
     <g id="text_5">
      <!-- 4 -->
      <g transform="translate(545.165 245.896812)scale(0.1 -0.1)">
       <use xlink:href="#STIXGeneral-Regular-34"/>
      </g>
     </g>
    </g>
    <g id="text_6">
     <!-- $y/D$ [-] -->
     <g transform="translate(309.375 259.296812)scale(0.1 -0.1)">
      <defs>
       <path id="DejaVuSans-Oblique-79" d="M 1588 -325 
Q 1188 -997 936 -1164 
Q 684 -1331 294 -1331 
L -159 -1331 
L -63 -850 
L 269 -850 
Q 509 -850 678 -719 
Q 847 -588 1056 -206 
L 1234 128 
L 459 3500 
L 1069 3500 
L 1650 819 
L 3256 3500 
L 3859 3500 
L 1588 -325 
z
" transform="scale(0.015625)"/>
       <path id="DejaVuSans-2f" d="M 1625 4666 
L 2156 4666 
L 531 -594 
L 0 -594 
L 1625 4666 
z
" transform="scale(0.015625)"/>
       <path id="DejaVuSans-Oblique-44" d="M 1081 4666 
L 2438 4666 
Q 3519 4666 4070 4208 
Q 4622 3750 4622 2847 
Q 4622 2250 4412 1698 
Q 4203 1147 3834 769 
Q 3463 381 2891 190 
Q 2319 0 1538 0 
L 172 0 
L 1081 4666 
z
M 1613 4147 
L 909 519 
L 1734 519 
Q 2794 519 3375 1128 
Q 3956 1738 3956 2847 
Q 3956 3519 3581 3833 
Q 3206 4147 2406 4147 
L 1613 4147 
z
" transform="scale(0.015625)"/>
       <path id="STIXGeneral-Regular-20" transform="scale(0.015625)"/>
       <path id="STIXGeneral-Regular-5b" d="M 1914 -998 
L 563 -998 
L 563 4237 
L 1914 4237 
L 1914 4077 
L 1382 4077 
Q 1216 4077 1133 4006 
Q 1050 3936 1050 3770 
L 1050 -493 
Q 1050 -838 1382 -838 
L 1914 -838 
L 1914 -998 
z
" transform="scale(0.015625)"/>
       <path id="STIXGeneral-Regular-2d" d="M 1824 1242 
L 250 1242 
L 250 1645 
L 1824 1645 
L 1824 1242 
z
" transform="scale(0.015625)"/>
       <path id="STIXGeneral-Regular-5d" d="M 1568 -998 
L 218 -998 
L 218 -838 
L 781 -838 
Q 947 -838 1014 -768 
Q 1082 -698 1082 -544 
L 1082 3731 
Q 1082 4077 755 4077 
L 218 4077 
L 218 4237 
L 1568 4237 
L 1568 -998 
z
" transform="scale(0.015625)"/>
      </defs>
      <use xlink:href="#DejaVuSans-Oblique-79" transform="translate(0 0.09375)"/>
      <use xlink:href="#DejaVuSans-2f" transform="translate(59.179688 0.09375)"/>
      <use xlink:href="#DejaVuSans-Oblique-44" transform="translate(92.871094 0.09375)"/>
      <use xlink:href="#STIXGeneral-Regular-20" transform="translate(169.873047 0.09375)"/>
      <use xlink:href="#STIXGeneral-Regular-5b" transform="translate(194.873032 0.09375)"/>
      <use xlink:href="#STIXGeneral-Regular-2d" transform="translate(228.173019 0.09375)"/>
      <use xlink:href="#STIXGeneral-Regular-5d" transform="translate(261.473007 0.09375)"/>
     </g>
    </g>
   </g>
   <g id="matplotlib.axis_2">
    <g id="ytick_1">
     <g id="line2d_11">
      <path d="M 44.7 222.883727 
L 603.55 222.883727 
" clip-path="url(#p5be9e09613)" style="fill: none; stroke-dasharray: 0.8,1.32; stroke-dashoffset: 0; stroke: #b0b0b0; stroke-width: 0.8"/>
     </g>
     <g id="line2d_12">
      <defs>
       <path id="m1afc524663" d="M 0 0 
L -3.5 0 
" style="stroke: #000000; stroke-width: 0.8"/>
      </defs>
      <g>
       <use xlink:href="#m1afc524663" x="44.7" y="222.883727" style="stroke: #000000; stroke-width: 0.8"/>
      </g>
     </g>
     <g id="text_7">
      <!-- 0.00 -->
      <g transform="translate(20.2 226.298571)scale(0.1 -0.1)">
       <defs>
        <path id="STIXGeneral-Regular-2e" d="M 1158 275 
Q 1158 134 1052 32 
Q 947 -70 800 -70 
Q 653 -70 550 32 
Q 448 134 448 281 
Q 448 429 553 534 
Q 659 640 806 640 
Q 947 640 1052 531 
Q 1158 422 1158 275 
z
" transform="scale(0.015625)"/>
       </defs>
       <use xlink:href="#STIXGeneral-Regular-30"/>
       <use xlink:href="#STIXGeneral-Regular-2e" x="49.999985"/>
       <use xlink:href="#STIXGeneral-Regular-30" x="74.999969"/>
       <use xlink:href="#STIXGeneral-Regular-30" x="124.999954"/>
      </g>
     </g>
    </g>
    <g id="ytick_2">
     <g id="line2d_13">
      <path d="M 44.7 197.958587 
L 603.55 197.958587 
" clip-path="url(#p5be9e09613)" style="fill: none; stroke-dasharray: 0.8,1.32; stroke-dashoffset: 0; stroke: #b0b0b0; stroke-width: 0.8"/>
     </g>
     <g id="line2d_14">
      <g>
       <use xlink:href="#m1afc524663" x="44.7" y="197.958587" style="stroke: #000000; stroke-width: 0.8"/>
      </g>
     </g>
     <g id="text_8">
      <!-- 0.05 -->
      <g transform="translate(20.2 201.373431)scale(0.1 -0.1)">
       <defs>
        <path id="STIXGeneral-Regular-35" d="M 2803 4358 
L 2573 3814 
Q 2534 3731 2400 3731 
L 1158 3731 
L 902 3187 
Q 1606 3053 1920 2896 
Q 2234 2739 2502 2368 
Q 2726 2061 2726 1555 
Q 2726 1094 2576 780 
Q 2426 467 2099 224 
Q 1664 -90 1011 -90 
Q 646 -90 422 19 
Q 198 128 198 307 
Q 198 550 486 550 
Q 717 550 960 352 
Q 1210 147 1414 147 
Q 1747 147 2012 480 
Q 2278 813 2278 1229 
Q 2278 1843 1850 2189 
Q 1293 2637 486 2637 
Q 410 2637 410 2688 
L 416 2720 
L 1114 4237 
L 2438 4237 
Q 2547 4237 2608 4269 
Q 2669 4301 2746 4403 
L 2803 4358 
z
" transform="scale(0.015625)"/>
       </defs>
       <use xlink:href="#STIXGeneral-Regular-30"/>
       <use xlink:href="#STIXGeneral-Regular-2e" x="49.999985"/>
       <use xlink:href="#STIXGeneral-Regular-30" x="74.999969"/>
       <use xlink:href="#STIXGeneral-Regular-35" x="124.999954"/>
      </g>
     </g>
    </g>
    <g id="ytick_3">
     <g id="line2d_15">
      <path d="M 44.7 173.033447 
L 603.55 173.033447 
" clip-path="url(#p5be9e09613)" style="fill: none; stroke-dasharray: 0.8,1.32; stroke-dashoffset: 0; stroke: #b0b0b0; stroke-width: 0.8"/>
     </g>
     <g id="line2d_16">
      <g>
       <use xlink:href="#m1afc524663" x="44.7" y="173.033447" style="stroke: #000000; stroke-width: 0.8"/>
      </g>
     </g>
     <g id="text_9">
      <!-- 0.10 -->
      <g transform="translate(20.2 176.448291)scale(0.1 -0.1)">
       <defs>
        <path id="STIXGeneral-Regular-31" d="M 2522 0 
L 755 0 
L 755 96 
Q 1107 115 1235 227 
Q 1363 339 1363 608 
L 1363 3482 
Q 1363 3795 1171 3795 
Q 1082 3795 883 3718 
L 710 3654 
L 710 3744 
L 1856 4326 
L 1914 4307 
L 1914 486 
Q 1914 275 2042 185 
Q 2170 96 2522 96 
L 2522 0 
z
" transform="scale(0.015625)"/>
       </defs>
       <use xlink:href="#STIXGeneral-Regular-30"/>
       <use xlink:href="#STIXGeneral-Regular-2e" x="49.999985"/>
       <use xlink:href="#STIXGeneral-Regular-31" x="74.999969"/>
       <use xlink:href="#STIXGeneral-Regular-30" x="124.999954"/>
      </g>
     </g>
    </g>
    <g id="ytick_4">
     <g id="line2d_17">
      <path d="M 44.7 148.108307 
L 603.55 148.108307 
" clip-path="url(#p5be9e09613)" style="fill: none; stroke-dasharray: 0.8,1.32; stroke-dashoffset: 0; stroke: #b0b0b0; stroke-width: 0.8"/>
     </g>
     <g id="line2d_18">
      <g>
       <use xlink:href="#m1afc524663" x="44.7" y="148.108307" style="stroke: #000000; stroke-width: 0.8"/>
      </g>
     </g>
     <g id="text_10">
      <!-- 0.15 -->
      <g transform="translate(20.2 151.523151)scale(0.1 -0.1)">
       <use xlink:href="#STIXGeneral-Regular-30"/>
       <use xlink:href="#STIXGeneral-Regular-2e" x="49.999985"/>
       <use xlink:href="#STIXGeneral-Regular-31" x="74.999969"/>
       <use xlink:href="#STIXGeneral-Regular-35" x="124.999954"/>
      </g>
     </g>
    </g>
    <g id="ytick_5">
     <g id="line2d_19">
      <path d="M 44.7 123.183167 
L 603.55 123.183167 
" clip-path="url(#p5be9e09613)" style="fill: none; stroke-dasharray: 0.8,1.32; stroke-dashoffset: 0; stroke: #b0b0b0; stroke-width: 0.8"/>
     </g>
     <g id="line2d_20">
      <g>
       <use xlink:href="#m1afc524663" x="44.7" y="123.183167" style="stroke: #000000; stroke-width: 0.8"/>
      </g>
     </g>
     <g id="text_11">
      <!-- 0.20 -->
      <g transform="translate(20.2 126.598011)scale(0.1 -0.1)">
       <use xlink:href="#STIXGeneral-Regular-30"/>
       <use xlink:href="#STIXGeneral-Regular-2e" x="49.999985"/>
       <use xlink:href="#STIXGeneral-Regular-32" x="74.999969"/>
       <use xlink:href="#STIXGeneral-Regular-30" x="124.999954"/>
      </g>
     </g>
    </g>
    <g id="ytick_6">
     <g id="line2d_21">
      <path d="M 44.7 98.258027 
L 603.55 98.258027 
" clip-path="url(#p5be9e09613)" style="fill: none; stroke-dasharray: 0.8,1.32; stroke-dashoffset: 0; stroke: #b0b0b0; stroke-width: 0.8"/>
     </g>
     <g id="line2d_22">
      <g>
       <use xlink:href="#m1afc524663" x="44.7" y="98.258027" style="stroke: #000000; stroke-width: 0.8"/>
      </g>
     </g>
     <g id="text_12">
      <!-- 0.25 -->
      <g transform="translate(20.2 101.672871)scale(0.1 -0.1)">
       <use xlink:href="#STIXGeneral-Regular-30"/>
       <use xlink:href="#STIXGeneral-Regular-2e" x="49.999985"/>
       <use xlink:href="#STIXGeneral-Regular-32" x="74.999969"/>
       <use xlink:href="#STIXGeneral-Regular-35" x="124.999954"/>
      </g>
     </g>
    </g>
    <g id="ytick_7">
     <g id="line2d_23">
      <path d="M 44.7 73.332887 
L 603.55 73.332887 
" clip-path="url(#p5be9e09613)" style="fill: none; stroke-dasharray: 0.8,1.32; stroke-dashoffset: 0; stroke: #b0b0b0; stroke-width: 0.8"/>
     </g>
     <g id="line2d_24">
      <g>
       <use xlink:href="#m1afc524663" x="44.7" y="73.332887" style="stroke: #000000; stroke-width: 0.8"/>
      </g>
     </g>
     <g id="text_13">
      <!-- 0.30 -->
      <g transform="translate(20.2 76.747731)scale(0.1 -0.1)">
       <defs>
        <path id="STIXGeneral-Regular-33" d="M 390 3264 
L 288 3290 
Q 435 3770 748 4048 
Q 1062 4326 1542 4326 
Q 1990 4326 2265 4083 
Q 2541 3840 2541 3450 
Q 2541 2925 1946 2566 
Q 2298 2413 2477 2227 
Q 2758 1914 2758 1402 
Q 2758 890 2464 506 
Q 2246 211 1840 60 
Q 1434 -90 979 -90 
Q 262 -90 262 275 
Q 262 378 339 442 
Q 416 506 525 506 
Q 685 506 915 339 
Q 1197 141 1466 141 
Q 1818 141 2058 425 
Q 2298 710 2298 1120 
Q 2298 1856 1632 2048 
Q 1434 2112 979 2112 
L 979 2202 
Q 1338 2323 1517 2432 
Q 2035 2726 2035 3290 
Q 2035 3610 1852 3776 
Q 1670 3942 1344 3942 
Q 768 3942 390 3264 
z
" transform="scale(0.015625)"/>
       </defs>
       <use xlink:href="#STIXGeneral-Regular-30"/>
       <use xlink:href="#STIXGeneral-Regular-2e" x="49.999985"/>
       <use xlink:href="#STIXGeneral-Regular-33" x="74.999969"/>
       <use xlink:href="#STIXGeneral-Regular-30" x="124.999954"/>
      </g>
     </g>
    </g>
    <g id="ytick_8">
     <g id="line2d_25">
      <path d="M 44.7 48.407748 
L 603.55 48.407748 
" clip-path="url(#p5be9e09613)" style="fill: none; stroke-dasharray: 0.8,1.32; stroke-dashoffset: 0; stroke: #b0b0b0; stroke-width: 0.8"/>
     </g>
     <g id="line2d_26">
      <g>
       <use xlink:href="#m1afc524663" x="44.7" y="48.407748" style="stroke: #000000; stroke-width: 0.8"/>
      </g>
     </g>
     <g id="text_14">
      <!-- 0.35 -->
      <g transform="translate(20.2 51.822591)scale(0.1 -0.1)">
       <use xlink:href="#STIXGeneral-Regular-30"/>
       <use xlink:href="#STIXGeneral-Regular-2e" x="49.999985"/>
       <use xlink:href="#STIXGeneral-Regular-33" x="74.999969"/>
       <use xlink:href="#STIXGeneral-Regular-35" x="124.999954"/>
      </g>
     </g>
    </g>
    <g id="ytick_9">
     <g id="line2d_27">
      <path d="M 44.7 23.482608 
L 603.55 23.482608 
" clip-path="url(#p5be9e09613)" style="fill: none; stroke-dasharray: 0.8,1.32; stroke-dashoffset: 0; stroke: #b0b0b0; stroke-width: 0.8"/>
     </g>
     <g id="line2d_28">
      <g>
       <use xlink:href="#m1afc524663" x="44.7" y="23.482608" style="stroke: #000000; stroke-width: 0.8"/>
      </g>
     </g>
     <g id="text_15">
      <!-- 0.40 -->
      <g transform="translate(20.2 26.897451)scale(0.1 -0.1)">
       <use xlink:href="#STIXGeneral-Regular-30"/>
       <use xlink:href="#STIXGeneral-Regular-2e" x="49.999985"/>
       <use xlink:href="#STIXGeneral-Regular-34" x="74.999969"/>
       <use xlink:href="#STIXGeneral-Regular-30" x="124.999954"/>
      </g>
     </g>
    </g>
    <g id="text_16">
     <!-- $V$ [m/s] -->
     <g transform="translate(14.029688 142.341375)rotate(-90)scale(0.1 -0.1)">
      <defs>
       <path id="DejaVuSans-Oblique-56" d="M 1319 0 
L 500 4666 
L 1119 4666 
L 1797 653 
L 4063 4666 
L 4750 4666 
L 2053 0 
L 1319 0 
z
" transform="scale(0.015625)"/>
       <path id="STIXGeneral-Regular-6d" d="M 4960 0 
L 3565 0 
L 3565 96 
Q 3834 122 3907 208 
Q 3981 294 3981 576 
L 3981 1894 
Q 3981 2278 3869 2444 
Q 3757 2611 3488 2611 
Q 3264 2611 3107 2521 
Q 2950 2432 2803 2221 
L 2803 608 
Q 2803 301 2896 201 
Q 2989 102 3264 96 
L 3264 0 
L 1830 0 
L 1830 96 
Q 2112 115 2189 188 
Q 2266 262 2266 550 
L 2266 1901 
Q 2266 2611 1850 2611 
Q 1670 2611 1468 2531 
Q 1267 2451 1171 2336 
Q 1088 2240 1088 2227 
L 1088 448 
Q 1088 243 1177 176 
Q 1267 109 1523 96 
L 1523 0 
L 102 0 
L 102 96 
Q 371 102 460 195 
Q 550 288 550 563 
L 550 2150 
Q 550 2387 499 2480 
Q 448 2573 326 2573 
Q 230 2573 122 2547 
L 122 2656 
Q 557 2778 1011 2944 
L 1062 2925 
L 1062 2451 
L 1075 2451 
Q 1363 2752 1584 2848 
Q 1805 2944 2054 2944 
Q 2560 2944 2733 2406 
Q 3232 2944 3776 2944 
Q 4518 2944 4518 1792 
L 4518 493 
Q 4518 282 4582 202 
Q 4646 122 4794 109 
L 4960 96 
L 4960 0 
z
" transform="scale(0.015625)"/>
       <path id="STIXGeneral-Regular-2f" d="M 1837 4326 
L 378 -90 
L -58 -90 
L 1408 4326 
L 1837 4326 
z
" transform="scale(0.015625)"/>
       <path id="STIXGeneral-Regular-73" d="M 998 1926 
L 1664 1523 
Q 1984 1331 2105 1164 
Q 2227 998 2227 736 
Q 2227 416 1961 176 
Q 1696 -64 1331 -64 
Q 1030 -64 864 -6 
Q 691 51 570 51 
Q 461 51 416 -26 
L 333 -26 
L 333 979 
L 435 979 
Q 538 512 730 294 
Q 922 77 1248 77 
Q 1485 77 1632 211 
Q 1779 346 1779 550 
Q 1779 845 1440 1030 
L 1094 1222 
Q 326 1651 326 2150 
Q 326 2522 566 2730 
Q 806 2938 1210 2938 
Q 1491 2938 1638 2867 
Q 1754 2816 1818 2816 
Q 1862 2816 1920 2880 
L 1990 2880 
L 2022 2010 
L 1926 2010 
Q 1818 2445 1654 2621 
Q 1491 2797 1203 2797 
Q 986 2797 854 2688 
Q 723 2579 723 2362 
Q 723 2253 796 2128 
Q 870 2003 998 1926 
z
" transform="scale(0.015625)"/>
      </defs>
      <use xlink:href="#DejaVuSans-Oblique-56" transform="translate(0 0.09375)"/>
      <use xlink:href="#STIXGeneral-Regular-20" transform="translate(68.408203 0.09375)"/>
      <use xlink:href="#STIXGeneral-Regular-5b" transform="translate(93.408188 0.09375)"/>
      <use xlink:href="#STIXGeneral-Regular-6d" transform="translate(126.708176 0.09375)"/>
      <use xlink:href="#STIXGeneral-Regular-2f" transform="translate(204.508163 0.09375)"/>
      <use xlink:href="#STIXGeneral-Regular-73" transform="translate(232.308151 0.09375)"/>
      <use xlink:href="#STIXGeneral-Regular-5d" transform="translate(271.208145 0.09375)"/>
     </g>
    </g>
   </g>
   <g id="line2d_29">
    <path d="M -1 217.855864 
L 2.798476 217.761422 
L 36.119255 216.675455 
L 63.72466 215.529291 
L 86.5376 214.353731 
L 105.350926 213.183527 
L 120.839274 212.045812 
L 133.572287 210.971121 
L 144.027979 209.968368 
L 152.605466 209.067723 
L 159.962812 208.239483 
L 166.948437 207.363224 
L 173.934062 206.39706 
L 180.919687 205.345937 
L 187.905312 204.190644 
L 194.890937 202.9164 
L 201.876562 201.501878 
L 208.862188 199.920249 
L 215.847812 198.135965 
L 222.833438 196.100309 
L 229.819062 193.747307 
L 236.804688 190.980931 
L 243.790312 187.668039 
L 250.775937 183.606061 
L 257.761562 178.510787 
L 264.747187 171.950515 
L 271.732813 163.355627 
L 278.718437 151.959751 
L 285.704062 137.025802 
L 292.689687 117.907957 
L 299.675312 94.663379 
L 306.660937 70.193348 
L 313.646562 49.32085 
L 320.632187 35.746002 
L 327.617812 31.658875 
L 334.603437 37.559462 
L 341.589062 50.963646 
L 348.574687 68.033723 
L 355.560312 86.577568 
L 362.545937 105.88371 
L 369.531562 124.992726 
L 376.517187 141.261273 
L 383.502812 152.450371 
L 390.488437 160.421732 
L 397.474062 167.16639 
L 404.459687 173.188104 
L 411.445312 178.595747 
L 418.430937 183.290204 
L 425.416562 187.235521 
L 432.402187 190.526728 
L 439.387812 193.298329 
L 446.373437 195.667295 
L 453.359062 197.721948 
L 460.344687 199.525975 
L 467.330312 201.126934 
L 474.315937 202.557105 
L 481.301562 203.851337 
L 488.287187 205.008304 
L 495.644534 206.090358 
L 504.222021 207.253695 
L 514.677713 208.528382 
L 527.410727 209.872239 
L 542.899074 211.269002 
L 561.712399 212.676372 
L 584.525337 214.057956 
L 611.75 215.352255 
" clip-path="url(#p5be9e09613)" style="fill: none; stroke: #1f77b4; stroke-width: 2; stroke-linecap: square"/>
   </g>
   <g id="line2d_30">
    <path d="M -1 217.695119 
L 2.798476 217.59894 
L 36.119255 216.494871 
L 63.72466 215.331306 
L 86.5376 214.139002 
L 105.350926 212.952775 
L 120.839274 211.800552 
L 133.572287 210.711646 
L 144.027979 209.695944 
L 152.605466 208.782563 
L 159.962812 207.941847 
L 166.948437 207.053808 
L 173.934062 206.073732 
L 180.919687 205.006782 
L 187.905312 203.83375 
L 194.890937 202.538761 
L 201.876562 201.099898 
L 208.862188 199.489185 
L 215.847812 197.669522 
L 222.833438 195.590816 
L 229.819062 193.185014 
L 236.804688 190.358142 
L 243.790312 186.982615 
L 250.775937 182.886419 
L 257.761562 177.849445 
L 264.747187 171.604097 
L 271.732813 163.859505 
L 278.718437 154.339202 
L 285.704062 142.852968 
L 292.689687 129.401411 
L 299.675312 114.439415 
L 306.660937 99.686837 
L 313.646562 88.062793 
L 320.632187 82.006087 
L 327.617812 82.269021 
L 334.603437 87.888221 
L 341.589062 97.100841 
L 348.574687 108.387266 
L 355.560312 120.720329 
L 362.545937 133.288951 
L 369.531562 145.175336 
L 376.517187 155.358892 
L 383.502812 163.280634 
L 390.488437 169.268342 
L 397.474062 174.047066 
L 404.459687 178.198359 
L 411.445312 182.038619 
L 418.430937 185.629521 
L 425.416562 188.896872 
L 432.402187 191.782825 
L 439.387812 194.29458 
L 446.373437 196.478349 
L 453.359062 198.38914 
L 460.344687 200.075752 
L 467.330312 201.578018 
L 474.315937 202.924943 
L 481.301562 204.147074 
L 488.287187 205.243151 
L 495.644534 206.271997 
L 504.222021 207.379708 
L 514.677713 208.598025 
L 527.410727 209.887307 
L 542.899074 211.232546 
L 561.712399 212.595699 
L 584.525337 213.94166 
L 611.75 215.211068 
" clip-path="url(#p5be9e09613)" style="fill: none; stroke: #ff7f0e; stroke-width: 2; stroke-linecap: square"/>
   </g>
   <g id="line2d_31">
    <path d="M -1 217.445572 
L 2.798476 217.346162 
L 36.119255 216.207479 
L 63.72466 215.009634 
L 86.5376 213.783999 
L 105.350926 212.565953 
L 120.839274 211.384257 
L 133.572287 210.267812 
L 144.027979 209.227184 
L 152.605466 208.291555 
L 159.962812 207.430473 
L 166.948437 206.522602 
L 173.934062 205.521335 
L 180.919687 204.432468 
L 187.905312 203.237591 
L 194.890937 201.921519 
L 201.876562 200.464247 
L 208.862188 198.841147 
L 215.847812 197.02102 
L 222.833438 194.964262 
L 229.819062 192.620476 
L 236.804688 189.92566 
L 243.790312 186.799708 
L 250.775937 183.143418 
L 257.761562 178.838424 
L 264.747187 173.748353 
L 271.732813 167.731639 
L 278.718437 160.663936 
L 285.704062 152.498304 
L 292.689687 143.369382 
L 299.675312 133.810326 
L 306.660937 124.957257 
L 313.646562 118.42862 
L 320.632187 115.508465 
L 327.617812 116.451735 
L 334.603437 120.664184 
L 341.589062 127.208107 
L 348.574687 135.172703 
L 355.560312 143.777959 
L 362.545937 152.348158 
L 369.531562 160.28639 
L 376.517187 167.132734 
L 383.502812 172.679389 
L 390.488437 177.021066 
L 397.474062 180.467289 
L 404.459687 183.386542 
L 411.445312 186.067567 
L 418.430937 188.647145 
L 425.416562 191.129284 
L 432.402187 193.462178 
L 439.387812 195.602016 
L 446.373437 197.533881 
L 453.359062 199.266163 
L 460.344687 200.818526 
L 467.330312 202.214001 
L 474.315937 203.472961 
L 481.301562 204.619784 
L 488.287187 205.651749 
L 495.644534 206.623717 
L 504.222021 207.671867 
L 514.677713 208.828054 
L 527.410727 210.055489 
L 542.899074 211.340059 
L 561.712399 212.647239 
L 584.525337 213.943881 
L 611.75 215.173549 
" clip-path="url(#p5be9e09613)" style="fill: none; stroke: #2ca02c; stroke-width: 2; stroke-linecap: square"/>
   </g>
   <g id="line2d_32">
    <path d="M -1 217.130398 
L 2.798476 217.026947 
L 36.119255 215.845307 
L 63.72466 214.605243 
L 86.5376 213.339034 
L 105.350926 212.082791 
L 120.839274 210.865973 
L 133.572287 209.71756 
L 144.027979 208.648541 
L 152.605466 207.688616 
L 159.962812 206.806015 
L 166.948437 205.877577 
L 173.934062 204.855876 
L 180.919687 203.747816 
L 187.905312 202.536772 
L 194.890937 201.209886 
L 201.876562 199.751228 
L 208.862188 198.142426 
L 215.847812 196.361805 
L 222.833438 194.383979 
L 229.819062 192.178985 
L 236.804688 189.711303 
L 243.790312 186.938669 
L 250.775937 183.810829 
L 257.761562 180.269587 
L 264.747187 176.252134 
L 271.732813 171.702974 
L 278.718437 166.599798 
L 285.704062 161.001902 
L 292.689687 155.120853 
L 299.675312 149.392632 
L 306.660937 144.47063 
L 313.646562 141.080237 
L 320.632187 139.774212 
L 327.617812 140.713491 
L 334.603437 143.661663 
L 341.589062 148.147057 
L 348.574687 153.617938 
L 355.560312 159.536003 
L 362.545937 165.420205 
L 369.531562 170.878019 
L 376.517187 175.639961 
L 383.502812 179.590209 
L 390.488437 182.770559 
L 397.474062 185.344896 
L 404.459687 187.531539 
L 411.445312 189.527745 
L 418.430937 191.456627 
L 425.416562 193.357886 
L 432.402187 195.215189 
L 439.387812 196.993035 
L 446.373437 198.661298 
L 453.359062 200.204066 
L 460.344687 201.618232 
L 467.330312 202.909437 
L 474.315937 204.086701 
L 481.301562 205.166331 
L 488.287187 206.142283 
L 495.644534 207.064905 
L 504.222021 208.061675 
L 514.677713 209.163618 
L 527.410727 210.336055 
L 542.899074 211.565186 
L 561.712399 212.818767 
L 584.525337 214.0653 
L 611.75 215.251217 
" clip-path="url(#p5be9e09613)" style="fill: none; stroke: #d62728; stroke-width: 2; stroke-linecap: square"/>
   </g>
   <g id="patch_3">
    <path d="M 44.7 232.067125 
L 44.7 22.115625 
" style="fill: none; stroke: #000000; stroke-width: 0.8; stroke-linejoin: miter; stroke-linecap: square"/>
   </g>
   <g id="patch_4">
    <path d="M 603.55 232.067125 
L 603.55 22.115625 
" style="fill: none; stroke: #000000; stroke-width: 0.8; stroke-linejoin: miter; stroke-linecap: square"/>
   </g>
   <g id="patch_5">
    <path d="M 44.7 232.067125 
L 603.55 232.067125 
" style="fill: none; stroke: #000000; stroke-width: 0.8; stroke-linejoin: miter; stroke-linecap: square"/>
   </g>
   <g id="patch_6">
    <path d="M 44.7 22.115625 
L 603.55 22.115625 
" style="fill: none; stroke: #000000; stroke-width: 0.8; stroke-linejoin: miter; stroke-linecap: square"/>
   </g>
   <g id="text_17">
    <!-- $x/D = 10$, $\gamma = 40^\circ$, $C_T = 0.8$, W.R.$=$True -->
    <g transform="translate(211.865 16.115625)scale(0.12 -0.12)">
     <defs>
      <path id="DejaVuSans-Oblique-78" d="M 3841 3500 
L 2234 1784 
L 3219 0 
L 2559 0 
L 1819 1388 
L 531 0 
L -166 0 
L 1556 1844 
L 641 3500 
L 1300 3500 
L 1972 2234 
L 3144 3500 
L 3841 3500 
z
" transform="scale(0.015625)"/>
      <path id="DejaVuSans-3d" d="M 678 2906 
L 4684 2906 
L 4684 2381 
L 678 2381 
L 678 2906 
z
M 678 1631 
L 4684 1631 
L 4684 1100 
L 678 1100 
L 678 1631 
z
" transform="scale(0.015625)"/>
      <path id="DejaVuSans-31" d="M 794 531 
L 1825 531 
L 1825 4091 
L 703 3866 
L 703 4441 
L 1819 4666 
L 2450 4666 
L 2450 531 
L 3481 531 
L 3481 0 
L 794 0 
L 794 531 
z
" transform="scale(0.015625)"/>
      <path id="DejaVuSans-30" d="M 2034 4250 
Q 1547 4250 1301 3770 
Q 1056 3291 1056 2328 
Q 1056 1369 1301 889 
Q 1547 409 2034 409 
Q 2525 409 2770 889 
Q 3016 1369 3016 2328 
Q 3016 3291 2770 3770 
Q 2525 4250 2034 4250 
z
M 2034 4750 
Q 2819 4750 3233 4129 
Q 3647 3509 3647 2328 
Q 3647 1150 3233 529 
Q 2819 -91 2034 -91 
Q 1250 -91 836 529 
Q 422 1150 422 2328 
Q 422 3509 836 4129 
Q 1250 4750 2034 4750 
z
" transform="scale(0.015625)"/>
      <path id="STIXGeneral-Regular-2c" d="M 531 -902 
L 467 -781 
Q 998 -422 998 -96 
Q 998 -13 909 -13 
Q 883 -13 822 -25 
Q 762 -38 723 -38 
Q 352 -38 352 288 
Q 352 454 457 553 
Q 563 653 736 653 
Q 954 653 1101 496 
Q 1248 339 1248 96 
Q 1248 -198 1053 -473 
Q 858 -749 531 -902 
z
" transform="scale(0.015625)"/>
      <path id="DejaVuSans-Oblique-3b3" d="M 1491 2950 
L 1838 788 
L 3456 3500 
L 4066 3500 
L 1972 0 
L 1713 -1331 
L 1138 -1331 
L 1397 0 
L 988 2613 
Q 925 3006 628 3006 
L 475 3006 
L 569 3500 
L 788 3500 
Q 1403 3500 1491 2950 
z
" transform="scale(0.015625)"/>
      <path id="DejaVuSans-34" d="M 2419 4116 
L 825 1625 
L 2419 1625 
L 2419 4116 
z
M 2253 4666 
L 3047 4666 
L 3047 1625 
L 3713 1625 
L 3713 1100 
L 3047 1100 
L 3047 0 
L 2419 0 
L 2419 1100 
L 313 1100 
L 313 1709 
L 2253 4666 
z
" transform="scale(0.015625)"/>
      <path id="DejaVuSans-2218" d="M 2003 2603 
Q 1753 2603 1581 2429 
Q 1409 2256 1409 2006 
Q 1409 1759 1581 1589 
Q 1753 1419 2003 1419 
Q 2253 1419 2425 1589 
Q 2597 1759 2597 2006 
Q 2597 2253 2423 2428 
Q 2250 2603 2003 2603 
z
M 2003 3006 
Q 2203 3006 2387 2929 
Q 2572 2853 2706 2709 
Q 2850 2569 2922 2390 
Q 2994 2212 2994 2006 
Q 2994 1594 2705 1308 
Q 2416 1022 1997 1022 
Q 1575 1022 1294 1303 
Q 1013 1584 1013 2006 
Q 1013 2425 1300 2715 
Q 1588 3006 2003 3006 
z
" transform="scale(0.015625)"/>
      <path id="DejaVuSans-Oblique-43" d="M 4447 4306 
L 4319 3641 
Q 4019 3944 3683 4091 
Q 3347 4238 2956 4238 
Q 2422 4238 2017 3981 
Q 1613 3725 1319 3200 
Q 1131 2863 1032 2486 
Q 934 2109 934 1728 
Q 934 1091 1264 756 
Q 1594 422 2222 422 
Q 2656 422 3056 561 
Q 3456 700 3834 978 
L 3688 231 
Q 3316 72 2936 -9 
Q 2556 -91 2175 -91 
Q 1278 -91 773 396 
Q 269 884 269 1753 
Q 269 2309 461 2846 
Q 653 3384 1013 3828 
Q 1394 4300 1883 4525 
Q 2372 4750 3022 4750 
Q 3422 4750 3780 4639 
Q 4138 4528 4447 4306 
z
" transform="scale(0.015625)"/>
      <path id="DejaVuSans-Oblique-54" d="M 378 4666 
L 4325 4666 
L 4225 4134 
L 2559 4134 
L 1759 0 
L 1125 0 
L 1925 4134 
L 275 4134 
L 378 4666 
z
" transform="scale(0.015625)"/>
      <path id="DejaVuSans-2e" d="M 684 794 
L 1344 794 
L 1344 0 
L 684 0 
L 684 794 
z
" transform="scale(0.015625)"/>
      <path id="DejaVuSans-38" d="M 2034 2216 
Q 1584 2216 1326 1975 
Q 1069 1734 1069 1313 
Q 1069 891 1326 650 
Q 1584 409 2034 409 
Q 2484 409 2743 651 
Q 3003 894 3003 1313 
Q 3003 1734 2745 1975 
Q 2488 2216 2034 2216 
z
M 1403 2484 
Q 997 2584 770 2862 
Q 544 3141 544 3541 
Q 544 4100 942 4425 
Q 1341 4750 2034 4750 
Q 2731 4750 3128 4425 
Q 3525 4100 3525 3541 
Q 3525 3141 3298 2862 
Q 3072 2584 2669 2484 
Q 3125 2378 3379 2068 
Q 3634 1759 3634 1313 
Q 3634 634 3220 271 
Q 2806 -91 2034 -91 
Q 1263 -91 848 271 
Q 434 634 434 1313 
Q 434 1759 690 2068 
Q 947 2378 1403 2484 
z
M 1172 3481 
Q 1172 3119 1398 2916 
Q 1625 2713 2034 2713 
Q 2441 2713 2670 2916 
Q 2900 3119 2900 3481 
Q 2900 3844 2670 4047 
Q 2441 4250 2034 4250 
Q 1625 4250 1398 4047 
Q 1172 3844 1172 3481 
z
" transform="scale(0.015625)"/>
      <path id="STIXGeneral-Regular-57" d="M 5965 4237 
L 5965 4115 
Q 5709 4064 5616 3990 
Q 5523 3917 5434 3667 
Q 4704 1709 4128 -70 
L 4032 -70 
Q 3642 1011 3008 2637 
L 2022 -70 
L 1926 -70 
Q 1709 576 1277 1753 
Q 845 2931 698 3347 
Q 538 3808 406 3958 
Q 275 4109 32 4115 
L 32 4237 
L 1594 4237 
L 1594 4115 
Q 1357 4109 1270 4064 
Q 1184 4019 1184 3917 
Q 1184 3808 1254 3616 
L 2176 1210 
L 2842 3021 
L 2662 3501 
Q 2509 3917 2400 4013 
Q 2291 4109 2010 4115 
L 2010 4237 
L 3706 4237 
L 3706 4115 
Q 3213 4102 3213 3891 
Q 3213 3808 3322 3520 
L 4237 1190 
L 5043 3360 
Q 5152 3667 5152 3853 
Q 5152 4109 4704 4115 
L 4704 4237 
L 5965 4237 
z
" transform="scale(0.015625)"/>
      <path id="STIXGeneral-Regular-52" d="M 4224 0 
L 3187 0 
L 1664 1971 
L 1306 1958 
L 1306 717 
Q 1306 352 1405 249 
Q 1504 147 1875 122 
L 1875 0 
L 109 0 
L 109 122 
Q 474 154 563 262 
Q 653 371 653 794 
L 653 3526 
Q 653 3885 563 3987 
Q 474 4090 109 4115 
L 109 4237 
L 1850 4237 
Q 2726 4237 3187 3859 
Q 3501 3603 3501 3091 
Q 3501 2221 2342 2042 
L 3622 422 
Q 3757 256 3878 198 
Q 4000 141 4224 122 
L 4224 0 
z
M 1306 3731 
L 1306 2195 
Q 1766 2202 1990 2246 
Q 2214 2291 2438 2413 
Q 2803 2618 2803 3142 
Q 2803 4000 1632 4000 
Q 1459 4000 1382 3945 
Q 1306 3891 1306 3731 
z
" transform="scale(0.015625)"/>
      <path id="STIXGeneral-Regular-54" d="M 3795 3149 
L 3642 3149 
Q 3539 3674 3353 3821 
Q 3168 3968 2656 3968 
L 2278 3968 
L 2278 710 
Q 2278 346 2387 243 
Q 2496 141 2893 122 
L 2893 0 
L 1024 0 
L 1024 122 
Q 1427 147 1526 256 
Q 1626 365 1626 787 
L 1626 3968 
L 1242 3968 
Q 723 3968 540 3817 
Q 358 3667 262 3149 
L 109 3149 
L 154 4237 
L 3750 4237 
L 3795 3149 
z
" transform="scale(0.015625)"/>
      <path id="STIXGeneral-Regular-72" d="M 1024 2931 
L 1024 2342 
Q 1267 2688 1430 2816 
Q 1594 2944 1792 2944 
Q 1958 2944 2051 2854 
Q 2144 2765 2144 2605 
Q 2144 2470 2077 2393 
Q 2010 2317 1894 2317 
Q 1773 2317 1638 2445 
Q 1536 2541 1472 2541 
Q 1338 2541 1181 2355 
Q 1024 2170 1024 2016 
L 1024 576 
Q 1024 301 1133 205 
Q 1242 109 1568 96 
L 1568 0 
L 32 0 
L 32 96 
Q 339 154 412 224 
Q 486 294 486 538 
L 486 2138 
Q 486 2349 438 2435 
Q 390 2522 269 2522 
Q 166 2522 45 2496 
L 45 2598 
Q 448 2726 992 2944 
L 1024 2931 
z
" transform="scale(0.015625)"/>
      <path id="STIXGeneral-Regular-75" d="M 3072 320 
L 3072 230 
Q 2573 96 2195 -58 
L 2163 -38 
L 2163 486 
L 2150 486 
Q 1747 -64 1235 -64 
Q 870 -64 662 160 
Q 454 384 454 755 
L 454 2362 
Q 454 2598 371 2688 
Q 288 2778 58 2790 
L 58 2880 
L 992 2880 
L 992 813 
Q 992 595 1123 451 
Q 1254 307 1446 307 
Q 1760 307 1984 506 
Q 2067 582 2099 649 
Q 2131 717 2131 877 
L 2131 2355 
Q 2131 2605 2041 2678 
Q 1952 2752 1658 2771 
L 1658 2880 
L 2669 2880 
L 2669 685 
Q 2669 461 2742 390 
Q 2816 320 3034 320 
L 3072 320 
z
" transform="scale(0.015625)"/>
      <path id="STIXGeneral-Regular-65" d="M 2611 1050 
L 2714 1005 
Q 2330 -64 1376 -64 
Q 813 -64 486 329 
Q 160 723 160 1389 
Q 160 2074 525 2509 
Q 890 2944 1485 2944 
Q 2061 2944 2374 2502 
Q 2560 2246 2592 1773 
L 621 1773 
Q 646 1370 700 1158 
Q 755 947 915 730 
Q 1184 378 1626 378 
Q 1939 378 2153 531 
Q 2368 685 2611 1050 
z
M 634 1978 
L 1939 1978 
Q 1882 2381 1750 2547 
Q 1619 2714 1312 2714 
Q 1043 2714 864 2525 
Q 685 2336 634 1978 
z
" transform="scale(0.015625)"/>
     </defs>
     <use xlink:href="#DejaVuSans-Oblique-78" transform="translate(0 0.78125)"/>
     <use xlink:href="#DejaVuSans-2f" transform="translate(59.179688 0.78125)"/>
     <use xlink:href="#DejaVuSans-Oblique-44" transform="translate(92.871094 0.78125)"/>
     <use xlink:href="#DejaVuSans-3d" transform="translate(189.355469 0.78125)"/>
     <use xlink:href="#DejaVuSans-31" transform="translate(292.626953 0.78125)"/>
     <use xlink:href="#DejaVuSans-30" transform="translate(356.25 0.78125)"/>
     <use xlink:href="#STIXGeneral-Regular-2c" transform="translate(419.873047 0.78125)"/>
     <use xlink:href="#STIXGeneral-Regular-20" transform="translate(444.873032 0.78125)"/>
     <use xlink:href="#DejaVuSans-Oblique-3b3" transform="translate(469.873016 0.78125)"/>
     <use xlink:href="#DejaVuSans-3d" transform="translate(548.535126 0.78125)"/>
     <use xlink:href="#DejaVuSans-34" transform="translate(651.80661 0.78125)"/>
     <use xlink:href="#DejaVuSans-30" transform="translate(715.429657 0.78125)"/>
     <use xlink:href="#DejaVuSans-2218" transform="translate(793.64743 39.0625)scale(0.7)"/>
     <use xlink:href="#STIXGeneral-Regular-2c" transform="translate(853.83786 0.78125)"/>
     <use xlink:href="#STIXGeneral-Regular-20" transform="translate(878.837845 0.78125)"/>
     <use xlink:href="#DejaVuSans-Oblique-43" transform="translate(903.83783 0.78125)"/>
     <use xlink:href="#DejaVuSans-Oblique-54" transform="translate(973.662048 -15.625)scale(0.7)"/>
     <use xlink:href="#DejaVuSans-3d" transform="translate(1038.637634 0.78125)"/>
     <use xlink:href="#DejaVuSans-30" transform="translate(1141.909119 0.78125)"/>
     <use xlink:href="#DejaVuSans-2e" transform="translate(1205.532166 0.78125)"/>
     <use xlink:href="#DejaVuSans-38" transform="translate(1234.694275 0.78125)"/>
     <use xlink:href="#STIXGeneral-Regular-2c" transform="translate(1298.317322 0.78125)"/>
     <use xlink:href="#STIXGeneral-Regular-20" transform="translate(1323.317307 0.78125)"/>
     <use xlink:href="#STIXGeneral-Regular-57" transform="translate(1348.317291 0.78125)"/>
     <use xlink:href="#STIXGeneral-Regular-2e" transform="translate(1442.717285 0.78125)"/>
     <use xlink:href="#STIXGeneral-Regular-52" transform="translate(1467.71727 0.78125)"/>
     <use xlink:href="#STIXGeneral-Regular-2e" transform="translate(1534.417267 0.78125)"/>
     <use xlink:href="#DejaVuSans-3d" transform="translate(1578.899673 0.78125)"/>
     <use xlink:href="#STIXGeneral-Regular-54" transform="translate(1682.171158 0.78125)"/>
     <use xlink:href="#STIXGeneral-Regular-72" transform="translate(1743.271149 0.78125)"/>
     <use xlink:href="#STIXGeneral-Regular-75" transform="translate(1776.571136 0.78125)"/>
     <use xlink:href="#STIXGeneral-Regular-65" transform="translate(1826.571121 0.78125)"/>
    </g>
   </g>
   <g id="legend_1">
    <g id="patch_7">
     <path d="M 515.55 86.796875 
L 596.55 86.796875 
Q 598.55 86.796875 598.55 84.796875 
L 598.55 29.115625 
Q 598.55 27.115625 596.55 27.115625 
L 515.55 27.115625 
Q 513.55 27.115625 513.55 29.115625 
L 513.55 84.796875 
Q 513.55 86.796875 515.55 86.796875 
z
" style="fill: #ffffff; opacity: 0.8; stroke: #cccccc; stroke-linejoin: miter"/>
    </g>
    <g id="line2d_33">
     <path d="M 517.55 34.615625 
L 527.55 34.615625 
L 537.55 34.615625 
" style="fill: none; stroke: #1f77b4; stroke-width: 2; stroke-linecap: square"/>
    </g>
    <g id="text_18">
     <!-- T.I.$= 0.04$ -->
     <g transform="translate(545.55 38.115625)scale(0.1 -0.1)">
      <defs>
       <path id="STIXGeneral-Regular-49" d="M 2016 0 
L 115 0 
L 115 122 
Q 518 134 627 240 
Q 736 346 736 717 
L 736 3526 
Q 736 3898 633 3994 
Q 531 4090 115 4115 
L 115 4237 
L 2016 4237 
L 2016 4115 
Q 1613 4096 1501 3993 
Q 1389 3891 1389 3526 
L 1389 717 
Q 1389 358 1504 246 
Q 1619 134 2016 122 
L 2016 0 
z
" transform="scale(0.015625)"/>
      </defs>
      <use xlink:href="#STIXGeneral-Regular-54" transform="translate(0 0.78125)"/>
      <use xlink:href="#STIXGeneral-Regular-2e" transform="translate(61.099991 0.78125)"/>
      <use xlink:href="#STIXGeneral-Regular-49" transform="translate(86.099976 0.78125)"/>
      <use xlink:href="#STIXGeneral-Regular-2e" transform="translate(119.399963 0.78125)"/>
      <use xlink:href="#DejaVuSans-3d" transform="translate(163.88237 0.78125)"/>
      <use xlink:href="#DejaVuSans-30" transform="translate(267.153854 0.78125)"/>
      <use xlink:href="#DejaVuSans-2e" transform="translate(330.776901 0.78125)"/>
      <use xlink:href="#DejaVuSans-30" transform="translate(362.564011 0.78125)"/>
      <use xlink:href="#DejaVuSans-34" transform="translate(426.187057 0.78125)"/>
     </g>
    </g>
    <g id="line2d_34">
     <path d="M 517.55 48.785937 
L 527.55 48.785937 
L 537.55 48.785937 
" style="fill: none; stroke: #ff7f0e; stroke-width: 2; stroke-linecap: square"/>
    </g>
    <g id="text_19">
     <!-- T.I.$= 0.06$ -->
     <g transform="translate(545.55 52.285937)scale(0.1 -0.1)">
      <defs>
       <path id="DejaVuSans-36" d="M 2113 2584 
Q 1688 2584 1439 2293 
Q 1191 2003 1191 1497 
Q 1191 994 1439 701 
Q 1688 409 2113 409 
Q 2538 409 2786 701 
Q 3034 994 3034 1497 
Q 3034 2003 2786 2293 
Q 2538 2584 2113 2584 
z
M 3366 4563 
L 3366 3988 
Q 3128 4100 2886 4159 
Q 2644 4219 2406 4219 
Q 1781 4219 1451 3797 
Q 1122 3375 1075 2522 
Q 1259 2794 1537 2939 
Q 1816 3084 2150 3084 
Q 2853 3084 3261 2657 
Q 3669 2231 3669 1497 
Q 3669 778 3244 343 
Q 2819 -91 2113 -91 
Q 1303 -91 875 529 
Q 447 1150 447 2328 
Q 447 3434 972 4092 
Q 1497 4750 2381 4750 
Q 2619 4750 2861 4703 
Q 3103 4656 3366 4563 
z
" transform="scale(0.015625)"/>
      </defs>
      <use xlink:href="#STIXGeneral-Regular-54" transform="translate(0 0.78125)"/>
      <use xlink:href="#STIXGeneral-Regular-2e" transform="translate(61.099991 0.78125)"/>
      <use xlink:href="#STIXGeneral-Regular-49" transform="translate(86.099976 0.78125)"/>
      <use xlink:href="#STIXGeneral-Regular-2e" transform="translate(119.399963 0.78125)"/>
      <use xlink:href="#DejaVuSans-3d" transform="translate(163.88237 0.78125)"/>
      <use xlink:href="#DejaVuSans-30" transform="translate(267.153854 0.78125)"/>
      <use xlink:href="#DejaVuSans-2e" transform="translate(330.776901 0.78125)"/>
      <use xlink:href="#DejaVuSans-30" transform="translate(362.564011 0.78125)"/>
      <use xlink:href="#DejaVuSans-36" transform="translate(426.187057 0.78125)"/>
     </g>
    </g>
    <g id="line2d_35">
     <path d="M 517.55 62.95625 
L 527.55 62.95625 
L 537.55 62.95625 
" style="fill: none; stroke: #2ca02c; stroke-width: 2; stroke-linecap: square"/>
    </g>
    <g id="text_20">
     <!-- T.I.$= 0.08$ -->
     <g transform="translate(545.55 66.45625)scale(0.1 -0.1)">
      <use xlink:href="#STIXGeneral-Regular-54" transform="translate(0 0.78125)"/>
      <use xlink:href="#STIXGeneral-Regular-2e" transform="translate(61.099991 0.78125)"/>
      <use xlink:href="#STIXGeneral-Regular-49" transform="translate(86.099976 0.78125)"/>
      <use xlink:href="#STIXGeneral-Regular-2e" transform="translate(119.399963 0.78125)"/>
      <use xlink:href="#DejaVuSans-3d" transform="translate(163.88237 0.78125)"/>
      <use xlink:href="#DejaVuSans-30" transform="translate(267.153854 0.78125)"/>
      <use xlink:href="#DejaVuSans-2e" transform="translate(330.776901 0.78125)"/>
      <use xlink:href="#DejaVuSans-30" transform="translate(362.564011 0.78125)"/>
      <use xlink:href="#DejaVuSans-38" transform="translate(426.187057 0.78125)"/>
     </g>
    </g>
    <g id="line2d_36">
     <path d="M 517.55 77.126562 
L 527.55 77.126562 
L 537.55 77.126562 
" style="fill: none; stroke: #d62728; stroke-width: 2; stroke-linecap: square"/>
    </g>
    <g id="text_21">
     <!-- T.I.$= 0.1$ -->
     <g transform="translate(545.55 80.626562)scale(0.1 -0.1)">
      <use xlink:href="#STIXGeneral-Regular-54" transform="translate(0 0.78125)"/>
      <use xlink:href="#STIXGeneral-Regular-2e" transform="translate(61.099991 0.78125)"/>
      <use xlink:href="#STIXGeneral-Regular-49" transform="translate(86.099976 0.78125)"/>
      <use xlink:href="#STIXGeneral-Regular-2e" transform="translate(119.399963 0.78125)"/>
      <use xlink:href="#DejaVuSans-3d" transform="translate(163.88237 0.78125)"/>
      <use xlink:href="#DejaVuSans-30" transform="translate(267.153854 0.78125)"/>
      <use xlink:href="#DejaVuSans-2e" transform="translate(330.776901 0.78125)"/>
      <use xlink:href="#DejaVuSans-31" transform="translate(362.564011 0.78125)"/>
     </g>
    </g>
   </g>
  </g>
 </g>
 <defs>
  <clipPath id="p5be9e09613">
   <rect x="44.7" y="22.115625" width="558.85" height="209.9515"/>
  </clipPath>
 </defs>
</svg>
