<?xml version="1.0" encoding="utf-8" standalone="no"?>
<!DOCTYPE svg PUBLIC "-//W3C//DTD SVG 1.1//EN"
  "http://www.w3.org/Graphics/SVG/1.1/DTD/svg11.dtd">
<svg xmlns:xlink="http://www.w3.org/1999/xlink" width="527.832pt" height="274.346825pt" viewBox="0 0 527.832 274.346825" xmlns="http://www.w3.org/2000/svg" version="1.1">
 <metadata>
  <rdf:RDF xmlns:dc="http://purl.org/dc/elements/1.1/" xmlns:cc="http://creativecommons.org/ns#" xmlns:rdf="http://www.w3.org/1999/02/22-rdf-syntax-ns#">
   <cc:Work>
    <dc:type rdf:resource="http://purl.org/dc/dcmitype/StillImage"/>
    <dc:date>2022-04-18T13:12:36.378487</dc:date>
    <dc:format>image/svg+xml</dc:format>
    <dc:creator>
     <cc:Agent>
      <dc:title>Matplotlib v3.5.1, https://matplotlib.org/</dc:title>
     </cc:Agent>
    </dc:creator>
   </cc:Work>
  </rdf:RDF>
 </metadata>
 <defs>
  <style type="text/css">*{stroke-linejoin: round; stroke-linecap: butt}</style>
 </defs>
 <g id="figure_1">
  <g id="patch_1">
   <path d="M 0 274.346825 
L 527.832 274.346825 
L 527.832 0 
L 0 0 
z
" style="fill: #ffffff"/>
  </g>
  <g id="axes_1">
   <g id="patch_2">
    <path d="M 39.45 238.146825 
L 520.632 238.146825 
L 520.632 22.115625 
L 39.45 22.115625 
z
" style="fill: #ffffff"/>
   </g>
   <g id="matplotlib.axis_1">
    <g id="xtick_1">
     <g id="line2d_1">
      <path d="M 55.4894 238.146825 
L 55.4894 22.115625 
" clip-path="url(#pae236dd3e0)" style="fill: none; stroke-dasharray: 0.8,1.32; stroke-dashoffset: 0; stroke: #b0b0b0; stroke-width: 0.8"/>
     </g>
     <g id="line2d_2">
      <defs>
       <path id="medd646984a" d="M 0 0 
L 0 3.5 
" style="stroke: #000000; stroke-width: 0.8"/>
      </defs>
      <g>
       <use xlink:href="#medd646984a" x="55.4894" y="238.146825" style="stroke: #000000; stroke-width: 0.8"/>
      </g>
     </g>
     <g id="text_1">
      <!-- 0 -->
      <g transform="translate(52.9894 251.976512)scale(0.1 -0.1)">
       <defs>
        <path id="STIXGeneral-Regular-30" d="M 3046 2112 
Q 3046 1683 2963 1302 
Q 2880 922 2717 602 
Q 2554 282 2266 96 
Q 1978 -90 1600 -90 
Q 1210 -90 915 108 
Q 621 307 461 640 
Q 301 973 227 1350 
Q 154 1728 154 2150 
Q 154 2746 301 3222 
Q 448 3699 790 4012 
Q 1133 4326 1626 4326 
Q 2253 4326 2649 3712 
Q 3046 3098 3046 2112 
z
M 2432 2080 
Q 2432 3091 2217 3625 
Q 2003 4160 1587 4160 
Q 1190 4160 979 3622 
Q 768 3085 768 2106 
Q 768 1120 979 598 
Q 1190 77 1600 77 
Q 2003 77 2217 598 
Q 2432 1120 2432 2080 
z
" transform="scale(0.015625)"/>
       </defs>
       <use xlink:href="#STIXGeneral-Regular-30"/>
      </g>
     </g>
    </g>
    <g id="xtick_2">
     <g id="line2d_3">
      <path d="M 135.6864 238.146825 
L 135.6864 22.115625 
" clip-path="url(#pae236dd3e0)" style="fill: none; stroke-dasharray: 0.8,1.32; stroke-dashoffset: 0; stroke: #b0b0b0; stroke-width: 0.8"/>
     </g>
     <g id="line2d_4">
      <g>
       <use xlink:href="#medd646984a" x="135.6864" y="238.146825" style="stroke: #000000; stroke-width: 0.8"/>
      </g>
     </g>
     <g id="text_2">
      <!-- 5 -->
      <g transform="translate(133.1864 251.976512)scale(0.1 -0.1)">
       <defs>
        <path id="STIXGeneral-Regular-35" d="M 2803 4358 
L 2573 3814 
Q 2534 3731 2400 3731 
L 1158 3731 
L 902 3187 
Q 1606 3053 1920 2896 
Q 2234 2739 2502 2368 
Q 2726 2061 2726 1555 
Q 2726 1094 2576 780 
Q 2426 467 2099 224 
Q 1664 -90 1011 -90 
Q 646 -90 422 19 
Q 198 128 198 307 
Q 198 550 486 550 
Q 717 550 960 352 
Q 1210 147 1414 147 
Q 1747 147 2012 480 
Q 2278 813 2278 1229 
Q 2278 1843 1850 2189 
Q 1293 2637 486 2637 
Q 410 2637 410 2688 
L 416 2720 
L 1114 4237 
L 2438 4237 
Q 2547 4237 2608 4269 
Q 2669 4301 2746 4403 
L 2803 4358 
z
" transform="scale(0.015625)"/>
       </defs>
       <use xlink:href="#STIXGeneral-Regular-35"/>
      </g>
     </g>
    </g>
    <g id="xtick_3">
     <g id="line2d_5">
      <path d="M 215.8834 238.146825 
L 215.8834 22.115625 
" clip-path="url(#pae236dd3e0)" style="fill: none; stroke-dasharray: 0.8,1.32; stroke-dashoffset: 0; stroke: #b0b0b0; stroke-width: 0.8"/>
     </g>
     <g id="line2d_6">
      <g>
       <use xlink:href="#medd646984a" x="215.8834" y="238.146825" style="stroke: #000000; stroke-width: 0.8"/>
      </g>
     </g>
     <g id="text_3">
      <!-- 10 -->
      <g transform="translate(210.8834 251.976512)scale(0.1 -0.1)">
       <defs>
        <path id="STIXGeneral-Regular-31" d="M 2522 0 
L 755 0 
L 755 96 
Q 1107 115 1235 227 
Q 1363 339 1363 608 
L 1363 3482 
Q 1363 3795 1171 3795 
Q 1082 3795 883 3718 
L 710 3654 
L 710 3744 
L 1856 4326 
L 1914 4307 
L 1914 486 
Q 1914 275 2042 185 
Q 2170 96 2522 96 
L 2522 0 
z
" transform="scale(0.015625)"/>
       </defs>
       <use xlink:href="#STIXGeneral-Regular-31"/>
       <use xlink:href="#STIXGeneral-Regular-30" x="49.999985"/>
      </g>
     </g>
    </g>
    <g id="xtick_4">
     <g id="line2d_7">
      <path d="M 296.0804 238.146825 
L 296.0804 22.115625 
" clip-path="url(#pae236dd3e0)" style="fill: none; stroke-dasharray: 0.8,1.32; stroke-dashoffset: 0; stroke: #b0b0b0; stroke-width: 0.8"/>
     </g>
     <g id="line2d_8">
      <g>
       <use xlink:href="#medd646984a" x="296.0804" y="238.146825" style="stroke: #000000; stroke-width: 0.8"/>
      </g>
     </g>
     <g id="text_4">
      <!-- 15 -->
      <g transform="translate(291.0804 251.976512)scale(0.1 -0.1)">
       <use xlink:href="#STIXGeneral-Regular-31"/>
       <use xlink:href="#STIXGeneral-Regular-35" x="49.999985"/>
      </g>
     </g>
    </g>
    <g id="xtick_5">
     <g id="line2d_9">
      <path d="M 376.2774 238.146825 
L 376.2774 22.115625 
" clip-path="url(#pae236dd3e0)" style="fill: none; stroke-dasharray: 0.8,1.32; stroke-dashoffset: 0; stroke: #b0b0b0; stroke-width: 0.8"/>
     </g>
     <g id="line2d_10">
      <g>
       <use xlink:href="#medd646984a" x="376.2774" y="238.146825" style="stroke: #000000; stroke-width: 0.8"/>
      </g>
     </g>
     <g id="text_5">
      <!-- 20 -->
      <g transform="translate(371.2774 251.976512)scale(0.1 -0.1)">
       <defs>
        <path id="STIXGeneral-Regular-32" d="M 3034 877 
L 2688 0 
L 186 0 
L 186 77 
L 1325 1286 
Q 1773 1754 1965 2144 
Q 2157 2534 2157 2950 
Q 2157 3379 1920 3616 
Q 1683 3853 1267 3853 
Q 922 3853 720 3673 
Q 518 3494 326 3021 
L 192 3053 
Q 301 3648 630 3987 
Q 960 4326 1523 4326 
Q 2054 4326 2380 4006 
Q 2707 3686 2707 3200 
Q 2707 2477 1888 1613 
L 832 486 
L 2330 486 
Q 2541 486 2665 569 
Q 2790 653 2944 915 
L 3034 877 
z
" transform="scale(0.015625)"/>
       </defs>
       <use xlink:href="#STIXGeneral-Regular-32"/>
       <use xlink:href="#STIXGeneral-Regular-30" x="49.999985"/>
      </g>
     </g>
    </g>
    <g id="xtick_6">
     <g id="line2d_11">
      <path d="M 456.4744 238.146825 
L 456.4744 22.115625 
" clip-path="url(#pae236dd3e0)" style="fill: none; stroke-dasharray: 0.8,1.32; stroke-dashoffset: 0; stroke: #b0b0b0; stroke-width: 0.8"/>
     </g>
     <g id="line2d_12">
      <g>
       <use xlink:href="#medd646984a" x="456.4744" y="238.146825" style="stroke: #000000; stroke-width: 0.8"/>
      </g>
     </g>
     <g id="text_6">
      <!-- 25 -->
      <g transform="translate(451.4744 251.976512)scale(0.1 -0.1)">
       <use xlink:href="#STIXGeneral-Regular-32"/>
       <use xlink:href="#STIXGeneral-Regular-35" x="49.999985"/>
      </g>
     </g>
    </g>
    <g id="text_7">
     <!-- $x/D$ [-] -->
     <g transform="translate(265.291 264.976512)scale(0.1 -0.1)">
      <defs>
       <path id="DejaVuSans-Oblique-78" d="M 3841 3500 
L 2234 1784 
L 3219 0 
L 2559 0 
L 1819 1388 
L 531 0 
L -166 0 
L 1556 1844 
L 641 3500 
L 1300 3500 
L 1972 2234 
L 3144 3500 
L 3841 3500 
z
" transform="scale(0.015625)"/>
       <path id="DejaVuSans-2f" d="M 1625 4666 
L 2156 4666 
L 531 -594 
L 0 -594 
L 1625 4666 
z
" transform="scale(0.015625)"/>
       <path id="DejaVuSans-Oblique-44" d="M 1081 4666 
L 2438 4666 
Q 3519 4666 4070 4208 
Q 4622 3750 4622 2847 
Q 4622 2250 4412 1698 
Q 4203 1147 3834 769 
Q 3463 381 2891 190 
Q 2319 0 1538 0 
L 172 0 
L 1081 4666 
z
M 1613 4147 
L 909 519 
L 1734 519 
Q 2794 519 3375 1128 
Q 3956 1738 3956 2847 
Q 3956 3519 3581 3833 
Q 3206 4147 2406 4147 
L 1613 4147 
z
" transform="scale(0.015625)"/>
       <path id="STIXGeneral-Regular-20" transform="scale(0.015625)"/>
       <path id="STIXGeneral-Regular-5b" d="M 1914 -998 
L 563 -998 
L 563 4237 
L 1914 4237 
L 1914 4077 
L 1382 4077 
Q 1216 4077 1133 4006 
Q 1050 3936 1050 3770 
L 1050 -493 
Q 1050 -838 1382 -838 
L 1914 -838 
L 1914 -998 
z
" transform="scale(0.015625)"/>
       <path id="STIXGeneral-Regular-2d" d="M 1824 1242 
L 250 1242 
L 250 1645 
L 1824 1645 
L 1824 1242 
z
" transform="scale(0.015625)"/>
       <path id="STIXGeneral-Regular-5d" d="M 1568 -998 
L 218 -998 
L 218 -838 
L 781 -838 
Q 947 -838 1014 -768 
Q 1082 -698 1082 -544 
L 1082 3731 
Q 1082 4077 755 4077 
L 218 4077 
L 218 4237 
L 1568 4237 
L 1568 -998 
z
" transform="scale(0.015625)"/>
      </defs>
      <use xlink:href="#DejaVuSans-Oblique-78" transform="translate(0 0.09375)"/>
      <use xlink:href="#DejaVuSans-2f" transform="translate(59.179688 0.09375)"/>
      <use xlink:href="#DejaVuSans-Oblique-44" transform="translate(92.871094 0.09375)"/>
      <use xlink:href="#STIXGeneral-Regular-20" transform="translate(169.873047 0.09375)"/>
      <use xlink:href="#STIXGeneral-Regular-5b" transform="translate(194.873032 0.09375)"/>
      <use xlink:href="#STIXGeneral-Regular-2d" transform="translate(228.173019 0.09375)"/>
      <use xlink:href="#STIXGeneral-Regular-5d" transform="translate(261.473007 0.09375)"/>
     </g>
    </g>
   </g>
   <g id="matplotlib.axis_2">
    <g id="ytick_1">
     <g id="line2d_13">
      <path d="M 39.45 238.146825 
L 520.632 238.146825 
" clip-path="url(#pae236dd3e0)" style="fill: none; stroke-dasharray: 0.8,1.32; stroke-dashoffset: 0; stroke: #b0b0b0; stroke-width: 0.8"/>
     </g>
     <g id="line2d_14">
      <defs>
       <path id="m9a80bf73b0" d="M 0 0 
L -3.5 0 
" style="stroke: #000000; stroke-width: 0.8"/>
      </defs>
      <g>
       <use xlink:href="#m9a80bf73b0" x="39.45" y="238.146825" style="stroke: #000000; stroke-width: 0.8"/>
      </g>
     </g>
     <g id="text_8">
      <!-- −3 -->
      <g transform="translate(20.6 241.561669)scale(0.1 -0.1)">
       <defs>
        <path id="STIXGeneral-Regular-2212" d="M 3974 1408 
L 410 1408 
L 410 1830 
L 3974 1830 
L 3974 1408 
z
" transform="scale(0.015625)"/>
        <path id="STIXGeneral-Regular-33" d="M 390 3264 
L 288 3290 
Q 435 3770 748 4048 
Q 1062 4326 1542 4326 
Q 1990 4326 2265 4083 
Q 2541 3840 2541 3450 
Q 2541 2925 1946 2566 
Q 2298 2413 2477 2227 
Q 2758 1914 2758 1402 
Q 2758 890 2464 506 
Q 2246 211 1840 60 
Q 1434 -90 979 -90 
Q 262 -90 262 275 
Q 262 378 339 442 
Q 416 506 525 506 
Q 685 506 915 339 
Q 1197 141 1466 141 
Q 1818 141 2058 425 
Q 2298 710 2298 1120 
Q 2298 1856 1632 2048 
Q 1434 2112 979 2112 
L 979 2202 
Q 1338 2323 1517 2432 
Q 2035 2726 2035 3290 
Q 2035 3610 1852 3776 
Q 1670 3942 1344 3942 
Q 768 3942 390 3264 
z
" transform="scale(0.015625)"/>
       </defs>
       <use xlink:href="#STIXGeneral-Regular-2212"/>
       <use xlink:href="#STIXGeneral-Regular-33" x="68.499985"/>
      </g>
     </g>
    </g>
    <g id="ytick_2">
     <g id="line2d_15">
      <path d="M 39.45 202.141625 
L 520.632 202.141625 
" clip-path="url(#pae236dd3e0)" style="fill: none; stroke-dasharray: 0.8,1.32; stroke-dashoffset: 0; stroke: #b0b0b0; stroke-width: 0.8"/>
     </g>
     <g id="line2d_16">
      <g>
       <use xlink:href="#m9a80bf73b0" x="39.45" y="202.141625" style="stroke: #000000; stroke-width: 0.8"/>
      </g>
     </g>
     <g id="text_9">
      <!-- −2 -->
      <g transform="translate(20.6 205.556469)scale(0.1 -0.1)">
       <use xlink:href="#STIXGeneral-Regular-2212"/>
       <use xlink:href="#STIXGeneral-Regular-32" x="68.499985"/>
      </g>
     </g>
    </g>
    <g id="ytick_3">
     <g id="line2d_17">
      <path d="M 39.45 166.136425 
L 520.632 166.136425 
" clip-path="url(#pae236dd3e0)" style="fill: none; stroke-dasharray: 0.8,1.32; stroke-dashoffset: 0; stroke: #b0b0b0; stroke-width: 0.8"/>
     </g>
     <g id="line2d_18">
      <g>
       <use xlink:href="#m9a80bf73b0" x="39.45" y="166.136425" style="stroke: #000000; stroke-width: 0.8"/>
      </g>
     </g>
     <g id="text_10">
      <!-- −1 -->
      <g transform="translate(20.6 169.551269)scale(0.1 -0.1)">
       <use xlink:href="#STIXGeneral-Regular-2212"/>
       <use xlink:href="#STIXGeneral-Regular-31" x="68.499985"/>
      </g>
     </g>
    </g>
    <g id="ytick_4">
     <g id="line2d_19">
      <path d="M 39.45 130.131225 
L 520.632 130.131225 
" clip-path="url(#pae236dd3e0)" style="fill: none; stroke-dasharray: 0.8,1.32; stroke-dashoffset: 0; stroke: #b0b0b0; stroke-width: 0.8"/>
     </g>
     <g id="line2d_20">
      <g>
       <use xlink:href="#m9a80bf73b0" x="39.45" y="130.131225" style="stroke: #000000; stroke-width: 0.8"/>
      </g>
     </g>
     <g id="text_11">
      <!-- 0 -->
      <g transform="translate(27.45 133.546069)scale(0.1 -0.1)">
       <use xlink:href="#STIXGeneral-Regular-30"/>
      </g>
     </g>
    </g>
    <g id="ytick_5">
     <g id="line2d_21">
      <path d="M 39.45 94.126025 
L 520.632 94.126025 
" clip-path="url(#pae236dd3e0)" style="fill: none; stroke-dasharray: 0.8,1.32; stroke-dashoffset: 0; stroke: #b0b0b0; stroke-width: 0.8"/>
     </g>
     <g id="line2d_22">
      <g>
       <use xlink:href="#m9a80bf73b0" x="39.45" y="94.126025" style="stroke: #000000; stroke-width: 0.8"/>
      </g>
     </g>
     <g id="text_12">
      <!-- 1 -->
      <g transform="translate(27.45 97.540869)scale(0.1 -0.1)">
       <use xlink:href="#STIXGeneral-Regular-31"/>
      </g>
     </g>
    </g>
    <g id="ytick_6">
     <g id="line2d_23">
      <path d="M 39.45 58.120825 
L 520.632 58.120825 
" clip-path="url(#pae236dd3e0)" style="fill: none; stroke-dasharray: 0.8,1.32; stroke-dashoffset: 0; stroke: #b0b0b0; stroke-width: 0.8"/>
     </g>
     <g id="line2d_24">
      <g>
       <use xlink:href="#m9a80bf73b0" x="39.45" y="58.120825" style="stroke: #000000; stroke-width: 0.8"/>
      </g>
     </g>
     <g id="text_13">
      <!-- 2 -->
      <g transform="translate(27.45 61.535669)scale(0.1 -0.1)">
       <use xlink:href="#STIXGeneral-Regular-32"/>
      </g>
     </g>
    </g>
    <g id="ytick_7">
     <g id="line2d_25">
      <path d="M 39.45 22.115625 
L 520.632 22.115625 
" clip-path="url(#pae236dd3e0)" style="fill: none; stroke-dasharray: 0.8,1.32; stroke-dashoffset: 0; stroke: #b0b0b0; stroke-width: 0.8"/>
     </g>
     <g id="line2d_26">
      <g>
       <use xlink:href="#m9a80bf73b0" x="39.45" y="22.115625" style="stroke: #000000; stroke-width: 0.8"/>
      </g>
     </g>
     <g id="text_14">
      <!-- 3 -->
      <g transform="translate(27.45 25.530469)scale(0.1 -0.1)">
       <use xlink:href="#STIXGeneral-Regular-33"/>
      </g>
     </g>
    </g>
    <g id="text_15">
     <!-- $y/D$ [-] -->
     <g transform="translate(14.429687 144.881225)rotate(-90)scale(0.1 -0.1)">
      <defs>
       <path id="DejaVuSans-Oblique-79" d="M 1588 -325 
Q 1188 -997 936 -1164 
Q 684 -1331 294 -1331 
L -159 -1331 
L -63 -850 
L 269 -850 
Q 509 -850 678 -719 
Q 847 -588 1056 -206 
L 1234 128 
L 459 3500 
L 1069 3500 
L 1650 819 
L 3256 3500 
L 3859 3500 
L 1588 -325 
z
" transform="scale(0.015625)"/>
      </defs>
      <use xlink:href="#DejaVuSans-Oblique-79" transform="translate(0 0.09375)"/>
      <use xlink:href="#DejaVuSans-2f" transform="translate(59.179688 0.09375)"/>
      <use xlink:href="#DejaVuSans-Oblique-44" transform="translate(92.871094 0.09375)"/>
      <use xlink:href="#STIXGeneral-Regular-20" transform="translate(169.873047 0.09375)"/>
      <use xlink:href="#STIXGeneral-Regular-5b" transform="translate(194.873032 0.09375)"/>
      <use xlink:href="#STIXGeneral-Regular-2d" transform="translate(228.173019 0.09375)"/>
      <use xlink:href="#STIXGeneral-Regular-5d" transform="translate(261.473007 0.09375)"/>
     </g>
    </g>
   </g>
   <g id="line2d_27">
    <path d="M 39.45 130.131225 
L 520.632 130.131225 
" clip-path="url(#pae236dd3e0)" style="fill: none; stroke-dasharray: 2,3.3; stroke-dashoffset: 0; stroke: #000000; stroke-width: 2"/>
   </g>
   <g id="line2d_28">
    <path d="M 103.6076 122.988934 
L 107.819968 122.242167 
L 112.032335 121.550123 
L 116.244703 120.912575 
L 120.457071 120.326917 
L 124.669438 119.791409 
L 128.881806 119.30575 
L 133.094174 118.864832 
L 137.306541 118.465514 
L 141.518909 118.104456 
L 145.731277 117.778178 
L 149.943644 117.483141 
L 154.156012 117.21586 
L 158.36838 116.972997 
L 162.580747 116.751418 
L 166.793115 116.548367 
L 171.005483 116.361752 
L 175.217851 116.188347 
L 179.430218 116.02608 
L 183.642586 115.873118 
L 187.854954 115.727853 
L 192.067321 115.588888 
L 196.279689 115.455022 
L 200.492057 115.325219 
L 204.704424 115.198595 
L 208.916792 115.074485 
L 213.12916 114.952382 
L 217.341527 114.831519 
L 221.553895 114.711468 
L 225.766263 114.59188 
L 229.97863 114.472474 
L 234.190998 114.353026 
L 238.403366 114.233357 
L 242.615733 114.113334 
L 246.828101 113.992847 
L 251.040469 113.871888 
L 255.252836 113.750437 
L 259.465204 113.628348 
L 263.677572 113.505604 
L 267.889939 113.382194 
L 272.102307 113.258796 
L 276.314675 113.13495 
L 280.527042 113.010605 
L 284.73941 112.88578 
L 288.951778 112.760491 
L 293.164145 112.634827 
L 297.376513 112.50882 
L 301.588881 112.382408 
L 305.801248 112.255626 
L 310.013616 112.128504 
L 314.225984 112.001059 
L 318.438352 111.873319 
L 322.650719 111.745295 
L 326.863087 111.617014 
L 331.075455 111.488483 
L 335.287822 111.359776 
L 339.50019 111.230886 
L 343.712558 111.101783 
L 347.924925 110.972463 
L 352.137293 110.842941 
L 356.349661 110.713204 
L 360.562028 110.583256 
L 364.774396 110.453074 
L 368.986764 110.32266 
L 373.199131 110.191966 
L 377.411499 110.063744 
L 381.623867 109.934351 
L 385.836234 109.803904 
L 390.048602 109.673755 
L 394.26097 109.543275 
L 398.473337 109.413108 
L 402.685705 109.282955 
L 406.898073 109.152086 
L 411.11044 109.021507 
L 415.322808 108.892216 
L 419.535176 108.762591 
L 423.747543 108.633528 
L 427.959911 108.504282 
L 432.172279 108.373925 
L 436.384646 108.245897 
L 440.597014 108.115329 
L 444.809382 107.986036 
L 449.021749 107.857655 
L 453.234117 107.726852 
L 457.446485 107.596769 
L 461.658853 107.469086 
L 465.87122 107.339118 
L 470.083588 107.206837 
L 474.295956 107.07905 
L 478.508323 106.950939 
L 482.720691 106.820669 
L 486.933059 106.688217 
L 491.145426 106.559531 
L 495.357794 106.432206 
L 499.570162 106.302865 
L 503.782529 106.171487 
L 507.994897 106.038051 
L 512.207265 105.911526 
L 516.419632 105.784238 
L 520.632 105.655067 
" clip-path="url(#pae236dd3e0)" style="fill: none; stroke: #1f77b4; stroke-width: 2; stroke-linecap: square"/>
   </g>
   <g id="line2d_29">
    <path d="M 103.6076 134.340449 
L 107.819968 134.112499 
L 112.032335 133.782981 
L 116.244703 133.406417 
L 120.457071 133.01604 
L 124.669438 132.631083 
L 128.881806 132.262455 
L 133.094174 131.914341 
L 137.306541 131.588178 
L 141.518909 131.283449 
L 145.731277 130.998702 
L 149.943644 130.732095 
L 154.156012 130.481843 
L 158.36838 130.246211 
L 162.580747 130.023686 
L 166.793115 129.813099 
L 171.005483 129.613821 
L 175.217851 129.424175 
L 179.430218 129.243353 
L 183.642586 129.070469 
L 187.854954 128.904836 
L 192.067321 128.745786 
L 196.279689 128.592509 
L 200.492057 128.44446 
L 204.704424 128.301166 
L 208.916792 128.162133 
L 213.12916 128.027186 
L 217.341527 127.895601 
L 221.553895 127.767047 
L 225.766263 127.641234 
L 229.97863 127.517906 
L 234.190998 127.396833 
L 238.403366 127.277807 
L 242.615733 127.160624 
L 246.828101 127.045109 
L 251.040469 126.931164 
L 255.252836 126.818683 
L 259.465204 126.707413 
L 263.677572 126.597239 
L 267.889939 126.488111 
L 272.102307 126.379827 
L 276.314675 126.27237 
L 280.527042 126.165677 
L 284.73941 126.059695 
L 288.951778 125.954384 
L 293.164145 125.849762 
L 297.376513 125.745816 
L 301.588881 125.64249 
L 305.801248 125.539756 
L 310.013616 125.437634 
L 314.225984 125.336055 
L 318.438352 125.235068 
L 322.650719 125.134667 
L 326.863087 125.03485 
L 331.075455 124.935613 
L 335.287822 124.837001 
L 339.50019 124.739014 
L 343.712558 124.641634 
L 347.924925 124.544898 
L 352.137293 124.448857 
L 356.349661 124.353584 
L 360.562028 124.259178 
L 364.774396 124.165758 
L 368.986764 124.073379 
L 373.199131 123.981158 
L 377.411499 123.893104 
L 381.623867 123.800744 
L 385.836234 123.709198 
L 390.048602 123.618812 
L 394.26097 123.528967 
L 398.473337 123.440367 
L 402.685705 123.352721 
L 406.898073 123.265345 
L 411.11044 123.179179 
L 415.322808 123.094024 
L 419.535176 123.009208 
L 423.747543 122.925811 
L 427.959911 122.843125 
L 432.172279 122.76026 
L 436.384646 122.680469 
L 440.597014 122.599139 
L 444.809382 122.519853 
L 449.021749 122.442267 
L 453.234117 122.36324 
L 457.446485 122.285689 
L 461.658853 122.211176 
L 465.87122 122.135337 
L 470.083588 122.058143 
L 474.295956 121.985822 
L 478.508323 121.913962 
L 482.720691 121.840879 
L 486.933059 121.766548 
L 491.145426 121.696299 
L 495.357794 121.62793 
L 499.570162 121.558458 
L 503.782529 121.487858 
L 507.994897 121.416106 
L 512.207265 121.350923 
L 516.419632 121.285708 
L 520.632 121.219494 
" clip-path="url(#pae236dd3e0)" style="fill: none; stroke: #ff7f0e; stroke-width: 2; stroke-linecap: square"/>
   </g>
   <g id="line2d_30">
    <path d="M 103.6076 113.727643 
L 107.819968 112.96376 
L 112.032335 112.222829 
L 116.244703 111.50337 
L 120.457071 110.801836 
L 124.669438 110.117093 
L 128.881806 109.449849 
L 133.094174 108.798353 
L 137.306541 108.16239 
L 141.518909 107.541899 
L 145.731277 106.936949 
L 149.943644 106.347505 
L 154.156012 105.773481 
L 158.36838 105.214705 
L 162.580747 104.670846 
L 166.793115 104.141649 
L 171.005483 103.62743 
L 175.217851 103.126313 
L 179.430218 102.637617 
L 183.642586 102.160639 
L 187.854954 101.694631 
L 192.067321 101.238839 
L 196.279689 100.792606 
L 200.492057 100.355307 
L 204.704424 99.926195 
L 208.916792 99.504978 
L 213.12916 99.091439 
L 217.341527 98.684485 
L 221.553895 98.283752 
L 225.766263 97.888846 
L 229.97863 97.49943 
L 234.190998 97.11523 
L 238.403366 96.735924 
L 242.615733 96.361383 
L 246.828101 95.991221 
L 251.040469 95.625588 
L 255.252836 95.264374 
L 259.465204 94.907115 
L 263.677572 94.553656 
L 267.889939 94.203919 
L 272.102307 93.857917 
L 276.314675 93.515468 
L 280.527042 93.176517 
L 284.73941 92.840921 
L 288.951778 92.508592 
L 293.164145 92.179619 
L 297.376513 91.853993 
L 301.588881 91.531422 
L 305.801248 91.211875 
L 310.013616 90.895327 
L 314.225984 90.581559 
L 318.438352 90.27071 
L 322.650719 89.962662 
L 326.863087 89.657291 
L 331.075455 89.354666 
L 335.287822 89.054766 
L 339.50019 88.757532 
L 343.712558 88.46279 
L 347.924925 88.170575 
L 352.137293 87.880753 
L 356.349661 87.593283 
L 360.562028 87.308196 
L 364.774396 87.025402 
L 368.986764 86.744713 
L 373.199131 86.465862 
L 377.411499 86.194448 
L 381.623867 85.922676 
L 385.836234 85.650943 
L 390.048602 85.382054 
L 394.26097 85.11435 
L 398.473337 84.84941 
L 402.685705 84.586433 
L 406.898073 84.323909 
L 411.11044 84.063837 
L 415.322808 83.806027 
L 419.535176 83.548797 
L 423.747543 83.29436 
L 427.959911 83.041184 
L 432.172279 82.787419 
L 436.384646 82.539761 
L 440.597014 82.288671 
L 444.809382 82.041514 
L 449.021749 81.797516 
L 453.234117 81.550306 
L 457.446485 81.305855 
L 461.658853 81.067253 
L 465.87122 80.825668 
L 470.083588 80.581097 
L 474.295956 80.346066 
L 478.508323 80.11162 
L 482.720691 79.874424 
L 486.933059 79.634473 
L 491.145426 79.402372 
L 495.357794 79.173741 
L 499.570162 78.94259 
L 503.782529 78.708917 
L 507.994897 78.472723 
L 512.207265 78.249472 
L 516.419632 78.025829 
L 520.632 77.79989 
" clip-path="url(#pae236dd3e0)" style="fill: none; stroke-dasharray: 7.4,3.2; stroke-dashoffset: 0; stroke: #1f77b4; stroke-width: 2"/>
   </g>
   <g id="line2d_31">
    <path d="M 103.6076 132.250225 
L 107.819968 131.520573 
L 112.032335 130.877417 
L 116.244703 130.32178 
L 120.457071 129.851999 
L 124.669438 129.465725 
L 128.881806 129.16165 
L 133.094174 128.931311 
L 137.306541 128.768638 
L 141.518909 128.667014 
L 145.731277 128.619407 
L 149.943644 128.618777 
L 154.156012 128.658238 
L 158.36838 128.731289 
L 162.580747 128.83199 
L 166.793115 128.955085 
L 171.005483 129.096074 
L 175.217851 129.25038 
L 179.430218 129.414543 
L 183.642586 129.585598 
L 187.854954 129.761074 
L 192.067321 129.938938 
L 196.279689 130.117438 
L 200.492057 130.295131 
L 204.704424 130.470995 
L 208.916792 130.643992 
L 213.12916 130.813324 
L 217.341527 130.978553 
L 221.553895 131.139183 
L 225.766263 131.294913 
L 229.97863 131.445518 
L 234.190998 131.590822 
L 238.403366 131.73079 
L 242.615733 131.865285 
L 246.828101 131.994473 
L 251.040469 132.118188 
L 255.252836 132.2365 
L 259.465204 132.34958 
L 263.677572 132.457552 
L 267.889939 132.560468 
L 272.102307 132.659675 
L 276.314675 132.754433 
L 280.527042 132.844693 
L 284.73941 132.930639 
L 288.951778 133.012389 
L 293.164145 133.090034 
L 297.376513 133.163647 
L 301.588881 133.233395 
L 305.801248 133.299377 
L 310.013616 133.361681 
L 314.225984 133.420559 
L 318.438352 133.475928 
L 322.650719 133.527928 
L 326.863087 133.576737 
L 331.075455 133.6223 
L 335.287822 133.664785 
L 339.50019 133.70424 
L 343.712558 133.740776 
L 347.924925 133.774351 
L 352.137293 133.80513 
L 356.349661 133.833125 
L 360.562028 133.858317 
L 364.774396 133.880746 
L 368.986764 133.900608 
L 373.199131 133.918069 
L 377.411499 133.933039 
L 381.623867 133.946025 
L 385.836234 133.956865 
L 390.048602 133.965457 
L 394.26097 133.972199 
L 398.473337 133.976807 
L 402.685705 133.979476 
L 406.898073 133.980263 
L 411.11044 133.979177 
L 415.322808 133.978405 
L 419.535176 133.976385 
L 423.747543 133.972695 
L 427.959911 133.967381 
L 432.172279 133.96043 
L 436.384646 133.952033 
L 440.597014 133.941986 
L 444.809382 133.930557 
L 449.021749 133.917794 
L 453.234117 133.903398 
L 457.446485 133.887682 
L 461.658853 133.870919 
L 465.87122 133.852567 
L 470.083588 133.832576 
L 474.295956 133.812035 
L 478.508323 133.790257 
L 482.720691 133.766915 
L 486.933059 133.741961 
L 491.145426 133.71669 
L 495.357794 133.690671 
L 499.570162 133.66314 
L 503.782529 133.634057 
L 507.994897 133.603378 
L 512.207265 133.57358 
L 516.419632 133.542648 
L 520.632 133.510244 
" clip-path="url(#pae236dd3e0)" style="fill: none; stroke-dasharray: 7.4,3.2; stroke-dashoffset: 0; stroke: #1f77b4; stroke-width: 2"/>
   </g>
   <g id="line2d_32">
    <path d="M 103.6076 106.957567 
L 107.819968 107.320701 
L 112.032335 107.303756 
L 116.244703 107.009934 
L 120.457071 106.509792 
L 124.669438 105.852187 
L 128.881806 105.068777 
L 133.094174 104.186898 
L 137.306541 103.224474 
L 141.518909 102.194934 
L 145.731277 101.109338 
L 149.943644 99.976582 
L 154.156012 98.804867 
L 158.36838 97.600578 
L 162.580747 96.369527 
L 166.793115 95.117123 
L 171.005483 93.849316 
L 175.217851 92.568196 
L 179.430218 91.277762 
L 183.642586 89.980567 
L 187.854954 88.680074 
L 192.067321 87.379518 
L 196.279689 86.08047 
L 200.492057 84.78604 
L 204.704424 83.499583 
L 208.916792 82.223578 
L 213.12916 80.962364 
L 217.341527 79.716465 
L 221.553895 78.488094 
L 225.766263 77.279204 
L 229.97863 76.091453 
L 234.190998 74.926175 
L 238.403366 73.78441 
L 242.615733 72.666846 
L 246.828101 71.573903 
L 251.040469 70.506272 
L 255.252836 69.464283 
L 259.465204 68.446797 
L 263.677572 67.453483 
L 267.889939 66.484266 
L 272.102307 65.537872 
L 276.314675 64.614133 
L 280.527042 63.712443 
L 284.73941 62.832167 
L 288.951778 61.972657 
L 293.164145 61.133659 
L 297.376513 60.31456 
L 301.588881 59.514233 
L 305.801248 58.732089 
L 310.013616 57.967654 
L 314.225984 57.21979 
L 318.438352 56.488272 
L 322.650719 55.772542 
L 326.863087 55.072058 
L 331.075455 54.386301 
L 335.287822 53.715101 
L 339.50019 53.057888 
L 343.712558 52.413933 
L 347.924925 51.782806 
L 352.137293 51.164096 
L 356.349661 50.557414 
L 360.562028 49.962395 
L 364.774396 49.3787 
L 368.986764 48.806348 
L 373.199131 48.240978 
L 377.411499 47.696025 
L 381.623867 47.149822 
L 385.836234 46.612099 
L 390.048602 46.084608 
L 394.26097 45.564408 
L 398.473337 45.054615 
L 402.685705 44.553307 
L 406.898073 44.056605 
L 411.11044 43.569247 
L 415.322808 43.089817 
L 419.535176 42.614776 
L 423.747543 42.149245 
L 427.959911 41.689569 
L 432.172279 41.231228 
L 436.384646 40.789796 
L 440.597014 40.34299 
L 444.809382 39.907727 
L 449.021749 39.482207 
L 453.234117 39.051694 
L 457.446485 38.629668 
L 461.658853 38.223125 
L 465.87122 37.812006 
L 470.083588 37.396242 
L 474.295956 37.003831 
L 478.508323 36.614739 
L 482.720691 36.221453 
L 486.933059 35.823914 
L 491.145426 35.445789 
L 495.357794 35.077015 
L 499.570162 34.704453 
L 503.782529 34.328052 
L 507.994897 33.947762 
L 512.207265 33.597359 
L 516.419632 33.247744 
L 520.632 32.894713 
" clip-path="url(#pae236dd3e0)" style="fill: none; stroke-dasharray: 7.4,3.2; stroke-dashoffset: 0; stroke: #ff7f0e; stroke-width: 2"/>
   </g>
   <g id="line2d_33">
    <path d="M 103.6076 161.723331 
L 107.819968 160.904297 
L 112.032335 160.262207 
L 116.244703 159.8029 
L 120.457071 159.522289 
L 124.669438 159.409978 
L 128.881806 159.456133 
L 133.094174 159.641784 
L 137.306541 159.951881 
L 141.518909 160.371963 
L 145.731277 160.888066 
L 149.943644 161.487609 
L 154.156012 162.158819 
L 158.36838 162.891844 
L 162.580747 163.677844 
L 166.793115 164.509074 
L 171.005483 165.378327 
L 175.217851 166.280154 
L 179.430218 167.208945 
L 183.642586 168.16037 
L 187.854954 169.129598 
L 192.067321 170.112053 
L 196.279689 171.104548 
L 200.492057 172.10288 
L 204.704424 173.10275 
L 208.916792 174.100688 
L 213.12916 175.092009 
L 217.341527 176.074737 
L 221.553895 177.045999 
L 225.766263 178.003264 
L 229.97863 178.94436 
L 234.190998 179.867491 
L 238.403366 180.771204 
L 242.615733 181.654401 
L 246.828101 182.516315 
L 251.040469 183.356055 
L 255.252836 184.173082 
L 259.465204 184.968029 
L 263.677572 185.740995 
L 267.889939 186.491956 
L 272.102307 187.221783 
L 276.314675 187.930607 
L 280.527042 188.61891 
L 284.73941 189.287222 
L 288.951778 189.936111 
L 293.164145 190.565866 
L 297.376513 191.177073 
L 301.588881 191.770746 
L 305.801248 192.347423 
L 310.013616 192.907615 
L 314.225984 193.45232 
L 318.438352 193.981864 
L 322.650719 194.496793 
L 326.863087 194.997642 
L 331.075455 195.484924 
L 335.287822 195.958901 
L 339.50019 196.42014 
L 343.712558 196.869336 
L 347.924925 197.30699 
L 352.137293 197.733617 
L 356.349661 198.149755 
L 360.562028 198.55596 
L 364.774396 198.952816 
L 368.986764 199.340409 
L 373.199131 199.721337 
L 377.411499 200.090184 
L 381.623867 200.451666 
L 385.836234 200.806297 
L 390.048602 201.153017 
L 394.26097 201.493527 
L 398.473337 201.826119 
L 402.685705 202.152135 
L 406.898073 202.474084 
L 411.11044 202.789111 
L 415.322808 203.098232 
L 419.535176 203.40364 
L 423.747543 203.702377 
L 427.959911 203.99668 
L 432.172279 204.289292 
L 436.384646 204.571142 
L 440.597014 204.855287 
L 444.809382 205.131979 
L 449.021749 205.402327 
L 453.234117 205.674786 
L 457.446485 205.94171 
L 461.658853 206.199227 
L 465.87122 206.458669 
L 470.083588 206.720044 
L 474.295956 206.967813 
L 478.508323 207.213184 
L 482.720691 207.460305 
L 486.933059 207.709182 
L 491.145426 207.946808 
L 495.357794 208.178846 
L 499.570162 208.412463 
L 503.782529 208.647664 
L 507.994897 208.88445 
L 512.207265 209.104486 
L 516.419632 209.323672 
L 520.632 209.544274 
" clip-path="url(#pae236dd3e0)" style="fill: none; stroke-dasharray: 7.4,3.2; stroke-dashoffset: 0; stroke: #ff7f0e; stroke-width: 2"/>
   </g>
   <g id="line2d_34">
    <path d="M 59.49925 114.540516 
L 51.47955 145.721934 
" clip-path="url(#pae236dd3e0)" style="fill: none; stroke: #000000; stroke-width: 2; stroke-linecap: square"/>
   </g>
   <g id="patch_3">
    <path d="M 39.45 238.146825 
L 39.45 22.115625 
" style="fill: none; stroke: #000000; stroke-width: 0.8; stroke-linejoin: miter; stroke-linecap: square"/>
   </g>
   <g id="patch_4">
    <path d="M 520.632 238.146825 
L 520.632 22.115625 
" style="fill: none; stroke: #000000; stroke-width: 0.8; stroke-linejoin: miter; stroke-linecap: square"/>
   </g>
   <g id="patch_5">
    <path d="M 39.45 238.146825 
L 520.632 238.146825 
" style="fill: none; stroke: #000000; stroke-width: 0.8; stroke-linejoin: miter; stroke-linecap: square"/>
   </g>
   <g id="patch_6">
    <path d="M 39.45 22.115625 
L 520.632 22.115625 
" style="fill: none; stroke: #000000; stroke-width: 0.8; stroke-linejoin: miter; stroke-linecap: square"/>
   </g>
   <g id="text_16">
    <!-- $\gamma = 30^\circ$, $C_T = 0.8$, T.I.$= 4\%$ -->
    <g transform="translate(201.741 16.115625)scale(0.12 -0.12)">
     <defs>
      <path id="DejaVuSans-Oblique-3b3" d="M 1491 2950 
L 1838 788 
L 3456 3500 
L 4066 3500 
L 1972 0 
L 1713 -1331 
L 1138 -1331 
L 1397 0 
L 988 2613 
Q 925 3006 628 3006 
L 475 3006 
L 569 3500 
L 788 3500 
Q 1403 3500 1491 2950 
z
" transform="scale(0.015625)"/>
      <path id="DejaVuSans-3d" d="M 678 2906 
L 4684 2906 
L 4684 2381 
L 678 2381 
L 678 2906 
z
M 678 1631 
L 4684 1631 
L 4684 1100 
L 678 1100 
L 678 1631 
z
" transform="scale(0.015625)"/>
      <path id="DejaVuSans-33" d="M 2597 2516 
Q 3050 2419 3304 2112 
Q 3559 1806 3559 1356 
Q 3559 666 3084 287 
Q 2609 -91 1734 -91 
Q 1441 -91 1130 -33 
Q 819 25 488 141 
L 488 750 
Q 750 597 1062 519 
Q 1375 441 1716 441 
Q 2309 441 2620 675 
Q 2931 909 2931 1356 
Q 2931 1769 2642 2001 
Q 2353 2234 1838 2234 
L 1294 2234 
L 1294 2753 
L 1863 2753 
Q 2328 2753 2575 2939 
Q 2822 3125 2822 3475 
Q 2822 3834 2567 4026 
Q 2313 4219 1838 4219 
Q 1578 4219 1281 4162 
Q 984 4106 628 3988 
L 628 4550 
Q 988 4650 1302 4700 
Q 1616 4750 1894 4750 
Q 2613 4750 3031 4423 
Q 3450 4097 3450 3541 
Q 3450 3153 3228 2886 
Q 3006 2619 2597 2516 
z
" transform="scale(0.015625)"/>
      <path id="DejaVuSans-30" d="M 2034 4250 
Q 1547 4250 1301 3770 
Q 1056 3291 1056 2328 
Q 1056 1369 1301 889 
Q 1547 409 2034 409 
Q 2525 409 2770 889 
Q 3016 1369 3016 2328 
Q 3016 3291 2770 3770 
Q 2525 4250 2034 4250 
z
M 2034 4750 
Q 2819 4750 3233 4129 
Q 3647 3509 3647 2328 
Q 3647 1150 3233 529 
Q 2819 -91 2034 -91 
Q 1250 -91 836 529 
Q 422 1150 422 2328 
Q 422 3509 836 4129 
Q 1250 4750 2034 4750 
z
" transform="scale(0.015625)"/>
      <path id="DejaVuSans-2218" d="M 2003 2603 
Q 1753 2603 1581 2429 
Q 1409 2256 1409 2006 
Q 1409 1759 1581 1589 
Q 1753 1419 2003 1419 
Q 2253 1419 2425 1589 
Q 2597 1759 2597 2006 
Q 2597 2253 2423 2428 
Q 2250 2603 2003 2603 
z
M 2003 3006 
Q 2203 3006 2387 2929 
Q 2572 2853 2706 2709 
Q 2850 2569 2922 2390 
Q 2994 2212 2994 2006 
Q 2994 1594 2705 1308 
Q 2416 1022 1997 1022 
Q 1575 1022 1294 1303 
Q 1013 1584 1013 2006 
Q 1013 2425 1300 2715 
Q 1588 3006 2003 3006 
z
" transform="scale(0.015625)"/>
      <path id="STIXGeneral-Regular-2c" d="M 531 -902 
L 467 -781 
Q 998 -422 998 -96 
Q 998 -13 909 -13 
Q 883 -13 822 -25 
Q 762 -38 723 -38 
Q 352 -38 352 288 
Q 352 454 457 553 
Q 563 653 736 653 
Q 954 653 1101 496 
Q 1248 339 1248 96 
Q 1248 -198 1053 -473 
Q 858 -749 531 -902 
z
" transform="scale(0.015625)"/>
      <path id="DejaVuSans-Oblique-43" d="M 4447 4306 
L 4319 3641 
Q 4019 3944 3683 4091 
Q 3347 4238 2956 4238 
Q 2422 4238 2017 3981 
Q 1613 3725 1319 3200 
Q 1131 2863 1032 2486 
Q 934 2109 934 1728 
Q 934 1091 1264 756 
Q 1594 422 2222 422 
Q 2656 422 3056 561 
Q 3456 700 3834 978 
L 3688 231 
Q 3316 72 2936 -9 
Q 2556 -91 2175 -91 
Q 1278 -91 773 396 
Q 269 884 269 1753 
Q 269 2309 461 2846 
Q 653 3384 1013 3828 
Q 1394 4300 1883 4525 
Q 2372 4750 3022 4750 
Q 3422 4750 3780 4639 
Q 4138 4528 4447 4306 
z
" transform="scale(0.015625)"/>
      <path id="DejaVuSans-Oblique-54" d="M 378 4666 
L 4325 4666 
L 4225 4134 
L 2559 4134 
L 1759 0 
L 1125 0 
L 1925 4134 
L 275 4134 
L 378 4666 
z
" transform="scale(0.015625)"/>
      <path id="DejaVuSans-2e" d="M 684 794 
L 1344 794 
L 1344 0 
L 684 0 
L 684 794 
z
" transform="scale(0.015625)"/>
      <path id="DejaVuSans-38" d="M 2034 2216 
Q 1584 2216 1326 1975 
Q 1069 1734 1069 1313 
Q 1069 891 1326 650 
Q 1584 409 2034 409 
Q 2484 409 2743 651 
Q 3003 894 3003 1313 
Q 3003 1734 2745 1975 
Q 2488 2216 2034 2216 
z
M 1403 2484 
Q 997 2584 770 2862 
Q 544 3141 544 3541 
Q 544 4100 942 4425 
Q 1341 4750 2034 4750 
Q 2731 4750 3128 4425 
Q 3525 4100 3525 3541 
Q 3525 3141 3298 2862 
Q 3072 2584 2669 2484 
Q 3125 2378 3379 2068 
Q 3634 1759 3634 1313 
Q 3634 634 3220 271 
Q 2806 -91 2034 -91 
Q 1263 -91 848 271 
Q 434 634 434 1313 
Q 434 1759 690 2068 
Q 947 2378 1403 2484 
z
M 1172 3481 
Q 1172 3119 1398 2916 
Q 1625 2713 2034 2713 
Q 2441 2713 2670 2916 
Q 2900 3119 2900 3481 
Q 2900 3844 2670 4047 
Q 2441 4250 2034 4250 
Q 1625 4250 1398 4047 
Q 1172 3844 1172 3481 
z
" transform="scale(0.015625)"/>
      <path id="STIXGeneral-Regular-54" d="M 3795 3149 
L 3642 3149 
Q 3539 3674 3353 3821 
Q 3168 3968 2656 3968 
L 2278 3968 
L 2278 710 
Q 2278 346 2387 243 
Q 2496 141 2893 122 
L 2893 0 
L 1024 0 
L 1024 122 
Q 1427 147 1526 256 
Q 1626 365 1626 787 
L 1626 3968 
L 1242 3968 
Q 723 3968 540 3817 
Q 358 3667 262 3149 
L 109 3149 
L 154 4237 
L 3750 4237 
L 3795 3149 
z
" transform="scale(0.015625)"/>
      <path id="STIXGeneral-Regular-2e" d="M 1158 275 
Q 1158 134 1052 32 
Q 947 -70 800 -70 
Q 653 -70 550 32 
Q 448 134 448 281 
Q 448 429 553 534 
Q 659 640 806 640 
Q 947 640 1052 531 
Q 1158 422 1158 275 
z
" transform="scale(0.015625)"/>
      <path id="STIXGeneral-Regular-49" d="M 2016 0 
L 115 0 
L 115 122 
Q 518 134 627 240 
Q 736 346 736 717 
L 736 3526 
Q 736 3898 633 3994 
Q 531 4090 115 4115 
L 115 4237 
L 2016 4237 
L 2016 4115 
Q 1613 4096 1501 3993 
Q 1389 3891 1389 3526 
L 1389 717 
Q 1389 358 1504 246 
Q 1619 134 2016 122 
L 2016 0 
z
" transform="scale(0.015625)"/>
      <path id="DejaVuSans-34" d="M 2419 4116 
L 825 1625 
L 2419 1625 
L 2419 4116 
z
M 2253 4666 
L 3047 4666 
L 3047 1625 
L 3713 1625 
L 3713 1100 
L 3047 1100 
L 3047 0 
L 2419 0 
L 2419 1100 
L 313 1100 
L 313 1709 
L 2253 4666 
z
" transform="scale(0.015625)"/>
      <path id="DejaVuSans-25" d="M 4653 2053 
Q 4381 2053 4226 1822 
Q 4072 1591 4072 1178 
Q 4072 772 4226 539 
Q 4381 306 4653 306 
Q 4919 306 5073 539 
Q 5228 772 5228 1178 
Q 5228 1588 5073 1820 
Q 4919 2053 4653 2053 
z
M 4653 2450 
Q 5147 2450 5437 2106 
Q 5728 1763 5728 1178 
Q 5728 594 5436 251 
Q 5144 -91 4653 -91 
Q 4153 -91 3862 251 
Q 3572 594 3572 1178 
Q 3572 1766 3864 2108 
Q 4156 2450 4653 2450 
z
M 1428 4353 
Q 1159 4353 1004 4120 
Q 850 3888 850 3481 
Q 850 3069 1003 2837 
Q 1156 2606 1428 2606 
Q 1700 2606 1854 2837 
Q 2009 3069 2009 3481 
Q 2009 3884 1853 4118 
Q 1697 4353 1428 4353 
z
M 4250 4750 
L 4750 4750 
L 1831 -91 
L 1331 -91 
L 4250 4750 
z
M 1428 4750 
Q 1922 4750 2215 4408 
Q 2509 4066 2509 3481 
Q 2509 2891 2217 2550 
Q 1925 2209 1428 2209 
Q 931 2209 642 2551 
Q 353 2894 353 3481 
Q 353 4063 643 4406 
Q 934 4750 1428 4750 
z
" transform="scale(0.015625)"/>
     </defs>
     <use xlink:href="#DejaVuSans-Oblique-3b3" transform="translate(0 0.78125)"/>
     <use xlink:href="#DejaVuSans-3d" transform="translate(78.662109 0.78125)"/>
     <use xlink:href="#DejaVuSans-33" transform="translate(181.933594 0.78125)"/>
     <use xlink:href="#DejaVuSans-30" transform="translate(245.556641 0.78125)"/>
     <use xlink:href="#DejaVuSans-2218" transform="translate(323.774414 39.0625)scale(0.7)"/>
     <use xlink:href="#STIXGeneral-Regular-2c" transform="translate(383.964844 0.78125)"/>
     <use xlink:href="#STIXGeneral-Regular-20" transform="translate(408.964828 0.78125)"/>
     <use xlink:href="#DejaVuSans-Oblique-43" transform="translate(433.964813 0.78125)"/>
     <use xlink:href="#DejaVuSans-Oblique-54" transform="translate(503.789032 -15.625)scale(0.7)"/>
     <use xlink:href="#DejaVuSans-3d" transform="translate(568.764618 0.78125)"/>
     <use xlink:href="#DejaVuSans-30" transform="translate(672.036102 0.78125)"/>
     <use xlink:href="#DejaVuSans-2e" transform="translate(735.659149 0.78125)"/>
     <use xlink:href="#DejaVuSans-38" transform="translate(764.821259 0.78125)"/>
     <use xlink:href="#STIXGeneral-Regular-2c" transform="translate(828.444305 0.78125)"/>
     <use xlink:href="#STIXGeneral-Regular-20" transform="translate(853.44429 0.78125)"/>
     <use xlink:href="#STIXGeneral-Regular-54" transform="translate(878.444275 0.78125)"/>
     <use xlink:href="#STIXGeneral-Regular-2e" transform="translate(939.544266 0.78125)"/>
     <use xlink:href="#STIXGeneral-Regular-49" transform="translate(964.54425 0.78125)"/>
     <use xlink:href="#STIXGeneral-Regular-2e" transform="translate(997.844238 0.78125)"/>
     <use xlink:href="#DejaVuSans-3d" transform="translate(1042.326645 0.78125)"/>
     <use xlink:href="#DejaVuSans-34" transform="translate(1145.598129 0.78125)"/>
     <use xlink:href="#DejaVuSans-25" transform="translate(1209.221176 0.78125)"/>
    </g>
   </g>
   <g id="legend_1">
    <g id="patch_7">
     <path d="M 46.45 58.45625 
L 85.85 58.45625 
Q 87.85 58.45625 87.85 56.45625 
L 87.85 29.115625 
Q 87.85 27.115625 85.85 27.115625 
L 46.45 27.115625 
Q 44.45 27.115625 44.45 29.115625 
L 44.45 56.45625 
Q 44.45 58.45625 46.45 58.45625 
z
" style="fill: #ffffff; opacity: 0.8; stroke: #cccccc; stroke-linejoin: miter"/>
    </g>
    <g id="line2d_35">
     <path d="M 48.45 34.615625 
L 58.45 34.615625 
L 68.45 34.615625 
" style="fill: none; stroke: #1f77b4; stroke-width: 2; stroke-linecap: square"/>
    </g>
    <g id="text_17">
     <!-- $U$ -->
     <g transform="translate(76.45 38.115625)scale(0.1 -0.1)">
      <defs>
       <path id="DejaVuSans-Oblique-55" d="M 991 4666 
L 1625 4666 
L 1075 1831 
Q 1041 1641 1027 1517 
Q 1013 1394 1013 1300 
Q 1013 869 1253 645 
Q 1494 422 1959 422 
Q 2563 422 2898 753 
Q 3234 1084 3378 1831 
L 3928 4666 
L 4563 4666 
L 4000 1753 
Q 3816 809 3300 359 
Q 2784 -91 1888 -91 
Q 1188 -91 780 261 
Q 372 613 372 1216 
Q 372 1325 387 1461 
Q 403 1597 434 1753 
L 991 4666 
z
" transform="scale(0.015625)"/>
      </defs>
      <use xlink:href="#DejaVuSans-Oblique-55" transform="translate(0 0.09375)"/>
     </g>
    </g>
    <g id="line2d_36">
     <path d="M 48.45 48.785937 
L 58.45 48.785937 
L 68.45 48.785937 
" style="fill: none; stroke: #ff7f0e; stroke-width: 2; stroke-linecap: square"/>
    </g>
    <g id="text_18">
     <!-- $V$ -->
     <g transform="translate(76.45 52.285937)scale(0.1 -0.1)">
      <defs>
       <path id="DejaVuSans-Oblique-56" d="M 1319 0 
L 500 4666 
L 1119 4666 
L 1797 653 
L 4063 4666 
L 4750 4666 
L 2053 0 
L 1319 0 
z
" transform="scale(0.015625)"/>
      </defs>
      <use xlink:href="#DejaVuSans-Oblique-56" transform="translate(0 0.09375)"/>
     </g>
    </g>
   </g>
   <g id="legend_2">
    <g id="patch_8">
     <path d="M 46.45 233.146825 
L 120.110938 233.146825 
Q 122.110938 233.146825 122.110938 231.146825 
L 122.110938 189.196825 
Q 122.110938 187.196825 120.110938 187.196825 
L 46.45 187.196825 
Q 44.45 187.196825 44.45 189.196825 
L 44.45 231.146825 
Q 44.45 233.146825 46.45 233.146825 
z
" style="fill: #ffffff; opacity: 0.8; stroke: #cccccc; stroke-linejoin: miter"/>
    </g>
    <g id="line2d_37">
     <path d="M 48.45 194.696825 
L 58.45 194.696825 
L 68.45 194.696825 
" style="fill: none; stroke: #000000; stroke-width: 2; stroke-linecap: square"/>
    </g>
    <g id="text_19">
     <!-- Centreline -->
     <g transform="translate(76.45 198.196825)scale(0.1 -0.1)">
      <defs>
       <path id="STIXGeneral-Regular-43" d="M 3930 838 
L 4051 723 
Q 3482 -90 2304 -90 
Q 1376 -90 794 480 
Q 179 1082 179 2080 
Q 179 3014 755 3661 
Q 1357 4326 2310 4326 
Q 2720 4326 3072 4230 
Q 3475 4115 3514 4115 
Q 3725 4115 3782 4326 
L 3910 4326 
L 3968 2874 
L 3821 2874 
Q 3718 3334 3488 3584 
Q 3034 4070 2458 4070 
Q 1747 4070 1334 3548 
Q 922 3027 922 2182 
Q 922 1152 1382 653 
Q 1811 192 2522 192 
Q 2944 192 3251 339 
Q 3558 486 3930 838 
z
" transform="scale(0.015625)"/>
       <path id="STIXGeneral-Regular-65" d="M 2611 1050 
L 2714 1005 
Q 2330 -64 1376 -64 
Q 813 -64 486 329 
Q 160 723 160 1389 
Q 160 2074 525 2509 
Q 890 2944 1485 2944 
Q 2061 2944 2374 2502 
Q 2560 2246 2592 1773 
L 621 1773 
Q 646 1370 700 1158 
Q 755 947 915 730 
Q 1184 378 1626 378 
Q 1939 378 2153 531 
Q 2368 685 2611 1050 
z
M 634 1978 
L 1939 1978 
Q 1882 2381 1750 2547 
Q 1619 2714 1312 2714 
Q 1043 2714 864 2525 
Q 685 2336 634 1978 
z
" transform="scale(0.015625)"/>
       <path id="STIXGeneral-Regular-6e" d="M 3104 0 
L 1773 0 
L 1779 96 
Q 2016 115 2096 233 
Q 2176 352 2176 672 
L 2176 1946 
Q 2176 2592 1709 2592 
Q 1549 2592 1408 2515 
Q 1267 2438 1050 2227 
L 1050 461 
Q 1050 269 1136 192 
Q 1222 115 1466 96 
L 1466 0 
L 115 0 
L 115 96 
Q 358 115 435 214 
Q 512 314 512 602 
L 512 2157 
Q 512 2394 467 2483 
Q 422 2573 288 2573 
Q 160 2573 102 2547 
L 102 2656 
Q 550 2784 979 2944 
L 1030 2925 
L 1030 2426 
L 1037 2426 
Q 1491 2944 1958 2944 
Q 2323 2944 2518 2688 
Q 2714 2432 2714 1958 
L 2714 544 
Q 2714 288 2790 205 
Q 2867 122 3104 96 
L 3104 0 
z
" transform="scale(0.015625)"/>
       <path id="STIXGeneral-Regular-74" d="M 1702 493 
L 1786 422 
Q 1478 -64 1011 -64 
Q 448 -64 448 749 
L 448 2675 
L 109 2675 
Q 83 2694 83 2720 
Q 83 2771 192 2842 
Q 435 2982 813 3526 
Q 826 3546 874 3606 
Q 922 3667 941 3706 
Q 986 3706 986 3622 
L 986 2880 
L 1632 2880 
L 1632 2675 
L 986 2675 
L 986 845 
Q 986 538 1062 403 
Q 1139 269 1318 269 
Q 1510 269 1702 493 
z
" transform="scale(0.015625)"/>
       <path id="STIXGeneral-Regular-72" d="M 1024 2931 
L 1024 2342 
Q 1267 2688 1430 2816 
Q 1594 2944 1792 2944 
Q 1958 2944 2051 2854 
Q 2144 2765 2144 2605 
Q 2144 2470 2077 2393 
Q 2010 2317 1894 2317 
Q 1773 2317 1638 2445 
Q 1536 2541 1472 2541 
Q 1338 2541 1181 2355 
Q 1024 2170 1024 2016 
L 1024 576 
Q 1024 301 1133 205 
Q 1242 109 1568 96 
L 1568 0 
L 32 0 
L 32 96 
Q 339 154 412 224 
Q 486 294 486 538 
L 486 2138 
Q 486 2349 438 2435 
Q 390 2522 269 2522 
Q 166 2522 45 2496 
L 45 2598 
Q 448 2726 992 2944 
L 1024 2931 
z
" transform="scale(0.015625)"/>
       <path id="STIXGeneral-Regular-6c" d="M 1645 0 
L 134 0 
L 134 96 
Q 435 122 531 221 
Q 627 320 627 589 
L 627 3590 
Q 627 3821 569 3910 
Q 512 4000 358 4000 
Q 224 4000 122 3987 
L 122 4090 
Q 730 4237 1133 4371 
L 1165 4346 
L 1165 557 
Q 1165 288 1254 201 
Q 1344 115 1645 96 
L 1645 0 
z
" transform="scale(0.015625)"/>
       <path id="STIXGeneral-Regular-69" d="M 1152 4045 
Q 1152 3904 1056 3811 
Q 960 3718 819 3718 
Q 685 3718 592 3811 
Q 499 3904 499 4045 
Q 499 4179 595 4275 
Q 691 4371 826 4371 
Q 966 4371 1059 4275 
Q 1152 4179 1152 4045 
z
M 1619 0 
L 102 0 
L 102 96 
Q 435 115 521 211 
Q 608 307 608 666 
L 608 2118 
Q 608 2342 563 2432 
Q 518 2522 397 2522 
Q 243 2522 128 2490 
L 128 2592 
L 1120 2944 
L 1146 2918 
L 1146 672 
Q 1146 314 1226 218 
Q 1306 122 1619 96 
L 1619 0 
z
" transform="scale(0.015625)"/>
      </defs>
      <use xlink:href="#STIXGeneral-Regular-43"/>
      <use xlink:href="#STIXGeneral-Regular-65" x="66.699997"/>
      <use xlink:href="#STIXGeneral-Regular-6e" x="111.099991"/>
      <use xlink:href="#STIXGeneral-Regular-74" x="161.099976"/>
      <use xlink:href="#STIXGeneral-Regular-72" x="188.899963"/>
      <use xlink:href="#STIXGeneral-Regular-65" x="222.199951"/>
      <use xlink:href="#STIXGeneral-Regular-6c" x="266.599945"/>
      <use xlink:href="#STIXGeneral-Regular-69" x="294.399933"/>
      <use xlink:href="#STIXGeneral-Regular-6e" x="322.199921"/>
      <use xlink:href="#STIXGeneral-Regular-65" x="372.199905"/>
     </g>
    </g>
    <g id="line2d_38">
     <path d="M 48.45 208.867137 
L 58.45 208.867137 
L 68.45 208.867137 
" style="fill: none; stroke-dasharray: 7.4,3.2; stroke-dashoffset: 0; stroke: #000000; stroke-width: 2"/>
    </g>
    <g id="text_20">
     <!-- Edges -->
     <g transform="translate(76.45 212.367137)scale(0.1 -0.1)">
      <defs>
       <path id="STIXGeneral-Regular-45" d="M 3821 1082 
L 3526 0 
L 77 0 
L 77 122 
Q 442 147 538 252 
Q 634 358 634 730 
L 634 3520 
Q 634 3878 534 3987 
Q 435 4096 77 4115 
L 77 4237 
L 3469 4237 
L 3494 3322 
L 3334 3322 
Q 3264 3750 3085 3872 
Q 2906 3994 2349 3994 
L 1510 3994 
Q 1370 3994 1328 3952 
Q 1286 3910 1286 3763 
L 1286 2355 
L 2253 2355 
Q 2656 2355 2787 2470 
Q 2918 2586 2976 2970 
L 3123 2970 
L 3123 1472 
L 2976 1472 
Q 2918 1875 2790 1984 
Q 2662 2093 2253 2093 
L 1286 2093 
L 1286 538 
Q 1286 346 1420 291 
Q 1555 237 1933 237 
L 2163 237 
Q 2848 237 3136 403 
Q 3424 570 3642 1082 
L 3821 1082 
z
" transform="scale(0.015625)"/>
       <path id="STIXGeneral-Regular-64" d="M 3142 269 
L 2202 -64 
L 2176 -45 
L 2176 365 
Q 1869 -64 1357 -64 
Q 826 -64 499 317 
Q 173 698 173 1312 
Q 173 1990 563 2467 
Q 954 2944 1504 2944 
Q 1850 2944 2176 2669 
L 2176 3667 
Q 2176 3866 2118 3930 
Q 2061 3994 1882 3994 
Q 1792 3994 1741 3987 
L 1741 4090 
Q 2323 4243 2682 4371 
L 2714 4358 
L 2714 730 
Q 2714 506 2768 435 
Q 2822 365 2995 365 
Q 3034 365 3142 371 
L 3142 269 
z
M 2176 653 
L 2176 2125 
Q 2176 2381 1981 2573 
Q 1786 2765 1523 2765 
Q 1158 2765 940 2438 
Q 723 2112 723 1568 
Q 723 979 963 624 
Q 1203 269 1606 269 
Q 1907 269 2080 474 
Q 2176 582 2176 653 
z
" transform="scale(0.015625)"/>
       <path id="STIXGeneral-Regular-67" d="M 3008 2483 
L 2477 2483 
Q 2598 2208 2598 1946 
Q 2598 1453 2265 1203 
Q 1933 954 1600 954 
Q 1530 954 1357 973 
L 1235 986 
Q 1107 947 979 812 
Q 851 678 851 582 
Q 851 435 1350 410 
L 2176 371 
Q 2528 358 2739 172 
Q 2950 -13 2950 -314 
Q 2950 -685 2566 -986 
Q 2035 -1395 1286 -1395 
Q 826 -1395 502 -1212 
Q 179 -1030 179 -774 
Q 179 -595 320 -419 
Q 461 -243 806 6 
Q 602 102 534 172 
Q 467 243 467 346 
Q 467 531 762 787 
Q 909 915 1037 1043 
Q 717 1203 579 1401 
Q 442 1600 442 1901 
Q 442 2336 752 2640 
Q 1062 2944 1510 2944 
Q 1766 2944 2022 2848 
L 2163 2797 
Q 2349 2733 2515 2733 
L 3008 2733 
L 3008 2483 
z
M 973 2163 
L 973 2144 
Q 973 1683 1155 1398 
Q 1338 1114 1632 1114 
Q 1850 1114 1978 1270 
Q 2106 1427 2106 1690 
Q 2106 2112 1914 2464 
Q 1754 2765 1446 2765 
Q 1222 2765 1097 2605 
Q 973 2445 973 2163 
z
M 2771 -410 
Q 2771 -230 2595 -163 
Q 2419 -96 1978 -96 
Q 1344 -96 941 -13 
Q 749 -243 688 -348 
Q 627 -454 627 -563 
Q 627 -774 880 -902 
Q 1133 -1030 1555 -1030 
Q 2099 -1030 2435 -860 
Q 2771 -691 2771 -410 
z
" transform="scale(0.015625)"/>
       <path id="STIXGeneral-Regular-73" d="M 998 1926 
L 1664 1523 
Q 1984 1331 2105 1164 
Q 2227 998 2227 736 
Q 2227 416 1961 176 
Q 1696 -64 1331 -64 
Q 1030 -64 864 -6 
Q 691 51 570 51 
Q 461 51 416 -26 
L 333 -26 
L 333 979 
L 435 979 
Q 538 512 730 294 
Q 922 77 1248 77 
Q 1485 77 1632 211 
Q 1779 346 1779 550 
Q 1779 845 1440 1030 
L 1094 1222 
Q 326 1651 326 2150 
Q 326 2522 566 2730 
Q 806 2938 1210 2938 
Q 1491 2938 1638 2867 
Q 1754 2816 1818 2816 
Q 1862 2816 1920 2880 
L 1990 2880 
L 2022 2010 
L 1926 2010 
Q 1818 2445 1654 2621 
Q 1491 2797 1203 2797 
Q 986 2797 854 2688 
Q 723 2579 723 2362 
Q 723 2253 796 2128 
Q 870 2003 998 1926 
z
" transform="scale(0.015625)"/>
      </defs>
      <use xlink:href="#STIXGeneral-Regular-45"/>
      <use xlink:href="#STIXGeneral-Regular-64" x="61.099991"/>
      <use xlink:href="#STIXGeneral-Regular-67" x="111.099976"/>
      <use xlink:href="#STIXGeneral-Regular-65" x="161.09996"/>
      <use xlink:href="#STIXGeneral-Regular-73" x="205.499954"/>
     </g>
    </g>
    <g id="line2d_39">
     <path d="M 48.45 223.476512 
L 58.45 223.476512 
L 68.45 223.476512 
" style="fill: none; stroke-dasharray: 2,3.3; stroke-dashoffset: 0; stroke: #000000; stroke-width: 2"/>
    </g>
    <g id="text_21">
     <!-- $y=0$ -->
     <g transform="translate(76.45 226.976512)scale(0.1 -0.1)">
      <use xlink:href="#DejaVuSans-Oblique-79" transform="translate(0 0.78125)"/>
      <use xlink:href="#DejaVuSans-3d" transform="translate(78.662109 0.78125)"/>
      <use xlink:href="#DejaVuSans-30" transform="translate(181.933594 0.78125)"/>
     </g>
    </g>
   </g>
  </g>
 </g>
 <defs>
  <clipPath id="pae236dd3e0">
   <rect x="39.45" y="22.115625" width="481.182" height="216.0312"/>
  </clipPath>
 </defs>
</svg>
