<?xml version="1.0" encoding="utf-8" standalone="no"?>
<!DOCTYPE svg PUBLIC "-//W3C//DTD SVG 1.1//EN"
  "http://www.w3.org/Graphics/SVG/1.1/DTD/svg11.dtd">
<svg xmlns:xlink="http://www.w3.org/1999/xlink" width="616.649977pt" height="290.6872pt" viewBox="0 0 616.649977 290.6872" xmlns="http://www.w3.org/2000/svg" version="1.1">
 <metadata>
  <rdf:RDF xmlns:dc="http://purl.org/dc/elements/1.1/" xmlns:cc="http://creativecommons.org/ns#" xmlns:rdf="http://www.w3.org/1999/02/22-rdf-syntax-ns#">
   <cc:Work>
    <dc:type rdf:resource="http://purl.org/dc/dcmitype/StillImage"/>
    <dc:date>2022-04-18T13:11:40.308002</dc:date>
    <dc:format>image/svg+xml</dc:format>
    <dc:creator>
     <cc:Agent>
      <dc:title>Matplotlib v3.5.1, https://matplotlib.org/</dc:title>
     </cc:Agent>
    </dc:creator>
   </cc:Work>
  </rdf:RDF>
 </metadata>
 <defs>
  <style type="text/css">*{stroke-linejoin: round; stroke-linecap: butt}</style>
 </defs>
 <g id="figure_1">
  <g id="patch_1">
   <path d="M 0 290.6872 
L 616.649977 290.6872 
L 616.649977 0 
L 0 0 
z
" style="fill: #ffffff"/>
  </g>
  <g id="axes_1">
   <g id="patch_2">
    <path d="M 39.8 133.452 
L 258.519091 133.452 
L 258.519091 35.256 
L 39.8 35.256 
z
" style="fill: #ffffff"/>
   </g>
   <g id="matplotlib.axis_1">
    <g id="xtick_1">
     <g id="line2d_1">
      <path d="M 39.8 133.452 
L 39.8 35.256 
" clip-path="url(#p378745f3d3)" style="fill: none; stroke-dasharray: 0.8,1.32; stroke-dashoffset: 0; stroke: #b0b0b0; stroke-width: 0.8"/>
     </g>
     <g id="line2d_2">
      <defs>
       <path id="m51506dce22" d="M 0 0 
L 0 3.5 
" style="stroke: #000000; stroke-width: 0.8"/>
      </defs>
      <g>
       <use xlink:href="#m51506dce22" x="39.8" y="133.452" style="stroke: #000000; stroke-width: 0.8"/>
      </g>
     </g>
    </g>
    <g id="xtick_2">
     <g id="line2d_3">
      <path d="M 94.479773 133.452 
L 94.479773 35.256 
" clip-path="url(#p378745f3d3)" style="fill: none; stroke-dasharray: 0.8,1.32; stroke-dashoffset: 0; stroke: #b0b0b0; stroke-width: 0.8"/>
     </g>
     <g id="line2d_4">
      <g>
       <use xlink:href="#m51506dce22" x="94.479773" y="133.452" style="stroke: #000000; stroke-width: 0.8"/>
      </g>
     </g>
    </g>
    <g id="xtick_3">
     <g id="line2d_5">
      <path d="M 149.159545 133.452 
L 149.159545 35.256 
" clip-path="url(#p378745f3d3)" style="fill: none; stroke-dasharray: 0.8,1.32; stroke-dashoffset: 0; stroke: #b0b0b0; stroke-width: 0.8"/>
     </g>
     <g id="line2d_6">
      <g>
       <use xlink:href="#m51506dce22" x="149.159545" y="133.452" style="stroke: #000000; stroke-width: 0.8"/>
      </g>
     </g>
    </g>
    <g id="xtick_4">
     <g id="line2d_7">
      <path d="M 203.839318 133.452 
L 203.839318 35.256 
" clip-path="url(#p378745f3d3)" style="fill: none; stroke-dasharray: 0.8,1.32; stroke-dashoffset: 0; stroke: #b0b0b0; stroke-width: 0.8"/>
     </g>
     <g id="line2d_8">
      <g>
       <use xlink:href="#m51506dce22" x="203.839318" y="133.452" style="stroke: #000000; stroke-width: 0.8"/>
      </g>
     </g>
    </g>
    <g id="xtick_5">
     <g id="line2d_9">
      <path d="M 258.519091 133.452 
L 258.519091 35.256 
" clip-path="url(#p378745f3d3)" style="fill: none; stroke-dasharray: 0.8,1.32; stroke-dashoffset: 0; stroke: #b0b0b0; stroke-width: 0.8"/>
     </g>
     <g id="line2d_10">
      <g>
       <use xlink:href="#m51506dce22" x="258.519091" y="133.452" style="stroke: #000000; stroke-width: 0.8"/>
      </g>
     </g>
    </g>
   </g>
   <g id="matplotlib.axis_2">
    <g id="ytick_1">
     <g id="line2d_11">
      <path d="M 39.8 128.564923 
L 258.519091 128.564923 
" clip-path="url(#p378745f3d3)" style="fill: none; stroke-dasharray: 0.8,1.32; stroke-dashoffset: 0; stroke: #b0b0b0; stroke-width: 0.8"/>
     </g>
     <g id="line2d_12">
      <defs>
       <path id="m068b728571" d="M 0 0 
L -3.5 0 
" style="stroke: #000000; stroke-width: 0.8"/>
      </defs>
      <g>
       <use xlink:href="#m068b728571" x="39.8" y="128.564923" style="stroke: #000000; stroke-width: 0.8"/>
      </g>
     </g>
     <g id="text_1">
      <!-- 0.0 -->
      <g transform="translate(20.3 131.979767)scale(0.1 -0.1)">
       <defs>
        <path id="STIXGeneral-Regular-30" d="M 3046 2112 
Q 3046 1683 2963 1302 
Q 2880 922 2717 602 
Q 2554 282 2266 96 
Q 1978 -90 1600 -90 
Q 1210 -90 915 108 
Q 621 307 461 640 
Q 301 973 227 1350 
Q 154 1728 154 2150 
Q 154 2746 301 3222 
Q 448 3699 790 4012 
Q 1133 4326 1626 4326 
Q 2253 4326 2649 3712 
Q 3046 3098 3046 2112 
z
M 2432 2080 
Q 2432 3091 2217 3625 
Q 2003 4160 1587 4160 
Q 1190 4160 979 3622 
Q 768 3085 768 2106 
Q 768 1120 979 598 
Q 1190 77 1600 77 
Q 2003 77 2217 598 
Q 2432 1120 2432 2080 
z
" transform="scale(0.015625)"/>
        <path id="STIXGeneral-Regular-2e" d="M 1158 275 
Q 1158 134 1052 32 
Q 947 -70 800 -70 
Q 653 -70 550 32 
Q 448 134 448 281 
Q 448 429 553 534 
Q 659 640 806 640 
Q 947 640 1052 531 
Q 1158 422 1158 275 
z
" transform="scale(0.015625)"/>
       </defs>
       <use xlink:href="#STIXGeneral-Regular-30"/>
       <use xlink:href="#STIXGeneral-Regular-2e" x="49.999985"/>
       <use xlink:href="#STIXGeneral-Regular-30" x="74.999969"/>
      </g>
     </g>
    </g>
    <g id="ytick_2">
     <g id="line2d_13">
      <path d="M 39.8 92.334595 
L 258.519091 92.334595 
" clip-path="url(#p378745f3d3)" style="fill: none; stroke-dasharray: 0.8,1.32; stroke-dashoffset: 0; stroke: #b0b0b0; stroke-width: 0.8"/>
     </g>
     <g id="line2d_14">
      <g>
       <use xlink:href="#m068b728571" x="39.8" y="92.334595" style="stroke: #000000; stroke-width: 0.8"/>
      </g>
     </g>
     <g id="text_2">
      <!-- 0.5 -->
      <g transform="translate(20.3 95.749438)scale(0.1 -0.1)">
       <defs>
        <path id="STIXGeneral-Regular-35" d="M 2803 4358 
L 2573 3814 
Q 2534 3731 2400 3731 
L 1158 3731 
L 902 3187 
Q 1606 3053 1920 2896 
Q 2234 2739 2502 2368 
Q 2726 2061 2726 1555 
Q 2726 1094 2576 780 
Q 2426 467 2099 224 
Q 1664 -90 1011 -90 
Q 646 -90 422 19 
Q 198 128 198 307 
Q 198 550 486 550 
Q 717 550 960 352 
Q 1210 147 1414 147 
Q 1747 147 2012 480 
Q 2278 813 2278 1229 
Q 2278 1843 1850 2189 
Q 1293 2637 486 2637 
Q 410 2637 410 2688 
L 416 2720 
L 1114 4237 
L 2438 4237 
Q 2547 4237 2608 4269 
Q 2669 4301 2746 4403 
L 2803 4358 
z
" transform="scale(0.015625)"/>
       </defs>
       <use xlink:href="#STIXGeneral-Regular-30"/>
       <use xlink:href="#STIXGeneral-Regular-2e" x="49.999985"/>
       <use xlink:href="#STIXGeneral-Regular-35" x="74.999969"/>
      </g>
     </g>
    </g>
    <g id="ytick_3">
     <g id="line2d_15">
      <path d="M 39.8 56.104266 
L 258.519091 56.104266 
" clip-path="url(#p378745f3d3)" style="fill: none; stroke-dasharray: 0.8,1.32; stroke-dashoffset: 0; stroke: #b0b0b0; stroke-width: 0.8"/>
     </g>
     <g id="line2d_16">
      <g>
       <use xlink:href="#m068b728571" x="39.8" y="56.104266" style="stroke: #000000; stroke-width: 0.8"/>
      </g>
     </g>
     <g id="text_3">
      <!-- 1.0 -->
      <g transform="translate(20.3 59.51911)scale(0.1 -0.1)">
       <defs>
        <path id="STIXGeneral-Regular-31" d="M 2522 0 
L 755 0 
L 755 96 
Q 1107 115 1235 227 
Q 1363 339 1363 608 
L 1363 3482 
Q 1363 3795 1171 3795 
Q 1082 3795 883 3718 
L 710 3654 
L 710 3744 
L 1856 4326 
L 1914 4307 
L 1914 486 
Q 1914 275 2042 185 
Q 2170 96 2522 96 
L 2522 0 
z
" transform="scale(0.015625)"/>
       </defs>
       <use xlink:href="#STIXGeneral-Regular-31"/>
       <use xlink:href="#STIXGeneral-Regular-2e" x="49.999985"/>
       <use xlink:href="#STIXGeneral-Regular-30" x="74.999969"/>
      </g>
     </g>
    </g>
    <g id="text_4">
     <!-- $V/V_c$ [-] -->
     <g transform="translate(14.129688 101.204)rotate(-90)scale(0.1 -0.1)">
      <defs>
       <path id="DejaVuSans-Oblique-56" d="M 1319 0 
L 500 4666 
L 1119 4666 
L 1797 653 
L 4063 4666 
L 4750 4666 
L 2053 0 
L 1319 0 
z
" transform="scale(0.015625)"/>
       <path id="DejaVuSans-2f" d="M 1625 4666 
L 2156 4666 
L 531 -594 
L 0 -594 
L 1625 4666 
z
" transform="scale(0.015625)"/>
       <path id="DejaVuSans-Oblique-63" d="M 3431 3366 
L 3316 2797 
Q 3109 2947 2876 3022 
Q 2644 3097 2394 3097 
Q 2119 3097 1870 3000 
Q 1622 2903 1453 2725 
Q 1184 2453 1037 2087 
Q 891 1722 891 1331 
Q 891 859 1127 628 
Q 1363 397 1844 397 
Q 2081 397 2348 469 
Q 2616 541 2906 684 
L 2797 116 
Q 2547 13 2283 -39 
Q 2019 -91 1741 -91 
Q 1044 -91 669 257 
Q 294 606 294 1253 
Q 294 1797 489 2255 
Q 684 2713 1069 3078 
Q 1331 3328 1684 3456 
Q 2038 3584 2456 3584 
Q 2700 3584 2940 3529 
Q 3181 3475 3431 3366 
z
" transform="scale(0.015625)"/>
       <path id="STIXGeneral-Regular-20" transform="scale(0.015625)"/>
       <path id="STIXGeneral-Regular-5b" d="M 1914 -998 
L 563 -998 
L 563 4237 
L 1914 4237 
L 1914 4077 
L 1382 4077 
Q 1216 4077 1133 4006 
Q 1050 3936 1050 3770 
L 1050 -493 
Q 1050 -838 1382 -838 
L 1914 -838 
L 1914 -998 
z
" transform="scale(0.015625)"/>
       <path id="STIXGeneral-Regular-2d" d="M 1824 1242 
L 250 1242 
L 250 1645 
L 1824 1645 
L 1824 1242 
z
" transform="scale(0.015625)"/>
       <path id="STIXGeneral-Regular-5d" d="M 1568 -998 
L 218 -998 
L 218 -838 
L 781 -838 
Q 947 -838 1014 -768 
Q 1082 -698 1082 -544 
L 1082 3731 
Q 1082 4077 755 4077 
L 218 4077 
L 218 4237 
L 1568 4237 
L 1568 -998 
z
" transform="scale(0.015625)"/>
      </defs>
      <use xlink:href="#DejaVuSans-Oblique-56" transform="translate(0 0.09375)"/>
      <use xlink:href="#DejaVuSans-2f" transform="translate(68.408203 0.09375)"/>
      <use xlink:href="#DejaVuSans-Oblique-56" transform="translate(102.099609 0.09375)"/>
      <use xlink:href="#DejaVuSans-Oblique-63" transform="translate(170.507812 -16.3125)scale(0.7)"/>
      <use xlink:href="#STIXGeneral-Regular-20" transform="translate(211.728516 0.09375)"/>
      <use xlink:href="#STIXGeneral-Regular-5b" transform="translate(236.7285 0.09375)"/>
      <use xlink:href="#STIXGeneral-Regular-2d" transform="translate(270.028488 0.09375)"/>
      <use xlink:href="#STIXGeneral-Regular-5d" transform="translate(303.328476 0.09375)"/>
     </g>
    </g>
   </g>
   <g id="line2d_17">
    <path d="M -1 124.00271 
L 2.319101 123.813658 
L 9.661123 123.349095 
L 17.003145 122.845275 
L 24.345167 122.291743 
L 31.68719 121.683346 
L 39.029212 121.010185 
L 46.371234 120.260552 
L 53.713256 119.417387 
L 61.055279 118.456644 
L 68.397301 117.343835 
L 75.739323 116.025955 
L 83.081345 114.426892 
L 90.423368 112.425227 
L 97.76539 109.848301 
L 105.107412 106.407769 
L 112.449434 101.694946 
L 119.791457 94.892079 
L 127.133479 83.741424 
L 134.475501 68.552624 
L 141.817523 56.330111 
L 149.159545 51.939298 
L 156.501568 55.355164 
L 163.84359 63.917935 
L 171.185612 75.041808 
L 178.527634 87.455529 
L 185.869657 100.484681 
L 193.211679 113.223367 
L 200.553701 123.736888 
L 207.895723 127.809127 
L 215.237746 123.05002 
L 222.579768 118.969748 
L 229.92179 119.323977 
L 237.263812 120.454314 
L 244.605835 121.586628 
L 251.947857 122.475087 
L 259.289879 123.115778 
L 266.631901 123.574178 
L 273.973924 123.908542 
L 281.315946 124.1586 
L 288.657968 124.35087 
L 295.99999 124.502574 
L 303.342012 124.625207 
L 310.684035 124.727241 
L 318.026057 124.813754 
L 325.368079 124.890035 
L 332.710101 124.956815 
L 340.052124 125.021049 
L 347.784832 125.081481 
L 356.799931 125.14188 
L 367.789059 125.218001 
L 381.171693 125.303138 
L 397.450235 125.408309 
L 417.223391 125.532896 
L 441.200214 125.686966 
L 470.214014 125.871901 
L 505.234779 126.092305 
L 547.378166 126.343589 
L 597.908229 126.617757 
L 617.649977 126.710305 
" clip-path="url(#p378745f3d3)" style="fill: none; stroke: #1f77b4; stroke-width: 2; stroke-linecap: square"/>
   </g>
   <g id="line2d_18">
    <path d="M -1 123.532222 
L 9.201542 122.889635 
L 17.655925 122.291849 
L 24.591608 121.763115 
L 30.540695 121.282723 
L 36.189212 120.776502 
L 41.837729 120.224617 
L 47.486245 119.629736 
L 53.134762 118.98213 
L 58.783279 118.274239 
L 64.431795 117.494807 
L 70.080312 116.628927 
L 75.728829 115.656105 
L 81.377345 114.546669 
L 87.025862 113.258952 
L 92.674379 111.730138 
L 98.322895 109.870544 
L 103.971412 107.543546 
L 109.619929 104.538193 
L 115.268445 100.50839 
L 120.916962 94.817377 
L 126.565479 86.254878 
L 132.213995 74.283122 
L 137.862512 61.6622 
L 143.511029 52.595961 
L 149.159545 49.400509 
L 154.808062 51.839384 
L 160.456579 58.267428 
L 166.105095 67.157832 
L 171.753612 77.544236 
L 177.402129 88.746767 
L 183.050645 100.046161 
L 188.699162 110.370419 
L 194.347679 118.010435 
L 199.996195 120.737397 
L 205.644712 117.943348 
L 211.293229 114.299477 
L 216.941746 113.696331 
L 222.590262 114.846493 
L 228.238779 116.437391 
L 233.887296 117.908958 
L 239.535812 119.109935 
L 245.184329 120.070612 
L 250.832846 120.847783 
L 256.481362 121.487904 
L 262.129879 122.024197 
L 267.778396 122.479474 
L 273.426912 122.870363 
L 279.075429 123.208913 
L 284.723946 123.50393 
L 290.372462 123.764059 
L 296.020979 123.990101 
L 301.970066 124.198286 
L 308.905749 124.4142 
L 317.360133 124.640954 
L 327.655938 124.869963 
L 340.179683 125.099041 
L 355.391978 125.31974 
L 373.838324 125.53238 
L 396.159822 125.734826 
L 423.102722 125.935878 
L 455.525345 126.141822 
L 494.400181 126.362055 
L 540.808047 126.59857 
L 595.920817 126.847936 
L 617.649977 126.932083 
" clip-path="url(#p378745f3d3)" style="fill: none; stroke: #ff7f0e; stroke-width: 2; stroke-linecap: square"/>
   </g>
   <g id="line2d_19">
    <path d="M -1 124.112495 
L 5.015011 123.775029 
L 18.550908 122.850289 
L 29.713663 121.945418 
L 38.903566 121.07968 
L 46.45861 120.273475 
L 52.662421 119.529743 
L 57.751813 118.871072 
L 62.117243 118.26915 
L 66.262114 117.6341 
L 70.406986 116.939826 
L 74.551857 116.188085 
L 78.696729 115.366178 
L 82.841601 114.463146 
L 86.986472 113.463504 
L 91.131344 112.346963 
L 95.276215 111.085862 
L 99.421087 109.642031 
L 103.565958 107.96173 
L 107.71083 105.968699 
L 111.855701 103.552512 
L 116.000573 100.543519 
L 120.145445 96.656728 
L 124.290316 91.390009 
L 128.435188 83.940916 
L 132.580059 73.848223 
L 136.724931 62.446958 
L 140.869802 52.56221 
L 145.014674 46.467506 
L 149.159545 44.911533 
L 153.304417 47.398014 
L 157.449289 52.93308 
L 161.59416 60.570366 
L 165.739032 69.549217 
L 169.883903 79.244369 
L 174.028775 89.067353 
L 178.173646 98.356758 
L 182.318518 106.257324 
L 186.463389 111.677793 
L 190.608261 113.544107 
L 194.753133 111.845035 
L 198.898004 108.995833 
L 203.042876 107.78538 
L 207.187747 108.509934 
L 211.332619 110.225223 
L 215.47749 112.104619 
L 219.622362 113.768948 
L 223.767233 115.168941 
L 227.912105 116.347501 
L 232.056977 117.353219 
L 236.201848 118.222724 
L 240.34672 118.982627 
L 244.491591 119.652691 
L 248.636463 120.246218 
L 252.781334 120.778564 
L 256.926206 121.247925 
L 261.291636 121.683747 
L 266.381028 122.146093 
L 272.584839 122.639617 
L 280.139883 123.146669 
L 289.329785 123.656405 
L 300.49254 124.149181 
L 314.028436 124.610109 
L 330.407912 125.022953 
L 350.178564 125.385487 
L 373.970228 125.699095 
L 402.496514 125.978224 
L 436.550524 126.2375 
L 476.992177 126.491428 
L 524.723745 126.745614 
L 580.650518 126.998141 
L 617.649977 127.136422 
" clip-path="url(#p378745f3d3)" style="fill: none; stroke: #2ca02c; stroke-width: 2; stroke-linecap: square"/>
   </g>
   <g id="line2d_20">
    <path d="M -1 124.954361 
L 12.598307 124.19999 
L 27.573263 123.135059 
L 39.979627 122.033357 
L 50.232171 120.923744 
L 58.687217 119.834537 
L 65.647958 118.786545 
L 71.370403 117.805531 
L 76.069378 116.8957 
L 79.924255 116.08457 
L 83.230778 115.33983 
L 86.370243 114.55221 
L 89.509708 113.687013 
L 92.649173 112.746349 
L 95.788638 111.713464 
L 98.928104 110.574004 
L 102.067569 109.307733 
L 105.207034 107.888622 
L 108.346499 106.281821 
L 111.485964 104.440362 
L 114.625429 102.299754 
L 117.764894 99.769537 
L 120.904359 96.71447 
L 124.043824 92.912168 
L 127.18329 87.985951 
L 130.322755 81.388907 
L 133.46222 72.753394 
L 136.601685 62.719363 
L 139.74115 53.068135 
L 142.880615 45.639957 
L 146.02008 41.500398 
L 149.159545 40.85872 
L 152.299011 43.334264 
L 155.438476 48.288365 
L 158.577941 55.043202 
L 161.717406 62.974219 
L 164.856871 71.526428 
L 167.996336 80.194602 
L 171.135801 88.485062 
L 174.275266 95.868309 
L 177.414732 101.743231 
L 180.554197 105.471787 
L 183.693662 106.596668 
L 186.833127 105.381168 
L 189.972592 103.299763 
L 193.112057 102.163533 
L 196.251522 102.67867 
L 199.390987 104.413097 
L 202.530453 106.552493 
L 205.669918 108.568208 
L 208.809383 110.321635 
L 211.948848 111.831668 
L 215.088313 113.143524 
L 218.227778 114.295508 
L 221.367243 115.317077 
L 224.506708 116.227741 
L 227.646173 117.049894 
L 230.785639 117.780706 
L 234.092162 118.462412 
L 237.947039 119.19145 
L 242.646014 119.979621 
L 248.368459 120.799124 
L 255.329199 121.634206 
L 263.784245 122.455351 
L 274.036788 123.235158 
L 286.443154 123.943231 
L 301.418111 124.563268 
L 319.438718 125.084618 
L 341.045486 125.515629 
L 366.839139 125.871978 
L 397.471007 126.178357 
L 433.624502 126.455667 
L 475.98532 126.718383 
L 525.198151 126.970523 
L 581.80907 127.209477 
L 617.649977 127.332057 
" clip-path="url(#p378745f3d3)" style="fill: none; stroke: #d62728; stroke-width: 2; stroke-linecap: square"/>
   </g>
   <g id="line2d_21">
    <path d="M -1 125.451809 
L 3.200476 125.274235 
L 21.100062 124.25254 
L 36.028789 123.132383 
L 48.434418 121.938435 
L 58.712161 120.698435 
L 67.205626 119.441418 
L 74.209998 118.199977 
L 79.976451 116.998551 
L 84.717067 115.868096 
L 88.609817 114.815051 
L 91.803293 113.871408 
L 94.5425 113.002551 
L 97.143312 112.082073 
L 99.744123 111.06757 
L 102.344935 109.9617 
L 104.945747 108.743998 
L 107.546558 107.397164 
L 110.14737 105.896965 
L 112.748182 104.212594 
L 115.348993 102.303859 
L 117.949805 100.116847 
L 120.550617 97.57882 
L 123.151429 94.584638 
L 125.75224 90.970288 
L 128.353052 86.474154 
L 130.953864 80.734818 
L 133.554675 73.469873 
L 136.155487 64.926982 
L 138.756299 56.133441 
L 141.35711 48.42497 
L 143.957922 42.84031 
L 146.558734 39.914331 
L 149.159545 39.719455 
L 151.760357 41.994338 
L 154.361169 46.294538 
L 156.961981 52.111213 
L 159.562792 58.942152 
L 162.163604 66.324449 
L 164.764416 73.838595 
L 167.365227 81.096904 
L 169.966039 87.723595 
L 172.566851 93.33564 
L 175.167662 97.544111 
L 177.768474 100.008402 
L 180.369286 100.599282 
L 182.970097 99.686131 
L 185.570909 98.287586 
L 188.171721 97.602456 
L 190.772532 98.267098 
L 193.373344 100.08407 
L 195.974156 102.371103 
L 198.574968 104.593604 
L 201.175779 106.570133 
L 203.776591 108.298243 
L 206.377403 109.816459 
L 208.978214 111.163328 
L 211.579026 112.365698 
L 214.179838 113.453353 
L 216.780649 114.423364 
L 219.519856 115.329937 
L 222.713333 116.302428 
L 226.606082 117.360303 
L 231.346699 118.46677 
L 237.113151 119.602922 
L 244.117523 120.731129 
L 252.610987 121.815099 
L 262.888732 122.81353 
L 275.294362 123.69892 
L 290.223085 124.449772 
L 308.122674 125.065899 
L 329.490783 125.557787 
L 354.866991 125.951327 
L 384.817454 126.274845 
L 419.910219 126.555585 
L 460.679363 126.811158 
L 507.577269 127.050024 
L 560.916661 127.272951 
" clip-path="url(#p378745f3d3)" style="fill: none; stroke: #9467bd; stroke-width: 2; stroke-linecap: square"/>
   </g>
   <g id="patch_3">
    <path d="M 39.8 133.452 
L 39.8 35.256 
" style="fill: none; stroke: #000000; stroke-width: 0.8; stroke-linejoin: miter; stroke-linecap: square"/>
   </g>
   <g id="patch_4">
    <path d="M 258.519091 133.452 
L 258.519091 35.256 
" style="fill: none; stroke: #000000; stroke-width: 0.8; stroke-linejoin: miter; stroke-linecap: square"/>
   </g>
   <g id="patch_5">
    <path d="M 39.8 133.452 
L 258.519091 133.452 
" style="fill: none; stroke: #000000; stroke-width: 0.8; stroke-linejoin: miter; stroke-linecap: square"/>
   </g>
   <g id="patch_6">
    <path d="M 39.8 35.256 
L 258.519091 35.256 
" style="fill: none; stroke: #000000; stroke-width: 0.8; stroke-linejoin: miter; stroke-linecap: square"/>
   </g>
   <g id="text_5">
    <!-- $\gamma = 10^\circ$ -->
    <g transform="translate(126.119545 29.256)scale(0.12 -0.12)">
     <defs>
      <path id="DejaVuSans-Oblique-3b3" d="M 1491 2950 
L 1838 788 
L 3456 3500 
L 4066 3500 
L 1972 0 
L 1713 -1331 
L 1138 -1331 
L 1397 0 
L 988 2613 
Q 925 3006 628 3006 
L 475 3006 
L 569 3500 
L 788 3500 
Q 1403 3500 1491 2950 
z
" transform="scale(0.015625)"/>
      <path id="DejaVuSans-3d" d="M 678 2906 
L 4684 2906 
L 4684 2381 
L 678 2381 
L 678 2906 
z
M 678 1631 
L 4684 1631 
L 4684 1100 
L 678 1100 
L 678 1631 
z
" transform="scale(0.015625)"/>
      <path id="DejaVuSans-31" d="M 794 531 
L 1825 531 
L 1825 4091 
L 703 3866 
L 703 4441 
L 1819 4666 
L 2450 4666 
L 2450 531 
L 3481 531 
L 3481 0 
L 794 0 
L 794 531 
z
" transform="scale(0.015625)"/>
      <path id="DejaVuSans-30" d="M 2034 4250 
Q 1547 4250 1301 3770 
Q 1056 3291 1056 2328 
Q 1056 1369 1301 889 
Q 1547 409 2034 409 
Q 2525 409 2770 889 
Q 3016 1369 3016 2328 
Q 3016 3291 2770 3770 
Q 2525 4250 2034 4250 
z
M 2034 4750 
Q 2819 4750 3233 4129 
Q 3647 3509 3647 2328 
Q 3647 1150 3233 529 
Q 2819 -91 2034 -91 
Q 1250 -91 836 529 
Q 422 1150 422 2328 
Q 422 3509 836 4129 
Q 1250 4750 2034 4750 
z
" transform="scale(0.015625)"/>
      <path id="DejaVuSans-2218" d="M 2003 2603 
Q 1753 2603 1581 2429 
Q 1409 2256 1409 2006 
Q 1409 1759 1581 1589 
Q 1753 1419 2003 1419 
Q 2253 1419 2425 1589 
Q 2597 1759 2597 2006 
Q 2597 2253 2423 2428 
Q 2250 2603 2003 2603 
z
M 2003 3006 
Q 2203 3006 2387 2929 
Q 2572 2853 2706 2709 
Q 2850 2569 2922 2390 
Q 2994 2212 2994 2006 
Q 2994 1594 2705 1308 
Q 2416 1022 1997 1022 
Q 1575 1022 1294 1303 
Q 1013 1584 1013 2006 
Q 1013 2425 1300 2715 
Q 1588 3006 2003 3006 
z
" transform="scale(0.015625)"/>
     </defs>
     <use xlink:href="#DejaVuSans-Oblique-3b3" transform="translate(0 0.78125)"/>
     <use xlink:href="#DejaVuSans-3d" transform="translate(78.662109 0.78125)"/>
     <use xlink:href="#DejaVuSans-31" transform="translate(181.933594 0.78125)"/>
     <use xlink:href="#DejaVuSans-30" transform="translate(245.556641 0.78125)"/>
     <use xlink:href="#DejaVuSans-2218" transform="translate(323.774414 39.0625)scale(0.7)"/>
    </g>
   </g>
  </g>
  <g id="axes_2">
   <g id="patch_7">
    <path d="M 302.262909 133.452 
L 520.982 133.452 
L 520.982 35.256 
L 302.262909 35.256 
z
" style="fill: #ffffff"/>
   </g>
   <g id="matplotlib.axis_3">
    <g id="xtick_6">
     <g id="line2d_22">
      <path d="M 302.262909 133.452 
L 302.262909 35.256 
" clip-path="url(#p34534f4341)" style="fill: none; stroke-dasharray: 0.8,1.32; stroke-dashoffset: 0; stroke: #b0b0b0; stroke-width: 0.8"/>
     </g>
     <g id="line2d_23">
      <g>
       <use xlink:href="#m51506dce22" x="302.262909" y="133.452" style="stroke: #000000; stroke-width: 0.8"/>
      </g>
     </g>
    </g>
    <g id="xtick_7">
     <g id="line2d_24">
      <path d="M 356.942682 133.452 
L 356.942682 35.256 
" clip-path="url(#p34534f4341)" style="fill: none; stroke-dasharray: 0.8,1.32; stroke-dashoffset: 0; stroke: #b0b0b0; stroke-width: 0.8"/>
     </g>
     <g id="line2d_25">
      <g>
       <use xlink:href="#m51506dce22" x="356.942682" y="133.452" style="stroke: #000000; stroke-width: 0.8"/>
      </g>
     </g>
    </g>
    <g id="xtick_8">
     <g id="line2d_26">
      <path d="M 411.622455 133.452 
L 411.622455 35.256 
" clip-path="url(#p34534f4341)" style="fill: none; stroke-dasharray: 0.8,1.32; stroke-dashoffset: 0; stroke: #b0b0b0; stroke-width: 0.8"/>
     </g>
     <g id="line2d_27">
      <g>
       <use xlink:href="#m51506dce22" x="411.622455" y="133.452" style="stroke: #000000; stroke-width: 0.8"/>
      </g>
     </g>
    </g>
    <g id="xtick_9">
     <g id="line2d_28">
      <path d="M 466.302227 133.452 
L 466.302227 35.256 
" clip-path="url(#p34534f4341)" style="fill: none; stroke-dasharray: 0.8,1.32; stroke-dashoffset: 0; stroke: #b0b0b0; stroke-width: 0.8"/>
     </g>
     <g id="line2d_29">
      <g>
       <use xlink:href="#m51506dce22" x="466.302227" y="133.452" style="stroke: #000000; stroke-width: 0.8"/>
      </g>
     </g>
    </g>
    <g id="xtick_10">
     <g id="line2d_30">
      <path d="M 520.982 133.452 
L 520.982 35.256 
" clip-path="url(#p34534f4341)" style="fill: none; stroke-dasharray: 0.8,1.32; stroke-dashoffset: 0; stroke: #b0b0b0; stroke-width: 0.8"/>
     </g>
     <g id="line2d_31">
      <g>
       <use xlink:href="#m51506dce22" x="520.982" y="133.452" style="stroke: #000000; stroke-width: 0.8"/>
      </g>
     </g>
    </g>
   </g>
   <g id="matplotlib.axis_4">
    <g id="ytick_4">
     <g id="line2d_32">
      <path d="M 302.262909 128.564923 
L 520.982 128.564923 
" clip-path="url(#p34534f4341)" style="fill: none; stroke-dasharray: 0.8,1.32; stroke-dashoffset: 0; stroke: #b0b0b0; stroke-width: 0.8"/>
     </g>
     <g id="line2d_33">
      <g>
       <use xlink:href="#m068b728571" x="302.262909" y="128.564923" style="stroke: #000000; stroke-width: 0.8"/>
      </g>
     </g>
    </g>
    <g id="ytick_5">
     <g id="line2d_34">
      <path d="M 302.262909 92.334595 
L 520.982 92.334595 
" clip-path="url(#p34534f4341)" style="fill: none; stroke-dasharray: 0.8,1.32; stroke-dashoffset: 0; stroke: #b0b0b0; stroke-width: 0.8"/>
     </g>
     <g id="line2d_35">
      <g>
       <use xlink:href="#m068b728571" x="302.262909" y="92.334595" style="stroke: #000000; stroke-width: 0.8"/>
      </g>
     </g>
    </g>
    <g id="ytick_6">
     <g id="line2d_36">
      <path d="M 302.262909 56.104266 
L 520.982 56.104266 
" clip-path="url(#p34534f4341)" style="fill: none; stroke-dasharray: 0.8,1.32; stroke-dashoffset: 0; stroke: #b0b0b0; stroke-width: 0.8"/>
     </g>
     <g id="line2d_37">
      <g>
       <use xlink:href="#m068b728571" x="302.262909" y="56.104266" style="stroke: #000000; stroke-width: 0.8"/>
      </g>
     </g>
    </g>
   </g>
   <g id="line2d_38">
    <path d="M -1 128.456592 
L 6.609731 128.444125 
L 57.539277 128.291307 
L 100.201821 128.076942 
L 135.783505 127.798623 
L 165.351545 127.462108 
L 189.847903 127.078336 
L 210.091545 126.664558 
L 226.786028 126.237016 
L 240.530007 125.813067 
L 251.82897 125.405653 
L 261.107094 125.023566 
L 268.718545 124.677514 
L 275.247273 124.361434 
L 281.446145 124.026316 
L 287.645017 123.655155 
L 293.843889 123.252046 
L 300.042761 122.808911 
L 306.241633 122.320805 
L 312.440505 121.779319 
L 318.639376 121.174175 
L 324.838248 120.490546 
L 331.03712 119.707949 
L 337.235992 118.796369 
L 343.434864 117.711873 
L 349.633736 116.388885 
L 355.832608 114.728336 
L 362.03148 112.581692 
L 368.230351 109.720189 
L 374.429223 105.80333 
L 380.628095 100.310424 
L 386.826967 92.611606 
L 393.025839 81.319207 
L 399.224711 66.458126 
L 405.423583 53.281602 
L 411.622455 47.666917 
L 417.821326 50.758476 
L 424.020198 59.37841 
L 430.21907 69.904802 
L 436.417942 81.014986 
L 442.616814 92.540466 
L 448.815686 103.819003 
L 455.014558 111.186356 
L 461.21343 111.142148 
L 467.412301 110.86938 
L 473.611173 112.961675 
L 479.810045 115.144391 
L 486.008917 117.032695 
L 492.207789 118.507854 
L 498.406661 119.626459 
L 504.605533 120.485881 
L 510.804404 121.163965 
L 517.003276 121.713577 
L 523.202148 122.170431 
L 529.40102 122.558338 
L 535.599892 122.893748 
L 541.798764 123.188407 
L 547.997636 123.450452 
L 554.196508 123.686385 
L 560.395379 123.900544 
L 566.594251 124.096736 
L 573.12298 124.281238 
L 580.734431 124.478703 
L 590.012555 124.70371 
L 601.311518 124.946229 
L 615.055496 125.21055 
L 617.649977 125.254049 
" clip-path="url(#p34534f4341)" style="fill: none; stroke: #1f77b4; stroke-width: 2; stroke-linecap: square"/>
   </g>
   <g id="line2d_39">
    <path d="M -1 128.39607 
L -0.122473 128.394625 
L 54.624249 128.228315 
L 101.009629 127.988389 
L 140.068575 127.666761 
L 172.787383 127.263572 
L 200.075729 126.786712 
L 222.752085 126.252257 
L 241.53886 125.679294 
L 257.064137 125.089655 
L 269.867489 124.50282 
L 280.408038 123.935197 
L 289.073451 123.401686 
L 296.189041 122.90698 
L 302.026423 122.466206 
L 307.033443 122.063493 
L 311.787489 121.638204 
L 316.541535 121.171917 
L 321.295581 120.666959 
L 326.049627 120.114474 
L 330.803673 119.507621 
L 335.557719 118.836179 
L 340.311765 118.087077 
L 345.065811 117.242157 
L 349.819857 116.276129 
L 354.573903 115.152918 
L 359.327949 113.820034 
L 364.081995 112.200944 
L 368.836041 110.18138 
L 373.590087 107.592903 
L 378.344133 104.184805 
L 383.098179 99.610535 
L 387.852225 93.451419 
L 392.606271 85.149412 
L 397.360317 74.204513 
L 402.114363 61.872451 
L 406.868409 51.544673 
L 411.622455 46.332679 
L 416.376501 47.129012 
L 421.130546 52.436493 
L 425.884592 60.205773 
L 430.638638 69.265407 
L 435.392684 79.094063 
L 440.14673 89.203079 
L 444.900776 98.590382 
L 449.654822 105.03465 
L 454.408868 106.713417 
L 459.162914 106.716206 
L 463.91696 108.149168 
L 468.671006 110.292645 
L 473.425052 112.46785 
L 478.179098 114.36876 
L 482.933144 115.915441 
L 487.68719 117.163149 
L 492.441236 118.184582 
L 497.195282 119.037404 
L 501.949328 119.76243 
L 506.703374 120.388088 
L 511.45742 120.934628 
L 516.211466 121.416942 
L 520.965512 121.845511 
L 525.719558 122.231045 
L 530.473604 122.573959 
L 535.480624 122.89376 
L 541.318007 123.234604 
L 548.433596 123.605785 
L 557.09901 123.994426 
L 567.639558 124.39728 
L 580.44291 124.802024 
L 595.968185 125.202035 
L 614.754963 125.587565 
L 617.649977 125.634547 
" clip-path="url(#p34534f4341)" style="fill: none; stroke: #ff7f0e; stroke-width: 2; stroke-linecap: square"/>
   </g>
   <g id="line2d_40">
    <path d="M -1 128.40561 
L 48.682704 128.287099 
L 97.604108 128.078801 
L 139.356839 127.782946 
L 174.73277 127.390316 
L 204.521178 126.899219 
L 229.474262 126.316975 
L 250.285791 125.657423 
L 267.579973 124.940316 
L 281.907756 124.18736 
L 293.748149 123.421292 
L 303.512659 122.66422 
L 311.551436 121.933221 
L 318.160136 121.246902 
L 323.586859 120.609639 
L 328.038755 120.040789 
L 331.857371 119.519121 
L 335.483057 118.967821 
L 339.108742 118.362215 
L 342.734428 117.704716 
L 346.360114 116.983718 
L 349.985799 116.189854 
L 353.611485 115.309678 
L 357.23717 114.326002 
L 360.862856 113.215547 
L 364.488542 111.946415 
L 368.114227 110.474084 
L 371.739913 108.734878 
L 375.365599 106.637917 
L 378.991284 104.052136 
L 382.61697 100.795438 
L 386.242655 96.631132 
L 389.868341 91.282365 
L 393.494027 84.417771 
L 397.119712 75.671331 
L 400.745398 65.298862 
L 404.371083 55.008158 
L 407.996769 47.290695 
L 411.622455 43.784358 
L 415.24814 44.526529 
L 418.873826 48.471762 
L 422.499511 54.455628 
L 426.125197 61.680507 
L 429.750883 69.657954 
L 433.376568 78.00565 
L 437.002254 86.238585 
L 440.627939 93.55033 
L 444.253625 98.744565 
L 447.879311 101.041501 
L 451.504996 101.69092 
L 455.130682 102.744302 
L 458.756367 104.608775 
L 462.382053 106.873154 
L 466.007739 109.104633 
L 469.633424 111.048935 
L 473.25911 112.678717 
L 476.884795 114.04928 
L 480.510481 115.218787 
L 484.136167 116.231452 
L 487.761852 117.119004 
L 491.387538 117.904903 
L 495.013223 118.604999 
L 498.638909 119.236663 
L 502.264595 119.798882 
L 506.083211 120.323445 
L 510.535107 120.884905 
L 515.96183 121.495252 
L 522.57053 122.133657 
L 530.609307 122.790862 
L 540.373817 123.44537 
L 552.214209 124.079922 
L 566.541994 124.67434 
L 583.836177 125.217945 
L 604.647701 125.703124 
L 617.649977 125.926587 
" clip-path="url(#p34534f4341)" style="fill: none; stroke: #2ca02c; stroke-width: 2; stroke-linecap: square"/>
   </g>
   <g id="line2d_41">
    <path d="M -1 128.397544 
L 16.638578 128.374031 
L 69.866023 128.23469 
L 116.137509 128.019393 
L 155.966539 127.712204 
L 189.959243 127.301377 
L 218.760319 126.781967 
L 243.012349 126.156003 
L 263.327734 125.43262 
L 280.2713 124.626029 
L 294.351241 123.755344 
L 306.016109 122.843215 
L 315.655885 121.913428 
L 323.605595 120.991962 
L 330.150311 120.09876 
L 335.53074 119.257166 
L 339.94887 118.473064 
L 343.57335 117.770271 
L 346.682251 117.124038 
L 349.634078 116.440255 
L 352.585906 115.687199 
L 355.537733 114.867988 
L 358.489561 113.967929 
L 361.441388 112.97535 
L 364.393216 111.873608 
L 367.345043 110.641707 
L 370.29687 109.251634 
L 373.248698 107.66563 
L 376.200525 105.831713 
L 379.152353 103.677838 
L 382.10418 101.104983 
L 385.056008 97.983219 
L 388.007835 94.155048 
L 390.959663 89.444556 
L 393.91149 83.63958 
L 396.863317 76.496266 
L 399.815145 67.981119 
L 402.766972 58.834498 
L 405.7188 50.650723 
L 408.670627 45.034222 
L 411.622455 42.722745 
L 414.574282 43.505671 
L 417.526109 46.685673 
L 420.477937 51.520324 
L 423.429764 57.42711 
L 426.381592 63.986057 
L 429.333419 70.874309 
L 432.285247 77.779745 
L 435.237074 84.309711 
L 438.188901 89.924145 
L 441.140729 94.007821 
L 444.092556 96.279714 
L 447.044384 97.37057 
L 449.996211 98.441467 
L 452.948039 100.109246 
L 455.899866 102.322788 
L 458.851693 104.701173 
L 461.803521 106.894071 
L 464.755348 108.78928 
L 467.707176 110.412976 
L 470.659003 111.817607 
L 473.610831 113.04771 
L 476.562658 114.137124 
L 479.514486 115.108526 
L 482.466313 115.986191 
L 485.41814 116.768984 
L 488.527041 117.500083 
L 492.151522 118.284421 
L 496.569652 119.139811 
L 501.950081 120.037068 
L 508.494796 120.963194 
L 516.444506 121.888478 
L 526.084281 122.786461 
L 537.749151 123.626397 
L 551.829093 124.388138 
L 568.772655 125.05617 
L 589.088043 125.629095 
L 613.340076 126.112402 
L 617.649977 126.173293 
" clip-path="url(#p34534f4341)" style="fill: none; stroke: #d62728; stroke-width: 2; stroke-linecap: square"/>
   </g>
   <g id="line2d_42">
    <path d="M 15.353462 128.347972 
L 68.01709 128.225897 
L 114.320843 128.031956 
L 154.57345 127.749797 
L 189.22162 127.365879 
L 218.792638 126.871236 
L 243.847342 126.262542 
L 264.944729 125.541645 
L 282.61754 124.715756 
L 297.357129 123.797374 
L 309.605587 122.804389 
L 319.753118 121.76089 
L 328.138976 120.692598 
L 335.054608 119.629849 
L 340.748003 118.596183 
L 345.428559 117.619286 
L 349.27199 116.706818 
L 352.425007 115.88668 
L 355.12951 115.131411 
L 357.697371 114.331622 
L 360.265232 113.449464 
L 362.833093 112.48879 
L 365.400954 111.43222 
L 367.968815 110.266176 
L 370.536677 108.971367 
L 373.104538 107.523718 
L 375.672399 105.891466 
L 378.24026 104.032389 
L 380.808121 101.889956 
L 383.375982 99.38971 
L 385.943843 96.438583 
L 388.511704 92.931765 
L 391.079566 88.759346 
L 393.647427 83.79385 
L 396.215288 77.875668 
L 398.783149 70.913234 
L 401.35101 63.173733 
L 403.918871 55.51186 
L 406.486732 49.117037 
L 409.054593 44.929459 
L 411.622455 43.279157 
L 414.190316 43.963725 
L 416.758177 46.518748 
L 419.326038 50.438508 
L 421.893899 55.28721 
L 424.46176 60.720372 
L 427.029621 66.464987 
L 429.597482 72.282848 
L 432.165344 77.928088 
L 434.733205 83.110297 
L 437.301066 87.4887 
L 439.868927 90.752627 
L 442.436788 92.837918 
L 445.004649 94.146866 
L 447.57251 95.377904 
L 450.140371 97.045816 
L 452.708233 99.237863 
L 455.276094 101.663548 
L 457.843955 103.971846 
L 460.411816 106.0111 
L 462.979677 107.78248 
L 465.547538 109.32964 
L 468.115399 110.695983 
L 470.68326 111.912316 
L 473.251121 113.010492 
L 475.818983 113.990194 
L 478.523486 114.905305 
L 481.676503 115.887697 
L 485.519934 116.960889 
L 490.20049 118.08851 
L 495.893885 119.254986 
L 502.809516 120.423902 
L 511.195374 121.561885 
L 521.342906 122.629704 
L 533.591365 123.599464 
L 548.330951 124.448428 
L 566.003764 125.170476 
L 587.101153 125.76877 
L 612.155862 126.258263 
L 617.649977 126.332403 
" clip-path="url(#p34534f4341)" style="fill: none; stroke: #9467bd; stroke-width: 2; stroke-linecap: square"/>
   </g>
   <g id="patch_8">
    <path d="M 302.262909 133.452 
L 302.262909 35.256 
" style="fill: none; stroke: #000000; stroke-width: 0.8; stroke-linejoin: miter; stroke-linecap: square"/>
   </g>
   <g id="patch_9">
    <path d="M 520.982 133.452 
L 520.982 35.256 
" style="fill: none; stroke: #000000; stroke-width: 0.8; stroke-linejoin: miter; stroke-linecap: square"/>
   </g>
   <g id="patch_10">
    <path d="M 302.262909 133.452 
L 520.982 133.452 
" style="fill: none; stroke: #000000; stroke-width: 0.8; stroke-linejoin: miter; stroke-linecap: square"/>
   </g>
   <g id="patch_11">
    <path d="M 302.262909 35.256 
L 520.982 35.256 
" style="fill: none; stroke: #000000; stroke-width: 0.8; stroke-linejoin: miter; stroke-linecap: square"/>
   </g>
   <g id="text_6">
    <!-- $\gamma = 20^\circ$ -->
    <g transform="translate(388.582455 29.256)scale(0.12 -0.12)">
     <defs>
      <path id="DejaVuSans-32" d="M 1228 531 
L 3431 531 
L 3431 0 
L 469 0 
L 469 531 
Q 828 903 1448 1529 
Q 2069 2156 2228 2338 
Q 2531 2678 2651 2914 
Q 2772 3150 2772 3378 
Q 2772 3750 2511 3984 
Q 2250 4219 1831 4219 
Q 1534 4219 1204 4116 
Q 875 4013 500 3803 
L 500 4441 
Q 881 4594 1212 4672 
Q 1544 4750 1819 4750 
Q 2544 4750 2975 4387 
Q 3406 4025 3406 3419 
Q 3406 3131 3298 2873 
Q 3191 2616 2906 2266 
Q 2828 2175 2409 1742 
Q 1991 1309 1228 531 
z
" transform="scale(0.015625)"/>
     </defs>
     <use xlink:href="#DejaVuSans-Oblique-3b3" transform="translate(0 0.78125)"/>
     <use xlink:href="#DejaVuSans-3d" transform="translate(78.662109 0.78125)"/>
     <use xlink:href="#DejaVuSans-32" transform="translate(181.933594 0.78125)"/>
     <use xlink:href="#DejaVuSans-30" transform="translate(245.556641 0.78125)"/>
     <use xlink:href="#DejaVuSans-2218" transform="translate(323.774414 39.0625)scale(0.7)"/>
    </g>
   </g>
  </g>
  <g id="axes_3">
   <g id="patch_12">
    <path d="M 39.8 251.2872 
L 258.519091 251.2872 
L 258.519091 153.0912 
L 39.8 153.0912 
z
" style="fill: #ffffff"/>
   </g>
   <g id="matplotlib.axis_5">
    <g id="xtick_11">
     <g id="line2d_43">
      <path d="M 39.8 251.2872 
L 39.8 153.0912 
" clip-path="url(#pf5be0900bf)" style="fill: none; stroke-dasharray: 0.8,1.32; stroke-dashoffset: 0; stroke: #b0b0b0; stroke-width: 0.8"/>
     </g>
     <g id="line2d_44">
      <g>
       <use xlink:href="#m51506dce22" x="39.8" y="251.2872" style="stroke: #000000; stroke-width: 0.8"/>
      </g>
     </g>
     <g id="text_7">
      <!-- −4 -->
      <g transform="translate(33.875 265.116888)scale(0.1 -0.1)">
       <defs>
        <path id="STIXGeneral-Regular-2212" d="M 3974 1408 
L 410 1408 
L 410 1830 
L 3974 1830 
L 3974 1408 
z
" transform="scale(0.015625)"/>
        <path id="STIXGeneral-Regular-34" d="M 3027 1069 
L 2368 1069 
L 2368 0 
L 1869 0 
L 1869 1069 
L 77 1069 
L 77 1478 
L 2086 4326 
L 2368 4326 
L 2368 1478 
L 3027 1478 
L 3027 1069 
z
M 1869 1478 
L 1869 3674 
L 333 1478 
L 1869 1478 
z
" transform="scale(0.015625)"/>
       </defs>
       <use xlink:href="#STIXGeneral-Regular-2212"/>
       <use xlink:href="#STIXGeneral-Regular-34" x="68.499985"/>
      </g>
     </g>
    </g>
    <g id="xtick_12">
     <g id="line2d_45">
      <path d="M 94.479773 251.2872 
L 94.479773 153.0912 
" clip-path="url(#pf5be0900bf)" style="fill: none; stroke-dasharray: 0.8,1.32; stroke-dashoffset: 0; stroke: #b0b0b0; stroke-width: 0.8"/>
     </g>
     <g id="line2d_46">
      <g>
       <use xlink:href="#m51506dce22" x="94.479773" y="251.2872" style="stroke: #000000; stroke-width: 0.8"/>
      </g>
     </g>
     <g id="text_8">
      <!-- −2 -->
      <g transform="translate(88.554773 265.116888)scale(0.1 -0.1)">
       <defs>
        <path id="STIXGeneral-Regular-32" d="M 3034 877 
L 2688 0 
L 186 0 
L 186 77 
L 1325 1286 
Q 1773 1754 1965 2144 
Q 2157 2534 2157 2950 
Q 2157 3379 1920 3616 
Q 1683 3853 1267 3853 
Q 922 3853 720 3673 
Q 518 3494 326 3021 
L 192 3053 
Q 301 3648 630 3987 
Q 960 4326 1523 4326 
Q 2054 4326 2380 4006 
Q 2707 3686 2707 3200 
Q 2707 2477 1888 1613 
L 832 486 
L 2330 486 
Q 2541 486 2665 569 
Q 2790 653 2944 915 
L 3034 877 
z
" transform="scale(0.015625)"/>
       </defs>
       <use xlink:href="#STIXGeneral-Regular-2212"/>
       <use xlink:href="#STIXGeneral-Regular-32" x="68.499985"/>
      </g>
     </g>
    </g>
    <g id="xtick_13">
     <g id="line2d_47">
      <path d="M 149.159545 251.2872 
L 149.159545 153.0912 
" clip-path="url(#pf5be0900bf)" style="fill: none; stroke-dasharray: 0.8,1.32; stroke-dashoffset: 0; stroke: #b0b0b0; stroke-width: 0.8"/>
     </g>
     <g id="line2d_48">
      <g>
       <use xlink:href="#m51506dce22" x="149.159545" y="251.2872" style="stroke: #000000; stroke-width: 0.8"/>
      </g>
     </g>
     <g id="text_9">
      <!-- 0 -->
      <g transform="translate(146.659545 265.116888)scale(0.1 -0.1)">
       <use xlink:href="#STIXGeneral-Regular-30"/>
      </g>
     </g>
    </g>
    <g id="xtick_14">
     <g id="line2d_49">
      <path d="M 203.839318 251.2872 
L 203.839318 153.0912 
" clip-path="url(#pf5be0900bf)" style="fill: none; stroke-dasharray: 0.8,1.32; stroke-dashoffset: 0; stroke: #b0b0b0; stroke-width: 0.8"/>
     </g>
     <g id="line2d_50">
      <g>
       <use xlink:href="#m51506dce22" x="203.839318" y="251.2872" style="stroke: #000000; stroke-width: 0.8"/>
      </g>
     </g>
     <g id="text_10">
      <!-- 2 -->
      <g transform="translate(201.339318 265.116888)scale(0.1 -0.1)">
       <use xlink:href="#STIXGeneral-Regular-32"/>
      </g>
     </g>
    </g>
    <g id="xtick_15">
     <g id="line2d_51">
      <path d="M 258.519091 251.2872 
L 258.519091 153.0912 
" clip-path="url(#pf5be0900bf)" style="fill: none; stroke-dasharray: 0.8,1.32; stroke-dashoffset: 0; stroke: #b0b0b0; stroke-width: 0.8"/>
     </g>
     <g id="line2d_52">
      <g>
       <use xlink:href="#m51506dce22" x="258.519091" y="251.2872" style="stroke: #000000; stroke-width: 0.8"/>
      </g>
     </g>
     <g id="text_11">
      <!-- 4 -->
      <g transform="translate(256.019091 265.116888)scale(0.1 -0.1)">
       <use xlink:href="#STIXGeneral-Regular-34"/>
      </g>
     </g>
    </g>
    <g id="text_12">
     <!-- $y^*_V/\sigma_{y,V}$ -->
     <g transform="translate(131.459545 280.3872)scale(0.1 -0.1)">
      <defs>
       <path id="DejaVuSans-Oblique-79" d="M 1588 -325 
Q 1188 -997 936 -1164 
Q 684 -1331 294 -1331 
L -159 -1331 
L -63 -850 
L 269 -850 
Q 509 -850 678 -719 
Q 847 -588 1056 -206 
L 1234 128 
L 459 3500 
L 1069 3500 
L 1650 819 
L 3256 3500 
L 3859 3500 
L 1588 -325 
z
" transform="scale(0.015625)"/>
       <path id="DejaVuSans-2a" d="M 3009 3897 
L 1888 3291 
L 3009 2681 
L 2828 2375 
L 1778 3009 
L 1778 1831 
L 1422 1831 
L 1422 3009 
L 372 2375 
L 191 2681 
L 1313 3291 
L 191 3897 
L 372 4206 
L 1422 3572 
L 1422 4750 
L 1778 4750 
L 1778 3572 
L 2828 4206 
L 3009 3897 
z
" transform="scale(0.015625)"/>
       <path id="DejaVuSans-Oblique-3c3" d="M 2219 3044 
Q 1744 3044 1422 2700 
Q 1081 2341 969 1747 
Q 844 1119 1044 756 
Q 1241 397 1706 397 
Q 2166 397 2503 759 
Q 2844 1122 2966 1747 
Q 3075 2319 2881 2700 
Q 2700 3044 2219 3044 
z
M 2309 3503 
L 4219 3500 
L 4106 2925 
L 3463 2925 
Q 3706 2438 3575 1747 
Q 3406 888 2884 400 
Q 2359 -91 1609 -91 
Q 856 -91 525 400 
Q 194 888 363 1747 
Q 528 2609 1050 3097 
Q 1484 3503 2309 3503 
z
" transform="scale(0.015625)"/>
       <path id="DejaVuSans-2c" d="M 750 794 
L 1409 794 
L 1409 256 
L 897 -744 
L 494 -744 
L 750 256 
L 750 794 
z
" transform="scale(0.015625)"/>
      </defs>
      <use xlink:href="#DejaVuSans-Oblique-79" transform="translate(0 0.765625)"/>
      <use xlink:href="#DejaVuSans-2a" transform="translate(77.283529 39.046875)scale(0.7)"/>
      <use xlink:href="#DejaVuSans-Oblique-56" transform="translate(59.179688 -26.578125)scale(0.7)"/>
      <use xlink:href="#DejaVuSans-2f" transform="translate(128.655599 0.765625)"/>
      <use xlink:href="#DejaVuSans-Oblique-3c3" transform="translate(162.347005 0.765625)"/>
      <use xlink:href="#DejaVuSans-Oblique-79" transform="translate(225.725911 -15.640625)scale(0.7)"/>
      <use xlink:href="#DejaVuSans-2c" transform="translate(267.151693 -15.640625)scale(0.7)"/>
      <use xlink:href="#DejaVuSans-Oblique-56" transform="translate(303.040365 -15.640625)scale(0.7)"/>
     </g>
    </g>
   </g>
   <g id="matplotlib.axis_6">
    <g id="ytick_7">
     <g id="line2d_53">
      <path d="M 39.8 246.400123 
L 258.519091 246.400123 
" clip-path="url(#pf5be0900bf)" style="fill: none; stroke-dasharray: 0.8,1.32; stroke-dashoffset: 0; stroke: #b0b0b0; stroke-width: 0.8"/>
     </g>
     <g id="line2d_54">
      <g>
       <use xlink:href="#m068b728571" x="39.8" y="246.400123" style="stroke: #000000; stroke-width: 0.8"/>
      </g>
     </g>
     <g id="text_13">
      <!-- 0.0 -->
      <g transform="translate(20.3 249.814967)scale(0.1 -0.1)">
       <use xlink:href="#STIXGeneral-Regular-30"/>
       <use xlink:href="#STIXGeneral-Regular-2e" x="49.999985"/>
       <use xlink:href="#STIXGeneral-Regular-30" x="74.999969"/>
      </g>
     </g>
    </g>
    <g id="ytick_8">
     <g id="line2d_55">
      <path d="M 39.8 210.169795 
L 258.519091 210.169795 
" clip-path="url(#pf5be0900bf)" style="fill: none; stroke-dasharray: 0.8,1.32; stroke-dashoffset: 0; stroke: #b0b0b0; stroke-width: 0.8"/>
     </g>
     <g id="line2d_56">
      <g>
       <use xlink:href="#m068b728571" x="39.8" y="210.169795" style="stroke: #000000; stroke-width: 0.8"/>
      </g>
     </g>
     <g id="text_14">
      <!-- 0.5 -->
      <g transform="translate(20.3 213.584638)scale(0.1 -0.1)">
       <use xlink:href="#STIXGeneral-Regular-30"/>
       <use xlink:href="#STIXGeneral-Regular-2e" x="49.999985"/>
       <use xlink:href="#STIXGeneral-Regular-35" x="74.999969"/>
      </g>
     </g>
    </g>
    <g id="ytick_9">
     <g id="line2d_57">
      <path d="M 39.8 173.939466 
L 258.519091 173.939466 
" clip-path="url(#pf5be0900bf)" style="fill: none; stroke-dasharray: 0.8,1.32; stroke-dashoffset: 0; stroke: #b0b0b0; stroke-width: 0.8"/>
     </g>
     <g id="line2d_58">
      <g>
       <use xlink:href="#m068b728571" x="39.8" y="173.939466" style="stroke: #000000; stroke-width: 0.8"/>
      </g>
     </g>
     <g id="text_15">
      <!-- 1.0 -->
      <g transform="translate(20.3 177.35431)scale(0.1 -0.1)">
       <use xlink:href="#STIXGeneral-Regular-31"/>
       <use xlink:href="#STIXGeneral-Regular-2e" x="49.999985"/>
       <use xlink:href="#STIXGeneral-Regular-30" x="74.999969"/>
      </g>
     </g>
    </g>
    <g id="text_16">
     <!-- $V/V_c$ [-] -->
     <g transform="translate(14.129688 219.0392)rotate(-90)scale(0.1 -0.1)">
      <use xlink:href="#DejaVuSans-Oblique-56" transform="translate(0 0.09375)"/>
      <use xlink:href="#DejaVuSans-2f" transform="translate(68.408203 0.09375)"/>
      <use xlink:href="#DejaVuSans-Oblique-56" transform="translate(102.099609 0.09375)"/>
      <use xlink:href="#DejaVuSans-Oblique-63" transform="translate(170.507812 -16.3125)scale(0.7)"/>
      <use xlink:href="#STIXGeneral-Regular-20" transform="translate(211.728516 0.09375)"/>
      <use xlink:href="#STIXGeneral-Regular-5b" transform="translate(236.7285 0.09375)"/>
      <use xlink:href="#STIXGeneral-Regular-2d" transform="translate(270.028488 0.09375)"/>
      <use xlink:href="#STIXGeneral-Regular-5d" transform="translate(303.328476 0.09375)"/>
     </g>
    </g>
   </g>
   <g id="line2d_59">
    <path d="M -1 242.894498 
L 0.506319 242.840393 
L 6.969503 242.58129 
L 13.432686 242.294802 
L 19.89587 241.983425 
L 26.359054 241.641087 
L 32.822238 241.263615 
L 39.285422 240.844418 
L 45.748605 240.375206 
L 52.211789 239.844283 
L 58.674973 239.235525 
L 65.138157 238.525415 
L 71.60134 237.680305 
L 78.064524 236.64964 
L 84.527708 235.35966 
L 90.990892 233.697934 
L 97.454075 231.49717 
L 103.917259 228.499102 
L 110.380443 224.305915 
L 116.843627 218.291978 
L 123.30681 209.565662 
L 129.769994 197.225822 
L 136.233178 182.167134 
L 142.696362 168.936223 
L 149.159545 163.85709 
L 155.622729 169.50593 
L 162.085913 181.569005 
L 168.549097 193.989306 
L 175.01228 205.602561 
L 181.475464 217.056967 
L 187.938648 224.051548 
L 194.401832 225.013416 
L 200.865016 227.175681 
L 207.328199 230.016245 
L 213.791383 232.47963 
L 220.254567 234.478706 
L 226.717751 236.008901 
L 233.180934 237.179722 
L 239.644118 238.093727 
L 246.107302 238.826529 
L 252.570486 239.429107 
L 259.033669 239.935928 
L 265.496853 240.370565 
L 271.960037 240.74938 
L 278.423221 241.084096 
L 284.886404 241.383114 
L 291.349588 241.652684 
L 297.812772 241.898142 
L 304.275956 242.121471 
L 311.083061 242.331438 
L 319.019054 242.5577 
L 328.692786 242.812267 
L 340.473522 243.085256 
L 354.803526 243.377672 
L 372.209839 243.681985 
L 393.316642 243.994002 
L 418.857496 244.305621 
L 449.686283 244.610078 
L 486.785115 244.899243 
L 531.266741 245.166036 
L 584.367862 245.404358 
L 617.649977 245.513037 
" clip-path="url(#pf5be0900bf)" style="fill: none; stroke: #1f77b4; stroke-width: 2; stroke-linecap: square"/>
   </g>
   <g id="line2d_60">
    <path d="M -1 242.839415 
L 2.896093 242.691509 
L 12.217617 242.285935 
L 19.87197 241.908866 
L 26.151337 241.571756 
L 31.537468 241.262983 
L 36.651471 240.936606 
L 41.765475 240.577845 
L 46.879478 240.188519 
L 51.993481 239.761631 
L 57.107485 239.291714 
L 62.221488 238.770755 
L 67.335491 238.188483 
L 72.449495 237.530882 
L 77.563498 236.778481 
L 82.677502 235.904 
L 87.791505 234.867811 
L 92.905508 233.613134 
L 98.019512 232.054574 
L 103.133515 230.067332 
L 108.247518 227.457897 
L 113.361522 223.942659 
L 118.475525 219.094165 
L 123.589529 212.410832 
L 128.703532 203.367335 
L 133.817535 191.971553 
L 138.931539 179.834766 
L 144.045542 169.770315 
L 149.159545 164.579677 
L 154.273549 166.02925 
L 159.387552 172.977014 
L 164.501556 182.169642 
L 169.615559 191.858695 
L 174.729562 201.856549 
L 179.843566 211.763739 
L 184.957569 219.074859 
L 190.071572 221.941958 
L 195.185576 224.009481 
L 200.299579 226.580448 
L 205.413583 229.050746 
L 210.527586 231.237178 
L 215.641589 233.041609 
L 220.755593 234.488641 
L 225.869596 235.65534 
L 230.983599 236.613446 
L 236.097603 237.416334 
L 241.211606 238.101499 
L 246.32561 238.695156 
L 251.439613 239.215945 
L 256.553616 239.677644 
L 261.66762 240.089837 
L 266.781623 240.462435 
L 271.895626 240.795668 
L 277.281758 241.107337 
L 283.561124 241.441634 
L 291.215478 241.808586 
L 300.537002 242.195777 
L 311.875638 242.599983 
L 325.648409 243.009372 
L 342.349196 243.415772 
L 362.558434 243.808186 
L 386.951755 244.179829 
L 416.306259 244.524169 
L 451.502409 244.837845 
L 493.518747 245.118114 
L 543.416252 245.363498 
L 602.308161 245.573228 
L 617.649977 245.612051 
" clip-path="url(#pf5be0900bf)" style="fill: none; stroke: #ff7f0e; stroke-width: 2; stroke-linecap: square"/>
   </g>
   <g id="line2d_61">
    <path d="M -1 243.001013 
L 1.207102 242.921853 
L 14.345021 242.339083 
L 25.179572 241.760843 
L 34.099275 241.200523 
L 41.432187 240.672778 
L 47.453596 240.181585 
L 52.39335 239.741759 
L 56.630429 239.337933 
L 60.653434 238.910972 
L 64.676439 238.441107 
L 68.699444 237.930526 
L 72.722449 237.370111 
L 76.745454 236.752644 
L 80.768459 236.067854 
L 84.791464 235.302608 
L 88.814469 234.439488 
L 92.837474 233.454531 
L 96.86048 232.315019 
L 100.883485 230.973667 
L 104.90649 229.363813 
L 108.929495 227.385521 
L 112.9525 224.89462 
L 116.975505 221.676684 
L 120.99851 217.445394 
L 125.021515 211.859315 
L 129.04452 204.632431 
L 133.067525 195.572533 
L 137.09053 185.121104 
L 141.113535 174.952054 
L 145.13654 167.211899 
L 149.159545 163.543063 
L 153.182551 164.483618 
L 157.205556 169.037983 
L 161.228561 175.586238 
L 165.251566 183.111881 
L 169.274571 191.214469 
L 173.297576 199.598709 
L 177.320581 207.617979 
L 181.343586 213.885058 
L 185.366591 217.456938 
L 189.389596 219.740624 
L 193.412601 222.075635 
L 197.435606 224.492194 
L 201.458611 226.830452 
L 205.481616 228.916585 
L 209.504621 230.672803 
L 213.527627 232.132156 
L 217.550632 233.357002 
L 221.573637 234.401604 
L 225.596642 235.306102 
L 229.619647 236.099131 
L 233.642652 236.801907 
L 237.665657 237.428816 
L 241.688662 237.995333 
L 245.711667 238.500917 
L 249.948746 238.973308 
L 254.888501 239.480297 
L 260.909909 240.034408 
L 268.242822 240.617116 
L 277.162524 241.22114 
L 287.997074 241.827795 
L 301.134992 242.421696 
L 317.032882 242.984476 
L 336.222243 243.504227 
L 359.31439 243.971463 
L 387.001953 244.383827 
L 420.054716 244.741984 
L 459.307313 245.049637 
L 505.635489 245.310648 
L 559.917917 245.528885 
L 617.649977 245.692825 
" clip-path="url(#pf5be0900bf)" style="fill: none; stroke: #2ca02c; stroke-width: 2; stroke-linecap: square"/>
   </g>
   <g id="line2d_62">
    <path d="M -1 243.222064 
L -0.649182 243.2105 
L 15.056337 242.534521 
L 28.067954 241.823044 
L 38.820676 241.094707 
L 47.688208 240.370567 
L 54.988534 239.667051 
L 60.990152 239.002863 
L 65.91837 238.383302 
L 69.961309 237.827054 
L 73.429144 237.3155 
L 76.72177 236.774319 
L 80.014396 236.177914 
L 83.307022 235.529225 
L 86.599648 234.816679 
L 89.892275 234.031325 
L 93.184901 233.160535 
L 96.477527 232.188387 
L 99.770153 231.094128 
L 103.062779 229.849569 
L 106.355405 228.416648 
L 109.648032 226.741118 
L 112.940658 224.746981 
L 116.233284 222.323978 
L 119.52591 219.320481 
L 122.818536 215.537691 
L 126.111162 210.756411 
L 129.403788 204.782934 
L 132.696415 197.490223 
L 135.989041 188.885463 
L 139.281667 179.579039 
L 142.574293 171.098931 
L 145.866919 165.104708 
L 149.159545 162.542802 
L 152.452172 163.379216 
L 155.744798 166.805607 
L 159.037424 171.86697 
L 162.33005 177.894199 
L 165.622676 184.511811 
L 168.915302 191.463367 
L 172.207929 198.43283 
L 175.500555 204.882019 
L 178.793181 210.050617 
L 182.085807 213.538097 
L 185.378433 215.955746 
L 188.671059 218.161136 
L 191.963686 220.466772 
L 195.256312 222.843188 
L 198.548938 225.100415 
L 201.841564 227.084143 
L 205.13419 228.775093 
L 208.426816 230.218639 
L 211.719443 231.465921 
L 215.012069 232.557427 
L 218.304695 233.523611 
L 221.597321 234.385021 
L 224.889947 235.163345 
L 228.182573 235.858091 
L 231.650408 236.50715 
L 235.693347 237.204164 
L 240.621566 237.966317 
L 246.623184 238.768009 
L 253.923509 239.598828 
L 262.79104 240.43306 
L 273.543761 241.248089 
L 286.55538 242.017227 
L 302.260901 242.721779 
L 321.160656 243.34676 
L 343.821526 243.887829 
L 370.87354 244.346507 
L 402.999806 244.730627 
L 440.917075 245.049497 
L 485.344496 245.312547 
L 536.95821 245.527552 
L 596.330933 245.701096 
L 617.649977 245.744633 
" clip-path="url(#pf5be0900bf)" style="fill: none; stroke: #d62728; stroke-width: 2; stroke-linecap: square"/>
   </g>
   <g id="line2d_63">
    <path d="M -1 243.368641 
L 3.835711 243.205624 
L 20.115778 242.470076 
L 33.644358 241.670834 
L 44.852438 240.827762 
L 54.114727 239.962196 
L 61.753131 239.099494 
L 68.04156 238.259559 
L 73.211295 237.465035 
L 77.456414 236.722706 
L 80.938962 236.055077 
L 83.926121 235.44056 
L 86.762357 234.790237 
L 89.598593 234.073026 
L 92.434828 233.292677 
L 95.271064 232.435341 
L 98.1073 231.490565 
L 100.943536 230.44366 
L 103.779772 229.276371 
L 106.616008 227.965109 
L 109.452244 226.478189 
L 112.288479 224.773181 
L 115.124715 222.790919 
L 117.960951 220.450736 
L 120.797187 217.644019 
L 123.633423 214.237302 
L 126.469659 210.086279 
L 129.305894 205.063365 
L 132.14213 199.076939 
L 134.978366 192.082217 
L 137.814602 184.210545 
L 140.650838 176.127185 
L 143.487074 169.119059 
L 146.32331 164.390856 
L 149.159545 162.460553 
L 151.995781 163.144311 
L 154.832017 165.845378 
L 157.668253 169.921979 
L 160.504489 174.880689 
L 163.340725 180.393917 
L 166.176961 186.232634 
L 169.013196 192.184021 
L 171.849432 197.972177 
L 174.685668 203.212967 
L 177.521904 207.494294 
L 180.35814 210.667702 
L 183.194376 213.071005 
L 186.030612 215.231908 
L 188.866847 217.477442 
L 191.703083 219.854188 
L 194.539319 222.189873 
L 197.375555 224.302736 
L 200.211791 226.139444 
L 203.048027 227.728226 
L 205.884263 229.114301 
L 208.720498 230.337578 
L 211.556734 231.426007 
L 214.39297 232.408239 
L 217.229206 233.284553 
L 220.216365 234.102897 
L 223.698913 234.981635 
L 227.944032 235.942825 
L 233.113767 236.954201 
L 239.402195 238.002866 
L 247.0406 239.056758 
L 256.302888 240.087031 
L 267.510969 241.059424 
L 281.03955 241.948964 
L 297.319614 242.735071 
L 316.839464 243.410471 
L 340.141804 243.975759 
L 367.815054 244.440878 
L 400.476617 244.819127 
L 438.745962 245.125259 
L 483.205508 245.37204 
L 534.348589 245.569992 
L 592.516236 245.727388 
" clip-path="url(#pf5be0900bf)" style="fill: none; stroke: #9467bd; stroke-width: 2; stroke-linecap: square"/>
   </g>
   <g id="patch_13">
    <path d="M 39.8 251.2872 
L 39.8 153.0912 
" style="fill: none; stroke: #000000; stroke-width: 0.8; stroke-linejoin: miter; stroke-linecap: square"/>
   </g>
   <g id="patch_14">
    <path d="M 258.519091 251.2872 
L 258.519091 153.0912 
" style="fill: none; stroke: #000000; stroke-width: 0.8; stroke-linejoin: miter; stroke-linecap: square"/>
   </g>
   <g id="patch_15">
    <path d="M 39.8 251.2872 
L 258.519091 251.2872 
" style="fill: none; stroke: #000000; stroke-width: 0.8; stroke-linejoin: miter; stroke-linecap: square"/>
   </g>
   <g id="patch_16">
    <path d="M 39.8 153.0912 
L 258.519091 153.0912 
" style="fill: none; stroke: #000000; stroke-width: 0.8; stroke-linejoin: miter; stroke-linecap: square"/>
   </g>
   <g id="text_17">
    <!-- $\gamma = 30^\circ$ -->
    <g transform="translate(126.119545 147.0912)scale(0.12 -0.12)">
     <defs>
      <path id="DejaVuSans-33" d="M 2597 2516 
Q 3050 2419 3304 2112 
Q 3559 1806 3559 1356 
Q 3559 666 3084 287 
Q 2609 -91 1734 -91 
Q 1441 -91 1130 -33 
Q 819 25 488 141 
L 488 750 
Q 750 597 1062 519 
Q 1375 441 1716 441 
Q 2309 441 2620 675 
Q 2931 909 2931 1356 
Q 2931 1769 2642 2001 
Q 2353 2234 1838 2234 
L 1294 2234 
L 1294 2753 
L 1863 2753 
Q 2328 2753 2575 2939 
Q 2822 3125 2822 3475 
Q 2822 3834 2567 4026 
Q 2313 4219 1838 4219 
Q 1578 4219 1281 4162 
Q 984 4106 628 3988 
L 628 4550 
Q 988 4650 1302 4700 
Q 1616 4750 1894 4750 
Q 2613 4750 3031 4423 
Q 3450 4097 3450 3541 
Q 3450 3153 3228 2886 
Q 3006 2619 2597 2516 
z
" transform="scale(0.015625)"/>
     </defs>
     <use xlink:href="#DejaVuSans-Oblique-3b3" transform="translate(0 0.78125)"/>
     <use xlink:href="#DejaVuSans-3d" transform="translate(78.662109 0.78125)"/>
     <use xlink:href="#DejaVuSans-33" transform="translate(181.933594 0.78125)"/>
     <use xlink:href="#DejaVuSans-30" transform="translate(245.556641 0.78125)"/>
     <use xlink:href="#DejaVuSans-2218" transform="translate(323.774414 39.0625)scale(0.7)"/>
    </g>
   </g>
  </g>
  <g id="axes_4">
   <g id="patch_17">
    <path d="M 302.262909 251.2872 
L 520.982 251.2872 
L 520.982 153.0912 
L 302.262909 153.0912 
z
" style="fill: #ffffff"/>
   </g>
   <g id="matplotlib.axis_7">
    <g id="xtick_16">
     <g id="line2d_64">
      <path d="M 302.262909 251.2872 
L 302.262909 153.0912 
" clip-path="url(#pe3e5c9beed)" style="fill: none; stroke-dasharray: 0.8,1.32; stroke-dashoffset: 0; stroke: #b0b0b0; stroke-width: 0.8"/>
     </g>
     <g id="line2d_65">
      <g>
       <use xlink:href="#m51506dce22" x="302.262909" y="251.2872" style="stroke: #000000; stroke-width: 0.8"/>
      </g>
     </g>
     <g id="text_18">
      <!-- −4 -->
      <g transform="translate(296.337909 265.116888)scale(0.1 -0.1)">
       <use xlink:href="#STIXGeneral-Regular-2212"/>
       <use xlink:href="#STIXGeneral-Regular-34" x="68.499985"/>
      </g>
     </g>
    </g>
    <g id="xtick_17">
     <g id="line2d_66">
      <path d="M 356.942682 251.2872 
L 356.942682 153.0912 
" clip-path="url(#pe3e5c9beed)" style="fill: none; stroke-dasharray: 0.8,1.32; stroke-dashoffset: 0; stroke: #b0b0b0; stroke-width: 0.8"/>
     </g>
     <g id="line2d_67">
      <g>
       <use xlink:href="#m51506dce22" x="356.942682" y="251.2872" style="stroke: #000000; stroke-width: 0.8"/>
      </g>
     </g>
     <g id="text_19">
      <!-- −2 -->
      <g transform="translate(351.017682 265.116888)scale(0.1 -0.1)">
       <use xlink:href="#STIXGeneral-Regular-2212"/>
       <use xlink:href="#STIXGeneral-Regular-32" x="68.499985"/>
      </g>
     </g>
    </g>
    <g id="xtick_18">
     <g id="line2d_68">
      <path d="M 411.622455 251.2872 
L 411.622455 153.0912 
" clip-path="url(#pe3e5c9beed)" style="fill: none; stroke-dasharray: 0.8,1.32; stroke-dashoffset: 0; stroke: #b0b0b0; stroke-width: 0.8"/>
     </g>
     <g id="line2d_69">
      <g>
       <use xlink:href="#m51506dce22" x="411.622455" y="251.2872" style="stroke: #000000; stroke-width: 0.8"/>
      </g>
     </g>
     <g id="text_20">
      <!-- 0 -->
      <g transform="translate(409.122455 265.116888)scale(0.1 -0.1)">
       <use xlink:href="#STIXGeneral-Regular-30"/>
      </g>
     </g>
    </g>
    <g id="xtick_19">
     <g id="line2d_70">
      <path d="M 466.302227 251.2872 
L 466.302227 153.0912 
" clip-path="url(#pe3e5c9beed)" style="fill: none; stroke-dasharray: 0.8,1.32; stroke-dashoffset: 0; stroke: #b0b0b0; stroke-width: 0.8"/>
     </g>
     <g id="line2d_71">
      <g>
       <use xlink:href="#m51506dce22" x="466.302227" y="251.2872" style="stroke: #000000; stroke-width: 0.8"/>
      </g>
     </g>
     <g id="text_21">
      <!-- 2 -->
      <g transform="translate(463.802227 265.116888)scale(0.1 -0.1)">
       <use xlink:href="#STIXGeneral-Regular-32"/>
      </g>
     </g>
    </g>
    <g id="xtick_20">
     <g id="line2d_72">
      <path d="M 520.982 251.2872 
L 520.982 153.0912 
" clip-path="url(#pe3e5c9beed)" style="fill: none; stroke-dasharray: 0.8,1.32; stroke-dashoffset: 0; stroke: #b0b0b0; stroke-width: 0.8"/>
     </g>
     <g id="line2d_73">
      <g>
       <use xlink:href="#m51506dce22" x="520.982" y="251.2872" style="stroke: #000000; stroke-width: 0.8"/>
      </g>
     </g>
     <g id="text_22">
      <!-- 4 -->
      <g transform="translate(518.482 265.116888)scale(0.1 -0.1)">
       <use xlink:href="#STIXGeneral-Regular-34"/>
      </g>
     </g>
    </g>
    <g id="text_23">
     <!-- $y^*_V/\sigma_{y,V}$ -->
     <g transform="translate(393.922455 280.3872)scale(0.1 -0.1)">
      <use xlink:href="#DejaVuSans-Oblique-79" transform="translate(0 0.765625)"/>
      <use xlink:href="#DejaVuSans-2a" transform="translate(77.283529 39.046875)scale(0.7)"/>
      <use xlink:href="#DejaVuSans-Oblique-56" transform="translate(59.179688 -26.578125)scale(0.7)"/>
      <use xlink:href="#DejaVuSans-2f" transform="translate(128.655599 0.765625)"/>
      <use xlink:href="#DejaVuSans-Oblique-3c3" transform="translate(162.347005 0.765625)"/>
      <use xlink:href="#DejaVuSans-Oblique-79" transform="translate(225.725911 -15.640625)scale(0.7)"/>
      <use xlink:href="#DejaVuSans-2c" transform="translate(267.151693 -15.640625)scale(0.7)"/>
      <use xlink:href="#DejaVuSans-Oblique-56" transform="translate(303.040365 -15.640625)scale(0.7)"/>
     </g>
    </g>
   </g>
   <g id="matplotlib.axis_8">
    <g id="ytick_10">
     <g id="line2d_74">
      <path d="M 302.262909 246.400123 
L 520.982 246.400123 
" clip-path="url(#pe3e5c9beed)" style="fill: none; stroke-dasharray: 0.8,1.32; stroke-dashoffset: 0; stroke: #b0b0b0; stroke-width: 0.8"/>
     </g>
     <g id="line2d_75">
      <g>
       <use xlink:href="#m068b728571" x="302.262909" y="246.400123" style="stroke: #000000; stroke-width: 0.8"/>
      </g>
     </g>
    </g>
    <g id="ytick_11">
     <g id="line2d_76">
      <path d="M 302.262909 210.169795 
L 520.982 210.169795 
" clip-path="url(#pe3e5c9beed)" style="fill: none; stroke-dasharray: 0.8,1.32; stroke-dashoffset: 0; stroke: #b0b0b0; stroke-width: 0.8"/>
     </g>
     <g id="line2d_77">
      <g>
       <use xlink:href="#m068b728571" x="302.262909" y="210.169795" style="stroke: #000000; stroke-width: 0.8"/>
      </g>
     </g>
    </g>
    <g id="ytick_12">
     <g id="line2d_78">
      <path d="M 302.262909 173.939466 
L 520.982 173.939466 
" clip-path="url(#pe3e5c9beed)" style="fill: none; stroke-dasharray: 0.8,1.32; stroke-dashoffset: 0; stroke: #b0b0b0; stroke-width: 0.8"/>
     </g>
     <g id="line2d_79">
      <g>
       <use xlink:href="#m068b728571" x="302.262909" y="173.939466" style="stroke: #000000; stroke-width: 0.8"/>
      </g>
     </g>
    </g>
   </g>
   <g id="line2d_80">
    <path d="M -1 245.948193 
L 4.918187 245.933849 
L 52.263185 245.760545 
L 91.75016 245.551674 
L 124.56346 245.311994 
L 151.748431 245.048888 
L 174.213926 244.772173 
L 192.740723 244.491539 
L 207.993181 244.216073 
L 220.532269 243.953727 
L 230.828719 243.708347 
L 239.27557 243.487285 
L 246.520863 243.284664 
L 253.400096 243.069977 
L 260.279329 242.832789 
L 267.158562 242.574862 
L 274.037795 242.291132 
L 280.917028 241.978119 
L 287.796261 241.630043 
L 294.675494 241.240196 
L 301.554727 240.798213 
L 308.43396 240.291227 
L 315.313193 239.698435 
L 322.192426 238.993154 
L 329.071659 238.130993 
L 335.950892 237.053344 
L 342.830125 235.662371 
L 349.709358 233.824612 
L 356.588591 231.319818 
L 363.467824 227.838752 
L 370.347057 222.875808 
L 377.22629 215.716615 
L 384.105523 205.2591 
L 390.984756 191.020972 
L 397.863989 175.831551 
L 404.743222 165.136232 
L 411.622455 165.045537 
L 418.501688 176.604213 
L 425.380921 191.615078 
L 432.260153 205.128476 
L 439.139386 216.610535 
L 446.018619 221.711075 
L 452.897852 224.323076 
L 459.777085 227.764225 
L 466.656318 230.764669 
L 473.535551 233.209355 
L 480.414784 235.09332 
L 487.294017 236.52136 
L 494.17325 237.622056 
L 501.052483 238.491698 
L 507.931716 239.19666 
L 514.810949 239.782036 
L 521.690182 240.278303 
L 528.569415 240.706624 
L 535.448648 241.081828 
L 542.327881 241.414537 
L 549.207114 241.712571 
L 556.086347 241.981531 
L 562.96558 242.226852 
L 569.844813 242.449379 
L 577.090106 242.658676 
L 585.536957 242.884866 
L 595.833408 243.137906 
L 608.372496 243.408701 
L 617.649977 243.583828 
" clip-path="url(#pe3e5c9beed)" style="fill: none; stroke: #1f77b4; stroke-width: 2; stroke-linecap: square"/>
   </g>
   <g id="line2d_81">
    <path d="M -1 245.914409 
L 28.599195 245.827123 
L 75.333051 245.620519 
L 114.480959 245.371549 
L 147.131345 245.084338 
L 174.263504 244.766544 
L 196.741797 244.427887 
L 215.317722 244.079242 
L 230.636877 243.731546 
L 243.248596 243.393721 
L 253.616725 243.074854 
L 262.130496 242.777817 
L 269.114899 242.51165 
L 275.105776 242.2674 
L 280.793971 242.009031 
L 286.482166 241.724475 
L 292.170361 241.415216 
L 297.858556 241.075454 
L 303.546751 240.700854 
L 309.234946 240.284639 
L 314.923141 239.818707 
L 320.611336 239.291199 
L 326.299531 238.686766 
L 331.987725 237.982453 
L 337.67592 237.146805 
L 343.364115 236.132457 
L 349.05231 234.870948 
L 354.740505 233.259747 
L 360.4287 231.143737 
L 366.116895 228.295225 
L 371.80509 224.365954 
L 377.493285 218.884972 
L 383.18148 211.26415 
L 388.869675 200.899192 
L 394.55787 188.48205 
L 400.246065 176.675158 
L 405.93426 168.120579 
L 411.622455 165.05604 
L 417.310649 169.609002 
L 422.998844 180.076995 
L 428.687039 191.447458 
L 434.375234 202.349047 
L 440.063429 212.780732 
L 445.751624 219.381347 
L 451.439819 222.787688 
L 457.128014 225.989438 
L 462.816209 228.805356 
L 468.504404 231.201541 
L 474.192599 233.161132 
L 479.880794 234.720027 
L 485.568989 235.9615 
L 491.257184 236.965918 
L 496.945379 237.795592 
L 502.633574 238.494884 
L 508.321768 239.094611 
L 514.009963 239.61657 
L 519.698158 240.076264 
L 525.386353 240.485277 
L 531.074548 240.851619 
L 536.762743 241.183786 
L 542.450938 241.481713 
L 548.441815 241.760848 
L 555.426218 242.061229 
L 563.93999 242.392093 
L 574.308119 242.742446 
L 586.919837 243.109221 
L 602.238991 243.481884 
L 617.649977 243.789207 
" clip-path="url(#pe3e5c9beed)" style="fill: none; stroke: #ff7f0e; stroke-width: 2; stroke-linecap: square"/>
   </g>
   <g id="line2d_82">
    <path d="M -1 245.937562 
L 2.30718 245.930243 
L 55.502454 245.74666 
L 100.573334 245.512931 
L 138.525402 245.227636 
L 170.317003 244.893075 
L 196.832034 244.515018 
L 218.865772 244.102363 
L 237.120155 243.666499 
L 252.205467 243.219635 
L 264.645989 242.775063 
L 274.887833 242.343194 
L 283.30768 241.935569 
L 290.221623 241.555516 
L 295.893583 241.214496 
L 300.75871 240.901064 
L 305.378033 240.569501 
L 309.997355 240.204074 
L 314.616678 239.806619 
L 319.236001 239.369813 
L 323.855324 238.888031 
L 328.474646 238.352988 
L 333.093969 237.754366 
L 337.713292 237.078138 
L 342.332614 236.305285 
L 346.951937 235.409486 
L 351.57126 234.35275 
L 356.190582 233.081687 
L 360.809905 231.515249 
L 365.429228 229.538431 
L 370.04855 226.973207 
L 374.667873 223.57623 
L 379.287196 218.995834 
L 383.906518 212.851066 
L 388.525841 204.753243 
L 393.145164 194.558861 
L 397.764486 183.446538 
L 402.383809 173.681978 
L 407.003132 167.091262 
L 411.622455 164.896082 
L 416.241777 167.763767 
L 420.8611 174.562692 
L 425.480423 182.980801 
L 430.099745 191.812235 
L 434.719068 200.859096 
L 439.338391 209.435967 
L 443.957713 215.715624 
L 448.577036 219.631973 
L 453.196359 222.774975 
L 457.815681 225.536429 
L 462.435004 227.978254 
L 467.054327 230.087615 
L 471.673649 231.846125 
L 476.292972 233.29245 
L 480.912295 234.490284 
L 485.531617 235.498085 
L 490.15094 236.360248 
L 494.770263 237.108829 
L 499.389586 237.76669 
L 504.008908 238.350895 
L 508.628231 238.873068 
L 513.247554 239.345791 
L 517.866876 239.768558 
L 522.732004 240.164086 
L 528.403963 240.589375 
L 535.317907 241.05566 
L 543.737754 241.547561 
L 553.979597 242.059361 
L 566.420119 242.575676 
L 581.505429 243.083608 
L 599.759815 243.567629 
L 617.649977 243.932262 
" clip-path="url(#pe3e5c9beed)" style="fill: none; stroke: #2ca02c; stroke-width: 2; stroke-linecap: square"/>
   </g>
   <g id="line2d_83">
    <path d="M -1 245.95409 
L 20.786849 245.902951 
L 72.436457 245.712883 
L 116.517617 245.467067 
L 153.866361 245.161466 
L 185.315982 244.795117 
L 211.660627 244.370522 
L 233.632754 243.893967 
L 251.891382 243.375099 
L 267.018184 242.827322 
L 279.518882 242.264982 
L 289.827931 241.704721 
L 298.315007 241.159545 
L 305.292255 240.644155 
L 311.021611 240.162934 
L 315.721775 239.730357 
L 319.753345 239.332397 
L 323.581225 238.911322 
L 327.409104 238.446904 
L 331.236984 237.941578 
L 335.064863 237.38618 
L 338.892743 236.773683 
L 342.720622 236.094101 
L 346.548502 235.334816 
L 350.376382 234.47941 
L 354.204261 233.505295 
L 358.032141 232.382279 
L 361.86002 231.066365 
L 365.6879 229.496954 
L 369.515779 227.582513 
L 373.343659 225.196126 
L 377.171539 222.151157 
L 380.999418 218.212102 
L 384.827298 213.088646 
L 388.655177 206.534831 
L 392.483057 198.374737 
L 396.310936 188.749119 
L 400.138816 178.896196 
L 403.966695 170.699059 
L 407.794575 165.54816 
L 411.622455 164.146264 
L 415.450334 166.41813 
L 419.278214 171.394589 
L 423.106093 177.846547 
L 426.933973 185.020471 
L 430.761852 192.588077 
L 434.589732 200.23021 
L 438.417611 207.254646 
L 442.245491 212.7199 
L 446.073371 216.584183 
L 449.90125 219.626093 
L 453.72913 222.296027 
L 457.557009 224.741264 
L 461.384889 226.954204 
L 465.212768 228.875489 
L 469.040648 230.501554 
L 472.868528 231.87603 
L 476.696407 233.050599 
L 480.524287 234.068181 
L 484.352166 234.960714 
L 488.180046 235.752155 
L 492.007925 236.458763 
L 495.835805 237.097953 
L 499.663684 237.669187 
L 503.695254 238.203293 
L 508.395419 238.777451 
L 514.124775 239.406394 
L 521.102023 240.069245 
L 529.589099 240.75785 
L 539.898147 241.451314 
L 552.398843 242.131344 
L 567.525647 242.776193 
L 585.784277 243.370059 
L 607.7564 243.899984 
L 617.649977 244.073108 
" clip-path="url(#pe3e5c9beed)" style="fill: none; stroke: #d62728; stroke-width: 2; stroke-linecap: square"/>
   </g>
   <g id="line2d_84">
    <path d="M -1 245.968366 
L 26.046681 245.907903 
L 77.364519 245.726129 
L 121.53729 245.486327 
L 159.237226 245.1818 
L 191.179337 244.808052 
L 218.076285 244.363511 
L 240.607259 243.850037 
L 259.398684 243.274154 
L 275.014178 242.646394 
L 287.951213 241.982623 
L 298.642299 241.299848 
L 307.459002 240.618496 
L 314.717482 239.954602 
L 320.684698 239.326178 
L 325.584668 238.738816 
L 329.604433 238.21024 
L 333.05239 237.723732 
L 336.326143 237.208923 
L 339.599895 236.640962 
L 342.873648 236.02297 
L 346.147401 235.343903 
L 349.421153 234.595425 
L 352.694906 233.765871 
L 355.968659 232.840581 
L 359.242411 231.80081 
L 362.516164 230.620903 
L 365.789917 229.266962 
L 369.063669 227.690153 
L 372.337422 225.823856 
L 375.611175 223.571087 
L 378.884928 220.802726 
L 382.15868 217.346001 
L 385.432433 213.007072 
L 388.706186 207.589607 
L 391.979938 200.96772 
L 395.253691 193.106214 
L 398.527444 184.266078 
L 401.801196 175.586529 
L 405.074949 168.636536 
L 408.348702 164.488818 
L 411.622455 163.506685 
L 414.896207 165.369871 
L 418.16996 169.314273 
L 421.443713 174.549019 
L 424.717465 180.532935 
L 427.991218 186.954835 
L 431.264971 193.570492 
L 434.538723 200.041601 
L 437.812476 205.851738 
L 441.086229 210.527647 
L 444.359982 214.09738 
L 447.633734 216.990055 
L 450.907487 219.566851 
L 454.18124 221.99526 
L 457.454992 224.264267 
L 460.728745 226.291369 
L 464.002498 228.045419 
L 467.27625 229.552806 
L 470.550003 230.85746 
L 473.823756 231.999089 
L 477.097508 233.009285 
L 480.371261 233.909817 
L 483.645014 234.723552 
L 486.918767 235.450296 
L 490.366723 236.129429 
L 494.386488 236.859229 
L 499.286458 237.6584 
L 505.253675 238.500313 
L 512.512154 239.374573 
L 521.328857 240.25473 
L 532.019942 241.117195 
L 544.956978 241.933865 
L 560.572475 242.683965 
L 579.363895 243.350243 
L 601.894872 243.92581 
L 617.649977 244.209474 
" clip-path="url(#pe3e5c9beed)" style="fill: none; stroke: #9467bd; stroke-width: 2; stroke-linecap: square"/>
   </g>
   <g id="patch_18">
    <path d="M 302.262909 251.2872 
L 302.262909 153.0912 
" style="fill: none; stroke: #000000; stroke-width: 0.8; stroke-linejoin: miter; stroke-linecap: square"/>
   </g>
   <g id="patch_19">
    <path d="M 520.982 251.2872 
L 520.982 153.0912 
" style="fill: none; stroke: #000000; stroke-width: 0.8; stroke-linejoin: miter; stroke-linecap: square"/>
   </g>
   <g id="patch_20">
    <path d="M 302.262909 251.2872 
L 520.982 251.2872 
" style="fill: none; stroke: #000000; stroke-width: 0.8; stroke-linejoin: miter; stroke-linecap: square"/>
   </g>
   <g id="patch_21">
    <path d="M 302.262909 153.0912 
L 520.982 153.0912 
" style="fill: none; stroke: #000000; stroke-width: 0.8; stroke-linejoin: miter; stroke-linecap: square"/>
   </g>
   <g id="text_24">
    <!-- $\gamma = 40^\circ$ -->
    <g transform="translate(388.582455 147.0912)scale(0.12 -0.12)">
     <defs>
      <path id="DejaVuSans-34" d="M 2419 4116 
L 825 1625 
L 2419 1625 
L 2419 4116 
z
M 2253 4666 
L 3047 4666 
L 3047 1625 
L 3713 1625 
L 3713 1100 
L 3047 1100 
L 3047 0 
L 2419 0 
L 2419 1100 
L 313 1100 
L 313 1709 
L 2253 4666 
z
" transform="scale(0.015625)"/>
     </defs>
     <use xlink:href="#DejaVuSans-Oblique-3b3" transform="translate(0 0.78125)"/>
     <use xlink:href="#DejaVuSans-3d" transform="translate(78.662109 0.78125)"/>
     <use xlink:href="#DejaVuSans-34" transform="translate(181.933594 0.78125)"/>
     <use xlink:href="#DejaVuSans-30" transform="translate(245.556641 0.78125)"/>
     <use xlink:href="#DejaVuSans-2218" transform="translate(323.774414 39.0625)scale(0.7)"/>
    </g>
   </g>
   <g id="legend_1">
    <g id="patch_22">
     <path d="M 533.449977 180.197381 
L 607.449977 180.197381 
Q 609.449977 180.197381 609.449977 178.197381 
L 609.449977 108.345819 
Q 609.449977 106.345819 607.449977 106.345819 
L 533.449977 106.345819 
Q 531.449977 106.345819 531.449977 108.345819 
L 531.449977 178.197381 
Q 531.449977 180.197381 533.449977 180.197381 
z
" style="fill: #ffffff; opacity: 0.8; stroke: #cccccc; stroke-linejoin: miter"/>
    </g>
    <g id="line2d_85">
     <path d="M 535.449977 113.845819 
L 545.449977 113.845819 
L 555.449977 113.845819 
" style="fill: none; stroke: #1f77b4; stroke-width: 2; stroke-linecap: square"/>
    </g>
    <g id="text_25">
     <!-- $x/D = 5$ -->
     <g transform="translate(563.449977 117.345819)scale(0.1 -0.1)">
      <defs>
       <path id="DejaVuSans-Oblique-78" d="M 3841 3500 
L 2234 1784 
L 3219 0 
L 2559 0 
L 1819 1388 
L 531 0 
L -166 0 
L 1556 1844 
L 641 3500 
L 1300 3500 
L 1972 2234 
L 3144 3500 
L 3841 3500 
z
" transform="scale(0.015625)"/>
       <path id="DejaVuSans-Oblique-44" d="M 1081 4666 
L 2438 4666 
Q 3519 4666 4070 4208 
Q 4622 3750 4622 2847 
Q 4622 2250 4412 1698 
Q 4203 1147 3834 769 
Q 3463 381 2891 190 
Q 2319 0 1538 0 
L 172 0 
L 1081 4666 
z
M 1613 4147 
L 909 519 
L 1734 519 
Q 2794 519 3375 1128 
Q 3956 1738 3956 2847 
Q 3956 3519 3581 3833 
Q 3206 4147 2406 4147 
L 1613 4147 
z
" transform="scale(0.015625)"/>
       <path id="DejaVuSans-35" d="M 691 4666 
L 3169 4666 
L 3169 4134 
L 1269 4134 
L 1269 2991 
Q 1406 3038 1543 3061 
Q 1681 3084 1819 3084 
Q 2600 3084 3056 2656 
Q 3513 2228 3513 1497 
Q 3513 744 3044 326 
Q 2575 -91 1722 -91 
Q 1428 -91 1123 -41 
Q 819 9 494 109 
L 494 744 
Q 775 591 1075 516 
Q 1375 441 1709 441 
Q 2250 441 2565 725 
Q 2881 1009 2881 1497 
Q 2881 1984 2565 2268 
Q 2250 2553 1709 2553 
Q 1456 2553 1204 2497 
Q 953 2441 691 2322 
L 691 4666 
z
" transform="scale(0.015625)"/>
      </defs>
      <use xlink:href="#DejaVuSans-Oblique-78" transform="translate(0 0.09375)"/>
      <use xlink:href="#DejaVuSans-2f" transform="translate(59.179688 0.09375)"/>
      <use xlink:href="#DejaVuSans-Oblique-44" transform="translate(92.871094 0.09375)"/>
      <use xlink:href="#DejaVuSans-3d" transform="translate(189.355469 0.09375)"/>
      <use xlink:href="#DejaVuSans-35" transform="translate(292.626953 0.09375)"/>
     </g>
    </g>
    <g id="line2d_86">
     <path d="M 535.449977 128.016131 
L 545.449977 128.016131 
L 555.449977 128.016131 
" style="fill: none; stroke: #ff7f0e; stroke-width: 2; stroke-linecap: square"/>
    </g>
    <g id="text_26">
     <!-- $x/D = 7$ -->
     <g transform="translate(563.449977 131.516131)scale(0.1 -0.1)">
      <defs>
       <path id="DejaVuSans-37" d="M 525 4666 
L 3525 4666 
L 3525 4397 
L 1831 0 
L 1172 0 
L 2766 4134 
L 525 4134 
L 525 4666 
z
" transform="scale(0.015625)"/>
      </defs>
      <use xlink:href="#DejaVuSans-Oblique-78" transform="translate(0 0.09375)"/>
      <use xlink:href="#DejaVuSans-2f" transform="translate(59.179688 0.09375)"/>
      <use xlink:href="#DejaVuSans-Oblique-44" transform="translate(92.871094 0.09375)"/>
      <use xlink:href="#DejaVuSans-3d" transform="translate(189.355469 0.09375)"/>
      <use xlink:href="#DejaVuSans-37" transform="translate(292.626953 0.09375)"/>
     </g>
    </g>
    <g id="line2d_87">
     <path d="M 535.449977 142.186444 
L 545.449977 142.186444 
L 555.449977 142.186444 
" style="fill: none; stroke: #2ca02c; stroke-width: 2; stroke-linecap: square"/>
    </g>
    <g id="text_27">
     <!-- $x/D = 9$ -->
     <g transform="translate(563.449977 145.686444)scale(0.1 -0.1)">
      <defs>
       <path id="DejaVuSans-39" d="M 703 97 
L 703 672 
Q 941 559 1184 500 
Q 1428 441 1663 441 
Q 2288 441 2617 861 
Q 2947 1281 2994 2138 
Q 2813 1869 2534 1725 
Q 2256 1581 1919 1581 
Q 1219 1581 811 2004 
Q 403 2428 403 3163 
Q 403 3881 828 4315 
Q 1253 4750 1959 4750 
Q 2769 4750 3195 4129 
Q 3622 3509 3622 2328 
Q 3622 1225 3098 567 
Q 2575 -91 1691 -91 
Q 1453 -91 1209 -44 
Q 966 3 703 97 
z
M 1959 2075 
Q 2384 2075 2632 2365 
Q 2881 2656 2881 3163 
Q 2881 3666 2632 3958 
Q 2384 4250 1959 4250 
Q 1534 4250 1286 3958 
Q 1038 3666 1038 3163 
Q 1038 2656 1286 2365 
Q 1534 2075 1959 2075 
z
" transform="scale(0.015625)"/>
      </defs>
      <use xlink:href="#DejaVuSans-Oblique-78" transform="translate(0 0.78125)"/>
      <use xlink:href="#DejaVuSans-2f" transform="translate(59.179688 0.78125)"/>
      <use xlink:href="#DejaVuSans-Oblique-44" transform="translate(92.871094 0.78125)"/>
      <use xlink:href="#DejaVuSans-3d" transform="translate(189.355469 0.78125)"/>
      <use xlink:href="#DejaVuSans-39" transform="translate(292.626953 0.78125)"/>
     </g>
    </g>
    <g id="line2d_88">
     <path d="M 535.449977 156.356756 
L 545.449977 156.356756 
L 555.449977 156.356756 
" style="fill: none; stroke: #d62728; stroke-width: 2; stroke-linecap: square"/>
    </g>
    <g id="text_28">
     <!-- $x/D = 11$ -->
     <g transform="translate(563.449977 159.856756)scale(0.1 -0.1)">
      <use xlink:href="#DejaVuSans-Oblique-78" transform="translate(0 0.09375)"/>
      <use xlink:href="#DejaVuSans-2f" transform="translate(59.179688 0.09375)"/>
      <use xlink:href="#DejaVuSans-Oblique-44" transform="translate(92.871094 0.09375)"/>
      <use xlink:href="#DejaVuSans-3d" transform="translate(189.355469 0.09375)"/>
      <use xlink:href="#DejaVuSans-31" transform="translate(292.626953 0.09375)"/>
      <use xlink:href="#DejaVuSans-31" transform="translate(356.25 0.09375)"/>
     </g>
    </g>
    <g id="line2d_89">
     <path d="M 535.449977 170.527069 
L 545.449977 170.527069 
L 555.449977 170.527069 
" style="fill: none; stroke: #9467bd; stroke-width: 2; stroke-linecap: square"/>
    </g>
    <g id="text_29">
     <!-- $x/D = 13$ -->
     <g transform="translate(563.449977 174.027069)scale(0.1 -0.1)">
      <use xlink:href="#DejaVuSans-Oblique-78" transform="translate(0 0.78125)"/>
      <use xlink:href="#DejaVuSans-2f" transform="translate(59.179688 0.78125)"/>
      <use xlink:href="#DejaVuSans-Oblique-44" transform="translate(92.871094 0.78125)"/>
      <use xlink:href="#DejaVuSans-3d" transform="translate(189.355469 0.78125)"/>
      <use xlink:href="#DejaVuSans-31" transform="translate(292.626953 0.78125)"/>
      <use xlink:href="#DejaVuSans-33" transform="translate(356.25 0.78125)"/>
     </g>
    </g>
   </g>
  </g>
  <g id="text_30">
   <!-- $C_T = 0.8$, T.I.$= 4$% -->
   <g transform="translate(221.63 15.635625)scale(0.12 -0.12)">
    <defs>
     <path id="DejaVuSans-Oblique-43" d="M 4447 4306 
L 4319 3641 
Q 4019 3944 3683 4091 
Q 3347 4238 2956 4238 
Q 2422 4238 2017 3981 
Q 1613 3725 1319 3200 
Q 1131 2863 1032 2486 
Q 934 2109 934 1728 
Q 934 1091 1264 756 
Q 1594 422 2222 422 
Q 2656 422 3056 561 
Q 3456 700 3834 978 
L 3688 231 
Q 3316 72 2936 -9 
Q 2556 -91 2175 -91 
Q 1278 -91 773 396 
Q 269 884 269 1753 
Q 269 2309 461 2846 
Q 653 3384 1013 3828 
Q 1394 4300 1883 4525 
Q 2372 4750 3022 4750 
Q 3422 4750 3780 4639 
Q 4138 4528 4447 4306 
z
" transform="scale(0.015625)"/>
     <path id="DejaVuSans-Oblique-54" d="M 378 4666 
L 4325 4666 
L 4225 4134 
L 2559 4134 
L 1759 0 
L 1125 0 
L 1925 4134 
L 275 4134 
L 378 4666 
z
" transform="scale(0.015625)"/>
     <path id="DejaVuSans-2e" d="M 684 794 
L 1344 794 
L 1344 0 
L 684 0 
L 684 794 
z
" transform="scale(0.015625)"/>
     <path id="DejaVuSans-38" d="M 2034 2216 
Q 1584 2216 1326 1975 
Q 1069 1734 1069 1313 
Q 1069 891 1326 650 
Q 1584 409 2034 409 
Q 2484 409 2743 651 
Q 3003 894 3003 1313 
Q 3003 1734 2745 1975 
Q 2488 2216 2034 2216 
z
M 1403 2484 
Q 997 2584 770 2862 
Q 544 3141 544 3541 
Q 544 4100 942 4425 
Q 1341 4750 2034 4750 
Q 2731 4750 3128 4425 
Q 3525 4100 3525 3541 
Q 3525 3141 3298 2862 
Q 3072 2584 2669 2484 
Q 3125 2378 3379 2068 
Q 3634 1759 3634 1313 
Q 3634 634 3220 271 
Q 2806 -91 2034 -91 
Q 1263 -91 848 271 
Q 434 634 434 1313 
Q 434 1759 690 2068 
Q 947 2378 1403 2484 
z
M 1172 3481 
Q 1172 3119 1398 2916 
Q 1625 2713 2034 2713 
Q 2441 2713 2670 2916 
Q 2900 3119 2900 3481 
Q 2900 3844 2670 4047 
Q 2441 4250 2034 4250 
Q 1625 4250 1398 4047 
Q 1172 3844 1172 3481 
z
" transform="scale(0.015625)"/>
     <path id="STIXGeneral-Regular-2c" d="M 531 -902 
L 467 -781 
Q 998 -422 998 -96 
Q 998 -13 909 -13 
Q 883 -13 822 -25 
Q 762 -38 723 -38 
Q 352 -38 352 288 
Q 352 454 457 553 
Q 563 653 736 653 
Q 954 653 1101 496 
Q 1248 339 1248 96 
Q 1248 -198 1053 -473 
Q 858 -749 531 -902 
z
" transform="scale(0.015625)"/>
     <path id="STIXGeneral-Regular-54" d="M 3795 3149 
L 3642 3149 
Q 3539 3674 3353 3821 
Q 3168 3968 2656 3968 
L 2278 3968 
L 2278 710 
Q 2278 346 2387 243 
Q 2496 141 2893 122 
L 2893 0 
L 1024 0 
L 1024 122 
Q 1427 147 1526 256 
Q 1626 365 1626 787 
L 1626 3968 
L 1242 3968 
Q 723 3968 540 3817 
Q 358 3667 262 3149 
L 109 3149 
L 154 4237 
L 3750 4237 
L 3795 3149 
z
" transform="scale(0.015625)"/>
     <path id="STIXGeneral-Regular-49" d="M 2016 0 
L 115 0 
L 115 122 
Q 518 134 627 240 
Q 736 346 736 717 
L 736 3526 
Q 736 3898 633 3994 
Q 531 4090 115 4115 
L 115 4237 
L 2016 4237 
L 2016 4115 
Q 1613 4096 1501 3993 
Q 1389 3891 1389 3526 
L 1389 717 
Q 1389 358 1504 246 
Q 1619 134 2016 122 
L 2016 0 
z
" transform="scale(0.015625)"/>
     <path id="STIXGeneral-Regular-25" d="M 4390 1363 
Q 4390 781 4070 329 
Q 3750 -122 3341 -122 
Q 3014 -122 2790 134 
Q 2566 390 2566 762 
Q 2566 1274 2940 1693 
Q 3315 2112 3776 2112 
Q 4070 2112 4230 1917 
Q 4390 1722 4390 1363 
z
M 4243 1376 
Q 4243 1626 4131 1779 
Q 4019 1933 3840 1933 
Q 3654 1933 3526 1786 
Q 3315 1562 3171 1187 
Q 3027 813 3027 486 
Q 3027 301 3129 176 
Q 3232 51 3386 51 
Q 3718 51 3980 457 
Q 4243 864 4243 1376 
z
M 3974 4518 
L 1222 -115 
L 922 -115 
L 3443 4096 
Q 3264 3891 3094 3811 
Q 2925 3731 2669 3731 
Q 2445 3731 2182 3821 
Q 2208 3674 2208 3539 
Q 2208 3206 2067 2873 
Q 1926 2541 1696 2323 
Q 1453 2086 1146 2086 
Q 826 2086 608 2339 
Q 390 2592 390 2963 
Q 390 3507 761 3916 
Q 1133 4326 1626 4326 
Q 1792 4326 2010 4147 
Q 2310 3898 2624 3898 
Q 2918 3898 3084 3994 
Q 3251 4090 3693 4518 
L 3974 4518 
z
M 2054 3642 
Q 2054 3782 2025 3833 
Q 1997 3885 1894 3936 
Q 1747 4006 1613 4154 
Q 1414 4058 1331 3984 
Q 1248 3910 1152 3750 
Q 845 3264 845 2707 
Q 845 2509 944 2384 
Q 1043 2259 1210 2259 
Q 1549 2259 1801 2675 
Q 2054 3091 2054 3642 
z
" transform="scale(0.015625)"/>
    </defs>
    <use xlink:href="#DejaVuSans-Oblique-43" transform="translate(0 0.78125)"/>
    <use xlink:href="#DejaVuSans-Oblique-54" transform="translate(69.824219 -15.625)scale(0.7)"/>
    <use xlink:href="#DejaVuSans-3d" transform="translate(134.799805 0.78125)"/>
    <use xlink:href="#DejaVuSans-30" transform="translate(238.071289 0.78125)"/>
    <use xlink:href="#DejaVuSans-2e" transform="translate(301.694336 0.78125)"/>
    <use xlink:href="#DejaVuSans-38" transform="translate(330.856445 0.78125)"/>
    <use xlink:href="#STIXGeneral-Regular-2c" transform="translate(394.479492 0.78125)"/>
    <use xlink:href="#STIXGeneral-Regular-20" transform="translate(419.479477 0.78125)"/>
    <use xlink:href="#STIXGeneral-Regular-54" transform="translate(444.479462 0.78125)"/>
    <use xlink:href="#STIXGeneral-Regular-2e" transform="translate(505.579453 0.78125)"/>
    <use xlink:href="#STIXGeneral-Regular-49" transform="translate(530.579437 0.78125)"/>
    <use xlink:href="#STIXGeneral-Regular-2e" transform="translate(563.879425 0.78125)"/>
    <use xlink:href="#DejaVuSans-3d" transform="translate(608.361832 0.78125)"/>
    <use xlink:href="#DejaVuSans-34" transform="translate(711.633316 0.78125)"/>
    <use xlink:href="#STIXGeneral-Regular-25" transform="translate(775.256363 0.78125)"/>
   </g>
  </g>
 </g>
 <defs>
  <clipPath id="p378745f3d3">
   <rect x="39.8" y="35.256" width="218.719091" height="98.196"/>
  </clipPath>
  <clipPath id="p34534f4341">
   <rect x="302.262909" y="35.256" width="218.719091" height="98.196"/>
  </clipPath>
  <clipPath id="pf5be0900bf">
   <rect x="39.8" y="153.0912" width="218.719091" height="98.196"/>
  </clipPath>
  <clipPath id="pe3e5c9beed">
   <rect x="302.262909" y="153.0912" width="218.719091" height="98.196"/>
  </clipPath>
 </defs>
</svg>
