<?xml version="1.0" encoding="utf-8" standalone="no"?>
<!DOCTYPE svg PUBLIC "-//W3C//DTD SVG 1.1//EN"
  "http://www.w3.org/Graphics/SVG/1.1/DTD/svg11.dtd">
<svg xmlns:xlink="http://www.w3.org/1999/xlink" width="610.79pt" height="268.461625pt" viewBox="0 0 610.79 268.461625" xmlns="http://www.w3.org/2000/svg" version="1.1">
 <metadata>
  <rdf:RDF xmlns:dc="http://purl.org/dc/elements/1.1/" xmlns:cc="http://creativecommons.org/ns#" xmlns:rdf="http://www.w3.org/1999/02/22-rdf-syntax-ns#">
   <cc:Work>
    <dc:type rdf:resource="http://purl.org/dc/dcmitype/StillImage"/>
    <dc:date>2022-04-18T13:11:12.080964</dc:date>
    <dc:format>image/svg+xml</dc:format>
    <dc:creator>
     <cc:Agent>
      <dc:title>Matplotlib v3.5.1, https://matplotlib.org/</dc:title>
     </cc:Agent>
    </dc:creator>
   </cc:Work>
  </rdf:RDF>
 </metadata>
 <defs>
  <style type="text/css">*{stroke-linejoin: round; stroke-linecap: butt}</style>
 </defs>
 <g id="figure_1">
  <g id="patch_1">
   <path d="M 0 268.461625 
L 610.79 268.461625 
L 610.79 0 
L 0 0 
z
" style="fill: #ffffff"/>
  </g>
  <g id="axes_1">
   <g id="patch_2">
    <path d="M 39.7 231.861625 
L 603.59 231.861625 
L 603.59 21.635625 
L 39.7 21.635625 
z
" style="fill: #ffffff"/>
   </g>
   <g id="matplotlib.axis_1">
    <g id="xtick_1">
     <g id="line2d_1">
      <path d="M 96.089 231.861625 
L 96.089 21.635625 
" clip-path="url(#p8795d01624)" style="fill: none; stroke-dasharray: 0.8,1.32; stroke-dashoffset: 0; stroke: #b0b0b0; stroke-width: 0.8"/>
     </g>
     <g id="line2d_2">
      <defs>
       <path id="m5b8ecc37ba" d="M 0 0 
L 0 3.5 
" style="stroke: #000000; stroke-width: 0.8"/>
      </defs>
      <g>
       <use xlink:href="#m5b8ecc37ba" x="96.089" y="231.861625" style="stroke: #000000; stroke-width: 0.8"/>
      </g>
     </g>
     <g id="text_1">
      <!-- −4 -->
      <g transform="translate(90.164 245.691313)scale(0.1 -0.1)">
       <defs>
        <path id="STIXGeneral-Regular-2212" d="M 3974 1408 
L 410 1408 
L 410 1830 
L 3974 1830 
L 3974 1408 
z
" transform="scale(0.015625)"/>
        <path id="STIXGeneral-Regular-34" d="M 3027 1069 
L 2368 1069 
L 2368 0 
L 1869 0 
L 1869 1069 
L 77 1069 
L 77 1478 
L 2086 4326 
L 2368 4326 
L 2368 1478 
L 3027 1478 
L 3027 1069 
z
M 1869 1478 
L 1869 3674 
L 333 1478 
L 1869 1478 
z
" transform="scale(0.015625)"/>
       </defs>
       <use xlink:href="#STIXGeneral-Regular-2212"/>
       <use xlink:href="#STIXGeneral-Regular-34" x="68.499985"/>
      </g>
     </g>
    </g>
    <g id="xtick_2">
     <g id="line2d_3">
      <path d="M 208.867 231.861625 
L 208.867 21.635625 
" clip-path="url(#p8795d01624)" style="fill: none; stroke-dasharray: 0.8,1.32; stroke-dashoffset: 0; stroke: #b0b0b0; stroke-width: 0.8"/>
     </g>
     <g id="line2d_4">
      <g>
       <use xlink:href="#m5b8ecc37ba" x="208.867" y="231.861625" style="stroke: #000000; stroke-width: 0.8"/>
      </g>
     </g>
     <g id="text_2">
      <!-- −2 -->
      <g transform="translate(202.942 245.691313)scale(0.1 -0.1)">
       <defs>
        <path id="STIXGeneral-Regular-32" d="M 3034 877 
L 2688 0 
L 186 0 
L 186 77 
L 1325 1286 
Q 1773 1754 1965 2144 
Q 2157 2534 2157 2950 
Q 2157 3379 1920 3616 
Q 1683 3853 1267 3853 
Q 922 3853 720 3673 
Q 518 3494 326 3021 
L 192 3053 
Q 301 3648 630 3987 
Q 960 4326 1523 4326 
Q 2054 4326 2380 4006 
Q 2707 3686 2707 3200 
Q 2707 2477 1888 1613 
L 832 486 
L 2330 486 
Q 2541 486 2665 569 
Q 2790 653 2944 915 
L 3034 877 
z
" transform="scale(0.015625)"/>
       </defs>
       <use xlink:href="#STIXGeneral-Regular-2212"/>
       <use xlink:href="#STIXGeneral-Regular-32" x="68.499985"/>
      </g>
     </g>
    </g>
    <g id="xtick_3">
     <g id="line2d_5">
      <path d="M 321.645 231.861625 
L 321.645 21.635625 
" clip-path="url(#p8795d01624)" style="fill: none; stroke-dasharray: 0.8,1.32; stroke-dashoffset: 0; stroke: #b0b0b0; stroke-width: 0.8"/>
     </g>
     <g id="line2d_6">
      <g>
       <use xlink:href="#m5b8ecc37ba" x="321.645" y="231.861625" style="stroke: #000000; stroke-width: 0.8"/>
      </g>
     </g>
     <g id="text_3">
      <!-- 0 -->
      <g transform="translate(319.145 245.691313)scale(0.1 -0.1)">
       <defs>
        <path id="STIXGeneral-Regular-30" d="M 3046 2112 
Q 3046 1683 2963 1302 
Q 2880 922 2717 602 
Q 2554 282 2266 96 
Q 1978 -90 1600 -90 
Q 1210 -90 915 108 
Q 621 307 461 640 
Q 301 973 227 1350 
Q 154 1728 154 2150 
Q 154 2746 301 3222 
Q 448 3699 790 4012 
Q 1133 4326 1626 4326 
Q 2253 4326 2649 3712 
Q 3046 3098 3046 2112 
z
M 2432 2080 
Q 2432 3091 2217 3625 
Q 2003 4160 1587 4160 
Q 1190 4160 979 3622 
Q 768 3085 768 2106 
Q 768 1120 979 598 
Q 1190 77 1600 77 
Q 2003 77 2217 598 
Q 2432 1120 2432 2080 
z
" transform="scale(0.015625)"/>
       </defs>
       <use xlink:href="#STIXGeneral-Regular-30"/>
      </g>
     </g>
    </g>
    <g id="xtick_4">
     <g id="line2d_7">
      <path d="M 434.423 231.861625 
L 434.423 21.635625 
" clip-path="url(#p8795d01624)" style="fill: none; stroke-dasharray: 0.8,1.32; stroke-dashoffset: 0; stroke: #b0b0b0; stroke-width: 0.8"/>
     </g>
     <g id="line2d_8">
      <g>
       <use xlink:href="#m5b8ecc37ba" x="434.423" y="231.861625" style="stroke: #000000; stroke-width: 0.8"/>
      </g>
     </g>
     <g id="text_4">
      <!-- 2 -->
      <g transform="translate(431.923 245.691313)scale(0.1 -0.1)">
       <use xlink:href="#STIXGeneral-Regular-32"/>
      </g>
     </g>
    </g>
    <g id="xtick_5">
     <g id="line2d_9">
      <path d="M 547.201 231.861625 
L 547.201 21.635625 
" clip-path="url(#p8795d01624)" style="fill: none; stroke-dasharray: 0.8,1.32; stroke-dashoffset: 0; stroke: #b0b0b0; stroke-width: 0.8"/>
     </g>
     <g id="line2d_10">
      <g>
       <use xlink:href="#m5b8ecc37ba" x="547.201" y="231.861625" style="stroke: #000000; stroke-width: 0.8"/>
      </g>
     </g>
     <g id="text_5">
      <!-- 4 -->
      <g transform="translate(544.701 245.691313)scale(0.1 -0.1)">
       <use xlink:href="#STIXGeneral-Regular-34"/>
      </g>
     </g>
    </g>
    <g id="text_6">
     <!-- $y/D$ [-] -->
     <g transform="translate(306.895 259.091313)scale(0.1 -0.1)">
      <defs>
       <path id="DejaVuSans-Oblique-79" d="M 1588 -325 
Q 1188 -997 936 -1164 
Q 684 -1331 294 -1331 
L -159 -1331 
L -63 -850 
L 269 -850 
Q 509 -850 678 -719 
Q 847 -588 1056 -206 
L 1234 128 
L 459 3500 
L 1069 3500 
L 1650 819 
L 3256 3500 
L 3859 3500 
L 1588 -325 
z
" transform="scale(0.015625)"/>
       <path id="DejaVuSans-2f" d="M 1625 4666 
L 2156 4666 
L 531 -594 
L 0 -594 
L 1625 4666 
z
" transform="scale(0.015625)"/>
       <path id="DejaVuSans-Oblique-44" d="M 1081 4666 
L 2438 4666 
Q 3519 4666 4070 4208 
Q 4622 3750 4622 2847 
Q 4622 2250 4412 1698 
Q 4203 1147 3834 769 
Q 3463 381 2891 190 
Q 2319 0 1538 0 
L 172 0 
L 1081 4666 
z
M 1613 4147 
L 909 519 
L 1734 519 
Q 2794 519 3375 1128 
Q 3956 1738 3956 2847 
Q 3956 3519 3581 3833 
Q 3206 4147 2406 4147 
L 1613 4147 
z
" transform="scale(0.015625)"/>
       <path id="STIXGeneral-Regular-20" transform="scale(0.015625)"/>
       <path id="STIXGeneral-Regular-5b" d="M 1914 -998 
L 563 -998 
L 563 4237 
L 1914 4237 
L 1914 4077 
L 1382 4077 
Q 1216 4077 1133 4006 
Q 1050 3936 1050 3770 
L 1050 -493 
Q 1050 -838 1382 -838 
L 1914 -838 
L 1914 -998 
z
" transform="scale(0.015625)"/>
       <path id="STIXGeneral-Regular-2d" d="M 1824 1242 
L 250 1242 
L 250 1645 
L 1824 1645 
L 1824 1242 
z
" transform="scale(0.015625)"/>
       <path id="STIXGeneral-Regular-5d" d="M 1568 -998 
L 218 -998 
L 218 -838 
L 781 -838 
Q 947 -838 1014 -768 
Q 1082 -698 1082 -544 
L 1082 3731 
Q 1082 4077 755 4077 
L 218 4077 
L 218 4237 
L 1568 4237 
L 1568 -998 
z
" transform="scale(0.015625)"/>
      </defs>
      <use xlink:href="#DejaVuSans-Oblique-79" transform="translate(0 0.09375)"/>
      <use xlink:href="#DejaVuSans-2f" transform="translate(59.179688 0.09375)"/>
      <use xlink:href="#DejaVuSans-Oblique-44" transform="translate(92.871094 0.09375)"/>
      <use xlink:href="#STIXGeneral-Regular-20" transform="translate(169.873047 0.09375)"/>
      <use xlink:href="#STIXGeneral-Regular-5b" transform="translate(194.873032 0.09375)"/>
      <use xlink:href="#STIXGeneral-Regular-2d" transform="translate(228.173019 0.09375)"/>
      <use xlink:href="#STIXGeneral-Regular-5d" transform="translate(261.473007 0.09375)"/>
     </g>
    </g>
   </g>
   <g id="matplotlib.axis_2">
    <g id="ytick_1">
     <g id="line2d_11">
      <path d="M 39.7 206.705178 
L 603.59 206.705178 
" clip-path="url(#p8795d01624)" style="fill: none; stroke-dasharray: 0.8,1.32; stroke-dashoffset: 0; stroke: #b0b0b0; stroke-width: 0.8"/>
     </g>
     <g id="line2d_12">
      <defs>
       <path id="ma00cc2e619" d="M 0 0 
L -3.5 0 
" style="stroke: #000000; stroke-width: 0.8"/>
      </defs>
      <g>
       <use xlink:href="#ma00cc2e619" x="39.7" y="206.705178" style="stroke: #000000; stroke-width: 0.8"/>
      </g>
     </g>
     <g id="text_7">
      <!-- 0.0 -->
      <g transform="translate(20.2 210.120022)scale(0.1 -0.1)">
       <defs>
        <path id="STIXGeneral-Regular-2e" d="M 1158 275 
Q 1158 134 1052 32 
Q 947 -70 800 -70 
Q 653 -70 550 32 
Q 448 134 448 281 
Q 448 429 553 534 
Q 659 640 806 640 
Q 947 640 1052 531 
Q 1158 422 1158 275 
z
" transform="scale(0.015625)"/>
       </defs>
       <use xlink:href="#STIXGeneral-Regular-30"/>
       <use xlink:href="#STIXGeneral-Regular-2e" x="49.999985"/>
       <use xlink:href="#STIXGeneral-Regular-30" x="74.999969"/>
      </g>
     </g>
    </g>
    <g id="ytick_2">
     <g id="line2d_13">
      <path d="M 39.7 160.950595 
L 603.59 160.950595 
" clip-path="url(#p8795d01624)" style="fill: none; stroke-dasharray: 0.8,1.32; stroke-dashoffset: 0; stroke: #b0b0b0; stroke-width: 0.8"/>
     </g>
     <g id="line2d_14">
      <g>
       <use xlink:href="#ma00cc2e619" x="39.7" y="160.950595" style="stroke: #000000; stroke-width: 0.8"/>
      </g>
     </g>
     <g id="text_8">
      <!-- 0.1 -->
      <g transform="translate(20.2 164.365439)scale(0.1 -0.1)">
       <defs>
        <path id="STIXGeneral-Regular-31" d="M 2522 0 
L 755 0 
L 755 96 
Q 1107 115 1235 227 
Q 1363 339 1363 608 
L 1363 3482 
Q 1363 3795 1171 3795 
Q 1082 3795 883 3718 
L 710 3654 
L 710 3744 
L 1856 4326 
L 1914 4307 
L 1914 486 
Q 1914 275 2042 185 
Q 2170 96 2522 96 
L 2522 0 
z
" transform="scale(0.015625)"/>
       </defs>
       <use xlink:href="#STIXGeneral-Regular-30"/>
       <use xlink:href="#STIXGeneral-Regular-2e" x="49.999985"/>
       <use xlink:href="#STIXGeneral-Regular-31" x="74.999969"/>
      </g>
     </g>
    </g>
    <g id="ytick_3">
     <g id="line2d_15">
      <path d="M 39.7 115.196012 
L 603.59 115.196012 
" clip-path="url(#p8795d01624)" style="fill: none; stroke-dasharray: 0.8,1.32; stroke-dashoffset: 0; stroke: #b0b0b0; stroke-width: 0.8"/>
     </g>
     <g id="line2d_16">
      <g>
       <use xlink:href="#ma00cc2e619" x="39.7" y="115.196012" style="stroke: #000000; stroke-width: 0.8"/>
      </g>
     </g>
     <g id="text_9">
      <!-- 0.2 -->
      <g transform="translate(20.2 118.610856)scale(0.1 -0.1)">
       <use xlink:href="#STIXGeneral-Regular-30"/>
       <use xlink:href="#STIXGeneral-Regular-2e" x="49.999985"/>
       <use xlink:href="#STIXGeneral-Regular-32" x="74.999969"/>
      </g>
     </g>
    </g>
    <g id="ytick_4">
     <g id="line2d_17">
      <path d="M 39.7 69.44143 
L 603.59 69.44143 
" clip-path="url(#p8795d01624)" style="fill: none; stroke-dasharray: 0.8,1.32; stroke-dashoffset: 0; stroke: #b0b0b0; stroke-width: 0.8"/>
     </g>
     <g id="line2d_18">
      <g>
       <use xlink:href="#ma00cc2e619" x="39.7" y="69.44143" style="stroke: #000000; stroke-width: 0.8"/>
      </g>
     </g>
     <g id="text_10">
      <!-- 0.3 -->
      <g transform="translate(20.2 72.856273)scale(0.1 -0.1)">
       <defs>
        <path id="STIXGeneral-Regular-33" d="M 390 3264 
L 288 3290 
Q 435 3770 748 4048 
Q 1062 4326 1542 4326 
Q 1990 4326 2265 4083 
Q 2541 3840 2541 3450 
Q 2541 2925 1946 2566 
Q 2298 2413 2477 2227 
Q 2758 1914 2758 1402 
Q 2758 890 2464 506 
Q 2246 211 1840 60 
Q 1434 -90 979 -90 
Q 262 -90 262 275 
Q 262 378 339 442 
Q 416 506 525 506 
Q 685 506 915 339 
Q 1197 141 1466 141 
Q 1818 141 2058 425 
Q 2298 710 2298 1120 
Q 2298 1856 1632 2048 
Q 1434 2112 979 2112 
L 979 2202 
Q 1338 2323 1517 2432 
Q 2035 2726 2035 3290 
Q 2035 3610 1852 3776 
Q 1670 3942 1344 3942 
Q 768 3942 390 3264 
z
" transform="scale(0.015625)"/>
       </defs>
       <use xlink:href="#STIXGeneral-Regular-30"/>
       <use xlink:href="#STIXGeneral-Regular-2e" x="49.999985"/>
       <use xlink:href="#STIXGeneral-Regular-33" x="74.999969"/>
      </g>
     </g>
    </g>
    <g id="ytick_5">
     <g id="line2d_19">
      <path d="M 39.7 23.686847 
L 603.59 23.686847 
" clip-path="url(#p8795d01624)" style="fill: none; stroke-dasharray: 0.8,1.32; stroke-dashoffset: 0; stroke: #b0b0b0; stroke-width: 0.8"/>
     </g>
     <g id="line2d_20">
      <g>
       <use xlink:href="#ma00cc2e619" x="39.7" y="23.686847" style="stroke: #000000; stroke-width: 0.8"/>
      </g>
     </g>
     <g id="text_11">
      <!-- 0.4 -->
      <g transform="translate(20.2 27.10169)scale(0.1 -0.1)">
       <use xlink:href="#STIXGeneral-Regular-30"/>
       <use xlink:href="#STIXGeneral-Regular-2e" x="49.999985"/>
       <use xlink:href="#STIXGeneral-Regular-34" x="74.999969"/>
      </g>
     </g>
    </g>
    <g id="text_12">
     <!-- $V$ [m/s] -->
     <g transform="translate(14.029688 141.998625)rotate(-90)scale(0.1 -0.1)">
      <defs>
       <path id="DejaVuSans-Oblique-56" d="M 1319 0 
L 500 4666 
L 1119 4666 
L 1797 653 
L 4063 4666 
L 4750 4666 
L 2053 0 
L 1319 0 
z
" transform="scale(0.015625)"/>
       <path id="STIXGeneral-Regular-6d" d="M 4960 0 
L 3565 0 
L 3565 96 
Q 3834 122 3907 208 
Q 3981 294 3981 576 
L 3981 1894 
Q 3981 2278 3869 2444 
Q 3757 2611 3488 2611 
Q 3264 2611 3107 2521 
Q 2950 2432 2803 2221 
L 2803 608 
Q 2803 301 2896 201 
Q 2989 102 3264 96 
L 3264 0 
L 1830 0 
L 1830 96 
Q 2112 115 2189 188 
Q 2266 262 2266 550 
L 2266 1901 
Q 2266 2611 1850 2611 
Q 1670 2611 1468 2531 
Q 1267 2451 1171 2336 
Q 1088 2240 1088 2227 
L 1088 448 
Q 1088 243 1177 176 
Q 1267 109 1523 96 
L 1523 0 
L 102 0 
L 102 96 
Q 371 102 460 195 
Q 550 288 550 563 
L 550 2150 
Q 550 2387 499 2480 
Q 448 2573 326 2573 
Q 230 2573 122 2547 
L 122 2656 
Q 557 2778 1011 2944 
L 1062 2925 
L 1062 2451 
L 1075 2451 
Q 1363 2752 1584 2848 
Q 1805 2944 2054 2944 
Q 2560 2944 2733 2406 
Q 3232 2944 3776 2944 
Q 4518 2944 4518 1792 
L 4518 493 
Q 4518 282 4582 202 
Q 4646 122 4794 109 
L 4960 96 
L 4960 0 
z
" transform="scale(0.015625)"/>
       <path id="STIXGeneral-Regular-2f" d="M 1837 4326 
L 378 -90 
L -58 -90 
L 1408 4326 
L 1837 4326 
z
" transform="scale(0.015625)"/>
       <path id="STIXGeneral-Regular-73" d="M 998 1926 
L 1664 1523 
Q 1984 1331 2105 1164 
Q 2227 998 2227 736 
Q 2227 416 1961 176 
Q 1696 -64 1331 -64 
Q 1030 -64 864 -6 
Q 691 51 570 51 
Q 461 51 416 -26 
L 333 -26 
L 333 979 
L 435 979 
Q 538 512 730 294 
Q 922 77 1248 77 
Q 1485 77 1632 211 
Q 1779 346 1779 550 
Q 1779 845 1440 1030 
L 1094 1222 
Q 326 1651 326 2150 
Q 326 2522 566 2730 
Q 806 2938 1210 2938 
Q 1491 2938 1638 2867 
Q 1754 2816 1818 2816 
Q 1862 2816 1920 2880 
L 1990 2880 
L 2022 2010 
L 1926 2010 
Q 1818 2445 1654 2621 
Q 1491 2797 1203 2797 
Q 986 2797 854 2688 
Q 723 2579 723 2362 
Q 723 2253 796 2128 
Q 870 2003 998 1926 
z
" transform="scale(0.015625)"/>
      </defs>
      <use xlink:href="#DejaVuSans-Oblique-56" transform="translate(0 0.09375)"/>
      <use xlink:href="#STIXGeneral-Regular-20" transform="translate(68.408203 0.09375)"/>
      <use xlink:href="#STIXGeneral-Regular-5b" transform="translate(93.408188 0.09375)"/>
      <use xlink:href="#STIXGeneral-Regular-6d" transform="translate(126.708176 0.09375)"/>
      <use xlink:href="#STIXGeneral-Regular-2f" transform="translate(204.508163 0.09375)"/>
      <use xlink:href="#STIXGeneral-Regular-73" transform="translate(232.308151 0.09375)"/>
      <use xlink:href="#STIXGeneral-Regular-5d" transform="translate(271.208145 0.09375)"/>
     </g>
    </g>
   </g>
   <g id="line2d_21">
    <path d="M -1 206.543283 
L 31.041869 206.374258 
L 58.896234 206.204621 
L 81.914913 206.049431 
L 100.897908 205.910574 
L 116.525938 205.788365 
L 129.373783 205.683466 
L 139.923771 205.593233 
L 148.578614 205.519746 
L 156.002312 205.455376 
L 163.050937 205.389406 
L 170.099562 205.321651 
L 177.148187 205.251585 
L 184.196812 205.179066 
L 191.245437 205.103579 
L 198.294062 205.024711 
L 205.342687 204.942021 
L 212.391312 204.855119 
L 219.439937 204.763763 
L 226.488562 204.66417 
L 233.537187 204.534044 
L 240.585812 204.278617 
L 247.634437 203.650078 
L 254.683062 202.223357 
L 261.731687 199.631166 
L 268.780312 196.308938 
L 275.828937 193.500923 
L 282.877562 192.074846 
L 289.926187 192.180656 
L 296.974812 193.623273 
L 304.023437 196.130521 
L 311.072062 199.443025 
L 318.120687 203.312922 
L 325.169312 207.486693 
L 332.217937 211.69059 
L 339.266562 215.622294 
L 346.315187 218.945868 
L 353.363812 221.295921 
L 360.412437 222.305898 
L 367.461062 221.695222 
L 374.509687 219.449994 
L 381.558312 216.098942 
L 388.606937 212.761921 
L 395.655562 210.405458 
L 402.704187 209.170693 
L 409.752812 208.661863 
L 416.801437 208.465099 
L 423.850062 208.362007 
L 430.898687 208.283493 
L 437.947312 208.212688 
L 444.995937 208.146082 
L 452.044562 208.082381 
L 459.093187 208.021024 
L 466.141812 207.961528 
L 473.190437 207.903454 
L 480.239062 207.846752 
L 487.287687 207.790851 
L 494.711386 207.735976 
L 503.36623 207.672764 
L 513.916217 207.593928 
L 526.764063 207.501144 
L 542.392092 207.391633 
L 561.375086 207.265714 
L 584.393762 207.123363 
L 611.79 206.968711 
" clip-path="url(#p8795d01624)" style="fill: none; stroke: #1f77b4; stroke-width: 2; stroke-linecap: square"/>
   </g>
   <g id="line2d_22">
    <path d="M -1 204.511183 
L 31.041869 203.964809 
L 58.896234 203.371098 
L 81.914913 202.774234 
L 100.897908 202.189804 
L 116.525938 201.62927 
L 129.373783 201.106053 
L 139.923771 200.622097 
L 148.578614 200.192041 
L 156.002312 199.798003 
L 163.050937 199.381753 
L 170.099562 198.925517 
L 177.148187 198.430391 
L 184.196812 197.887769 
L 191.245437 197.290228 
L 198.294062 196.627294 
L 205.342687 195.885395 
L 212.391312 195.046147 
L 219.439937 194.084571 
L 226.488562 192.965878 
L 233.537187 191.641269 
L 240.585812 190.039393 
L 247.634437 188.046536 
L 254.683062 185.467247 
L 261.731687 181.972686 
L 268.780312 177.179922 
L 275.828937 171.171146 
L 282.877562 164.964436 
L 289.926187 159.941081 
L 296.974812 157.01488 
L 304.023437 156.416213 
L 311.072062 157.881964 
L 318.120687 160.951253 
L 325.169312 165.16032 
L 332.217937 170.105451 
L 339.266562 175.439139 
L 346.315187 180.841788 
L 353.363812 185.983248 
L 360.412437 190.479687 
L 367.461062 193.866124 
L 374.509687 195.654605 
L 381.558312 195.602213 
L 388.606937 194.282979 
L 395.655562 193.086436 
L 402.704187 192.910082 
L 409.752812 193.647734 
L 416.801437 194.796305 
L 423.850062 195.949075 
L 430.898687 196.956977 
L 437.947312 197.81512 
L 444.995937 198.550358 
L 452.044562 199.188047 
L 459.093187 199.747235 
L 466.141812 200.242177 
L 473.190437 200.68237 
L 480.239062 201.078809 
L 487.287687 201.430073 
L 494.711386 201.757132 
L 503.36623 202.105837 
L 513.916217 202.480846 
L 526.764063 202.868833 
L 542.392092 203.261843 
L 561.375086 203.645371 
L 584.393762 204.00677 
L 611.79 204.326853 
" clip-path="url(#p8795d01624)" style="fill: none; stroke: #ff7f0e; stroke-width: 2; stroke-linecap: square"/>
   </g>
   <g id="line2d_23">
    <path d="M -1 202.954322 
L 31.041869 202.135403 
L 58.896234 201.235321 
L 81.914913 200.319358 
L 100.897908 199.413263 
L 116.525938 198.536765 
L 129.373783 197.712431 
L 139.923771 196.945673 
L 148.578614 196.259751 
L 156.002312 195.629761 
L 163.050937 194.963546 
L 170.099562 194.230675 
L 177.148187 193.434097 
L 184.196812 192.559625 
L 191.245437 191.595876 
L 198.294062 190.526591 
L 205.342687 189.331112 
L 212.391312 187.981709 
L 219.439937 186.440699 
L 226.488562 184.655833 
L 233.537187 182.55344 
L 240.585812 180.029771 
L 247.634437 176.940961 
L 254.683062 173.098605 
L 261.731687 168.278852 
L 268.780312 162.222894 
L 275.828937 154.613728 
L 282.877562 145.225817 
L 289.926187 134.644606 
L 296.974812 124.712341 
L 304.023437 117.622756 
L 311.072062 114.574615 
L 318.120687 115.41439 
L 325.169312 119.219527 
L 332.217937 124.999829 
L 339.266562 132.024785 
L 346.315187 139.803093 
L 353.363812 147.957856 
L 360.412437 156.083325 
L 367.461062 163.594023 
L 374.509687 169.63794 
L 381.558312 173.362235 
L 388.606937 174.890697 
L 395.655562 175.768712 
L 402.704187 177.255926 
L 409.752812 179.451317 
L 416.801437 181.967379 
L 423.850062 184.367441 
L 430.898687 186.447556 
L 437.947312 188.211003 
L 444.995937 189.71703 
L 452.044562 191.02083 
L 459.093187 192.163677 
L 466.141812 193.176192 
L 473.190437 194.078919 
L 480.239062 194.894213 
L 487.287687 195.620797 
L 494.711386 196.299123 
L 503.36623 197.026205 
L 513.916217 197.817974 
L 526.764063 198.647382 
L 542.392092 199.502221 
L 561.375086 200.354701 
L 584.393762 201.180948 
L 611.79 201.940597 
" clip-path="url(#p8795d01624)" style="fill: none; stroke: #2ca02c; stroke-width: 2; stroke-linecap: square"/>
   </g>
   <g id="line2d_24">
    <path d="M -1 202.098675 
L 31.041869 201.147544 
L 58.896234 200.097381 
L 81.914913 199.023664 
L 100.897908 197.957478 
L 116.525938 196.923045 
L 129.373783 195.947619 
L 139.923771 195.038703 
L 148.578614 194.223677 
L 156.002312 193.474661 
L 163.050937 192.68248 
L 170.099562 191.81 
L 177.148187 190.861385 
L 184.196812 189.819695 
L 191.245437 188.671654 
L 198.294062 187.398477 
L 205.342687 185.976299 
L 212.391312 184.373781 
L 219.439937 182.548095 
L 226.488562 180.441148 
L 233.537187 177.969534 
L 240.585812 175.015923 
L 247.634437 171.406549 
L 254.683062 166.894809 
L 261.731687 161.132854 
L 268.780312 153.694373 
L 275.828937 144.142896 
L 282.877562 132.160072 
L 289.926187 117.617717 
L 296.974812 101.409256 
L 304.023437 86.179505 
L 311.072062 75.036426 
L 318.120687 70.044795 
L 325.169312 71.497379 
L 332.217937 77.896544 
L 339.266562 87.247249 
L 346.315187 98.224937 
L 353.363812 110.184569 
L 360.412437 122.677001 
L 367.461062 135.000219 
L 374.509687 145.782907 
L 381.558312 153.361495 
L 388.606937 157.943339 
L 395.655562 161.61163 
L 402.704187 165.394623 
L 409.752812 169.29711 
L 416.801437 173.063728 
L 423.850062 176.40443 
L 430.898687 179.234853 
L 437.947312 181.620549 
L 444.995937 183.654646 
L 452.044562 185.414272 
L 459.093187 186.95603 
L 466.141812 188.321867 
L 473.190437 189.54011 
L 480.239062 190.641052 
L 487.287687 191.623705 
L 494.711386 192.541793 
L 503.36623 193.527505 
L 513.916217 194.604976 
L 526.764063 195.738079 
L 542.392092 196.912162 
L 561.375086 198.090771 
L 584.393762 199.242627 
L 611.79 200.312883 
" clip-path="url(#p8795d01624)" style="fill: none; stroke: #d62728; stroke-width: 2; stroke-linecap: square"/>
   </g>
   <g id="line2d_25">
    <path d="M -1 201.956898 
L 31.041869 201.006978 
L 58.896234 199.954983 
L 81.914913 198.876007 
L 100.897908 197.801947 
L 116.525938 196.757706 
L 129.373783 195.771311 
L 139.923771 194.850945 
L 148.578614 194.024297 
L 156.002312 193.264104 
L 163.050937 192.459839 
L 170.099562 191.573055 
L 177.148187 190.608293 
L 184.196812 189.547918 
L 191.245437 188.378366 
L 198.294062 187.080061 
L 205.342687 185.628379 
L 212.391312 183.990692 
L 219.439937 182.122285 
L 226.488562 179.962605 
L 233.537187 177.423515 
L 240.585812 174.38281 
L 247.634437 170.654564 
L 254.683062 165.977917 
L 261.731687 159.956637 
L 268.780312 152.067904 
L 275.828937 141.608313 
L 282.877562 127.901337 
L 289.926187 110.354213 
L 296.974812 89.019409 
L 304.023437 66.559835 
L 311.072062 47.40222 
L 318.120687 34.942681 
L 325.169312 31.191352 
L 332.217937 36.607147 
L 339.266562 48.910044 
L 346.315187 64.577644 
L 353.363812 81.597927 
L 360.412437 99.317878 
L 367.461062 116.856898 
L 374.509687 131.788822 
L 381.558312 142.058624 
L 388.606937 149.375058 
L 395.655562 155.565576 
L 402.704187 161.092545 
L 409.752812 166.055897 
L 416.801437 170.364657 
L 423.850062 173.985827 
L 430.898687 177.006629 
L 437.947312 179.550515 
L 444.995937 181.724847 
L 452.044562 183.610689 
L 459.093187 185.266498 
L 466.141812 186.735922 
L 473.190437 188.048591 
L 480.239062 189.236488 
L 487.287687 190.298399 
L 494.711386 191.291552 
L 503.36623 192.359309 
L 513.916217 193.529268 
L 526.764063 194.762713 
L 542.392092 196.044718 
L 561.375086 197.336459 
L 584.393762 198.604532 
L 611.79 199.789293 
" clip-path="url(#p8795d01624)" style="fill: none; stroke: #9467bd; stroke-width: 2; stroke-linecap: square"/>
   </g>
   <g id="patch_3">
    <path d="M 39.7 231.861625 
L 39.7 21.635625 
" style="fill: none; stroke: #000000; stroke-width: 0.8; stroke-linejoin: miter; stroke-linecap: square"/>
   </g>
   <g id="patch_4">
    <path d="M 603.59 231.861625 
L 603.59 21.635625 
" style="fill: none; stroke: #000000; stroke-width: 0.8; stroke-linejoin: miter; stroke-linecap: square"/>
   </g>
   <g id="patch_5">
    <path d="M 39.7 231.861625 
L 603.59 231.861625 
" style="fill: none; stroke: #000000; stroke-width: 0.8; stroke-linejoin: miter; stroke-linecap: square"/>
   </g>
   <g id="patch_6">
    <path d="M 39.7 21.635625 
L 603.59 21.635625 
" style="fill: none; stroke: #000000; stroke-width: 0.8; stroke-linejoin: miter; stroke-linecap: square"/>
   </g>
   <g id="text_13">
    <!-- $x/D = 10$, $C_T = 1.0$, T.I.$= 4$%, W.R.$=$True -->
    <g transform="translate(207.885 15.635625)scale(0.12 -0.12)">
     <defs>
      <path id="DejaVuSans-Oblique-78" d="M 3841 3500 
L 2234 1784 
L 3219 0 
L 2559 0 
L 1819 1388 
L 531 0 
L -166 0 
L 1556 1844 
L 641 3500 
L 1300 3500 
L 1972 2234 
L 3144 3500 
L 3841 3500 
z
" transform="scale(0.015625)"/>
      <path id="DejaVuSans-3d" d="M 678 2906 
L 4684 2906 
L 4684 2381 
L 678 2381 
L 678 2906 
z
M 678 1631 
L 4684 1631 
L 4684 1100 
L 678 1100 
L 678 1631 
z
" transform="scale(0.015625)"/>
      <path id="DejaVuSans-31" d="M 794 531 
L 1825 531 
L 1825 4091 
L 703 3866 
L 703 4441 
L 1819 4666 
L 2450 4666 
L 2450 531 
L 3481 531 
L 3481 0 
L 794 0 
L 794 531 
z
" transform="scale(0.015625)"/>
      <path id="DejaVuSans-30" d="M 2034 4250 
Q 1547 4250 1301 3770 
Q 1056 3291 1056 2328 
Q 1056 1369 1301 889 
Q 1547 409 2034 409 
Q 2525 409 2770 889 
Q 3016 1369 3016 2328 
Q 3016 3291 2770 3770 
Q 2525 4250 2034 4250 
z
M 2034 4750 
Q 2819 4750 3233 4129 
Q 3647 3509 3647 2328 
Q 3647 1150 3233 529 
Q 2819 -91 2034 -91 
Q 1250 -91 836 529 
Q 422 1150 422 2328 
Q 422 3509 836 4129 
Q 1250 4750 2034 4750 
z
" transform="scale(0.015625)"/>
      <path id="STIXGeneral-Regular-2c" d="M 531 -902 
L 467 -781 
Q 998 -422 998 -96 
Q 998 -13 909 -13 
Q 883 -13 822 -25 
Q 762 -38 723 -38 
Q 352 -38 352 288 
Q 352 454 457 553 
Q 563 653 736 653 
Q 954 653 1101 496 
Q 1248 339 1248 96 
Q 1248 -198 1053 -473 
Q 858 -749 531 -902 
z
" transform="scale(0.015625)"/>
      <path id="DejaVuSans-Oblique-43" d="M 4447 4306 
L 4319 3641 
Q 4019 3944 3683 4091 
Q 3347 4238 2956 4238 
Q 2422 4238 2017 3981 
Q 1613 3725 1319 3200 
Q 1131 2863 1032 2486 
Q 934 2109 934 1728 
Q 934 1091 1264 756 
Q 1594 422 2222 422 
Q 2656 422 3056 561 
Q 3456 700 3834 978 
L 3688 231 
Q 3316 72 2936 -9 
Q 2556 -91 2175 -91 
Q 1278 -91 773 396 
Q 269 884 269 1753 
Q 269 2309 461 2846 
Q 653 3384 1013 3828 
Q 1394 4300 1883 4525 
Q 2372 4750 3022 4750 
Q 3422 4750 3780 4639 
Q 4138 4528 4447 4306 
z
" transform="scale(0.015625)"/>
      <path id="DejaVuSans-Oblique-54" d="M 378 4666 
L 4325 4666 
L 4225 4134 
L 2559 4134 
L 1759 0 
L 1125 0 
L 1925 4134 
L 275 4134 
L 378 4666 
z
" transform="scale(0.015625)"/>
      <path id="DejaVuSans-2e" d="M 684 794 
L 1344 794 
L 1344 0 
L 684 0 
L 684 794 
z
" transform="scale(0.015625)"/>
      <path id="STIXGeneral-Regular-54" d="M 3795 3149 
L 3642 3149 
Q 3539 3674 3353 3821 
Q 3168 3968 2656 3968 
L 2278 3968 
L 2278 710 
Q 2278 346 2387 243 
Q 2496 141 2893 122 
L 2893 0 
L 1024 0 
L 1024 122 
Q 1427 147 1526 256 
Q 1626 365 1626 787 
L 1626 3968 
L 1242 3968 
Q 723 3968 540 3817 
Q 358 3667 262 3149 
L 109 3149 
L 154 4237 
L 3750 4237 
L 3795 3149 
z
" transform="scale(0.015625)"/>
      <path id="STIXGeneral-Regular-49" d="M 2016 0 
L 115 0 
L 115 122 
Q 518 134 627 240 
Q 736 346 736 717 
L 736 3526 
Q 736 3898 633 3994 
Q 531 4090 115 4115 
L 115 4237 
L 2016 4237 
L 2016 4115 
Q 1613 4096 1501 3993 
Q 1389 3891 1389 3526 
L 1389 717 
Q 1389 358 1504 246 
Q 1619 134 2016 122 
L 2016 0 
z
" transform="scale(0.015625)"/>
      <path id="DejaVuSans-34" d="M 2419 4116 
L 825 1625 
L 2419 1625 
L 2419 4116 
z
M 2253 4666 
L 3047 4666 
L 3047 1625 
L 3713 1625 
L 3713 1100 
L 3047 1100 
L 3047 0 
L 2419 0 
L 2419 1100 
L 313 1100 
L 313 1709 
L 2253 4666 
z
" transform="scale(0.015625)"/>
      <path id="STIXGeneral-Regular-25" d="M 4390 1363 
Q 4390 781 4070 329 
Q 3750 -122 3341 -122 
Q 3014 -122 2790 134 
Q 2566 390 2566 762 
Q 2566 1274 2940 1693 
Q 3315 2112 3776 2112 
Q 4070 2112 4230 1917 
Q 4390 1722 4390 1363 
z
M 4243 1376 
Q 4243 1626 4131 1779 
Q 4019 1933 3840 1933 
Q 3654 1933 3526 1786 
Q 3315 1562 3171 1187 
Q 3027 813 3027 486 
Q 3027 301 3129 176 
Q 3232 51 3386 51 
Q 3718 51 3980 457 
Q 4243 864 4243 1376 
z
M 3974 4518 
L 1222 -115 
L 922 -115 
L 3443 4096 
Q 3264 3891 3094 3811 
Q 2925 3731 2669 3731 
Q 2445 3731 2182 3821 
Q 2208 3674 2208 3539 
Q 2208 3206 2067 2873 
Q 1926 2541 1696 2323 
Q 1453 2086 1146 2086 
Q 826 2086 608 2339 
Q 390 2592 390 2963 
Q 390 3507 761 3916 
Q 1133 4326 1626 4326 
Q 1792 4326 2010 4147 
Q 2310 3898 2624 3898 
Q 2918 3898 3084 3994 
Q 3251 4090 3693 4518 
L 3974 4518 
z
M 2054 3642 
Q 2054 3782 2025 3833 
Q 1997 3885 1894 3936 
Q 1747 4006 1613 4154 
Q 1414 4058 1331 3984 
Q 1248 3910 1152 3750 
Q 845 3264 845 2707 
Q 845 2509 944 2384 
Q 1043 2259 1210 2259 
Q 1549 2259 1801 2675 
Q 2054 3091 2054 3642 
z
" transform="scale(0.015625)"/>
      <path id="STIXGeneral-Regular-57" d="M 5965 4237 
L 5965 4115 
Q 5709 4064 5616 3990 
Q 5523 3917 5434 3667 
Q 4704 1709 4128 -70 
L 4032 -70 
Q 3642 1011 3008 2637 
L 2022 -70 
L 1926 -70 
Q 1709 576 1277 1753 
Q 845 2931 698 3347 
Q 538 3808 406 3958 
Q 275 4109 32 4115 
L 32 4237 
L 1594 4237 
L 1594 4115 
Q 1357 4109 1270 4064 
Q 1184 4019 1184 3917 
Q 1184 3808 1254 3616 
L 2176 1210 
L 2842 3021 
L 2662 3501 
Q 2509 3917 2400 4013 
Q 2291 4109 2010 4115 
L 2010 4237 
L 3706 4237 
L 3706 4115 
Q 3213 4102 3213 3891 
Q 3213 3808 3322 3520 
L 4237 1190 
L 5043 3360 
Q 5152 3667 5152 3853 
Q 5152 4109 4704 4115 
L 4704 4237 
L 5965 4237 
z
" transform="scale(0.015625)"/>
      <path id="STIXGeneral-Regular-52" d="M 4224 0 
L 3187 0 
L 1664 1971 
L 1306 1958 
L 1306 717 
Q 1306 352 1405 249 
Q 1504 147 1875 122 
L 1875 0 
L 109 0 
L 109 122 
Q 474 154 563 262 
Q 653 371 653 794 
L 653 3526 
Q 653 3885 563 3987 
Q 474 4090 109 4115 
L 109 4237 
L 1850 4237 
Q 2726 4237 3187 3859 
Q 3501 3603 3501 3091 
Q 3501 2221 2342 2042 
L 3622 422 
Q 3757 256 3878 198 
Q 4000 141 4224 122 
L 4224 0 
z
M 1306 3731 
L 1306 2195 
Q 1766 2202 1990 2246 
Q 2214 2291 2438 2413 
Q 2803 2618 2803 3142 
Q 2803 4000 1632 4000 
Q 1459 4000 1382 3945 
Q 1306 3891 1306 3731 
z
" transform="scale(0.015625)"/>
      <path id="STIXGeneral-Regular-72" d="M 1024 2931 
L 1024 2342 
Q 1267 2688 1430 2816 
Q 1594 2944 1792 2944 
Q 1958 2944 2051 2854 
Q 2144 2765 2144 2605 
Q 2144 2470 2077 2393 
Q 2010 2317 1894 2317 
Q 1773 2317 1638 2445 
Q 1536 2541 1472 2541 
Q 1338 2541 1181 2355 
Q 1024 2170 1024 2016 
L 1024 576 
Q 1024 301 1133 205 
Q 1242 109 1568 96 
L 1568 0 
L 32 0 
L 32 96 
Q 339 154 412 224 
Q 486 294 486 538 
L 486 2138 
Q 486 2349 438 2435 
Q 390 2522 269 2522 
Q 166 2522 45 2496 
L 45 2598 
Q 448 2726 992 2944 
L 1024 2931 
z
" transform="scale(0.015625)"/>
      <path id="STIXGeneral-Regular-75" d="M 3072 320 
L 3072 230 
Q 2573 96 2195 -58 
L 2163 -38 
L 2163 486 
L 2150 486 
Q 1747 -64 1235 -64 
Q 870 -64 662 160 
Q 454 384 454 755 
L 454 2362 
Q 454 2598 371 2688 
Q 288 2778 58 2790 
L 58 2880 
L 992 2880 
L 992 813 
Q 992 595 1123 451 
Q 1254 307 1446 307 
Q 1760 307 1984 506 
Q 2067 582 2099 649 
Q 2131 717 2131 877 
L 2131 2355 
Q 2131 2605 2041 2678 
Q 1952 2752 1658 2771 
L 1658 2880 
L 2669 2880 
L 2669 685 
Q 2669 461 2742 390 
Q 2816 320 3034 320 
L 3072 320 
z
" transform="scale(0.015625)"/>
      <path id="STIXGeneral-Regular-65" d="M 2611 1050 
L 2714 1005 
Q 2330 -64 1376 -64 
Q 813 -64 486 329 
Q 160 723 160 1389 
Q 160 2074 525 2509 
Q 890 2944 1485 2944 
Q 2061 2944 2374 2502 
Q 2560 2246 2592 1773 
L 621 1773 
Q 646 1370 700 1158 
Q 755 947 915 730 
Q 1184 378 1626 378 
Q 1939 378 2153 531 
Q 2368 685 2611 1050 
z
M 634 1978 
L 1939 1978 
Q 1882 2381 1750 2547 
Q 1619 2714 1312 2714 
Q 1043 2714 864 2525 
Q 685 2336 634 1978 
z
" transform="scale(0.015625)"/>
     </defs>
     <use xlink:href="#DejaVuSans-Oblique-78" transform="translate(0 0.78125)"/>
     <use xlink:href="#DejaVuSans-2f" transform="translate(59.179688 0.78125)"/>
     <use xlink:href="#DejaVuSans-Oblique-44" transform="translate(92.871094 0.78125)"/>
     <use xlink:href="#DejaVuSans-3d" transform="translate(189.355469 0.78125)"/>
     <use xlink:href="#DejaVuSans-31" transform="translate(292.626953 0.78125)"/>
     <use xlink:href="#DejaVuSans-30" transform="translate(356.25 0.78125)"/>
     <use xlink:href="#STIXGeneral-Regular-2c" transform="translate(419.873047 0.78125)"/>
     <use xlink:href="#STIXGeneral-Regular-20" transform="translate(444.873032 0.78125)"/>
     <use xlink:href="#DejaVuSans-Oblique-43" transform="translate(469.873016 0.78125)"/>
     <use xlink:href="#DejaVuSans-Oblique-54" transform="translate(539.697235 -15.625)scale(0.7)"/>
     <use xlink:href="#DejaVuSans-3d" transform="translate(604.672821 0.78125)"/>
     <use xlink:href="#DejaVuSans-31" transform="translate(707.944305 0.78125)"/>
     <use xlink:href="#DejaVuSans-2e" transform="translate(771.567352 0.78125)"/>
     <use xlink:href="#DejaVuSans-30" transform="translate(803.354462 0.78125)"/>
     <use xlink:href="#STIXGeneral-Regular-2c" transform="translate(866.977509 0.78125)"/>
     <use xlink:href="#STIXGeneral-Regular-20" transform="translate(891.977493 0.78125)"/>
     <use xlink:href="#STIXGeneral-Regular-54" transform="translate(916.977478 0.78125)"/>
     <use xlink:href="#STIXGeneral-Regular-2e" transform="translate(978.077469 0.78125)"/>
     <use xlink:href="#STIXGeneral-Regular-49" transform="translate(1003.077454 0.78125)"/>
     <use xlink:href="#STIXGeneral-Regular-2e" transform="translate(1036.377441 0.78125)"/>
     <use xlink:href="#DejaVuSans-3d" transform="translate(1080.859848 0.78125)"/>
     <use xlink:href="#DejaVuSans-34" transform="translate(1184.131332 0.78125)"/>
     <use xlink:href="#STIXGeneral-Regular-25" transform="translate(1247.754379 0.78125)"/>
     <use xlink:href="#STIXGeneral-Regular-2c" transform="translate(1322.454361 0.78125)"/>
     <use xlink:href="#STIXGeneral-Regular-20" transform="translate(1347.454346 0.78125)"/>
     <use xlink:href="#STIXGeneral-Regular-57" transform="translate(1372.45433 0.78125)"/>
     <use xlink:href="#STIXGeneral-Regular-2e" transform="translate(1466.854324 0.78125)"/>
     <use xlink:href="#STIXGeneral-Regular-52" transform="translate(1491.854309 0.78125)"/>
     <use xlink:href="#STIXGeneral-Regular-2e" transform="translate(1558.554306 0.78125)"/>
     <use xlink:href="#DejaVuSans-3d" transform="translate(1603.036713 0.78125)"/>
     <use xlink:href="#STIXGeneral-Regular-54" transform="translate(1706.308197 0.78125)"/>
     <use xlink:href="#STIXGeneral-Regular-72" transform="translate(1767.408188 0.78125)"/>
     <use xlink:href="#STIXGeneral-Regular-75" transform="translate(1800.708176 0.78125)"/>
     <use xlink:href="#STIXGeneral-Regular-65" transform="translate(1850.70816 0.78125)"/>
    </g>
   </g>
   <g id="legend_1">
    <g id="patch_7">
     <path d="M 526.19 102.635625 
L 596.59 102.635625 
Q 598.59 102.635625 598.59 100.635625 
L 598.59 28.635625 
Q 598.59 26.635625 596.59 26.635625 
L 526.19 26.635625 
Q 524.19 26.635625 524.19 28.635625 
L 524.19 100.635625 
Q 524.19 102.635625 526.19 102.635625 
z
" style="fill: #ffffff; opacity: 0.8; stroke: #cccccc; stroke-linejoin: miter"/>
    </g>
    <g id="line2d_26">
     <path d="M 528.19 34.565313 
L 538.19 34.565313 
L 548.19 34.565313 
" style="fill: none; stroke: #1f77b4; stroke-width: 2; stroke-linecap: square"/>
    </g>
    <g id="text_14">
     <!-- $\gamma$$= 0$$^\circ$ -->
     <g transform="translate(556.19 38.065313)scale(0.1 -0.1)">
      <defs>
       <path id="DejaVuSans-Oblique-3b3" d="M 1491 2950 
L 1838 788 
L 3456 3500 
L 4066 3500 
L 1972 0 
L 1713 -1331 
L 1138 -1331 
L 1397 0 
L 988 2613 
Q 925 3006 628 3006 
L 475 3006 
L 569 3500 
L 788 3500 
Q 1403 3500 1491 2950 
z
" transform="scale(0.015625)"/>
       <path id="DejaVuSans-2218" d="M 2003 2603 
Q 1753 2603 1581 2429 
Q 1409 2256 1409 2006 
Q 1409 1759 1581 1589 
Q 1753 1419 2003 1419 
Q 2253 1419 2425 1589 
Q 2597 1759 2597 2006 
Q 2597 2253 2423 2428 
Q 2250 2603 2003 2603 
z
M 2003 3006 
Q 2203 3006 2387 2929 
Q 2572 2853 2706 2709 
Q 2850 2569 2922 2390 
Q 2994 2212 2994 2006 
Q 2994 1594 2705 1308 
Q 2416 1022 1997 1022 
Q 1575 1022 1294 1303 
Q 1013 1584 1013 2006 
Q 1013 2425 1300 2715 
Q 1588 3006 2003 3006 
z
" transform="scale(0.015625)"/>
      </defs>
      <use xlink:href="#DejaVuSans-Oblique-3b3" transform="translate(0 0.78125)"/>
      <use xlink:href="#DejaVuSans-3d" transform="translate(78.662109 0.78125)"/>
      <use xlink:href="#DejaVuSans-30" transform="translate(181.933594 0.78125)"/>
      <use xlink:href="#DejaVuSans-2218" transform="translate(260.151367 39.0625)scale(0.7)"/>
     </g>
    </g>
    <g id="line2d_27">
     <path d="M 528.19 49.165312 
L 538.19 49.165312 
L 548.19 49.165312 
" style="fill: none; stroke: #ff7f0e; stroke-width: 2; stroke-linecap: square"/>
    </g>
    <g id="text_15">
     <!-- $\gamma$$= 10$$^\circ$ -->
     <g transform="translate(556.19 52.665312)scale(0.1 -0.1)">
      <use xlink:href="#DejaVuSans-Oblique-3b3" transform="translate(0 0.78125)"/>
      <use xlink:href="#DejaVuSans-3d" transform="translate(78.662109 0.78125)"/>
      <use xlink:href="#DejaVuSans-31" transform="translate(181.933594 0.78125)"/>
      <use xlink:href="#DejaVuSans-30" transform="translate(245.556641 0.78125)"/>
      <use xlink:href="#DejaVuSans-2218" transform="translate(323.774414 39.0625)scale(0.7)"/>
     </g>
    </g>
    <g id="line2d_28">
     <path d="M 528.19 63.765312 
L 538.19 63.765312 
L 548.19 63.765312 
" style="fill: none; stroke: #2ca02c; stroke-width: 2; stroke-linecap: square"/>
    </g>
    <g id="text_16">
     <!-- $\gamma$$= 20$$^\circ$ -->
     <g transform="translate(556.19 67.265312)scale(0.1 -0.1)">
      <defs>
       <path id="DejaVuSans-32" d="M 1228 531 
L 3431 531 
L 3431 0 
L 469 0 
L 469 531 
Q 828 903 1448 1529 
Q 2069 2156 2228 2338 
Q 2531 2678 2651 2914 
Q 2772 3150 2772 3378 
Q 2772 3750 2511 3984 
Q 2250 4219 1831 4219 
Q 1534 4219 1204 4116 
Q 875 4013 500 3803 
L 500 4441 
Q 881 4594 1212 4672 
Q 1544 4750 1819 4750 
Q 2544 4750 2975 4387 
Q 3406 4025 3406 3419 
Q 3406 3131 3298 2873 
Q 3191 2616 2906 2266 
Q 2828 2175 2409 1742 
Q 1991 1309 1228 531 
z
" transform="scale(0.015625)"/>
      </defs>
      <use xlink:href="#DejaVuSans-Oblique-3b3" transform="translate(0 0.78125)"/>
      <use xlink:href="#DejaVuSans-3d" transform="translate(78.662109 0.78125)"/>
      <use xlink:href="#DejaVuSans-32" transform="translate(181.933594 0.78125)"/>
      <use xlink:href="#DejaVuSans-30" transform="translate(245.556641 0.78125)"/>
      <use xlink:href="#DejaVuSans-2218" transform="translate(323.774414 39.0625)scale(0.7)"/>
     </g>
    </g>
    <g id="line2d_29">
     <path d="M 528.19 78.365313 
L 538.19 78.365313 
L 548.19 78.365313 
" style="fill: none; stroke: #d62728; stroke-width: 2; stroke-linecap: square"/>
    </g>
    <g id="text_17">
     <!-- $\gamma$$= 30$$^\circ$ -->
     <g transform="translate(556.19 81.865313)scale(0.1 -0.1)">
      <defs>
       <path id="DejaVuSans-33" d="M 2597 2516 
Q 3050 2419 3304 2112 
Q 3559 1806 3559 1356 
Q 3559 666 3084 287 
Q 2609 -91 1734 -91 
Q 1441 -91 1130 -33 
Q 819 25 488 141 
L 488 750 
Q 750 597 1062 519 
Q 1375 441 1716 441 
Q 2309 441 2620 675 
Q 2931 909 2931 1356 
Q 2931 1769 2642 2001 
Q 2353 2234 1838 2234 
L 1294 2234 
L 1294 2753 
L 1863 2753 
Q 2328 2753 2575 2939 
Q 2822 3125 2822 3475 
Q 2822 3834 2567 4026 
Q 2313 4219 1838 4219 
Q 1578 4219 1281 4162 
Q 984 4106 628 3988 
L 628 4550 
Q 988 4650 1302 4700 
Q 1616 4750 1894 4750 
Q 2613 4750 3031 4423 
Q 3450 4097 3450 3541 
Q 3450 3153 3228 2886 
Q 3006 2619 2597 2516 
z
" transform="scale(0.015625)"/>
      </defs>
      <use xlink:href="#DejaVuSans-Oblique-3b3" transform="translate(0 0.78125)"/>
      <use xlink:href="#DejaVuSans-3d" transform="translate(78.662109 0.78125)"/>
      <use xlink:href="#DejaVuSans-33" transform="translate(181.933594 0.78125)"/>
      <use xlink:href="#DejaVuSans-30" transform="translate(245.556641 0.78125)"/>
      <use xlink:href="#DejaVuSans-2218" transform="translate(323.774414 39.0625)scale(0.7)"/>
     </g>
    </g>
    <g id="line2d_30">
     <path d="M 528.19 92.965313 
L 538.19 92.965313 
L 548.19 92.965313 
" style="fill: none; stroke: #9467bd; stroke-width: 2; stroke-linecap: square"/>
    </g>
    <g id="text_18">
     <!-- $\gamma$$= 40$$^\circ$ -->
     <g transform="translate(556.19 96.465313)scale(0.1 -0.1)">
      <use xlink:href="#DejaVuSans-Oblique-3b3" transform="translate(0 0.78125)"/>
      <use xlink:href="#DejaVuSans-3d" transform="translate(78.662109 0.78125)"/>
      <use xlink:href="#DejaVuSans-34" transform="translate(181.933594 0.78125)"/>
      <use xlink:href="#DejaVuSans-30" transform="translate(245.556641 0.78125)"/>
      <use xlink:href="#DejaVuSans-2218" transform="translate(323.774414 39.0625)scale(0.7)"/>
     </g>
    </g>
   </g>
  </g>
 </g>
 <defs>
  <clipPath id="p8795d01624">
   <rect x="39.7" y="21.635625" width="563.89" height="210.226"/>
  </clipPath>
 </defs>
</svg>
