<?xml version="1.0" encoding="utf-8" standalone="no"?>
<!DOCTYPE svg PUBLIC "-//W3C//DTD SVG 1.1//EN"
  "http://www.w3.org/Graphics/SVG/1.1/DTD/svg11.dtd">
<svg xmlns:xlink="http://www.w3.org/1999/xlink" width="530.682pt" height="277.546825pt" viewBox="0 0 530.682 277.546825" xmlns="http://www.w3.org/2000/svg" version="1.1">
 <metadata>
  <rdf:RDF xmlns:dc="http://purl.org/dc/elements/1.1/" xmlns:cc="http://creativecommons.org/ns#" xmlns:rdf="http://www.w3.org/1999/02/22-rdf-syntax-ns#">
   <cc:Work>
    <dc:type rdf:resource="http://purl.org/dc/dcmitype/StillImage"/>
    <dc:date>2022-04-18T13:12:55.095327</dc:date>
    <dc:format>image/svg+xml</dc:format>
    <dc:creator>
     <cc:Agent>
      <dc:title>Matplotlib v3.5.1, https://matplotlib.org/</dc:title>
     </cc:Agent>
    </dc:creator>
   </cc:Work>
  </rdf:RDF>
 </metadata>
 <defs>
  <style type="text/css">*{stroke-linejoin: round; stroke-linecap: butt}</style>
 </defs>
 <g id="figure_1">
  <g id="patch_1">
   <path d="M 0 277.546825 
L 530.682 277.546825 
L 530.682 0 
L 0 0 
z
" style="fill: #ffffff"/>
  </g>
  <g id="axes_1">
   <g id="patch_2">
    <path d="M 39.8 238.146825 
L 520.982 238.146825 
L 520.982 22.115625 
L 39.8 22.115625 
z
" style="fill: #ffffff"/>
   </g>
   <g id="matplotlib.axis_1">
    <g id="xtick_1">
     <g id="line2d_1">
      <path d="M 39.8 238.146825 
L 39.8 22.115625 
" clip-path="url(#p9b5222f7ae)" style="fill: none; stroke-dasharray: 0.8,1.32; stroke-dashoffset: 0; stroke: #b0b0b0; stroke-width: 0.8"/>
     </g>
     <g id="line2d_2">
      <defs>
       <path id="mf4ddcbc4ea" d="M 0 0 
L 0 3.5 
" style="stroke: #000000; stroke-width: 0.8"/>
      </defs>
      <g>
       <use xlink:href="#mf4ddcbc4ea" x="39.8" y="238.146825" style="stroke: #000000; stroke-width: 0.8"/>
      </g>
     </g>
     <g id="text_1">
      <!-- −4 -->
      <g transform="translate(33.875 251.976513)scale(0.1 -0.1)">
       <defs>
        <path id="STIXGeneral-Regular-2212" d="M 3974 1408 
L 410 1408 
L 410 1830 
L 3974 1830 
L 3974 1408 
z
" transform="scale(0.015625)"/>
        <path id="STIXGeneral-Regular-34" d="M 3027 1069 
L 2368 1069 
L 2368 0 
L 1869 0 
L 1869 1069 
L 77 1069 
L 77 1478 
L 2086 4326 
L 2368 4326 
L 2368 1478 
L 3027 1478 
L 3027 1069 
z
M 1869 1478 
L 1869 3674 
L 333 1478 
L 1869 1478 
z
" transform="scale(0.015625)"/>
       </defs>
       <use xlink:href="#STIXGeneral-Regular-2212"/>
       <use xlink:href="#STIXGeneral-Regular-34" x="68.499985"/>
      </g>
     </g>
    </g>
    <g id="xtick_2">
     <g id="line2d_3">
      <path d="M 99.94775 238.146825 
L 99.94775 22.115625 
" clip-path="url(#p9b5222f7ae)" style="fill: none; stroke-dasharray: 0.8,1.32; stroke-dashoffset: 0; stroke: #b0b0b0; stroke-width: 0.8"/>
     </g>
     <g id="line2d_4">
      <g>
       <use xlink:href="#mf4ddcbc4ea" x="99.94775" y="238.146825" style="stroke: #000000; stroke-width: 0.8"/>
      </g>
     </g>
     <g id="text_2">
      <!-- −3 -->
      <g transform="translate(94.02275 251.976513)scale(0.1 -0.1)">
       <defs>
        <path id="STIXGeneral-Regular-33" d="M 390 3264 
L 288 3290 
Q 435 3770 748 4048 
Q 1062 4326 1542 4326 
Q 1990 4326 2265 4083 
Q 2541 3840 2541 3450 
Q 2541 2925 1946 2566 
Q 2298 2413 2477 2227 
Q 2758 1914 2758 1402 
Q 2758 890 2464 506 
Q 2246 211 1840 60 
Q 1434 -90 979 -90 
Q 262 -90 262 275 
Q 262 378 339 442 
Q 416 506 525 506 
Q 685 506 915 339 
Q 1197 141 1466 141 
Q 1818 141 2058 425 
Q 2298 710 2298 1120 
Q 2298 1856 1632 2048 
Q 1434 2112 979 2112 
L 979 2202 
Q 1338 2323 1517 2432 
Q 2035 2726 2035 3290 
Q 2035 3610 1852 3776 
Q 1670 3942 1344 3942 
Q 768 3942 390 3264 
z
" transform="scale(0.015625)"/>
       </defs>
       <use xlink:href="#STIXGeneral-Regular-2212"/>
       <use xlink:href="#STIXGeneral-Regular-33" x="68.499985"/>
      </g>
     </g>
    </g>
    <g id="xtick_3">
     <g id="line2d_5">
      <path d="M 160.0955 238.146825 
L 160.0955 22.115625 
" clip-path="url(#p9b5222f7ae)" style="fill: none; stroke-dasharray: 0.8,1.32; stroke-dashoffset: 0; stroke: #b0b0b0; stroke-width: 0.8"/>
     </g>
     <g id="line2d_6">
      <g>
       <use xlink:href="#mf4ddcbc4ea" x="160.0955" y="238.146825" style="stroke: #000000; stroke-width: 0.8"/>
      </g>
     </g>
     <g id="text_3">
      <!-- −2 -->
      <g transform="translate(154.1705 251.976513)scale(0.1 -0.1)">
       <defs>
        <path id="STIXGeneral-Regular-32" d="M 3034 877 
L 2688 0 
L 186 0 
L 186 77 
L 1325 1286 
Q 1773 1754 1965 2144 
Q 2157 2534 2157 2950 
Q 2157 3379 1920 3616 
Q 1683 3853 1267 3853 
Q 922 3853 720 3673 
Q 518 3494 326 3021 
L 192 3053 
Q 301 3648 630 3987 
Q 960 4326 1523 4326 
Q 2054 4326 2380 4006 
Q 2707 3686 2707 3200 
Q 2707 2477 1888 1613 
L 832 486 
L 2330 486 
Q 2541 486 2665 569 
Q 2790 653 2944 915 
L 3034 877 
z
" transform="scale(0.015625)"/>
       </defs>
       <use xlink:href="#STIXGeneral-Regular-2212"/>
       <use xlink:href="#STIXGeneral-Regular-32" x="68.499985"/>
      </g>
     </g>
    </g>
    <g id="xtick_4">
     <g id="line2d_7">
      <path d="M 220.24325 238.146825 
L 220.24325 22.115625 
" clip-path="url(#p9b5222f7ae)" style="fill: none; stroke-dasharray: 0.8,1.32; stroke-dashoffset: 0; stroke: #b0b0b0; stroke-width: 0.8"/>
     </g>
     <g id="line2d_8">
      <g>
       <use xlink:href="#mf4ddcbc4ea" x="220.24325" y="238.146825" style="stroke: #000000; stroke-width: 0.8"/>
      </g>
     </g>
     <g id="text_4">
      <!-- −1 -->
      <g transform="translate(214.31825 251.976513)scale(0.1 -0.1)">
       <defs>
        <path id="STIXGeneral-Regular-31" d="M 2522 0 
L 755 0 
L 755 96 
Q 1107 115 1235 227 
Q 1363 339 1363 608 
L 1363 3482 
Q 1363 3795 1171 3795 
Q 1082 3795 883 3718 
L 710 3654 
L 710 3744 
L 1856 4326 
L 1914 4307 
L 1914 486 
Q 1914 275 2042 185 
Q 2170 96 2522 96 
L 2522 0 
z
" transform="scale(0.015625)"/>
       </defs>
       <use xlink:href="#STIXGeneral-Regular-2212"/>
       <use xlink:href="#STIXGeneral-Regular-31" x="68.499985"/>
      </g>
     </g>
    </g>
    <g id="xtick_5">
     <g id="line2d_9">
      <path d="M 280.391 238.146825 
L 280.391 22.115625 
" clip-path="url(#p9b5222f7ae)" style="fill: none; stroke-dasharray: 0.8,1.32; stroke-dashoffset: 0; stroke: #b0b0b0; stroke-width: 0.8"/>
     </g>
     <g id="line2d_10">
      <g>
       <use xlink:href="#mf4ddcbc4ea" x="280.391" y="238.146825" style="stroke: #000000; stroke-width: 0.8"/>
      </g>
     </g>
     <g id="text_5">
      <!-- 0 -->
      <g transform="translate(277.891 251.976513)scale(0.1 -0.1)">
       <defs>
        <path id="STIXGeneral-Regular-30" d="M 3046 2112 
Q 3046 1683 2963 1302 
Q 2880 922 2717 602 
Q 2554 282 2266 96 
Q 1978 -90 1600 -90 
Q 1210 -90 915 108 
Q 621 307 461 640 
Q 301 973 227 1350 
Q 154 1728 154 2150 
Q 154 2746 301 3222 
Q 448 3699 790 4012 
Q 1133 4326 1626 4326 
Q 2253 4326 2649 3712 
Q 3046 3098 3046 2112 
z
M 2432 2080 
Q 2432 3091 2217 3625 
Q 2003 4160 1587 4160 
Q 1190 4160 979 3622 
Q 768 3085 768 2106 
Q 768 1120 979 598 
Q 1190 77 1600 77 
Q 2003 77 2217 598 
Q 2432 1120 2432 2080 
z
" transform="scale(0.015625)"/>
       </defs>
       <use xlink:href="#STIXGeneral-Regular-30"/>
      </g>
     </g>
    </g>
    <g id="xtick_6">
     <g id="line2d_11">
      <path d="M 340.53875 238.146825 
L 340.53875 22.115625 
" clip-path="url(#p9b5222f7ae)" style="fill: none; stroke-dasharray: 0.8,1.32; stroke-dashoffset: 0; stroke: #b0b0b0; stroke-width: 0.8"/>
     </g>
     <g id="line2d_12">
      <g>
       <use xlink:href="#mf4ddcbc4ea" x="340.53875" y="238.146825" style="stroke: #000000; stroke-width: 0.8"/>
      </g>
     </g>
     <g id="text_6">
      <!-- 1 -->
      <g transform="translate(338.03875 251.976513)scale(0.1 -0.1)">
       <use xlink:href="#STIXGeneral-Regular-31"/>
      </g>
     </g>
    </g>
    <g id="xtick_7">
     <g id="line2d_13">
      <path d="M 400.6865 238.146825 
L 400.6865 22.115625 
" clip-path="url(#p9b5222f7ae)" style="fill: none; stroke-dasharray: 0.8,1.32; stroke-dashoffset: 0; stroke: #b0b0b0; stroke-width: 0.8"/>
     </g>
     <g id="line2d_14">
      <g>
       <use xlink:href="#mf4ddcbc4ea" x="400.6865" y="238.146825" style="stroke: #000000; stroke-width: 0.8"/>
      </g>
     </g>
     <g id="text_7">
      <!-- 2 -->
      <g transform="translate(398.1865 251.976513)scale(0.1 -0.1)">
       <use xlink:href="#STIXGeneral-Regular-32"/>
      </g>
     </g>
    </g>
    <g id="xtick_8">
     <g id="line2d_15">
      <path d="M 460.83425 238.146825 
L 460.83425 22.115625 
" clip-path="url(#p9b5222f7ae)" style="fill: none; stroke-dasharray: 0.8,1.32; stroke-dashoffset: 0; stroke: #b0b0b0; stroke-width: 0.8"/>
     </g>
     <g id="line2d_16">
      <g>
       <use xlink:href="#mf4ddcbc4ea" x="460.83425" y="238.146825" style="stroke: #000000; stroke-width: 0.8"/>
      </g>
     </g>
     <g id="text_8">
      <!-- 3 -->
      <g transform="translate(458.33425 251.976513)scale(0.1 -0.1)">
       <use xlink:href="#STIXGeneral-Regular-33"/>
      </g>
     </g>
    </g>
    <g id="xtick_9">
     <g id="line2d_17">
      <path d="M 520.982 238.146825 
L 520.982 22.115625 
" clip-path="url(#p9b5222f7ae)" style="fill: none; stroke-dasharray: 0.8,1.32; stroke-dashoffset: 0; stroke: #b0b0b0; stroke-width: 0.8"/>
     </g>
     <g id="line2d_18">
      <g>
       <use xlink:href="#mf4ddcbc4ea" x="520.982" y="238.146825" style="stroke: #000000; stroke-width: 0.8"/>
      </g>
     </g>
     <g id="text_9">
      <!-- 4 -->
      <g transform="translate(518.482 251.976513)scale(0.1 -0.1)">
       <use xlink:href="#STIXGeneral-Regular-34"/>
      </g>
     </g>
    </g>
    <g id="text_10">
     <!-- $y^*_V/\sigma_{y,V}$ [-] -->
     <g transform="translate(256.441 267.246825)scale(0.1 -0.1)">
      <defs>
       <path id="DejaVuSans-Oblique-79" d="M 1588 -325 
Q 1188 -997 936 -1164 
Q 684 -1331 294 -1331 
L -159 -1331 
L -63 -850 
L 269 -850 
Q 509 -850 678 -719 
Q 847 -588 1056 -206 
L 1234 128 
L 459 3500 
L 1069 3500 
L 1650 819 
L 3256 3500 
L 3859 3500 
L 1588 -325 
z
" transform="scale(0.015625)"/>
       <path id="DejaVuSans-2a" d="M 3009 3897 
L 1888 3291 
L 3009 2681 
L 2828 2375 
L 1778 3009 
L 1778 1831 
L 1422 1831 
L 1422 3009 
L 372 2375 
L 191 2681 
L 1313 3291 
L 191 3897 
L 372 4206 
L 1422 3572 
L 1422 4750 
L 1778 4750 
L 1778 3572 
L 2828 4206 
L 3009 3897 
z
" transform="scale(0.015625)"/>
       <path id="DejaVuSans-Oblique-56" d="M 1319 0 
L 500 4666 
L 1119 4666 
L 1797 653 
L 4063 4666 
L 4750 4666 
L 2053 0 
L 1319 0 
z
" transform="scale(0.015625)"/>
       <path id="DejaVuSans-2f" d="M 1625 4666 
L 2156 4666 
L 531 -594 
L 0 -594 
L 1625 4666 
z
" transform="scale(0.015625)"/>
       <path id="DejaVuSans-Oblique-3c3" d="M 2219 3044 
Q 1744 3044 1422 2700 
Q 1081 2341 969 1747 
Q 844 1119 1044 756 
Q 1241 397 1706 397 
Q 2166 397 2503 759 
Q 2844 1122 2966 1747 
Q 3075 2319 2881 2700 
Q 2700 3044 2219 3044 
z
M 2309 3503 
L 4219 3500 
L 4106 2925 
L 3463 2925 
Q 3706 2438 3575 1747 
Q 3406 888 2884 400 
Q 2359 -91 1609 -91 
Q 856 -91 525 400 
Q 194 888 363 1747 
Q 528 2609 1050 3097 
Q 1484 3503 2309 3503 
z
" transform="scale(0.015625)"/>
       <path id="DejaVuSans-2c" d="M 750 794 
L 1409 794 
L 1409 256 
L 897 -744 
L 494 -744 
L 750 256 
L 750 794 
z
" transform="scale(0.015625)"/>
       <path id="STIXGeneral-Regular-20" transform="scale(0.015625)"/>
       <path id="STIXGeneral-Regular-5b" d="M 1914 -998 
L 563 -998 
L 563 4237 
L 1914 4237 
L 1914 4077 
L 1382 4077 
Q 1216 4077 1133 4006 
Q 1050 3936 1050 3770 
L 1050 -493 
Q 1050 -838 1382 -838 
L 1914 -838 
L 1914 -998 
z
" transform="scale(0.015625)"/>
       <path id="STIXGeneral-Regular-2d" d="M 1824 1242 
L 250 1242 
L 250 1645 
L 1824 1645 
L 1824 1242 
z
" transform="scale(0.015625)"/>
       <path id="STIXGeneral-Regular-5d" d="M 1568 -998 
L 218 -998 
L 218 -838 
L 781 -838 
Q 947 -838 1014 -768 
Q 1082 -698 1082 -544 
L 1082 3731 
Q 1082 4077 755 4077 
L 218 4077 
L 218 4237 
L 1568 4237 
L 1568 -998 
z
" transform="scale(0.015625)"/>
      </defs>
      <use xlink:href="#DejaVuSans-Oblique-79" transform="translate(0 0.765625)"/>
      <use xlink:href="#DejaVuSans-2a" transform="translate(77.283529 39.046875)scale(0.7)"/>
      <use xlink:href="#DejaVuSans-Oblique-56" transform="translate(59.179688 -26.578125)scale(0.7)"/>
      <use xlink:href="#DejaVuSans-2f" transform="translate(128.655599 0.765625)"/>
      <use xlink:href="#DejaVuSans-Oblique-3c3" transform="translate(162.347005 0.765625)"/>
      <use xlink:href="#DejaVuSans-Oblique-79" transform="translate(225.725911 -15.640625)scale(0.7)"/>
      <use xlink:href="#DejaVuSans-2c" transform="translate(267.151693 -15.640625)scale(0.7)"/>
      <use xlink:href="#DejaVuSans-Oblique-56" transform="translate(303.040365 -15.640625)scale(0.7)"/>
      <use xlink:href="#STIXGeneral-Regular-20" transform="translate(353.660482 0.765625)"/>
      <use xlink:href="#STIXGeneral-Regular-5b" transform="translate(378.660467 0.765625)"/>
      <use xlink:href="#STIXGeneral-Regular-2d" transform="translate(411.960454 0.765625)"/>
      <use xlink:href="#STIXGeneral-Regular-5d" transform="translate(445.260442 0.765625)"/>
     </g>
    </g>
   </g>
   <g id="matplotlib.axis_2">
    <g id="ytick_1">
     <g id="line2d_19">
      <path d="M 39.8 238.146825 
L 520.982 238.146825 
" clip-path="url(#p9b5222f7ae)" style="fill: none; stroke-dasharray: 0.8,1.32; stroke-dashoffset: 0; stroke: #b0b0b0; stroke-width: 0.8"/>
     </g>
     <g id="line2d_20">
      <defs>
       <path id="mc56484df76" d="M 0 0 
L -3.5 0 
" style="stroke: #000000; stroke-width: 0.8"/>
      </defs>
      <g>
       <use xlink:href="#mc56484df76" x="39.8" y="238.146825" style="stroke: #000000; stroke-width: 0.8"/>
      </g>
     </g>
     <g id="text_11">
      <!-- 0.0 -->
      <g transform="translate(20.3 241.561669)scale(0.1 -0.1)">
       <defs>
        <path id="STIXGeneral-Regular-2e" d="M 1158 275 
Q 1158 134 1052 32 
Q 947 -70 800 -70 
Q 653 -70 550 32 
Q 448 134 448 281 
Q 448 429 553 534 
Q 659 640 806 640 
Q 947 640 1052 531 
Q 1158 422 1158 275 
z
" transform="scale(0.015625)"/>
       </defs>
       <use xlink:href="#STIXGeneral-Regular-30"/>
       <use xlink:href="#STIXGeneral-Regular-2e" x="49.999985"/>
       <use xlink:href="#STIXGeneral-Regular-30" x="74.999969"/>
      </g>
     </g>
    </g>
    <g id="ytick_2">
     <g id="line2d_21">
      <path d="M 39.8 203.412512 
L 520.982 203.412512 
" clip-path="url(#p9b5222f7ae)" style="fill: none; stroke-dasharray: 0.8,1.32; stroke-dashoffset: 0; stroke: #b0b0b0; stroke-width: 0.8"/>
     </g>
     <g id="line2d_22">
      <g>
       <use xlink:href="#mc56484df76" x="39.8" y="203.412512" style="stroke: #000000; stroke-width: 0.8"/>
      </g>
     </g>
     <g id="text_12">
      <!-- 0.2 -->
      <g transform="translate(20.3 206.827356)scale(0.1 -0.1)">
       <use xlink:href="#STIXGeneral-Regular-30"/>
       <use xlink:href="#STIXGeneral-Regular-2e" x="49.999985"/>
       <use xlink:href="#STIXGeneral-Regular-32" x="74.999969"/>
      </g>
     </g>
    </g>
    <g id="ytick_3">
     <g id="line2d_23">
      <path d="M 39.8 168.678199 
L 520.982 168.678199 
" clip-path="url(#p9b5222f7ae)" style="fill: none; stroke-dasharray: 0.8,1.32; stroke-dashoffset: 0; stroke: #b0b0b0; stroke-width: 0.8"/>
     </g>
     <g id="line2d_24">
      <g>
       <use xlink:href="#mc56484df76" x="39.8" y="168.678199" style="stroke: #000000; stroke-width: 0.8"/>
      </g>
     </g>
     <g id="text_13">
      <!-- 0.4 -->
      <g transform="translate(20.3 172.093042)scale(0.1 -0.1)">
       <use xlink:href="#STIXGeneral-Regular-30"/>
       <use xlink:href="#STIXGeneral-Regular-2e" x="49.999985"/>
       <use xlink:href="#STIXGeneral-Regular-34" x="74.999969"/>
      </g>
     </g>
    </g>
    <g id="ytick_4">
     <g id="line2d_25">
      <path d="M 39.8 133.943885 
L 520.982 133.943885 
" clip-path="url(#p9b5222f7ae)" style="fill: none; stroke-dasharray: 0.8,1.32; stroke-dashoffset: 0; stroke: #b0b0b0; stroke-width: 0.8"/>
     </g>
     <g id="line2d_26">
      <g>
       <use xlink:href="#mc56484df76" x="39.8" y="133.943885" style="stroke: #000000; stroke-width: 0.8"/>
      </g>
     </g>
     <g id="text_14">
      <!-- 0.6 -->
      <g transform="translate(20.3 137.358729)scale(0.1 -0.1)">
       <defs>
        <path id="STIXGeneral-Regular-36" d="M 2854 4378 
L 2867 4275 
Q 2112 4154 1606 3664 
Q 1101 3174 973 2451 
Q 1344 2739 1786 2739 
Q 2349 2739 2672 2380 
Q 2995 2022 2995 1402 
Q 2995 774 2669 378 
Q 2291 -90 1651 -90 
Q 870 -90 518 557 
Q 218 1107 218 1786 
Q 218 2835 915 3552 
Q 1312 3962 1731 4131 
Q 2150 4301 2854 4378 
z
M 2419 1203 
Q 2419 2445 1555 2445 
Q 1235 2445 1024 2275 
Q 813 2106 813 1702 
Q 813 954 1046 522 
Q 1280 90 1722 90 
Q 2061 90 2240 394 
Q 2419 698 2419 1203 
z
" transform="scale(0.015625)"/>
       </defs>
       <use xlink:href="#STIXGeneral-Regular-30"/>
       <use xlink:href="#STIXGeneral-Regular-2e" x="49.999985"/>
       <use xlink:href="#STIXGeneral-Regular-36" x="74.999969"/>
      </g>
     </g>
    </g>
    <g id="ytick_5">
     <g id="line2d_27">
      <path d="M 39.8 99.209572 
L 520.982 99.209572 
" clip-path="url(#p9b5222f7ae)" style="fill: none; stroke-dasharray: 0.8,1.32; stroke-dashoffset: 0; stroke: #b0b0b0; stroke-width: 0.8"/>
     </g>
     <g id="line2d_28">
      <g>
       <use xlink:href="#mc56484df76" x="39.8" y="99.209572" style="stroke: #000000; stroke-width: 0.8"/>
      </g>
     </g>
     <g id="text_15">
      <!-- 0.8 -->
      <g transform="translate(20.3 102.624416)scale(0.1 -0.1)">
       <defs>
        <path id="STIXGeneral-Regular-38" d="M 2848 992 
Q 2848 499 2505 204 
Q 2163 -90 1587 -90 
Q 1050 -90 704 204 
Q 358 499 358 954 
Q 358 1293 524 1533 
Q 691 1773 1190 2125 
Q 710 2522 553 2765 
Q 397 3008 397 3328 
Q 397 3782 745 4054 
Q 1094 4326 1638 4326 
Q 2106 4326 2410 4060 
Q 2714 3795 2714 3411 
Q 2714 3059 2531 2848 
Q 2349 2637 1856 2374 
Q 2432 1990 2640 1689 
Q 2848 1389 2848 992 
z
M 2272 3411 
Q 2272 3744 2086 3945 
Q 1901 4147 1574 4147 
Q 1248 4147 1059 3977 
Q 870 3808 870 3513 
Q 870 3219 1059 2979 
Q 1248 2739 1670 2490 
Q 1997 2682 2134 2896 
Q 2272 3110 2272 3411 
z
M 1734 1741 
L 1357 1997 
Q 1075 1766 960 1545 
Q 845 1325 845 1011 
Q 845 576 1065 333 
Q 1286 90 1658 90 
Q 1971 90 2166 285 
Q 2362 480 2362 794 
Q 2362 1082 2214 1299 
Q 2067 1517 1734 1741 
z
" transform="scale(0.015625)"/>
       </defs>
       <use xlink:href="#STIXGeneral-Regular-30"/>
       <use xlink:href="#STIXGeneral-Regular-2e" x="49.999985"/>
       <use xlink:href="#STIXGeneral-Regular-38" x="74.999969"/>
      </g>
     </g>
    </g>
    <g id="ytick_6">
     <g id="line2d_29">
      <path d="M 39.8 64.475259 
L 520.982 64.475259 
" clip-path="url(#p9b5222f7ae)" style="fill: none; stroke-dasharray: 0.8,1.32; stroke-dashoffset: 0; stroke: #b0b0b0; stroke-width: 0.8"/>
     </g>
     <g id="line2d_30">
      <g>
       <use xlink:href="#mc56484df76" x="39.8" y="64.475259" style="stroke: #000000; stroke-width: 0.8"/>
      </g>
     </g>
     <g id="text_16">
      <!-- 1.0 -->
      <g transform="translate(20.3 67.890103)scale(0.1 -0.1)">
       <use xlink:href="#STIXGeneral-Regular-31"/>
       <use xlink:href="#STIXGeneral-Regular-2e" x="49.999985"/>
       <use xlink:href="#STIXGeneral-Regular-30" x="74.999969"/>
      </g>
     </g>
    </g>
    <g id="ytick_7">
     <g id="line2d_31">
      <path d="M 39.8 29.740946 
L 520.982 29.740946 
" clip-path="url(#p9b5222f7ae)" style="fill: none; stroke-dasharray: 0.8,1.32; stroke-dashoffset: 0; stroke: #b0b0b0; stroke-width: 0.8"/>
     </g>
     <g id="line2d_32">
      <g>
       <use xlink:href="#mc56484df76" x="39.8" y="29.740946" style="stroke: #000000; stroke-width: 0.8"/>
      </g>
     </g>
     <g id="text_17">
      <!-- 1.2 -->
      <g transform="translate(20.3 33.155789)scale(0.1 -0.1)">
       <use xlink:href="#STIXGeneral-Regular-31"/>
       <use xlink:href="#STIXGeneral-Regular-2e" x="49.999985"/>
       <use xlink:href="#STIXGeneral-Regular-32" x="74.999969"/>
      </g>
     </g>
    </g>
    <g id="text_18">
     <!-- $V/V_c$ [-] -->
     <g transform="translate(14.129688 146.981225)rotate(-90)scale(0.1 -0.1)">
      <defs>
       <path id="DejaVuSans-Oblique-63" d="M 3431 3366 
L 3316 2797 
Q 3109 2947 2876 3022 
Q 2644 3097 2394 3097 
Q 2119 3097 1870 3000 
Q 1622 2903 1453 2725 
Q 1184 2453 1037 2087 
Q 891 1722 891 1331 
Q 891 859 1127 628 
Q 1363 397 1844 397 
Q 2081 397 2348 469 
Q 2616 541 2906 684 
L 2797 116 
Q 2547 13 2283 -39 
Q 2019 -91 1741 -91 
Q 1044 -91 669 257 
Q 294 606 294 1253 
Q 294 1797 489 2255 
Q 684 2713 1069 3078 
Q 1331 3328 1684 3456 
Q 2038 3584 2456 3584 
Q 2700 3584 2940 3529 
Q 3181 3475 3431 3366 
z
" transform="scale(0.015625)"/>
      </defs>
      <use xlink:href="#DejaVuSans-Oblique-56" transform="translate(0 0.09375)"/>
      <use xlink:href="#DejaVuSans-2f" transform="translate(68.408203 0.09375)"/>
      <use xlink:href="#DejaVuSans-Oblique-56" transform="translate(102.099609 0.09375)"/>
      <use xlink:href="#DejaVuSans-Oblique-63" transform="translate(170.507812 -16.3125)scale(0.7)"/>
      <use xlink:href="#STIXGeneral-Regular-20" transform="translate(211.728516 0.09375)"/>
      <use xlink:href="#STIXGeneral-Regular-5b" transform="translate(236.7285 0.09375)"/>
      <use xlink:href="#STIXGeneral-Regular-2d" transform="translate(270.028488 0.09375)"/>
      <use xlink:href="#STIXGeneral-Regular-5d" transform="translate(303.328476 0.09375)"/>
     </g>
    </g>
   </g>
   <g id="line2d_33">
    <defs>
     <path id="m0b24e7809d" d="M 0 3 
C 0.795609 3 1.55874 2.683901 2.12132 2.12132 
C 2.683901 1.55874 3 0.795609 3 0 
C 3 -0.795609 2.683901 -1.55874 2.12132 -2.12132 
C 1.55874 -2.683901 0.795609 -3 0 -3 
C -0.795609 -3 -1.55874 -2.683901 -2.12132 -2.12132 
C -2.683901 -1.55874 -3 -0.795609 -3 0 
C -3 0.795609 -2.683901 1.55874 -2.12132 2.12132 
C -1.55874 2.683901 -0.795609 3 0 3 
z
" style="stroke: #1f77b4"/>
    </defs>
    <g clip-path="url(#p9b5222f7ae)">
     <use xlink:href="#m0b24e7809d" x="-1" y="226.942874" style="fill: #1f77b4; stroke: #1f77b4"/>
     <use xlink:href="#m0b24e7809d" x="7.640638" y="226.379236" style="fill: #1f77b4; stroke: #1f77b4"/>
     <use xlink:href="#m0b24e7809d" x="21.278156" y="225.413077" style="fill: #1f77b4; stroke: #1f77b4"/>
     <use xlink:href="#m0b24e7809d" x="34.915674" y="224.350984" style="fill: #1f77b4; stroke: #1f77b4"/>
     <use xlink:href="#m0b24e7809d" x="48.553192" y="223.181107" style="fill: #1f77b4; stroke: #1f77b4"/>
     <use xlink:href="#m0b24e7809d" x="62.19071" y="221.883288" style="fill: #1f77b4; stroke: #1f77b4"/>
     <use xlink:href="#m0b24e7809d" x="75.828228" y="220.432898" style="fill: #1f77b4; stroke: #1f77b4"/>
     <use xlink:href="#m0b24e7809d" x="89.465746" y="218.794395" style="fill: #1f77b4; stroke: #1f77b4"/>
     <use xlink:href="#m0b24e7809d" x="103.103265" y="216.918689" style="fill: #1f77b4; stroke: #1f77b4"/>
     <use xlink:href="#m0b24e7809d" x="116.740783" y="214.733842" style="fill: #1f77b4; stroke: #1f77b4"/>
     <use xlink:href="#m0b24e7809d" x="130.378301" y="212.134553" style="fill: #1f77b4; stroke: #1f77b4"/>
     <use xlink:href="#m0b24e7809d" x="144.015819" y="208.963655" style="fill: #1f77b4; stroke: #1f77b4"/>
     <use xlink:href="#m0b24e7809d" x="157.653337" y="204.983702" style="fill: #1f77b4; stroke: #1f77b4"/>
     <use xlink:href="#m0b24e7809d" x="171.290855" y="199.838686" style="fill: #1f77b4; stroke: #1f77b4"/>
     <use xlink:href="#m0b24e7809d" x="184.928373" y="192.98032" style="fill: #1f77b4; stroke: #1f77b4"/>
     <use xlink:href="#m0b24e7809d" x="198.565891" y="183.592511" style="fill: #1f77b4; stroke: #1f77b4"/>
     <use xlink:href="#m0b24e7809d" x="212.203409" y="170.427274" style="fill: #1f77b4; stroke: #1f77b4"/>
     <use xlink:href="#m0b24e7809d" x="225.840928" y="151.974974" style="fill: #1f77b4; stroke: #1f77b4"/>
     <use xlink:href="#m0b24e7809d" x="239.478446" y="124.909687" style="fill: #1f77b4; stroke: #1f77b4"/>
     <use xlink:href="#m0b24e7809d" x="253.115964" y="89.291085" style="fill: #1f77b4; stroke: #1f77b4"/>
     <use xlink:href="#m0b24e7809d" x="266.753482" y="57.709981" style="fill: #1f77b4; stroke: #1f77b4"/>
     <use xlink:href="#m0b24e7809d" x="280.391" y="44.252871" style="fill: #1f77b4; stroke: #1f77b4"/>
     <use xlink:href="#m0b24e7809d" x="294.028518" y="51.662628" style="fill: #1f77b4; stroke: #1f77b4"/>
     <use xlink:href="#m0b24e7809d" x="307.666036" y="72.322632" style="fill: #1f77b4; stroke: #1f77b4"/>
     <use xlink:href="#m0b24e7809d" x="321.303554" y="97.551977" style="fill: #1f77b4; stroke: #1f77b4"/>
     <use xlink:href="#m0b24e7809d" x="334.941072" y="124.180537" style="fill: #1f77b4; stroke: #1f77b4"/>
     <use xlink:href="#m0b24e7809d" x="348.578591" y="151.804469" style="fill: #1f77b4; stroke: #1f77b4"/>
     <use xlink:href="#m0b24e7809d" x="362.216109" y="178.836532" style="fill: #1f77b4; stroke: #1f77b4"/>
     <use xlink:href="#m0b24e7809d" x="375.853627" y="196.494388" style="fill: #1f77b4; stroke: #1f77b4"/>
     <use xlink:href="#m0b24e7809d" x="389.491145" y="196.388432" style="fill: #1f77b4; stroke: #1f77b4"/>
     <use xlink:href="#m0b24e7809d" x="403.128663" y="195.734668" style="fill: #1f77b4; stroke: #1f77b4"/>
     <use xlink:href="#m0b24e7809d" x="416.766181" y="200.74942" style="fill: #1f77b4; stroke: #1f77b4"/>
     <use xlink:href="#m0b24e7809d" x="430.403699" y="205.980888" style="fill: #1f77b4; stroke: #1f77b4"/>
     <use xlink:href="#m0b24e7809d" x="444.041217" y="210.50672" style="fill: #1f77b4; stroke: #1f77b4"/>
     <use xlink:href="#m0b24e7809d" x="457.678735" y="214.042337" style="fill: #1f77b4; stroke: #1f77b4"/>
     <use xlink:href="#m0b24e7809d" x="471.316254" y="216.723377" style="fill: #1f77b4; stroke: #1f77b4"/>
     <use xlink:href="#m0b24e7809d" x="484.953772" y="218.783215" style="fill: #1f77b4; stroke: #1f77b4"/>
     <use xlink:href="#m0b24e7809d" x="498.59129" y="220.408425" style="fill: #1f77b4; stroke: #1f77b4"/>
     <use xlink:href="#m0b24e7809d" x="512.228808" y="221.72572" style="fill: #1f77b4; stroke: #1f77b4"/>
     <use xlink:href="#m0b24e7809d" x="525.866326" y="222.820694" style="fill: #1f77b4; stroke: #1f77b4"/>
     <use xlink:href="#m0b24e7809d" x="539.503844" y="223.750419" style="fill: #1f77b4; stroke: #1f77b4"/>
     <use xlink:href="#m0b24e7809d" x="553.141362" y="224.554318" style="fill: #1f77b4; stroke: #1f77b4"/>
     <use xlink:href="#m0b24e7809d" x="566.77888" y="225.26055" style="fill: #1f77b4; stroke: #1f77b4"/>
     <use xlink:href="#m0b24e7809d" x="580.416399" y="225.888611" style="fill: #1f77b4; stroke: #1f77b4"/>
     <use xlink:href="#m0b24e7809d" x="594.053917" y="226.454088" style="fill: #1f77b4; stroke: #1f77b4"/>
     <use xlink:href="#m0b24e7809d" x="607.691435" y="226.967377" style="fill: #1f77b4; stroke: #1f77b4"/>
     <use xlink:href="#m0b24e7809d" x="621.328953" y="227.437605" style="fill: #1f77b4; stroke: #1f77b4"/>
     <use xlink:href="#m0b24e7809d" x="635.692155" y="227.879813" style="fill: #1f77b4; stroke: #1f77b4"/>
     <use xlink:href="#m0b24e7809d" x="652.437348" y="228.353091" style="fill: #1f77b4; stroke: #1f77b4"/>
     <use xlink:href="#m0b24e7809d" x="672.849221" y="228.892383" style="fill: #1f77b4; stroke: #1f77b4"/>
     <use xlink:href="#m0b24e7809d" x="697.70694" y="229.473644" style="fill: #1f77b4; stroke: #1f77b4"/>
     <use xlink:href="#m0b24e7809d" x="727.943692" y="230.107161" style="fill: #1f77b4; stroke: #1f77b4"/>
     <use xlink:href="#m0b24e7809d" x="764.671554" y="230.778026" style="fill: #1f77b4; stroke: #1f77b4"/>
     <use xlink:href="#m0b24e7809d" x="809.207561" y="231.485535" style="fill: #1f77b4; stroke: #1f77b4"/>
     <use xlink:href="#m0b24e7809d" x="863.099556" y="232.215016" style="fill: #1f77b4; stroke: #1f77b4"/>
     <use xlink:href="#m0b24e7809d" x="928.149251" y="232.956601" style="fill: #1f77b4; stroke: #1f77b4"/>
     <use xlink:href="#m0b24e7809d" x="1006.428938" y="233.691123" style="fill: #1f77b4; stroke: #1f77b4"/>
     <use xlink:href="#m0b24e7809d" x="1100.286548" y="234.398999" style="fill: #1f77b4; stroke: #1f77b4"/>
     <use xlink:href="#m0b24e7809d" x="1212.33156" y="235.058128" style="fill: #1f77b4; stroke: #1f77b4"/>
     <use xlink:href="#m0b24e7809d" x="1345.393288" y="235.64988" style="fill: #1f77b4; stroke: #1f77b4"/>
     <use xlink:href="#m0b24e7809d" x="1502.440404" y="236.161631" style="fill: #1f77b4; stroke: #1f77b4"/>
     <use xlink:href="#m0b24e7809d" x="1686.451505" y="236.58876" style="fill: #1f77b4; stroke: #1f77b4"/>
     <use xlink:href="#m0b24e7809d" x="1900.227052" y="236.934156" style="fill: #1f77b4; stroke: #1f77b4"/>
     <use xlink:href="#m0b24e7809d" x="2146.139143" y="237.206187" style="fill: #1f77b4; stroke: #1f77b4"/>
     <use xlink:href="#m0b24e7809d" x="2425.827568" y="237.416278" style="fill: #1f77b4; stroke: #1f77b4"/>
    </g>
   </g>
   <g id="line2d_34">
    <defs>
     <path id="m1a4b9082dc" d="M 0 3 
C 0.795609 3 1.55874 2.683901 2.12132 2.12132 
C 2.683901 1.55874 3 0.795609 3 0 
C 3 -0.795609 2.683901 -1.55874 2.12132 -2.12132 
C 1.55874 -2.683901 0.795609 -3 0 -3 
C -0.795609 -3 -1.55874 -2.683901 -2.12132 -2.12132 
C -2.683901 -1.55874 -3 -0.795609 -3 0 
C -3 0.795609 -2.683901 1.55874 -2.12132 2.12132 
C -1.55874 2.683901 -0.795609 3 0 3 
z
" style="stroke: #ff7f0e"/>
    </defs>
    <g clip-path="url(#p9b5222f7ae)">
     <use xlink:href="#m1a4b9082dc" x="-1" y="226.562082" style="fill: #ff7f0e; stroke: #ff7f0e"/>
     <use xlink:href="#m1a4b9082dc" x="10.783192" y="225.77173" style="fill: #ff7f0e; stroke: #ff7f0e"/>
     <use xlink:href="#m1a4b9082dc" x="26.437489" y="224.586033" style="fill: #ff7f0e; stroke: #ff7f0e"/>
     <use xlink:href="#m1a4b9082dc" x="39.279732" y="223.529599" style="fill: #ff7f0e; stroke: #ff7f0e"/>
     <use xlink:href="#m1a4b9082dc" x="50.295175" y="222.564389" style="fill: #ff7f0e; stroke: #ff7f0e"/>
     <use xlink:href="#m1a4b9082dc" x="60.754076" y="221.545069" style="fill: #ff7f0e; stroke: #ff7f0e"/>
     <use xlink:href="#m1a4b9082dc" x="71.212977" y="220.427487" style="fill: #ff7f0e; stroke: #ff7f0e"/>
     <use xlink:href="#m1a4b9082dc" x="81.671879" y="219.217217" style="fill: #ff7f0e; stroke: #ff7f0e"/>
     <use xlink:href="#m1a4b9082dc" x="92.13078" y="217.893037" style="fill: #ff7f0e; stroke: #ff7f0e"/>
     <use xlink:href="#m1a4b9082dc" x="102.589681" y="216.43855" style="fill: #ff7f0e; stroke: #ff7f0e"/>
     <use xlink:href="#m1a4b9082dc" x="113.048582" y="214.829258" style="fill: #ff7f0e; stroke: #ff7f0e"/>
     <use xlink:href="#m1a4b9082dc" x="123.507483" y="213.033831" style="fill: #ff7f0e; stroke: #ff7f0e"/>
     <use xlink:href="#m1a4b9082dc" x="133.966384" y="211.008752" style="fill: #ff7f0e; stroke: #ff7f0e"/>
     <use xlink:href="#m1a4b9082dc" x="144.425285" y="208.693404" style="fill: #ff7f0e; stroke: #ff7f0e"/>
     <use xlink:href="#m1a4b9082dc" x="154.884186" y="206.001326" style="fill: #ff7f0e; stroke: #ff7f0e"/>
     <use xlink:href="#m1a4b9082dc" x="165.343088" y="202.80671" style="fill: #ff7f0e; stroke: #ff7f0e"/>
     <use xlink:href="#m1a4b9082dc" x="175.801989" y="198.926123" style="fill: #ff7f0e; stroke: #ff7f0e"/>
     <use xlink:href="#m1a4b9082dc" x="186.26089" y="194.08569" style="fill: #ff7f0e; stroke: #ff7f0e"/>
     <use xlink:href="#m1a4b9082dc" x="196.719791" y="187.881705" style="fill: #ff7f0e; stroke: #ff7f0e"/>
     <use xlink:href="#m1a4b9082dc" x="207.178692" y="179.713275" style="fill: #ff7f0e; stroke: #ff7f0e"/>
     <use xlink:href="#m1a4b9082dc" x="217.637593" y="168.7498" style="fill: #ff7f0e; stroke: #ff7f0e"/>
     <use xlink:href="#m1a4b9082dc" x="228.096494" y="153.987813" style="fill: #ff7f0e; stroke: #ff7f0e"/>
     <use xlink:href="#m1a4b9082dc" x="238.555395" y="134.089809" style="fill: #ff7f0e; stroke: #ff7f0e"/>
     <use xlink:href="#m1a4b9082dc" x="249.014297" y="107.857396" style="fill: #ff7f0e; stroke: #ff7f0e"/>
     <use xlink:href="#m1a4b9082dc" x="259.473198" y="78.300275" style="fill: #ff7f0e; stroke: #ff7f0e"/>
     <use xlink:href="#m1a4b9082dc" x="269.932099" y="53.546962" style="fill: #ff7f0e; stroke: #ff7f0e"/>
     <use xlink:href="#m1a4b9082dc" x="280.391" y="41.055008" style="fill: #ff7f0e; stroke: #ff7f0e"/>
     <use xlink:href="#m1a4b9082dc" x="290.849901" y="42.963636" style="fill: #ff7f0e; stroke: #ff7f0e"/>
     <use xlink:href="#m1a4b9082dc" x="301.308802" y="55.684449" style="fill: #ff7f0e; stroke: #ff7f0e"/>
     <use xlink:href="#m1a4b9082dc" x="311.767703" y="74.305631" style="fill: #ff7f0e; stroke: #ff7f0e"/>
     <use xlink:href="#m1a4b9082dc" x="322.226605" y="96.019493" style="fill: #ff7f0e; stroke: #ff7f0e"/>
     <use xlink:href="#m1a4b9082dc" x="332.685506" y="119.576527" style="fill: #ff7f0e; stroke: #ff7f0e"/>
     <use xlink:href="#m1a4b9082dc" x="343.144407" y="143.805517" style="fill: #ff7f0e; stroke: #ff7f0e"/>
     <use xlink:href="#m1a4b9082dc" x="353.603308" y="166.304728" style="fill: #ff7f0e; stroke: #ff7f0e"/>
     <use xlink:href="#m1a4b9082dc" x="364.062209" y="181.75016" style="fill: #ff7f0e; stroke: #ff7f0e"/>
     <use xlink:href="#m1a4b9082dc" x="374.52111" y="185.773779" style="fill: #ff7f0e; stroke: #ff7f0e"/>
     <use xlink:href="#m1a4b9082dc" x="384.980011" y="185.780463" style="fill: #ff7f0e; stroke: #ff7f0e"/>
     <use xlink:href="#m1a4b9082dc" x="395.438912" y="189.214946" style="fill: #ff7f0e; stroke: #ff7f0e"/>
     <use xlink:href="#m1a4b9082dc" x="405.897814" y="194.352368" style="fill: #ff7f0e; stroke: #ff7f0e"/>
     <use xlink:href="#m1a4b9082dc" x="416.356715" y="199.565835" style="fill: #ff7f0e; stroke: #ff7f0e"/>
     <use xlink:href="#m1a4b9082dc" x="426.815616" y="204.121879" style="fill: #ff7f0e; stroke: #ff7f0e"/>
     <use xlink:href="#m1a4b9082dc" x="437.274517" y="207.828919" style="fill: #ff7f0e; stroke: #ff7f0e"/>
     <use xlink:href="#m1a4b9082dc" x="447.733418" y="210.819388" style="fill: #ff7f0e; stroke: #ff7f0e"/>
     <use xlink:href="#m1a4b9082dc" x="458.192319" y="213.267528" style="fill: #ff7f0e; stroke: #ff7f0e"/>
     <use xlink:href="#m1a4b9082dc" x="468.65122" y="215.311547" style="fill: #ff7f0e; stroke: #ff7f0e"/>
     <use xlink:href="#m1a4b9082dc" x="479.110121" y="217.049268" style="fill: #ff7f0e; stroke: #ff7f0e"/>
     <use xlink:href="#m1a4b9082dc" x="489.569023" y="218.548827" style="fill: #ff7f0e; stroke: #ff7f0e"/>
     <use xlink:href="#m1a4b9082dc" x="500.027924" y="219.858757" style="fill: #ff7f0e; stroke: #ff7f0e"/>
     <use xlink:href="#m1a4b9082dc" x="510.486825" y="221.014755" style="fill: #ff7f0e; stroke: #ff7f0e"/>
     <use xlink:href="#m1a4b9082dc" x="520.945726" y="222.041935" style="fill: #ff7f0e; stroke: #ff7f0e"/>
     <use xlink:href="#m1a4b9082dc" x="531.404627" y="222.965973" style="fill: #ff7f0e; stroke: #ff7f0e"/>
     <use xlink:href="#m1a4b9082dc" x="541.863528" y="223.787858" style="fill: #ff7f0e; stroke: #ff7f0e"/>
     <use xlink:href="#m1a4b9082dc" x="552.878972" y="224.554347" style="fill: #ff7f0e; stroke: #ff7f0e"/>
     <use xlink:href="#m1a4b9082dc" x="565.721215" y="225.371272" style="fill: #ff7f0e; stroke: #ff7f0e"/>
     <use xlink:href="#m1a4b9082dc" x="581.375512" y="226.260908" style="fill: #ff7f0e; stroke: #ff7f0e"/>
     <use xlink:href="#m1a4b9082dc" x="600.439422" y="227.192391" style="fill: #ff7f0e; stroke: #ff7f0e"/>
     <use xlink:href="#m1a4b9082dc" x="623.628627" y="228.157939" style="fill: #ff7f0e; stroke: #ff7f0e"/>
     <use xlink:href="#m1a4b9082dc" x="651.796001" y="229.128019" style="fill: #ff7f0e; stroke: #ff7f0e"/>
     <use xlink:href="#m1a4b9082dc" x="685.951607" y="230.086753" style="fill: #ff7f0e; stroke: #ff7f0e"/>
     <use xlink:href="#m1a4b9082dc" x="727.282518" y="231.010781" style="fill: #ff7f0e; stroke: #ff7f0e"/>
     <use xlink:href="#m1a4b9082dc" x="777.170505" y="231.892801" style="fill: #ff7f0e; stroke: #ff7f0e"/>
     <use xlink:href="#m1a4b9082dc" x="837.204853" y="232.724099" style="fill: #ff7f0e; stroke: #ff7f0e"/>
     <use xlink:href="#m1a4b9082dc" x="909.18624" y="233.504335" style="fill: #ff7f0e; stroke: #ff7f0e"/>
     <use xlink:href="#m1a4b9082dc" x="995.115929" y="234.229156" style="fill: #ff7f0e; stroke: #ff7f0e"/>
     <use xlink:href="#m1a4b9082dc" x="1097.163784" y="234.892972" style="fill: #ff7f0e; stroke: #ff7f0e"/>
     <use xlink:href="#m1a4b9082dc" x="1217.606539" y="235.486921" style="fill: #ff7f0e; stroke: #ff7f0e"/>
     <use xlink:href="#m1a4b9082dc" x="1358.728545" y="236.003449" style="fill: #ff7f0e; stroke: #ff7f0e"/>
     <use xlink:href="#m1a4b9082dc" x="1522.677535" y="236.438845" style="fill: #ff7f0e; stroke: #ff7f0e"/>
     <use xlink:href="#m1a4b9082dc" x="1711.272719" y="236.795117" style="fill: #ff7f0e; stroke: #ff7f0e"/>
     <use xlink:href="#m1a4b9082dc" x="1925.771689" y="237.07942" style="fill: #ff7f0e; stroke: #ff7f0e"/>
    </g>
   </g>
   <g id="line2d_35">
    <defs>
     <path id="mcffe6384cf" d="M 0 3 
C 0.795609 3 1.55874 2.683901 2.12132 2.12132 
C 2.683901 1.55874 3 0.795609 3 0 
C 3 -0.795609 2.683901 -1.55874 2.12132 -2.12132 
C 1.55874 -2.683901 0.795609 -3 0 -3 
C -0.795609 -3 -1.55874 -2.683901 -2.12132 -2.12132 
C -2.683901 -1.55874 -3 -0.795609 -3 0 
C -3 0.795609 -2.683901 1.55874 -2.12132 2.12132 
C -1.55874 2.683901 -0.795609 3 0 3 
z
" style="stroke: #2ca02c"/>
    </defs>
    <g clip-path="url(#p9b5222f7ae)">
     <use xlink:href="#mcffe6384cf" x="-1" y="227.37418" style="fill: #2ca02c; stroke: #2ca02c"/>
     <use xlink:href="#mcffe6384cf" x="21.067527" y="225.81872" style="fill: #2ca02c; stroke: #2ca02c"/>
     <use xlink:href="#mcffe6384cf" x="42.54945" y="224.004194" style="fill: #2ca02c; stroke: #2ca02c"/>
     <use xlink:href="#mcffe6384cf" x="60.234759" y="222.252156" style="fill: #2ca02c; stroke: #2ca02c"/>
     <use xlink:href="#mcffe6384cf" x="74.773899" y="220.607208" style="fill: #2ca02c; stroke: #2ca02c"/>
     <use xlink:href="#mcffe6384cf" x="86.71269" y="219.079834" style="fill: #2ca02c; stroke: #2ca02c"/>
     <use xlink:href="#mcffe6384cf" x="96.50686" y="217.716431" style="fill: #2ca02c; stroke: #2ca02c"/>
     <use xlink:href="#mcffe6384cf" x="104.907817" y="216.466113" style="fill: #2ca02c; stroke: #2ca02c"/>
     <use xlink:href="#mcffe6384cf" x="112.884325" y="215.144772" style="fill: #2ca02c; stroke: #2ca02c"/>
     <use xlink:href="#mcffe6384cf" x="120.860833" y="213.693273" style="fill: #2ca02c; stroke: #2ca02c"/>
     <use xlink:href="#mcffe6384cf" x="128.837342" y="212.117401" style="fill: #2ca02c; stroke: #2ca02c"/>
     <use xlink:href="#mcffe6384cf" x="136.81385" y="210.389334" style="fill: #2ca02c; stroke: #2ca02c"/>
     <use xlink:href="#mcffe6384cf" x="144.790358" y="208.486625" style="fill: #2ca02c; stroke: #2ca02c"/>
     <use xlink:href="#mcffe6384cf" x="152.766867" y="206.377045" style="fill: #2ca02c; stroke: #2ca02c"/>
     <use xlink:href="#mcffe6384cf" x="160.743375" y="204.019399" style="fill: #2ca02c; stroke: #2ca02c"/>
     <use xlink:href="#mcffe6384cf" x="168.719883" y="201.357892" style="fill: #2ca02c; stroke: #2ca02c"/>
     <use xlink:href="#mcffe6384cf" x="176.696392" y="198.316075" style="fill: #2ca02c; stroke: #2ca02c"/>
     <use xlink:href="#mcffe6384cf" x="184.6729" y="194.787235" style="fill: #2ca02c; stroke: #2ca02c"/>
     <use xlink:href="#mcffe6384cf" x="192.649408" y="190.618757" style="fill: #2ca02c; stroke: #2ca02c"/>
     <use xlink:href="#mcffe6384cf" x="200.625917" y="185.592823" style="fill: #2ca02c; stroke: #2ca02c"/>
     <use xlink:href="#mcffe6384cf" x="208.602425" y="179.395299" style="fill: #2ca02c; stroke: #2ca02c"/>
     <use xlink:href="#mcffe6384cf" x="216.578933" y="171.589743" style="fill: #2ca02c; stroke: #2ca02c"/>
     <use xlink:href="#mcffe6384cf" x="224.555442" y="161.608857" style="fill: #2ca02c; stroke: #2ca02c"/>
     <use xlink:href="#mcffe6384cf" x="232.53195" y="148.789089" style="fill: #2ca02c; stroke: #2ca02c"/>
     <use xlink:href="#mcffe6384cf" x="240.508458" y="132.336232" style="fill: #2ca02c; stroke: #2ca02c"/>
     <use xlink:href="#mcffe6384cf" x="248.484967" y="111.373023" style="fill: #2ca02c; stroke: #2ca02c"/>
     <use xlink:href="#mcffe6384cf" x="256.461475" y="86.512597" style="fill: #2ca02c; stroke: #2ca02c"/>
     <use xlink:href="#mcffe6384cf" x="264.437983" y="61.848141" style="fill: #2ca02c; stroke: #2ca02c"/>
     <use xlink:href="#mcffe6384cf" x="272.414492" y="43.351153" style="fill: #2ca02c; stroke: #2ca02c"/>
     <use xlink:href="#mcffe6384cf" x="280.391" y="34.947267" style="fill: #2ca02c; stroke: #2ca02c"/>
     <use xlink:href="#mcffe6384cf" x="288.367508" y="36.726081" style="fill: #2ca02c; stroke: #2ca02c"/>
     <use xlink:href="#mcffe6384cf" x="296.344017" y="46.181898" style="fill: #2ca02c; stroke: #2ca02c"/>
     <use xlink:href="#mcffe6384cf" x="304.320525" y="60.523853" style="fill: #2ca02c; stroke: #2ca02c"/>
     <use xlink:href="#mcffe6384cf" x="312.297033" y="77.84023" style="fill: #2ca02c; stroke: #2ca02c"/>
     <use xlink:href="#mcffe6384cf" x="320.273542" y="96.960338" style="fill: #2ca02c; stroke: #2ca02c"/>
     <use xlink:href="#mcffe6384cf" x="328.25005" y="116.967851" style="fill: #2ca02c; stroke: #2ca02c"/>
     <use xlink:href="#mcffe6384cf" x="336.226558" y="136.700307" style="fill: #2ca02c; stroke: #2ca02c"/>
     <use xlink:href="#mcffe6384cf" x="344.203067" y="154.224881" style="fill: #2ca02c; stroke: #2ca02c"/>
     <use xlink:href="#mcffe6384cf" x="352.179575" y="166.67427" style="fill: #2ca02c; stroke: #2ca02c"/>
     <use xlink:href="#mcffe6384cf" x="360.156083" y="172.179499" style="fill: #2ca02c; stroke: #2ca02c"/>
     <use xlink:href="#mcffe6384cf" x="368.132592" y="173.736007" style="fill: #2ca02c; stroke: #2ca02c"/>
     <use xlink:href="#mcffe6384cf" x="376.1091" y="176.260721" style="fill: #2ca02c; stroke: #2ca02c"/>
     <use xlink:href="#mcffe6384cf" x="384.085608" y="180.729436" style="fill: #2ca02c; stroke: #2ca02c"/>
     <use xlink:href="#mcffe6384cf" x="392.062117" y="186.156631" style="fill: #2ca02c; stroke: #2ca02c"/>
     <use xlink:href="#mcffe6384cf" x="400.038625" y="191.504975" style="fill: #2ca02c; stroke: #2ca02c"/>
     <use xlink:href="#mcffe6384cf" x="408.015133" y="196.165021" style="fill: #2ca02c; stroke: #2ca02c"/>
     <use xlink:href="#mcffe6384cf" x="415.991642" y="200.071235" style="fill: #2ca02c; stroke: #2ca02c"/>
     <use xlink:href="#mcffe6384cf" x="423.96815" y="203.35616" style="fill: #2ca02c; stroke: #2ca02c"/>
     <use xlink:href="#mcffe6384cf" x="431.944658" y="206.159199" style="fill: #2ca02c; stroke: #2ca02c"/>
     <use xlink:href="#mcffe6384cf" x="439.921167" y="208.586324" style="fill: #2ca02c; stroke: #2ca02c"/>
     <use xlink:href="#mcffe6384cf" x="447.897675" y="210.713583" style="fill: #2ca02c; stroke: #2ca02c"/>
     <use xlink:href="#mcffe6384cf" x="455.874183" y="212.597203" style="fill: #2ca02c; stroke: #2ca02c"/>
     <use xlink:href="#mcffe6384cf" x="463.850692" y="214.275173" style="fill: #2ca02c; stroke: #2ca02c"/>
     <use xlink:href="#mcffe6384cf" x="471.8272" y="215.789125" style="fill: #2ca02c; stroke: #2ca02c"/>
     <use xlink:href="#mcffe6384cf" x="479.803708" y="217.136635" style="fill: #2ca02c; stroke: #2ca02c"/>
     <use xlink:href="#mcffe6384cf" x="488.204665" y="218.393892" style="fill: #2ca02c; stroke: #2ca02c"/>
     <use xlink:href="#mcffe6384cf" x="497.998835" y="219.739584" style="fill: #2ca02c; stroke: #2ca02c"/>
     <use xlink:href="#mcffe6384cf" x="509.937626" y="221.202445" style="fill: #2ca02c; stroke: #2ca02c"/>
     <use xlink:href="#mcffe6384cf" x="524.476767" y="222.732557" style="fill: #2ca02c; stroke: #2ca02c"/>
     <use xlink:href="#mcffe6384cf" x="542.162075" y="224.307724" style="fill: #2ca02c; stroke: #2ca02c"/>
     <use xlink:href="#mcffe6384cf" x="563.643996" y="225.87643" style="fill: #2ca02c; stroke: #2ca02c"/>
     <use xlink:href="#mcffe6384cf" x="589.692859" y="227.397305" style="fill: #2ca02c; stroke: #2ca02c"/>
     <use xlink:href="#mcffe6384cf" x="621.213986" y="228.821991" style="fill: #2ca02c; stroke: #2ca02c"/>
     <use xlink:href="#mcffe6384cf" x="659.26119" y="230.124887" style="fill: #2ca02c; stroke: #2ca02c"/>
     <use xlink:href="#mcffe6384cf" x="705.046543" y="231.287749" style="fill: #2ca02c; stroke: #2ca02c"/>
     <use xlink:href="#mcffe6384cf" x="759.943336" y="232.315618" style="fill: #2ca02c; stroke: #2ca02c"/>
     <use xlink:href="#mcffe6384cf" x="825.477839" y="233.21968" style="fill: #2ca02c; stroke: #2ca02c"/>
     <use xlink:href="#mcffe6384cf" x="903.304902" y="234.017115" style="fill: #2ca02c; stroke: #2ca02c"/>
     <use xlink:href="#mcffe6384cf" x="995.160884" y="234.719405" style="fill: #2ca02c; stroke: #2ca02c"/>
     <use xlink:href="#mcffe6384cf" x="1102.787952" y="235.333029" style="fill: #2ca02c; stroke: #2ca02c"/>
     <use xlink:href="#mcffe6384cf" x="1227.824078" y="235.859938" style="fill: #2ca02c; stroke: #2ca02c"/>
     <use xlink:href="#mcffe6384cf" x="1371.656689" y="236.302325" style="fill: #2ca02c; stroke: #2ca02c"/>
     <use xlink:href="#mcffe6384cf" x="1535.24489" y="236.665092" style="fill: #2ca02c; stroke: #2ca02c"/>
    </g>
   </g>
   <g id="line2d_36">
    <defs>
     <path id="mdc62c58c94" d="M 0 3 
C 0.795609 3 1.55874 2.683901 2.12132 2.12132 
C 2.683901 1.55874 3 0.795609 3 0 
C 3 -0.795609 2.683901 -1.55874 2.12132 -2.12132 
C 1.55874 -2.683901 0.795609 -3 0 -3 
C -0.795609 -3 -1.55874 -2.683901 -2.12132 -2.12132 
C -2.683901 -1.55874 -3 -0.795609 -3 0 
C -3 0.795609 -2.683901 1.55874 -2.12132 2.12132 
C -1.55874 2.683901 -0.795609 3 0 3 
z
" style="stroke: #d62728"/>
    </defs>
    <g clip-path="url(#p9b5222f7ae)">
     <use xlink:href="#mdc62c58c94" x="-1" y="228.195433" style="fill: #d62728; stroke: #d62728"/>
     <use xlink:href="#mdc62c58c94" x="22.394331" y="226.619367" style="fill: #d62728; stroke: #d62728"/>
     <use xlink:href="#mdc62c58c94" x="48.05704" y="224.433202" style="fill: #d62728; stroke: #d62728"/>
     <use xlink:href="#mdc62c58c94" x="69.264547" y="222.204717" style="fill: #d62728; stroke: #d62728"/>
     <use xlink:href="#mdc62c58c94" x="86.753909" y="219.996174" style="fill: #d62728; stroke: #d62728"/>
     <use xlink:href="#mdc62c58c94" x="101.152284" y="217.855374" style="fill: #d62728; stroke: #d62728"/>
     <use xlink:href="#mdc62c58c94" x="112.989227" y="215.838268" style="fill: #d62728; stroke: #d62728"/>
     <use xlink:href="#mdc62c58c94" x="122.709113" y="213.958954" style="fill: #d62728; stroke: #d62728"/>
     <use xlink:href="#mdc62c58c94" x="130.68297" y="212.27452" style="fill: #d62728; stroke: #d62728"/>
     <use xlink:href="#mdc62c58c94" x="137.522552" y="210.725649" style="fill: #d62728; stroke: #d62728"/>
     <use xlink:href="#mdc62c58c94" x="144.016573" y="209.086778" style="fill: #d62728; stroke: #d62728"/>
     <use xlink:href="#mdc62c58c94" x="150.510593" y="207.281876" style="fill: #d62728; stroke: #d62728"/>
     <use xlink:href="#mdc62c58c94" x="157.004613" y="205.318414" style="fill: #d62728; stroke: #d62728"/>
     <use xlink:href="#mdc62c58c94" x="163.498634" y="203.16118" style="fill: #d62728; stroke: #d62728"/>
     <use xlink:href="#mdc62c58c94" x="169.992654" y="200.782195" style="fill: #d62728; stroke: #d62728"/>
     <use xlink:href="#mdc62c58c94" x="176.486674" y="198.141572" style="fill: #d62728; stroke: #d62728"/>
     <use xlink:href="#mdc62c58c94" x="182.980695" y="195.18899" style="fill: #d62728; stroke: #d62728"/>
     <use xlink:href="#mdc62c58c94" x="189.474715" y="191.857302" style="fill: #d62728; stroke: #d62728"/>
     <use xlink:href="#mdc62c58c94" x="195.968735" y="188.056014" style="fill: #d62728; stroke: #d62728"/>
     <use xlink:href="#mdc62c58c94" x="202.462756" y="183.660537" style="fill: #d62728; stroke: #d62728"/>
     <use xlink:href="#mdc62c58c94" x="208.956776" y="178.498194" style="fill: #d62728; stroke: #d62728"/>
     <use xlink:href="#mdc62c58c94" x="215.450796" y="172.33165" style="fill: #d62728; stroke: #d62728"/>
     <use xlink:href="#mdc62c58c94" x="221.944817" y="164.849498" style="fill: #d62728; stroke: #d62728"/>
     <use xlink:href="#mdc62c58c94" x="228.438837" y="155.674251" style="fill: #d62728; stroke: #d62728"/>
     <use xlink:href="#mdc62c58c94" x="234.932858" y="144.384283" style="fill: #d62728; stroke: #d62728"/>
     <use xlink:href="#mdc62c58c94" x="241.426878" y="130.471088" style="fill: #d62728; stroke: #d62728"/>
     <use xlink:href="#mdc62c58c94" x="247.920898" y="113.350204" style="fill: #d62728; stroke: #d62728"/>
     <use xlink:href="#mdc62c58c94" x="254.414919" y="92.941351" style="fill: #d62728; stroke: #d62728"/>
     <use xlink:href="#mdc62c58c94" x="260.908939" y="71.018998" style="fill: #d62728; stroke: #d62728"/>
     <use xlink:href="#mdc62c58c94" x="267.402959" y="51.404369" style="fill: #d62728; stroke: #d62728"/>
     <use xlink:href="#mdc62c58c94" x="273.89698" y="37.942905" style="fill: #d62728; stroke: #d62728"/>
     <use xlink:href="#mdc62c58c94" x="280.391" y="32.402825" style="fill: #d62728; stroke: #d62728"/>
     <use xlink:href="#mdc62c58c94" x="286.88502" y="34.279318" style="fill: #d62728; stroke: #d62728"/>
     <use xlink:href="#mdc62c58c94" x="293.379041" y="41.901054" style="fill: #d62728; stroke: #d62728"/>
     <use xlink:href="#mdc62c58c94" x="299.873061" y="53.488601" style="fill: #d62728; stroke: #d62728"/>
     <use xlink:href="#mdc62c58c94" x="306.367081" y="67.645813" style="fill: #d62728; stroke: #d62728"/>
     <use xlink:href="#mdc62c58c94" x="312.861102" y="83.366104" style="fill: #d62728; stroke: #d62728"/>
     <use xlink:href="#mdc62c58c94" x="319.355122" y="99.875663" style="fill: #d62728; stroke: #d62728"/>
     <use xlink:href="#mdc62c58c94" x="325.849142" y="116.426408" style="fill: #d62728; stroke: #d62728"/>
     <use xlink:href="#mdc62c58c94" x="332.343163" y="132.077237" style="fill: #d62728; stroke: #d62728"/>
     <use xlink:href="#mdc62c58c94" x="338.837183" y="145.533748" style="fill: #d62728; stroke: #d62728"/>
     <use xlink:href="#mdc62c58c94" x="345.331204" y="155.321382" style="fill: #d62728; stroke: #d62728"/>
     <use xlink:href="#mdc62c58c94" x="351.825224" y="160.766587" style="fill: #d62728; stroke: #d62728"/>
     <use xlink:href="#mdc62c58c94" x="358.319244" y="163.381119" style="fill: #d62728; stroke: #d62728"/>
     <use xlink:href="#mdc62c58c94" x="364.813265" y="165.947813" style="fill: #d62728; stroke: #d62728"/>
     <use xlink:href="#mdc62c58c94" x="371.307285" y="169.945097" style="fill: #d62728; stroke: #d62728"/>
     <use xlink:href="#mdc62c58c94" x="377.801305" y="175.25045" style="fill: #d62728; stroke: #d62728"/>
     <use xlink:href="#mdc62c58c94" x="384.295326" y="180.950893" style="fill: #d62728; stroke: #d62728"/>
     <use xlink:href="#mdc62c58c94" x="390.789346" y="186.206766" style="fill: #d62728; stroke: #d62728"/>
     <use xlink:href="#mdc62c58c94" x="397.283366" y="190.749145" style="fill: #d62728; stroke: #d62728"/>
     <use xlink:href="#mdc62c58c94" x="403.777387" y="194.640772" style="fill: #d62728; stroke: #d62728"/>
     <use xlink:href="#mdc62c58c94" x="410.271407" y="198.007351" style="fill: #d62728; stroke: #d62728"/>
     <use xlink:href="#mdc62c58c94" x="416.765427" y="200.955625" style="fill: #d62728; stroke: #d62728"/>
     <use xlink:href="#mdc62c58c94" x="423.259448" y="203.566701" style="fill: #d62728; stroke: #d62728"/>
     <use xlink:href="#mdc62c58c94" x="429.753468" y="205.894928" style="fill: #d62728; stroke: #d62728"/>
     <use xlink:href="#mdc62c58c94" x="436.247488" y="207.99849" style="fill: #d62728; stroke: #d62728"/>
     <use xlink:href="#mdc62c58c94" x="442.741509" y="209.874665" style="fill: #d62728; stroke: #d62728"/>
     <use xlink:href="#mdc62c58c94" x="449.581091" y="211.626942" style="fill: #d62728; stroke: #d62728"/>
     <use xlink:href="#mdc62c58c94" x="457.554949" y="213.506821" style="fill: #d62728; stroke: #d62728"/>
     <use xlink:href="#mdc62c58c94" x="467.274834" y="215.556994" style="fill: #d62728; stroke: #d62728"/>
     <use xlink:href="#mdc62c58c94" x="479.111778" y="217.707513" style="fill: #d62728; stroke: #d62728"/>
     <use xlink:href="#mdc62c58c94" x="493.510152" y="219.927224" style="fill: #d62728; stroke: #d62728"/>
     <use xlink:href="#mdc62c58c94" x="510.999513" y="222.144917" style="fill: #d62728; stroke: #d62728"/>
     <use xlink:href="#mdc62c58c94" x="532.207018" y="224.297177" style="fill: #d62728; stroke: #d62728"/>
     <use xlink:href="#mdc62c58c94" x="557.869731" y="226.310311" style="fill: #d62728; stroke: #d62728"/>
     <use xlink:href="#mdc62c58c94" x="588.845605" y="228.136028" style="fill: #d62728; stroke: #d62728"/>
     <use xlink:href="#mdc62c58c94" x="626.121441" y="229.737148" style="fill: #d62728; stroke: #d62728"/>
     <use xlink:href="#mdc62c58c94" x="670.815294" y="231.110318" style="fill: #d62728; stroke: #d62728"/>
     <use xlink:href="#mdc62c58c94" x="724.169766" y="232.268693" style="fill: #d62728; stroke: #d62728"/>
     <use xlink:href="#mdc62c58c94" x="787.532144" y="233.243957" style="fill: #d62728; stroke: #d62728"/>
     <use xlink:href="#mdc62c58c94" x="862.316071" y="234.068251" style="fill: #d62728; stroke: #d62728"/>
     <use xlink:href="#mdc62c58c94" x="949.939921" y="234.76981" style="fill: #d62728; stroke: #d62728"/>
     <use xlink:href="#mdc62c58c94" x="1051.737238" y="235.366845" style="fill: #d62728; stroke: #d62728"/>
     <use xlink:href="#mdc62c58c94" x="1168.837586" y="235.870983" style="fill: #d62728; stroke: #d62728"/>
     <use xlink:href="#mdc62c58c94" x="1302.021815" y="236.290485" style="fill: #d62728; stroke: #d62728"/>
    </g>
   </g>
   <g id="line2d_37">
    <defs>
     <path id="m8c645d3b91" d="M 0 3 
C 0.795609 3 1.55874 2.683901 2.12132 2.12132 
C 2.683901 1.55874 3 0.795609 3 0 
C 3 -0.795609 2.683901 -1.55874 2.12132 -2.12132 
C 1.55874 -2.683901 0.795609 -3 0 -3 
C -0.795609 -3 -1.55874 -2.683901 -2.12132 -2.12132 
C -2.683901 -1.55874 -3 -0.795609 -3 0 
C -3 0.795609 -2.683901 1.55874 -2.12132 2.12132 
C -1.55874 2.683901 -0.795609 3 0 3 
z
" style="stroke: #9467bd"/>
    </defs>
    <g clip-path="url(#p9b5222f7ae)">
     <use xlink:href="#m8c645d3b91" x="-1" y="228.756997" style="fill: #9467bd; stroke: #9467bd"/>
     <use xlink:href="#m8c645d3b91" x="29.007283" y="226.720103" style="fill: #9467bd; stroke: #9467bd"/>
     <use xlink:href="#m8c645d3b91" x="55.95389" y="224.340146" style="fill: #9467bd; stroke: #9467bd"/>
     <use xlink:href="#m8c645d3b91" x="78.278459" y="221.839119" style="fill: #9467bd; stroke: #9467bd"/>
     <use xlink:href="#m8c645d3b91" x="96.727347" y="219.278668" style="fill: #9467bd; stroke: #9467bd"/>
     <use xlink:href="#m8c645d3b91" x="111.941737" y="216.731503" style="fill: #9467bd; stroke: #9467bd"/>
     <use xlink:href="#m8c645d3b91" x="124.467207" y="214.254042" style="fill: #9467bd; stroke: #9467bd"/>
     <use xlink:href="#m8c645d3b91" x="134.76443" y="211.912644" style="fill: #9467bd; stroke: #9467bd"/>
     <use xlink:href="#m8c645d3b91" x="143.219977" y="209.725668" style="fill: #9467bd; stroke: #9467bd"/>
     <use xlink:href="#m8c645d3b91" x="150.156615" y="207.759985" style="fill: #9467bd; stroke: #9467bd"/>
     <use xlink:href="#m8c645d3b91" x="156.106522" y="205.949779" style="fill: #9467bd; stroke: #9467bd"/>
     <use xlink:href="#m8c645d3b91" x="161.755816" y="204.032869" style="fill: #9467bd; stroke: #9467bd"/>
     <use xlink:href="#m8c645d3b91" x="167.405111" y="201.918537" style="fill: #9467bd; stroke: #9467bd"/>
     <use xlink:href="#m8c645d3b91" x="173.054405" y="199.616022" style="fill: #9467bd; stroke: #9467bd"/>
     <use xlink:href="#m8c645d3b91" x="178.7037" y="197.083666" style="fill: #9467bd; stroke: #9467bd"/>
     <use xlink:href="#m8c645d3b91" x="184.352994" y="194.288928" style="fill: #9467bd; stroke: #9467bd"/>
     <use xlink:href="#m8c645d3b91" x="190.002288" y="191.185567" style="fill: #9467bd; stroke: #9467bd"/>
     <use xlink:href="#m8c645d3b91" x="195.651583" y="187.715886" style="fill: #9467bd; stroke: #9467bd"/>
     <use xlink:href="#m8c645d3b91" x="201.300877" y="183.803751" style="fill: #9467bd; stroke: #9467bd"/>
     <use xlink:href="#m8c645d3b91" x="206.950172" y="179.34797" style="fill: #9467bd; stroke: #9467bd"/>
     <use xlink:href="#m8c645d3b91" x="212.599466" y="174.21305" style="fill: #9467bd; stroke: #9467bd"/>
     <use xlink:href="#m8c645d3b91" x="218.248761" y="168.220535" style="fill: #9467bd; stroke: #9467bd"/>
     <use xlink:href="#m8c645d3b91" x="223.898055" y="161.14736" style="fill: #9467bd; stroke: #9467bd"/>
     <use xlink:href="#m8c645d3b91" x="229.54735" y="152.742323" style="fill: #9467bd; stroke: #9467bd"/>
     <use xlink:href="#m8c645d3b91" x="235.196644" y="142.741992" style="fill: #9467bd; stroke: #9467bd"/>
     <use xlink:href="#m8c645d3b91" x="240.845939" y="130.840838" style="fill: #9467bd; stroke: #9467bd"/>
     <use xlink:href="#m8c645d3b91" x="246.495233" y="116.656312" style="fill: #9467bd; stroke: #9467bd"/>
     <use xlink:href="#m8c645d3b91" x="252.144528" y="99.968957" style="fill: #9467bd; stroke: #9467bd"/>
     <use xlink:href="#m8c645d3b91" x="257.793822" y="81.419149" style="fill: #9467bd; stroke: #9467bd"/>
     <use xlink:href="#m8c645d3b91" x="263.443117" y="63.055399" style="fill: #9467bd; stroke: #9467bd"/>
     <use xlink:href="#m8c645d3b91" x="269.092411" y="47.728474" style="fill: #9467bd; stroke: #9467bd"/>
     <use xlink:href="#m8c645d3b91" x="274.741706" y="37.691813" style="fill: #9467bd; stroke: #9467bd"/>
     <use xlink:href="#m8c645d3b91" x="280.391" y="33.736417" style="fill: #9467bd; stroke: #9467bd"/>
     <use xlink:href="#m8c645d3b91" x="286.040294" y="35.377169" style="fill: #9467bd; stroke: #9467bd"/>
     <use xlink:href="#m8c645d3b91" x="291.689589" y="41.500973" style="fill: #9467bd; stroke: #9467bd"/>
     <use xlink:href="#m8c645d3b91" x="297.338883" y="50.895739" style="fill: #9467bd; stroke: #9467bd"/>
     <use xlink:href="#m8c645d3b91" x="302.988178" y="62.516964" style="fill: #9467bd; stroke: #9467bd"/>
     <use xlink:href="#m8c645d3b91" x="308.637472" y="75.539006" style="fill: #9467bd; stroke: #9467bd"/>
     <use xlink:href="#m8c645d3b91" x="314.286767" y="89.30753" style="fill: #9467bd; stroke: #9467bd"/>
     <use xlink:href="#m8c645d3b91" x="319.936061" y="103.251608" style="fill: #9467bd; stroke: #9467bd"/>
     <use xlink:href="#m8c645d3b91" x="325.585356" y="116.781952" style="fill: #9467bd; stroke: #9467bd"/>
     <use xlink:href="#m8c645d3b91" x="331.23465" y="129.202518" style="fill: #9467bd; stroke: #9467bd"/>
     <use xlink:href="#m8c645d3b91" x="336.883945" y="139.696544" style="fill: #9467bd; stroke: #9467bd"/>
     <use xlink:href="#m8c645d3b91" x="342.533239" y="147.51943" style="fill: #9467bd; stroke: #9467bd"/>
     <use xlink:href="#m8c645d3b91" x="348.182534" y="152.517392" style="fill: #9467bd; stroke: #9467bd"/>
     <use xlink:href="#m8c645d3b91" x="353.831828" y="155.654641" style="fill: #9467bd; stroke: #9467bd"/>
     <use xlink:href="#m8c645d3b91" x="359.481123" y="158.605156" style="fill: #9467bd; stroke: #9467bd"/>
     <use xlink:href="#m8c645d3b91" x="365.130417" y="162.602758" style="fill: #9467bd; stroke: #9467bd"/>
     <use xlink:href="#m8c645d3b91" x="370.779712" y="167.856591" style="fill: #9467bd; stroke: #9467bd"/>
     <use xlink:href="#m8c645d3b91" x="376.429006" y="173.670402" style="fill: #9467bd; stroke: #9467bd"/>
     <use xlink:href="#m8c645d3b91" x="382.0783" y="179.202863" style="fill: #9467bd; stroke: #9467bd"/>
     <use xlink:href="#m8c645d3b91" x="387.727595" y="184.090487" style="fill: #9467bd; stroke: #9467bd"/>
     <use xlink:href="#m8c645d3b91" x="393.376889" y="188.336077" style="fill: #9467bd; stroke: #9467bd"/>
     <use xlink:href="#m8c645d3b91" x="399.026184" y="192.044266" style="fill: #9467bd; stroke: #9467bd"/>
     <use xlink:href="#m8c645d3b91" x="404.675478" y="195.319076" style="fill: #9467bd; stroke: #9467bd"/>
     <use xlink:href="#m8c645d3b91" x="410.324773" y="198.234347" style="fill: #9467bd; stroke: #9467bd"/>
     <use xlink:href="#m8c645d3b91" x="415.974067" y="200.866423" style="fill: #9467bd; stroke: #9467bd"/>
     <use xlink:href="#m8c645d3b91" x="421.623362" y="203.214543" style="fill: #9467bd; stroke: #9467bd"/>
     <use xlink:href="#m8c645d3b91" x="427.573268" y="205.407855" style="fill: #9467bd; stroke: #9467bd"/>
     <use xlink:href="#m8c645d3b91" x="434.509906" y="207.762424" style="fill: #9467bd; stroke: #9467bd"/>
     <use xlink:href="#m8c645d3b91" x="442.965454" y="210.334618" style="fill: #9467bd; stroke: #9467bd"/>
     <use xlink:href="#m8c645d3b91" x="453.262677" y="213.037267" style="fill: #9467bd; stroke: #9467bd"/>
     <use xlink:href="#m8c645d3b91" x="465.788147" y="215.833042" style="fill: #9467bd; stroke: #9467bd"/>
     <use xlink:href="#m8c645d3b91" x="481.002536" y="218.634664" style="fill: #9467bd; stroke: #9467bd"/>
     <use xlink:href="#m8c645d3b91" x="499.451422" y="221.36215" style="fill: #9467bd; stroke: #9467bd"/>
     <use xlink:href="#m8c645d3b91" x="521.775994" y="223.921465" style="fill: #9467bd; stroke: #9467bd"/>
     <use xlink:href="#m8c645d3b91" x="548.722604" y="226.245759" style="fill: #9467bd; stroke: #9467bd"/>
     <use xlink:href="#m8c645d3b91" x="581.149692" y="228.28053" style="fill: #9467bd; stroke: #9467bd"/>
     <use xlink:href="#m8c645d3b91" x="620.029881" y="230.011113" style="fill: #9467bd; stroke: #9467bd"/>
     <use xlink:href="#m8c645d3b91" x="666.444137" y="231.445087" style="fill: #9467bd; stroke: #9467bd"/>
     <use xlink:href="#m8c645d3b91" x="721.564496" y="232.618289" style="fill: #9467bd; stroke: #9467bd"/>
     <use xlink:href="#m8c645d3b91" x="786.620717" y="233.57471" style="fill: #9467bd; stroke: #9467bd"/>
     <use xlink:href="#m8c645d3b91" x="862.846676" y="234.360552" style="fill: #9467bd; stroke: #9467bd"/>
     <use xlink:href="#m8c645d3b91" x="951.402454" y="235.012063" style="fill: #9467bd; stroke: #9467bd"/>
     <use xlink:href="#m8c645d3b91" x="1053.270682" y="235.555386" style="fill: #9467bd; stroke: #9467bd"/>
     <use xlink:href="#m8c645d3b91" x="1169.13064" y="236.007452" style="fill: #9467bd; stroke: #9467bd"/>
    </g>
   </g>
   <g id="line2d_38">
    <path d="M -1 238.144257 
L 20.432179 238.137899 
L 41.966733 238.105724 
L 59.695371 238.015584 
L 74.270133 237.82743 
L 86.238174 237.512319 
L 96.05634 237.065006 
L 104.477879 236.473072 
L 112.47393 235.65927 
L 120.469981 234.514551 
L 128.466032 232.935966 
L 136.462083 230.802285 
L 144.458134 227.976271 
L 152.454185 224.309592 
L 160.450236 219.650792 
L 168.446287 213.856539 
L 176.442338 206.805935 
L 184.438389 198.417179 
L 192.43444 188.665338 
L 200.43049 177.599428 
L 208.426541 165.35663 
L 216.422592 152.171274 
L 224.418643 138.376422 
L 232.414694 124.396363 
L 240.410745 110.729265 
L 248.406796 97.920331 
L 256.402847 86.527155 
L 264.398898 77.080149 
L 272.394949 70.041868 
L 280.391 65.769545 
L 288.387051 64.485063 
L 296.383102 66.255856 
L 304.379153 70.989045 
L 312.375204 78.439511 
L 320.371255 88.230925 
L 328.367306 99.887236 
L 336.363357 112.870933 
L 344.359408 126.62383 
L 352.355459 140.60609 
L 360.35151 154.329789 
L 368.34756 167.384311 
L 376.343611 179.452126 
L 384.339662 190.314754 
L 392.335713 199.849876 
L 400.331764 208.021355 
L 408.327815 214.864402 
L 416.323866 220.468253 
L 424.319917 224.958462 
L 432.315968 228.480548 
L 440.312019 231.186135 
L 448.30807 233.222236 
L 456.304121 234.723781 
L 464.300172 235.809175 
L 472.296223 236.578373 
L 480.292274 237.112903 
L 488.713813 237.49283 
L 498.531979 237.772779 
L 510.50002 237.964228 
L 525.074783 238.074547 
L 531.682 238.093423 
" clip-path="url(#p9b5222f7ae)" style="fill: none; stroke-dasharray: 7.4,3.2; stroke-dashoffset: 0; stroke: #000000; stroke-width: 2"/>
   </g>
   <g id="patch_3">
    <path d="M 39.8 238.146825 
L 39.8 22.115625 
" style="fill: none; stroke: #000000; stroke-width: 0.8; stroke-linejoin: miter; stroke-linecap: square"/>
   </g>
   <g id="patch_4">
    <path d="M 520.982 238.146825 
L 520.982 22.115625 
" style="fill: none; stroke: #000000; stroke-width: 0.8; stroke-linejoin: miter; stroke-linecap: square"/>
   </g>
   <g id="patch_5">
    <path d="M 39.8 238.146825 
L 520.982 238.146825 
" style="fill: none; stroke: #000000; stroke-width: 0.8; stroke-linejoin: miter; stroke-linecap: square"/>
   </g>
   <g id="patch_6">
    <path d="M 39.8 22.115625 
L 520.982 22.115625 
" style="fill: none; stroke: #000000; stroke-width: 0.8; stroke-linejoin: miter; stroke-linecap: square"/>
   </g>
   <g id="text_19">
    <!-- $\gamma = 20^\circ$, $C_T = 0.8$, T.I.$=4\%$, W.R.$=$True -->
    <g transform="translate(167.771 16.115625)scale(0.12 -0.12)">
     <defs>
      <path id="DejaVuSans-Oblique-3b3" d="M 1491 2950 
L 1838 788 
L 3456 3500 
L 4066 3500 
L 1972 0 
L 1713 -1331 
L 1138 -1331 
L 1397 0 
L 988 2613 
Q 925 3006 628 3006 
L 475 3006 
L 569 3500 
L 788 3500 
Q 1403 3500 1491 2950 
z
" transform="scale(0.015625)"/>
      <path id="DejaVuSans-3d" d="M 678 2906 
L 4684 2906 
L 4684 2381 
L 678 2381 
L 678 2906 
z
M 678 1631 
L 4684 1631 
L 4684 1100 
L 678 1100 
L 678 1631 
z
" transform="scale(0.015625)"/>
      <path id="DejaVuSans-32" d="M 1228 531 
L 3431 531 
L 3431 0 
L 469 0 
L 469 531 
Q 828 903 1448 1529 
Q 2069 2156 2228 2338 
Q 2531 2678 2651 2914 
Q 2772 3150 2772 3378 
Q 2772 3750 2511 3984 
Q 2250 4219 1831 4219 
Q 1534 4219 1204 4116 
Q 875 4013 500 3803 
L 500 4441 
Q 881 4594 1212 4672 
Q 1544 4750 1819 4750 
Q 2544 4750 2975 4387 
Q 3406 4025 3406 3419 
Q 3406 3131 3298 2873 
Q 3191 2616 2906 2266 
Q 2828 2175 2409 1742 
Q 1991 1309 1228 531 
z
" transform="scale(0.015625)"/>
      <path id="DejaVuSans-30" d="M 2034 4250 
Q 1547 4250 1301 3770 
Q 1056 3291 1056 2328 
Q 1056 1369 1301 889 
Q 1547 409 2034 409 
Q 2525 409 2770 889 
Q 3016 1369 3016 2328 
Q 3016 3291 2770 3770 
Q 2525 4250 2034 4250 
z
M 2034 4750 
Q 2819 4750 3233 4129 
Q 3647 3509 3647 2328 
Q 3647 1150 3233 529 
Q 2819 -91 2034 -91 
Q 1250 -91 836 529 
Q 422 1150 422 2328 
Q 422 3509 836 4129 
Q 1250 4750 2034 4750 
z
" transform="scale(0.015625)"/>
      <path id="DejaVuSans-2218" d="M 2003 2603 
Q 1753 2603 1581 2429 
Q 1409 2256 1409 2006 
Q 1409 1759 1581 1589 
Q 1753 1419 2003 1419 
Q 2253 1419 2425 1589 
Q 2597 1759 2597 2006 
Q 2597 2253 2423 2428 
Q 2250 2603 2003 2603 
z
M 2003 3006 
Q 2203 3006 2387 2929 
Q 2572 2853 2706 2709 
Q 2850 2569 2922 2390 
Q 2994 2212 2994 2006 
Q 2994 1594 2705 1308 
Q 2416 1022 1997 1022 
Q 1575 1022 1294 1303 
Q 1013 1584 1013 2006 
Q 1013 2425 1300 2715 
Q 1588 3006 2003 3006 
z
" transform="scale(0.015625)"/>
      <path id="STIXGeneral-Regular-2c" d="M 531 -902 
L 467 -781 
Q 998 -422 998 -96 
Q 998 -13 909 -13 
Q 883 -13 822 -25 
Q 762 -38 723 -38 
Q 352 -38 352 288 
Q 352 454 457 553 
Q 563 653 736 653 
Q 954 653 1101 496 
Q 1248 339 1248 96 
Q 1248 -198 1053 -473 
Q 858 -749 531 -902 
z
" transform="scale(0.015625)"/>
      <path id="DejaVuSans-Oblique-43" d="M 4447 4306 
L 4319 3641 
Q 4019 3944 3683 4091 
Q 3347 4238 2956 4238 
Q 2422 4238 2017 3981 
Q 1613 3725 1319 3200 
Q 1131 2863 1032 2486 
Q 934 2109 934 1728 
Q 934 1091 1264 756 
Q 1594 422 2222 422 
Q 2656 422 3056 561 
Q 3456 700 3834 978 
L 3688 231 
Q 3316 72 2936 -9 
Q 2556 -91 2175 -91 
Q 1278 -91 773 396 
Q 269 884 269 1753 
Q 269 2309 461 2846 
Q 653 3384 1013 3828 
Q 1394 4300 1883 4525 
Q 2372 4750 3022 4750 
Q 3422 4750 3780 4639 
Q 4138 4528 4447 4306 
z
" transform="scale(0.015625)"/>
      <path id="DejaVuSans-Oblique-54" d="M 378 4666 
L 4325 4666 
L 4225 4134 
L 2559 4134 
L 1759 0 
L 1125 0 
L 1925 4134 
L 275 4134 
L 378 4666 
z
" transform="scale(0.015625)"/>
      <path id="DejaVuSans-2e" d="M 684 794 
L 1344 794 
L 1344 0 
L 684 0 
L 684 794 
z
" transform="scale(0.015625)"/>
      <path id="DejaVuSans-38" d="M 2034 2216 
Q 1584 2216 1326 1975 
Q 1069 1734 1069 1313 
Q 1069 891 1326 650 
Q 1584 409 2034 409 
Q 2484 409 2743 651 
Q 3003 894 3003 1313 
Q 3003 1734 2745 1975 
Q 2488 2216 2034 2216 
z
M 1403 2484 
Q 997 2584 770 2862 
Q 544 3141 544 3541 
Q 544 4100 942 4425 
Q 1341 4750 2034 4750 
Q 2731 4750 3128 4425 
Q 3525 4100 3525 3541 
Q 3525 3141 3298 2862 
Q 3072 2584 2669 2484 
Q 3125 2378 3379 2068 
Q 3634 1759 3634 1313 
Q 3634 634 3220 271 
Q 2806 -91 2034 -91 
Q 1263 -91 848 271 
Q 434 634 434 1313 
Q 434 1759 690 2068 
Q 947 2378 1403 2484 
z
M 1172 3481 
Q 1172 3119 1398 2916 
Q 1625 2713 2034 2713 
Q 2441 2713 2670 2916 
Q 2900 3119 2900 3481 
Q 2900 3844 2670 4047 
Q 2441 4250 2034 4250 
Q 1625 4250 1398 4047 
Q 1172 3844 1172 3481 
z
" transform="scale(0.015625)"/>
      <path id="STIXGeneral-Regular-54" d="M 3795 3149 
L 3642 3149 
Q 3539 3674 3353 3821 
Q 3168 3968 2656 3968 
L 2278 3968 
L 2278 710 
Q 2278 346 2387 243 
Q 2496 141 2893 122 
L 2893 0 
L 1024 0 
L 1024 122 
Q 1427 147 1526 256 
Q 1626 365 1626 787 
L 1626 3968 
L 1242 3968 
Q 723 3968 540 3817 
Q 358 3667 262 3149 
L 109 3149 
L 154 4237 
L 3750 4237 
L 3795 3149 
z
" transform="scale(0.015625)"/>
      <path id="STIXGeneral-Regular-49" d="M 2016 0 
L 115 0 
L 115 122 
Q 518 134 627 240 
Q 736 346 736 717 
L 736 3526 
Q 736 3898 633 3994 
Q 531 4090 115 4115 
L 115 4237 
L 2016 4237 
L 2016 4115 
Q 1613 4096 1501 3993 
Q 1389 3891 1389 3526 
L 1389 717 
Q 1389 358 1504 246 
Q 1619 134 2016 122 
L 2016 0 
z
" transform="scale(0.015625)"/>
      <path id="DejaVuSans-34" d="M 2419 4116 
L 825 1625 
L 2419 1625 
L 2419 4116 
z
M 2253 4666 
L 3047 4666 
L 3047 1625 
L 3713 1625 
L 3713 1100 
L 3047 1100 
L 3047 0 
L 2419 0 
L 2419 1100 
L 313 1100 
L 313 1709 
L 2253 4666 
z
" transform="scale(0.015625)"/>
      <path id="DejaVuSans-25" d="M 4653 2053 
Q 4381 2053 4226 1822 
Q 4072 1591 4072 1178 
Q 4072 772 4226 539 
Q 4381 306 4653 306 
Q 4919 306 5073 539 
Q 5228 772 5228 1178 
Q 5228 1588 5073 1820 
Q 4919 2053 4653 2053 
z
M 4653 2450 
Q 5147 2450 5437 2106 
Q 5728 1763 5728 1178 
Q 5728 594 5436 251 
Q 5144 -91 4653 -91 
Q 4153 -91 3862 251 
Q 3572 594 3572 1178 
Q 3572 1766 3864 2108 
Q 4156 2450 4653 2450 
z
M 1428 4353 
Q 1159 4353 1004 4120 
Q 850 3888 850 3481 
Q 850 3069 1003 2837 
Q 1156 2606 1428 2606 
Q 1700 2606 1854 2837 
Q 2009 3069 2009 3481 
Q 2009 3884 1853 4118 
Q 1697 4353 1428 4353 
z
M 4250 4750 
L 4750 4750 
L 1831 -91 
L 1331 -91 
L 4250 4750 
z
M 1428 4750 
Q 1922 4750 2215 4408 
Q 2509 4066 2509 3481 
Q 2509 2891 2217 2550 
Q 1925 2209 1428 2209 
Q 931 2209 642 2551 
Q 353 2894 353 3481 
Q 353 4063 643 4406 
Q 934 4750 1428 4750 
z
" transform="scale(0.015625)"/>
      <path id="STIXGeneral-Regular-57" d="M 5965 4237 
L 5965 4115 
Q 5709 4064 5616 3990 
Q 5523 3917 5434 3667 
Q 4704 1709 4128 -70 
L 4032 -70 
Q 3642 1011 3008 2637 
L 2022 -70 
L 1926 -70 
Q 1709 576 1277 1753 
Q 845 2931 698 3347 
Q 538 3808 406 3958 
Q 275 4109 32 4115 
L 32 4237 
L 1594 4237 
L 1594 4115 
Q 1357 4109 1270 4064 
Q 1184 4019 1184 3917 
Q 1184 3808 1254 3616 
L 2176 1210 
L 2842 3021 
L 2662 3501 
Q 2509 3917 2400 4013 
Q 2291 4109 2010 4115 
L 2010 4237 
L 3706 4237 
L 3706 4115 
Q 3213 4102 3213 3891 
Q 3213 3808 3322 3520 
L 4237 1190 
L 5043 3360 
Q 5152 3667 5152 3853 
Q 5152 4109 4704 4115 
L 4704 4237 
L 5965 4237 
z
" transform="scale(0.015625)"/>
      <path id="STIXGeneral-Regular-52" d="M 4224 0 
L 3187 0 
L 1664 1971 
L 1306 1958 
L 1306 717 
Q 1306 352 1405 249 
Q 1504 147 1875 122 
L 1875 0 
L 109 0 
L 109 122 
Q 474 154 563 262 
Q 653 371 653 794 
L 653 3526 
Q 653 3885 563 3987 
Q 474 4090 109 4115 
L 109 4237 
L 1850 4237 
Q 2726 4237 3187 3859 
Q 3501 3603 3501 3091 
Q 3501 2221 2342 2042 
L 3622 422 
Q 3757 256 3878 198 
Q 4000 141 4224 122 
L 4224 0 
z
M 1306 3731 
L 1306 2195 
Q 1766 2202 1990 2246 
Q 2214 2291 2438 2413 
Q 2803 2618 2803 3142 
Q 2803 4000 1632 4000 
Q 1459 4000 1382 3945 
Q 1306 3891 1306 3731 
z
" transform="scale(0.015625)"/>
      <path id="STIXGeneral-Regular-72" d="M 1024 2931 
L 1024 2342 
Q 1267 2688 1430 2816 
Q 1594 2944 1792 2944 
Q 1958 2944 2051 2854 
Q 2144 2765 2144 2605 
Q 2144 2470 2077 2393 
Q 2010 2317 1894 2317 
Q 1773 2317 1638 2445 
Q 1536 2541 1472 2541 
Q 1338 2541 1181 2355 
Q 1024 2170 1024 2016 
L 1024 576 
Q 1024 301 1133 205 
Q 1242 109 1568 96 
L 1568 0 
L 32 0 
L 32 96 
Q 339 154 412 224 
Q 486 294 486 538 
L 486 2138 
Q 486 2349 438 2435 
Q 390 2522 269 2522 
Q 166 2522 45 2496 
L 45 2598 
Q 448 2726 992 2944 
L 1024 2931 
z
" transform="scale(0.015625)"/>
      <path id="STIXGeneral-Regular-75" d="M 3072 320 
L 3072 230 
Q 2573 96 2195 -58 
L 2163 -38 
L 2163 486 
L 2150 486 
Q 1747 -64 1235 -64 
Q 870 -64 662 160 
Q 454 384 454 755 
L 454 2362 
Q 454 2598 371 2688 
Q 288 2778 58 2790 
L 58 2880 
L 992 2880 
L 992 813 
Q 992 595 1123 451 
Q 1254 307 1446 307 
Q 1760 307 1984 506 
Q 2067 582 2099 649 
Q 2131 717 2131 877 
L 2131 2355 
Q 2131 2605 2041 2678 
Q 1952 2752 1658 2771 
L 1658 2880 
L 2669 2880 
L 2669 685 
Q 2669 461 2742 390 
Q 2816 320 3034 320 
L 3072 320 
z
" transform="scale(0.015625)"/>
      <path id="STIXGeneral-Regular-65" d="M 2611 1050 
L 2714 1005 
Q 2330 -64 1376 -64 
Q 813 -64 486 329 
Q 160 723 160 1389 
Q 160 2074 525 2509 
Q 890 2944 1485 2944 
Q 2061 2944 2374 2502 
Q 2560 2246 2592 1773 
L 621 1773 
Q 646 1370 700 1158 
Q 755 947 915 730 
Q 1184 378 1626 378 
Q 1939 378 2153 531 
Q 2368 685 2611 1050 
z
M 634 1978 
L 1939 1978 
Q 1882 2381 1750 2547 
Q 1619 2714 1312 2714 
Q 1043 2714 864 2525 
Q 685 2336 634 1978 
z
" transform="scale(0.015625)"/>
     </defs>
     <use xlink:href="#DejaVuSans-Oblique-3b3" transform="translate(0 0.78125)"/>
     <use xlink:href="#DejaVuSans-3d" transform="translate(78.662109 0.78125)"/>
     <use xlink:href="#DejaVuSans-32" transform="translate(181.933594 0.78125)"/>
     <use xlink:href="#DejaVuSans-30" transform="translate(245.556641 0.78125)"/>
     <use xlink:href="#DejaVuSans-2218" transform="translate(323.774414 39.0625)scale(0.7)"/>
     <use xlink:href="#STIXGeneral-Regular-2c" transform="translate(383.964844 0.78125)"/>
     <use xlink:href="#STIXGeneral-Regular-20" transform="translate(408.964828 0.78125)"/>
     <use xlink:href="#DejaVuSans-Oblique-43" transform="translate(433.964813 0.78125)"/>
     <use xlink:href="#DejaVuSans-Oblique-54" transform="translate(503.789032 -15.625)scale(0.7)"/>
     <use xlink:href="#DejaVuSans-3d" transform="translate(568.764618 0.78125)"/>
     <use xlink:href="#DejaVuSans-30" transform="translate(672.036102 0.78125)"/>
     <use xlink:href="#DejaVuSans-2e" transform="translate(735.659149 0.78125)"/>
     <use xlink:href="#DejaVuSans-38" transform="translate(764.821259 0.78125)"/>
     <use xlink:href="#STIXGeneral-Regular-2c" transform="translate(828.444305 0.78125)"/>
     <use xlink:href="#STIXGeneral-Regular-20" transform="translate(853.44429 0.78125)"/>
     <use xlink:href="#STIXGeneral-Regular-54" transform="translate(878.444275 0.78125)"/>
     <use xlink:href="#STIXGeneral-Regular-2e" transform="translate(939.544266 0.78125)"/>
     <use xlink:href="#STIXGeneral-Regular-49" transform="translate(964.54425 0.78125)"/>
     <use xlink:href="#STIXGeneral-Regular-2e" transform="translate(997.844238 0.78125)"/>
     <use xlink:href="#DejaVuSans-3d" transform="translate(1042.326645 0.78125)"/>
     <use xlink:href="#DejaVuSans-34" transform="translate(1145.598129 0.78125)"/>
     <use xlink:href="#DejaVuSans-25" transform="translate(1209.221176 0.78125)"/>
     <use xlink:href="#STIXGeneral-Regular-2c" transform="translate(1304.240707 0.78125)"/>
     <use xlink:href="#STIXGeneral-Regular-20" transform="translate(1329.240692 0.78125)"/>
     <use xlink:href="#STIXGeneral-Regular-57" transform="translate(1354.240677 0.78125)"/>
     <use xlink:href="#STIXGeneral-Regular-2e" transform="translate(1448.640671 0.78125)"/>
     <use xlink:href="#STIXGeneral-Regular-52" transform="translate(1473.640656 0.78125)"/>
     <use xlink:href="#STIXGeneral-Regular-2e" transform="translate(1540.340652 0.78125)"/>
     <use xlink:href="#DejaVuSans-3d" transform="translate(1584.823059 0.78125)"/>
     <use xlink:href="#STIXGeneral-Regular-54" transform="translate(1688.094543 0.78125)"/>
     <use xlink:href="#STIXGeneral-Regular-72" transform="translate(1749.194534 0.78125)"/>
     <use xlink:href="#STIXGeneral-Regular-75" transform="translate(1782.494522 0.78125)"/>
     <use xlink:href="#STIXGeneral-Regular-65" transform="translate(1832.494507 0.78125)"/>
    </g>
   </g>
   <g id="legend_1">
    <g id="patch_7">
     <path d="M 439.982 115.1375 
L 513.982 115.1375 
Q 515.982 115.1375 515.982 113.1375 
L 515.982 29.115625 
Q 515.982 27.115625 513.982 27.115625 
L 439.982 27.115625 
Q 437.982 27.115625 437.982 29.115625 
L 437.982 113.1375 
Q 437.982 115.1375 439.982 115.1375 
z
" style="fill: #ffffff; opacity: 0.8; stroke: #cccccc; stroke-linejoin: miter"/>
    </g>
    <g id="line2d_39">
     <g>
      <use xlink:href="#m0b24e7809d" x="451.982" y="34.615625" style="fill: #1f77b4; stroke: #1f77b4"/>
     </g>
    </g>
    <g id="text_20">
     <!-- $x/D = 5$ -->
     <g transform="translate(469.982 38.115625)scale(0.1 -0.1)">
      <defs>
       <path id="DejaVuSans-Oblique-78" d="M 3841 3500 
L 2234 1784 
L 3219 0 
L 2559 0 
L 1819 1388 
L 531 0 
L -166 0 
L 1556 1844 
L 641 3500 
L 1300 3500 
L 1972 2234 
L 3144 3500 
L 3841 3500 
z
" transform="scale(0.015625)"/>
       <path id="DejaVuSans-Oblique-44" d="M 1081 4666 
L 2438 4666 
Q 3519 4666 4070 4208 
Q 4622 3750 4622 2847 
Q 4622 2250 4412 1698 
Q 4203 1147 3834 769 
Q 3463 381 2891 190 
Q 2319 0 1538 0 
L 172 0 
L 1081 4666 
z
M 1613 4147 
L 909 519 
L 1734 519 
Q 2794 519 3375 1128 
Q 3956 1738 3956 2847 
Q 3956 3519 3581 3833 
Q 3206 4147 2406 4147 
L 1613 4147 
z
" transform="scale(0.015625)"/>
       <path id="DejaVuSans-35" d="M 691 4666 
L 3169 4666 
L 3169 4134 
L 1269 4134 
L 1269 2991 
Q 1406 3038 1543 3061 
Q 1681 3084 1819 3084 
Q 2600 3084 3056 2656 
Q 3513 2228 3513 1497 
Q 3513 744 3044 326 
Q 2575 -91 1722 -91 
Q 1428 -91 1123 -41 
Q 819 9 494 109 
L 494 744 
Q 775 591 1075 516 
Q 1375 441 1709 441 
Q 2250 441 2565 725 
Q 2881 1009 2881 1497 
Q 2881 1984 2565 2268 
Q 2250 2553 1709 2553 
Q 1456 2553 1204 2497 
Q 953 2441 691 2322 
L 691 4666 
z
" transform="scale(0.015625)"/>
      </defs>
      <use xlink:href="#DejaVuSans-Oblique-78" transform="translate(0 0.09375)"/>
      <use xlink:href="#DejaVuSans-2f" transform="translate(59.179688 0.09375)"/>
      <use xlink:href="#DejaVuSans-Oblique-44" transform="translate(92.871094 0.09375)"/>
      <use xlink:href="#DejaVuSans-3d" transform="translate(189.355469 0.09375)"/>
      <use xlink:href="#DejaVuSans-35" transform="translate(292.626953 0.09375)"/>
     </g>
    </g>
    <g id="line2d_40">
     <g>
      <use xlink:href="#m1a4b9082dc" x="451.982" y="48.785938" style="fill: #ff7f0e; stroke: #ff7f0e"/>
     </g>
    </g>
    <g id="text_21">
     <!-- $x/D = 7$ -->
     <g transform="translate(469.982 52.285938)scale(0.1 -0.1)">
      <defs>
       <path id="DejaVuSans-37" d="M 525 4666 
L 3525 4666 
L 3525 4397 
L 1831 0 
L 1172 0 
L 2766 4134 
L 525 4134 
L 525 4666 
z
" transform="scale(0.015625)"/>
      </defs>
      <use xlink:href="#DejaVuSans-Oblique-78" transform="translate(0 0.09375)"/>
      <use xlink:href="#DejaVuSans-2f" transform="translate(59.179688 0.09375)"/>
      <use xlink:href="#DejaVuSans-Oblique-44" transform="translate(92.871094 0.09375)"/>
      <use xlink:href="#DejaVuSans-3d" transform="translate(189.355469 0.09375)"/>
      <use xlink:href="#DejaVuSans-37" transform="translate(292.626953 0.09375)"/>
     </g>
    </g>
    <g id="line2d_41">
     <g>
      <use xlink:href="#mcffe6384cf" x="451.982" y="62.95625" style="fill: #2ca02c; stroke: #2ca02c"/>
     </g>
    </g>
    <g id="text_22">
     <!-- $x/D = 9$ -->
     <g transform="translate(469.982 66.45625)scale(0.1 -0.1)">
      <defs>
       <path id="DejaVuSans-39" d="M 703 97 
L 703 672 
Q 941 559 1184 500 
Q 1428 441 1663 441 
Q 2288 441 2617 861 
Q 2947 1281 2994 2138 
Q 2813 1869 2534 1725 
Q 2256 1581 1919 1581 
Q 1219 1581 811 2004 
Q 403 2428 403 3163 
Q 403 3881 828 4315 
Q 1253 4750 1959 4750 
Q 2769 4750 3195 4129 
Q 3622 3509 3622 2328 
Q 3622 1225 3098 567 
Q 2575 -91 1691 -91 
Q 1453 -91 1209 -44 
Q 966 3 703 97 
z
M 1959 2075 
Q 2384 2075 2632 2365 
Q 2881 2656 2881 3163 
Q 2881 3666 2632 3958 
Q 2384 4250 1959 4250 
Q 1534 4250 1286 3958 
Q 1038 3666 1038 3163 
Q 1038 2656 1286 2365 
Q 1534 2075 1959 2075 
z
" transform="scale(0.015625)"/>
      </defs>
      <use xlink:href="#DejaVuSans-Oblique-78" transform="translate(0 0.78125)"/>
      <use xlink:href="#DejaVuSans-2f" transform="translate(59.179688 0.78125)"/>
      <use xlink:href="#DejaVuSans-Oblique-44" transform="translate(92.871094 0.78125)"/>
      <use xlink:href="#DejaVuSans-3d" transform="translate(189.355469 0.78125)"/>
      <use xlink:href="#DejaVuSans-39" transform="translate(292.626953 0.78125)"/>
     </g>
    </g>
    <g id="line2d_42">
     <g>
      <use xlink:href="#mdc62c58c94" x="451.982" y="77.126563" style="fill: #d62728; stroke: #d62728"/>
     </g>
    </g>
    <g id="text_23">
     <!-- $x/D = 11$ -->
     <g transform="translate(469.982 80.626563)scale(0.1 -0.1)">
      <defs>
       <path id="DejaVuSans-31" d="M 794 531 
L 1825 531 
L 1825 4091 
L 703 3866 
L 703 4441 
L 1819 4666 
L 2450 4666 
L 2450 531 
L 3481 531 
L 3481 0 
L 794 0 
L 794 531 
z
" transform="scale(0.015625)"/>
      </defs>
      <use xlink:href="#DejaVuSans-Oblique-78" transform="translate(0 0.09375)"/>
      <use xlink:href="#DejaVuSans-2f" transform="translate(59.179688 0.09375)"/>
      <use xlink:href="#DejaVuSans-Oblique-44" transform="translate(92.871094 0.09375)"/>
      <use xlink:href="#DejaVuSans-3d" transform="translate(189.355469 0.09375)"/>
      <use xlink:href="#DejaVuSans-31" transform="translate(292.626953 0.09375)"/>
      <use xlink:href="#DejaVuSans-31" transform="translate(356.25 0.09375)"/>
     </g>
    </g>
    <g id="line2d_43">
     <g>
      <use xlink:href="#m8c645d3b91" x="451.982" y="91.296875" style="fill: #9467bd; stroke: #9467bd"/>
     </g>
    </g>
    <g id="text_24">
     <!-- $x/D = 13$ -->
     <g transform="translate(469.982 94.796875)scale(0.1 -0.1)">
      <defs>
       <path id="DejaVuSans-33" d="M 2597 2516 
Q 3050 2419 3304 2112 
Q 3559 1806 3559 1356 
Q 3559 666 3084 287 
Q 2609 -91 1734 -91 
Q 1441 -91 1130 -33 
Q 819 25 488 141 
L 488 750 
Q 750 597 1062 519 
Q 1375 441 1716 441 
Q 2309 441 2620 675 
Q 2931 909 2931 1356 
Q 2931 1769 2642 2001 
Q 2353 2234 1838 2234 
L 1294 2234 
L 1294 2753 
L 1863 2753 
Q 2328 2753 2575 2939 
Q 2822 3125 2822 3475 
Q 2822 3834 2567 4026 
Q 2313 4219 1838 4219 
Q 1578 4219 1281 4162 
Q 984 4106 628 3988 
L 628 4550 
Q 988 4650 1302 4700 
Q 1616 4750 1894 4750 
Q 2613 4750 3031 4423 
Q 3450 4097 3450 3541 
Q 3450 3153 3228 2886 
Q 3006 2619 2597 2516 
z
" transform="scale(0.015625)"/>
      </defs>
      <use xlink:href="#DejaVuSans-Oblique-78" transform="translate(0 0.78125)"/>
      <use xlink:href="#DejaVuSans-2f" transform="translate(59.179688 0.78125)"/>
      <use xlink:href="#DejaVuSans-Oblique-44" transform="translate(92.871094 0.78125)"/>
      <use xlink:href="#DejaVuSans-3d" transform="translate(189.355469 0.78125)"/>
      <use xlink:href="#DejaVuSans-31" transform="translate(292.626953 0.78125)"/>
      <use xlink:href="#DejaVuSans-33" transform="translate(356.25 0.78125)"/>
     </g>
    </g>
    <g id="line2d_44">
     <path d="M 441.982 105.467188 
L 451.982 105.467188 
L 461.982 105.467188 
" style="fill: none; stroke-dasharray: 7.4,3.2; stroke-dashoffset: 0; stroke: #000000; stroke-width: 2"/>
    </g>
    <g id="text_25">
     <!-- Gaussian -->
     <g transform="translate(469.982 108.967188)scale(0.1 -0.1)">
      <defs>
       <path id="STIXGeneral-Regular-47" d="M 4538 2266 
L 4538 2150 
Q 4256 2125 4173 2035 
Q 4090 1946 4090 1638 
L 4090 358 
Q 3539 -90 2464 -90 
Q 1965 -90 1507 89 
Q 1050 269 736 595 
Q 205 1152 205 2093 
Q 205 3155 890 3776 
Q 1491 4326 2419 4326 
Q 2829 4326 3270 4179 
Q 3443 4115 3552 4115 
Q 3654 4115 3731 4176 
Q 3808 4237 3840 4326 
L 3981 4326 
L 4032 2976 
L 3885 2976 
Q 3680 3475 3430 3718 
Q 3059 4070 2496 4070 
Q 1856 4070 1427 3629 
Q 934 3136 934 2074 
Q 934 1190 1395 678 
Q 1856 166 2618 166 
Q 2982 166 3225 281 
Q 3469 397 3469 557 
L 3469 1562 
Q 3469 1933 3376 2025 
Q 3283 2118 2899 2150 
L 2899 2266 
L 4538 2266 
z
" transform="scale(0.015625)"/>
       <path id="STIXGeneral-Regular-61" d="M 2829 422 
L 2829 243 
Q 2586 -64 2253 -64 
Q 1888 -64 1843 403 
L 1837 403 
Q 1427 -64 909 -64 
Q 608 -64 422 112 
Q 237 288 237 602 
Q 237 1050 685 1350 
Q 992 1555 1837 1869 
L 1837 2214 
Q 1837 2502 1699 2646 
Q 1562 2790 1338 2790 
Q 1146 2790 1018 2697 
Q 890 2605 890 2477 
Q 890 2419 909 2348 
Q 928 2278 928 2208 
Q 928 2112 841 2029 
Q 755 1946 634 1946 
Q 525 1946 441 2029 
Q 358 2112 358 2240 
Q 358 2547 685 2752 
Q 986 2944 1421 2944 
Q 1939 2944 2176 2656 
Q 2291 2522 2323 2384 
Q 2355 2246 2355 1946 
L 2355 723 
Q 2355 301 2554 301 
Q 2682 301 2829 422 
z
M 1837 813 
L 1837 1715 
Q 1248 1510 1018 1293 
Q 800 1094 800 800 
Q 800 557 921 432 
Q 1043 307 1242 307 
Q 1453 307 1613 410 
Q 1747 506 1792 589 
Q 1837 672 1837 813 
z
" transform="scale(0.015625)"/>
       <path id="STIXGeneral-Regular-73" d="M 998 1926 
L 1664 1523 
Q 1984 1331 2105 1164 
Q 2227 998 2227 736 
Q 2227 416 1961 176 
Q 1696 -64 1331 -64 
Q 1030 -64 864 -6 
Q 691 51 570 51 
Q 461 51 416 -26 
L 333 -26 
L 333 979 
L 435 979 
Q 538 512 730 294 
Q 922 77 1248 77 
Q 1485 77 1632 211 
Q 1779 346 1779 550 
Q 1779 845 1440 1030 
L 1094 1222 
Q 326 1651 326 2150 
Q 326 2522 566 2730 
Q 806 2938 1210 2938 
Q 1491 2938 1638 2867 
Q 1754 2816 1818 2816 
Q 1862 2816 1920 2880 
L 1990 2880 
L 2022 2010 
L 1926 2010 
Q 1818 2445 1654 2621 
Q 1491 2797 1203 2797 
Q 986 2797 854 2688 
Q 723 2579 723 2362 
Q 723 2253 796 2128 
Q 870 2003 998 1926 
z
" transform="scale(0.015625)"/>
       <path id="STIXGeneral-Regular-69" d="M 1152 4045 
Q 1152 3904 1056 3811 
Q 960 3718 819 3718 
Q 685 3718 592 3811 
Q 499 3904 499 4045 
Q 499 4179 595 4275 
Q 691 4371 826 4371 
Q 966 4371 1059 4275 
Q 1152 4179 1152 4045 
z
M 1619 0 
L 102 0 
L 102 96 
Q 435 115 521 211 
Q 608 307 608 666 
L 608 2118 
Q 608 2342 563 2432 
Q 518 2522 397 2522 
Q 243 2522 128 2490 
L 128 2592 
L 1120 2944 
L 1146 2918 
L 1146 672 
Q 1146 314 1226 218 
Q 1306 122 1619 96 
L 1619 0 
z
" transform="scale(0.015625)"/>
       <path id="STIXGeneral-Regular-6e" d="M 3104 0 
L 1773 0 
L 1779 96 
Q 2016 115 2096 233 
Q 2176 352 2176 672 
L 2176 1946 
Q 2176 2592 1709 2592 
Q 1549 2592 1408 2515 
Q 1267 2438 1050 2227 
L 1050 461 
Q 1050 269 1136 192 
Q 1222 115 1466 96 
L 1466 0 
L 115 0 
L 115 96 
Q 358 115 435 214 
Q 512 314 512 602 
L 512 2157 
Q 512 2394 467 2483 
Q 422 2573 288 2573 
Q 160 2573 102 2547 
L 102 2656 
Q 550 2784 979 2944 
L 1030 2925 
L 1030 2426 
L 1037 2426 
Q 1491 2944 1958 2944 
Q 2323 2944 2518 2688 
Q 2714 2432 2714 1958 
L 2714 544 
Q 2714 288 2790 205 
Q 2867 122 3104 96 
L 3104 0 
z
" transform="scale(0.015625)"/>
      </defs>
      <use xlink:href="#STIXGeneral-Regular-47"/>
      <use xlink:href="#STIXGeneral-Regular-61" x="72.199982"/>
      <use xlink:href="#STIXGeneral-Regular-75" x="116.599976"/>
      <use xlink:href="#STIXGeneral-Regular-73" x="166.59996"/>
      <use xlink:href="#STIXGeneral-Regular-73" x="205.499954"/>
      <use xlink:href="#STIXGeneral-Regular-69" x="244.399948"/>
      <use xlink:href="#STIXGeneral-Regular-61" x="272.199936"/>
      <use xlink:href="#STIXGeneral-Regular-6e" x="316.59993"/>
     </g>
    </g>
   </g>
  </g>
 </g>
 <defs>
  <clipPath id="p9b5222f7ae">
   <rect x="39.8" y="22.115625" width="481.182" height="216.0312"/>
  </clipPath>
 </defs>
</svg>
