<?xml version="1.0" encoding="utf-8" standalone="no"?>
<!DOCTYPE svg PUBLIC "-//W3C//DTD SVG 1.1//EN"
  "http://www.w3.org/Graphics/SVG/1.1/DTD/svg11.dtd">
<svg xmlns:xlink="http://www.w3.org/1999/xlink" width="527.832pt" height="274.346825pt" viewBox="0 0 527.832 274.346825" xmlns="http://www.w3.org/2000/svg" version="1.1">
 <metadata>
  <rdf:RDF xmlns:dc="http://purl.org/dc/elements/1.1/" xmlns:cc="http://creativecommons.org/ns#" xmlns:rdf="http://www.w3.org/1999/02/22-rdf-syntax-ns#">
   <cc:Work>
    <dc:type rdf:resource="http://purl.org/dc/dcmitype/StillImage"/>
    <dc:date>2022-04-18T13:12:20.480429</dc:date>
    <dc:format>image/svg+xml</dc:format>
    <dc:creator>
     <cc:Agent>
      <dc:title>Matplotlib v3.5.1, https://matplotlib.org/</dc:title>
     </cc:Agent>
    </dc:creator>
   </cc:Work>
  </rdf:RDF>
 </metadata>
 <defs>
  <style type="text/css">*{stroke-linejoin: round; stroke-linecap: butt}</style>
 </defs>
 <g id="figure_1">
  <g id="patch_1">
   <path d="M 0 274.346825 
L 527.832 274.346825 
L 527.832 0 
L 0 0 
z
" style="fill: #ffffff"/>
  </g>
  <g id="axes_1">
   <g id="patch_2">
    <path d="M 39.45 238.146825 
L 520.632 238.146825 
L 520.632 22.115625 
L 39.45 22.115625 
z
" style="fill: #ffffff"/>
   </g>
   <g id="matplotlib.axis_1">
    <g id="xtick_1">
     <g id="line2d_1">
      <path d="M 55.4894 238.146825 
L 55.4894 22.115625 
" clip-path="url(#p1836175822)" style="fill: none; stroke-dasharray: 0.8,1.32; stroke-dashoffset: 0; stroke: #b0b0b0; stroke-width: 0.8"/>
     </g>
     <g id="line2d_2">
      <defs>
       <path id="ma9ee326ba4" d="M 0 0 
L 0 3.5 
" style="stroke: #000000; stroke-width: 0.8"/>
      </defs>
      <g>
       <use xlink:href="#ma9ee326ba4" x="55.4894" y="238.146825" style="stroke: #000000; stroke-width: 0.8"/>
      </g>
     </g>
     <g id="text_1">
      <!-- 0 -->
      <g transform="translate(52.9894 251.976512)scale(0.1 -0.1)">
       <defs>
        <path id="STIXGeneral-Regular-30" d="M 3046 2112 
Q 3046 1683 2963 1302 
Q 2880 922 2717 602 
Q 2554 282 2266 96 
Q 1978 -90 1600 -90 
Q 1210 -90 915 108 
Q 621 307 461 640 
Q 301 973 227 1350 
Q 154 1728 154 2150 
Q 154 2746 301 3222 
Q 448 3699 790 4012 
Q 1133 4326 1626 4326 
Q 2253 4326 2649 3712 
Q 3046 3098 3046 2112 
z
M 2432 2080 
Q 2432 3091 2217 3625 
Q 2003 4160 1587 4160 
Q 1190 4160 979 3622 
Q 768 3085 768 2106 
Q 768 1120 979 598 
Q 1190 77 1600 77 
Q 2003 77 2217 598 
Q 2432 1120 2432 2080 
z
" transform="scale(0.015625)"/>
       </defs>
       <use xlink:href="#STIXGeneral-Regular-30"/>
      </g>
     </g>
    </g>
    <g id="xtick_2">
     <g id="line2d_3">
      <path d="M 135.6864 238.146825 
L 135.6864 22.115625 
" clip-path="url(#p1836175822)" style="fill: none; stroke-dasharray: 0.8,1.32; stroke-dashoffset: 0; stroke: #b0b0b0; stroke-width: 0.8"/>
     </g>
     <g id="line2d_4">
      <g>
       <use xlink:href="#ma9ee326ba4" x="135.6864" y="238.146825" style="stroke: #000000; stroke-width: 0.8"/>
      </g>
     </g>
     <g id="text_2">
      <!-- 5 -->
      <g transform="translate(133.1864 251.976512)scale(0.1 -0.1)">
       <defs>
        <path id="STIXGeneral-Regular-35" d="M 2803 4358 
L 2573 3814 
Q 2534 3731 2400 3731 
L 1158 3731 
L 902 3187 
Q 1606 3053 1920 2896 
Q 2234 2739 2502 2368 
Q 2726 2061 2726 1555 
Q 2726 1094 2576 780 
Q 2426 467 2099 224 
Q 1664 -90 1011 -90 
Q 646 -90 422 19 
Q 198 128 198 307 
Q 198 550 486 550 
Q 717 550 960 352 
Q 1210 147 1414 147 
Q 1747 147 2012 480 
Q 2278 813 2278 1229 
Q 2278 1843 1850 2189 
Q 1293 2637 486 2637 
Q 410 2637 410 2688 
L 416 2720 
L 1114 4237 
L 2438 4237 
Q 2547 4237 2608 4269 
Q 2669 4301 2746 4403 
L 2803 4358 
z
" transform="scale(0.015625)"/>
       </defs>
       <use xlink:href="#STIXGeneral-Regular-35"/>
      </g>
     </g>
    </g>
    <g id="xtick_3">
     <g id="line2d_5">
      <path d="M 215.8834 238.146825 
L 215.8834 22.115625 
" clip-path="url(#p1836175822)" style="fill: none; stroke-dasharray: 0.8,1.32; stroke-dashoffset: 0; stroke: #b0b0b0; stroke-width: 0.8"/>
     </g>
     <g id="line2d_6">
      <g>
       <use xlink:href="#ma9ee326ba4" x="215.8834" y="238.146825" style="stroke: #000000; stroke-width: 0.8"/>
      </g>
     </g>
     <g id="text_3">
      <!-- 10 -->
      <g transform="translate(210.8834 251.976512)scale(0.1 -0.1)">
       <defs>
        <path id="STIXGeneral-Regular-31" d="M 2522 0 
L 755 0 
L 755 96 
Q 1107 115 1235 227 
Q 1363 339 1363 608 
L 1363 3482 
Q 1363 3795 1171 3795 
Q 1082 3795 883 3718 
L 710 3654 
L 710 3744 
L 1856 4326 
L 1914 4307 
L 1914 486 
Q 1914 275 2042 185 
Q 2170 96 2522 96 
L 2522 0 
z
" transform="scale(0.015625)"/>
       </defs>
       <use xlink:href="#STIXGeneral-Regular-31"/>
       <use xlink:href="#STIXGeneral-Regular-30" x="49.999985"/>
      </g>
     </g>
    </g>
    <g id="xtick_4">
     <g id="line2d_7">
      <path d="M 296.0804 238.146825 
L 296.0804 22.115625 
" clip-path="url(#p1836175822)" style="fill: none; stroke-dasharray: 0.8,1.32; stroke-dashoffset: 0; stroke: #b0b0b0; stroke-width: 0.8"/>
     </g>
     <g id="line2d_8">
      <g>
       <use xlink:href="#ma9ee326ba4" x="296.0804" y="238.146825" style="stroke: #000000; stroke-width: 0.8"/>
      </g>
     </g>
     <g id="text_4">
      <!-- 15 -->
      <g transform="translate(291.0804 251.976512)scale(0.1 -0.1)">
       <use xlink:href="#STIXGeneral-Regular-31"/>
       <use xlink:href="#STIXGeneral-Regular-35" x="49.999985"/>
      </g>
     </g>
    </g>
    <g id="xtick_5">
     <g id="line2d_9">
      <path d="M 376.2774 238.146825 
L 376.2774 22.115625 
" clip-path="url(#p1836175822)" style="fill: none; stroke-dasharray: 0.8,1.32; stroke-dashoffset: 0; stroke: #b0b0b0; stroke-width: 0.8"/>
     </g>
     <g id="line2d_10">
      <g>
       <use xlink:href="#ma9ee326ba4" x="376.2774" y="238.146825" style="stroke: #000000; stroke-width: 0.8"/>
      </g>
     </g>
     <g id="text_5">
      <!-- 20 -->
      <g transform="translate(371.2774 251.976512)scale(0.1 -0.1)">
       <defs>
        <path id="STIXGeneral-Regular-32" d="M 3034 877 
L 2688 0 
L 186 0 
L 186 77 
L 1325 1286 
Q 1773 1754 1965 2144 
Q 2157 2534 2157 2950 
Q 2157 3379 1920 3616 
Q 1683 3853 1267 3853 
Q 922 3853 720 3673 
Q 518 3494 326 3021 
L 192 3053 
Q 301 3648 630 3987 
Q 960 4326 1523 4326 
Q 2054 4326 2380 4006 
Q 2707 3686 2707 3200 
Q 2707 2477 1888 1613 
L 832 486 
L 2330 486 
Q 2541 486 2665 569 
Q 2790 653 2944 915 
L 3034 877 
z
" transform="scale(0.015625)"/>
       </defs>
       <use xlink:href="#STIXGeneral-Regular-32"/>
       <use xlink:href="#STIXGeneral-Regular-30" x="49.999985"/>
      </g>
     </g>
    </g>
    <g id="xtick_6">
     <g id="line2d_11">
      <path d="M 456.4744 238.146825 
L 456.4744 22.115625 
" clip-path="url(#p1836175822)" style="fill: none; stroke-dasharray: 0.8,1.32; stroke-dashoffset: 0; stroke: #b0b0b0; stroke-width: 0.8"/>
     </g>
     <g id="line2d_12">
      <g>
       <use xlink:href="#ma9ee326ba4" x="456.4744" y="238.146825" style="stroke: #000000; stroke-width: 0.8"/>
      </g>
     </g>
     <g id="text_6">
      <!-- 25 -->
      <g transform="translate(451.4744 251.976512)scale(0.1 -0.1)">
       <use xlink:href="#STIXGeneral-Regular-32"/>
       <use xlink:href="#STIXGeneral-Regular-35" x="49.999985"/>
      </g>
     </g>
    </g>
    <g id="text_7">
     <!-- $x/D$ [-] -->
     <g transform="translate(265.291 264.976512)scale(0.1 -0.1)">
      <defs>
       <path id="DejaVuSans-Oblique-78" d="M 3841 3500 
L 2234 1784 
L 3219 0 
L 2559 0 
L 1819 1388 
L 531 0 
L -166 0 
L 1556 1844 
L 641 3500 
L 1300 3500 
L 1972 2234 
L 3144 3500 
L 3841 3500 
z
" transform="scale(0.015625)"/>
       <path id="DejaVuSans-2f" d="M 1625 4666 
L 2156 4666 
L 531 -594 
L 0 -594 
L 1625 4666 
z
" transform="scale(0.015625)"/>
       <path id="DejaVuSans-Oblique-44" d="M 1081 4666 
L 2438 4666 
Q 3519 4666 4070 4208 
Q 4622 3750 4622 2847 
Q 4622 2250 4412 1698 
Q 4203 1147 3834 769 
Q 3463 381 2891 190 
Q 2319 0 1538 0 
L 172 0 
L 1081 4666 
z
M 1613 4147 
L 909 519 
L 1734 519 
Q 2794 519 3375 1128 
Q 3956 1738 3956 2847 
Q 3956 3519 3581 3833 
Q 3206 4147 2406 4147 
L 1613 4147 
z
" transform="scale(0.015625)"/>
       <path id="STIXGeneral-Regular-20" transform="scale(0.015625)"/>
       <path id="STIXGeneral-Regular-5b" d="M 1914 -998 
L 563 -998 
L 563 4237 
L 1914 4237 
L 1914 4077 
L 1382 4077 
Q 1216 4077 1133 4006 
Q 1050 3936 1050 3770 
L 1050 -493 
Q 1050 -838 1382 -838 
L 1914 -838 
L 1914 -998 
z
" transform="scale(0.015625)"/>
       <path id="STIXGeneral-Regular-2d" d="M 1824 1242 
L 250 1242 
L 250 1645 
L 1824 1645 
L 1824 1242 
z
" transform="scale(0.015625)"/>
       <path id="STIXGeneral-Regular-5d" d="M 1568 -998 
L 218 -998 
L 218 -838 
L 781 -838 
Q 947 -838 1014 -768 
Q 1082 -698 1082 -544 
L 1082 3731 
Q 1082 4077 755 4077 
L 218 4077 
L 218 4237 
L 1568 4237 
L 1568 -998 
z
" transform="scale(0.015625)"/>
      </defs>
      <use xlink:href="#DejaVuSans-Oblique-78" transform="translate(0 0.09375)"/>
      <use xlink:href="#DejaVuSans-2f" transform="translate(59.179688 0.09375)"/>
      <use xlink:href="#DejaVuSans-Oblique-44" transform="translate(92.871094 0.09375)"/>
      <use xlink:href="#STIXGeneral-Regular-20" transform="translate(169.873047 0.09375)"/>
      <use xlink:href="#STIXGeneral-Regular-5b" transform="translate(194.873032 0.09375)"/>
      <use xlink:href="#STIXGeneral-Regular-2d" transform="translate(228.173019 0.09375)"/>
      <use xlink:href="#STIXGeneral-Regular-5d" transform="translate(261.473007 0.09375)"/>
     </g>
    </g>
   </g>
   <g id="matplotlib.axis_2">
    <g id="ytick_1">
     <g id="line2d_13">
      <path d="M 39.45 238.146825 
L 520.632 238.146825 
" clip-path="url(#p1836175822)" style="fill: none; stroke-dasharray: 0.8,1.32; stroke-dashoffset: 0; stroke: #b0b0b0; stroke-width: 0.8"/>
     </g>
     <g id="line2d_14">
      <defs>
       <path id="mca1ead3f57" d="M 0 0 
L -3.5 0 
" style="stroke: #000000; stroke-width: 0.8"/>
      </defs>
      <g>
       <use xlink:href="#mca1ead3f57" x="39.45" y="238.146825" style="stroke: #000000; stroke-width: 0.8"/>
      </g>
     </g>
     <g id="text_8">
      <!-- −3 -->
      <g transform="translate(20.6 241.561669)scale(0.1 -0.1)">
       <defs>
        <path id="STIXGeneral-Regular-2212" d="M 3974 1408 
L 410 1408 
L 410 1830 
L 3974 1830 
L 3974 1408 
z
" transform="scale(0.015625)"/>
        <path id="STIXGeneral-Regular-33" d="M 390 3264 
L 288 3290 
Q 435 3770 748 4048 
Q 1062 4326 1542 4326 
Q 1990 4326 2265 4083 
Q 2541 3840 2541 3450 
Q 2541 2925 1946 2566 
Q 2298 2413 2477 2227 
Q 2758 1914 2758 1402 
Q 2758 890 2464 506 
Q 2246 211 1840 60 
Q 1434 -90 979 -90 
Q 262 -90 262 275 
Q 262 378 339 442 
Q 416 506 525 506 
Q 685 506 915 339 
Q 1197 141 1466 141 
Q 1818 141 2058 425 
Q 2298 710 2298 1120 
Q 2298 1856 1632 2048 
Q 1434 2112 979 2112 
L 979 2202 
Q 1338 2323 1517 2432 
Q 2035 2726 2035 3290 
Q 2035 3610 1852 3776 
Q 1670 3942 1344 3942 
Q 768 3942 390 3264 
z
" transform="scale(0.015625)"/>
       </defs>
       <use xlink:href="#STIXGeneral-Regular-2212"/>
       <use xlink:href="#STIXGeneral-Regular-33" x="68.499985"/>
      </g>
     </g>
    </g>
    <g id="ytick_2">
     <g id="line2d_15">
      <path d="M 39.45 202.141625 
L 520.632 202.141625 
" clip-path="url(#p1836175822)" style="fill: none; stroke-dasharray: 0.8,1.32; stroke-dashoffset: 0; stroke: #b0b0b0; stroke-width: 0.8"/>
     </g>
     <g id="line2d_16">
      <g>
       <use xlink:href="#mca1ead3f57" x="39.45" y="202.141625" style="stroke: #000000; stroke-width: 0.8"/>
      </g>
     </g>
     <g id="text_9">
      <!-- −2 -->
      <g transform="translate(20.6 205.556469)scale(0.1 -0.1)">
       <use xlink:href="#STIXGeneral-Regular-2212"/>
       <use xlink:href="#STIXGeneral-Regular-32" x="68.499985"/>
      </g>
     </g>
    </g>
    <g id="ytick_3">
     <g id="line2d_17">
      <path d="M 39.45 166.136425 
L 520.632 166.136425 
" clip-path="url(#p1836175822)" style="fill: none; stroke-dasharray: 0.8,1.32; stroke-dashoffset: 0; stroke: #b0b0b0; stroke-width: 0.8"/>
     </g>
     <g id="line2d_18">
      <g>
       <use xlink:href="#mca1ead3f57" x="39.45" y="166.136425" style="stroke: #000000; stroke-width: 0.8"/>
      </g>
     </g>
     <g id="text_10">
      <!-- −1 -->
      <g transform="translate(20.6 169.551269)scale(0.1 -0.1)">
       <use xlink:href="#STIXGeneral-Regular-2212"/>
       <use xlink:href="#STIXGeneral-Regular-31" x="68.499985"/>
      </g>
     </g>
    </g>
    <g id="ytick_4">
     <g id="line2d_19">
      <path d="M 39.45 130.131225 
L 520.632 130.131225 
" clip-path="url(#p1836175822)" style="fill: none; stroke-dasharray: 0.8,1.32; stroke-dashoffset: 0; stroke: #b0b0b0; stroke-width: 0.8"/>
     </g>
     <g id="line2d_20">
      <g>
       <use xlink:href="#mca1ead3f57" x="39.45" y="130.131225" style="stroke: #000000; stroke-width: 0.8"/>
      </g>
     </g>
     <g id="text_11">
      <!-- 0 -->
      <g transform="translate(27.45 133.546069)scale(0.1 -0.1)">
       <use xlink:href="#STIXGeneral-Regular-30"/>
      </g>
     </g>
    </g>
    <g id="ytick_5">
     <g id="line2d_21">
      <path d="M 39.45 94.126025 
L 520.632 94.126025 
" clip-path="url(#p1836175822)" style="fill: none; stroke-dasharray: 0.8,1.32; stroke-dashoffset: 0; stroke: #b0b0b0; stroke-width: 0.8"/>
     </g>
     <g id="line2d_22">
      <g>
       <use xlink:href="#mca1ead3f57" x="39.45" y="94.126025" style="stroke: #000000; stroke-width: 0.8"/>
      </g>
     </g>
     <g id="text_12">
      <!-- 1 -->
      <g transform="translate(27.45 97.540869)scale(0.1 -0.1)">
       <use xlink:href="#STIXGeneral-Regular-31"/>
      </g>
     </g>
    </g>
    <g id="ytick_6">
     <g id="line2d_23">
      <path d="M 39.45 58.120825 
L 520.632 58.120825 
" clip-path="url(#p1836175822)" style="fill: none; stroke-dasharray: 0.8,1.32; stroke-dashoffset: 0; stroke: #b0b0b0; stroke-width: 0.8"/>
     </g>
     <g id="line2d_24">
      <g>
       <use xlink:href="#mca1ead3f57" x="39.45" y="58.120825" style="stroke: #000000; stroke-width: 0.8"/>
      </g>
     </g>
     <g id="text_13">
      <!-- 2 -->
      <g transform="translate(27.45 61.535669)scale(0.1 -0.1)">
       <use xlink:href="#STIXGeneral-Regular-32"/>
      </g>
     </g>
    </g>
    <g id="ytick_7">
     <g id="line2d_25">
      <path d="M 39.45 22.115625 
L 520.632 22.115625 
" clip-path="url(#p1836175822)" style="fill: none; stroke-dasharray: 0.8,1.32; stroke-dashoffset: 0; stroke: #b0b0b0; stroke-width: 0.8"/>
     </g>
     <g id="line2d_26">
      <g>
       <use xlink:href="#mca1ead3f57" x="39.45" y="22.115625" style="stroke: #000000; stroke-width: 0.8"/>
      </g>
     </g>
     <g id="text_14">
      <!-- 3 -->
      <g transform="translate(27.45 25.530469)scale(0.1 -0.1)">
       <use xlink:href="#STIXGeneral-Regular-33"/>
      </g>
     </g>
    </g>
    <g id="text_15">
     <!-- $y/D$ [-] -->
     <g transform="translate(14.429687 144.881225)rotate(-90)scale(0.1 -0.1)">
      <defs>
       <path id="DejaVuSans-Oblique-79" d="M 1588 -325 
Q 1188 -997 936 -1164 
Q 684 -1331 294 -1331 
L -159 -1331 
L -63 -850 
L 269 -850 
Q 509 -850 678 -719 
Q 847 -588 1056 -206 
L 1234 128 
L 459 3500 
L 1069 3500 
L 1650 819 
L 3256 3500 
L 3859 3500 
L 1588 -325 
z
" transform="scale(0.015625)"/>
      </defs>
      <use xlink:href="#DejaVuSans-Oblique-79" transform="translate(0 0.09375)"/>
      <use xlink:href="#DejaVuSans-2f" transform="translate(59.179688 0.09375)"/>
      <use xlink:href="#DejaVuSans-Oblique-44" transform="translate(92.871094 0.09375)"/>
      <use xlink:href="#STIXGeneral-Regular-20" transform="translate(169.873047 0.09375)"/>
      <use xlink:href="#STIXGeneral-Regular-5b" transform="translate(194.873032 0.09375)"/>
      <use xlink:href="#STIXGeneral-Regular-2d" transform="translate(228.173019 0.09375)"/>
      <use xlink:href="#STIXGeneral-Regular-5d" transform="translate(261.473007 0.09375)"/>
     </g>
    </g>
   </g>
   <g id="line2d_27">
    <path d="M 39.45 130.131225 
L 520.632 130.131225 
" clip-path="url(#p1836175822)" style="fill: none; stroke-dasharray: 2,3.3; stroke-dashoffset: 0; stroke: #000000; stroke-width: 2"/>
   </g>
   <g id="line2d_28">
    <path d="M 103.6076 124.885171 
L 107.819968 124.324609 
L 112.032335 123.817677 
L 116.244703 123.362736 
L 120.457071 122.953639 
L 124.669438 122.587918 
L 128.881806 122.262063 
L 133.094174 121.970639 
L 137.306541 121.709755 
L 141.518909 121.475602 
L 145.731277 121.264733 
L 149.943644 121.074023 
L 154.156012 120.900712 
L 158.36838 120.742239 
L 162.580747 120.596347 
L 166.793115 120.461114 
L 171.005483 120.335111 
L 175.217851 120.216247 
L 179.430218 120.103192 
L 183.642586 119.994787 
L 187.854954 119.890034 
L 192.067321 119.78809 
L 196.279689 119.688246 
L 200.492057 119.58992 
L 204.704424 119.492632 
L 208.916792 119.396048 
L 213.12916 119.299941 
L 217.341527 119.203912 
L 221.553895 119.107779 
L 225.766263 119.011407 
L 229.97863 118.914692 
L 234.190998 118.817571 
L 238.403366 118.719982 
L 242.615733 118.621902 
L 246.828101 118.523311 
L 251.040469 118.424243 
L 255.252836 118.325071 
L 259.465204 118.225744 
L 263.677572 118.126043 
L 267.889939 118.025989 
L 272.102307 117.925599 
L 276.314675 117.824899 
L 280.527042 117.723908 
L 284.73941 117.622643 
L 288.951778 117.52112 
L 293.164145 117.419399 
L 297.376513 117.317497 
L 301.588881 117.21537 
L 305.801248 117.113031 
L 310.013616 117.010498 
L 314.225984 116.907778 
L 318.438352 116.804875 
L 322.650719 116.701798 
L 326.863087 116.598555 
L 331.075455 116.495145 
L 335.287822 116.391621 
L 339.50019 116.287966 
L 343.712558 116.184424 
L 347.924925 116.081707 
L 352.137293 115.978935 
L 356.349661 115.876093 
L 360.562028 115.773181 
L 364.774396 115.670181 
L 368.986764 115.567084 
L 373.199131 115.463805 
L 377.411499 115.362558 
L 381.623867 115.260428 
L 385.836234 115.15753 
L 390.048602 115.054919 
L 394.26097 114.952103 
L 398.473337 114.849567 
L 402.685705 114.74709 
L 406.898073 114.644108 
L 411.11044 114.541392 
L 415.322808 114.438774 
L 419.535176 114.335705 
L 423.747543 114.233075 
L 427.959911 114.130306 
L 432.172279 114.026675 
L 436.384646 113.924861 
L 440.597014 113.821063 
L 444.809382 113.718266 
L 449.021749 113.616181 
L 453.234117 113.512193 
L 457.446485 113.409452 
L 461.658853 113.309131 
L 465.87122 113.207044 
L 470.083588 113.103163 
L 474.295956 113.002848 
L 478.508323 112.902298 
L 482.720691 112.800063 
L 486.933059 112.696122 
L 491.145426 112.595166 
L 495.357794 112.495294 
L 499.570162 112.393834 
L 503.782529 112.290766 
L 507.994897 112.186067 
L 512.207265 112.086834 
L 516.419632 111.986991 
L 520.632 111.885647 
" clip-path="url(#p1836175822)" style="fill: none; stroke: #1f77b4; stroke-width: 2; stroke-linecap: square"/>
   </g>
   <g id="line2d_29">
    <path d="M 103.6076 137.372237 
L 107.819968 137.27053 
L 112.032335 136.999434 
L 116.244703 136.662657 
L 120.457071 136.311299 
L 124.669438 135.9698 
L 128.881806 135.649723 
L 133.094174 135.353588 
L 137.306541 135.081 
L 141.518909 134.830016 
L 145.731277 134.598246 
L 149.943644 134.383408 
L 154.156012 134.183522 
L 158.36838 133.996898 
L 162.580747 133.822053 
L 166.793115 133.657721 
L 171.005483 133.50314 
L 175.217851 133.356285 
L 179.430218 133.215935 
L 183.642586 133.080912 
L 187.854954 132.949917 
L 192.067321 132.822066 
L 196.279689 132.69638 
L 200.492057 132.572236 
L 204.704424 132.448954 
L 208.916792 132.326104 
L 213.12916 132.203415 
L 217.341527 132.080334 
L 221.553895 131.956637 
L 225.766263 131.832168 
L 229.97863 131.706813 
L 234.190998 131.580501 
L 238.403366 131.453285 
L 242.615733 131.324971 
L 246.828101 131.195683 
L 251.040469 131.065541 
L 255.252836 130.93467 
L 259.465204 130.803074 
L 263.677572 130.670876 
L 267.889939 130.538259 
L 272.102307 130.405216 
L 276.314675 130.271937 
L 280.527042 130.138485 
L 284.73941 130.005258 
L 288.951778 129.872092 
L 293.164145 129.739271 
L 297.376513 129.606931 
L 301.588881 129.475231 
L 305.801248 129.344117 
L 310.013616 129.213755 
L 314.225984 129.0843 
L 318.438352 128.955859 
L 322.650719 128.828532 
L 326.863087 128.702415 
L 331.075455 128.577599 
L 335.287822 128.454232 
L 339.50019 128.332397 
L 343.712558 128.212143 
L 347.924925 128.093581 
L 352.137293 127.97691 
L 356.349661 127.862148 
L 360.562028 127.749558 
L 364.774396 127.63939 
L 368.986764 127.531759 
L 373.199131 127.425875 
L 377.411499 127.327006 
L 381.623867 127.221942 
L 385.836234 127.118548 
L 390.048602 127.017017 
L 394.26097 126.916548 
L 398.473337 126.817967 
L 402.685705 126.720897 
L 406.898073 126.624521 
L 411.11044 126.529925 
L 415.322808 126.436846 
L 419.535176 126.344504 
L 423.747543 126.254104 
L 427.959911 126.164831 
L 432.172279 126.075653 
L 436.384646 125.990196 
L 440.597014 125.903305 
L 444.809382 125.818916 
L 449.021749 125.736637 
L 453.234117 125.65303 
L 457.446485 125.571231 
L 461.658853 125.492902 
L 465.87122 125.413365 
L 470.083588 125.332642 
L 474.295956 125.257151 
L 478.508323 125.182312 
L 482.720691 125.106372 
L 486.933059 125.029308 
L 491.145426 124.956543 
L 495.357794 124.885874 
L 499.570162 124.814217 
L 503.782529 124.741555 
L 507.994897 124.667869 
L 512.207265 124.600946 
L 516.419632 124.534112 
L 520.632 124.466395 
" clip-path="url(#p1836175822)" style="fill: none; stroke: #ff7f0e; stroke-width: 2; stroke-linecap: square"/>
   </g>
   <g id="line2d_30">
    <path d="M 103.6076 113.994788 
L 107.819968 113.356193 
L 112.032335 112.734456 
L 116.244703 112.130036 
L 120.457071 111.535851 
L 124.669438 110.953926 
L 128.881806 110.383596 
L 133.094174 109.824098 
L 137.306541 109.275884 
L 141.518909 108.739169 
L 145.731277 108.214198 
L 149.943644 107.701123 
L 154.156012 107.199973 
L 158.36838 106.710679 
L 162.580747 106.232913 
L 166.793115 105.766436 
L 171.005483 105.311438 
L 175.217851 104.8664 
L 179.430218 104.43069 
L 183.642586 104.003729 
L 187.854954 103.58489 
L 192.067321 103.173643 
L 196.279689 102.769471 
L 200.492057 102.371929 
L 204.704424 101.980566 
L 208.916792 101.595258 
L 213.12916 101.215813 
L 217.341527 100.841597 
L 221.553895 100.472387 
L 225.766263 100.107907 
L 229.97863 99.748033 
L 234.190998 99.392644 
L 238.403366 99.041576 
L 242.615733 98.694705 
L 246.828101 98.351949 
L 251.040469 98.013357 
L 255.252836 97.678929 
L 259.465204 97.348409 
L 263.677572 97.021667 
L 267.889939 96.698607 
L 272.102307 96.379175 
L 276.314675 96.063296 
L 280.527042 95.750917 
L 284.73941 95.441975 
L 288.951778 95.13638 
L 293.164145 94.834216 
L 297.376513 94.535379 
L 301.588881 94.239699 
L 305.801248 93.947108 
L 310.013616 93.657552 
L 314.225984 93.370911 
L 318.438352 93.087229 
L 322.650719 92.806344 
L 326.863087 92.528261 
L 331.075455 92.25284 
L 335.287822 91.980164 
L 339.50019 91.710173 
L 343.712558 91.442795 
L 347.924925 91.178077 
L 352.137293 90.915775 
L 356.349661 90.655804 
L 360.562028 90.39816 
L 364.774396 90.142734 
L 368.986764 89.889399 
L 373.199131 89.637754 
L 377.411499 89.392899 
L 381.623867 89.147813 
L 385.836234 88.902812 
L 390.048602 88.660233 
L 394.26097 88.418925 
L 398.473337 88.180129 
L 402.685705 87.943093 
L 406.898073 87.706505 
L 411.11044 87.472162 
L 415.322808 87.239598 
L 419.535176 87.007518 
L 423.747543 86.777932 
L 427.959911 86.549475 
L 432.172279 86.320475 
L 436.384646 86.096866 
L 440.597014 85.870181 
L 444.809382 85.647014 
L 449.021749 85.426673 
L 453.234117 85.203428 
L 457.446485 84.982744 
L 461.658853 84.767348 
L 465.87122 84.54925 
L 470.083588 84.328432 
L 474.295956 84.116125 
L 478.508323 83.904299 
L 482.720691 83.689949 
L 486.933059 83.473057 
L 491.145426 83.263219 
L 495.357794 83.056476 
L 499.570162 82.847391 
L 503.782529 82.63595 
L 507.994897 82.422141 
L 512.207265 82.220046 
L 516.419632 82.017527 
L 520.632 81.812839 
" clip-path="url(#p1836175822)" style="fill: none; stroke-dasharray: 7.4,3.2; stroke-dashoffset: 0; stroke: #1f77b4; stroke-width: 2"/>
   </g>
   <g id="line2d_31">
    <path d="M 103.6076 135.775554 
L 107.819968 135.293026 
L 112.032335 134.900898 
L 116.244703 134.595435 
L 120.457071 134.371427 
L 124.669438 134.221909 
L 128.881806 134.140529 
L 133.094174 134.11718 
L 137.306541 134.143626 
L 141.518909 134.212035 
L 145.731277 134.315269 
L 149.943644 134.446923 
L 154.156012 134.601451 
L 158.36838 134.773799 
L 162.580747 134.959781 
L 166.793115 135.155793 
L 171.005483 135.358784 
L 175.217851 135.566094 
L 179.430218 135.775694 
L 183.642586 135.985845 
L 187.854954 136.195178 
L 192.067321 136.402536 
L 196.279689 136.607022 
L 200.492057 136.807912 
L 204.704424 137.004698 
L 208.916792 137.196837 
L 213.12916 137.384069 
L 217.341527 137.566227 
L 221.553895 137.74317 
L 225.766263 137.914907 
L 229.97863 138.08135 
L 234.190998 138.242498 
L 238.403366 138.398388 
L 242.615733 138.549099 
L 246.828101 138.694673 
L 251.040469 138.835129 
L 255.252836 138.971213 
L 259.465204 139.103078 
L 263.677572 139.230418 
L 267.889939 139.35337 
L 272.102307 139.472023 
L 276.314675 139.586501 
L 280.527042 139.696898 
L 284.73941 139.803311 
L 288.951778 139.905861 
L 293.164145 140.004582 
L 297.376513 140.099615 
L 301.588881 140.191041 
L 305.801248 140.278954 
L 310.013616 140.363444 
L 314.225984 140.444644 
L 318.438352 140.52252 
L 322.650719 140.597251 
L 326.863087 140.66885 
L 331.075455 140.737451 
L 335.287822 140.803078 
L 339.50019 140.86576 
L 343.712558 140.926052 
L 347.924925 140.985337 
L 352.137293 141.042094 
L 356.349661 141.096382 
L 360.562028 141.148203 
L 364.774396 141.197627 
L 368.986764 141.244768 
L 373.199131 141.289857 
L 377.411499 141.332216 
L 381.623867 141.373042 
L 385.836234 141.412248 
L 390.048602 141.449604 
L 394.26097 141.485281 
L 398.473337 141.519006 
L 402.685705 141.551086 
L 406.898073 141.581711 
L 411.11044 141.610623 
L 415.322808 141.637949 
L 419.535176 141.663891 
L 423.747543 141.688219 
L 427.959911 141.711137 
L 432.172279 141.732875 
L 436.384646 141.752856 
L 440.597014 141.771945 
L 444.809382 141.789518 
L 449.021749 141.80569 
L 453.234117 141.820957 
L 457.446485 141.83616 
L 461.658853 141.850915 
L 465.87122 141.864838 
L 470.083588 141.877894 
L 474.295956 141.889571 
L 478.508323 141.900296 
L 482.720691 141.910178 
L 486.933059 141.919186 
L 491.145426 141.927112 
L 495.357794 141.934111 
L 499.570162 141.940277 
L 503.782529 141.945581 
L 507.994897 141.949993 
L 512.207265 141.953622 
L 516.419632 141.956455 
L 520.632 141.958455 
" clip-path="url(#p1836175822)" style="fill: none; stroke-dasharray: 7.4,3.2; stroke-dashoffset: 0; stroke: #1f77b4; stroke-width: 2"/>
   </g>
   <g id="line2d_32">
    <path d="M 103.6076 108.556074 
L 107.819968 109.290475 
L 112.032335 109.448293 
L 116.244703 109.228694 
L 120.457071 108.744615 
L 124.669438 108.062996 
L 128.881806 107.225414 
L 133.094174 106.264701 
L 137.306541 105.201743 
L 141.518909 104.05269 
L 145.731277 102.830735 
L 149.943644 101.547118 
L 154.156012 100.211637 
L 158.36838 98.832936 
L 162.580747 97.418734 
L 166.793115 95.976121 
L 171.005483 94.514273 
L 175.217851 93.036202 
L 179.430218 91.548183 
L 183.642586 90.056124 
L 187.854954 88.563433 
L 192.067321 87.076979 
L 196.279689 85.601 
L 200.492057 84.141223 
L 204.704424 82.701661 
L 208.916792 81.286737 
L 213.12916 79.900711 
L 217.341527 78.544202 
L 221.553895 77.219014 
L 225.766263 75.926334 
L 229.97863 74.666796 
L 234.190998 73.440595 
L 238.403366 72.248047 
L 242.615733 71.087729 
L 246.828101 69.959499 
L 251.040469 68.863143 
L 255.252836 67.798156 
L 259.465204 66.762651 
L 263.677572 65.75569 
L 267.889939 64.776655 
L 272.102307 63.823837 
L 276.314675 62.896677 
L 280.527042 61.994166 
L 284.73941 61.115661 
L 288.951778 60.259957 
L 293.164145 59.42668 
L 297.376513 58.615004 
L 301.588881 57.823968 
L 305.801248 57.052141 
L 310.013616 56.298921 
L 314.225984 55.563694 
L 318.438352 54.845783 
L 322.650719 54.14453 
L 326.863087 53.4593 
L 331.075455 52.789493 
L 335.287822 52.134856 
L 339.50019 51.494771 
L 343.712558 50.868473 
L 347.924925 50.25551 
L 352.137293 49.655758 
L 356.349661 49.068248 
L 360.562028 48.492994 
L 364.774396 47.929788 
L 368.986764 47.378516 
L 373.199131 46.835612 
L 377.411499 46.315062 
L 381.623867 45.790701 
L 385.836234 45.275154 
L 390.048602 44.769747 
L 394.26097 44.271652 
L 398.473337 43.783798 
L 402.685705 43.304375 
L 406.898073 42.829769 
L 411.11044 42.364377 
L 415.322808 41.906891 
L 419.535176 41.45399 
L 423.747543 41.010463 
L 427.959911 40.572872 
L 432.172279 40.137011 
L 436.384646 39.717396 
L 440.597014 39.293215 
L 444.809382 38.880289 
L 449.021749 38.476898 
L 453.234117 38.069272 
L 457.446485 37.670038 
L 461.658853 37.285708 
L 465.87122 36.897501 
L 470.083588 36.505566 
L 474.295956 36.13571 
L 478.508323 35.769342 
L 482.720691 35.39943 
L 486.933059 35.025931 
L 491.145426 34.670827 
L 495.357794 34.325006 
L 499.570162 33.975994 
L 503.782529 33.623752 
L 507.994897 33.268241 
L 512.207265 32.941029 
L 516.419632 32.614874 
L 520.632 32.285851 
" clip-path="url(#p1836175822)" style="fill: none; stroke-dasharray: 7.4,3.2; stroke-dashoffset: 0; stroke: #ff7f0e; stroke-width: 2"/>
   </g>
   <g id="line2d_33">
    <path d="M 103.6076 166.1884 
L 107.819968 165.250585 
L 112.032335 164.550575 
L 116.244703 164.096621 
L 120.457071 163.877983 
L 124.669438 163.876604 
L 128.881806 164.074031 
L 133.094174 164.442475 
L 137.306541 164.960256 
L 141.518909 165.607342 
L 145.731277 166.365757 
L 149.943644 167.219698 
L 154.156012 168.155407 
L 158.36838 169.16086 
L 162.580747 170.225372 
L 166.793115 171.33932 
L 171.005483 172.492007 
L 175.217851 173.676367 
L 179.430218 174.883687 
L 183.642586 176.1057 
L 187.854954 177.336401 
L 192.067321 178.567153 
L 196.279689 179.791761 
L 200.492057 181.003249 
L 204.704424 182.196247 
L 208.916792 183.365471 
L 213.12916 184.506119 
L 217.341527 185.616466 
L 221.553895 186.69426 
L 225.766263 187.738002 
L 229.97863 188.74683 
L 234.190998 189.720408 
L 238.403366 190.658522 
L 242.615733 191.562212 
L 246.828101 192.431866 
L 251.040469 193.267939 
L 255.252836 194.071183 
L 259.465204 194.843497 
L 263.677572 195.586063 
L 267.889939 196.299863 
L 272.102307 196.986595 
L 276.314675 197.647197 
L 280.527042 198.282805 
L 284.73941 198.894856 
L 288.951778 199.484227 
L 293.164145 200.051863 
L 297.376513 200.598857 
L 301.588881 201.126495 
L 305.801248 201.636093 
L 310.013616 202.128589 
L 314.225984 202.604907 
L 318.438352 203.065934 
L 322.650719 203.512533 
L 326.863087 203.94553 
L 331.075455 204.365705 
L 335.287822 204.773608 
L 339.50019 205.170024 
L 343.712558 205.555812 
L 347.924925 205.931652 
L 352.137293 206.298063 
L 356.349661 206.656048 
L 360.562028 207.006123 
L 364.774396 207.348991 
L 368.986764 207.685002 
L 373.199131 208.016137 
L 377.411499 208.338951 
L 381.623867 208.653184 
L 385.836234 208.961942 
L 390.048602 209.264288 
L 394.26097 209.561444 
L 398.473337 209.852137 
L 402.685705 210.137419 
L 406.898073 210.419273 
L 411.11044 210.695473 
L 415.322808 210.966801 
L 419.535176 211.235018 
L 423.747543 211.497746 
L 427.959911 211.756791 
L 432.172279 212.014294 
L 436.384646 212.262996 
L 440.597014 212.513395 
L 444.809382 212.757542 
L 449.021749 212.996375 
L 453.234117 213.236788 
L 457.446485 213.472425 
L 461.658853 213.700096 
L 465.87122 213.929228 
L 470.083588 214.159718 
L 474.295956 214.378592 
L 478.508323 214.595282 
L 482.720691 214.813313 
L 486.933059 215.032685 
L 491.145426 215.24226 
L 495.357794 215.446741 
L 499.570162 215.65244 
L 503.782529 215.859358 
L 507.994897 216.067497 
L 512.207265 216.260862 
L 516.419632 216.453351 
L 520.632 216.646939 
" clip-path="url(#p1836175822)" style="fill: none; stroke-dasharray: 7.4,3.2; stroke-dashoffset: 0; stroke: #ff7f0e; stroke-width: 2"/>
   </g>
   <g id="line2d_34">
    <path d="M 58.232299 113.214315 
L 52.746501 147.048135 
" clip-path="url(#p1836175822)" style="fill: none; stroke: #000000; stroke-width: 2; stroke-linecap: square"/>
   </g>
   <g id="patch_3">
    <path d="M 39.45 238.146825 
L 39.45 22.115625 
" style="fill: none; stroke: #000000; stroke-width: 0.8; stroke-linejoin: miter; stroke-linecap: square"/>
   </g>
   <g id="patch_4">
    <path d="M 520.632 238.146825 
L 520.632 22.115625 
" style="fill: none; stroke: #000000; stroke-width: 0.8; stroke-linejoin: miter; stroke-linecap: square"/>
   </g>
   <g id="patch_5">
    <path d="M 39.45 238.146825 
L 520.632 238.146825 
" style="fill: none; stroke: #000000; stroke-width: 0.8; stroke-linejoin: miter; stroke-linecap: square"/>
   </g>
   <g id="patch_6">
    <path d="M 39.45 22.115625 
L 520.632 22.115625 
" style="fill: none; stroke: #000000; stroke-width: 0.8; stroke-linejoin: miter; stroke-linecap: square"/>
   </g>
   <g id="text_16">
    <!-- $\gamma = 20^\circ$, $C_T = 0.8$, T.I.$= 4\%$ -->
    <g transform="translate(201.741 16.115625)scale(0.12 -0.12)">
     <defs>
      <path id="DejaVuSans-Oblique-3b3" d="M 1491 2950 
L 1838 788 
L 3456 3500 
L 4066 3500 
L 1972 0 
L 1713 -1331 
L 1138 -1331 
L 1397 0 
L 988 2613 
Q 925 3006 628 3006 
L 475 3006 
L 569 3500 
L 788 3500 
Q 1403 3500 1491 2950 
z
" transform="scale(0.015625)"/>
      <path id="DejaVuSans-3d" d="M 678 2906 
L 4684 2906 
L 4684 2381 
L 678 2381 
L 678 2906 
z
M 678 1631 
L 4684 1631 
L 4684 1100 
L 678 1100 
L 678 1631 
z
" transform="scale(0.015625)"/>
      <path id="DejaVuSans-32" d="M 1228 531 
L 3431 531 
L 3431 0 
L 469 0 
L 469 531 
Q 828 903 1448 1529 
Q 2069 2156 2228 2338 
Q 2531 2678 2651 2914 
Q 2772 3150 2772 3378 
Q 2772 3750 2511 3984 
Q 2250 4219 1831 4219 
Q 1534 4219 1204 4116 
Q 875 4013 500 3803 
L 500 4441 
Q 881 4594 1212 4672 
Q 1544 4750 1819 4750 
Q 2544 4750 2975 4387 
Q 3406 4025 3406 3419 
Q 3406 3131 3298 2873 
Q 3191 2616 2906 2266 
Q 2828 2175 2409 1742 
Q 1991 1309 1228 531 
z
" transform="scale(0.015625)"/>
      <path id="DejaVuSans-30" d="M 2034 4250 
Q 1547 4250 1301 3770 
Q 1056 3291 1056 2328 
Q 1056 1369 1301 889 
Q 1547 409 2034 409 
Q 2525 409 2770 889 
Q 3016 1369 3016 2328 
Q 3016 3291 2770 3770 
Q 2525 4250 2034 4250 
z
M 2034 4750 
Q 2819 4750 3233 4129 
Q 3647 3509 3647 2328 
Q 3647 1150 3233 529 
Q 2819 -91 2034 -91 
Q 1250 -91 836 529 
Q 422 1150 422 2328 
Q 422 3509 836 4129 
Q 1250 4750 2034 4750 
z
" transform="scale(0.015625)"/>
      <path id="DejaVuSans-2218" d="M 2003 2603 
Q 1753 2603 1581 2429 
Q 1409 2256 1409 2006 
Q 1409 1759 1581 1589 
Q 1753 1419 2003 1419 
Q 2253 1419 2425 1589 
Q 2597 1759 2597 2006 
Q 2597 2253 2423 2428 
Q 2250 2603 2003 2603 
z
M 2003 3006 
Q 2203 3006 2387 2929 
Q 2572 2853 2706 2709 
Q 2850 2569 2922 2390 
Q 2994 2212 2994 2006 
Q 2994 1594 2705 1308 
Q 2416 1022 1997 1022 
Q 1575 1022 1294 1303 
Q 1013 1584 1013 2006 
Q 1013 2425 1300 2715 
Q 1588 3006 2003 3006 
z
" transform="scale(0.015625)"/>
      <path id="STIXGeneral-Regular-2c" d="M 531 -902 
L 467 -781 
Q 998 -422 998 -96 
Q 998 -13 909 -13 
Q 883 -13 822 -25 
Q 762 -38 723 -38 
Q 352 -38 352 288 
Q 352 454 457 553 
Q 563 653 736 653 
Q 954 653 1101 496 
Q 1248 339 1248 96 
Q 1248 -198 1053 -473 
Q 858 -749 531 -902 
z
" transform="scale(0.015625)"/>
      <path id="DejaVuSans-Oblique-43" d="M 4447 4306 
L 4319 3641 
Q 4019 3944 3683 4091 
Q 3347 4238 2956 4238 
Q 2422 4238 2017 3981 
Q 1613 3725 1319 3200 
Q 1131 2863 1032 2486 
Q 934 2109 934 1728 
Q 934 1091 1264 756 
Q 1594 422 2222 422 
Q 2656 422 3056 561 
Q 3456 700 3834 978 
L 3688 231 
Q 3316 72 2936 -9 
Q 2556 -91 2175 -91 
Q 1278 -91 773 396 
Q 269 884 269 1753 
Q 269 2309 461 2846 
Q 653 3384 1013 3828 
Q 1394 4300 1883 4525 
Q 2372 4750 3022 4750 
Q 3422 4750 3780 4639 
Q 4138 4528 4447 4306 
z
" transform="scale(0.015625)"/>
      <path id="DejaVuSans-Oblique-54" d="M 378 4666 
L 4325 4666 
L 4225 4134 
L 2559 4134 
L 1759 0 
L 1125 0 
L 1925 4134 
L 275 4134 
L 378 4666 
z
" transform="scale(0.015625)"/>
      <path id="DejaVuSans-2e" d="M 684 794 
L 1344 794 
L 1344 0 
L 684 0 
L 684 794 
z
" transform="scale(0.015625)"/>
      <path id="DejaVuSans-38" d="M 2034 2216 
Q 1584 2216 1326 1975 
Q 1069 1734 1069 1313 
Q 1069 891 1326 650 
Q 1584 409 2034 409 
Q 2484 409 2743 651 
Q 3003 894 3003 1313 
Q 3003 1734 2745 1975 
Q 2488 2216 2034 2216 
z
M 1403 2484 
Q 997 2584 770 2862 
Q 544 3141 544 3541 
Q 544 4100 942 4425 
Q 1341 4750 2034 4750 
Q 2731 4750 3128 4425 
Q 3525 4100 3525 3541 
Q 3525 3141 3298 2862 
Q 3072 2584 2669 2484 
Q 3125 2378 3379 2068 
Q 3634 1759 3634 1313 
Q 3634 634 3220 271 
Q 2806 -91 2034 -91 
Q 1263 -91 848 271 
Q 434 634 434 1313 
Q 434 1759 690 2068 
Q 947 2378 1403 2484 
z
M 1172 3481 
Q 1172 3119 1398 2916 
Q 1625 2713 2034 2713 
Q 2441 2713 2670 2916 
Q 2900 3119 2900 3481 
Q 2900 3844 2670 4047 
Q 2441 4250 2034 4250 
Q 1625 4250 1398 4047 
Q 1172 3844 1172 3481 
z
" transform="scale(0.015625)"/>
      <path id="STIXGeneral-Regular-54" d="M 3795 3149 
L 3642 3149 
Q 3539 3674 3353 3821 
Q 3168 3968 2656 3968 
L 2278 3968 
L 2278 710 
Q 2278 346 2387 243 
Q 2496 141 2893 122 
L 2893 0 
L 1024 0 
L 1024 122 
Q 1427 147 1526 256 
Q 1626 365 1626 787 
L 1626 3968 
L 1242 3968 
Q 723 3968 540 3817 
Q 358 3667 262 3149 
L 109 3149 
L 154 4237 
L 3750 4237 
L 3795 3149 
z
" transform="scale(0.015625)"/>
      <path id="STIXGeneral-Regular-2e" d="M 1158 275 
Q 1158 134 1052 32 
Q 947 -70 800 -70 
Q 653 -70 550 32 
Q 448 134 448 281 
Q 448 429 553 534 
Q 659 640 806 640 
Q 947 640 1052 531 
Q 1158 422 1158 275 
z
" transform="scale(0.015625)"/>
      <path id="STIXGeneral-Regular-49" d="M 2016 0 
L 115 0 
L 115 122 
Q 518 134 627 240 
Q 736 346 736 717 
L 736 3526 
Q 736 3898 633 3994 
Q 531 4090 115 4115 
L 115 4237 
L 2016 4237 
L 2016 4115 
Q 1613 4096 1501 3993 
Q 1389 3891 1389 3526 
L 1389 717 
Q 1389 358 1504 246 
Q 1619 134 2016 122 
L 2016 0 
z
" transform="scale(0.015625)"/>
      <path id="DejaVuSans-34" d="M 2419 4116 
L 825 1625 
L 2419 1625 
L 2419 4116 
z
M 2253 4666 
L 3047 4666 
L 3047 1625 
L 3713 1625 
L 3713 1100 
L 3047 1100 
L 3047 0 
L 2419 0 
L 2419 1100 
L 313 1100 
L 313 1709 
L 2253 4666 
z
" transform="scale(0.015625)"/>
      <path id="DejaVuSans-25" d="M 4653 2053 
Q 4381 2053 4226 1822 
Q 4072 1591 4072 1178 
Q 4072 772 4226 539 
Q 4381 306 4653 306 
Q 4919 306 5073 539 
Q 5228 772 5228 1178 
Q 5228 1588 5073 1820 
Q 4919 2053 4653 2053 
z
M 4653 2450 
Q 5147 2450 5437 2106 
Q 5728 1763 5728 1178 
Q 5728 594 5436 251 
Q 5144 -91 4653 -91 
Q 4153 -91 3862 251 
Q 3572 594 3572 1178 
Q 3572 1766 3864 2108 
Q 4156 2450 4653 2450 
z
M 1428 4353 
Q 1159 4353 1004 4120 
Q 850 3888 850 3481 
Q 850 3069 1003 2837 
Q 1156 2606 1428 2606 
Q 1700 2606 1854 2837 
Q 2009 3069 2009 3481 
Q 2009 3884 1853 4118 
Q 1697 4353 1428 4353 
z
M 4250 4750 
L 4750 4750 
L 1831 -91 
L 1331 -91 
L 4250 4750 
z
M 1428 4750 
Q 1922 4750 2215 4408 
Q 2509 4066 2509 3481 
Q 2509 2891 2217 2550 
Q 1925 2209 1428 2209 
Q 931 2209 642 2551 
Q 353 2894 353 3481 
Q 353 4063 643 4406 
Q 934 4750 1428 4750 
z
" transform="scale(0.015625)"/>
     </defs>
     <use xlink:href="#DejaVuSans-Oblique-3b3" transform="translate(0 0.78125)"/>
     <use xlink:href="#DejaVuSans-3d" transform="translate(78.662109 0.78125)"/>
     <use xlink:href="#DejaVuSans-32" transform="translate(181.933594 0.78125)"/>
     <use xlink:href="#DejaVuSans-30" transform="translate(245.556641 0.78125)"/>
     <use xlink:href="#DejaVuSans-2218" transform="translate(323.774414 39.0625)scale(0.7)"/>
     <use xlink:href="#STIXGeneral-Regular-2c" transform="translate(383.964844 0.78125)"/>
     <use xlink:href="#STIXGeneral-Regular-20" transform="translate(408.964828 0.78125)"/>
     <use xlink:href="#DejaVuSans-Oblique-43" transform="translate(433.964813 0.78125)"/>
     <use xlink:href="#DejaVuSans-Oblique-54" transform="translate(503.789032 -15.625)scale(0.7)"/>
     <use xlink:href="#DejaVuSans-3d" transform="translate(568.764618 0.78125)"/>
     <use xlink:href="#DejaVuSans-30" transform="translate(672.036102 0.78125)"/>
     <use xlink:href="#DejaVuSans-2e" transform="translate(735.659149 0.78125)"/>
     <use xlink:href="#DejaVuSans-38" transform="translate(764.821259 0.78125)"/>
     <use xlink:href="#STIXGeneral-Regular-2c" transform="translate(828.444305 0.78125)"/>
     <use xlink:href="#STIXGeneral-Regular-20" transform="translate(853.44429 0.78125)"/>
     <use xlink:href="#STIXGeneral-Regular-54" transform="translate(878.444275 0.78125)"/>
     <use xlink:href="#STIXGeneral-Regular-2e" transform="translate(939.544266 0.78125)"/>
     <use xlink:href="#STIXGeneral-Regular-49" transform="translate(964.54425 0.78125)"/>
     <use xlink:href="#STIXGeneral-Regular-2e" transform="translate(997.844238 0.78125)"/>
     <use xlink:href="#DejaVuSans-3d" transform="translate(1042.326645 0.78125)"/>
     <use xlink:href="#DejaVuSans-34" transform="translate(1145.598129 0.78125)"/>
     <use xlink:href="#DejaVuSans-25" transform="translate(1209.221176 0.78125)"/>
    </g>
   </g>
   <g id="legend_1">
    <g id="patch_7">
     <path d="M 46.45 58.45625 
L 85.85 58.45625 
Q 87.85 58.45625 87.85 56.45625 
L 87.85 29.115625 
Q 87.85 27.115625 85.85 27.115625 
L 46.45 27.115625 
Q 44.45 27.115625 44.45 29.115625 
L 44.45 56.45625 
Q 44.45 58.45625 46.45 58.45625 
z
" style="fill: #ffffff; opacity: 0.8; stroke: #cccccc; stroke-linejoin: miter"/>
    </g>
    <g id="line2d_35">
     <path d="M 48.45 34.615625 
L 58.45 34.615625 
L 68.45 34.615625 
" style="fill: none; stroke: #1f77b4; stroke-width: 2; stroke-linecap: square"/>
    </g>
    <g id="text_17">
     <!-- $U$ -->
     <g transform="translate(76.45 38.115625)scale(0.1 -0.1)">
      <defs>
       <path id="DejaVuSans-Oblique-55" d="M 991 4666 
L 1625 4666 
L 1075 1831 
Q 1041 1641 1027 1517 
Q 1013 1394 1013 1300 
Q 1013 869 1253 645 
Q 1494 422 1959 422 
Q 2563 422 2898 753 
Q 3234 1084 3378 1831 
L 3928 4666 
L 4563 4666 
L 4000 1753 
Q 3816 809 3300 359 
Q 2784 -91 1888 -91 
Q 1188 -91 780 261 
Q 372 613 372 1216 
Q 372 1325 387 1461 
Q 403 1597 434 1753 
L 991 4666 
z
" transform="scale(0.015625)"/>
      </defs>
      <use xlink:href="#DejaVuSans-Oblique-55" transform="translate(0 0.09375)"/>
     </g>
    </g>
    <g id="line2d_36">
     <path d="M 48.45 48.785937 
L 58.45 48.785937 
L 68.45 48.785937 
" style="fill: none; stroke: #ff7f0e; stroke-width: 2; stroke-linecap: square"/>
    </g>
    <g id="text_18">
     <!-- $V$ -->
     <g transform="translate(76.45 52.285937)scale(0.1 -0.1)">
      <defs>
       <path id="DejaVuSans-Oblique-56" d="M 1319 0 
L 500 4666 
L 1119 4666 
L 1797 653 
L 4063 4666 
L 4750 4666 
L 2053 0 
L 1319 0 
z
" transform="scale(0.015625)"/>
      </defs>
      <use xlink:href="#DejaVuSans-Oblique-56" transform="translate(0 0.09375)"/>
     </g>
    </g>
   </g>
   <g id="legend_2">
    <g id="patch_8">
     <path d="M 46.45 233.146825 
L 120.110938 233.146825 
Q 122.110938 233.146825 122.110938 231.146825 
L 122.110938 189.196825 
Q 122.110938 187.196825 120.110938 187.196825 
L 46.45 187.196825 
Q 44.45 187.196825 44.45 189.196825 
L 44.45 231.146825 
Q 44.45 233.146825 46.45 233.146825 
z
" style="fill: #ffffff; opacity: 0.8; stroke: #cccccc; stroke-linejoin: miter"/>
    </g>
    <g id="line2d_37">
     <path d="M 48.45 194.696825 
L 58.45 194.696825 
L 68.45 194.696825 
" style="fill: none; stroke: #000000; stroke-width: 2; stroke-linecap: square"/>
    </g>
    <g id="text_19">
     <!-- Centreline -->
     <g transform="translate(76.45 198.196825)scale(0.1 -0.1)">
      <defs>
       <path id="STIXGeneral-Regular-43" d="M 3930 838 
L 4051 723 
Q 3482 -90 2304 -90 
Q 1376 -90 794 480 
Q 179 1082 179 2080 
Q 179 3014 755 3661 
Q 1357 4326 2310 4326 
Q 2720 4326 3072 4230 
Q 3475 4115 3514 4115 
Q 3725 4115 3782 4326 
L 3910 4326 
L 3968 2874 
L 3821 2874 
Q 3718 3334 3488 3584 
Q 3034 4070 2458 4070 
Q 1747 4070 1334 3548 
Q 922 3027 922 2182 
Q 922 1152 1382 653 
Q 1811 192 2522 192 
Q 2944 192 3251 339 
Q 3558 486 3930 838 
z
" transform="scale(0.015625)"/>
       <path id="STIXGeneral-Regular-65" d="M 2611 1050 
L 2714 1005 
Q 2330 -64 1376 -64 
Q 813 -64 486 329 
Q 160 723 160 1389 
Q 160 2074 525 2509 
Q 890 2944 1485 2944 
Q 2061 2944 2374 2502 
Q 2560 2246 2592 1773 
L 621 1773 
Q 646 1370 700 1158 
Q 755 947 915 730 
Q 1184 378 1626 378 
Q 1939 378 2153 531 
Q 2368 685 2611 1050 
z
M 634 1978 
L 1939 1978 
Q 1882 2381 1750 2547 
Q 1619 2714 1312 2714 
Q 1043 2714 864 2525 
Q 685 2336 634 1978 
z
" transform="scale(0.015625)"/>
       <path id="STIXGeneral-Regular-6e" d="M 3104 0 
L 1773 0 
L 1779 96 
Q 2016 115 2096 233 
Q 2176 352 2176 672 
L 2176 1946 
Q 2176 2592 1709 2592 
Q 1549 2592 1408 2515 
Q 1267 2438 1050 2227 
L 1050 461 
Q 1050 269 1136 192 
Q 1222 115 1466 96 
L 1466 0 
L 115 0 
L 115 96 
Q 358 115 435 214 
Q 512 314 512 602 
L 512 2157 
Q 512 2394 467 2483 
Q 422 2573 288 2573 
Q 160 2573 102 2547 
L 102 2656 
Q 550 2784 979 2944 
L 1030 2925 
L 1030 2426 
L 1037 2426 
Q 1491 2944 1958 2944 
Q 2323 2944 2518 2688 
Q 2714 2432 2714 1958 
L 2714 544 
Q 2714 288 2790 205 
Q 2867 122 3104 96 
L 3104 0 
z
" transform="scale(0.015625)"/>
       <path id="STIXGeneral-Regular-74" d="M 1702 493 
L 1786 422 
Q 1478 -64 1011 -64 
Q 448 -64 448 749 
L 448 2675 
L 109 2675 
Q 83 2694 83 2720 
Q 83 2771 192 2842 
Q 435 2982 813 3526 
Q 826 3546 874 3606 
Q 922 3667 941 3706 
Q 986 3706 986 3622 
L 986 2880 
L 1632 2880 
L 1632 2675 
L 986 2675 
L 986 845 
Q 986 538 1062 403 
Q 1139 269 1318 269 
Q 1510 269 1702 493 
z
" transform="scale(0.015625)"/>
       <path id="STIXGeneral-Regular-72" d="M 1024 2931 
L 1024 2342 
Q 1267 2688 1430 2816 
Q 1594 2944 1792 2944 
Q 1958 2944 2051 2854 
Q 2144 2765 2144 2605 
Q 2144 2470 2077 2393 
Q 2010 2317 1894 2317 
Q 1773 2317 1638 2445 
Q 1536 2541 1472 2541 
Q 1338 2541 1181 2355 
Q 1024 2170 1024 2016 
L 1024 576 
Q 1024 301 1133 205 
Q 1242 109 1568 96 
L 1568 0 
L 32 0 
L 32 96 
Q 339 154 412 224 
Q 486 294 486 538 
L 486 2138 
Q 486 2349 438 2435 
Q 390 2522 269 2522 
Q 166 2522 45 2496 
L 45 2598 
Q 448 2726 992 2944 
L 1024 2931 
z
" transform="scale(0.015625)"/>
       <path id="STIXGeneral-Regular-6c" d="M 1645 0 
L 134 0 
L 134 96 
Q 435 122 531 221 
Q 627 320 627 589 
L 627 3590 
Q 627 3821 569 3910 
Q 512 4000 358 4000 
Q 224 4000 122 3987 
L 122 4090 
Q 730 4237 1133 4371 
L 1165 4346 
L 1165 557 
Q 1165 288 1254 201 
Q 1344 115 1645 96 
L 1645 0 
z
" transform="scale(0.015625)"/>
       <path id="STIXGeneral-Regular-69" d="M 1152 4045 
Q 1152 3904 1056 3811 
Q 960 3718 819 3718 
Q 685 3718 592 3811 
Q 499 3904 499 4045 
Q 499 4179 595 4275 
Q 691 4371 826 4371 
Q 966 4371 1059 4275 
Q 1152 4179 1152 4045 
z
M 1619 0 
L 102 0 
L 102 96 
Q 435 115 521 211 
Q 608 307 608 666 
L 608 2118 
Q 608 2342 563 2432 
Q 518 2522 397 2522 
Q 243 2522 128 2490 
L 128 2592 
L 1120 2944 
L 1146 2918 
L 1146 672 
Q 1146 314 1226 218 
Q 1306 122 1619 96 
L 1619 0 
z
" transform="scale(0.015625)"/>
      </defs>
      <use xlink:href="#STIXGeneral-Regular-43"/>
      <use xlink:href="#STIXGeneral-Regular-65" x="66.699997"/>
      <use xlink:href="#STIXGeneral-Regular-6e" x="111.099991"/>
      <use xlink:href="#STIXGeneral-Regular-74" x="161.099976"/>
      <use xlink:href="#STIXGeneral-Regular-72" x="188.899963"/>
      <use xlink:href="#STIXGeneral-Regular-65" x="222.199951"/>
      <use xlink:href="#STIXGeneral-Regular-6c" x="266.599945"/>
      <use xlink:href="#STIXGeneral-Regular-69" x="294.399933"/>
      <use xlink:href="#STIXGeneral-Regular-6e" x="322.199921"/>
      <use xlink:href="#STIXGeneral-Regular-65" x="372.199905"/>
     </g>
    </g>
    <g id="line2d_38">
     <path d="M 48.45 208.867137 
L 58.45 208.867137 
L 68.45 208.867137 
" style="fill: none; stroke-dasharray: 7.4,3.2; stroke-dashoffset: 0; stroke: #000000; stroke-width: 2"/>
    </g>
    <g id="text_20">
     <!-- Edges -->
     <g transform="translate(76.45 212.367137)scale(0.1 -0.1)">
      <defs>
       <path id="STIXGeneral-Regular-45" d="M 3821 1082 
L 3526 0 
L 77 0 
L 77 122 
Q 442 147 538 252 
Q 634 358 634 730 
L 634 3520 
Q 634 3878 534 3987 
Q 435 4096 77 4115 
L 77 4237 
L 3469 4237 
L 3494 3322 
L 3334 3322 
Q 3264 3750 3085 3872 
Q 2906 3994 2349 3994 
L 1510 3994 
Q 1370 3994 1328 3952 
Q 1286 3910 1286 3763 
L 1286 2355 
L 2253 2355 
Q 2656 2355 2787 2470 
Q 2918 2586 2976 2970 
L 3123 2970 
L 3123 1472 
L 2976 1472 
Q 2918 1875 2790 1984 
Q 2662 2093 2253 2093 
L 1286 2093 
L 1286 538 
Q 1286 346 1420 291 
Q 1555 237 1933 237 
L 2163 237 
Q 2848 237 3136 403 
Q 3424 570 3642 1082 
L 3821 1082 
z
" transform="scale(0.015625)"/>
       <path id="STIXGeneral-Regular-64" d="M 3142 269 
L 2202 -64 
L 2176 -45 
L 2176 365 
Q 1869 -64 1357 -64 
Q 826 -64 499 317 
Q 173 698 173 1312 
Q 173 1990 563 2467 
Q 954 2944 1504 2944 
Q 1850 2944 2176 2669 
L 2176 3667 
Q 2176 3866 2118 3930 
Q 2061 3994 1882 3994 
Q 1792 3994 1741 3987 
L 1741 4090 
Q 2323 4243 2682 4371 
L 2714 4358 
L 2714 730 
Q 2714 506 2768 435 
Q 2822 365 2995 365 
Q 3034 365 3142 371 
L 3142 269 
z
M 2176 653 
L 2176 2125 
Q 2176 2381 1981 2573 
Q 1786 2765 1523 2765 
Q 1158 2765 940 2438 
Q 723 2112 723 1568 
Q 723 979 963 624 
Q 1203 269 1606 269 
Q 1907 269 2080 474 
Q 2176 582 2176 653 
z
" transform="scale(0.015625)"/>
       <path id="STIXGeneral-Regular-67" d="M 3008 2483 
L 2477 2483 
Q 2598 2208 2598 1946 
Q 2598 1453 2265 1203 
Q 1933 954 1600 954 
Q 1530 954 1357 973 
L 1235 986 
Q 1107 947 979 812 
Q 851 678 851 582 
Q 851 435 1350 410 
L 2176 371 
Q 2528 358 2739 172 
Q 2950 -13 2950 -314 
Q 2950 -685 2566 -986 
Q 2035 -1395 1286 -1395 
Q 826 -1395 502 -1212 
Q 179 -1030 179 -774 
Q 179 -595 320 -419 
Q 461 -243 806 6 
Q 602 102 534 172 
Q 467 243 467 346 
Q 467 531 762 787 
Q 909 915 1037 1043 
Q 717 1203 579 1401 
Q 442 1600 442 1901 
Q 442 2336 752 2640 
Q 1062 2944 1510 2944 
Q 1766 2944 2022 2848 
L 2163 2797 
Q 2349 2733 2515 2733 
L 3008 2733 
L 3008 2483 
z
M 973 2163 
L 973 2144 
Q 973 1683 1155 1398 
Q 1338 1114 1632 1114 
Q 1850 1114 1978 1270 
Q 2106 1427 2106 1690 
Q 2106 2112 1914 2464 
Q 1754 2765 1446 2765 
Q 1222 2765 1097 2605 
Q 973 2445 973 2163 
z
M 2771 -410 
Q 2771 -230 2595 -163 
Q 2419 -96 1978 -96 
Q 1344 -96 941 -13 
Q 749 -243 688 -348 
Q 627 -454 627 -563 
Q 627 -774 880 -902 
Q 1133 -1030 1555 -1030 
Q 2099 -1030 2435 -860 
Q 2771 -691 2771 -410 
z
" transform="scale(0.015625)"/>
       <path id="STIXGeneral-Regular-73" d="M 998 1926 
L 1664 1523 
Q 1984 1331 2105 1164 
Q 2227 998 2227 736 
Q 2227 416 1961 176 
Q 1696 -64 1331 -64 
Q 1030 -64 864 -6 
Q 691 51 570 51 
Q 461 51 416 -26 
L 333 -26 
L 333 979 
L 435 979 
Q 538 512 730 294 
Q 922 77 1248 77 
Q 1485 77 1632 211 
Q 1779 346 1779 550 
Q 1779 845 1440 1030 
L 1094 1222 
Q 326 1651 326 2150 
Q 326 2522 566 2730 
Q 806 2938 1210 2938 
Q 1491 2938 1638 2867 
Q 1754 2816 1818 2816 
Q 1862 2816 1920 2880 
L 1990 2880 
L 2022 2010 
L 1926 2010 
Q 1818 2445 1654 2621 
Q 1491 2797 1203 2797 
Q 986 2797 854 2688 
Q 723 2579 723 2362 
Q 723 2253 796 2128 
Q 870 2003 998 1926 
z
" transform="scale(0.015625)"/>
      </defs>
      <use xlink:href="#STIXGeneral-Regular-45"/>
      <use xlink:href="#STIXGeneral-Regular-64" x="61.099991"/>
      <use xlink:href="#STIXGeneral-Regular-67" x="111.099976"/>
      <use xlink:href="#STIXGeneral-Regular-65" x="161.09996"/>
      <use xlink:href="#STIXGeneral-Regular-73" x="205.499954"/>
     </g>
    </g>
    <g id="line2d_39">
     <path d="M 48.45 223.476512 
L 58.45 223.476512 
L 68.45 223.476512 
" style="fill: none; stroke-dasharray: 2,3.3; stroke-dashoffset: 0; stroke: #000000; stroke-width: 2"/>
    </g>
    <g id="text_21">
     <!-- $y=0$ -->
     <g transform="translate(76.45 226.976512)scale(0.1 -0.1)">
      <use xlink:href="#DejaVuSans-Oblique-79" transform="translate(0 0.78125)"/>
      <use xlink:href="#DejaVuSans-3d" transform="translate(78.662109 0.78125)"/>
      <use xlink:href="#DejaVuSans-30" transform="translate(181.933594 0.78125)"/>
     </g>
    </g>
   </g>
  </g>
 </g>
 <defs>
  <clipPath id="p1836175822">
   <rect x="39.45" y="22.115625" width="481.182" height="216.0312"/>
  </clipPath>
 </defs>
</svg>
